<?xml version="1.0" encoding="utf-8"?>
<!-- Generator: Adobe Illustrator 21.0.2, SVG Export Plug-In . SVG Version: 6.00 Build 0)  -->
<svg version="1.1" id="Layer_1" xmlns="http://www.w3.org/2000/svg" xmlns:xlink="http://www.w3.org/1999/xlink" x="0px" y="0px"
	 viewBox="0 0 500 225" style="enable-background:new 0 0 500 225;" xml:space="preserve">
<style type="text/css">
	.st0{fill:#FF6141;}
	.st1{enable-background:new    ;}
	.st2{fill:#FFFFFF;}
</style>
<title>Steps</title>
<desc>Created with Sketch.</desc>
<g id="V3">
	<g id="Ambassador" transform="translate(-300.000000, -1620.000000)">
		<g id="Form" transform="translate(0.000000, 1387.000000)">
			<g id="Steps" transform="translate(300.000000, 233.000000)">
				<g id="Group-9" transform="translate(0.000000, 11.000000)">
					<g id="Group-6" transform="translate(0.000000, 60.000000)">
						<g id="Group-10">
							<g id="Oval">
								<circle class="st0" cx="10" cy="10" r="10"/>
							</g>
							<g class="st1">
								<g>
									<path class="st2" d="M12.4,14H7.5v-1l2.3-2.5c0.3-0.3,0.5-0.6,0.7-0.9s0.2-0.5,0.2-0.7c0-0.3-0.1-0.6-0.2-0.7
										C10.3,8,10.1,7.9,9.8,7.9S9.2,8,9,8.3C8.8,8.5,8.8,8.8,8.8,9.1H7.3c0-0.4,0.1-0.8,0.3-1.2c0.2-0.4,0.5-0.6,0.9-0.8
										c0.4-0.2,0.8-0.3,1.3-0.3c0.7,0,1.3,0.2,1.7,0.5s0.6,0.8,0.6,1.5c0,0.4-0.1,0.7-0.3,1.1s-0.5,0.8-0.9,1.3l-1.6,1.7h3.1V14z
										"/>
								</g>
							</g>
						</g>
						<g class="st1">
							<g>
								<path class="st2" d="M44.2,10.5l3-5.4h1l-3.6,6.2V15h-0.8v-3.7L40.2,5h1L44.2,10.5z"/>
							</g>
							<g>
								<path class="st2" d="M48.7,11.2c0-0.7,0.1-1.4,0.4-1.9s0.7-1,1.2-1.3c0.5-0.3,1.1-0.5,1.7-0.5c1,0,1.8,0.3,2.4,1
									c0.6,0.7,0.9,1.6,0.9,2.7v0.2c0,0.7-0.1,1.4-0.4,1.9c-0.3,0.6-0.7,1-1.2,1.3s-1.1,0.5-1.7,0.5c-1,0-1.8-0.3-2.4-1
									c-0.6-0.7-0.9-1.6-0.9-2.7V11.2z M49.5,11.4c0,0.9,0.2,1.6,0.7,2.2c0.5,0.6,1.1,0.9,1.8,0.9s1.3-0.3,1.8-0.9
									c0.5-0.6,0.7-1.3,0.7-2.2v-0.2c0-0.6-0.1-1.1-0.3-1.6s-0.5-0.8-0.9-1.1S52.5,8.1,52,8.1c-0.7,0-1.3,0.3-1.8,0.9
									c-0.5,0.6-0.7,1.3-0.7,2.2V11.4z"/>
							</g>
							<g>
								<path class="st2" d="M61.9,14.1c-0.5,0.7-1.3,1.1-2.4,1.1c-0.8,0-1.4-0.2-1.8-0.7c-0.4-0.5-0.6-1.1-0.6-2V7.6H58v4.7
									c0,1.4,0.6,2.1,1.7,2.1c1.2,0,1.9-0.5,2.2-1.5V7.6h0.8V15H62L61.9,14.1z"/>
							</g>
							<g>
								<path class="st2" d="M70.4,13.3l0.1,0.6l0.2-0.7l1.8-5.7h0.7l1.8,5.6l0.2,0.8l0.2-0.7l1.5-5.7h0.8L75.5,15h-0.7l-1.9-5.9
									l-0.1-0.4l-0.1,0.4L70.8,15h-0.7L68,7.6h0.8L70.4,13.3z"/>
							</g>
							<g>
								<path class="st2" d="M79.3,5.5c0-0.2,0.1-0.3,0.2-0.4s0.2-0.2,0.4-0.2s0.3,0.1,0.4,0.2s0.2,0.2,0.2,0.4
									c0,0.2-0.1,0.3-0.2,0.4S80,6,79.8,6s-0.3,0-0.4-0.1S79.3,5.6,79.3,5.5z M80.2,15h-0.8V7.6h0.8V15z"/>
							</g>
							<g>
								<path class="st2" d="M83.6,15h-0.8V4.5h0.8V15z"/>
							</g>
							<g>
								<path class="st2" d="M86.9,15H86V4.5h0.8L86.9,15L86.9,15z"/>
							</g>
							<g>
								<path class="st2" d="M98.8,11.4c0,1.2-0.3,2.1-0.8,2.7c-0.5,0.7-1.2,1-2.1,1c-1,0-1.8-0.4-2.3-1.1v1h-0.8V4.5h0.8v4.2
									c0.5-0.8,1.3-1.2,2.3-1.2c0.9,0,1.6,0.3,2.1,1S98.8,10.1,98.8,11.4L98.8,11.4z M98,11.2c0-1-0.2-1.7-0.6-2.3
									c-0.4-0.5-0.9-0.8-1.6-0.8c-0.5,0-1,0.1-1.3,0.4c-0.4,0.3-0.6,0.6-0.8,1.1V13c0.4,0.9,1.1,1.4,2.2,1.4
									c0.7,0,1.2-0.3,1.6-0.8S98,12.3,98,11.2z"/>
							</g>
							<g>
								<path class="st2" d="M103.6,15.1c-0.6,0-1.2-0.2-1.7-0.5s-0.9-0.7-1.2-1.3c-0.3-0.6-0.4-1.2-0.4-1.9v-0.3
									c0-0.7,0.1-1.4,0.4-1.9s0.7-1,1.2-1.3c0.5-0.3,1-0.5,1.6-0.5c0.9,0,1.6,0.3,2.1,0.9s0.8,1.5,0.8,2.5v0.5h-5.3v0.2
									c0,0.8,0.2,1.5,0.7,2.1s1.1,0.8,1.8,0.8c0.4,0,0.8-0.1,1.2-0.2s0.6-0.4,0.9-0.8l0.5,0.4C105.6,14.7,104.8,15.1,103.6,15.1z
									 M103.5,8.2c-0.6,0-1.1,0.2-1.6,0.7s-0.7,1.1-0.8,1.8h4.4v-0.1c0-0.7-0.2-1.3-0.6-1.7S104.1,8.2,103.5,8.2z"/>
							</g>
							<g>
								<path class="st2" d="M111.4,11.2c0-1.2,0.3-2.1,0.8-2.8s1.2-1,2.1-1c1,0,1.8,0.4,2.3,1.2V7.5h0.8v7.2c0,1-0.3,1.7-0.8,2.3
									s-1.3,0.8-2.2,0.8c-0.5,0-1-0.1-1.5-0.3c-0.5-0.2-0.8-0.5-1.1-0.9l0.5-0.5c0.6,0.7,1.3,1.1,2.1,1.1c0.7,0,1.2-0.2,1.6-0.6
									s0.6-1,0.6-1.7V14c-0.5,0.7-1.3,1.1-2.3,1.1c-0.9,0-1.5-0.3-2.1-1s-0.8-1.6-0.8-2.8V11.2z M112.2,11.4
									c0,0.9,0.2,1.7,0.6,2.2s0.9,0.8,1.6,0.8c1,0,1.7-0.5,2.1-1.4V9.6c-0.2-0.5-0.5-0.8-0.8-1.1c-0.4-0.2-0.8-0.4-1.3-0.4
									c-0.7,0-1.2,0.3-1.6,0.8C112.4,9.5,112.2,10.3,112.2,11.4z"/>
							</g>
							<g>
								<path class="st2" d="M119.6,5.5c0-0.2,0.1-0.3,0.2-0.4s0.2-0.2,0.4-0.2s0.3,0.1,0.4,0.2s0.2,0.2,0.2,0.4
									c0,0.2-0.1,0.3-0.2,0.4S120.3,6,120.2,6s-0.3-0.1-0.4-0.2S119.6,5.6,119.6,5.5z M120.6,15h-0.8V7.6h0.8V15z"/>
							</g>
							<g>
								<path class="st2" d="M125.3,13.9l2.2-6.3h0.8l-2.8,7.4h-0.7L122,7.6h0.8L125.3,13.9z"/>
							</g>
							<g>
								<path class="st2" d="M132.6,15.1c-0.6,0-1.2-0.2-1.7-0.5s-0.9-0.7-1.2-1.3s-0.4-1.2-0.4-1.9v-0.3c0-0.7,0.1-1.4,0.4-1.9
									s0.7-1,1.2-1.3c0.5-0.3,1-0.5,1.6-0.5c0.9,0,1.6,0.3,2.1,0.9s0.8,1.5,0.8,2.5v0.5h-5.3v0.2c0,0.8,0.2,1.5,0.7,2.1
									s1.1,0.8,1.8,0.8c0.4,0,0.8-0.1,1.2-0.2s0.6-0.4,0.9-0.8l0.5,0.4C134.7,14.7,133.8,15.1,132.6,15.1z M132.5,8.2
									c-0.6,0-1.1,0.2-1.6,0.7s-0.7,1.1-0.8,1.8h4.4v-0.1c0-0.7-0.2-1.3-0.6-1.7S133.1,8.2,132.5,8.2z"/>
							</g>
							<g>
								<path class="st2" d="M138,7.6v1.3c0.3-0.5,0.6-0.8,1-1c0.4-0.2,0.9-0.4,1.4-0.4c0.8,0,1.4,0.2,1.8,0.7
									c0.4,0.4,0.6,1.1,0.6,2V15H142v-4.9c0-0.7-0.1-1.2-0.4-1.5s-0.7-0.5-1.3-0.5c-0.5,0-1,0.2-1.3,0.5c-0.4,0.3-0.7,0.7-0.9,1.3
									V15h-0.8V7.6H138z"/>
							</g>
							<g>
								<path class="st2" d="M153.3,15c-0.1-0.2-0.1-0.6-0.2-1c-0.3,0.4-0.7,0.7-1.1,0.9c-0.4,0.2-0.9,0.3-1.4,0.3
									c-0.7,0-1.3-0.2-1.7-0.6s-0.7-0.9-0.7-1.5c0-0.7,0.3-1.3,0.9-1.7s1.4-0.6,2.5-0.6h1.5V9.9c0-0.5-0.2-0.9-0.5-1.2
									s-0.8-0.5-1.4-0.5c-0.6,0-1,0.1-1.4,0.4s-0.6,0.6-0.6,1.1h-0.8c0-0.6,0.3-1.1,0.8-1.5c0.5-0.4,1.2-0.6,2-0.6s1.5,0.2,2,0.6
									c0.5,0.4,0.7,1,0.7,1.7v3.5c0,0.7,0.1,1.3,0.2,1.6l0,0H153.3z M150.7,14.4c0.5,0,1-0.1,1.5-0.4s0.7-0.6,0.9-1.1v-1.6h-1.5
									c-0.8,0-1.5,0.2-1.9,0.4c-0.5,0.3-0.7,0.7-0.7,1.2c0,0.4,0.2,0.8,0.5,1S150.2,14.4,150.7,14.4z"/>
							</g>
							<g>
								<path class="st2" d="M159,14.4c0.6,0,1-0.2,1.4-0.5s0.6-0.7,0.6-1.2h0.8c0,0.5-0.2,0.9-0.4,1.2c-0.3,0.4-0.6,0.7-1,0.9
									s-0.9,0.3-1.4,0.3c-1,0-1.7-0.3-2.3-1s-0.9-1.6-0.9-2.7v-0.2c0-0.7,0.1-1.4,0.4-1.9s0.6-1,1.1-1.3c0.5-0.3,1-0.5,1.7-0.5
									c0.8,0,1.5,0.2,2,0.7s0.8,1.1,0.8,1.9H161c0-0.6-0.2-1-0.6-1.4s-0.9-0.5-1.4-0.5c-0.7,0-1.3,0.3-1.7,0.8s-0.6,1.3-0.6,2.2
									v0.2c0,0.9,0.2,1.7,0.6,2.2S158.3,14.4,159,14.4z"/>
							</g>
							<g>
								<path class="st2" d="M166.4,14.4c0.6,0,1-0.2,1.4-0.5s0.6-0.7,0.6-1.2h0.8c0,0.5-0.2,0.9-0.4,1.2c-0.3,0.4-0.6,0.7-1,0.9
									s-0.9,0.3-1.4,0.3c-1,0-1.7-0.3-2.3-1s-0.9-1.6-0.9-2.7v-0.2c0-0.7,0.1-1.4,0.4-1.9s0.6-1,1.1-1.3c0.5-0.3,1-0.5,1.7-0.5
									c0.8,0,1.5,0.2,2,0.7s0.8,1.1,0.8,1.9h-0.8c0-0.6-0.2-1-0.6-1.4s-0.9-0.5-1.4-0.5c-0.7,0-1.3,0.3-1.7,0.8s-0.6,1.3-0.6,2.2
									v0.2c0,0.9,0.2,1.7,0.6,2.2S165.6,14.4,166.4,14.4z"/>
							</g>
							<g>
								<path class="st2" d="M173.9,15.1c-0.6,0-1.2-0.2-1.7-0.5s-0.9-0.7-1.2-1.3s-0.4-1.2-0.4-1.9v-0.3c0-0.7,0.1-1.4,0.4-1.9
									s0.7-1,1.2-1.3c0.5-0.3,1-0.5,1.6-0.5c0.9,0,1.6,0.3,2.1,0.9s0.8,1.5,0.8,2.5v0.5h-5.3v0.2c0,0.8,0.2,1.5,0.7,2.1
									s1.1,0.8,1.8,0.8c0.4,0,0.8-0.1,1.2-0.2s0.6-0.4,0.9-0.8l0.5,0.4C175.9,14.7,175,15.1,173.9,15.1z M173.7,8.2
									c-0.6,0-1.1,0.2-1.6,0.7s-0.7,1.1-0.8,1.8h4.4v-0.1c0-0.7-0.2-1.3-0.6-1.7S174.4,8.2,173.7,8.2z"/>
							</g>
							<g>
								<path class="st2" d="M182.9,13.1c0-0.4-0.2-0.7-0.5-1s-0.8-0.4-1.5-0.6c-0.7-0.1-1.2-0.3-1.5-0.5c-0.4-0.2-0.6-0.4-0.8-0.7
									s-0.3-0.6-0.3-0.9c0-0.6,0.2-1.1,0.7-1.4c0.5-0.4,1.1-0.6,1.9-0.6c0.8,0,1.5,0.2,2,0.6s0.7,0.9,0.7,1.6h-0.8
									c0-0.4-0.2-0.8-0.5-1.1s-0.8-0.4-1.4-0.4c-0.5,0-1,0.1-1.3,0.4c-0.3,0.2-0.5,0.5-0.5,0.9s0.1,0.7,0.4,0.9
									c0.3,0.2,0.8,0.4,1.5,0.6s1.3,0.3,1.6,0.5s0.6,0.4,0.8,0.7s0.3,0.6,0.3,1c0,0.6-0.3,1.1-0.8,1.5s-1.2,0.6-2,0.6
									c-0.9,0-1.6-0.2-2.1-0.6c-0.5-0.4-0.8-0.9-0.8-1.6h0.8c0,0.5,0.2,0.9,0.6,1.1c0.4,0.3,0.9,0.4,1.5,0.4s1-0.1,1.4-0.4
									S182.9,13.5,182.9,13.1z"/>
							</g>
							<g>
								<path class="st2" d="M190.1,13.1c0-0.4-0.2-0.7-0.5-1s-0.8-0.4-1.5-0.6c-0.7-0.1-1.2-0.3-1.5-0.5c-0.4-0.2-0.6-0.4-0.8-0.7
									s-0.3-0.6-0.3-0.9c0-0.6,0.2-1.1,0.7-1.4c0.5-0.4,1.1-0.6,1.9-0.6c0.8,0,1.5,0.2,2,0.6s0.7,0.9,0.7,1.6H190
									c0-0.4-0.2-0.8-0.5-1.1s-0.8-0.4-1.4-0.4c-0.5,0-1,0.1-1.3,0.4c-0.3,0.2-0.5,0.5-0.5,0.9s0.1,0.7,0.4,0.9
									c0.3,0.2,0.8,0.4,1.5,0.6s1.3,0.3,1.6,0.5s0.6,0.4,0.8,0.7s0.3,0.6,0.3,1c0,0.6-0.3,1.1-0.8,1.5s-1.2,0.6-2,0.6
									c-0.9,0-1.6-0.2-2.1-0.6c-0.5-0.4-0.8-0.9-0.8-1.6h0.8c0,0.5,0.2,0.9,0.6,1.1c0.4,0.3,0.9,0.4,1.5,0.4s1-0.1,1.4-0.4
									S190.1,13.5,190.1,13.1z"/>
							</g>
							<g>
								<path class="st2" d="M197.8,5.7v1.9h1.5v0.7h-1.5v4.9c0,0.4,0.1,0.7,0.2,0.9c0.1,0.2,0.4,0.3,0.7,0.3c0.1,0,0.4,0,0.7-0.1
									V15c-0.2,0.1-0.5,0.1-0.9,0.1c-0.6,0-1-0.2-1.2-0.5c-0.3-0.3-0.4-0.8-0.4-1.4V8.3h-1.4V7.6h1.4V5.7H197.8z"/>
							</g>
							<g>
								<path class="st2" d="M200.6,11.2c0-0.7,0.1-1.4,0.4-1.9s0.7-1,1.2-1.3c0.5-0.3,1.1-0.5,1.7-0.5c1,0,1.8,0.3,2.4,1
									c0.6,0.7,0.9,1.6,0.9,2.7v0.2c0,0.7-0.1,1.4-0.4,1.9c-0.3,0.6-0.7,1-1.2,1.3s-1.1,0.5-1.7,0.5c-1,0-1.8-0.3-2.4-1
									c-0.6-0.7-0.9-1.6-0.9-2.7V11.2z M201.4,11.4c0,0.9,0.2,1.6,0.7,2.2c0.5,0.6,1.1,0.9,1.8,0.9s1.3-0.3,1.8-0.9
									c0.5-0.6,0.7-1.3,0.7-2.2v-0.2c0-0.6-0.1-1.1-0.3-1.6s-0.5-0.8-0.9-1.1s-0.8-0.4-1.3-0.4c-0.7,0-1.3,0.3-1.8,0.9
									c-0.5,0.6-0.7,1.3-0.7,2.2V11.4z"/>
							</g>
							<g>
								<path class="st2" d="M215,13.8l2.2-6.2h0.9l-3.2,8.7l-0.2,0.4c-0.4,0.9-1,1.3-1.9,1.3c-0.2,0-0.4,0-0.6-0.1v-0.7h0.4
									c0.4,0,0.7-0.1,1-0.3c0.2-0.2,0.5-0.5,0.6-1l0.4-1l-2.8-7.3h0.9L215,13.8z"/>
							</g>
							<g>
								<path class="st2" d="M218.9,11.2c0-0.7,0.1-1.4,0.4-1.9s0.7-1,1.2-1.3c0.5-0.3,1.1-0.5,1.7-0.5c1,0,1.8,0.3,2.4,1
									c0.6,0.7,0.9,1.6,0.9,2.7v0.2c0,0.7-0.1,1.4-0.4,1.9c-0.3,0.6-0.7,1-1.2,1.3s-1.1,0.5-1.7,0.5c-1,0-1.8-0.3-2.4-1
									c-0.6-0.7-0.9-1.6-0.9-2.7V11.2z M219.7,11.4c0,0.9,0.2,1.6,0.7,2.2c0.5,0.6,1.1,0.9,1.8,0.9s1.3-0.3,1.8-0.9
									c0.5-0.6,0.7-1.3,0.7-2.2v-0.2c0-0.6-0.1-1.1-0.3-1.6s-0.5-0.8-0.9-1.1s-0.8-0.4-1.3-0.4c-0.7,0-1.3,0.3-1.8,0.9
									c-0.5,0.6-0.7,1.3-0.7,2.2V11.4z"/>
							</g>
							<g>
								<path class="st2" d="M232.1,14.1c-0.5,0.7-1.3,1.1-2.4,1.1c-0.8,0-1.4-0.2-1.8-0.7c-0.4-0.5-0.6-1.1-0.6-2V7.6h0.8v4.7
									c0,1.4,0.6,2.1,1.7,2.1c1.2,0,1.9-0.5,2.2-1.5V7.6h0.8V15H232L232.1,14.1z"/>
							</g>
							<g>
								<path class="st2" d="M238.6,8.3c-0.2,0-0.4,0-0.6,0c-0.5,0-0.9,0.1-1.3,0.4c-0.4,0.3-0.6,0.7-0.8,1.2V15h-0.8V7.6h0.8v1.2
									c0.4-0.9,1.1-1.3,2.1-1.3c0.2,0,0.4,0,0.5,0.1L238.6,8.3z"/>
							</g>
							<g>
								<path class="st2" d="M249.6,11.4c0,1.2-0.3,2.1-0.8,2.7c-0.5,0.7-1.2,1-2.1,1c-1,0-1.8-0.4-2.3-1.1v3.8h-0.8V7.6h0.8v1
									c0.5-0.8,1.3-1.2,2.3-1.2c0.9,0,1.6,0.3,2.1,1s0.8,1.6,0.8,2.8V11.4z M248.8,11.2c0-0.9-0.2-1.7-0.6-2.2s-0.9-0.8-1.6-0.8
									c-0.5,0-0.9,0.1-1.3,0.4s-0.6,0.6-0.8,1.1v3.5c0.2,0.4,0.5,0.7,0.8,1s0.8,0.3,1.3,0.3c0.7,0,1.2-0.3,1.6-0.8
									C248.6,13.1,248.8,12.3,248.8,11.2z"/>
							</g>
							<g>
								<path class="st2" d="M254.5,15.1c-0.6,0-1.2-0.2-1.7-0.5s-0.9-0.7-1.2-1.3s-0.4-1.2-0.4-1.9v-0.3c0-0.7,0.1-1.4,0.4-1.9
									c0.3-0.6,0.7-1,1.2-1.3c0.5-0.3,1-0.5,1.6-0.5c0.9,0,1.6,0.3,2.1,0.9s0.8,1.5,0.8,2.5v0.5H252v0.2c0,0.8,0.2,1.5,0.7,2.1
									s1.1,0.8,1.8,0.8c0.4,0,0.8-0.1,1.2-0.2c0.3-0.2,0.6-0.4,0.9-0.8l0.5,0.4C256.5,14.7,255.6,15.1,254.5,15.1z M254.3,8.2
									c-0.6,0-1.1,0.2-1.6,0.7c-0.4,0.5-0.7,1.1-0.8,1.8h4.4v-0.1c0-0.7-0.2-1.3-0.6-1.7S254.9,8.2,254.3,8.2z"/>
							</g>
							<g>
								<path class="st2" d="M262.4,8.3c-0.2,0-0.4,0-0.6,0c-0.5,0-0.9,0.1-1.3,0.4c-0.4,0.3-0.6,0.7-0.8,1.2V15H259V7.6h0.8v1.2
									c0.4-0.9,1.1-1.3,2.1-1.3c0.2,0,0.4,0,0.5,0.1V8.3z"/>
							</g>
							<g>
								<path class="st2" d="M268.3,13.1c0-0.4-0.2-0.7-0.5-1c-0.3-0.2-0.8-0.4-1.5-0.6c-0.7-0.1-1.2-0.3-1.5-0.5
									c-0.4-0.2-0.6-0.4-0.8-0.7c-0.2-0.3-0.3-0.6-0.3-0.9c0-0.6,0.2-1.1,0.7-1.4c0.5-0.4,1.1-0.6,1.9-0.6s1.5,0.2,2,0.6
									s0.7,0.9,0.7,1.6h-0.8c0-0.4-0.2-0.8-0.5-1.1c-0.4-0.3-0.8-0.4-1.4-0.4c-0.5,0-1,0.1-1.3,0.4c-0.3,0.2-0.5,0.5-0.5,0.9
									s0.1,0.7,0.4,0.9s0.8,0.4,1.5,0.6c0.7,0.2,1.3,0.3,1.6,0.5c0.4,0.2,0.6,0.4,0.8,0.7s0.3,0.6,0.3,1c0,0.6-0.3,1.1-0.8,1.5
									s-1.2,0.6-2,0.6c-0.9,0-1.6-0.2-2.1-0.6c-0.5-0.4-0.8-0.9-0.8-1.6h0.8c0,0.5,0.2,0.9,0.6,1.1c0.4,0.3,0.9,0.4,1.5,0.4
									s1-0.1,1.4-0.4S268.3,13.5,268.3,13.1z"/>
							</g>
							<g>
								<path class="st2" d="M270.7,11.2c0-0.7,0.1-1.4,0.4-1.9c0.3-0.6,0.7-1,1.2-1.3c0.5-0.3,1.1-0.5,1.7-0.5c1,0,1.8,0.3,2.4,1
									s0.9,1.6,0.9,2.7v0.2c0,0.7-0.1,1.4-0.4,1.9c-0.3,0.6-0.7,1-1.2,1.3s-1.1,0.5-1.7,0.5c-1,0-1.8-0.3-2.4-1s-0.9-1.6-0.9-2.7
									V11.2z M271.5,11.4c0,0.9,0.2,1.6,0.7,2.2c0.5,0.6,1.1,0.9,1.8,0.9c0.7,0,1.3-0.3,1.8-0.9c0.5-0.6,0.7-1.3,0.7-2.2v-0.2
									c0-0.6-0.1-1.1-0.3-1.6s-0.5-0.8-0.9-1.1s-0.8-0.4-1.3-0.4c-0.7,0-1.3,0.3-1.8,0.9c-0.5,0.6-0.7,1.3-0.7,2.2L271.5,11.4
									L271.5,11.4z"/>
							</g>
							<g>
								<path class="st2" d="M279.9,7.6v1.3c0.3-0.5,0.6-0.8,1-1c0.4-0.2,0.9-0.4,1.4-0.4c0.8,0,1.4,0.2,1.8,0.7
									c0.4,0.4,0.6,1.1,0.6,2V15h-0.8v-4.9c0-0.7-0.1-1.2-0.4-1.5s-0.7-0.5-1.3-0.5c-0.5,0-1,0.2-1.3,0.5
									c-0.4,0.3-0.7,0.7-0.9,1.3V15h-0.8V7.6H279.9z"/>
							</g>
							<g>
								<path class="st2" d="M291.7,15c-0.1-0.2-0.1-0.6-0.2-1c-0.3,0.4-0.7,0.7-1.1,0.9s-0.9,0.3-1.4,0.3c-0.7,0-1.3-0.2-1.7-0.6
									c-0.4-0.4-0.7-0.9-0.7-1.5c0-0.7,0.3-1.3,0.9-1.7s1.4-0.6,2.5-0.6h1.5V9.9c0-0.5-0.2-0.9-0.5-1.2s-0.8-0.5-1.4-0.5
									s-1,0.1-1.4,0.4s-0.6,0.6-0.6,1.1h-0.8c0-0.6,0.3-1.1,0.8-1.5c0.5-0.4,1.2-0.6,2-0.6s1.5,0.2,2,0.6c0.5,0.4,0.7,1,0.7,1.7
									v3.5c0,0.7,0.1,1.3,0.2,1.6l0,0H291.7z M289.1,14.4c0.5,0,1-0.1,1.5-0.4c0.4-0.3,0.7-0.6,0.9-1.1v-1.6H290
									c-0.8,0-1.5,0.2-1.9,0.4c-0.5,0.3-0.7,0.7-0.7,1.2c0,0.4,0.2,0.8,0.5,1C288.2,14.3,288.6,14.4,289.1,14.4z"/>
							</g>
							<g>
								<path class="st2" d="M295.6,15h-0.8V4.5h0.8V15z"/>
							</g>
							<g>
								<path class="st2" d="M301.2,11.2c0-1.1,0.3-2.1,0.8-2.7c0.5-0.7,1.2-1,2.1-1c1,0,1.8,0.4,2.3,1.2V4.5h0.8V15h-0.8v-1
									c-0.5,0.7-1.3,1.1-2.3,1.1c-0.9,0-1.5-0.3-2.1-1C301.5,13.4,301.2,12.5,301.2,11.2L301.2,11.2z M302,11.4
									c0,0.9,0.2,1.7,0.6,2.2s0.9,0.8,1.6,0.8c1,0,1.7-0.4,2.1-1.3V9.6c-0.4-1-1.1-1.4-2.1-1.4c-0.7,0-1.2,0.3-1.6,0.8
									C302.2,9.5,302,10.3,302,11.4z"/>
							</g>
							<g>
								<path class="st2" d="M312.3,15.1c-0.6,0-1.2-0.2-1.7-0.5s-0.9-0.7-1.2-1.3c-0.3-0.6-0.4-1.2-0.4-1.9v-0.3
									c0-0.7,0.1-1.4,0.4-1.9s0.7-1,1.2-1.3c0.5-0.3,1-0.5,1.6-0.5c0.9,0,1.6,0.3,2.1,0.9s0.8,1.5,0.8,2.5v0.5h-5.3v0.2
									c0,0.8,0.2,1.5,0.7,2.1s1.1,0.8,1.8,0.8c0.4,0,0.8-0.1,1.2-0.2s0.6-0.4,0.9-0.8l0.5,0.4C314.4,14.7,313.5,15.1,312.3,15.1z
									 M312.2,8.2c-0.6,0-1.1,0.2-1.6,0.7s-0.7,1.1-0.8,1.8h4.4v-0.1c0-0.7-0.2-1.3-0.6-1.7S312.8,8.2,312.2,8.2z"/>
							</g>
							<g>
								<path class="st2" d="M316.6,11.2c0-1.1,0.3-2.1,0.8-2.7c0.5-0.7,1.2-1,2.1-1c1,0,1.8,0.4,2.3,1.2V4.5h0.8V15h-0.8v-1
									c-0.5,0.7-1.3,1.1-2.3,1.1c-0.9,0-1.5-0.3-2.1-1C316.8,13.4,316.6,12.5,316.6,11.2L316.6,11.2z M317.4,11.4
									c0,0.9,0.2,1.7,0.6,2.2s0.9,0.8,1.6,0.8c1,0,1.7-0.4,2.1-1.3V9.6c-0.4-1-1.1-1.4-2.1-1.4c-0.7,0-1.2,0.3-1.6,0.8
									C317.6,9.5,317.4,10.3,317.4,11.4z"/>
							</g>
							<g>
								<path class="st2" d="M324.8,5.5c0-0.2,0-0.3,0.2-0.4c0.1-0.1,0.2-0.2,0.4-0.2c0.2,0,0.3,0.1,0.4,0.2s0.2,0.2,0.2,0.4
									c0,0.2-0.1,0.3-0.2,0.4S325.5,6,325.3,6s-0.3-0.1-0.4-0.2C324.8,5.7,324.8,5.6,324.8,5.5z M325.7,15h-0.8V7.6h0.8V15z"/>
							</g>
							<g>
								<path class="st2" d="M330.9,14.4c0.6,0,1-0.2,1.4-0.5s0.6-0.7,0.6-1.2h0.8c0,0.5-0.2,0.9-0.4,1.2c-0.3,0.4-0.6,0.7-1,0.9
									s-0.9,0.3-1.4,0.3c-1,0-1.7-0.3-2.3-1s-0.9-1.6-0.9-2.7v-0.2c0-0.7,0.1-1.4,0.4-1.9c0.3-0.6,0.6-1,1.1-1.3
									c0.5-0.3,1-0.5,1.7-0.5c0.8,0,1.5,0.2,2,0.7s0.8,1.1,0.8,1.9h-0.8c0-0.6-0.2-1-0.6-1.4s-0.9-0.5-1.4-0.5
									c-0.7,0-1.3,0.3-1.7,0.8s-0.6,1.3-0.6,2.2v0.2c0,0.9,0.2,1.7,0.6,2.2S330.1,14.4,330.9,14.4z"/>
							</g>
							<g>
								<path class="st2" d="M340.2,15c-0.1-0.2-0.1-0.6-0.2-1c-0.3,0.4-0.7,0.7-1.1,0.9s-0.9,0.3-1.4,0.3c-0.7,0-1.3-0.2-1.7-0.6
									s-0.7-0.9-0.7-1.5c0-0.7,0.3-1.3,0.9-1.7s1.4-0.6,2.5-0.6h1.5V9.9c0-0.5-0.2-0.9-0.5-1.2s-0.8-0.5-1.4-0.5s-1,0.1-1.4,0.4
									c-0.4,0.3-0.6,0.6-0.6,1.1h-0.8c0-0.6,0.3-1.1,0.8-1.5c0.5-0.4,1.2-0.6,2-0.6s1.5,0.2,2,0.6c0.5,0.4,0.7,1,0.7,1.7v3.5
									c0,0.7,0.1,1.3,0.2,1.6l0,0H340.2z M337.6,14.4c0.5,0,1-0.1,1.5-0.4s0.7-0.6,0.9-1.1v-1.6h-1.5c-0.8,0-1.5,0.2-1.9,0.4
									c-0.5,0.3-0.7,0.7-0.7,1.2c0,0.4,0.2,0.8,0.5,1S337.1,14.4,337.6,14.4z"/>
							</g>
							<g>
								<path class="st2" d="M344.5,5.7v1.9h1.5v0.7h-1.5v4.9c0,0.4,0.1,0.7,0.2,0.9s0.4,0.3,0.7,0.3c0.1,0,0.4,0,0.7-0.1V15
									c-0.2,0.1-0.5,0.1-0.9,0.1c-0.6,0-1-0.2-1.2-0.5c-0.3-0.3-0.4-0.8-0.4-1.4V8.3h-1.4V7.6h1.4V5.7H344.5z"/>
							</g>
							<g>
								<path class="st2" d="M350.7,15.1c-0.6,0-1.2-0.2-1.7-0.5s-0.9-0.7-1.2-1.3c-0.3-0.6-0.4-1.2-0.4-1.9v-0.3
									c0-0.7,0.1-1.4,0.4-1.9s0.7-1,1.2-1.3c0.5-0.3,1-0.5,1.6-0.5c0.9,0,1.6,0.3,2.1,0.9s0.8,1.5,0.8,2.5v0.5h-5.3v0.2
									c0,0.8,0.2,1.5,0.7,2.1s1.1,0.8,1.8,0.8c0.4,0,0.8-0.1,1.2-0.2s0.6-0.4,0.9-0.8l0.5,0.4C352.7,14.7,351.9,15.1,350.7,15.1z
									 M350.6,8.2c-0.6,0-1.1,0.2-1.6,0.7s-0.7,1.1-0.8,1.8h4.4v-0.1c0-0.7-0.2-1.3-0.6-1.7S351.2,8.2,350.6,8.2z"/>
							</g>
							<g>
								<path class="st2" d="M354.9,11.2c0-1.1,0.3-2.1,0.8-2.7c0.5-0.7,1.2-1,2.1-1c1,0,1.8,0.4,2.3,1.2V4.5h0.8V15h-0.8v-1
									c-0.5,0.7-1.3,1.1-2.3,1.1c-0.9,0-1.5-0.3-2.1-1C355.2,13.4,354.9,12.5,354.9,11.2L354.9,11.2z M355.8,11.4
									c0,0.9,0.2,1.7,0.6,2.2s0.9,0.8,1.6,0.8c1,0,1.7-0.4,2.1-1.3V9.6c-0.4-1-1.1-1.4-2.1-1.4c-0.7,0-1.2,0.3-1.6,0.8
									C355.9,9.5,355.8,10.3,355.8,11.4z"/>
							</g>
							<g>
								<path class="st2" d="M371.5,14.1c-0.5,0.7-1.3,1.1-2.4,1.1c-0.8,0-1.4-0.2-1.8-0.7s-0.6-1.1-0.6-2V7.6h0.8v4.7
									c0,1.4,0.6,2.1,1.7,2.1c1.2,0,1.9-0.5,2.2-1.5V7.6h0.8V15h-0.8L371.5,14.1z"/>
							</g>
							<g>
								<path class="st2" d="M379.1,13.1c0-0.4-0.2-0.7-0.5-1s-0.8-0.4-1.5-0.6c-0.7-0.1-1.2-0.3-1.5-0.5c-0.4-0.2-0.6-0.4-0.8-0.7
									s-0.3-0.6-0.3-0.9c0-0.6,0.2-1.1,0.7-1.4c0.5-0.4,1.1-0.6,1.9-0.6s1.5,0.2,2,0.6s0.7,0.9,0.7,1.6H379c0-0.4-0.2-0.8-0.5-1.1
									s-0.8-0.4-1.4-0.4c-0.5,0-1,0.1-1.3,0.4c-0.3,0.2-0.5,0.5-0.5,0.9s0.1,0.7,0.4,0.9s0.8,0.4,1.5,0.6s1.3,0.3,1.6,0.5
									s0.6,0.4,0.8,0.7c0.2,0.3,0.3,0.6,0.3,1c0,0.6-0.3,1.1-0.8,1.5s-1.2,0.6-2,0.6c-0.9,0-1.6-0.2-2.1-0.6
									c-0.5-0.4-0.8-0.9-0.8-1.6h0.8c0,0.5,0.2,0.9,0.6,1.1c0.4,0.3,0.9,0.4,1.5,0.4s1-0.1,1.4-0.4
									C378.9,13.8,379.1,13.5,379.1,13.1z"/>
							</g>
							<g>
								<path class="st2" d="M384.8,15.1c-0.6,0-1.2-0.2-1.7-0.5s-0.9-0.7-1.2-1.3c-0.3-0.6-0.4-1.2-0.4-1.9v-0.3
									c0-0.7,0.1-1.4,0.4-1.9c0.3-0.6,0.7-1,1.2-1.3c0.5-0.3,1-0.5,1.6-0.5c0.9,0,1.6,0.3,2.1,0.9s0.8,1.5,0.8,2.5v0.5h-5.3v0.2
									c0,0.8,0.2,1.5,0.7,2.1s1.1,0.8,1.8,0.8c0.4,0,0.8-0.1,1.2-0.2c0.3-0.2,0.6-0.4,0.9-0.8l0.5,0.4
									C386.8,14.7,385.9,15.1,384.8,15.1z M384.6,8.2c-0.6,0-1.1,0.2-1.6,0.7c-0.4,0.5-0.7,1.1-0.8,1.8h4.4v-0.1
									c0-0.7-0.2-1.3-0.6-1.7S385.2,8.2,384.6,8.2z"/>
							</g>
							<g>
								<path class="st2" d="M392.7,8.3c-0.2,0-0.4,0-0.6,0c-0.5,0-0.9,0.1-1.3,0.4c-0.4,0.3-0.6,0.7-0.8,1.2V15h-0.8V7.6h0.8v1.2
									c0.4-0.9,1.1-1.3,2.1-1.3c0.2,0,0.4,0,0.5,0.1L392.7,8.3z"/>
							</g>
							<g>
								<path class="st2" d="M402.4,15c-0.1-0.2-0.1-0.6-0.2-1c-0.3,0.4-0.7,0.7-1.1,0.9s-0.9,0.3-1.4,0.3c-0.7,0-1.3-0.2-1.7-0.6
									c-0.4-0.4-0.7-0.9-0.7-1.5c0-0.7,0.3-1.3,0.9-1.7s1.4-0.6,2.5-0.6h1.5V9.9c0-0.5-0.2-0.9-0.5-1.2s-0.8-0.5-1.4-0.5
									s-1,0.1-1.4,0.4s-0.6,0.6-0.6,1.1h-0.8c0-0.6,0.3-1.1,0.8-1.5c0.5-0.4,1.2-0.6,2-0.6s1.5,0.2,2,0.6c0.5,0.4,0.7,1,0.7,1.7
									v3.5c0,0.7,0.1,1.3,0.2,1.6l0,0H402.4z M399.8,14.4c0.5,0,1-0.1,1.5-0.4c0.4-0.3,0.7-0.6,0.9-1.1v-1.6h-1.5
									c-0.8,0-1.5,0.2-1.9,0.4c-0.5,0.3-0.7,0.7-0.7,1.2c0,0.4,0.2,0.8,0.5,1C398.9,14.3,399.3,14.4,399.8,14.4z"/>
							</g>
							<g>
								<path class="st2" d="M408.8,8.3c-0.2,0-0.4,0-0.6,0c-0.5,0-0.9,0.1-1.3,0.4c-0.4,0.3-0.6,0.7-0.8,1.2V15h-0.8V7.6h0.8v1.2
									c0.4-0.9,1.1-1.3,2.1-1.3c0.2,0,0.4,0,0.5,0.1L408.8,8.3z"/>
							</g>
							<g>
								<path class="st2" d="M413,15.1c-0.6,0-1.2-0.2-1.7-0.5s-0.9-0.7-1.2-1.3c-0.3-0.6-0.4-1.2-0.4-1.9v-0.3
									c0-0.7,0.1-1.4,0.4-1.9c0.3-0.6,0.7-1,1.2-1.3c0.5-0.3,1-0.5,1.6-0.5c0.9,0,1.6,0.3,2.1,0.9s0.8,1.5,0.8,2.5v0.5h-5.3v0.2
									c0,0.8,0.2,1.5,0.7,2.1s1.1,0.8,1.8,0.8c0.4,0,0.8-0.1,1.2-0.2c0.3-0.2,0.6-0.4,0.9-0.8l0.5,0.4
									C415,14.7,414.2,15.1,413,15.1z M412.9,8.2c-0.6,0-1.1,0.2-1.6,0.7c-0.4,0.5-0.7,1.1-0.8,1.8h4.4v-0.1
									c0-0.7-0.2-1.3-0.6-1.7S413.5,8.2,412.9,8.2z"/>
							</g>
							<g>
								<path class="st2" d="M422.2,15c-0.1-0.2-0.1-0.6-0.2-1c-0.3,0.4-0.7,0.7-1.1,0.9s-0.9,0.3-1.4,0.3c-0.7,0-1.3-0.2-1.7-0.6
									c-0.4-0.4-0.7-0.9-0.7-1.5c0-0.7,0.3-1.3,0.9-1.7s1.4-0.6,2.5-0.6h1.5V9.9c0-0.5-0.2-0.9-0.5-1.2s-0.8-0.5-1.4-0.5
									s-1,0.1-1.4,0.4s-0.6,0.6-0.6,1.1h-0.8c0-0.6,0.3-1.1,0.8-1.5c0.5-0.4,1.2-0.6,2-0.6s1.5,0.2,2,0.6c0.5,0.4,0.7,1,0.7,1.7
									v3.5c0,0.7,0.1,1.3,0.2,1.6l0,0H422.2z M419.7,14.4c0.5,0,1-0.1,1.5-0.4c0.4-0.3,0.7-0.6,0.9-1.1v-1.6h-1.5
									c-0.8,0-1.5,0.2-1.9,0.4c-0.5,0.3-0.7,0.7-0.7,1.2c0,0.4,0.2,0.8,0.5,1C418.8,14.3,419.2,14.4,419.7,14.4z"/>
							</g>
						</g>
					</g>
					<g id="Group-5" transform="translate(0.000000, 120.000000)">
						<g id="Group-10_1_">
							<g id="Oval_1_">
								<circle class="st0" cx="10" cy="10" r="10"/>
							</g>
							<g class="st1">
								<g>
									<path class="st2" d="M8.9,9.8h0.8c0.4,0,0.6-0.1,0.8-0.3s0.3-0.4,0.3-0.7s-0.1-0.5-0.3-0.7c-0.2-0.2-0.4-0.2-0.7-0.2
										C9.5,7.9,9.3,8,9.1,8.2C8.9,8.3,8.8,8.5,8.8,8.7H7.4c0-0.4,0.1-0.7,0.3-1C7.9,7.4,8.2,7.2,8.5,7s0.8-0.2,1.2-0.2
										c0.8,0,1.3,0.2,1.8,0.5c0.4,0.4,0.6,0.9,0.6,1.5c0,0.3-0.1,0.6-0.3,0.9s-0.5,0.5-0.8,0.6c0.4,0.1,0.7,0.4,0.9,0.6
										s0.3,0.6,0.3,1c0,0.6-0.2,1.1-0.7,1.5S10.4,14,9.7,14S8.4,13.8,8,13.4s-0.7-0.9-0.7-1.5h1.4c0,0.3,0.1,0.5,0.3,0.7
										S9.5,13,9.8,13s0.6-0.1,0.8-0.3s0.3-0.4,0.3-0.7c0-0.7-0.4-1.1-1.2-1.1H8.9V9.8z"/>
								</g>
							</g>
						</g>
						<g class="st1">
							<g>
								<path class="st2" d="M43.1,12.3l0.3,1.5l0.4-1.5L45.9,5h0.8l2.1,7.3l0.4,1.5l0.3-1.6L51.3,5h0.9l-2.5,10h-0.8l-2.3-7.8
									l-0.3-1l-0.2,1L43.8,15H43L40.4,5h0.9L43.1,12.3z"/>
							</g>
							<g>
								<path class="st2" d="M54.6,8.9c0.3-0.4,0.6-0.8,1-1C56,7.7,56.5,7.5,57,7.5c0.8,0,1.4,0.2,1.8,0.7c0.4,0.4,0.6,1.1,0.6,2V15
									h-0.8v-4.9c0-0.7-0.1-1.2-0.4-1.5s-0.7-0.5-1.3-0.5c-0.5,0-1,0.2-1.3,0.5c-0.4,0.3-0.7,0.7-0.9,1.3V15h-0.8V4.5h0.8
									L54.6,8.9L54.6,8.9z"/>
							</g>
							<g>
								<path class="st2" d="M64.5,15.1c-0.6,0-1.2-0.2-1.7-0.5s-0.9-0.7-1.2-1.3s-0.4-1.2-0.4-1.9v-0.3c0-0.7,0.1-1.4,0.4-1.9
									s0.7-1,1.2-1.3c0.5-0.3,1-0.5,1.6-0.5c0.9,0,1.6,0.3,2.1,0.9s0.8,1.5,0.8,2.5v0.5H62v0.2c0,0.8,0.2,1.5,0.7,2.1
									s1.1,0.8,1.8,0.8c0.4,0,0.8-0.1,1.2-0.2s0.6-0.4,0.9-0.8l0.5,0.4C66.5,14.7,65.6,15.1,64.5,15.1z M64.4,8.2
									c-0.6,0-1.1,0.2-1.6,0.7S62.1,10,62,10.7h4.4v-0.1c0-0.7-0.2-1.3-0.6-1.7S65,8.2,64.4,8.2z"/>
							</g>
							<g>
								<path class="st2" d="M72.5,8.3c-0.2,0-0.4,0-0.6,0c-0.5,0-0.9,0.1-1.3,0.4C70.3,9,70,9.4,69.9,9.9V15H69V7.6h0.8v1.2
									c0.4-0.9,1.1-1.3,2.1-1.3c0.2,0,0.4,0,0.5,0.1L72.5,8.3z"/>
							</g>
							<g>
								<path class="st2" d="M76.6,15.1c-0.6,0-1.2-0.2-1.7-0.5s-0.9-0.7-1.2-1.3c-0.3-0.6-0.4-1.2-0.4-1.9v-0.3
									c0-0.7,0.1-1.4,0.4-1.9s0.7-1,1.2-1.3c0.5-0.3,1-0.5,1.6-0.5c0.9,0,1.6,0.3,2.1,0.9s0.8,1.5,0.8,2.5v0.5h-5.3v0.2
									c0,0.8,0.2,1.5,0.7,2.1s1.1,0.8,1.8,0.8c0.4,0,0.8-0.1,1.2-0.2s0.6-0.4,0.9-0.8l0.5,0.4C78.7,14.7,77.8,15.1,76.6,15.1z
									 M76.5,8.2c-0.6,0-1.1,0.2-1.6,0.7s-0.7,1.1-0.8,1.8h4.4v-0.1c0-0.7-0.2-1.3-0.6-1.7S77.1,8.2,76.5,8.2z"/>
							</g>
							<g>
								<path class="st2" d="M87.1,13.8l2.2-6.2h0.9L87,16.3l-0.2,0.4c-0.4,0.9-1,1.3-1.9,1.3c-0.2,0-0.4,0-0.6-0.1v-0.7h0.4
									c0.4,0,0.7-0.1,1-0.3c0.2-0.2,0.5-0.5,0.6-1l0.4-1l-2.8-7.3h0.9L87.1,13.8z"/>
							</g>
							<g>
								<path class="st2" d="M91,11.2c0-0.7,0.1-1.4,0.4-1.9s0.7-1,1.2-1.3c0.5-0.3,1.1-0.5,1.7-0.5c1,0,1.8,0.3,2.4,1
									s0.9,1.6,0.9,2.7v0.2c0,0.7-0.1,1.4-0.4,1.9c-0.3,0.6-0.7,1-1.2,1.3s-1.1,0.5-1.7,0.5c-1,0-1.8-0.3-2.4-1S91,12.5,91,11.4
									V11.2z M91.8,11.4c0,0.9,0.2,1.6,0.7,2.2c0.5,0.6,1.1,0.9,1.8,0.9c0.7,0,1.3-0.3,1.8-0.9c0.5-0.6,0.7-1.3,0.7-2.2v-0.2
									c0-0.6-0.1-1.1-0.3-1.6s-0.5-0.8-0.9-1c-0.4-0.3-0.8-0.4-1.3-0.4c-0.7,0-1.3,0.3-1.8,0.9C92,9.7,91.8,10.4,91.8,11.4
									C91.8,11.3,91.8,11.4,91.8,11.4z"/>
							</g>
							<g>
								<path class="st2" d="M104.2,14.1c-0.5,0.7-1.3,1.1-2.4,1.1c-0.8,0-1.4-0.2-1.8-0.7s-0.6-1.1-0.6-2V7.6h0.8v4.7
									c0,1.4,0.6,2.1,1.7,2.1c1.2,0,1.9-0.5,2.2-1.5V7.6h0.8V15h-0.8L104.2,14.1z"/>
							</g>
							<g>
								<path class="st2" d="M112.7,13.3l0.1,0.6l0.2-0.7l1.8-5.7h0.7l1.8,5.6l0.2,0.8l0.2-0.7l1.5-5.7h0.8l-2.2,7.4h-0.7L115.2,9
									l-0.1-0.4L115,9.1l-1.9,5.9h-0.7l-2.1-7.4h0.8L112.7,13.3z"/>
							</g>
							<g>
								<path class="st2" d="M121.6,5.5c0-0.2,0.1-0.3,0.2-0.4s0.2-0.2,0.4-0.2s0.3,0.1,0.4,0.2s0.2,0.2,0.2,0.4
									c0,0.2-0.1,0.3-0.2,0.4S122.3,6,122.1,6s-0.3-0.1-0.4-0.2S121.6,5.6,121.6,5.5z M122.6,15h-0.8V7.6h0.8V15z"/>
							</g>
							<g>
								<path class="st2" d="M125.9,15H125V4.5h0.8L125.9,15L125.9,15z"/>
							</g>
							<g>
								<path class="st2" d="M129.2,15h-0.8V4.5h0.8V15z"/>
							</g>
							<g>
								<path class="st2" d="M135.7,15V8.3h-1.2V7.6h1.2V6.7c0-0.8,0.2-1.3,0.6-1.7s0.9-0.6,1.6-0.6c0.3,0,0.6,0,0.9,0.1l-0.1,0.7
									c-0.2-0.1-0.5-0.1-0.7-0.1c-0.5,0-0.8,0.1-1.1,0.4s-0.4,0.7-0.4,1.2v0.9h1.8v0.7h-1.8V15H135.7z"/>
							</g>
							<g>
								<path class="st2" d="M139.9,5.5c0-0.2,0.1-0.3,0.2-0.4c0.1-0.1,0.2-0.2,0.4-0.2s0.3,0.1,0.4,0.2c0.1,0.1,0.2,0.2,0.2,0.4
									c0,0.2-0.1,0.3-0.2,0.4S140.6,6,140.4,6s-0.3,0-0.4-0.1S139.9,5.6,139.9,5.5z M140.8,15H140V7.6h0.8V15z"/>
							</g>
							<g>
								<path class="st2" d="M144,7.6v1.3c0.3-0.5,0.6-0.8,1-1c0.4-0.2,0.9-0.4,1.4-0.4c0.8,0,1.4,0.2,1.8,0.7
									c0.4,0.4,0.6,1.1,0.6,2V15H148v-4.9c0-0.7-0.1-1.2-0.4-1.5s-0.7-0.5-1.3-0.5c-0.5,0-1,0.2-1.3,0.5c-0.4,0.3-0.7,0.7-0.9,1.3
									V15h-0.8V7.6H144z"/>
							</g>
							<g>
								<path class="st2" d="M150.8,11.2c0-1.1,0.3-2.1,0.8-2.7c0.5-0.7,1.2-1,2.1-1c1,0,1.8,0.4,2.3,1.2V4.5h0.8V15H156v-1
									c-0.5,0.7-1.3,1.1-2.3,1.1c-0.9,0-1.5-0.3-2.1-1C151,13.4,150.8,12.5,150.8,11.2L150.8,11.2z M151.6,11.4
									c0,0.9,0.2,1.7,0.6,2.2c0.4,0.5,0.9,0.8,1.6,0.8c1,0,1.7-0.4,2.1-1.3V9.6c-0.4-1-1.1-1.4-2.1-1.4c-0.7,0-1.2,0.3-1.6,0.8
									C151.8,9.5,151.6,10.3,151.6,11.4z"/>
							</g>
							<g>
								<path class="st2" d="M165,13.8l2.2-6.2h0.9l-3.2,8.7l-0.2,0.4c-0.4,0.9-1,1.3-1.9,1.3c-0.2,0-0.4,0-0.6-0.1v-0.7h0.4
									c0.4,0,0.7-0.1,1-0.3c0.2-0.2,0.5-0.5,0.6-1l0.4-1l-2.8-7.3h0.9L165,13.8z"/>
							</g>
							<g>
								<path class="st2" d="M168.9,11.2c0-0.7,0.1-1.4,0.4-1.9s0.7-1,1.2-1.3c0.5-0.3,1.1-0.5,1.7-0.5c1,0,1.8,0.3,2.4,1
									c0.6,0.7,0.9,1.6,0.9,2.7v0.2c0,0.7-0.1,1.4-0.4,1.9c-0.3,0.6-0.7,1-1.2,1.3s-1.1,0.5-1.7,0.5c-1,0-1.8-0.3-2.4-1
									c-0.6-0.7-0.9-1.6-0.9-2.7V11.2z M169.7,11.4c0,0.9,0.2,1.6,0.7,2.2c0.5,0.6,1.1,0.9,1.8,0.9s1.3-0.3,1.8-0.9
									c0.5-0.6,0.7-1.3,0.7-2.2v-0.2c0-0.6-0.1-1.1-0.3-1.6s-0.5-0.8-0.9-1.1s-0.8-0.4-1.3-0.4c-0.7,0-1.3,0.3-1.8,0.9
									c-0.5,0.6-0.7,1.3-0.7,2.2V11.4z"/>
							</g>
							<g>
								<path class="st2" d="M182.1,14.1c-0.5,0.7-1.3,1.1-2.4,1.1c-0.8,0-1.4-0.2-1.8-0.7c-0.4-0.5-0.6-1.1-0.6-2V7.6h0.8v4.7
									c0,1.4,0.6,2.1,1.7,2.1c1.2,0,1.9-0.5,2.2-1.5V7.6h0.8V15H182L182.1,14.1z"/>
							</g>
							<g>
								<path class="st2" d="M188.6,8.3c-0.2,0-0.4,0-0.6,0c-0.5,0-0.9,0.1-1.3,0.4c-0.4,0.3-0.6,0.7-0.8,1.2V15h-0.8V7.6h0.8v1.2
									c0.4-0.9,1.1-1.3,2.1-1.3c0.2,0,0.4,0,0.5,0.1L188.6,8.3z"/>
							</g>
							<g>
								<path class="st2" d="M198.4,14.1c-0.5,0.7-1.3,1.1-2.4,1.1c-0.8,0-1.4-0.2-1.8-0.7c-0.4-0.5-0.6-1.1-0.6-2V7.6h0.8v4.7
									c0,1.4,0.6,2.1,1.7,2.1c1.2,0,1.9-0.5,2.2-1.5V7.6h0.8V15h-0.8L198.4,14.1z"/>
							</g>
							<g>
								<path class="st2" d="M202.3,7.6v1.3c0.3-0.5,0.6-0.8,1-1c0.4-0.2,0.9-0.4,1.4-0.4c0.8,0,1.4,0.2,1.8,0.7
									c0.4,0.4,0.6,1.1,0.6,2V15h-0.8v-4.9c0-0.7-0.1-1.2-0.4-1.5s-0.7-0.5-1.3-0.5c-0.5,0-1,0.2-1.3,0.5
									c-0.4,0.3-0.7,0.7-0.9,1.3V15h-0.8V7.6H202.3z"/>
							</g>
							<g>
								<path class="st2" d="M209.3,5.5c0-0.2,0.1-0.3,0.2-0.4c0.1-0.1,0.2-0.2,0.4-0.2s0.3,0.1,0.4,0.2c0.1,0.1,0.2,0.2,0.2,0.4
									c0,0.2-0.1,0.3-0.2,0.4S210.1,6,209.9,6s-0.3-0.1-0.4-0.2S209.3,5.6,209.3,5.5z M210.3,15h-0.8V7.6h0.8V15z"/>
							</g>
							<g>
								<path class="st2" d="M212.3,11.2c0-1.2,0.3-2.1,0.8-2.8s1.2-1,2.1-1c1,0,1.8,0.4,2.3,1.1v-1h0.8v10.2h-0.8v-3.8
									c-0.5,0.7-1.3,1.1-2.3,1.1c-0.9,0-1.6-0.3-2.1-1S212.3,12.4,212.3,11.2L212.3,11.2z M213.2,11.4c0,1,0.2,1.7,0.6,2.3
									c0.4,0.5,0.9,0.8,1.6,0.8c1,0,1.7-0.4,2.1-1.3V9.5c-0.2-0.4-0.5-0.8-0.9-1s-0.8-0.4-1.3-0.4c-0.7,0-1.2,0.3-1.6,0.8
									C213.4,9.5,213.2,10.3,213.2,11.4z"/>
							</g>
							<g>
								<path class="st2" d="M225.4,14.1c-0.5,0.7-1.3,1.1-2.4,1.1c-0.8,0-1.4-0.2-1.8-0.7c-0.4-0.5-0.6-1.1-0.6-2V7.6h0.8v4.7
									c0,1.4,0.6,2.1,1.7,2.1c1.2,0,1.9-0.5,2.2-1.5V7.6h0.8V15h-0.8L225.4,14.1z"/>
							</g>
							<g>
								<path class="st2" d="M231.4,15.1c-0.6,0-1.2-0.2-1.7-0.5s-0.9-0.7-1.2-1.3s-0.4-1.2-0.4-1.9v-0.3c0-0.7,0.1-1.4,0.4-1.9
									s0.7-1,1.2-1.3c0.5-0.3,1-0.5,1.6-0.5c0.9,0,1.6,0.3,2.1,0.9s0.8,1.5,0.8,2.5v0.5h-5.3v0.2c0,0.8,0.2,1.5,0.7,2.1
									s1.1,0.8,1.8,0.8c0.4,0,0.8-0.1,1.2-0.2s0.6-0.4,0.9-0.8l0.5,0.4C233.4,14.7,232.5,15.1,231.4,15.1z M231.2,8.2
									c-0.6,0-1.1,0.2-1.6,0.7s-0.7,1.1-0.8,1.8h4.4v-0.1c0-0.7-0.2-1.3-0.6-1.7S231.8,8.2,231.2,8.2z"/>
							</g>
							<g>
								<path class="st2" d="M240.4,15h-0.8V4.5h0.8V15z"/>
							</g>
							<g>
								<path class="st2" d="M242.7,5.5c0-0.2,0.1-0.3,0.2-0.4c0.1-0.1,0.2-0.2,0.4-0.2s0.3,0.1,0.4,0.2c0.1,0.1,0.2,0.2,0.2,0.4
									c0,0.2-0.1,0.3-0.2,0.4S243.5,6,243.3,6s-0.3,0-0.4-0.1S242.7,5.6,242.7,5.5z M243.7,15h-0.8V7.6h0.8V15z"/>
							</g>
							<g>
								<path class="st2" d="M246.9,7.6v1.3c0.3-0.5,0.6-0.8,1-1c0.4-0.2,0.9-0.4,1.4-0.4c0.8,0,1.4,0.2,1.8,0.7
									c0.4,0.4,0.6,1.1,0.6,2V15h-0.8v-4.9c0-0.7-0.1-1.2-0.4-1.5s-0.7-0.5-1.3-0.5c-0.5,0-1,0.2-1.3,0.5
									c-0.4,0.3-0.7,0.7-0.9,1.3V15h-0.8V7.6H246.9z"/>
							</g>
							<g>
								<path class="st2" d="M255.7,11.3l-0.9,0.9V15H254V4.5h0.8v6.7l0.8-0.8l2.8-2.8h1l-3.1,3.1l3.4,4.3h-1L255.7,11.3z"/>
							</g>
							<g>
								<path class="st2" d="M269.2,15c-0.1-0.2-0.1-0.6-0.2-1c-0.3,0.4-0.7,0.7-1.1,0.9s-0.9,0.3-1.4,0.3c-0.7,0-1.3-0.2-1.7-0.6
									c-0.4-0.4-0.7-0.9-0.7-1.5c0-0.7,0.3-1.3,0.9-1.7s1.4-0.6,2.5-0.6h1.5V9.9c0-0.5-0.2-0.9-0.5-1.2s-0.8-0.5-1.4-0.5
									s-1,0.1-1.4,0.4s-0.6,0.6-0.6,1.1h-0.8c0-0.6,0.3-1.1,0.8-1.5c0.5-0.4,1.2-0.6,2-0.6s1.5,0.2,2,0.6c0.5,0.4,0.7,1,0.7,1.7
									v3.5c0,0.7,0.1,1.3,0.2,1.6l0,0H269.2z M266.6,14.4c0.5,0,1-0.1,1.5-0.4c0.4-0.3,0.7-0.6,0.9-1.1v-1.6h-1.5
									c-0.8,0-1.5,0.2-1.9,0.4c-0.5,0.3-0.7,0.7-0.7,1.2c0,0.4,0.2,0.8,0.5,1C265.7,14.3,266.1,14.4,266.6,14.4z"/>
							</g>
							<g>
								<path class="st2" d="M273,7.6v1.3c0.3-0.5,0.6-0.8,1-1c0.4-0.2,0.9-0.4,1.4-0.4c0.8,0,1.4,0.2,1.8,0.7
									c0.4,0.4,0.6,1.1,0.6,2V15H277v-4.9c0-0.7-0.1-1.2-0.4-1.5s-0.7-0.5-1.3-0.5c-0.5,0-1,0.2-1.3,0.5c-0.4,0.3-0.7,0.7-0.9,1.3
									V15h-0.8V7.6H273z"/>
							</g>
							<g>
								<path class="st2" d="M279.7,11.2c0-1.1,0.3-2.1,0.8-2.7c0.5-0.7,1.2-1,2.1-1c1,0,1.8,0.4,2.3,1.2V4.5h0.8V15h-0.8v-1
									c-0.5,0.7-1.3,1.1-2.3,1.1c-0.9,0-1.5-0.3-2.1-1C280,13.4,279.7,12.5,279.7,11.2L279.7,11.2z M280.6,11.4
									c0,0.9,0.2,1.7,0.6,2.2s0.9,0.8,1.6,0.8c1,0,1.7-0.4,2.1-1.3V9.6c-0.4-1-1.1-1.4-2.1-1.4c-0.7,0-1.2,0.3-1.6,0.8
									C280.8,9.5,280.6,10.3,280.6,11.4z"/>
							</g>
							<g>
								<path class="st2" d="M292.3,7.6v1.2c0.3-0.4,0.6-0.8,1-1s0.9-0.3,1.4-0.3c1.2,0,1.9,0.5,2.2,1.4c0.3-0.5,0.6-0.8,1.1-1.1
									c0.4-0.2,0.9-0.4,1.5-0.4c1.6,0,2.4,0.9,2.4,2.6v5h-0.8v-4.9c0-0.7-0.1-1.2-0.4-1.5s-0.7-0.5-1.4-0.5
									c-0.6,0-1.1,0.2-1.5,0.6c-0.4,0.4-0.6,0.8-0.7,1.4V15h-0.8v-4.9c0-0.6-0.2-1.1-0.4-1.4c-0.3-0.3-0.7-0.5-1.4-0.5
									c-0.5,0-1,0.1-1.3,0.4c-0.4,0.3-0.6,0.7-0.8,1.3V15h-0.8V7.6H292.3z"/>
							</g>
							<g>
								<path class="st2" d="M308.8,15c-0.1-0.2-0.1-0.6-0.2-1c-0.3,0.4-0.7,0.7-1.1,0.9s-0.9,0.3-1.4,0.3c-0.7,0-1.3-0.2-1.7-0.6
									s-0.7-0.9-0.7-1.5c0-0.7,0.3-1.3,0.9-1.7s1.4-0.6,2.5-0.6h1.5V9.9c0-0.5-0.2-0.9-0.5-1.2s-0.8-0.5-1.4-0.5s-1,0.1-1.4,0.4
									c-0.4,0.3-0.6,0.6-0.6,1.1h-0.8c0-0.6,0.3-1.1,0.8-1.5c0.5-0.4,1.2-0.6,2-0.6s1.5,0.2,2,0.6c0.5,0.4,0.7,1,0.7,1.7v3.5
									c0,0.7,0.1,1.3,0.2,1.6l0,0H308.8z M306.3,14.4c0.5,0,1-0.1,1.5-0.4s0.7-0.6,0.9-1.1v-1.6h-1.5c-0.8,0-1.5,0.2-1.9,0.4
									c-0.5,0.3-0.7,0.7-0.7,1.2c0,0.4,0.2,0.8,0.5,1S305.8,14.4,306.3,14.4z"/>
							</g>
							<g>
								<path class="st2" d="M315.2,8.3c-0.2,0-0.4,0-0.6,0c-0.5,0-0.9,0.1-1.3,0.4c-0.4,0.3-0.6,0.7-0.8,1.2V15h-0.8V7.6h0.8v1.2
									c0.4-0.9,1.1-1.3,2.1-1.3c0.2,0,0.4,0,0.5,0.1L315.2,8.3z"/>
							</g>
							<g>
								<path class="st2" d="M318.5,11.3l-0.9,0.9V15h-0.8V4.5h0.8v6.7l0.8-0.8l2.8-2.8h1l-3.1,3.1l3.4,4.3h-1L318.5,11.3z"/>
							</g>
							<g>
								<path class="st2" d="M326.5,15.1c-0.6,0-1.2-0.2-1.7-0.5s-0.9-0.7-1.2-1.3c-0.3-0.6-0.4-1.2-0.4-1.9v-0.3
									c0-0.7,0.1-1.4,0.4-1.9s0.7-1,1.2-1.3c0.5-0.3,1-0.5,1.6-0.5c0.9,0,1.6,0.3,2.1,0.9s0.8,1.5,0.8,2.5v0.5H324v0.2
									c0,0.8,0.2,1.5,0.7,2.1s1.1,0.8,1.8,0.8c0.4,0,0.8-0.1,1.2-0.2s0.6-0.4,0.9-0.8l0.5,0.4C328.5,14.7,327.6,15.1,326.5,15.1z
									 M326.3,8.2c-0.6,0-1.1,0.2-1.6,0.7s-0.7,1.1-0.8,1.8h4.4v-0.1c0-0.7-0.2-1.3-0.6-1.7S326.9,8.2,326.3,8.2z"/>
							</g>
							<g>
								<path class="st2" d="M332.3,5.7v1.9h1.5v0.7h-1.5v4.9c0,0.4,0.1,0.7,0.2,0.9s0.4,0.3,0.7,0.3c0.1,0,0.4,0,0.7-0.1V15
									c-0.2,0.1-0.5,0.1-0.9,0.1c-0.6,0-1-0.2-1.2-0.5c-0.3-0.3-0.4-0.8-0.4-1.4V8.3H330V7.6h1.4V5.7H332.3z"/>
							</g>
							<g>
								<path class="st2" d="M335.6,5.5c0-0.2,0.1-0.3,0.2-0.4s0.2-0.2,0.4-0.2c0.2,0,0.3,0.1,0.4,0.2s0.2,0.2,0.2,0.4
									c0,0.2-0.1,0.3-0.2,0.4S336.3,6,336.2,6c-0.2,0-0.3-0.1-0.4-0.2C335.7,5.8,335.6,5.6,335.6,5.5z M336.6,15h-0.8V7.6h0.8V15z
									"/>
							</g>
							<g>
								<path class="st2" d="M339.7,7.6v1.3c0.3-0.5,0.6-0.8,1-1c0.4-0.2,0.9-0.4,1.4-0.4c0.8,0,1.4,0.2,1.8,0.7
									c0.4,0.4,0.6,1.1,0.6,2V15h-0.8v-4.9c0-0.7-0.1-1.2-0.4-1.5s-0.7-0.5-1.3-0.5c-0.5,0-1,0.2-1.3,0.5
									c-0.4,0.3-0.7,0.7-0.9,1.3V15H339V7.6H339.7z"/>
							</g>
							<g>
								<path class="st2" d="M346.5,11.2c0-1.2,0.3-2.1,0.8-2.8s1.2-1,2.1-1c1,0,1.8,0.4,2.3,1.2V7.5h0.8v7.2c0,1-0.3,1.7-0.8,2.3
									s-1.3,0.8-2.2,0.8c-0.5,0-1-0.1-1.5-0.3c-0.5-0.2-0.8-0.5-1.1-0.9l0.5-0.5c0.6,0.7,1.3,1.1,2.1,1.1c0.7,0,1.2-0.2,1.6-0.6
									s0.6-1,0.6-1.7V14c-0.5,0.7-1.3,1.1-2.3,1.1c-0.9,0-1.5-0.3-2.1-1s-0.8-1.6-0.8-2.8V11.2z M347.3,11.4
									c0,0.9,0.2,1.7,0.6,2.2s0.9,0.8,1.6,0.8c1,0,1.7-0.5,2.1-1.4V9.6c-0.2-0.5-0.5-0.8-0.8-1.1c-0.4-0.2-0.8-0.4-1.3-0.4
									c-0.7,0-1.2,0.3-1.6,0.8C347.5,9.5,347.3,10.3,347.3,11.4z"/>
							</g>
							<g>
								<path class="st2" d="M363,15c-0.1-0.2-0.1-0.6-0.2-1c-0.3,0.4-0.7,0.7-1.1,0.9s-0.9,0.3-1.4,0.3c-0.7,0-1.3-0.2-1.7-0.6
									s-0.7-0.9-0.7-1.5c0-0.7,0.3-1.3,0.9-1.7s1.4-0.6,2.5-0.6h1.5V9.9c0-0.5-0.2-0.9-0.5-1.2s-0.8-0.5-1.4-0.5s-1,0.1-1.4,0.4
									c-0.4,0.3-0.6,0.6-0.6,1.1h-0.8c0-0.6,0.3-1.1,0.8-1.5c0.5-0.4,1.2-0.6,2-0.6s1.5,0.2,2,0.6c0.5,0.4,0.7,1,0.7,1.7v3.5
									c0,0.7,0.1,1.3,0.2,1.6l0,0H363z M360.4,14.4c0.5,0,1-0.1,1.5-0.4s0.7-0.6,0.9-1.1v-1.6h-1.5c-0.8,0-1.5,0.2-1.9,0.4
									c-0.5,0.3-0.7,0.7-0.7,1.2c0,0.4,0.2,0.8,0.5,1S359.9,14.4,360.4,14.4z"/>
							</g>
							<g>
								<path class="st2" d="M370.4,13.1c0-0.4-0.2-0.7-0.5-1s-0.8-0.4-1.5-0.6c-0.7-0.1-1.2-0.3-1.5-0.5c-0.4-0.2-0.6-0.4-0.8-0.7
									s-0.3-0.6-0.3-0.9c0-0.6,0.2-1.1,0.7-1.4c0.5-0.4,1.1-0.6,1.9-0.6s1.5,0.2,2,0.6s0.7,0.9,0.7,1.6h-0.8
									c0-0.4-0.2-0.8-0.5-1.1s-0.8-0.4-1.4-0.4c-0.5,0-1,0.1-1.3,0.4c-0.3,0.2-0.5,0.5-0.5,0.9s0.1,0.7,0.4,0.9s0.8,0.4,1.5,0.6
									s1.3,0.3,1.6,0.5s0.6,0.4,0.8,0.7c0.2,0.3,0.3,0.6,0.3,1c0,0.6-0.3,1.1-0.8,1.5s-1.2,0.6-2,0.6c-0.9,0-1.6-0.2-2.1-0.6
									c-0.5-0.4-0.8-0.9-0.8-1.6h0.8c0,0.5,0.2,0.9,0.6,1.1c0.4,0.3,0.9,0.4,1.5,0.4s1-0.1,1.4-0.4
									C370.3,13.8,370.4,13.5,370.4,13.1z"/>
							</g>
							<g>
								<path class="st2" d="M377.7,13.1c0-0.4-0.2-0.7-0.5-1s-0.8-0.4-1.5-0.6c-0.7-0.1-1.2-0.3-1.5-0.5c-0.4-0.2-0.6-0.4-0.8-0.7
									s-0.3-0.6-0.3-0.9c0-0.6,0.2-1.1,0.7-1.4c0.5-0.4,1.1-0.6,1.9-0.6s1.5,0.2,2,0.6s0.7,0.9,0.7,1.6h-0.8
									c0-0.4-0.2-0.8-0.5-1.1s-0.8-0.4-1.4-0.4c-0.5,0-1,0.1-1.3,0.4c-0.3,0.2-0.5,0.5-0.5,0.9s0.1,0.7,0.4,0.9s0.8,0.4,1.5,0.6
									s1.3,0.3,1.6,0.5s0.6,0.4,0.8,0.7c0.2,0.3,0.3,0.6,0.3,1c0,0.6-0.3,1.1-0.8,1.5s-1.2,0.6-2,0.6c-0.9,0-1.6-0.2-2.1-0.6
									c-0.5-0.4-0.8-0.9-0.8-1.6h0.8c0,0.5,0.2,0.9,0.6,1.1c0.4,0.3,0.9,0.4,1.5,0.4s1-0.1,1.4-0.4
									C377.5,13.8,377.7,13.5,377.7,13.1z"/>
							</g>
							<g>
								<path class="st2" d="M383.4,15.1c-0.6,0-1.2-0.2-1.7-0.5s-0.9-0.7-1.2-1.3c-0.3-0.6-0.4-1.2-0.4-1.9v-0.3
									c0-0.7,0.1-1.4,0.4-1.9c0.3-0.6,0.7-1,1.2-1.3c0.5-0.3,1-0.5,1.6-0.5c0.9,0,1.6,0.3,2.1,0.9s0.8,1.5,0.8,2.5v0.5h-5.3v0.2
									c0,0.8,0.2,1.5,0.7,2.1s1.1,0.8,1.8,0.8c0.4,0,0.8-0.1,1.2-0.2c0.3-0.2,0.6-0.4,0.9-0.8l0.5,0.4
									C385.4,14.7,384.5,15.1,383.4,15.1z M383.2,8.2c-0.6,0-1.1,0.2-1.6,0.7c-0.4,0.5-0.7,1.1-0.8,1.8h4.4v-0.1
									c0-0.7-0.2-1.3-0.6-1.7S383.8,8.2,383.2,8.2z"/>
							</g>
							<g>
								<path class="st2" d="M389.2,5.7v1.9h1.5v0.7h-1.5v4.9c0,0.4,0.1,0.7,0.2,0.9s0.4,0.3,0.7,0.3c0.1,0,0.4,0,0.7-0.1V15
									c-0.2,0.1-0.5,0.1-0.9,0.1c-0.6,0-1-0.2-1.2-0.5c-0.3-0.3-0.4-0.8-0.4-1.4V8.3H387V7.6h1.4V5.7H389.2z"/>
							</g>
							<g>
								<path class="st2" d="M397,13.1c0-0.4-0.2-0.7-0.5-1c-0.3-0.2-0.8-0.4-1.5-0.6c-0.7-0.1-1.2-0.3-1.5-0.5
									c-0.4-0.2-0.6-0.4-0.8-0.7c-0.2-0.3-0.3-0.6-0.3-0.9c0-0.6,0.2-1.1,0.7-1.4c0.5-0.4,1.1-0.6,1.9-0.6s1.5,0.2,2,0.6
									s0.7,0.9,0.7,1.6H397c0-0.4-0.2-0.8-0.5-1.1c-0.4-0.3-0.8-0.4-1.4-0.4c-0.5,0-1,0.1-1.3,0.4c-0.3,0.2-0.5,0.5-0.5,0.9
									s0.1,0.7,0.4,0.9s0.8,0.4,1.5,0.6c0.7,0.2,1.3,0.3,1.6,0.5c0.4,0.2,0.6,0.4,0.8,0.7s0.3,0.6,0.3,1c0,0.6-0.3,1.1-0.8,1.5
									s-1.2,0.6-2,0.6c-0.9,0-1.6-0.2-2.1-0.6c-0.5-0.4-0.8-0.9-0.8-1.6h0.8c0,0.5,0.2,0.9,0.6,1.1c0.4,0.3,0.9,0.4,1.5,0.4
									s1-0.1,1.4-0.4S397,13.5,397,13.1z"/>
							</g>
						</g>
					</g>
					<g id="Group-4" transform="translate(0.000000, 180.000000)">
						<g id="Group-10_2_">
							<g id="Oval_2_">
								<circle class="st0" cx="10" cy="10" r="10"/>
							</g>
							<g class="st1">
								<g>
									<path class="st2" d="M11.7,11.3h0.8v1.1h-0.8V14h-1.4v-1.5h-3l-0.1-0.9l3-4.7h1.4L11.7,11.3L11.7,11.3z M8.7,11.3h1.6V8.8
										L10.2,9L8.7,11.3z"/>
								</g>
							</g>
						</g>
						<g class="st1">
							<g>
								<path class="st2" d="M42.3,15h-0.8V5h0.8V15z"/>
							</g>
							<g>
								<path class="st2" d="M45.7,7.6v1.3c0.3-0.5,0.6-0.8,1-1c0.4-0.2,0.9-0.4,1.4-0.4c0.8,0,1.4,0.2,1.8,0.7
									c0.4,0.4,0.6,1.1,0.6,2V15h-0.8v-4.9c0-0.7-0.1-1.2-0.4-1.5S48.6,8.2,48,8.2c-0.5,0-1,0.2-1.3,0.5C46.2,9,46,9.4,45.8,9.9
									V15H45V7.6H45.7z"/>
							</g>
							<g>
								<path class="st2" d="M54.1,5.7v1.9h1.5v0.7h-1.5v4.9c0,0.4,0.1,0.7,0.2,0.9c0.1,0.2,0.4,0.3,0.7,0.3c0.1,0,0.4,0,0.7-0.1V15
									c-0.2,0.1-0.5,0.1-0.9,0.1c-0.6,0-1-0.2-1.2-0.5c-0.3-0.3-0.4-0.8-0.4-1.4V8.3h-1.4V7.6h1.4V5.7H54.1z"/>
							</g>
							<g>
								<path class="st2" d="M60.3,15.1c-0.6,0-1.2-0.2-1.7-0.5s-0.9-0.7-1.2-1.3S57,12.1,57,11.4v-0.3c0-0.7,0.1-1.4,0.4-1.9
									s0.7-1,1.2-1.3c0.5-0.3,1-0.5,1.6-0.5c0.9,0,1.6,0.3,2.1,0.9s0.8,1.5,0.8,2.5v0.5h-5.3v0.2c0,0.8,0.2,1.5,0.7,2.1
									s1.1,0.8,1.8,0.8c0.4,0,0.8-0.1,1.2-0.2s0.6-0.4,0.9-0.8l0.5,0.4C62.4,14.7,61.5,15.1,60.3,15.1z M60.2,8.2
									c-0.6,0-1.1,0.2-1.6,0.7s-0.7,1.1-0.8,1.8h4.4v-0.1c0-0.7-0.2-1.3-0.6-1.7S60.8,8.2,60.2,8.2z"/>
							</g>
							<g>
								<path class="st2" d="M64.6,11.2c0-1.2,0.3-2.1,0.8-2.8s1.2-1,2.1-1c1,0,1.8,0.4,2.3,1.2V7.5h0.8v7.2c0,1-0.3,1.7-0.8,2.3
									s-1.3,0.8-2.2,0.8c-0.5,0-1-0.1-1.5-0.3c-0.5-0.2-0.8-0.5-1.1-0.9l0.5-0.5c0.6,0.7,1.3,1.1,2.1,1.1c0.7,0,1.2-0.2,1.6-0.6
									s0.6-1,0.6-1.7V14c-0.5,0.7-1.3,1.1-2.3,1.1c-0.9,0-1.5-0.3-2.1-1s-0.8-1.6-0.8-2.8V11.2z M65.4,11.4c0,0.9,0.2,1.7,0.6,2.2
									s0.9,0.8,1.6,0.8c1,0,1.7-0.5,2.1-1.4V9.6c-0.2-0.5-0.5-0.8-0.8-1.1c-0.4-0.2-0.8-0.4-1.3-0.4c-0.7,0-1.2,0.3-1.6,0.8
									C65.6,9.5,65.4,10.3,65.4,11.4z"/>
							</g>
							<g>
								<path class="st2" d="M76.2,8.3c-0.2,0-0.4,0-0.6,0c-0.5,0-0.9,0.1-1.3,0.4C74,9,73.8,9.4,73.6,9.9V15h-0.8V7.6h0.8v1.2
									c0.4-0.9,1.1-1.3,2.1-1.3c0.2,0,0.4,0,0.5,0.1V8.3z"/>
							</g>
							<g>
								<path class="st2" d="M82.1,15c-0.1-0.2-0.1-0.6-0.2-1c-0.3,0.4-0.7,0.7-1.1,0.9s-0.9,0.3-1.4,0.3c-0.7,0-1.3-0.2-1.7-0.6
									S77,13.6,77,13c0-0.7,0.3-1.3,0.9-1.7s1.4-0.6,2.5-0.6h1.5V9.9c0-0.5-0.2-0.9-0.5-1.2S80.6,8.2,80,8.2s-1,0.1-1.4,0.4
									S78,9.2,78,9.6h-0.8c0-0.6,0.3-1.1,0.8-1.5c0.5-0.4,1.2-0.6,2-0.6s1.5,0.2,2,0.6c0.5,0.4,0.7,1,0.7,1.7v3.5
									c0,0.7,0.1,1.3,0.2,1.6V15H82.1z M79.5,14.4c0.5,0,1-0.1,1.5-0.4s0.7-0.6,0.9-1.1v-1.6h-1.5c-0.8,0-1.5,0.2-1.9,0.4
									c-0.5,0.3-0.7,0.7-0.7,1.2c0,0.4,0.2,0.8,0.5,1S79,14.4,79.5,14.4z"/>
							</g>
							<g>
								<path class="st2" d="M86.4,5.7v1.9h1.5v0.7h-1.5v4.9c0,0.4,0.1,0.7,0.2,0.9s0.4,0.3,0.7,0.3c0.1,0,0.4,0,0.7-0.1V15
									c-0.2,0.1-0.5,0.1-0.9,0.1c-0.6,0-1-0.2-1.2-0.5c-0.3-0.3-0.4-0.8-0.4-1.4V8.3h-1.4V7.6h1.4V5.7H86.4z"/>
							</g>
							<g>
								<path class="st2" d="M92.6,15.1c-0.6,0-1.2-0.2-1.7-0.5s-0.9-0.7-1.2-1.3c-0.3-0.6-0.4-1.2-0.4-1.9v-0.3
									c0-0.7,0.1-1.4,0.4-1.9s0.7-1,1.2-1.3c0.5-0.3,1-0.5,1.6-0.5c0.9,0,1.6,0.3,2.1,0.9s0.8,1.5,0.8,2.5v0.5h-5.3v0.2
									c0,0.8,0.2,1.5,0.7,2.1s1.1,0.8,1.8,0.8c0.4,0,0.8-0.1,1.2-0.2s0.6-0.4,0.9-0.8l0.5,0.4C94.6,14.7,93.8,15.1,92.6,15.1z
									 M92.5,8.2c-0.6,0-1.1,0.2-1.6,0.7s-0.7,1.1-0.8,1.8h4.4v-0.1c0-0.7-0.2-1.3-0.6-1.7S93.1,8.2,92.5,8.2z"/>
							</g>
							<g>
								<path class="st2" d="M100.3,11.2c0-0.7,0.1-1.4,0.4-1.9s0.7-1,1.2-1.3c0.5-0.3,1.1-0.5,1.7-0.5c1,0,1.8,0.3,2.4,1
									s0.9,1.6,0.9,2.7v0.2c0,0.7-0.1,1.4-0.4,1.9c-0.3,0.6-0.7,1-1.2,1.3s-1.1,0.5-1.7,0.5c-1,0-1.8-0.3-2.4-1s-0.9-1.6-0.9-2.7
									V11.2z M101.1,11.4c0,0.9,0.2,1.6,0.7,2.2c0.5,0.6,1.1,0.9,1.8,0.9c0.7,0,1.3-0.3,1.8-0.9c0.5-0.6,0.7-1.3,0.7-2.2v-0.2
									c0-0.6-0.1-1.1-0.3-1.6s-0.5-0.8-0.9-1.1s-0.8-0.4-1.3-0.4c-0.7,0-1.3,0.3-1.8,0.9c-0.5,0.6-0.7,1.3-0.7,2.2
									C101.1,11.2,101.1,11.4,101.1,11.4z"/>
							</g>
							<g>
								<path class="st2" d="M113.5,14.1c-0.5,0.7-1.3,1.1-2.4,1.1c-0.8,0-1.4-0.2-1.8-0.7s-0.6-1.1-0.6-2V7.6h0.8v4.7
									c0,1.4,0.6,2.1,1.7,2.1c1.2,0,1.9-0.5,2.2-1.5V7.6h0.8V15h-0.8L113.5,14.1z"/>
							</g>
							<g>
								<path class="st2" d="M120,8.3c-0.2,0-0.4,0-0.6,0c-0.5,0-0.9,0.1-1.3,0.4c-0.4,0.3-0.6,0.7-0.8,1.2V15h-0.8V7.6h0.8v1.2
									c0.4-0.9,1.1-1.3,2.1-1.3c0.2,0,0.4,0,0.5,0.1L120,8.3z"/>
							</g>
							<g>
								<path class="st2" d="M125.8,7.6v1.2c0.3-0.4,0.6-0.8,1-1s0.9-0.3,1.4-0.3c1.2,0,1.9,0.5,2.2,1.4c0.3-0.5,0.6-0.8,1.1-1.1
									c0.4-0.2,0.9-0.4,1.5-0.4c1.6,0,2.4,0.9,2.4,2.6v5h-0.8v-4.9c0-0.7-0.1-1.2-0.4-1.5s-0.7-0.5-1.4-0.5
									c-0.6,0-1.1,0.2-1.5,0.6c-0.4,0.4-0.6,0.8-0.7,1.4V15h-0.8v-4.9c0-0.6-0.2-1.1-0.4-1.4c-0.3-0.3-0.7-0.5-1.4-0.5
									c-0.5,0-1,0.1-1.3,0.4c-0.4,0.3-0.6,0.7-0.8,1.3V15H125V7.6H125.8z"/>
							</g>
							<g>
								<path class="st2" d="M142.3,15c-0.1-0.2-0.1-0.6-0.2-1c-0.3,0.4-0.7,0.7-1.1,0.9c-0.4,0.2-0.9,0.3-1.4,0.3
									c-0.7,0-1.3-0.2-1.7-0.6s-0.7-0.9-0.7-1.5c0-0.7,0.3-1.3,0.9-1.7s1.4-0.6,2.5-0.6h1.5V9.9c0-0.5-0.2-0.9-0.5-1.2
									s-0.8-0.5-1.4-0.5c-0.6,0-1,0.1-1.4,0.4s-0.6,0.6-0.6,1.1h-0.8c0-0.6,0.3-1.1,0.8-1.5c0.5-0.4,1.2-0.6,2-0.6s1.5,0.2,2,0.6
									c0.5,0.4,0.7,1,0.7,1.7v3.5c0,0.7,0.1,1.3,0.2,1.6l0,0H142.3z M139.7,14.4c0.5,0,1-0.1,1.5-0.4s0.7-0.6,0.9-1.1v-1.6h-1.5
									c-0.8,0-1.5,0.2-1.9,0.4c-0.5,0.3-0.7,0.7-0.7,1.2c0,0.4,0.2,0.8,0.5,1S139.2,14.4,139.7,14.4z"/>
							</g>
							<g>
								<path class="st2" d="M148.7,8.3c-0.2,0-0.4,0-0.6,0c-0.5,0-0.9,0.1-1.3,0.4c-0.4,0.3-0.6,0.7-0.8,1.2V15h-0.8V7.6h0.8v1.2
									c0.4-0.9,1.1-1.3,2.1-1.3c0.2,0,0.4,0,0.5,0.1L148.7,8.3z"/>
							</g>
							<g>
								<path class="st2" d="M151.9,11.3l-0.9,0.9V15h-0.8V4.5h0.8v6.7l0.8-0.8l2.8-2.8h1l-3.1,3.1l3.4,4.3h-1L151.9,11.3z"/>
							</g>
							<g>
								<path class="st2" d="M159.9,15.1c-0.6,0-1.2-0.2-1.7-0.5s-0.9-0.7-1.2-1.3s-0.4-1.2-0.4-1.9v-0.3c0-0.7,0.1-1.4,0.4-1.9
									s0.7-1,1.2-1.3c0.5-0.3,1-0.5,1.6-0.5c0.9,0,1.6,0.3,2.1,0.9s0.8,1.5,0.8,2.5v0.5h-5.3v0.2c0,0.8,0.2,1.5,0.7,2.1
									s1.1,0.8,1.8,0.8c0.4,0,0.8-0.1,1.2-0.2s0.6-0.4,0.9-0.8l0.5,0.4C161.9,14.7,161.1,15.1,159.9,15.1z M159.8,8.2
									c-0.6,0-1.1,0.2-1.6,0.7s-0.7,1.1-0.8,1.8h4.4v-0.1c0-0.7-0.2-1.3-0.6-1.7S160.4,8.2,159.8,8.2z"/>
							</g>
							<g>
								<path class="st2" d="M165.7,5.7v1.9h1.5v0.7h-1.5v4.9c0,0.4,0.1,0.7,0.2,0.9c0.1,0.2,0.4,0.3,0.7,0.3c0.1,0,0.4,0,0.7-0.1
									V15c-0.2,0.1-0.5,0.1-0.9,0.1c-0.6,0-1-0.2-1.2-0.5c-0.3-0.3-0.4-0.8-0.4-1.4V8.3h-1.4V7.6h1.4V5.7H165.7z"/>
							</g>
							<g>
								<path class="st2" d="M169.1,5.5c0-0.2,0.1-0.3,0.2-0.4c0.1-0.1,0.2-0.2,0.4-0.2s0.3,0.1,0.4,0.2c0.1,0.1,0.2,0.2,0.2,0.4
									c0,0.2-0.1,0.3-0.2,0.4S169.8,6,169.6,6s-0.3-0.1-0.4-0.2S169.1,5.6,169.1,5.5z M170,15h-0.8V7.6h0.8V15z"/>
							</g>
							<g>
								<path class="st2" d="M173.2,7.6v1.3c0.3-0.5,0.6-0.8,1-1c0.4-0.2,0.9-0.4,1.4-0.4c0.8,0,1.4,0.2,1.8,0.7
									c0.4,0.4,0.6,1.1,0.6,2V15h-0.8v-4.9c0-0.7-0.1-1.2-0.4-1.5s-0.7-0.5-1.3-0.5c-0.5,0-1,0.2-1.3,0.5
									c-0.4,0.3-0.7,0.7-0.9,1.3V15h-0.8V7.6H173.2z"/>
							</g>
							<g>
								<path class="st2" d="M180,11.2c0-1.2,0.3-2.1,0.8-2.8s1.2-1,2.1-1c1,0,1.8,0.4,2.3,1.2V7.5h0.8v7.2c0,1-0.3,1.7-0.8,2.3
									s-1.3,0.8-2.2,0.8c-0.5,0-1-0.1-1.5-0.3c-0.5-0.2-0.8-0.5-1.1-0.9l0.5-0.5c0.6,0.7,1.3,1.1,2.1,1.1c0.7,0,1.2-0.2,1.6-0.6
									c0.4-0.4,0.6-1,0.6-1.7V14c-0.5,0.7-1.3,1.1-2.3,1.1c-0.9,0-1.5-0.3-2.1-1s-0.8-1.6-0.8-2.8L180,11.2L180,11.2z M180.8,11.4
									c0,0.9,0.2,1.7,0.6,2.2c0.4,0.5,0.9,0.8,1.6,0.8c1,0,1.7-0.5,2.1-1.4V9.6c-0.2-0.5-0.5-0.8-0.8-1.1
									c-0.4-0.2-0.8-0.4-1.3-0.4c-0.7,0-1.2,0.3-1.6,0.8C181,9.5,180.8,10.3,180.8,11.4z"/>
							</g>
							<g>
								<path class="st2" d="M196.5,15c-0.1-0.2-0.1-0.6-0.2-1c-0.3,0.4-0.7,0.7-1.1,0.9c-0.4,0.2-0.9,0.3-1.4,0.3
									c-0.7,0-1.3-0.2-1.7-0.6s-0.7-0.9-0.7-1.5c0-0.7,0.3-1.3,0.9-1.7s1.4-0.6,2.5-0.6h1.5V9.9c0-0.5-0.2-0.9-0.5-1.2
									s-0.8-0.5-1.4-0.5c-0.6,0-1,0.1-1.4,0.4s-0.6,0.6-0.6,1.1h-0.8c0-0.6,0.3-1.1,0.8-1.5c0.5-0.4,1.2-0.6,2-0.6s1.5,0.2,2,0.6
									c0.5,0.4,0.7,1,0.7,1.7v3.5c0,0.7,0.1,1.3,0.2,1.6l0,0H196.5z M193.9,14.4c0.5,0,1-0.1,1.5-0.4s0.7-0.6,0.9-1.1v-1.6h-1.5
									c-0.8,0-1.5,0.2-1.9,0.4c-0.5,0.3-0.7,0.7-0.7,1.2c0,0.4,0.2,0.8,0.5,1S193.4,14.4,193.9,14.4z"/>
							</g>
							<g>
								<path class="st2" d="M203.9,13.1c0-0.4-0.2-0.7-0.5-1s-0.8-0.4-1.5-0.6c-0.7-0.1-1.2-0.3-1.5-0.5c-0.4-0.2-0.6-0.4-0.8-0.7
									s-0.3-0.6-0.3-0.9c0-0.6,0.2-1.1,0.7-1.4c0.5-0.4,1.1-0.6,1.9-0.6c0.8,0,1.5,0.2,2,0.6s0.7,0.9,0.7,1.6h-0.8
									c0-0.4-0.2-0.8-0.5-1.1s-0.8-0.4-1.4-0.4c-0.5,0-1,0.1-1.3,0.4c-0.3,0.2-0.5,0.5-0.5,0.9s0.1,0.7,0.4,0.9
									c0.3,0.2,0.8,0.4,1.5,0.6s1.3,0.3,1.6,0.5s0.6,0.4,0.8,0.7s0.3,0.6,0.3,1c0,0.6-0.3,1.1-0.8,1.5s-1.2,0.6-2,0.6
									c-0.9,0-1.6-0.2-2.1-0.6c-0.5-0.4-0.8-0.9-0.8-1.6h0.8c0,0.5,0.2,0.9,0.6,1.1c0.4,0.3,0.9,0.4,1.5,0.4s1-0.1,1.4-0.4
									S203.9,13.5,203.9,13.1z"/>
							</g>
							<g>
								<path class="st2" d="M211.1,13.1c0-0.4-0.2-0.7-0.5-1s-0.8-0.4-1.5-0.6c-0.7-0.1-1.2-0.3-1.5-0.5c-0.4-0.2-0.6-0.4-0.8-0.7
									s-0.3-0.6-0.3-0.9c0-0.6,0.2-1.1,0.7-1.4c0.5-0.4,1.1-0.6,1.9-0.6c0.8,0,1.5,0.2,2,0.6s0.7,0.9,0.7,1.6H211
									c0-0.4-0.2-0.8-0.5-1.1s-0.8-0.4-1.4-0.4c-0.5,0-1,0.1-1.3,0.4c-0.3,0.2-0.5,0.5-0.5,0.9s0.1,0.7,0.4,0.9
									c0.3,0.2,0.8,0.4,1.5,0.6s1.3,0.3,1.6,0.5s0.6,0.4,0.8,0.7s0.3,0.6,0.3,1c0,0.6-0.3,1.1-0.8,1.5s-1.2,0.6-2,0.6
									c-0.9,0-1.6-0.2-2.1-0.6c-0.5-0.4-0.8-0.9-0.8-1.6h0.8c0,0.5,0.2,0.9,0.6,1.1c0.4,0.3,0.9,0.4,1.5,0.4s1-0.1,1.4-0.4
									S211.1,13.5,211.1,13.1z"/>
							</g>
							<g>
								<path class="st2" d="M216.8,15.1c-0.6,0-1.2-0.2-1.7-0.5s-0.9-0.7-1.2-1.3s-0.4-1.2-0.4-1.9v-0.3c0-0.7,0.1-1.4,0.4-1.9
									s0.7-1,1.2-1.3c0.5-0.3,1-0.5,1.6-0.5c0.9,0,1.6,0.3,2.1,0.9s0.8,1.5,0.8,2.5v0.5h-5.3v0.2c0,0.8,0.2,1.5,0.7,2.1
									s1.1,0.8,1.8,0.8c0.4,0,0.8-0.1,1.2-0.2s0.6-0.4,0.9-0.8l0.5,0.4C218.9,14.7,218,15.1,216.8,15.1z M216.7,8.2
									c-0.6,0-1.1,0.2-1.6,0.7s-0.7,1.1-0.8,1.8h4.4v-0.1c0-0.7-0.2-1.3-0.6-1.7S217.3,8.2,216.7,8.2z"/>
							</g>
							<g>
								<path class="st2" d="M222.6,5.7v1.9h1.5v0.7h-1.5v4.9c0,0.4,0.1,0.7,0.2,0.9c0.1,0.2,0.4,0.3,0.7,0.3c0.1,0,0.4,0,0.7-0.1
									V15c-0.2,0.1-0.5,0.1-0.9,0.1c-0.6,0-1-0.2-1.2-0.5c-0.3-0.3-0.4-0.8-0.4-1.4V8.3h-1.4V7.6h1.4V5.7H222.6z"/>
							</g>
							<g>
								<path class="st2" d="M230.5,13.1c0-0.4-0.2-0.7-0.5-1s-0.8-0.4-1.5-0.6c-0.7-0.1-1.2-0.3-1.5-0.5c-0.4-0.2-0.6-0.4-0.8-0.7
									s-0.3-0.6-0.3-0.9c0-0.6,0.2-1.1,0.7-1.4c0.5-0.4,1.1-0.6,1.9-0.6c0.8,0,1.5,0.2,2,0.6s0.7,0.9,0.7,1.6h-0.8
									c0-0.4-0.2-0.8-0.5-1.1s-0.8-0.4-1.4-0.4c-0.5,0-1,0.1-1.3,0.4c-0.3,0.2-0.5,0.5-0.5,0.9s0.1,0.7,0.4,0.9
									c0.3,0.2,0.8,0.4,1.5,0.6s1.3,0.3,1.6,0.5s0.6,0.4,0.8,0.7s0.3,0.6,0.3,1c0,0.6-0.3,1.1-0.8,1.5s-1.2,0.6-2,0.6
									c-0.9,0-1.6-0.2-2.1-0.6c-0.5-0.4-0.8-0.9-0.8-1.6h0.8c0,0.5,0.2,0.9,0.6,1.1c0.4,0.3,0.9,0.4,1.5,0.4s1-0.1,1.4-0.4
									S230.5,13.5,230.5,13.1z"/>
							</g>
							<g>
								<path class="st2" d="M238.6,13.3l0.1,0.6l0.2-0.7l1.8-5.7h0.7l1.8,5.6l0.2,0.8l0.2-0.7l1.5-5.7h0.8l-2.2,7.4H243L241.1,9
									L241,8.7l-0.1,0.4L239,15h-0.7l-2.1-7.4h0.8L238.6,13.3z"/>
							</g>
							<g>
								<path class="st2" d="M247.5,5.5c0-0.2,0.1-0.3,0.2-0.4c0.1-0.1,0.2-0.2,0.4-0.2s0.3,0.1,0.4,0.2c0.1,0.1,0.2,0.2,0.2,0.4
									c0,0.2-0.1,0.3-0.2,0.4S248.3,6,248.1,6s-0.3-0.1-0.4-0.2S247.5,5.6,247.5,5.5z M248.5,15h-0.8V7.6h0.8V15z"/>
							</g>
							<g>
								<path class="st2" d="M252.2,5.7v1.9h1.5v0.7h-1.5v4.9c0,0.4,0.1,0.7,0.2,0.9c0.1,0.2,0.4,0.3,0.7,0.3c0.1,0,0.4,0,0.7-0.1
									V15c-0.2,0.1-0.5,0.1-0.9,0.1c-0.6,0-1-0.2-1.2-0.5c-0.3-0.3-0.4-0.8-0.4-1.4V8.3H250V7.6h1.4V5.7H252.2z"/>
							</g>
							<g>
								<path class="st2" d="M256.4,8.9c0.3-0.4,0.6-0.8,1-1c0.4-0.2,0.9-0.4,1.4-0.4c0.8,0,1.4,0.2,1.8,0.7c0.4,0.4,0.6,1.1,0.6,2
									V15h-0.8v-4.9c0-0.7-0.1-1.2-0.4-1.5s-0.7-0.5-1.3-0.5c-0.5,0-1,0.2-1.3,0.5c-0.4,0.3-0.7,0.7-0.9,1.3V15h-0.8V4.5h0.8v4.4
									H256.4z"/>
							</g>
							<g>
								<path class="st2" d="M269.3,13.8l2.2-6.2h0.9l-3.2,8.7l-0.2,0.4c-0.4,0.9-1,1.3-1.9,1.3c-0.2,0-0.4,0-0.6-0.1v-0.7h0.4
									c0.4,0,0.7-0.1,1-0.3c0.2-0.2,0.5-0.5,0.6-1l0.4-1l-2.8-7.3h0.9L269.3,13.8z"/>
							</g>
							<g>
								<path class="st2" d="M273.3,11.2c0-0.7,0.1-1.4,0.4-1.9c0.3-0.6,0.7-1,1.2-1.3c0.5-0.3,1.1-0.5,1.7-0.5c1,0,1.8,0.3,2.4,1
									s0.9,1.6,0.9,2.7v0.2c0,0.7-0.1,1.4-0.4,1.9c-0.3,0.6-0.7,1-1.2,1.3s-1.1,0.5-1.7,0.5c-1,0-1.8-0.3-2.4-1s-0.9-1.6-0.9-2.7
									V11.2z M274.1,11.4c0,0.9,0.2,1.6,0.7,2.2c0.5,0.6,1.1,0.9,1.8,0.9c0.7,0,1.3-0.3,1.8-0.9c0.5-0.6,0.7-1.3,0.7-2.2v-0.2
									c0-0.6-0.1-1.1-0.3-1.6s-0.5-0.8-0.9-1.1s-0.8-0.4-1.3-0.4c-0.7,0-1.3,0.3-1.8,0.9c-0.5,0.6-0.7,1.3-0.7,2.2L274.1,11.4
									L274.1,11.4z"/>
							</g>
							<g>
								<path class="st2" d="M286.5,14.1c-0.5,0.7-1.3,1.1-2.4,1.1c-0.8,0-1.4-0.2-1.8-0.7s-0.6-1.1-0.6-2V7.6h0.8v4.7
									c0,1.4,0.6,2.1,1.7,2.1c1.2,0,1.9-0.5,2.2-1.5V7.6h0.8V15h-0.8L286.5,14.1z"/>
							</g>
							<g>
								<path class="st2" d="M293,8.3c-0.2,0-0.4,0-0.6,0c-0.5,0-0.9,0.1-1.3,0.4c-0.4,0.3-0.6,0.7-0.8,1.2V15h-0.8V7.6h0.8v1.2
									c0.4-0.9,1.1-1.3,2.1-1.3c0.2,0,0.4,0,0.5,0.1L293,8.3z"/>
							</g>
							<g>
								<path class="st2" d="M302.4,13.1c0-0.4-0.2-0.7-0.5-1s-0.8-0.4-1.5-0.6c-0.7-0.1-1.2-0.3-1.5-0.5c-0.4-0.2-0.6-0.4-0.8-0.7
									s-0.3-0.6-0.3-0.9c0-0.6,0.2-1.1,0.7-1.4c0.5-0.4,1.1-0.6,1.9-0.6s1.5,0.2,2,0.6s0.7,0.9,0.7,1.6h-0.8
									c0-0.4-0.2-0.8-0.5-1.1s-0.8-0.4-1.4-0.4c-0.5,0-1,0.1-1.3,0.4c-0.3,0.2-0.5,0.5-0.5,0.9s0.1,0.7,0.4,0.9s0.8,0.4,1.5,0.6
									s1.3,0.3,1.6,0.5s0.6,0.4,0.8,0.7c0.2,0.3,0.3,0.6,0.3,1c0,0.6-0.3,1.1-0.8,1.5s-1.2,0.6-2,0.6c-0.9,0-1.6-0.2-2.1-0.6
									c-0.5-0.4-0.8-0.9-0.8-1.6h0.8c0,0.5,0.2,0.9,0.6,1.1c0.4,0.3,0.9,0.4,1.5,0.4s1-0.1,1.4-0.4
									C302.3,13.8,302.4,13.5,302.4,13.1z"/>
							</g>
							<g>
								<path class="st2" d="M305.2,5.5c0-0.2,0.1-0.3,0.2-0.4s0.2-0.2,0.4-0.2c0.2,0,0.3,0.1,0.4,0.2s0.2,0.2,0.2,0.4
									c0,0.2-0.1,0.3-0.2,0.4S306,6,305.8,6s-0.3-0.1-0.4-0.2C305.3,5.8,305.2,5.6,305.2,5.5z M306.2,15h-0.8V7.6h0.8V15z"/>
							</g>
							<g>
								<path class="st2" d="M309.9,5.7v1.9h1.5v0.7h-1.5v4.9c0,0.4,0.1,0.7,0.2,0.9s0.4,0.3,0.7,0.3c0.1,0,0.4,0,0.7-0.1V15
									c-0.2,0.1-0.5,0.1-0.9,0.1c-0.6,0-1-0.2-1.2-0.5c-0.3-0.3-0.4-0.8-0.4-1.4V8.3h-1.4V7.6h1.4V5.7H309.9z"/>
							</g>
							<g>
								<path class="st2" d="M316.1,15.1c-0.6,0-1.2-0.2-1.7-0.5s-0.9-0.7-1.2-1.3c-0.3-0.6-0.4-1.2-0.4-1.9v-0.3
									c0-0.7,0.1-1.4,0.4-1.9s0.7-1,1.2-1.3c0.5-0.3,1-0.5,1.6-0.5c0.9,0,1.6,0.3,2.1,0.9s0.8,1.5,0.8,2.5v0.5h-5.3v0.2
									c0,0.8,0.2,1.5,0.7,2.1s1.1,0.8,1.8,0.8c0.4,0,0.8-0.1,1.2-0.2s0.6-0.4,0.9-0.8l0.5,0.4C318.1,14.7,317.3,15.1,316.1,15.1z
									 M316,8.2c-0.6,0-1.1,0.2-1.6,0.7s-0.7,1.1-0.8,1.8h4.4v-0.1c0-0.7-0.2-1.3-0.6-1.7S316.6,8.2,316,8.2z"/>
							</g>
							<g>
								<path class="st2" d="M320.5,15.9h-0.7L323.9,5h0.7L320.5,15.9z"/>
							</g>
							<g>
								<path class="st2" d="M332.3,11.4c0,1.2-0.3,2.1-0.8,2.7c-0.5,0.7-1.2,1-2.1,1c-1,0-1.8-0.4-2.3-1.1v1h-0.8V4.5h0.8v4.2
									c0.5-0.8,1.3-1.2,2.3-1.2c0.9,0,1.6,0.3,2.1,1S332.3,10.1,332.3,11.4L332.3,11.4z M331.5,11.2c0-1-0.2-1.7-0.6-2.3
									c-0.4-0.5-0.9-0.8-1.6-0.8c-0.5,0-1,0.1-1.3,0.4c-0.4,0.3-0.6,0.6-0.8,1.1V13c0.4,0.9,1.1,1.4,2.2,1.4
									c0.7,0,1.2-0.3,1.6-0.8S331.5,12.3,331.5,11.2z"/>
							</g>
							<g>
								<path class="st2" d="M335.2,15h-0.8V4.5h0.8V15z"/>
							</g>
							<g>
								<path class="st2" d="M337.2,11.2c0-0.7,0.1-1.4,0.4-1.9s0.7-1,1.2-1.3c0.5-0.3,1.1-0.5,1.7-0.5c1,0,1.8,0.3,2.4,1
									s0.9,1.6,0.9,2.7v0.2c0,0.7-0.1,1.4-0.4,1.9c-0.3,0.6-0.7,1-1.2,1.3s-1.1,0.5-1.7,0.5c-1,0-1.8-0.3-2.4-1s-0.9-1.6-0.9-2.7
									V11.2z M338,11.4c0,0.9,0.2,1.6,0.7,2.2c0.5,0.6,1.1,0.9,1.8,0.9c0.7,0,1.3-0.3,1.8-0.9c0.5-0.6,0.7-1.3,0.7-2.2v-0.2
									c0-0.6-0.1-1.1-0.3-1.6c-0.2-0.5-0.5-0.8-0.9-1.1s-0.8-0.4-1.3-0.4c-0.7,0-1.3,0.3-1.8,0.9c-0.5,0.6-0.7,1.3-0.7,2.2
									L338,11.4L338,11.4z"/>
							</g>
							<g>
								<path class="st2" d="M345.3,11.2c0-1.2,0.3-2.1,0.8-2.8s1.2-1,2.1-1c1,0,1.8,0.4,2.3,1.2V7.5h0.8v7.2c0,1-0.3,1.7-0.8,2.3
									s-1.3,0.8-2.2,0.8c-0.5,0-1-0.1-1.5-0.3c-0.5-0.2-0.8-0.5-1.1-0.9l0.5-0.5c0.6,0.7,1.3,1.1,2.1,1.1c0.7,0,1.2-0.2,1.6-0.6
									s0.6-1,0.6-1.7V14c-0.5,0.7-1.3,1.1-2.3,1.1c-0.9,0-1.5-0.3-2.1-1s-0.8-1.6-0.8-2.8V11.2z M346.1,11.4
									c0,0.9,0.2,1.7,0.6,2.2s0.9,0.8,1.6,0.8c1,0,1.7-0.5,2.1-1.4V9.6c-0.2-0.5-0.5-0.8-0.8-1.1c-0.4-0.2-0.8-0.4-1.3-0.4
									c-0.7,0-1.2,0.3-1.6,0.8C346.3,9.5,346.1,10.3,346.1,11.4z"/>
							</g>
							<g>
								<path class="st2" d="M353.4,15.9h-0.7L356.8,5h0.7L353.4,15.9z"/>
							</g>
							<g>
								<path class="st2" d="M365.2,11.4c0,1.2-0.3,2.1-0.8,2.7c-0.5,0.7-1.2,1-2.1,1c-1,0-1.8-0.4-2.3-1.1v3.8h-0.8V7.6h0.8v1
									c0.5-0.8,1.3-1.2,2.3-1.2c0.9,0,1.6,0.3,2.1,1s0.8,1.6,0.8,2.8V11.4z M364.4,11.2c0-0.9-0.2-1.7-0.6-2.2s-0.9-0.8-1.6-0.8
									c-0.5,0-0.9,0.1-1.3,0.4c-0.4,0.2-0.6,0.6-0.8,1.1v3.5c0.2,0.4,0.5,0.7,0.8,1c0.4,0.2,0.8,0.3,1.3,0.3
									c0.7,0,1.2-0.3,1.6-0.8C364.2,13.1,364.4,12.3,364.4,11.2z"/>
							</g>
							<g>
								<path class="st2" d="M371.9,15c-0.1-0.2-0.1-0.6-0.2-1c-0.3,0.4-0.7,0.7-1.1,0.9s-0.9,0.3-1.4,0.3c-0.7,0-1.3-0.2-1.7-0.6
									s-0.7-0.9-0.7-1.5c0-0.7,0.3-1.3,0.9-1.7s1.4-0.6,2.5-0.6h1.5V9.9c0-0.5-0.2-0.9-0.5-1.2s-0.8-0.5-1.4-0.5s-1,0.1-1.4,0.4
									c-0.4,0.3-0.6,0.6-0.6,1.1H367c0-0.6,0.3-1.1,0.8-1.5c0.5-0.4,1.2-0.6,2-0.6s1.5,0.2,2,0.6c0.5,0.4,0.7,1,0.7,1.7v3.5
									c0,0.7,0.1,1.3,0.2,1.6l0,0H371.9z M369.3,14.4c0.5,0,1-0.1,1.5-0.4s0.7-0.6,0.9-1.1v-1.6h-1.5c-0.8,0-1.5,0.2-1.9,0.4
									c-0.5,0.3-0.7,0.7-0.7,1.2c0,0.4,0.2,0.8,0.5,1S368.8,14.4,369.3,14.4z"/>
							</g>
							<g>
								<path class="st2" d="M374.5,11.2c0-1.2,0.3-2.1,0.8-2.8s1.2-1,2.1-1c1,0,1.8,0.4,2.3,1.2V7.5h0.8v7.2c0,1-0.3,1.7-0.8,2.3
									s-1.3,0.8-2.2,0.8c-0.5,0-1-0.1-1.5-0.3c-0.5-0.2-0.8-0.5-1.1-0.9l0.5-0.5c0.6,0.7,1.3,1.1,2.1,1.1c0.7,0,1.2-0.2,1.6-0.6
									s0.6-1,0.6-1.7V14c-0.5,0.7-1.3,1.1-2.3,1.1c-0.9,0-1.5-0.3-2.1-1s-0.8-1.6-0.8-2.8V11.2z M375.4,11.4
									c0,0.9,0.2,1.7,0.6,2.2s0.9,0.8,1.6,0.8c1,0,1.7-0.5,2.1-1.4V9.6c-0.2-0.5-0.5-0.8-0.8-1.1c-0.4-0.2-0.8-0.4-1.3-0.4
									c-0.7,0-1.2,0.3-1.6,0.8C375.6,9.5,375.4,10.3,375.4,11.4z"/>
							</g>
							<g>
								<path class="st2" d="M385.7,15.1c-0.6,0-1.2-0.2-1.7-0.5s-0.9-0.7-1.2-1.3c-0.3-0.6-0.4-1.2-0.4-1.9v-0.3
									c0-0.7,0.1-1.4,0.4-1.9c0.3-0.6,0.7-1,1.2-1.3c0.5-0.3,1-0.5,1.6-0.5c0.9,0,1.6,0.3,2.1,0.9s0.8,1.5,0.8,2.5v0.5h-5.3v0.2
									c0,0.8,0.2,1.5,0.7,2.1s1.1,0.8,1.8,0.8c0.4,0,0.8-0.1,1.2-0.2c0.3-0.2,0.6-0.4,0.9-0.8l0.5,0.4
									C387.7,14.7,386.8,15.1,385.7,15.1z M385.5,8.2c-0.6,0-1.1,0.2-1.6,0.7c-0.4,0.5-0.7,1.1-0.8,1.8h4.4v-0.1
									c0-0.7-0.2-1.3-0.6-1.7S386.1,8.2,385.5,8.2z"/>
							</g>
							<g>
								<path class="st2" d="M394.6,13.1c0-0.4-0.2-0.7-0.5-1c-0.3-0.2-0.8-0.4-1.5-0.6c-0.7-0.1-1.2-0.3-1.5-0.5
									c-0.4-0.2-0.6-0.4-0.8-0.7c-0.2-0.3-0.3-0.6-0.3-0.9c0-0.6,0.2-1.1,0.7-1.4c0.5-0.4,1.1-0.6,1.9-0.6s1.5,0.2,2,0.6
									s0.7,0.9,0.7,1.6h-0.8c0-0.4-0.2-0.8-0.5-1.1c-0.4-0.3-0.8-0.4-1.4-0.4c-0.5,0-1,0.1-1.3,0.4c-0.3,0.2-0.5,0.5-0.5,0.9
									s0.1,0.7,0.4,0.9s0.8,0.4,1.5,0.6c0.7,0.2,1.3,0.3,1.6,0.5c0.4,0.2,0.6,0.4,0.8,0.7s0.3,0.6,0.3,1c0,0.6-0.3,1.1-0.8,1.5
									s-1.2,0.6-2,0.6c-0.9,0-1.6-0.2-2.1-0.6c-0.5-0.4-0.8-0.9-0.8-1.6h0.8c0,0.5,0.2,0.9,0.6,1.1c0.4,0.3,0.9,0.4,1.5,0.4
									s1-0.1,1.4-0.4S394.6,13.5,394.6,13.1z"/>
							</g>
						</g>
					</g>
					<g id="Group-7">
						<g id="Group-10_3_">
							<g id="Oval_3_">
								<circle class="st0" cx="10" cy="10" r="10"/>
							</g>
							<g class="st1">
								<g>
									<path class="st2" d="M10.9,14H9.5V8.6L7.8,9.1V7.9l2.9-1.1h0.2C10.9,6.8,10.9,14,10.9,14z"/>
								</g>
							</g>
						</g>
						<g class="st1">
							<g>
								<path class="st2" d="M48.3,11.9c-0.1,1-0.5,1.9-1.1,2.4s-1.5,0.8-2.5,0.8c-0.7,0-1.4-0.2-2-0.6s-1-0.9-1.3-1.6
									c-0.3-0.7-0.5-1.5-0.5-2.3V9.4c0-0.9,0.2-1.7,0.5-2.4s0.8-1.2,1.3-1.6c0.6-0.4,1.2-0.6,2-0.6c1.1,0,1.9,0.3,2.5,0.9
									s1,1.4,1.1,2.4h-0.8c-0.2-1.7-1.1-2.5-2.8-2.5c-0.9,0-1.6,0.3-2.2,1s-0.8,1.6-0.8,2.8v1.2c0,1.1,0.3,2.1,0.8,2.8
									s1.2,1,2.1,1c0.9,0,1.5-0.2,2-0.6c0.4-0.4,0.7-1.1,0.8-1.9C47.4,11.9,48.3,11.9,48.3,11.9z"/>
							</g>
							<g>
								<path class="st2" d="M49.9,11.2c0-0.7,0.1-1.4,0.4-1.9s0.7-1,1.2-1.3c0.5-0.3,1.1-0.5,1.7-0.5c1,0,1.8,0.3,2.4,1
									c0.6,0.7,0.9,1.6,0.9,2.7v0.2c0,0.7-0.1,1.4-0.4,1.9c-0.3,0.6-0.7,1-1.2,1.3s-1.1,0.5-1.7,0.5c-1,0-1.8-0.3-2.4-1
									c-0.6-0.7-0.9-1.6-0.9-2.7V11.2z M50.7,11.4c0,0.9,0.2,1.6,0.7,2.2c0.5,0.6,1.1,0.9,1.8,0.9s1.3-0.3,1.8-0.9
									c0.5-0.6,0.7-1.3,0.7-2.2v-0.2c0-0.6-0.1-1.1-0.3-1.6s-0.5-0.8-0.9-1.1s-0.8-0.4-1.3-0.4c-0.7,0-1.3,0.3-1.8,0.9
									c-0.5,0.6-0.7,1.3-0.7,2.2V11.4z"/>
							</g>
							<g>
								<path class="st2" d="M59.1,7.6v1.2c0.3-0.4,0.6-0.8,1-1s0.9-0.3,1.4-0.3c1.2,0,1.9,0.5,2.2,1.4c0.3-0.5,0.6-0.8,1.1-1.1
									c0.4-0.2,0.9-0.4,1.5-0.4c1.6,0,2.4,0.9,2.4,2.6v5h-0.8v-4.9c0-0.7-0.1-1.2-0.4-1.5s-0.7-0.5-1.4-0.5
									c-0.6,0-1.1,0.2-1.5,0.6c-0.4,0.4-0.6,0.8-0.7,1.4V15h-0.8v-4.9c0-0.6-0.2-1.1-0.4-1.4c-0.3-0.3-0.7-0.5-1.4-0.5
									c-0.5,0-1,0.1-1.3,0.4c-0.4,0.3-0.6,0.7-0.8,1.3V15h-0.8V7.6H59.1z"/>
							</g>
							<g>
								<path class="st2" d="M76.9,11.4c0,1.2-0.3,2.1-0.8,2.7c-0.5,0.7-1.2,1-2.1,1c-1,0-1.8-0.4-2.3-1.1v3.8h-0.8V7.6h0.8v1
									C72.2,7.9,73,7.5,74,7.5c0.9,0,1.6,0.3,2.1,1S76.9,10.1,76.9,11.4L76.9,11.4z M76,11.2c0-0.9-0.2-1.7-0.6-2.2
									s-0.9-0.8-1.6-0.8c-0.5,0-0.9,0.1-1.3,0.4s-0.6,0.6-0.8,1.1v3.5c0.2,0.4,0.5,0.7,0.8,1s0.8,0.3,1.3,0.3
									c0.7,0,1.2-0.3,1.6-0.8C75.8,13.1,76,12.3,76,11.2z"/>
							</g>
							<g>
								<path class="st2" d="M79.8,15H79V4.5h0.8V15z"/>
							</g>
							<g>
								<path class="st2" d="M85,15.1c-0.6,0-1.2-0.2-1.7-0.5s-0.9-0.7-1.2-1.3c-0.3-0.6-0.4-1.2-0.4-1.9v-0.3
									c0-0.7,0.1-1.4,0.4-1.9s0.7-1,1.2-1.3c0.5-0.3,1-0.5,1.6-0.5c0.9,0,1.6,0.3,2.1,0.9s0.8,1.5,0.8,2.5v0.5h-5.3v0.2
									c0,0.8,0.2,1.5,0.7,2.1s1.1,0.8,1.8,0.8c0.4,0,0.8-0.1,1.2-0.2s0.6-0.4,0.9-0.8l0.5,0.4C87,14.7,86.2,15.1,85,15.1z
									 M84.9,8.2c-0.6,0-1.1,0.2-1.6,0.7s-0.7,1.1-0.8,1.8H87v-0.1c0-0.7-0.2-1.3-0.6-1.7S85.5,8.2,84.9,8.2z"/>
							</g>
							<g>
								<path class="st2" d="M90.8,5.7v1.9h1.5v0.7h-1.5v4.9c0,0.4,0.1,0.7,0.2,0.9s0.4,0.3,0.7,0.3c0.1,0,0.4,0,0.7-0.1V15
									c-0.2,0.1-0.5,0.1-0.9,0.1c-0.6,0-1-0.2-1.2-0.5c-0.3-0.3-0.4-0.8-0.4-1.4V8.3h-1.4V7.6H90V5.7H90.8z"/>
							</g>
							<g>
								<path class="st2" d="M97.1,15.1c-0.6,0-1.2-0.2-1.7-0.5s-0.9-0.7-1.2-1.3c-0.3-0.6-0.4-1.2-0.4-1.9v-0.3
									c0-0.7,0.1-1.4,0.4-1.9s0.7-1,1.2-1.3c0.5-0.3,1-0.5,1.6-0.5c0.9,0,1.6,0.3,2.1,0.9s0.8,1.5,0.8,2.5v0.5h-5.3v0.2
									c0,0.8,0.2,1.5,0.7,2.1s1.1,0.8,1.8,0.8c0.4,0,0.8-0.1,1.2-0.2s0.6-0.4,0.9-0.8l0.5,0.4C99.1,14.7,98.2,15.1,97.1,15.1z
									 M96.9,8.2c-0.6,0-1.1,0.2-1.6,0.7s-0.7,1.1-0.8,1.8H99v-0.1c0-0.7-0.2-1.3-0.6-1.7S97.5,8.2,96.9,8.2z"/>
							</g>
							<g>
								<path class="st2" d="M106.5,5.7v1.9h1.5v0.7h-1.5v4.9c0,0.4,0.1,0.7,0.2,0.9s0.4,0.3,0.7,0.3c0.1,0,0.4,0,0.7-0.1V15
									c-0.2,0.1-0.5,0.1-0.9,0.1c-0.6,0-1-0.2-1.2-0.5c-0.3-0.3-0.4-0.8-0.4-1.4V8.3h-1.4V7.6h1.4V5.7H106.5z"/>
							</g>
							<g>
								<path class="st2" d="M110.7,8.9c0.3-0.4,0.6-0.8,1-1c0.4-0.2,0.9-0.4,1.4-0.4c0.8,0,1.4,0.2,1.8,0.7c0.4,0.4,0.6,1.1,0.6,2
									V15h-0.8v-4.9c0-0.7-0.1-1.2-0.4-1.5s-0.7-0.5-1.3-0.5c-0.5,0-1,0.2-1.3,0.5c-0.4,0.3-0.7,0.7-0.9,1.3V15H110V4.5h0.8
									L110.7,8.9L110.7,8.9z"/>
							</g>
							<g>
								<path class="st2" d="M120.6,15.1c-0.6,0-1.2-0.2-1.7-0.5s-0.9-0.7-1.2-1.3c-0.3-0.6-0.4-1.2-0.4-1.9v-0.3
									c0-0.7,0.1-1.4,0.4-1.9s0.7-1,1.2-1.3c0.5-0.3,1-0.5,1.6-0.5c0.9,0,1.6,0.3,2.1,0.9s0.8,1.5,0.8,2.5v0.5h-5.3v0.2
									c0,0.8,0.2,1.5,0.7,2.1s1.1,0.8,1.8,0.8c0.4,0,0.8-0.1,1.2-0.2s0.6-0.4,0.9-0.8l0.5,0.4C122.6,14.7,121.7,15.1,120.6,15.1z
									 M120.4,8.2c-0.6,0-1.1,0.2-1.6,0.7s-0.7,1.1-0.8,1.8h4.4v-0.1c0-0.7-0.2-1.3-0.6-1.7S121,8.2,120.4,8.2z"/>
							</g>
							<g>
								<path class="st2" d="M129.3,15V8.3H128V7.6h1.2V6.7c0-0.8,0.2-1.3,0.6-1.7s0.9-0.6,1.6-0.6c0.3,0,0.6,0,0.9,0.1l-0.1,0.7
									c-0.2-0.1-0.5-0.1-0.7-0.1c-0.5,0-0.8,0.1-1.1,0.4S130,6.2,130,6.7v0.9h1.8v0.7H130V15H129.3z"/>
							</g>
							<g>
								<path class="st2" d="M133,11.2c0-0.7,0.1-1.4,0.4-1.9s0.7-1,1.2-1.3c0.5-0.3,1.1-0.5,1.7-0.5c1,0,1.8,0.3,2.4,1
									c0.6,0.7,0.9,1.6,0.9,2.7v0.2c0,0.7-0.1,1.4-0.4,1.9c-0.3,0.6-0.7,1-1.2,1.3s-1.1,0.5-1.7,0.5c-1,0-1.8-0.3-2.4-1
									c-0.6-0.7-0.9-1.6-0.9-2.7V11.2z M133.8,11.4c0,0.9,0.2,1.6,0.7,2.2c0.5,0.6,1.1,0.9,1.8,0.9s1.3-0.3,1.8-0.9
									c0.5-0.6,0.7-1.3,0.7-2.2v-0.2c0-0.6-0.1-1.1-0.3-1.6s-0.5-0.8-0.9-1.1s-0.8-0.4-1.3-0.4c-0.7,0-1.3,0.3-1.8,0.9
									c-0.5,0.6-0.7,1.3-0.7,2.2V11.4z"/>
							</g>
							<g>
								<path class="st2" d="M144.9,8.3c-0.2,0-0.4,0-0.6,0c-0.5,0-0.9,0.1-1.3,0.4c-0.4,0.3-0.6,0.7-0.8,1.2V15h-0.8V7.6h0.8v1.2
									c0.4-0.9,1.1-1.3,2.1-1.3c0.2,0,0.4,0,0.5,0.1L144.9,8.3z"/>
							</g>
							<g>
								<path class="st2" d="M147.1,7.6v1.2c0.3-0.4,0.6-0.8,1-1s0.9-0.3,1.4-0.3c1.2,0,1.9,0.5,2.2,1.4c0.3-0.5,0.6-0.8,1.1-1.1
									c0.4-0.2,0.9-0.4,1.5-0.4c1.6,0,2.4,0.9,2.4,2.6v5h-0.8v-4.9c0-0.7-0.1-1.2-0.4-1.5s-0.7-0.5-1.4-0.5
									c-0.6,0-1.1,0.2-1.5,0.6c-0.4,0.4-0.6,0.8-0.7,1.4V15h-0.8v-4.9c0-0.6-0.2-1.1-0.4-1.4c-0.3-0.3-0.7-0.5-1.4-0.5
									c-0.5,0-1,0.1-1.3,0.4c-0.4,0.3-0.6,0.7-0.8,1.3V15h-0.8V7.6H147.1z"/>
							</g>
							<g>
								<path class="st2" d="M168.5,11.4c0,1.2-0.3,2.1-0.8,2.7c-0.5,0.7-1.2,1-2.1,1c-1,0-1.8-0.4-2.3-1.1v1h-0.8V4.5h0.8v4.2
									c0.5-0.8,1.3-1.2,2.3-1.2c0.9,0,1.6,0.3,2.1,1S168.5,10.1,168.5,11.4L168.5,11.4z M167.6,11.2c0-1-0.2-1.7-0.6-2.3
									c-0.4-0.5-0.9-0.8-1.6-0.8c-0.5,0-1,0.1-1.3,0.4c-0.4,0.3-0.6,0.6-0.8,1.1V13c0.4,0.9,1.1,1.4,2.2,1.4
									c0.7,0,1.2-0.3,1.6-0.8S167.6,12.3,167.6,11.2z"/>
							</g>
							<g>
								<path class="st2" d="M173.3,15.1c-0.6,0-1.2-0.2-1.7-0.5s-0.9-0.7-1.2-1.3s-0.4-1.2-0.4-1.9v-0.3c0-0.7,0.1-1.4,0.4-1.9
									s0.7-1,1.2-1.3c0.5-0.3,1-0.5,1.6-0.5c0.9,0,1.6,0.3,2.1,0.9s0.8,1.5,0.8,2.5v0.5h-5.3v0.2c0,0.8,0.2,1.5,0.7,2.1
									s1.1,0.8,1.8,0.8c0.4,0,0.8-0.1,1.2-0.2s0.6-0.4,0.9-0.8l0.5,0.4C175.3,14.7,174.4,15.1,173.3,15.1z M173.1,8.2
									c-0.6,0-1.1,0.2-1.6,0.7s-0.7,1.1-0.8,1.8h4.4v-0.1c0-0.7-0.2-1.3-0.6-1.7S173.8,8.2,173.1,8.2z"/>
							</g>
							<g>
								<path class="st2" d="M178.8,15H178V4.5h0.8V15z"/>
							</g>
							<g>
								<path class="st2" d="M180.7,11.2c0-0.7,0.1-1.4,0.4-1.9s0.7-1,1.2-1.3c0.5-0.3,1.1-0.5,1.7-0.5c1,0,1.8,0.3,2.4,1
									c0.6,0.7,0.9,1.6,0.9,2.7v0.2c0,0.7-0.1,1.4-0.4,1.9c-0.3,0.6-0.7,1-1.2,1.3s-1.1,0.5-1.7,0.5c-1,0-1.8-0.3-2.4-1
									c-0.6-0.7-0.9-1.6-0.9-2.7V11.2z M181.5,11.4c0,0.9,0.2,1.6,0.7,2.2c0.5,0.6,1.1,0.9,1.8,0.9s1.3-0.3,1.8-0.9
									c0.5-0.6,0.7-1.3,0.7-2.2v-0.2c0-0.6-0.1-1.1-0.3-1.6s-0.5-0.8-0.9-1.1s-0.8-0.4-1.3-0.4c-0.7,0-1.3,0.3-1.8,0.9
									c-0.5,0.6-0.7,1.3-0.7,2.2V11.4z"/>
							</g>
							<g>
								<path class="st2" d="M190.9,13.3l0.1,0.6l0.2-0.7l1.8-5.7h0.7l1.8,5.6l0.2,0.8l0.2-0.7l1.5-5.7h0.8L196,15h-0.7l-1.9-5.9
									l-0.1-0.4l-0.1,0.4l-1.9,5.9h-0.7l-2.1-7.4h0.8L190.9,13.3z"/>
							</g>
						</g>
					</g>
					<g id="Line">
						<path class="st2" d="M10.5,55.5h-1v-3h1V55.5z M10.5,49.5h-1v-4h1V49.5z M10.5,42.5h-1v-4h1V42.5z M10.5,35.5h-1v-4h1V35.5z
							 M10.5,28.5h-1v-4h1V28.5z"/>
					</g>
					<g id="Line-Copy-3">
						<path class="st2" d="M10.5,115.5h-1v-3h1V115.5z M10.5,109.5h-1v-4h1V109.5z M10.5,102.5h-1v-4h1V102.5z M10.5,95.5h-1v-4h1
							V95.5z M10.5,88.5h-1v-4h1V88.5z"/>
					</g>
					<g id="Line-Copy-4">
						<path class="st2" d="M10.5,175.5h-1v-3h1V175.5z M10.5,169.5h-1v-4h1V169.5z M10.5,162.5h-1v-4h1V162.5z M10.5,155.5h-1v-4h1
							V155.5z M10.5,148.5h-1v-4h1V148.5z"/>
					</g>
				</g>
			</g>
		</g>
	</g>
</g>
</svg>
