<?xml version="1.0" encoding="utf-8"?>
<!-- Generator: Adobe Illustrator 21.1.0, SVG Export Plug-In . SVG Version: 6.00 Build 0)  -->
<svg version="1.1" id="Layer_1" xmlns="http://www.w3.org/2000/svg" xmlns:xlink="http://www.w3.org/1999/xlink" x="0px" y="0px"
	 viewBox="0 0 294 294" style="enable-background:new 0 0 294 294;" xml:space="preserve">
<style type="text/css">
	.st0{fill:#393240;}
</style>
<g>
	<path class="st0" d="M153.6,121.2h-22.1c-1.4,0-2.5,1.1-2.5,2.5s1.1,2.5,2.5,2.5h22.1c1.4,0,2.5-1.1,2.5-2.5S155,121.2,153.6,121.2
		z"/>
	<path class="st0" d="M211.1,152.8h-5.4c2.4-3.4,3.8-7.4,3.8-11.6c0-8.6-5.5-16-13.2-18.8c2-3,3.1-6.5,3.1-10.2
		c0-8.5-5.8-15.7-13.7-17.8c0.6-1.7,1-3.4,1.2-5.3c2.7-25.8-18.4-40.7-19.3-41.4c-0.9-0.6-2.1-0.6-2.9,0.1c-0.9,0.7-1.2,1.8-0.8,2.8
		c0.1,0.4,3.4,10-5.8,16.1c-3.8,2.5-12.8,2.9-19.5,3.1c-6.8,0.3-12.1,0.6-12.8,0.6c-4.9,0-9.5,1.9-12.9,5.4c-3.5,3.5-5.4,8.1-5.4,13
		c0,1.9,0.3,3.8,0.9,5.6c-3,0.8-5.8,2.5-8,4.7c-3.5,3.5-5.4,8.1-5.4,13c0,3.6,1.1,7.2,3.1,10.2c-2.8,1-5.3,2.6-7.4,4.7
		c-3.8,3.8-5.8,8.8-5.8,14.1c0,4.2,1.4,8.3,3.8,11.6h-5.4c-4.4,0-8,3.6-8,8v27.4c0,4.4,3.6,8,8,8h8l5.5,76.7
		c0.4,6.2,5.7,11.1,11.9,11.1h77.3c6.2,0,11.4-4.9,11.9-11.1l5.5-76.7h8c4.4,0,8-3.6,8-8v-27.4C219.1,156.4,215.5,152.8,211.1,152.8
		z M89.5,141.2c0-4,1.6-7.7,4.4-10.6c2.4-2.3,5.4-3.9,8.7-4.3c0,0,0,0,0,0c0,0,0,0,0,0c0.6-0.1,1.2-0.1,1.8-0.1h14.7
		c1.4,0,2.5-1.1,2.5-2.5s-1.1-2.5-2.5-2.5h-14.7c-0.4,0-0.8,0-1.2,0c-2.3-2.4-3.5-5.7-3.5-9.1c0-3.6,1.4-6.9,3.9-9.5
		c2.2-2.2,5.1-3.6,8.2-3.9c0,0,0,0,0,0c0.4,0,0.8-0.1,1.2-0.1h35.5c1.4,0,2.5-1.1,2.5-2.5s-1.1-2.5-2.5-2.5h-35.4
		c-0.6-1.6-0.9-3.2-0.9-4.9c0-3.6,1.4-6.9,3.9-9.5c2.5-2.5,5.9-3.9,9.5-3.9c0.1,0,0.1,0,0.2,0c0.1,0,5.6-0.4,12.8-0.6
		c7.9-0.3,17-0.6,22-3.9c6.3-4.2,8.4-10,8.7-14.9c5.6,5.7,14.1,17,12.5,32.6c-0.2,1.9-0.7,3.6-1.3,5.2H166c-1.4,0-2.5,1.1-2.5,2.5
		s1.1,2.5,2.5,2.5h14.9c0.3,0,0.6,0,0.9,0c0,0,0,0,0,0c0,0,0,0,0,0c7,0.5,12.5,6.3,12.5,13.3c0,3.4-1.3,6.6-3.6,9.1
		c-0.4,0-0.8,0-1.2,0h-22.1c-1.4,0-2.5,1.1-2.5,2.5s1.1,2.5,2.5,2.5h22.1c0.7,0,1.2,0,1.8,0.1c0,0,0,0,0,0c0,0,0,0,0,0
		c7.5,0.9,13.1,7.3,13.1,14.8c0,4-1.6,7.7-4.4,10.6c-0.4,0.4-0.7,0.7-1.2,1.1H95.1C91.6,150,89.5,145.7,89.5,141.2z M192.6,272.6
		c-0.3,3.6-3.3,6.4-6.9,6.4h-77.3c-3.6,0-6.6-2.8-6.9-6.4L96,196.2h102L192.6,272.6z M214.1,188.2c0,1.7-1.3,3-3,3H82.9
		c-1.7,0-3-1.3-3-3v-27.4c0-1.7,1.3-3,3-3h11.3h105.5h11.3c1.7,0,3,1.3,3,3V188.2z"/>
</g>
</svg>
