<?xml version="1.0" encoding="utf-8"?>
<!-- Generator: Adobe Illustrator 21.1.0, SVG Export Plug-In . SVG Version: 6.00 Build 0)  -->
<svg version="1.1" id="Layer_1" xmlns="http://www.w3.org/2000/svg" xmlns:xlink="http://www.w3.org/1999/xlink" x="0px" y="0px"
	 viewBox="0 0 719 244.7" style="enable-background:new 0 0 719 244.7;" xml:space="preserve">
<style type="text/css">
	.st0{fill:#393240;}
</style>
<g>
	<path class="st0" d="M714,237.6h-74.8c-0.2-10-1.6-19.4-4-28.3c1.7-5.6,9.7-35.8-6.2-46.5c-14.3-9.7-14.5-10.2-15.9-18.6v-0.8
		c-1.3-7.3-3.1-17.2-21.6-18.5c-0.3-0.6-0.7-1.1-1-1.7l15.9-21.6c0.5-0.8,0.8-1.6,0.5-2.4c0-0.8-0.5-1.6-1.3-2.2L587,83.3
		c-1.6-1.1-3.5-0.8-4.6,0.8L567.8,104c-6.1-2.6-12.8-4-19.8-4c-5.3,0-10.4,0.8-15.3,2.3c-9.7-8.6-19.9-8.5-31.6,0.6
		c-10.7,8.3-18.7,13.9-24.8,15.7l-2-5.1l0.9-16.3h5c1,0,2-0.4,2.6-1.2c0.7-0.8,1-1.8,0.8-2.8l-1.9-14.4c-0.2-1.7-1.7-3-3.5-3h-8.7
		l-1.2-11.6c-0.2-1.8-1.7-3.1-3.5-3.1h-47.9l-7.7-38.8c-0.2-1.2-1.1-2.2-2.2-2.6L357.3,0.4c-0.9-0.3-1.8-0.3-2.7,0.1
		c-0.9,0.4-1.5,1.1-1.9,1.9l-3.3,8.6c-0.7,1.8,0.2,3.8,2,4.5l43.2,16.7l5.7,28.8h-31.7c-1.8,0-3.3,1.4-3.5,3.1l-1.2,11.6h-8.7
		c-1.8,0-3.2,1.3-3.5,3l-1.9,14.4c-0.1,1,0.2,2,0.8,2.8c0.7,0.8,1.6,1.2,2.6,1.2h5l1.9,32.7l1.2,20.6c-3.3-0.8-6.7-1.2-10.2-1.2
		c-3.3,0-6.4,0.4-9.5,1l-16-19.7c-0.8-4-2.4-7.9-5-11.5c-7-9.7-11.2-9.8-16.3-8.8c-2.6,0.5-5,0.9-9.9-2c-16-9.5-22.7-5-28.6,0.9
		c-1.1,1.1-2.1,2.1-3.1,2.7l-0.3,0.2c-20.5,13.6-28.8,30.2-24.7,49.4l-2.5,3h-8.5c5.2-9,5.6-20.5,0-30.2l-13.1,7.5l-5.5,3.2
		c-3.6-0.7-6.9-0.8-8.2-1.3c-3.5-1.2,12-9.3-4.3-20.1c-7.3-4.8-11.9-6.5-15.2-6.5c-6.4,0-7.6,6.3-13.6,7.1c-0.4,0-0.8,0.1-1.2,0.1
		c-7.1,0-12.5-8.1-16.3-8.1c-0.8,0-1.5,0.3-2.2,1.2c-0.9,1.1-1,4.5-0.6,9.2c-2.1-2.4-4.8-4.4-10.8-4.4c-3,0-6.8,0.5-11.8,1.7
		c-18.9,4.6-3.8,16.7-7.7,16.7c-2,0-7.8-1.7-13.3-1.7c-4.9,0-9.5,1.4-10.7,6.8c-1,4.4,3.2,11.6,8.7,18.8h-8.8v12.1
		c0,25.6,13.3,48,33.3,60.9H5c-1.9,0-3.5,1.6-3.5,3.5c0,1.9,1.6,3.5,3.5,3.5h709c1.9,0,3.5-1.6,3.5-3.5
		C717.5,239.1,715.9,237.6,714,237.6z M368.9,160.9C368.9,160.9,368.9,160.9,368.9,160.9l-0.4-8c0,0,0,0,0,0l-0.9-15.7
		c0,0,0.1,0.1,0.1,0.1c0.1,0.1,0.3,0.2,0.4,0.3c0.1,0.1,0.3,0.2,0.4,0.3c0.9,0.6,1.8,1.1,2.8,1.7c0.1,0.1,0.3,0.1,0.4,0.2
		c0.3,0.2,0.7,0.4,1.1,0.6c0.2,0.1,0.4,0.2,0.5,0.3c0.2,0.1,0.4,0.2,0.5,0.3c0.2,0.1,0.4,0.2,0.5,0.3c0.2,0.1,0.4,0.2,0.5,0.3
		c0.7,0.4,1.5,0.7,2.2,1c0.2,0.1,0.3,0.1,0.5,0.2c0.6,0.2,1.1,0.5,1.7,0.7c0.4,0.2,0.8,0.3,1.1,0.4c0.2,0.1,0.4,0.1,0.6,0.2
		c0.2,0.1,0.4,0.1,0.6,0.2c0.2,0.1,0.4,0.1,0.6,0.2c0.4,0.1,0.8,0.3,1.2,0.4c0.2,0.1,0.3,0.1,0.5,0.2c0.2,0.1,0.5,0.2,0.7,0.2
		c0.2,0.1,0.4,0.1,0.6,0.2c0,0,0,0,0,0c0.4,0.1,0.7,0.2,1.1,0.4c0,0,0.1,0,0.1,0c0.4,0.1,0.7,0.2,1.1,0.3c0.4,0.1,0.8,0.3,1.3,0.4
		c0.4,0.1,0.7,0.2,1.1,0.3c0.1,0,0.2,0,0.3,0.1c0.3,0.1,0.6,0.2,0.9,0.3c1.7,0.5,3.5,0.9,5.2,1.3l1.2,0.3c2.6,0.6,5.2,1.2,7.9,1.8
		c2.1,0.5,4.2,0.9,6.3,1.4c3,0.7,6,1.4,9.1,2.3c0.1,0,0.1,0,0.2,0.1c3.6,1,6.8,1.9,9.8,2.9c1,0.3,1.9,0.6,2.9,1
		c2.5,0.9,5,1.7,7.3,2.7c0.7,0.3,1.4,0.5,2.1,0.8c0.4,0.2,0.8,0.3,1.2,0.5c0.8,0.4,1.7,0.7,2.5,1.1c0.2,0.1,0.4,0.2,0.6,0.3
		c1.3,0.6,2.6,1.3,3.9,2c0.4,0.2,0.8,0.4,1.2,0.7c0.7,0.4,1.4,0.8,2.1,1.2c0.2,0.1,0.4,0.3,0.7,0.4c0.2,0.1,0.5,0.3,0.7,0.4
		c0.1,0.1,0.3,0.2,0.5,0.3c0.2,0.1,0.3,0.2,0.5,0.3c0.6,0.4,1.3,0.8,1.9,1.2c0.2,0.1,0.4,0.2,0.5,0.3c0.4,0.3,0.8,0.5,1.2,0.8
		c0.2,0.1,0.4,0.2,0.5,0.4c0.2,0.2,0.5,0.3,0.7,0.5c0.7,0.5,1.4,1,2,1.4l-2.3,39.3c-0.3-0.2-0.6-0.4-0.8-0.5
		c-0.3-0.2-0.6-0.3-0.8-0.5c-0.2-0.1-0.4-0.3-0.6-0.4c-0.2-0.1-0.4-0.3-0.7-0.4c-0.2-0.1-0.4-0.3-0.7-0.4c-0.2-0.1-0.4-0.2-0.6-0.4
		c0,0,0,0-0.1,0c-0.3-0.2-0.5-0.3-0.8-0.5c-0.3-0.2-0.6-0.4-0.9-0.5c-0.1,0-0.2-0.1-0.2-0.1c-0.3-0.2-0.6-0.3-0.8-0.5
		c-0.3-0.2-0.7-0.4-1-0.5c-2.4-1.3-4.8-2.4-7.2-3.4c-0.2-0.1-0.4-0.2-0.6-0.3c-0.7-0.3-1.4-0.6-2.1-0.8c-3.4-1.3-6.9-2.6-10.3-3.7
		c-7.1-2.3-13.6-3.9-19.8-5.3c-0.8-0.2-1.6-0.4-2.3-0.5c-0.8-0.2-1.5-0.4-2.3-0.5c-0.9-0.2-1.7-0.4-2.6-0.6c-0.7-0.2-1.3-0.3-2-0.5
		c-0.3-0.1-0.6-0.2-1-0.2c-0.8-0.2-1.6-0.4-2.4-0.6c0,0,0,0,0,0c-0.2,0-0.4-0.1-0.6-0.1c-0.1,0-0.1,0-0.2,0
		c-0.3-0.1-0.6-0.1-0.8-0.2c-0.4-0.1-0.9-0.2-1.3-0.3c-0.4-0.1-0.9-0.2-1.3-0.3c-0.4-0.1-0.9-0.2-1.3-0.4c-0.2,0-0.4-0.1-0.5-0.1
		c0,0,0,0,0,0c0,0,0,0,0,0c-0.1,0-0.3-0.1-0.4-0.1c-0.3-0.1-0.6-0.2-0.8-0.2c-0.1,0-0.3-0.1-0.4-0.1c-0.2-0.1-0.4-0.1-0.6-0.2
		c-0.4-0.1-0.7-0.2-1.1-0.3c-0.3-0.1-0.6-0.2-0.9-0.3c-0.3-0.1-0.5-0.2-0.8-0.3c-0.1,0-0.2-0.1-0.3-0.1c-0.3-0.1-0.5-0.2-0.8-0.3
		c-0.2-0.1-0.5-0.2-0.7-0.3c-0.1,0-0.2-0.1-0.4-0.1c0,0,0,0,0,0c0,0,0,0,0,0c0,0,0,0,0,0c-0.1,0-0.3-0.1-0.4-0.1
		c-0.2-0.1-0.5-0.2-0.7-0.3c-0.2-0.1-0.3-0.1-0.5-0.2c-0.4-0.2-0.8-0.3-1.2-0.5c-0.4-0.2-0.8-0.3-1.2-0.5c-0.2-0.1-0.5-0.2-0.7-0.3
		c-0.4-0.2-0.8-0.3-1.1-0.5c-0.2-0.1-0.4-0.2-0.6-0.3c-0.2-0.1-0.4-0.2-0.6-0.3c-0.2-0.1-0.4-0.2-0.6-0.3c-0.2-0.1-0.4-0.2-0.6-0.3
		c-0.6-0.3-1.2-0.6-1.8-0.9c0,0-0.1,0-0.1,0c-0.6-0.3-1.1-0.6-1.7-0.9c-0.6-0.3-1.2-0.7-1.8-1c-0.2-0.1-0.4-0.2-0.6-0.4
		c-0.2-0.1-0.4-0.3-0.7-0.4c-0.1-0.1-0.3-0.2-0.4-0.3c-0.3-0.2-0.6-0.4-0.8-0.6c0,0-0.1,0-0.1-0.1c-0.1-0.1-0.2-0.2-0.3-0.2
		c-0.3-0.2-0.7-0.5-1-0.7L368.9,160.9L368.9,160.9z M370.4,187.5c0.1,0.1,0.2,0.1,0.3,0.2c0.2,0.1,0.4,0.3,0.6,0.4
		c0.2,0.1,0.4,0.3,0.6,0.4c0.4,0.2,0.8,0.5,1.3,0.7c0.2,0.1,0.4,0.2,0.6,0.3c0.2,0.1,0.4,0.2,0.7,0.4c0,0,0,0,0,0
		c0.4,0.2,0.8,0.4,1.2,0.6c0,0,0,0,0.1,0c0.4,0.2,0.8,0.4,1.2,0.6c0.2,0.1,0.4,0.2,0.6,0.3c0.2,0.1,0.4,0.2,0.6,0.3
		c0.2,0.1,0.4,0.2,0.6,0.3c0.4,0.2,0.9,0.4,1.3,0.6c0.4,0.2,0.9,0.4,1.3,0.5c0.2,0.1,0.4,0.2,0.7,0.3c0.2,0.1,0.4,0.2,0.7,0.3
		c0,0,0.1,0,0.1,0c0.4,0.1,0.7,0.3,1.1,0.4c0.3,0.1,0.5,0.2,0.8,0.3c0.2,0.1,0.4,0.2,0.7,0.2s0.4,0.2,0.7,0.2c0.5,0.2,1,0.3,1.5,0.5
		c0.6,0.2,1.2,0.4,1.8,0.6c0.4,0.1,0.9,0.3,1.3,0.4c0.2,0.1,0.5,0.1,0.7,0.2c0.2,0.1,0.5,0.1,0.7,0.2c0.2,0.1,0.5,0.1,0.7,0.2
		c0.5,0.1,0.9,0.3,1.4,0.4c0.1,0,0.2,0,0.3,0.1c0.4,0.1,0.7,0.2,1.1,0.3c0.5,0.1,0.9,0.2,1.4,0.4c0.3,0.1,0.6,0.1,0.8,0.2
		c0.4,0.1,0.8,0.2,1.3,0.3c1.1,0.3,2.3,0.5,3.4,0.8c0.3,0.1,0.6,0.1,0.9,0.2c0.4,0.1,0.8,0.2,1.2,0.3c0.8,0.2,1.7,0.4,2.5,0.6
		c1.1,0.3,2.3,0.5,3.4,0.8c6.5,1.5,13.2,3.1,20.5,5.5c3.3,1.1,6.6,2.2,9.9,3.5c0.6,0.2,1.3,0.5,2,0.8c0.2,0.1,0.4,0.1,0.5,0.2
		c0.1,0.1,0.3,0.1,0.4,0.2c0.3,0.1,0.5,0.2,0.8,0.3c0.2,0.1,0.4,0.2,0.6,0.3c0.2,0.1,0.5,0.2,0.7,0.3c0.2,0.1,0.3,0.2,0.5,0.2
		c0.1,0,0.2,0.1,0.3,0.1c0.2,0.1,0.3,0.2,0.5,0.2c0.3,0.2,0.7,0.3,1,0.5c0.1,0.1,0.3,0.1,0.4,0.2c0.7,0.4,1.4,0.7,2.1,1.1
		c0.4,0.2,0.7,0.4,1.1,0.6c0.2,0.1,0.4,0.2,0.6,0.4c0.2,0.1,0.4,0.2,0.6,0.3c0.2,0.1,0.4,0.2,0.6,0.4c0.5,0.3,1,0.6,1.6,0.9
		c0.2,0.1,0.3,0.2,0.5,0.3c0.2,0.1,0.4,0.2,0.6,0.4c0.4,0.2,0.8,0.5,1.1,0.7c1.2,0.7,2.3,1.5,3.5,2.3v0l-0.9,15.5h-56.6h-5.8h-0.9
		h-23.7h0h0l-0.8-13.5l-1-17.1L370.4,187.5z M606.4,144.7v0.8c1.9,10.2,3,12.4,18.9,22.9c7.8,5.1,7.5,18.3,5.9,28.5
		c-6.7-16.7-17.8-30.7-32.6-42c0-1.3,0.3-3,0.3-4.3c0-6.5-1.3-12.7-3.5-18.6C604.5,133.6,605.3,138.5,606.4,144.7z M585.9,90.5
		l13.2,9.7l-12.7,17.2c-3.5-4-7.8-7.8-12.7-10.5L585.9,90.5z M533.1,109.4c0.2-0.1,0.5-0.2,0.7-0.3c4.5-1.6,9.4-2.4,14.4-2.4
		c6.3,0,12.4,1.3,17.8,3.7c0.3,0.4,0.7,0.7,1.3,0.9c6.5,3.2,12.1,7.8,16.4,13.7c0.2,0.3,0.5,0.6,0.8,0.8c4.8,7,7.6,15.4,7.6,24.5
		c-24.8-16.2-54.1-22.1-74.1-22.1c-2.4,0-5.1,0-7.7,0.3C515.4,119.8,523.4,112.9,533.1,109.4z M504.6,108c9.4-7.2,15.8-6.5,20.7-2.8
		c-10.1,5-18.3,13.4-23.2,24c-6.4,0.8-13.1,2.1-19.5,4l-3.5-8.9C485.7,122,493.8,116.4,504.6,108z M481.1,140.6
		c0.1,0,0.3-0.1,0.4-0.2c14.2-4.2,27.4-5.8,36.4-5.8h0c0.3,0,0.5,0,0.8,0c23.2,0.2,71.3,10.2,96.9,47.4c5.7,8.5,10,17.8,12.8,28
		c0.1,0.2,0.2,0.5,0.4,0.7c2.1,8,3.4,16.8,3.7,26.5H467.2l1-17.9v0l2.7-46.6c0,0,0,0,0,0c0.1-0.5,0.1-0.9,0.1-1.4l0,0c0,0,0,0,0,0
		l1.6-27.9c0.6-0.2,1.2-0.4,1.8-0.6C476.6,142,478.9,141.3,481.1,140.6z M476,135.2c-1,0.3-2,0.6-3,1l0.4-7.6L476,135.2z M467.3,113
		l-1.5,26l-0.4,7.4l-1.1,19c-2-1.4-4-2.7-6-3.8c-0.2-0.1-0.4-0.2-0.5-0.3c-1.1-0.7-2.3-1.3-3.4-1.9c-0.2-0.1-0.4-0.2-0.5-0.3
		c-0.5-0.2-0.9-0.5-1.4-0.7c-0.2-0.1-0.4-0.2-0.5-0.3c-0.2-0.1-0.3-0.2-0.5-0.2c-0.2-0.1-0.3-0.2-0.5-0.3c-0.1-0.1-0.2-0.1-0.3-0.2
		c-0.2-0.1-0.4-0.2-0.6-0.3c-0.2-0.1-0.5-0.2-0.7-0.3c-0.4-0.2-0.9-0.4-1.3-0.6c-0.1,0-0.1-0.1-0.2-0.1h0c-0.2-0.1-0.4-0.2-0.6-0.3
		c-0.5-0.2-0.9-0.4-1.4-0.6c-1.8-0.7-3.6-1.4-5.4-2.1c-2.4-0.9-4.8-1.7-7.4-2.5c-0.4-0.1-0.9-0.3-1.3-0.4c-2.8-0.9-5.7-1.7-8.8-2.5
		c-1-0.3-1.9-0.5-2.9-0.8c-4.5-1.1-8.8-2.1-13-3.1c-0.5-0.1-1-0.2-1.5-0.3c-0.8-0.2-1.6-0.4-2.4-0.5c-0.5-0.1-0.9-0.2-1.3-0.3
		c-1.2-0.3-2.4-0.6-3.6-0.9c-0.2,0-0.4-0.1-0.6-0.1c-1.8-0.5-3.6-0.9-5.4-1.4c-0.4-0.1-0.8-0.2-1.3-0.4c-0.2-0.1-0.5-0.1-0.7-0.2
		c-0.2-0.1-0.4-0.1-0.5-0.2c-0.1,0-0.2,0-0.3-0.1c-0.6-0.2-1.2-0.4-1.9-0.6c-1.7-0.6-3.4-1.1-5-1.8c-0.2-0.1-0.4-0.2-0.6-0.2
		c-0.2-0.1-0.4-0.2-0.6-0.2c-1.1-0.5-2.2-0.9-3.3-1.5c-0.1-0.1-0.3-0.1-0.4-0.2c-0.1-0.1-0.2-0.1-0.4-0.2c-0.2-0.1-0.4-0.2-0.6-0.3
		c0,0,0,0,0,0c-0.1-0.1-0.3-0.1-0.4-0.2c-0.6-0.3-1.2-0.7-1.9-1c-0.1-0.1-0.3-0.2-0.4-0.3c-0.4-0.2-0.8-0.5-1.1-0.7
		c-0.2-0.1-0.3-0.2-0.5-0.3c-0.5-0.3-1.1-0.7-1.6-1.1c-0.2-0.1-0.3-0.2-0.5-0.4c-1-0.7-2-1.5-3-2.4l-1.7-30.2h54.7h16.2h7.6h17.7
		h6.8h0l0,0.1L467.3,113z M401.1,29c-0.2-1.2-1.1-2.2-2.2-2.6l-41.7-16.2l0.8-2.1l44.6,17.3l7.1,35.6h-2.3L401.1,29z M371.7,68h32.8
		h9.4h35.2h7h5.5l0.8,7.4h-3.2h-6.7h-3.9h-18.4h-13.4c0,0,0,0,0,0h-9.4c0,0,0,0,0,0H371L371.7,68z M358.2,82.8h58.7h13.3h7.6h17.7
		h6.7h13l1,7.4h-11.1h-6.7h-17.7h-7.6h-13.3h-62.6L358.2,82.8z M342.7,157.3c1.3-0.3,2.6-0.5,4-0.7c1.4-0.2,2.9-0.3,4.4-0.3
		c3.7,0,7.2,0.5,10.6,1.6l0,0l0.6,9.8c-0.9,0.7-1.8,1.3-2.7,1.8c-0.6,0.3-1.1,0.5-1.7,0.8c-1.2,0.5-2.5,0.8-3.8,0.9
		c-1.5,0.2-3.1,0.1-4.6-0.2c-2.2-0.4-4.3-1.2-6.2-2.5c-1.1-0.7-2.1-1.6-3-2.7l-2.6,2.3h0v0l-2.6,2.3c4.6,5.2,10.9,7.8,17.3,7.8
		c1,0,1.9-0.1,2.9-0.2c1.3-0.2,2.6-0.4,3.8-0.8c1.2-0.4,2.3-0.8,3.4-1.4c0.1-0.1,0.2-0.1,0.3-0.2l0,0l0.3,5l1.8,31.7l-38.1-46.8
		c3.6-3.2,7.8-5.7,12.4-7.3C340.3,157.9,341.5,157.5,342.7,157.3z M326.2,142.6l8.2,10c-4.5,1.9-8.6,4.4-12.2,7.6l-0.1-0.1
		C323.2,157.3,325.6,150.6,326.2,142.6z M266.1,118.1l0.3-0.2c1.6-1.1,2.9-2.3,4.1-3.6c4.2-4.1,7.5-7.4,20.2,0.2
		c7.2,4.2,11.6,3.4,14.8,2.8c1.7-0.3,2.9-0.6,4.7,0.7c1.2,0.9,2.7,2.5,4.7,5.3c0.2,0.3,0.4,0.5,0.5,0.8c0,0,0,0,0,0c0,0,0,0,0,0
		c2,3,3.1,6.2,3.6,9.6c0.3,1.7,0.4,3.4,0.4,5.2c0,5.7-1.3,11.2-2.4,14.8l-18.3-22.5l-2.3-2.8l-2.3-2.8l-1.7-2.1
		c-2.9-3.6-7.3-5.7-12-5.7h0c-4.7,0-9,2.1-12,5.7l-24.8,30.5C242.7,133.7,260,122.1,266.1,118.1z M244.1,159L244.1,159
		C244.1,159,244.1,159,244.1,159L244.1,159C244.1,159,244.1,159,244.1,159z M242.9,166.1l0.5-0.6l1.1-1.4l1.3-1.6l2.9-3.6l25-30.9
		c1.6-2,4-3.1,6.5-3.1h0c1.3,0,2.5,0.3,3.6,0.8c1.1,0.5,2.1,1.3,2.9,2.3l2.7,3.3l2.3,2.8l2.3,2.8l16.2,19.8l2.8,3.4l2.8,3.4l1.5,1.8
		l2.2,2.8l2.3,2.8l42.2,51.8c0.6,0.8,1.1,1.7,1.5,2.6c0.2,0.5,0.3,1,0.4,1.5c0.2,1,0.1,2-0.1,3.1c-0.1,0.3-0.2,0.6-0.3,0.9
		c-0.1,0.3-0.2,0.6-0.4,0.9c-0.9,1.9-2.4,3.4-4.2,4.1c0,0,0,0,0,0h0c0,0,0,0,0,0c-1,0.4-2.2,0.7-3.4,0.7h-0.3
		c-2,0.3-4.1,0.4-6.2,0.4c0,0,0,0,0,0c2.1,0,4.2-0.2,6.2-0.4h-12.4h0H205.1h-1.6c-2.3,0-4.4-0.9-5.9-2.4c-0.7-0.7-1.3-1.5-1.7-2.4
		c-1.4-3-1-6.4,1.1-8.9l32.4-39.9l7.2-8.9L242.9,166.1z M215.4,147.8l8.3-4.8c1.1,4.1,1.2,8.5,0,12.7c-0.9,3.3-2.4,6.3-4.5,8.8h-33
		l5.2-3c2.6,1.9,5.8,3,9,3c2.6,0,5.1-0.6,7.5-2C213.3,159.5,216,153.6,215.4,147.8z M209.3,151.4c-0.5,2.4-2,4.6-4.3,6
		c-1.4,0.8-2.9,1.2-4.5,1.2c-1,0-1.9-0.2-2.8-0.5L209.3,151.4z M165.5,130.5c0.6,0,1.3,0,1.9-0.1c4.8-0.6,7.6-3.2,9.7-5.1
		c1.8-1.7,2.3-1.9,3.2-1.9c1.3,0,4.7,0.7,11.8,5.5c4.1,2.7,4.8,4.5,4.9,5c0.2,1-0.6,2.2-1.7,3.8c-1.2,1.7-2.9,4.4-1.8,7.7
		c0.7,2,2.2,3.5,4.2,4.2c0.6,0.2,1.2,0.3,1.8,0.5l-19.8,11.4c-2-3.4-5.2-6.1-8.9-7.6c3.6-9.5,6.2-17.9,4.8-20.2
		c-0.8-1.4-2-1.9-3.4-1.9c-3.4,0-8.2,2.9-13.5,2.9c-1.6,0-3.3-0.3-4.9-1c-0.3-0.1-0.5-0.2-0.7-0.3c-0.5-3.6-0.7-6.3-0.9-8.2
		C155.6,127.6,160,130.5,165.5,130.5z M174.3,164.6h-20.5c2.1-3.6,6-6,10.4-6c4.4,0,8.2,2.3,10.3,5.8L174.3,164.6
		C174.3,164.6,174.3,164.6,174.3,164.6z M97.9,147.1c0.2-0.9,0.5-1.2,0.9-1.4c0.5-0.2,1.6-0.7,3.9-0.7c2.8,0,5.9,0.6,8.4,1.1
		c2,0.4,3.5,0.7,4.8,0.7c2.4,0,4.5-1.2,5.7-3.1c0.8-1.3,1.5-3.4,0.5-6.2c-0.3-0.7-0.6-1.4-1-2.2c-0.4-0.8-1.2-2.5-1.2-3.2
		c0.2-0.2,1.3-1.3,5.1-2.2c4.2-1,7.7-1.5,10.4-1.5c3.2,0,4.4,0.7,4.8,1c0.9,0.6,1.7,1.6,2.7,2.8c1.8,2.2,4.2,5.2,8.5,7
		c2.3,0.9,4.7,1.4,7.2,1.4c3.9,0,7.3-1.1,10-1.9c0.2-0.1,0.5-0.2,0.8-0.2c-0.6,2.5-1.8,6.8-4.7,14.1c-0.2,0-0.4,0-0.7,0
		c-7.9,0-14.6,5-17.1,12.1h-1.3c0.7-3.6,0.2-7.5-2-10.9c-2.8-4.6-7.8-7.1-12.8-7.1c-1.8,0-3.5,0.3-5.2,0.9c0-0.1-0.1-0.2-0.1-0.3
		c-0.9-1.4-2.7-1.9-4.1-1c-1.4,0.9-1.9,2.7-1,4.1c0.1,0.1,0.1,0.2,0.2,0.2c-3.8,3.6-5.5,8.9-4.4,14h-8
		C97.8,151.6,97.9,147.3,97.9,147.1z M139.9,163.7c-0.1,0.3-0.2,0.6-0.3,0.9h-17.1c-1.4-3.9,0.1-8.4,3.8-10.7
		c1.4-0.9,3.1-1.4,4.7-1.4h0c3.2,0,6,1.6,7.7,4.3C140,158.9,140.4,161.3,139.9,163.7z M97.9,170.6h132.2l-4.9,6H97.9V170.6z
		 M109,213.4c-6.1-9.2-9.8-19.7-10.8-30.7h2.7c0,1.7,1.4,3,3,3c1.7,0,3-1.4,3-3h6c0,1.7,1.4,3,3,3c1.7,0,3-1.4,3-3h6
		c0,1.7,1.3,3,3,3c1.7,0,3-1.4,3-3h6c0,1.7,1.4,3,3,3c1.7,0,3-1.4,3-3h6c0,1.7,1.4,3,3,3c1.7,0,3-1.4,3-3h6c0,1.7,1.3,3,3,3
		c1.7,0,3-1.4,3-3h6c0,1.7,1.4,3,3,3c1.7,0,3-1.4,3-3h6c0,1.7,1.4,3,3,3c1.7,0,3-1.4,3-3h6c0,1.7,1.3,3,3,3c1.7,0,3-1.4,3-3h6
		c0,1.7,1.4,3,3,3c1.7,0,3-1.4,3-3h4.9l-28.8,35.5c-3.8,4.7-4.5,10.9-1.9,16.4c0.4,0.8,0.9,1.6,1.4,2.4h-54.5
		C125.4,231.8,115.9,223.7,109,213.4z"/>
	<path class="st0" d="M33.4,161.9c0.7,0.7,1.6,1,2.5,1c0.9,0,1.8-0.3,2.5-1l4.5-4.5l4.5,4.5c0.7,0.7,1.6,1,2.5,1
		c0.9,0,1.8-0.3,2.5-1c1.4-1.4,1.4-3.6,0-5l-4.5-4.5l4.5-4.5c1.4-1.4,1.4-3.6,0-5c-1.4-1.4-3.6-1.4-5,0l-4.5,4.5l-4.5-4.5
		c-1.4-1.4-3.6-1.4-5,0c-1.4,1.4-1.4,3.6,0,5l4.5,4.5l-4.5,4.5C32,158.3,32,160.6,33.4,161.9z"/>
	<path class="st0" d="M660.4,158.4c0.7,0.7,1.6,1,2.5,1c0.9,0,1.8-0.3,2.5-1l4.5-4.5l4.5,4.5c0.7,0.7,1.6,1,2.5,1s1.8-0.3,2.5-1
		c1.4-1.4,1.4-3.6,0-5l-4.5-4.5l4.5-4.5c1.4-1.4,1.4-3.6,0-5c-1.4-1.4-3.6-1.4-5,0l-4.5,4.5l-4.5-4.5c-1.4-1.4-3.6-1.4-5,0
		c-1.4,1.4-1.4,3.6,0,5l4.5,4.5l-4.5,4.5C659,154.8,659,157.1,660.4,158.4z"/>
	<path class="st0" d="M256.8,73.7c0.7,0.7,1.6,1,2.5,1c0.9,0,1.8-0.3,2.5-1l4.5-4.5l4.5,4.5c0.7,0.7,1.6,1,2.5,1s1.8-0.3,2.5-1
		c1.4-1.4,1.4-3.6,0-5l-4.5-4.5l4.5-4.5c1.4-1.4,1.4-3.6,0-5c-1.4-1.4-3.6-1.4-5,0l-4.5,4.5l-4.5-4.5c-1.4-1.4-3.6-1.4-5,0
		c-1.4,1.4-1.4,3.6,0,5l4.5,4.5l-4.5,4.5C255.5,70.1,255.5,72.3,256.8,73.7z"/>
	<circle class="st0" cx="605.1" cy="203.8" r="4.7"/>
	<circle class="st0" cx="578.9" cy="174" r="4"/>
	<circle class="st0" cx="579.2" cy="223.5" r="4.7"/>
	<circle class="st0" cx="523.1" cy="175.8" r="4.7"/>
	<circle class="st0" cx="560.6" cy="202.1" r="4"/>
	<circle class="st0" cx="479.7" cy="191.9" r="4.7"/>
	<circle class="st0" cx="511.6" cy="206.3" r="4"/>
	<circle class="st0" cx="541.7" cy="216.1" r="4"/>
	<path class="st0" d="M282.4,193.5c0.6,0.4,1.3,0.6,2,0.6c0.7,0,1.4-0.2,2-0.6c0.5-0.3,11.4-8.1,11.4-18.3c0-4.2-1.8-8-4-11
		c-0.9-1.3-1.9-2.4-2.9-3.4c-1.5-1.6-2.9-2.7-3.7-3.4c-0.4-0.3-0.7-0.5-0.7-0.6c-1.2-0.8-2.8-0.8-4,0c-0.1,0.1-0.5,0.3-1,0.8
		c-0.9,0.7-2.4,2-3.9,3.6c-1,1-2,2.3-2.9,3.6h0c-2,2.9-3.5,6.4-3.5,10.3C271,185.4,281.9,193.2,282.4,193.5z M284,164.6L284,164.6
		c0.1-0.1,0.2-0.2,0.3-0.3c0.1,0.1,0.2,0.2,0.3,0.3c2.7,2.5,6.1,6.6,6.1,10.7c0,4.2-3.7,8.5-6.4,10.9c-2.7-2.5-6.4-6.7-6.4-10.9
		C278,171.1,281.4,167.1,284,164.6z"/>
	<path class="st0" d="M251.4,210.6c4.4,4.4,10.9,5.3,15.5,5.3c2.9,0,5-0.4,5.3-0.4c1.5-0.3,2.6-1.4,2.8-2.8
		c0.1-0.6,2.3-13.6-4.9-20.8c-4.7-4.7-12-5.4-16.5-5.2c-2.4,0.1-4.1,0.3-4.2,0.4c-0.3,0-0.5,0.1-0.8,0.2c-1.1,0.4-1.8,1.4-2.1,2.5
		c0,0,0,0,0,0.1c0,0.2-0.4,2.3-0.4,5.3c0,0.2,0,0.5,0,0.7C246.2,200.3,247.2,206.4,251.4,210.6z M253.2,193.6
		c3.3-0.2,8.9,0.1,12,3.2c2.9,2.9,3.4,8.4,3.2,12c-3.3,0.2-8.9-0.1-12-3.2C253.4,202.7,253,197.2,253.2,193.6z"/>
	<path class="st0" d="M294.7,211.5c0.3,1.4,1.4,2.6,2.8,2.8c0.2,0,2.2,0.4,4.9,0.4c2.8,0,6.4-0.3,9.7-1.7c1.1-0.4,2.1-1,3.1-1.7
		c0.6-0.4,1.2-0.9,1.8-1.5c0.3-0.3,0.6-0.6,0.9-1c5.6-6.8,3.7-17.9,3.7-18.4c-0.3-1.5-1.4-2.6-2.8-2.8c-0.2,0-1.7-0.3-3.9-0.4
		c-1.1,0-2.3,0-3.6,0.1c-1.2,0.1-2.4,0.3-3.6,0.5c-3,0.7-6,1.9-8.3,4.3C292.6,198.8,294.6,211,294.7,211.5z M304.2,197.1
		c0.8-0.8,1.9-1.5,3.1-1.9c1.1-0.4,2.3-0.7,3.5-0.8c1.2-0.2,2.4-0.2,3.5-0.2c0.2,0,0.4,0,0.5,0c0,1.2,0,2.7-0.2,4.1v0
		c-0.3,2.2-1,4.4-2.3,6c-0.1,0.2-0.3,0.3-0.4,0.5c-0.7,0.7-1.6,1.3-2.6,1.7c-2.5,1.1-5.7,1.3-8,1.2
		C301.2,204.5,301.7,199.6,304.2,197.1z"/>
</g>
</svg>
