<?xml version="1.0" encoding="utf-8"?>
<!-- Generator: Adobe Illustrator 21.1.0, SVG Export Plug-In . SVG Version: 6.00 Build 0)  -->
<svg version="1.1" id="Layer_1" xmlns="http://www.w3.org/2000/svg" xmlns:xlink="http://www.w3.org/1999/xlink" x="0px" y="0px"
	 viewBox="0 0 453 68" style="enable-background:new 0 0 453 68;" xml:space="preserve">
<style type="text/css">
	.st0{fill:#161616;}
</style>
<g>
	<g>
		<path class="st0" d="M322.9,1.2c-0.4,0-0.7,0.3-0.7,0.7v13.2v13.6v14v23.7c0,0.4,0.3,0.7,0.7,0.7h12.5c0.4,0,0.7-0.3,0.7-0.7V41.2
			h11.2c0.4,0,0.7-0.3,0.7-0.7V27.9c0-0.4-0.3-0.7-0.7-0.7h-11.2v-12h18.2c0.4,0,0.7-0.3,0.7-0.7V1.9c0-0.4-0.3-0.7-0.7-0.7h-18.2
			H322.9z"/>
		<path class="st0" d="M423,1.9c0-0.4-0.3-0.7-0.7-0.7H411h-14h-11.2c-0.4,0-0.7,0.3-0.7,0.7v12.5c0,0.4,0.3,0.7,0.7,0.7H397v51.2
			c0,0.4,0.3,0.7,0.7,0.7h12.5c0.4,0,0.7-0.3,0.7-0.7V15.2h11.2c0.4,0,0.7-0.3,0.7-0.7V1.9z"/>
		<path class="st0" d="M363.8,67.2h12.5c0.4,0,0.7-0.3,0.7-0.7V1.9c0-0.4-0.3-0.7-0.7-0.7h-12.5c-0.4,0-0.7,0.3-0.7,0.7v64.5
			C363.1,66.8,363.4,67.2,363.8,67.2z"/>
		<path class="st0" d="M56.8,0.3c-10.5,0-19,8.5-19,19h0v29.8h0c0,10.5,8.5,19,19,19s19-8.5,19-19h0V19.3h0
			C75.8,8.8,67.2,0.3,56.8,0.3z M61.8,49.1c0,2.8-2.2,5-5,5s-5-2.2-5-5h0V19.3h0c0-2.8,2.2-5,5-5s5,2.2,5,5h0L61.8,49.1L61.8,49.1z"
			/>
		<path class="st0" d="M101.7,0.3c-10.5,0-19,8.5-19,19h0v29.8h0c0,10.5,8.5,19,19,19s19-8.5,19-19h0V19.3h0
			C120.7,8.8,112.2,0.3,101.7,0.3z M106.7,49.1c0,2.8-2.2,5-5,5s-5-2.2-5-5h0V19.3h0c0-2.8,2.2-5,5-5s5,2.2,5,5h0L106.7,49.1
			L106.7,49.1z"/>
		<path class="st0" d="M0.5,1.2c-0.4,0-0.7,0.3-0.7,0.7v13.2v13.6v14v23.7c0,0.4,0.3,0.7,0.7,0.7H13c0.4,0,0.7-0.3,0.7-0.7V41.2H25
			c0.4,0,0.7-0.3,0.7-0.7V27.9c0-0.4-0.3-0.7-0.7-0.7H13.8v-12H32c0.4,0,0.7-0.3,0.7-0.7V1.9c0-0.4-0.3-0.7-0.7-0.7H13.8H0.5z"/>
		<path class="st0" d="M276.6,22.7l-9.8-21.1c-0.1-0.3-0.4-0.4-0.7-0.4h-12.3c-0.5,0-0.9,0.6-0.7,1.1l16.5,35.5v28.7
			c0,0.4,0.3,0.7,0.7,0.7h12.5c0.4,0,0.7-0.3,0.7-0.7V37.7l16.5-35.5c0.2-0.5-0.1-1.1-0.7-1.1h-12.3c-0.3,0-0.6,0.2-0.7,0.4
			L276.6,22.7z"/>
		<path class="st0" d="M173.4,1.2c-0.4,0-0.7,0.3-0.7,0.7v13.2v13.6v14v10.4v13.2c0,0.4,0.3,0.7,0.7,0.7h13.2h18.2
			c0.4,0,0.7-0.3,0.7-0.7V53.9c0-0.4-0.3-0.7-0.7-0.7h-18.2v-12h11.2c0.4,0,0.7-0.3,0.7-0.7V27.9c0-0.4-0.3-0.7-0.7-0.7h-11.2v-12
			h18.2c0.4,0,0.7-0.3,0.7-0.7V1.9c0-0.4-0.3-0.7-0.7-0.7h-18.2H173.4z"/>
		<path class="st0" d="M146.3,1.2h-4.6h-13.2c-0.4,0-0.7,0.3-0.7,0.7v13.2v38v13.2c0,0.4,0.3,0.7,0.7,0.7h13.2h3.2
			c11.5,0,20.8-8.7,20.8-19.4V22C165.7,10.5,157,1.2,146.3,1.2z M151.7,47.7c0,2.9-3.1,5.4-6.8,5.4h-3.2v-38h4.6
			c2.9,0,5.4,3.1,5.4,6.8V47.7z"/>
		<path class="st0" d="M251.6,22c0-11.4-8.6-20.7-19.3-20.8v0h-5.6h-13.2c-0.4,0-0.7,0.3-0.7,0.7v13.2v13.6v14v23.7
			c0,0.4,0.3,0.7,0.7,0.7h12.5c0.4,0,0.7-0.3,0.7-0.7V42.7h4l5.9,23.8c0.1,0.3,0.4,0.6,0.7,0.6h12.4c0.5,0,0.8-0.5,0.7-0.9
			l-6.8-27.5C248.4,34.9,251.6,28.8,251.6,22z M226.7,15.2h5.5v0c2.9,0,5.4,3.1,5.4,6.8s-2.5,6.8-5.4,6.8v0h-5.5V15.2z"/>
	</g>
	<g>
		<polygon class="st0" points="448.8,10.7 448.8,10.7 448.8,10.7 		"/>
		<polygon class="st0" points="453,1.2 453,10.7 450.9,10.7 450.9,4.4 448.8,10.7 448.8,10.7 446.7,10.7 446.7,10.7 444.6,4.4 
			444.6,10.7 442.5,10.7 442.5,1.2 445.7,1.2 447.8,7.5 449.9,1.2 		"/>
		<polygon class="st0" points="441.4,1.2 441.4,3.3 438.3,3.3 438.3,10.7 436.2,10.7 436.2,3.3 433,3.3 433,1.2 		"/>
		<polygon class="st0" points="446.7,10.7 446.7,10.7 446.7,10.7 		"/>
	</g>
</g>
</svg>
