<?xml version="1.0" encoding="utf-8"?>
<!-- Generator: Adobe Illustrator 21.1.0, SVG Export Plug-In . SVG Version: 6.00 Build 0)  -->
<svg version="1.1" id="Layer_1" xmlns="http://www.w3.org/2000/svg" xmlns:xlink="http://www.w3.org/1999/xlink" x="0px" y="0px"
	 viewBox="0 0 294 294" style="enable-background:new 0 0 294 294;" xml:space="preserve">
<style type="text/css">
	.st0{fill:#393240;}
</style>
<path class="st0" d="M267,162.7c-0.3-15-3.1-28.8-3.2-29.4c-0.2-0.8-0.6-1.4-1.3-1.7c-0.7-0.3-1.5-0.4-2.2,0c-0.3,0.1-3,1.4-6.6,3.2
	c1.1-11.1,0.5-35.4,0.3-40.9c0-0.7-0.3-1.3-0.8-1.8c-0.5-0.5-1.2-0.7-1.9-0.6c-0.1,0-8.3,0.8-20.5,0.1c-5.7-0.3-13.7,0.4-21.8,2.4
	c-7.8-6-35.6-25.4-67.9-22.7c-34.2,2.9-55.7,12.2-69.7,30.1c-11.1,14.2-14.6,27.4-15.3,30.8c-10.6-1.6-20.1-2.7-20.9-2.8
	c-1.2-0.1-2.4,0.6-2.7,1.8c-0.3,1.2-8.1,29-4.5,58.7c4.6,38.1,27.6,67.3,46.9,78.3c24.3,13.8,57,15.9,74.5,15.9
	c6.6,0,11-0.3,12.1-0.4h0c0.5,0,12.1-0.3,20.3-1.7c9.1-1.6,26.4-5.7,40.4-14.7c8.9-5.7,15.8-13.1,21.2-20.9
	c5.4-7.8,9.4-15.9,12.5-23.2C264,204.8,267.3,179.6,267,162.7z M211.7,98.4c7-1.6,13.8-2.2,18.7-1.9c8.6,0.5,15.2,0.3,18.6,0.1
	c0.5,18.4,0.3,38-0.9,41c-5.7,2.9-11.9,6.4-15.3,8.9c-5.8,4.3-21.3,14.4-38.5,23c0,0,0,0-0.1,0c4.9-5,9.2-10.3,12.6-15.8
	c15.1-24.2,18.3-37.4,18.5-38c0.3-1.3-0.5-2.7-1.9-3c-1.4-0.3-2.7,0.5-3,1.9c0,0.1-3.1,13-17.8,36.4c-5.9,9.4-14,18-24.2,25.6
	c0,0-0.1,0-0.1,0c-0.2,0.1-0.4,0.1-0.5,0.2c-4.3,1.7-8.7,3.1-12.9,4.2c-11.8,3.1-19.3,2.7-22,2.4c-4.9-8.3-9.9-15-13.9-19.7
	c6.8-2.2,21.1-7.5,27.8-15.4c3.2-3.7,6.4-8.3,9.9-13.2c2.8-3.9,5.7-8,8.8-12.1c3.5-4.5,7.2-8.9,11.3-12.8
	c5.3-5.1,13.1-8.7,20.9-10.9C209.1,99,210.4,98.7,211.7,98.4z M124.7,140.5c-1.5-4.2-4.6-7.6-7.6-10.8c-4.3-4.6-8.4-9-8.7-15.9
	c-0.1-1.2,0-2.4,0.1-3.6c0,0,0,0,0,0c8.4-3.2,28.3-9.2,38-4.9c6.1,2.7,6,6.4,5.9,10.3c-0.1,2.1-0.1,4,0.8,5.8
	c1.9,3.4,4.6,5.5,7.9,6.2c0.8,0.2,1.6,0.2,2.4,0.2c0.8,0,1.7-0.1,2.5-0.2c-1.1,1.6-2.3,3.2-3.4,4.7c-3.4,4.8-6.6,9.3-9.7,12.9
	c-6.6,7.8-22.7,13.1-27.6,14.6c-1.6-1.7-3.3-3.3-5.2-4.8C123.7,152.1,127,147.2,124.7,140.5z M183.4,106.7c-4.1,4-7.9,8.4-11.5,13
	c0,0,0,0,0,0c-1.7,1.2-6.2,3.7-9.8,2.9c-1.9-0.4-3.4-1.6-4.5-3.8c-0.3-0.5-0.2-1.9-0.2-3.2c0.1-4.1,0.4-10.9-8.9-15
	c-10.8-4.8-29.4,0.5-38.2,3.5c0,0,0,0,0,0c1.9-4,5.3-7.7,10.1-11.1c7.2-5.1,49.8-19.1,82.4,2.6C195.4,98.2,188.5,101.8,183.4,106.7z
	 M75.3,104.4c13.2-16.9,33-25.3,66.1-28.2c10-0.9,19.6,0.6,28.3,3.2c-5.7-0.5-11-0.5-15.7-0.1c-17.1,1.2-32,6.6-36.6,9.8
	c-7.6,5.4-12.2,11.7-13.6,18.8c0,0,0,0,0,0c-0.4,2-0.6,4-0.5,6.1c0.4,8.8,5.5,14.3,10,19.1c2.8,3,5.5,5.8,6.6,9
	c0.3,1,0.5,1.9,0.5,2.7c0,3.6-2.7,5.8-4.4,6.9c-9.4-6.5-19.1-9.5-27-11.9c-2.5-0.8-4.9-1.5-6.9-2.3c-4.5-1.6-12.8-3.3-21.2-4.6
	C61.8,129.5,65.2,117.3,75.3,104.4z M77.4,263.8c-18.3-10.4-40-38.2-44.5-74.6c-2.9-24.2,2.1-47.8,3.8-54.7
	c7.8,0.9,34.7,4.4,43.7,7.7c2.2,0.8,4.6,1.5,7.2,2.3c7.9,2.4,17.7,5.5,26.8,12.1c3.1,2.2,5.9,4.8,8.4,7.5c0,0,0,0,0,0
	c4.3,4.7,10.6,12.4,16.5,22.8c5.2,9.1,9,18.3,11.3,27.4c4.6,17.7,9.5,39.8,9.1,58.6c0,0.3,0,0.7,0,1c0,0.4,0,0.8,0,1.3
	c0,0.5,0,0.9-0.1,1.4c0,0.3,0,0.5,0,0.7c0,0,0,0,0,0c0,0,0,0,0,0c-11.8-5.4-54.2-26.3-75.7-59.8c-16.6-25.9-22.9-47.8-23-48
	c-0.4-1.3-1.8-2.1-3.1-1.7c-1.3,0.4-2.1,1.8-1.7,3.1c0.3,0.9,6.5,22.8,23.6,49.4c19.5,30.4,54.4,50.3,71.4,58.7
	C134.2,279,101.1,277.2,77.4,263.8z M251.4,221.2c-6.4,14.7-15.2,31.2-31.8,41.8c-13.3,8.5-29.9,12.4-38.6,14
	c-5.4,1-12.7,1.4-16.7,1.5c0.1-0.8,0.1-1.6,0.1-2.3c0-0.7,0.1-1.4,0.1-2.1c0-0.4,0-0.8,0-1.2c0.2-8.6-0.7-17.8-2.2-27
	c2,0,13.8-0.6,28.7-6.9c14.8-6.3,35.5-19.8,50.3-48.3c0.6-1.2,0.2-2.7-1.1-3.4c-1.2-0.6-2.7-0.2-3.4,1.1
	c-27,51.7-74.2,52.5-74.9,52.5c-0.2,0-0.4,0-0.5,0.1c0,0,0,0,0,0c-1.7-9.7-4-19.3-6.2-27.8c-0.4-1.5-0.8-3.1-1.3-4.6
	c0-0.1-0.1-0.2-0.1-0.3c-0.1-0.4-0.3-0.8-0.4-1.2c-0.5-1.5-1-3.1-1.6-4.6c-0.4-1-0.8-2-1.2-3.1c-0.2-0.4-0.4-0.9-0.5-1.3
	c0-0.1-0.1-0.3-0.2-0.4c-0.2-0.5-0.4-0.9-0.6-1.4c-0.2-0.5-0.5-1-0.7-1.5c-0.2-0.5-0.5-1-0.7-1.5c-0.7-1.5-1.5-3.1-2.3-4.6
	c4.3,0.1,11.1-0.3,20.4-2.8c4.4-1.2,8.9-2.6,13.5-4.5c0.1-0.1,0.3-0.1,0.4-0.2c0.1,0,0.2-0.1,0.3-0.1c0.1,0,0.1,0,0.2-0.1
	c0.1,0,0.1-0.1,0.2-0.1c25.5-10.3,49.8-26.7,55-30.5c5-3.8,17.8-10.2,23.6-13c0.8,4.9,2.3,15,2.5,25.3c0,0.7,0,1.4,0,2.2
	C262,181.2,258.8,204.3,251.4,221.2z"/>
</svg>
