<?xml version="1.0" encoding="utf-8"?>
<!-- Generator: Adobe Illustrator 21.0.2, SVG Export Plug-In . SVG Version: 6.00 Build 0)  -->
<svg version="1.1" id="Layer_1" xmlns="http://www.w3.org/2000/svg" xmlns:xlink="http://www.w3.org/1999/xlink" x="0px" y="0px"
	 viewBox="0 0 84 84" style="enable-background:new 0 0 84 84;" xml:space="preserve">
<style type="text/css">
	.st0{fill:#222829;}
</style>
<g>
	<rect x="40" y="55" class="st0" width="21" height="2"/>
	<rect x="46" y="36" class="st0" width="2" height="2"/>
	<rect x="46" y="32" class="st0" width="2" height="2"/>
	<path class="st0" d="M68,72v-6c0-2.2-1.8-4-4-4h-3v-4H35c-1.3,0-2.4-0.5-3.1-1.3c-0.7-0.9-0.9-2-0.6-3.3l3.3-14.3
		c0.7-2.9,2.6-5.1,3.9-5.1H42v14h3v2h2v-2h2v4h2v-4h3V14h-2v-4h-8v4h-2v4c-3.3,0-6,2.7-6,6c0,0.7,0.1,1.4,0.4,2H36
		c-3.7,0-7.7,2.8-9.1,6.3C26.2,34.4,20,52.9,20,55.5V60h2v-4.5c0-1.7,4.2-14.7,6.8-22.5c1-2.7,4.3-5,7.2-5h1.5c1.1,1.2,2.7,2,4.5,2
		v2h-3.5c-2.4,0-5,2.9-5.8,6.6l-3.3,14.3c-0.4,1.9-0.1,3.6,1,5c1.1,1.4,2.7,2.1,4.6,2.1h24v2H20c-2.2,0-4,1.8-4,4v6h-6v2h64v-2H68z
		 M46,12h4v2h-4V12z M38,24c0-2.2,1.8-4,4-4s4,1.8,4,4s-1.8,4-4,4S38,26.2,38,24z M48,24c0-2.6-1.7-4.8-4-5.6V16h8v24h-6v2h6v4h-8
		V29.6C46.3,28.8,48,26.6,48,24z M18,66c0-1.1,0.9-2,2-2h44c1.1,0,2,0.9,2,2v6h-8v-4H26v4h-8V66z M56,72H28v-2h28V72z"/>
</g>
</svg>
