<?xml version="1.0" encoding="utf-8"?>
<!-- Generator: Adobe Illustrator 21.0.2, SVG Export Plug-In . SVG Version: 6.00 Build 0)  -->
<svg version="1.1" id="Layer_1" xmlns="http://www.w3.org/2000/svg" xmlns:xlink="http://www.w3.org/1999/xlink" x="0px" y="0px"
	 viewBox="0 0 94 80" style="enable-background:new 0 0 94 80;" xml:space="preserve">
<style type="text/css">
	.st0{fill:#222829;}
</style>
<g>
	<rect x="7.8" y="18.2" class="st0" width="2" height="11.4"/>
	<path class="st0" d="M12.4,29.6c0,1.3-1.1,2.4-2.4,2.4H7.7c-1.3,0-2.4-1.1-2.4-2.4V18.2h-2v11.4c0,1.7,0.9,3.1,2.3,3.8v27
		c0,1.8,1.5,3.3,3.3,3.3s3.3-1.5,3.3-3.3v-27c1.4-0.8,2.3-2.2,2.3-3.8V18.2h-2V29.6z M10.1,60.4c0,0.7-0.6,1.3-1.3,1.3
		s-1.3-0.6-1.3-1.3V34c0,0,0.1,0,0.1,0H10c0,0,0.1,0,0.1,0V60.4z"/>
	<path class="st0" d="M89.8,18.3c-5,0-9,4-9,9v12.6c0,0.3,0.1,0.5,0.3,0.7l3.1,3.1v16.7c0,1.8,1.5,3.3,3.3,3.3s3.3-1.5,3.3-3.3V19.3
		C90.8,18.8,90.3,18.3,89.8,18.3z M88.8,60.4c0,0.7-0.6,1.3-1.3,1.3s-1.3-0.6-1.3-1.3V43.3c0-0.3-0.1-0.5-0.3-0.7l-3.1-3.1v-2h2.4
		v-2h-2.4v-2.6h2.4v-2h-2.4v-2.6h2.4v-2h-2.3c0.4-3.1,2.9-5.5,5.9-5.9V60.4z"/>
	<path class="st0" d="M47,10c-17.1,0-31,13.9-31,31s13.9,31,31,31s31-13.9,31-31S64.1,10,47,10z M47,70.1c-16,0-29-13-29-29
		c0-16,13-29,29-29c16,0,29,13,29,29C76,57,63,70.1,47,70.1z"/>
	<path class="st0" d="M47,19.4c-11.9,0-21.6,9.7-21.6,21.6c0,11.9,9.7,21.6,21.6,21.6c11.9,0,21.6-9.7,21.6-21.6
		C68.6,29.1,58.9,19.4,47,19.4z M47,60.6c-10.8,0-19.6-8.8-19.6-19.6c0-10.8,8.8-19.6,19.6-19.6c10.8,0,19.6,8.8,19.6,19.6
		C66.6,51.8,57.8,60.6,47,60.6z"/>
	<path class="st0" d="M30.7,41h2c0-7.9,6.4-14.3,14.3-14.3v-2C38,24.7,30.7,32,30.7,41z"/>
</g>
</svg>
