<?xml version="1.0" encoding="utf-8"?>
<!-- Generator: Adobe Illustrator 21.0.2, SVG Export Plug-In . SVG Version: 6.00 Build 0)  -->
<svg version="1.1" id="Layer_1" xmlns="http://www.w3.org/2000/svg" xmlns:xlink="http://www.w3.org/1999/xlink" x="0px" y="0px"
	 viewBox="0 0 94 80" style="enable-background:new 0 0 94 80;" xml:space="preserve">
<style type="text/css">
	.st0{fill:#222829;}
</style>
<g>
	<path class="st0" d="M12.9,52.6H7.3v-3.2h5.2v-6.9H7.3v-4.9h30.8v4.2c0,0.4,0.2,0.7,0.6,0.9c0.1,0.1,0.3,0.1,0.4,0.1
		c0.2,0,0.4-0.1,0.6-0.2l11.8-9.2c0.2-0.2,0.4-0.5,0.4-0.8s-0.1-0.6-0.4-0.8l-11.8-9.2c-0.3-0.2-0.7-0.3-1.1-0.1
		c-0.3,0.2-0.6,0.5-0.6,0.9v4.2H7.3V13.9h50.5v4.6v34.1H33.9v2h23.9h2h2.9v-2h-2.9V20.4h15.5l2.1,3.2H63.1v25.9h2V38.8h21.6v3.3
		h-5.2v7.2h5.2v3.2h-2.9v2h4.9v-5.2v-7.2v-4.5L76.4,18.4H59.8v-6.6H5.3v30.6v6.9v5.2h7.6V52.6z M83.4,47.3v-3.2h3.2v3.2H83.4z
		 M65.1,25.7h13.4v-0.3l7.4,11.4H65.1V25.7z M39.1,29.7c0.6,0,1-0.4,1-1v-3.2l9.2,7.1l-9.2,7.1v-3.2c0-0.6-0.4-1-1-1H7.3v-5.9H39.1z
		 M10.6,44.4v2.9H7.3v-2.9H10.6z"/>
	<path class="st0" d="M23.4,57.8c-1.3,0-2.3,1-2.3,2.3s1,2.3,2.3,2.3s2.3-1,2.3-2.3S24.6,57.8,23.4,57.8z M23.4,60.4
		c-0.2,0-0.3-0.1-0.3-0.3s0.1-0.3,0.3-0.3s0.3,0.1,0.3,0.3S23.5,60.4,23.4,60.4z"/>
	<path class="st0" d="M73.2,57.8c-1.3,0-2.3,1-2.3,2.3s1,2.3,2.3,2.3s2.3-1,2.3-2.3S74.5,57.8,73.2,57.8z M73.2,60.4
		c-0.2,0-0.3-0.1-0.3-0.3s0.1-0.3,0.3-0.3s0.3,0.1,0.3,0.3S73.4,60.4,73.2,60.4z"/>
	<rect x="68" y="42.1" class="st0" width="2.6" height="2"/>
	<path class="st0" d="M78.9,67c2-1.6,3.3-4.1,3.3-6.9c0-4.9-4-8.9-8.9-8.9s-8.9,4-8.9,8.9c0,2.8,1.3,5.2,3.3,6.9H29
		c2-1.6,3.3-4.1,3.3-6.9c0-4.9-4-8.9-8.9-8.9s-8.9,4-8.9,8.9c0,2.8,1.3,5.2,3.3,6.9H5v2h84v-2H78.9z M16.5,60.1
		c0-3.8,3.1-6.9,6.9-6.9s6.9,3.1,6.9,6.9S27.2,67,23.4,67S16.5,63.9,16.5,60.1z M66.4,60.1c0-3.8,3.1-6.9,6.9-6.9s6.9,3.1,6.9,6.9
		S77,67,73.2,67S66.4,63.9,66.4,60.1z"/>
</g>
</svg>
