<?xml version="1.0" encoding="UTF-8"?>
<svg width="84px" height="84px" viewBox="0 0 84 84" version="1.1" xmlns="http://www.w3.org/2000/svg" xmlns:xlink="http://www.w3.org/1999/xlink">
    <!-- Generator: Sketch 41.2 (35397) - http://www.bohemiancoding.com/sketch -->
    <title>Icon - Conversion rate</title>
    <desc>Created with Sketch.</desc>
    <defs>
        <rect id="path-1" x="0" y="353" width="989" height="438"></rect>
        <mask id="mask-2" maskContentUnits="userSpaceOnUse" maskUnits="objectBoundingBox" x="0" y="0" width="989" height="438" fill="white">
            <use xlink:href="#path-1"></use>
        </mask>
    </defs>
    <g id="Symbols" stroke="none" stroke-width="1" fill="none" fill-rule="evenodd">
        <g id="Icon---Conversion-rate" stroke-width="2" stroke="#222829" stroke-linejoin="round">
            <g id="Page-1" transform="translate(10.000000, 15.000000)">
                <polyline id="Stroke-1" points="59 32 63 32 63 58 9 58 9 54"></polyline>
                <polyline id="Stroke-3" points="55 28 59 28 59 54 5 54 5 50"></polyline>
                <polygon id="Stroke-4" points="1 50 55 50 55 24 1 24"></polygon>
                <polygon id="Stroke-6" points="48 46 8 46 5 43 5 31 8 28 48 28 51 31 51 43"></polygon>
                <path d="M18,37 L16,37" id="Stroke-7"></path>
                <path d="M14,37 L12,37" id="Stroke-8"></path>
                <path d="M44,37 L42,37" id="Stroke-9"></path>
                <path d="M40,37 L38,37" id="Stroke-10"></path>
                <g id="Group-25">
                    <path d="M33,37 C33,39.762 30.762,42 28,42 C25.238,42 23,39.762 23,37 C23,34.238 25.238,32 28,32 C30.762,32 33,34.238 33,37 Z" id="Stroke-11"></path>
                    <polyline id="Stroke-13" points="27 16 23 20 19 16"></polyline>
                    <polyline id="Stroke-15" points="45 16 41 20 37 16"></polyline>
                    <polyline id="Stroke-17" points="36 4 32 0 28 4"></polyline>
                    <polyline id="Stroke-19" points="23 20 23 9 0 9"></polyline>
                    <polyline id="Stroke-21" points="41 20 41 9 64 9"></polyline>
                    <path d="M32,21 L32,0" id="Stroke-23"></path>
                </g>
            </g>
        </g>
        <g id="Organize" transform="translate(-424.000000, -488.000000)" stroke="#1B1D1F" stroke-width="8">
            <use id="Rectangle-Copy" mask="url(#mask-2)" xlink:href="#path-1"></use>
        </g>
    </g>
</svg>