<?xml version="1.0" encoding="utf-8"?>
<!-- Generator: Adobe Illustrator 21.0.2, SVG Export Plug-In . SVG Version: 6.00 Build 0)  -->
<svg version="1.1" id="Layer_1" xmlns="http://www.w3.org/2000/svg" xmlns:xlink="http://www.w3.org/1999/xlink" x="0px" y="0px"
	 viewBox="0 0 114 114" style="enable-background:new 0 0 114 114;" xml:space="preserve">
<style type="text/css">
	.st0{fill:#222829;}
</style>
<g>
	<path class="st0" d="M69.5,65.9c1,0,1.8-0.8,1.8-1.8V43.5l4.1,4.1c0.2,0.2,0.5,0.4,0.8,0.5l16.5,4.5v0.9c0,1,0.8,1.8,1.8,1.8h1.8
		c1,0,1.8-0.8,1.8-1.8v-7.1c0-0.7-0.4-1.3-1-1.6l0,0l-13.9-6.9l-8.6-12c-0.4-0.8-2.7-4.4-6.9-4.4H46.3c-4.2,0-6.4,3.6-6.9,4.4
		l-8.6,12L17,44.7l0,0c-0.6,0.3-1,0.9-1,1.6v7.1c0,1,0.8,1.8,1.8,1.8h1.8c1,0,1.8-0.8,1.8-1.8v-0.9L37.9,48c0.3-0.1,0.6-0.2,0.8-0.5
		l4.1-4.1v20.6c0,1,0.8,1.8,1.8,1.8v30.3h3.6V65.9h3.6v-3.6h-5.3V35.6h-3.6v2.8l-6.3,6.3l-15.1,4.1v-2.3l11.9-5.9l9.2-12.8l0.1-0.2
		c0,0,1.4-2.6,3.8-2.6h21.4c2.4,0,3.7,2.6,3.8,2.6l9.3,13.1l11.9,5.9v2.3l-15.1-4.1l-6.3-6.3v-2.8h-3.6v26.7H55.2v3.6h10.7v44.5
		h-7.1v-41h-3.6v33.8c-19.8-1.1-35.6-20.6-35.6-44.5H16c0,25.8,17.4,46.9,39.2,48v3.6H0v3.6h73v-3.6h-3.6V65.9z"/>
	<path class="st0" d="M57,17.8c4.9,0,8.9-4,8.9-8.9S61.9,0,57,0s-8.9,4-8.9,8.9S52.1,17.8,57,17.8z M57,3.6c2.9,0,5.3,2.4,5.3,5.3
		s-2.4,5.3-5.3,5.3s-5.3-2.4-5.3-5.3S54.1,3.6,57,3.6z"/>
	<rect x="76.6" y="110.4" class="st0" width="37.4" height="3.6"/>
	<path class="st0" d="M98,58.8h-3.6c0,16.9-7.9,32.1-20.5,39.7l1.8,3C89.4,93.3,98,76.9,98,58.8z"/>
</g>
</svg>
