<?xml version="1.0" encoding="utf-8"?>
<!-- Generator: Adobe Illustrator 21.0.2, SVG Export Plug-In . SVG Version: 6.00 Build 0)  -->
<svg version="1.1" id="Layer_1" xmlns="http://www.w3.org/2000/svg" xmlns:xlink="http://www.w3.org/1999/xlink" x="0px" y="0px"
	 viewBox="0 0 114 114" style="enable-background:new 0 0 114 114;" xml:space="preserve">
<style type="text/css">
	.st0{fill:#222829;}
</style>
<g>
	<path class="st0" d="M112,98.5V79.6L94.4,17.7h-5.4L78.6,28.1H48.4c-2.8,0-5.2,2.3-5.2,5.2s2.3,5.2,5.2,5.2h38.1l8.3,41.4v13.6h3.4
		V79.6L90,38.4h3.1v-3.4H69v-3.4h11l10.3-10.3h1.4l16.8,58.7v18.7c0,2.8-2.3,5.2-5.2,5.2H10.6c-2.8,0-5.2-2.3-5.2-5.2
		c0-2.8,2.7-4.8,5.4-5.2l79.1-12l-0.5-3.4l-79,12C6.3,90.5,2,93.6,2,98.5c0,4.1,3,7.6,6.9,8.4v3.6H2v3.4h110v-3.4h-6.9V107
		C109,106.2,112,102.7,112,98.5z M58.7,31.5v3.4h-3.4v-3.4H58.7z M46.7,33.2c0-0.9,0.8-1.7,1.7-1.7h3.4v3.4h-3.4
		C47.5,34.9,46.7,34.2,46.7,33.2z M65.6,34.9h-3.4v-3.4h3.4V34.9z M87.9,107.1v3.4H26.1v-3.4H87.9z M12.3,107.1h10.3v3.4H12.3V107.1
		z M91.4,110.6v-3.4h10.3v3.4H91.4z"/>
	<rect x="81.1" y="89.9" class="st0" width="3.4" height="3.4"/>
	<rect x="74.2" y="89.9" class="st0" width="3.4" height="3.4"/>
	<rect x="87.9" y="89.9" class="st0" width="3.4" height="3.4"/>
</g>
</svg>
