<?xml version="1.0" encoding="utf-8"?>
<!-- Generator: Adobe Illustrator 21.1.0, SVG Export Plug-In . SVG Version: 6.00 Build 0)  -->
<svg version="1.1" id="Layer_1" xmlns="http://www.w3.org/2000/svg" xmlns:xlink="http://www.w3.org/1999/xlink" x="0px" y="0px"
	 viewBox="0 0 294 294" style="enable-background:new 0 0 294 294;" xml:space="preserve">
<style type="text/css">
	.st0{fill:#393240;}
</style>
<g>
	<path class="st0" d="M68.4,101.4c-1.3-0.4-2.7,0.4-3.1,1.8s0.4,2.7,1.8,3.1c4.1,1.1,11.7,6.4,11.3,18.5c0,0.6,0.2,1.2,0.6,1.7
		c2.4,2.7,7.6,9.8,5.9,17.7c0,0.1,0,0.2-0.1,0.4c0,0.5-1.4,11.5-9.7,17.2c-2,1.4-4.3,2.4-6.8,2.9c-4.1,0.9-8.9,0.6-14.3-0.9
		c-1.3-0.4-2.7,0.4-3.1,1.7c-0.4,1.3,0.4,2.7,1.7,3.1c3.8,1,7.3,1.6,10.6,1.6c2.1,0,4.1-0.2,6-0.6c3.1-0.7,6-1.9,8.6-3.7
		c9.4-6.5,11.4-17.9,11.8-20.7l0,0c2-9.4-3.4-17.6-6.4-21.3C83.5,109.3,73.7,102.8,68.4,101.4z"/>
	<path class="st0" d="M48.7,116.5C48.7,116.5,48.7,116.5,48.7,116.5c-7.1,0-12.6,2.2-16.3,6.4c-3.3,3.8-4.2,8.4-4.4,11.3
		c-6.3,6.5-3.9,16.2-1.3,21c0.4,0.8,1.3,1.3,2.2,1.3c0.4,0,0.8-0.1,1.2-0.3c1.2-0.6,1.7-2.2,1-3.4c-1.9-3.5-4-11.3,1-15.7
		c0.5-0.5,0.8-1.1,0.8-1.9c0-2.1,0.5-6.1,3.2-9.2c2.7-3.1,6.9-4.7,12.5-4.7c1.4,0,2.5-1.1,2.5-2.5C51.2,117.7,50.1,116.5,48.7,116.5
		z"/>
	<path class="st0" d="M141.2,109c-2.2-3.4-5.2-5.6-8.9-6.7c-7.6-2.2-15.3,1.9-16.1,2.4l2.5,4.3c0.3-0.1,6.5-3.6,12.2-2
		c2.7,0.8,4.8,2.5,6.4,5.2c0.3,0.5,0.7,0.8,1.2,1c2.2,0.9,12.8,6,8.3,21.3c-0.4,1.3,0.4,2.7,1.7,3.1c0.2,0.1,0.5,0.1,0.7,0.1
		c1.1,0,2.1-0.7,2.4-1.8C156,121.4,148.9,112.4,141.2,109z"/>
	<path class="st0" d="M162.9,97c-2.3-4.8-12.5-21.9-40.1-17.2c-1.3-0.3-3.4-0.6-6.1-0.8c-5-5.5-15.7-13.2-35.2-9.8
		c-2.7-0.6-10-1.7-17.9,0C55,71,44,76.6,39.7,92.8c-2,1.1-4.4,2.9-6.5,5.5c-7.2,2.5-16.1,8.4-19.9,22.5c-2.8,1.6-6.9,4.7-9.3,9.9
		c-2.4,5.1-2.6,11-0.5,17.4c-0.8,3.6-1.6,11.3,2.3,18.2c2.5,4.4,6.5,7.6,11.8,9.4c1.2,3.8,3.9,9.7,9.6,13.7
		c6.5,4.5,14.8,5.2,24.7,2.1c2,1.3,5,2.7,8.9,3.2c7.7,10.5,25.2,38.3,35.1,84.4l0.7,3.2c0.3,1.2,1.3,2,2.4,2c0.2,0,0.4,0,0.5-0.1
		l37.2-8c1.3-0.3,2.2-1.6,1.9-3l-0.7-3.1c-0.1-0.7-13.9-67.3,0.5-93.7c4.5-1.4,9-4.1,13.6-8c0.3-0.1,0.7-0.1,1.1-0.2
		c4.7-1,13.2-3.8,17.3-11.2c2.4-4.4,2.9-9.5,1.3-15.2C175.1,134.3,182,114.1,162.9,97z M133.1,270.8l0.2,0.7l-32.4,7l-0.2-0.7
		c-9.4-43.3-25.4-71-34-83.4c0.5-0.1,1-0.2,1.4-0.3c3.2-0.7,6.4-2,9.7-4c2.5,3.4,8.1,11.6,14.2,22.9c0.4,0.8,1.3,1.3,2.2,1.3
		c0.2,0,0.4,0,0.6-0.1c1.1-0.3,1.9-1.2,1.9-2.3c0.4-12.1,1.3-25.9,5.9-36.6c5,1.1,10.6,0.7,16.8-1.3c2.6,1.7,7,3.7,12.8,3.3
		C119.7,207.6,133,270.2,133.1,270.8z M82,187.3c0.8-0.6,1.6-1.2,2.4-1.9c0.3-0.1,0.6-0.1,1-0.2c2.2-0.5,6.2-1.6,10-3.9
		c-1.9,6.9-2.7,14.4-3.2,21.7C87.8,195.5,84,190.1,82,187.3z M166.8,140.1c-0.3,0.6-0.4,1.3-0.2,1.9c1.5,4.7,1.3,8.9-0.6,12.3
		c-3.1,5.7-10.1,7.9-13.9,8.8c-0.6,0.1-1.1,0.2-1.5,0.3c-0.5,0.1-0.9,0.3-1.2,0.6c-4,3.5-8,5.9-11.8,7.3c-0.8-0.2-1.6,0.1-2.2,0.7
		c-0.2,0-0.3,0.1-0.5,0.1c-6.7,1.4-11.3-1-13.4-2.7c-0.7-0.5-1.5-0.6-2.3-0.4c-6.8,2.4-12.7,2.7-17.5,1c-1.2-0.4-2.5,0.1-3.1,1.2
		c-3.1,6.2-11,8.5-14.2,9.2c-0.6,0.1-1.1,0.2-1.5,0.3c-0.5,0.1-0.9,0.3-1.2,0.6c-5,4.3-9.9,7.1-14.5,8.1c-6.7,1.4-11.3-1-13.4-2.6
		c-0.4-0.3-1-0.5-1.5-0.5c-0.3,0-0.6,0-0.8,0.1c-8.8,3.1-16.1,2.7-21.5-1.1c-5.1-3.5-7.2-9.1-8-12.2c-0.2-0.8-0.9-1.5-1.7-1.7
		c-4.7-1.4-8.1-4-10.2-7.6c-3.4-5.9-2.1-13.1-1.6-15.2c0.1-0.5,0.1-0.9-0.1-1.4c-1.8-5.4-1.8-10.2,0.1-14.3c2.1-4.5,6-7,8.1-8.1
		c0.6-0.3,1.1-0.9,1.3-1.6c2.5-10.5,8.4-17.3,17.6-20.2c0.5-0.2,0.9-0.5,1.2-0.9c2.1-2.8,4.9-4.5,6.4-5.2c0.6-0.3,1.1-0.9,1.3-1.6
		c3.5-14.5,12.9-19.4,20.3-21c7.4-1.6,14.3-0.3,16.2,0.1c0.3,0.1,0.7,0.1,1,0c17.5-3.1,26.9,3.1,31.7,8.9c0.5,0.5,1.1,0.9,1.8,0.9
		c3.2,0.1,5.6,0.6,6.8,0.9c0.3,0.1,0.7,0.1,1,0c24.8-4.5,33.3,10.1,35.3,14.7c0.1,0.3,0.4,0.6,0.6,0.9
		C177,116,169.5,134.7,166.8,140.1z"/>
	<path class="st0" d="M116.8,221.7c-1.4,0.1-2.4,1.2-2.4,2.6c0.1,2.4,0.3,4.7,0.5,6.9c0.1,1.3,1.2,2.3,2.5,2.3c0.1,0,0.1,0,0.2,0
		c1.4-0.1,2.4-1.3,2.3-2.7c-0.2-2.1-0.3-4.3-0.4-6.7C119.3,222.7,118.1,221.6,116.8,221.7z"/>
	<path class="st0" d="M122.3,177.2c-1.3-0.5-2.7,0.2-3.2,1.5c0,0.1-4.5,13.2-4.9,35.1c0,1.4,1.1,2.5,2.5,2.5c0,0,0,0,0,0
		c1.4,0,2.5-1.1,2.5-2.5c0.3-20.6,4.5-33.2,4.6-33.5C124.2,179.1,123.6,177.7,122.3,177.2z"/>
	<path class="st0" d="M290.1,142c-0.3-0.2-7.4-6-15.5-5c-1.1,0.1-2.2,0.3-3.3,0.6c1.8-4.6,2.7-10.1,2.4-15.9
		c-0.7-13.7-14.6-23.8-15.2-24.2l-1.6-1.2l-1.5,1.3c-0.5,0.5-13.3,11.9-12.6,25.7c0.3,6.6,2.1,12.7,5,17.3c0,0.1,0.1,0.1,0.1,0.2
		c-6.4-0.4-12.8,1.7-19.3,6.6c-0.5,0.2-1,0.5-1.4,1.1c0,0,0,0,0,0c-6.8,5.5-13.8,14-21.1,25.6c-0.3,0.2-0.5,0.4-0.7,0.8
		c-0.2,0.3-0.3,0.6-0.3,1c0,0,0,0,0,0.1c-21.8,35.3-27.6,99.4-27.8,102.1c-0.1,0.9,0.4,1.8,1.2,2.3c0.4,0.2,0.9,0.4,1.3,0.4
		c0.5,0,0.9-0.1,1.3-0.4c1.2-0.7,15.5-9.6,32.2-22.5c0.6-0.1,1.2-0.5,1.6-1.1c0-0.1,0.1-0.1,0.1-0.2c17-13.3,36.2-30.6,46.9-47.9
		c10.6-17.1,15.4-30.4,14.7-40.8c-0.3-5.2-2-9.7-5-13.7c0.5,0,1,0.1,1.6,0.1c1.1,0,2.3-0.1,3.4-0.2c8.1-0.9,13.7-8.1,13.9-8.4
		l1.5-1.9L290.1,142z M247.8,123c-0.5-8.8,6.3-17,9.4-20.2c3.4,2.9,11,10.3,11.5,19.1c0.3,5.7-0.6,11.1-2.7,15.2
		c-0.9,1.7-1.9,3.1-3,4.1c-0.1,0.1-0.2,0.2-0.3,0.2c-1.1,0.9-2.3,1.4-3.4,1.5c-2.5,0.1-5.1-1.7-7.3-5.1
		C249.6,134,248.1,128.8,247.8,123z M257.7,205.9c-3.7,6.1-8.6,12.2-14.1,18.1l-16.4-10.2c-1.2-0.7-2.7-0.4-3.4,0.8
		c-0.7,1.2-0.4,2.7,0.8,3.4l15.5,9.6c-8.7,8.8-18.5,17.2-27.7,24.4l-11.9-7.4c-1.2-0.7-2.7-0.4-3.4,0.8s-0.4,2.7,0.8,3.4l10.3,6.4
		c-10.7,8.1-20.1,14.5-25.3,17.9c1.8-15.9,8.7-64.8,25.8-93.5l29.6,18.3c0.4,0.3,0.9,0.4,1.3,0.4c0.8,0,1.7-0.4,2.1-1.2
		c0.7-1.2,0.4-2.7-0.8-3.4l-29.6-18.3c6.9-10.7,13-17.9,18.6-22.6l12.6,7.8c0.4,0.3,0.9,0.4,1.3,0.4c0.8,0,1.7-0.4,2.1-1.2
		c0.7-1.2,0.4-2.7-0.8-3.4l-10.9-6.8c4.5-2.9,8.6-4,12.3-4c4.7,0,8.9,1.8,12.7,4.2c8.1,5,12,10.6,12.5,18.2
		C272.2,177.3,267.7,189.7,257.7,205.9z M276,148.9c-3.1,0.4-6.1,0.1-8.3-0.6c-1.8-0.6-2.5-1.3-2.6-1.7v0c0-0.2,0.2-0.6,0.7-1.1
		c0.2-0.2,0.5-0.4,0.7-0.6c0.2-0.2,0.5-0.3,0.7-0.5c2-1.2,4.9-2.1,7.9-2.4c0.4,0,0.8-0.1,1.2-0.1c3.2,0,6.3,1.4,8.2,2.5
		C282.8,146.1,279.6,148.5,276,148.9z"/>
	<path class="st0" d="M219.4,209l-9.1-5.6c-1.2-0.7-2.7-0.4-3.4,0.8s-0.4,2.7,0.8,3.4l9.1,5.6c0.4,0.3,0.9,0.4,1.3,0.4
		c0.8,0,1.7-0.4,2.1-1.2C221,211.3,220.6,209.8,219.4,209z"/>
	<path class="st0" d="M253.8,201.6l-5.6-3.5c-1.2-0.7-2.7-0.4-3.4,0.8c-0.7,1.2-0.4,2.7,0.8,3.4l5.6,3.5c0.4,0.3,0.9,0.4,1.3,0.4
		c0.8,0,1.7-0.4,2.1-1.2C255.3,203.9,255,202.3,253.8,201.6z"/>
</g>
</svg>
