<?xml version="1.0" encoding="UTF-8"?>
<svg width="160px" height="100px" viewBox="0 0 160 100" version="1.1" xmlns="http://www.w3.org/2000/svg" xmlns:xlink="http://www.w3.org/1999/xlink">
    <!-- Generator: Sketch 41.2 (35397) - http://www.bohemiancoding.com/sketch -->
    <title>logo_salsa</title>
    <desc>Created with Sketch.</desc>
    <defs>
        <polygon id="path-1" points="149.921694 0.0202247191 0.0112359551 0.0202247191 0.0112359551 35.5118659 149.921694 35.5118659"></polygon>
        <polygon id="path-3" points="0.0597378277 7.29213483 16.729588 7.29213483 16.729588 0.043071161 0.0597378277 0.043071161"></polygon>
        <polygon id="path-5" points="0.139700375 8.97752809 17.7810861 8.97752809 17.7810861 0.102434457 0.139700375 0.102434457 0.139700375 8.97752809"></polygon>
    </defs>
    <g id="Symbols" stroke="none" stroke-width="1" fill="none" fill-rule="evenodd">
        <g id="logo_salsa">
            <g id="Salsa_logo_color" transform="translate(5.000000, 24.000000)">
                <g id="Group-5">
                    <mask id="mask-2" fill="white">
                        <use xlink:href="#path-1"></use>
                    </mask>
                    <g id="Clip-2"></g>
                    <path d="M88.2677903,29.0597378 C90.1430712,27.5078652 91.9743446,25.9921348 93.8228464,24.4623596 C94.4243446,25.021161 94.9674157,25.582397 95.5679775,26.073221 C97.4099251,27.5786517 99.5134831,28.4333333 101.908801,28.511236 C103.448689,28.5614232 104.968539,28.5005618 106.385955,27.7794007 C107.459738,27.2331461 107.999438,26.3642322 107.932959,25.2552434 C107.893071,24.5925094 107.569476,24.0520599 107.019663,23.7750936 C106.086704,23.305618 105.120412,22.8623596 104.120412,22.57397 C101.453371,21.8044944 98.7159176,21.2558052 96.0913858,20.3681648 C93.6033708,19.5265918 91.4953184,18.0421348 90.3153558,15.5445693 C89.6308989,14.0962547 89.4370787,12.5636704 89.4726592,10.9741573 C89.5576779,7.17434457 91.3172285,4.34044944 94.4573034,2.33089888 C96.629588,0.940449438 99.0661049,0.349438202 101.62191,0.141385768 C104.382022,-0.0833333333 107.065918,0.258988764 109.678652,1.12846442 C111.970599,1.89101124 113.903558,3.21741573 115.491948,5.04625468 C115.718165,5.30674157 115.701311,5.44962547 115.444382,5.65917603 C113.814045,6.98932584 112.185955,8.32247191 110.575094,9.67621723 C110.276592,9.92715356 110.08221,9.9071161 109.828652,9.65187266 C108.75206,8.56853933 107.510861,7.75786517 106.01161,7.38220974 C104.53764,7.01310861 103.049813,6.76835206 101.55,7.17153558 C100.885955,7.35018727 100.180524,7.55131086 99.628839,7.93558052 C98.4919476,8.72790262 98.5726592,10.4367041 99.6883895,11.2595506 C100.824157,12.097191 102.164232,12.379588 103.495693,12.6724719 C106.184644,13.2634831 108.9103,13.7198502 111.465918,14.7996255 C113.991199,15.8664794 116.006929,17.4876404 116.96985,20.152809 C117.655431,22.0511236 117.757303,24.0048689 117.410487,25.9970037 C116.937828,28.7138577 115.534457,30.8391386 113.377154,32.4966292 C112.084831,33.4893258 110.640637,34.1745318 109.073596,34.641573 C106.83764,35.3080524 104.553558,35.5992509 102.239888,35.4891386 C99.1258427,35.3410112 96.0520599,34.9520599 93.2305243,33.4398876 C91.4277154,32.4737828 89.9162921,31.1803371 88.6172285,29.6198502 C88.4949438,29.4728464 88.4117978,29.2934457 88.2677903,29.0597378" id="Fill-1" fill="#662F61" mask="url(#mask-2)"></path>
                    <path d="M5.47752809,24.4932584 C6.05074906,25.0185393 6.6093633,25.5601124 7.1994382,26.0646067 C9.70374532,28.2059925 12.6550562,28.790824 15.8350187,28.4348315 C16.5576779,28.3541199 17.2749064,28.0681648 17.9522472,27.7779026 C18.940824,27.3548689 19.567603,26.5919476 19.5861423,25.4749064 C19.6048689,24.3447566 18.8376404,23.6895131 17.9224719,23.3413858 C16.5844569,22.8322097 15.1934457,22.4456929 13.802809,22.0947566 C11.0458801,21.3990637 8.23595506,20.8715356 5.72153558,19.4492509 C2.83670412,17.817603 1.25655431,15.361985 1.09513109,12.0228464 C0.942322097,8.86179775 1.83951311,6.08782772 4.13202247,3.84681648 C5.61610487,2.39606742 7.3752809,1.35992509 9.38895131,0.876217228 C10.9820225,0.493632959 12.6136704,0.229775281 14.243633,0.0584269663 C15.2074906,-0.043071161 16.2093633,0.0752808989 17.179588,0.204681648 C19.3235955,0.490636704 21.4168539,0.979775281 23.3389513,2.03576779 C24.7256554,2.79737828 25.9752809,3.72715356 27.0011236,4.94007491 C27.1228464,5.0840824 27.2140449,5.25411985 27.3322097,5.43127341 C25.5910112,6.87003745 23.8876404,8.27078652 22.1941948,9.68370787 C21.9099251,9.92078652 21.708427,9.91816479 21.4447566,9.64737828 C19.3501873,7.49719101 16.7245318,6.81554307 13.8335206,7.0417603 C13.0406367,7.10393258 12.2192884,7.38127341 11.5048689,7.74475655 C10.1494382,8.43483146 10.0194757,10.3829588 11.3005618,11.2142322 C12.1344569,11.7554307 13.1074906,12.1458801 14.0713483,12.4104869 C16.8773408,13.1808989 19.7582397,13.7058052 22.5194757,14.6039326 C25.7026217,15.6395131 28.0359551,17.7162921 28.8737828,21.1189139 C29.9752809,25.5928839 28.5297753,30.0426966 24.667603,32.738764 C22.8777154,33.9882022 20.9149813,34.8046816 18.7644195,35.0818352 C17.0393258,35.3044944 15.2895131,35.5134831 13.5576779,35.4664794 C10.8217228,35.3923221 8.09625468,34.9960674 5.58689139,33.82603 C3.4417603,32.8262172 1.57827715,31.4086142 0.156554307,29.4681648 C-0.0485018727,29.1882022 -0.070411985,28.9988764 0.20093633,28.7758427 C1.92378277,27.359176 3.64307116,25.9385768 5.36516854,24.521161 C5.39213483,24.4988764 5.43970037,24.5014981 5.47752809,24.4932584" id="Fill-3" fill="#662F61" mask="url(#mask-2)"></path>
                    <path d="M128.289513,21.3994382 C130.786704,21.3994382 133.063109,21.4050562 135.339326,21.3928839 C135.64588,21.3911985 135.783708,21.2627341 135.634644,20.8902622 C135.397191,20.2975655 135.244007,19.671161 135.059176,19.0578652 C134.639513,17.6646067 134.230337,16.2681648 133.801685,14.8777154 C133.368914,13.4730337 132.921723,12.0728464 132.46985,10.6743446 C132.413109,10.4990637 132.288951,10.3456929 132.196255,10.1822097 C132.137453,10.2033708 132.078652,10.2247191 132.01985,10.2458801 C130.790824,13.920412 129.561985,17.5949438 128.289513,21.3994382 Z M116.424157,34.609176 C117.414419,31.6597378 127.143633,2.81235955 127.782397,1.08220974 C127.85412,0.887640449 128.272846,0.717602996 128.533895,0.713108614 C130.322472,0.68071161 132.11236,0.694382022 133.901685,0.695318352 C135.160112,0.696067416 136.419101,0.721910112 137.676779,0.691198502 C138.184831,0.678838951 138.417603,0.895131086 138.567228,1.3417603 C139.442884,3.95636704 149.554869,33.4071161 149.832022,34.2104869 C149.968727,34.6509363 150.024157,34.8350187 149.431835,34.8350187 C146.50206,34.8357678 143.572097,34.8222846 140.642322,34.844382 C140.10618,34.8483146 139.912921,34.6541199 139.770412,34.1485019 C139.376404,32.7522472 138.233333,29.2117978 138.129401,28.8170412 C138.03221,28.4483146 137.823408,28.2589888 137.421348,28.2597378 C133.862172,28.2655431 130.302996,28.2642322 126.744007,28.2595506 C126.365918,28.2589888 126.142509,28.3794007 126.011423,28.7745318 C125.416854,30.5653558 124.773783,32.3400749 124.182397,34.1320225 C124.011423,34.6505618 123.77397,34.8642322 123.190637,34.8526217 C121.126779,34.8106742 119.061798,34.8346442 116.996816,34.8337079 L116.55824,34.8337079 C116.342884,34.8337079 116.385206,34.7250936 116.424157,34.609176 L116.424157,34.609176 Z" id="Fill-4" fill="#662F61" mask="url(#mask-2)"></path>
                </g>
                <path d="M63.3179775,17.802809 C63.3185393,12.3754682 63.3183521,6.94812734 63.3189139,1.52078652 C63.3189139,0.69082397 63.3554307,0.675468165 64.1883895,0.680524345 C66.8428839,0.697191011 69.4975655,0.694382022 72.1520599,0.708801498 C72.9548689,0.71329588 72.9559925,0.727715356 72.956367,1.54531835 C72.9588015,10.0009363 72.9679775,18.4565543 72.9485019,26.911985 C72.9470037,27.5378277 73.2088015,27.62397 73.7181648,27.6226592 C77.9853933,27.6129213 82.2524345,27.6177903 86.5196629,27.6146067 C87.2842697,27.6140449 87.317603,27.6365169 87.3183521,28.4069288 C87.3198502,30.3535581 87.3052434,32.3005618 87.3265918,34.2470037 C87.3316479,34.7164794 87.1769663,34.8445693 86.7164794,34.8438202 C79.12603,34.8314607 71.5355805,34.829588 63.9451311,34.8475655 C63.3790262,34.8488764 63.3097378,34.611985 63.3106742,34.1434457 C63.3213483,28.6966292 63.317603,23.2496255 63.3179775,17.802809" id="Fill-6" fill="#662F61"></path>
                <path d="M39.9089888,21.3994382 C42.4059925,21.3994382 44.6825843,21.4050562 46.9589888,21.3928839 C47.2653558,21.3911985 47.4033708,21.2627341 47.2541199,20.8902622 C47.0166667,20.2975655 46.8634831,19.671161 46.6786517,19.0578652 C46.2589888,17.6646067 45.8498127,16.2681648 45.421161,14.8777154 C44.9883895,13.4730337 44.5411985,12.0728464 44.0893258,10.6743446 C44.0325843,10.4990637 43.9086142,10.3456929 43.8157303,10.1822097 C43.7569288,10.2033708 43.6981273,10.2247191 43.6393258,10.2458801 C42.4102996,13.920412 41.1814607,17.5949438 39.9089888,21.3994382 Z M28.0434457,34.609176 C29.0338951,31.6597378 38.7631086,2.81235955 39.4018727,1.08220974 C39.4735955,0.887640449 39.8923221,0.717602996 40.1531835,0.713108614 C41.9421348,0.68071161 43.7316479,0.694382022 45.521161,0.695318352 C46.779588,0.696067416 48.0385768,0.721910112 49.2962547,0.691198502 C49.8043071,0.678838951 50.0370787,0.895131086 50.1867041,1.3417603 C51.0623596,3.95636704 61.1741573,33.4071161 61.4514981,34.2104869 C61.5882022,34.6509363 61.6438202,34.8350187 61.0514981,34.8350187 C58.1215356,34.8357678 55.191573,34.8222846 52.2617978,34.844382 C51.7254682,34.8483146 51.532397,34.6541199 51.3897004,34.1485019 C50.9956929,32.7522472 49.852809,29.2117978 49.7488764,28.8170412 C49.6516854,28.4483146 49.4428839,28.2589888 49.040824,28.2597378 C45.4816479,28.2655431 41.9224719,28.2642322 38.3632959,28.2595506 C37.9853933,28.2589888 37.7617978,28.3794007 37.6308989,28.7745318 C37.0363296,30.5653558 36.3930712,32.3400749 35.8018727,34.1320225 C35.6308989,34.6505618 35.3932584,34.8642322 34.8101124,34.8526217 C32.7462547,34.8106742 30.6810861,34.8346442 28.6164794,34.8337079 L28.1777154,34.8337079 C27.9623596,34.8337079 28.0044944,34.7250936 28.0434457,34.609176 L28.0434457,34.609176 Z" id="Fill-7" fill="#662F61"></path>
                <path d="M3.12996255,48.0507491 L3.14868914,48.9477528 C3.49438202,49.078839 4.05505618,49.190824 4.55018727,49.190824 C5.79307116,49.190824 6.29756554,48.5554307 6.29756554,47.8359551 C6.29756554,45.8456929 2.69082397,47.0230337 2.69082397,44.6964419 C2.69082397,43.8181648 3.33558052,42.8743446 4.84925094,42.8743446 C5.58745318,42.8743446 6.19475655,43.0425094 6.54981273,43.173221 L6.56853933,44.3692884 L6.12003745,44.3692884 L6.10131086,43.5097378 C5.78370787,43.3975655 5.36310861,43.3228464 4.81179775,43.3228464 C3.80280899,43.3228464 3.21404494,43.9116105 3.21404494,44.5934457 C3.21404494,46.5837079 6.82078652,45.3411985 6.82078652,47.8453184 C6.82078652,48.8919476 5.98913858,49.6393258 4.59700375,49.6393258 C3.88689139,49.6393258 3.11123596,49.4709738 2.66273408,49.3308989 L2.64419476,48.0507491 L3.12996255,48.0507491" id="Fill-8" fill="#0A0B09"></path>
                <path d="M9.53988764,49.190824 C9.96048689,49.190824 10.3529963,48.9945693 10.5865169,48.6863296 C10.9228464,48.256367 10.9696629,47.9106742 10.9696629,47.2378277 C9.25973783,47.2846442 8.46554307,47.3406367 8.46554307,48.2938202 C8.46554307,48.8264045 8.85786517,49.190824 9.53988764,49.190824 Z M12.2029963,49.5271536 L10.9509363,49.5271536 C10.9509363,49.2189139 10.9977528,48.7608614 11.0537453,48.4338951 L11.0350187,48.4338951 C10.7734082,49.1254682 10.343633,49.6393258 9.46516854,49.6393258 C8.62434457,49.6393258 7.94213483,49.2189139 7.94213483,48.3031835 C7.94213483,47.4155431 8.67097378,46.9762172 9.67078652,46.9108614 L10.9696629,46.826779 C10.978839,46.6771536 10.9882022,46.5370787 10.9882022,46.3874532 C10.9882022,45.6121723 10.7734082,45.0608614 9.73614232,45.0608614 C9.20374532,45.0608614 8.81123596,45.1822097 8.61498127,45.2477528 L8.59625468,46.0513109 L8.14775281,46.0513109 L8.1664794,44.9486891 C8.4093633,44.8179775 8.97003745,44.6123596 9.81104869,44.6123596 C11.1003745,44.6123596 11.4554307,45.3411985 11.4554307,46.1447566 C11.4554307,47.2752809 11.4275281,48.2003745 11.4181648,49.1161049 L12.2029963,49.1161049 L12.2029963,49.5271536 L12.2029963,49.5271536 Z" id="Fill-9" fill="#0A0B09"></path>
                <path d="M13.2589888,49.1161049 L13.9597378,49.1161049 L13.9784644,45.1355805 L13.1189139,45.1355805 L13.1189139,44.7245318 L13.9784644,44.7245318 L13.9878277,43.9209738 C14.0159176,42.8649813 14.72603,42.2670412 15.7911985,42.2670412 C16.0715356,42.2670412 16.4451311,42.3044944 16.678839,42.3790262 L16.6320225,42.8183521 C16.4359551,42.752809 16.1089888,42.6780899 15.8192884,42.6780899 C14.8848315,42.6780899 14.4923221,43.2294007 14.4737828,43.976779 L14.4644195,44.7245318 L15.8284644,44.7245318 L15.8284644,45.1355805 L14.4644195,45.1355805 L14.4456929,49.1161049 L15.3146067,49.1161049 L15.3146067,49.5271536 L13.2589888,49.5271536 L13.2589888,49.1161049" id="Fill-10" fill="#0A0B09"></path>
                <path d="M20.1921348,46.6679775 C20.1921348,45.808427 19.7250936,45.0608614 18.6784644,45.0608614 C17.4917603,45.0608614 17.1181648,46.0981273 17.1181648,46.6679775 L20.1921348,46.6679775 Z M20.4818352,49.2747191 C20.1827715,49.4524345 19.5567416,49.6393258 18.9494382,49.6393258 C17.3889513,49.6393258 16.5947566,48.6395131 16.5947566,47.0417603 C16.5947566,45.7149813 17.3423221,44.6123596 18.7065543,44.6123596 C20.2855805,44.6123596 20.7155431,45.911236 20.7155431,47.0790262 L17.1181648,47.0790262 C17.1367041,48.4432584 17.7627341,49.190824 19.0241573,49.190824 C19.5941948,49.190824 20.0986891,49.0039326 20.5005618,48.7891386 L20.4818352,49.2747191 L20.4818352,49.2747191 Z" id="Fill-11" fill="#0A0B09"></path>
                <path d="M25.97603,49.190824 C26.3966292,49.190824 26.7891386,48.9945693 27.0226592,48.6863296 C27.3589888,48.256367 27.4058052,47.9106742 27.4058052,47.2378277 C25.6958801,47.2846442 24.9016854,47.3406367 24.9016854,48.2938202 C24.9016854,48.8264045 25.2940075,49.190824 25.97603,49.190824 Z M28.6391386,49.5271536 L27.3870787,49.5271536 C27.3870787,49.2189139 27.4338951,48.7608614 27.4898876,48.4338951 L27.471161,48.4338951 C27.2095506,49.1254682 26.7797753,49.6393258 25.9013109,49.6393258 C25.0604869,49.6393258 24.3782772,49.2189139 24.3782772,48.3031835 C24.3782772,47.4155431 25.1071161,46.9762172 26.1069288,46.9108614 L27.4058052,46.826779 C27.4149813,46.6771536 27.4245318,46.5370787 27.4245318,46.3874532 C27.4245318,45.6121723 27.2095506,45.0608614 26.1722846,45.0608614 C25.6398876,45.0608614 25.2473783,45.1822097 25.0511236,45.2477528 L25.032397,46.0513109 L24.5838951,46.0513109 L24.6026217,44.9486891 C24.8455056,44.8179775 25.4061798,44.6123596 26.247191,44.6123596 C27.5365169,44.6123596 27.891573,45.3411985 27.891573,46.1447566 C27.891573,47.2752809 27.8636704,48.2003745 27.8543071,49.1161049 L28.6391386,49.1161049 L28.6391386,49.5271536 L28.6391386,49.5271536 Z" id="Fill-12" fill="#0A0B09"></path>
                <path d="M29.5363296,49.1161049 L30.2558052,49.1161049 L30.2745318,45.1355805 L29.4335206,45.1355805 L29.4335206,44.7245318 L30.7696629,44.7245318 C30.7696629,45.0327715 30.741573,45.397191 30.6574906,45.8735955 L30.6762172,45.8735955 C30.9005618,45.1262172 31.4891386,44.6123596 32.4327715,44.6123596 C33.3297753,44.6123596 34.0494382,45.0234082 34.0494382,46.4904494 C34.0494382,47.3687266 34.0213483,48.2376404 34.011985,49.1161049 L34.7689139,49.1161049 L34.7689139,49.5271536 L32.8067416,49.5271536 L32.8067416,49.1161049 L33.52603,49.1161049 C33.5355805,48.2470037 33.5634831,47.3874532 33.5634831,46.5185393 C33.5634831,45.5372659 33.1897004,45.0608614 32.3207865,45.0608614 C31.3490637,45.0608614 30.7696629,45.9297753 30.7602996,46.8361423 L30.741573,49.1161049 L31.4985019,49.1161049 L31.4985019,49.5271536 L29.5363296,49.5271536 L29.5363296,49.1161049" id="Fill-13" fill="#0A0B09"></path>
                <path d="M39.2913858,45.2945693 C39.0953184,45.2102996 38.6653558,45.0608614 38.1327715,45.0608614 C36.7966292,45.0608614 36.2265918,45.9857678 36.2265918,47.2565543 C36.2265918,48.2750936 36.6191011,49.190824 37.7402622,49.190824 C38.6840824,49.190824 39.2726592,48.4245318 39.2820225,47.1071161 L39.2913858,45.2945693 Z M39.7865169,42.3417603 L39.7492509,49.1161049 L40.5715356,49.1161049 L40.5715356,49.5271536 L39.2447566,49.5271536 C39.2447566,49.293633 39.2820225,48.8636704 39.3194757,48.5367041 L39.3007491,48.5367041 C39.0578652,49.1346442 38.6372659,49.6393258 37.6095506,49.6393258 C36.8247191,49.6393258 35.7033708,49.1346442 35.7033708,47.2565543 C35.7033708,45.7241573 36.6003745,44.6123596 38.1046816,44.6123596 C38.4784644,44.6123596 38.9456929,44.7058052 39.2913858,44.8458801 L39.3101124,42.752809 L38.2449438,42.752809 L38.2449438,42.3417603 L39.7865169,42.3417603 L39.7865169,42.3417603 Z" id="Fill-14" fill="#0A0B09"></path>
                <polyline id="Fill-15" fill="#0A0B09" points="43.9541199 49.5271536 43.9541199 49.1161049 44.7016854 49.1161049 44.7391386 43.3975655 43.9541199 43.3975655 43.9541199 42.9863296 46.0099251 42.9863296 46.0099251 43.3975655 45.2623596 43.3975655 45.2249064 49.1161049 47.8132959 49.1161049 47.888015 48.1441948 48.3365169 48.1441948 48.2617978 49.5271536 43.9541199 49.5271536"></polyline>
                <path d="M51.3640449,49.190824 C52.485206,49.190824 53.07397,48.3404494 53.07397,47.1258427 C53.07397,45.911236 52.485206,45.0608614 51.3640449,45.0608614 C50.2426966,45.0608614 49.6541199,45.911236 49.6541199,47.1258427 C49.6541199,48.3404494 50.2426966,49.190824 51.3640449,49.190824 Z M51.3640449,44.6123596 C52.8402622,44.6123596 53.597191,45.7522472 53.597191,47.1258427 C53.597191,48.4994382 52.8402622,49.6393258 51.3640449,49.6393258 C49.8876404,49.6393258 49.1308989,48.4994382 49.1308989,47.1258427 C49.1308989,45.7522472 49.8876404,44.6123596 51.3640449,44.6123596 L51.3640449,44.6123596 Z" id="Fill-16" fill="#0A0B09"></path>
                <path d="M57.9423221,45.2102996 C57.6992509,45.1262172 57.3722846,45.0608614 56.9050562,45.0608614 C55.6810861,45.0608614 55.0923221,45.911236 55.0923221,47.1258427 C55.0923221,48.3404494 55.6810861,49.190824 56.9050562,49.190824 C57.5779026,49.190824 58.0357678,49.0692884 58.3627341,48.9104869 L58.3627341,49.3870787 C58.0449438,49.5271536 57.5310861,49.6393258 56.8863296,49.6393258 C55.32603,49.6393258 54.5691011,48.4994382 54.5691011,47.1258427 C54.5691011,45.7522472 55.3539326,44.6123596 56.9331461,44.6123596 C57.6245318,44.6123596 58.0264045,44.7337079 58.390824,44.8646067 L58.390824,46.0325843 L57.9423221,46.0325843 L57.9423221,45.2102996" id="Fill-17" fill="#0A0B09"></path>
                <path d="M61.1099251,49.190824 C61.5305243,49.190824 61.9228464,48.9945693 62.1565543,48.6863296 C62.4928839,48.256367 62.5395131,47.9106742 62.5395131,47.2378277 C60.8297753,47.2846442 60.0353933,47.3406367 60.0353933,48.2938202 C60.0353933,48.8264045 60.4279026,49.190824 61.1099251,49.190824 Z M63.7730337,49.5271536 L62.5209738,49.5271536 C62.5209738,49.2189139 62.567603,48.7608614 62.6237828,48.4338951 L62.6050562,48.4338951 C62.3434457,49.1254682 61.9136704,49.6393258 61.035206,49.6393258 C60.194382,49.6393258 59.5121723,49.2189139 59.5121723,48.3031835 C59.5121723,47.4155431 60.2410112,46.9762172 61.240824,46.9108614 L62.5395131,46.826779 C62.5488764,46.6771536 62.5582397,46.5370787 62.5582397,46.3874532 C62.5582397,45.6121723 62.3434457,45.0608614 61.3061798,45.0608614 C60.7735955,45.0608614 60.3812734,45.1822097 60.1850187,45.2477528 L60.1662921,46.0513109 L59.7177903,46.0513109 L59.7365169,44.9486891 C59.9794007,44.8179775 60.5400749,44.6123596 61.3808989,44.6123596 C62.670412,44.6123596 63.0254682,45.3411985 63.0254682,46.1447566 C63.0254682,47.2752809 62.9973783,48.2003745 62.988015,49.1161049 L63.7730337,49.1161049 L63.7730337,49.5271536 L63.7730337,49.5271536 Z" id="Fill-18" fill="#0A0B09"></path>
                <polyline id="Fill-19" fill="#0A0B09" points="64.6794007 49.1161049 65.4735955 49.1161049 65.5110487 42.752809 64.4458801 42.752809 64.4458801 42.3417603 65.9970037 42.3417603 65.9595506 49.1161049 66.7911985 49.1161049 66.7911985 49.5271536 64.6794007 49.5271536 64.6794007 49.1161049"></polyline>
                <path d="M70.9773408,48.0507491 L70.9960674,48.9477528 C71.3417603,49.078839 71.9024345,49.190824 72.3977528,49.190824 C73.6404494,49.190824 74.1449438,48.5554307 74.1449438,47.8359551 C74.1449438,45.8456929 70.5382022,47.0230337 70.5382022,44.6964419 C70.5382022,43.8181648 71.1829588,42.8743446 72.6966292,42.8743446 C73.4348315,42.8743446 74.0421348,43.0425094 74.397191,43.173221 L74.4159176,44.3692884 L73.9674157,44.3692884 L73.9486891,43.5097378 C73.6310861,43.3975655 73.2104869,43.3228464 72.659176,43.3228464 C71.6501873,43.3228464 71.0614232,43.9116105 71.0614232,44.5934457 C71.0614232,46.5837079 74.6681648,45.3411985 74.6681648,47.8453184 C74.6681648,48.8919476 73.8367041,49.6393258 72.444382,49.6393258 C71.7342697,49.6393258 70.9586142,49.4709738 70.5101124,49.3308989 L70.491573,48.0507491 L70.9773408,48.0507491" id="Fill-20" fill="#0A0B09"></path>
                <g id="Group-25" transform="translate(75.468165, 44.569288)">
                    <mask id="mask-4" fill="white">
                        <use xlink:href="#path-3"></use>
                    </mask>
                    <g id="Clip-22"></g>
                    <path d="M1.36797753,0.155243446 C1.35861423,1.15486891 1.33052434,2.16404494 1.33052434,3.16385768 C1.33052434,4.14494382 1.70430712,4.62153558 2.57340824,4.62153558 C3.55449438,4.62153558 4.10561798,3.89269663 4.12434457,2.6406367 L4.16179775,0.566292135 L3.30205993,0.566292135 L3.30205993,0.155243446 L4.64775281,0.155243446 L4.61029963,4.54681648 L5.35786517,4.54681648 L5.35786517,4.95786517 L4.13370787,4.95786517 C4.13370787,4.64962547 4.16179775,4.28501873 4.24588015,3.80842697 L4.22715356,3.80842697 C4.00280899,4.55617978 3.3488764,5.07003745 2.55468165,5.07003745 C1.57359551,5.07003745 0.844569288,4.64026217 0.844569288,3.1917603 C0.844569288,2.31348315 0.872846442,1.44456929 0.882022472,0.566292135 L0.0597378277,0.566292135 L0.0597378277,0.155243446 L1.36797753,0.155243446" id="Fill-21" fill="#0A0B09" mask="url(#mask-4)"></path>
                    <path d="M8.95543071,0.491573034 C8.04906367,0.491573034 7.39494382,1.20168539 7.38558052,2.47247191 L7.37621723,4.44400749 C7.60037453,4.56535581 8.08632959,4.6588015 8.55355805,4.6588015 C9.90861423,4.6588015 10.497191,3.68707865 10.497191,2.4258427 C10.497191,1.3511236 10.0859551,0.491573034 8.95543071,0.491573034 Z M6.09606742,6.89194757 L6.87172285,6.89194757 L6.91853933,0.566292135 L6.01217228,0.566292135 L6.01217228,0.155243446 L7.41367041,0.155243446 C7.41367041,0.45411985 7.39494382,0.827902622 7.34831461,1.16423221 L7.37621723,1.14569288 C7.70337079,0.482209738 8.15187266,0.043071161 9.0488764,0.043071161 C10.3569288,0.043071161 11.020412,1.0428839 11.020412,2.27621723 C11.020412,3.80842697 10.3102996,5.07003745 8.53501873,5.07003745 C8.03033708,5.07003745 7.62865169,4.99513109 7.37621723,4.90168539 L7.3576779,6.89194757 L8.22659176,6.89194757 L8.22659176,7.30337079 L6.09606742,7.30337079 L6.09606742,6.89194757 L6.09606742,6.89194757 Z" id="Fill-23" fill="#0A0B09" mask="url(#mask-4)"></path>
                    <path d="M14.6646067,0.491573034 C13.7582397,0.491573034 13.1041199,1.20168539 13.0947566,2.47247191 L13.0853933,4.44400749 C13.3097378,4.56535581 13.7955056,4.6588015 14.2629213,4.6588015 C15.6177903,4.6588015 16.206367,3.68707865 16.206367,2.4258427 C16.206367,1.3511236 15.7951311,0.491573034 14.6646067,0.491573034 Z M11.8054307,6.89194757 L12.5808989,6.89194757 L12.6277154,0.566292135 L11.7213483,0.566292135 L11.7213483,0.155243446 L13.1230337,0.155243446 C13.1230337,0.45411985 13.1041199,0.827902622 13.0574906,1.16423221 L13.0853933,1.14569288 C13.4125468,0.482209738 13.8610487,0.043071161 14.7580524,0.043071161 C16.0661049,0.043071161 16.729588,1.0428839 16.729588,2.27621723 C16.729588,3.80842697 16.0194757,5.07003745 14.2441948,5.07003745 C13.7397004,5.07003745 13.3378277,4.99513109 13.0853933,4.90168539 L13.0668539,6.89194757 L13.9357678,6.89194757 L13.9357678,7.30337079 L11.8054307,7.30337079 L11.8054307,6.89194757 L11.8054307,6.89194757 Z" id="Fill-24" fill="#0A0B09" mask="url(#mask-4)"></path>
                </g>
                <polyline id="Fill-26" fill="#0A0B09" points="93.0668539 49.1161049 93.8610487 49.1161049 93.8985019 42.752809 92.8333333 42.752809 92.8333333 42.3417603 94.3842697 42.3417603 94.3470037 49.1161049 95.1784644 49.1161049 95.1784644 49.5271536 93.0668539 49.5271536 93.0668539 49.1161049"></polyline>
                <path d="M96.9541199,42.2670412 C97.2249064,42.2670412 97.4024345,42.4818352 97.4024345,42.752809 C97.4024345,43.02397 97.2249064,43.238764 96.9541199,43.238764 C96.6831461,43.238764 96.5054307,43.02397 96.5054307,42.752809 C96.5054307,42.4818352 96.6831461,42.2670412 96.9541199,42.2670412 Z M95.8981273,49.1161049 L96.720412,49.1161049 L96.7485019,45.1355805 L95.8234082,45.1355805 L95.8234082,44.7245318 L97.2342697,44.7245318 L97.206367,49.1161049 L98.0659176,49.1161049 L98.0659176,49.5271536 L95.8981273,49.5271536 L95.8981273,49.1161049 L95.8981273,49.1161049 Z" id="Fill-27" fill="#0A0B09"></path>
                <path d="M102.411049,46.6679775 C102.411049,45.808427 101.943633,45.0608614 100.897191,45.0608614 C99.7106742,45.0608614 99.3367041,46.0981273 99.3367041,46.6679775 L102.411049,46.6679775 Z M102.700562,49.2747191 C102.401498,49.4524345 101.775468,49.6393258 101.168165,49.6393258 C99.6076779,49.6393258 98.8134831,48.6395131 98.8134831,47.0417603 C98.8134831,45.7149813 99.5610487,44.6123596 100.925281,44.6123596 C102.504494,44.6123596 102.934082,45.911236 102.934082,47.0790262 L99.3367041,47.0790262 C99.3554307,48.4432584 99.9814607,49.190824 101.242884,49.190824 C101.812921,49.190824 102.317416,49.0039326 102.719288,48.7891386 L102.700562,49.2747191 L102.700562,49.2747191 Z" id="Fill-28" fill="#0A0B09"></path>
                <path d="M103.840637,49.1161049 L104.606742,49.1161049 L104.644195,45.1355805 L103.737828,45.1355805 L103.737828,44.7245318 L105.148876,44.7245318 C105.148876,45.1728464 105.111236,45.7522472 105.07397,46.2661049 L105.092697,46.2661049 C105.307491,45.4438202 105.830899,44.6123596 106.699813,44.6123596 C106.998876,44.6123596 107.185768,44.6683521 107.372659,44.7151685 L107.297753,45.1822097 C107.120412,45.1076779 106.952247,45.0608614 106.709176,45.0608614 C105.868165,45.0608614 105.13015,46.1073034 105.111236,47.4621723 L105.092697,49.1161049 L105.9897,49.1161049 L105.9897,49.5271536 L103.840637,49.5271536 L103.840637,49.1161049" id="Fill-29" fill="#0A0B09"></path>
                <g id="Group-34" transform="translate(109.550562, 42.883895)">
                    <mask id="mask-6" fill="white">
                        <use xlink:href="#path-5"></use>
                    </mask>
                    <g id="Clip-31"></g>
                    <path d="M3.61554307,1.05561798 C3.56872659,0.934269663 3.52209738,0.822097378 3.50337079,0.700561798 L3.48464419,0.700561798 C3.4659176,0.822097378 3.41928839,0.934269663 3.37247191,1.05561798 L2.38202247,3.50355805 L4.49382022,3.50355805 L3.61554307,1.05561798 Z M0.139700375,6.23220974 L0.765543071,6.23220974 L3.28838951,0.102434457 L3.81179775,0.102434457 L6.05430712,6.23220974 L6.73632959,6.23220974 L6.73632959,6.64325843 L4.68071161,6.64325843 L4.68071161,6.23220974 L5.49344569,6.23220974 L4.64325843,3.91498127 L2.21404494,3.91498127 L1.28876404,6.23220974 L2.15786517,6.23220974 L2.15786517,6.64325843 L0.139700375,6.64325843 L0.139700375,6.23220974 L0.139700375,6.23220974 Z" id="Fill-30" fill="#0A0B09" mask="url(#mask-6)"></path>
                    <path d="M10.0067416,2.17696629 C9.10037453,2.17696629 8.44625468,2.88707865 8.43689139,4.15786517 L8.42752809,6.12940075 C8.65187266,6.25074906 9.13764045,6.34419476 9.60505618,6.34419476 C10.9599251,6.34419476 11.5485019,5.37247191 11.5485019,4.11123596 C11.5485019,3.03651685 11.1372659,2.17696629 10.0067416,2.17696629 Z M7.14737828,8.57734082 L7.92303371,8.57734082 L7.96985019,2.25168539 L7.06348315,2.25168539 L7.06348315,1.8406367 L8.46516854,1.8406367 C8.46516854,2.13951311 8.44625468,2.51329588 8.39962547,2.84962547 L8.42752809,2.83108614 C8.75468165,2.167603 9.20318352,1.72846442 10.1001873,1.72846442 C11.4082397,1.72846442 12.0717228,2.72827715 12.0717228,3.96161049 C12.0717228,5.49382022 11.3616105,6.75543071 9.58632959,6.75543071 C9.08183521,6.75543071 8.67996255,6.68052434 8.42752809,6.58707865 L8.40898876,8.57734082 L9.27790262,8.57734082 L9.27790262,8.98876404 L7.14737828,8.98876404 L7.14737828,8.57734082 L7.14737828,8.57734082 Z" id="Fill-32" fill="#0A0B09" mask="url(#mask-6)"></path>
                    <path d="M15.7159176,2.17696629 C14.8095506,2.17696629 14.1554307,2.88707865 14.1462547,4.15786517 L14.1368914,6.12940075 C14.3610487,6.25074906 14.8470037,6.34419476 15.3142322,6.34419476 C16.6691011,6.34419476 17.2578652,5.37247191 17.2578652,4.11123596 C17.2578652,3.03651685 16.8464419,2.17696629 15.7159176,2.17696629 Z M12.8567416,8.57734082 L13.6322097,8.57734082 L13.6790262,2.25168539 L12.7728464,2.25168539 L12.7728464,1.8406367 L14.1743446,1.8406367 C14.1743446,2.13951311 14.1554307,2.51329588 14.1088015,2.84962547 L14.1368914,2.83108614 C14.4640449,2.167603 14.9123596,1.72846442 15.8093633,1.72846442 C17.117603,1.72846442 17.7810861,2.72827715 17.7810861,3.96161049 C17.7810861,5.49382022 17.0709738,6.75543071 15.2955056,6.75543071 C14.7910112,6.75543071 14.3891386,6.68052434 14.1368914,6.58707865 L14.1181648,8.57734082 L14.9872659,8.57734082 L14.9872659,8.98876404 L12.8567416,8.98876404 L12.8567416,8.57734082 L12.8567416,8.57734082 Z" id="Fill-33" fill="#0A0B09" mask="url(#mask-6)"></path>
                </g>
                <path d="M128.238202,49.1161049 L129.00412,49.1161049 L129.04176,45.1355805 L128.135393,45.1355805 L128.135393,44.7245318 L129.546255,44.7245318 C129.546255,45.1728464 129.508801,45.7522472 129.471348,46.2661049 L129.490075,46.2661049 C129.705056,45.4438202 130.228277,44.6123596 131.097191,44.6123596 C131.396255,44.6123596 131.583146,44.6683521 131.770037,44.7151685 L131.695131,45.1822097 C131.517603,45.1076779 131.349625,45.0608614 131.106554,45.0608614 C130.26573,45.0608614 129.527528,46.1073034 129.508801,47.4621723 L129.490075,49.1161049 L130.387079,49.1161049 L130.387079,49.5271536 L128.238202,49.5271536 L128.238202,49.1161049" id="Fill-35" fill="#0A0B09"></path>
                <path d="M134.330337,49.190824 C135.451498,49.190824 136.040262,48.3404494 136.040262,47.1258427 C136.040262,45.911236 135.451498,45.0608614 134.330337,45.0608614 C133.208989,45.0608614 132.620412,45.911236 132.620412,47.1258427 C132.620412,48.3404494 133.208989,49.190824 134.330337,49.190824 Z M134.330337,44.6123596 C135.806742,44.6123596 136.563483,45.7522472 136.563483,47.1258427 C136.563483,48.4994382 135.806742,49.6393258 134.330337,49.6393258 C132.853933,49.6393258 132.097004,48.4994382 132.097004,47.1258427 C132.097004,45.7522472 132.853933,44.6123596 134.330337,44.6123596 L134.330337,44.6123596 Z" id="Fill-36" fill="#0A0B09"></path>
                <path d="M137.516667,45.1355805 L136.9,45.1355805 L136.9,44.7245318 L138.684831,44.7245318 L138.684831,45.1355805 L138.077341,45.1355805 L139.282772,48.5554307 C139.357491,48.7702247 139.376217,48.9477528 139.394944,49.1161049 L139.413483,49.1161049 C139.44176,48.9477528 139.469663,48.7702247 139.544382,48.5554307 L140.787079,45.1355805 L140.08633,45.1355805 L140.08633,44.7245318 L141.870974,44.7245318 L141.870974,45.1355805 L141.3103,45.1355805 L139.619101,49.5271536 L139.170599,49.5271536 L137.516667,45.1355805" id="Fill-37" fill="#0A0B09"></path>
                <path d="M144.085581,49.190824 C144.50618,49.190824 144.898502,48.9945693 145.13221,48.6863296 C145.468539,48.256367 145.515356,47.9106742 145.515356,47.2378277 C143.805243,47.2846442 143.011049,47.3406367 143.011049,48.2938202 C143.011049,48.8264045 143.403558,49.190824 144.085581,49.190824 Z M146.748689,49.5271536 L145.496629,49.5271536 C145.496629,49.2189139 145.543446,48.7608614 145.599251,48.4338951 L145.580712,48.4338951 C145.319101,49.1254682 144.889139,49.6393258 144.010861,49.6393258 C143.170037,49.6393258 142.487828,49.2189139 142.487828,48.3031835 C142.487828,47.4155431 143.216667,46.9762172 144.216667,46.9108614 L145.515356,46.826779 C145.524719,46.6771536 145.534082,46.5370787 145.534082,46.3874532 C145.534082,45.6121723 145.319101,45.0608614 144.281835,45.0608614 C143.749438,45.0608614 143.356929,45.1822097 143.160674,45.2477528 L143.141948,46.0513109 L142.693446,46.0513109 L142.712172,44.9486891 C142.955056,44.8179775 143.515918,44.6123596 144.356742,44.6123596 C145.646067,44.6123596 146.001124,45.3411985 146.001124,46.1447566 C146.001124,47.2752809 145.973221,48.2003745 145.963858,49.1161049 L146.748689,49.1161049 L146.748689,49.5271536 L146.748689,49.5271536 Z" id="Fill-38" fill="#0A0B09"></path>
                <polyline id="Fill-39" fill="#0A0B09" points="147.655056 49.1161049 148.449251 49.1161049 148.486704 42.752809 147.421536 42.752809 147.421536 42.3417603 148.972472 42.3417603 148.935206 49.1161049 149.766667 49.1161049 149.766667 49.5271536 147.655056 49.5271536 147.655056 49.1161049"></polyline>
            </g>
        </g>
    </g>
</svg>