<?xml version="1.0" encoding="utf-8"?>
<!-- Generator: Adobe Illustrator 21.0.2, SVG Export Plug-In . SVG Version: 6.00 Build 0)  -->
<svg version="1.1" id="Layer_1" xmlns="http://www.w3.org/2000/svg" xmlns:xlink="http://www.w3.org/1999/xlink" x="0px" y="0px"
	 viewBox="0 0 821 541" style="enable-background:new 0 0 821 541;" xml:space="preserve">
<style type="text/css">
	.st0{opacity:0.8;}
	.st1{fill:#57388B;}
	.st2{fill:#FFC914;}
	.st3{fill:#A4A5A5;}
	.st4{fill:#FFFFFF;}
</style>
<g id="Rectangle" class="st0">
	<rect x="160" y="344" class="st1" width="100" height="155"/>
</g>
<g id="Rectangle-Copy-3" class="st0">
	<rect x="361" y="319" class="st1" width="100" height="180"/>
</g>
<g id="Rectangle-Copy-2" class="st0">
	<rect x="560" y="73" class="st1" width="100" height="426"/>
</g>
<g id="Rectangle_1_">
	<rect x="160" y="304" class="st2" width="100" height="40"/>
</g>
<g id="Rectangle-Copy-5">
	<path class="st2" d="M361,309c0-2.8,2.2-5,5-5h90c2.8,0,5,2.2,5,5v8h-31h-69V309z"/>
</g>
<g id="path-1_1_">
	<path class="st1" d="M261,500H159V309c0-3.3,2.7-6,6-6h90c3.3,0,6,2.7,6,6V500z M161,498h98V309c0-2.2-1.8-4-4-4h-90
		c-2.2,0-4,1.8-4,4V498z"/>
</g>
<g id="path-3_1_">
	<path class="st1" d="M462,500H360V309c0-3.3,2.7-6,6-6h90c3.3,0,6,2.7,6,6V500z M362,498h98V309c0-2.2-1.8-4-4-4h-90
		c-2.2,0-4,1.8-4,4V498z"/>
</g>
<g id="Rectangle-Copy-6">
	<path class="st2" d="M565.1,58h89.9c2.8,0,5.1,2.3,5.1,5.1V73H560v-9.9C560,60.3,562.3,58,565.1,58z"/>
</g>
<g id="path-5_1_">
	<path class="st1" d="M661,500H559V63c0-3.3,2.7-6,6-6h90c3.3,0,6,2.7,6,6V500z M561,498h98V63c0-2.2-1.8-4-4-4h-90
		c-2.2,0-4,1.8-4,4V498z"/>
</g>
<g id="Line">
	<rect x="109" y="498" class="st1" width="602" height="2"/>
</g>
<g>
	<g>
		<path class="st1" d="M387.5,286.7h1.3v1.8h-1.3v2.5h-2.3v-2.5h-4.7l-0.1-1.4l4.7-7.5h2.3V286.7z M382.7,286.7h2.5v-4l-0.1,0.3
			L382.7,286.7z"/>
	</g>
	<g>
		<path class="st1" d="M398.6,286.4l-1.2,1.3v3.2h-2.3v-11.4h2.3v5.2l1-1.4l2.9-3.7h2.9l-4,5.1l4.2,6.3h-2.8L398.6,286.4z"/>
	</g>
	<g>
		<path class="st1" d="M408.8,289.3c0.4,0,0.8-0.1,1-0.3c0.3-0.2,0.4-0.5,0.4-0.9h2.1c0,0.6-0.2,1.1-0.5,1.6
			c-0.3,0.5-0.7,0.8-1.3,1.1c-0.5,0.3-1.1,0.4-1.8,0.4c-1.2,0-2.2-0.4-2.9-1.2c-0.7-0.8-1-1.8-1-3.2v-0.1c0-1.3,0.3-2.3,1-3.1
			c0.7-0.8,1.6-1.2,2.9-1.2c1.1,0,1.9,0.3,2.5,0.9c0.6,0.6,1,1.4,1,2.4h-2.1c0-0.4-0.1-0.8-0.4-1.1c-0.3-0.3-0.6-0.4-1-0.4
			c-0.5,0-0.9,0.2-1.2,0.6c-0.3,0.4-0.4,1-0.4,1.9v0.2c0,0.9,0.1,1.5,0.4,1.9S408.3,289.3,408.8,289.3z"/>
	</g>
	<g>
		<path class="st1" d="M419,291c-0.1-0.2-0.2-0.5-0.2-0.8c-0.5,0.6-1.3,0.9-2.1,0.9c-0.8,0-1.5-0.2-2.1-0.7s-0.8-1.1-0.8-1.8
			c0-0.9,0.3-1.6,1-2.1s1.6-0.7,2.9-0.7h1v-0.5c0-0.4-0.1-0.7-0.3-0.9s-0.5-0.4-0.9-0.4c-0.4,0-0.7,0.1-0.9,0.3s-0.3,0.4-0.3,0.8
			h-2.3c0-0.5,0.2-0.9,0.5-1.4s0.7-0.7,1.3-1s1.2-0.4,1.9-0.4c1,0,1.9,0.3,2.5,0.8s0.9,1.3,0.9,2.2v3.7c0,0.8,0.1,1.4,0.3,1.8v0.1
			H419z M417.1,289.4c0.3,0,0.6-0.1,0.9-0.2s0.5-0.3,0.6-0.6v-1.5h-0.8c-1.1,0-1.7,0.4-1.8,1.2l0,0.1c0,0.3,0.1,0.5,0.3,0.7
			S416.8,289.4,417.1,289.4z"/>
	</g>
	<g>
		<path class="st1" d="M425.5,291h-2.3v-12h2.3V291z"/>
	</g>
	<g>
		<path class="st1" d="M428.5,292h-1.7l4.2-12.4h1.7L428.5,292z"/>
	</g>
	<g>
		<path class="st1" d="M433.8,286.7c0-1.3,0.3-2.3,0.9-3.1s1.4-1.2,2.5-1.2c0.9,0,1.6,0.3,2.2,1l0.1-0.8h2v8.2
			c0,0.7-0.2,1.4-0.5,1.9s-0.8,1-1.4,1.2s-1.3,0.4-2.1,0.4c-0.6,0-1.2-0.1-1.8-0.4s-1-0.6-1.3-1l1-1.4c0.6,0.6,1.2,0.9,2,0.9
			c0.6,0,1.1-0.2,1.4-0.5s0.5-0.8,0.5-1.4v-0.5c-0.5,0.6-1.2,0.9-2.1,0.9c-1,0-1.8-0.4-2.5-1.2S433.8,288.1,433.8,286.7L433.8,286.7
			z M436.1,286.9c0,0.8,0.2,1.4,0.5,1.8s0.7,0.7,1.3,0.7c0.7,0,1.2-0.3,1.5-0.8V285c-0.3-0.5-0.8-0.8-1.5-0.8c-0.5,0-1,0.2-1.3,0.7
			C436.3,285.3,436.1,286,436.1,286.9z"/>
	</g>
</g>
<g>
	<g>
		<path class="st1" d="M585.1,42.5c-0.6,0.6-1.3,0.9-2.1,0.9c-1,0-1.8-0.3-2.4-1c-0.6-0.7-0.9-1.6-0.9-2.8c0-0.7,0.2-1.4,0.5-2.1
			c0.3-0.6,0.8-1.1,1.4-1.5c0.6-0.3,1.2-0.5,2-0.5c0.8,0,1.4,0.2,2,0.6c0.6,0.4,1,0.9,1.4,1.6c0.3,0.7,0.5,1.5,0.5,2.4v0.8
			c0,1.9-0.5,3.4-1.4,4.5c-0.9,1.1-2.3,1.7-4,1.7l-0.6,0v-1.9l0.5,0C583.9,45.1,584.9,44.2,585.1,42.5z M583.6,41.6
			c0.4,0,0.7-0.1,0.9-0.3c0.3-0.2,0.5-0.4,0.6-0.7v-0.9c0-0.8-0.1-1.4-0.4-1.8c-0.3-0.4-0.7-0.6-1.2-0.6c-0.5,0-0.8,0.2-1.1,0.6
			c-0.3,0.4-0.4,0.9-0.4,1.6c0,0.6,0.1,1.1,0.4,1.5C582.7,41.4,583.1,41.6,583.6,41.6z"/>
	</g>
	<g>
		<path class="st1" d="M597.6,42.4l-1.2,1.3V47h-2.3V35.6h2.3v5.2l1-1.4l2.9-3.7h2.9l-4,5.1l4.2,6.3h-2.8L597.6,42.4z"/>
	</g>
	<g>
		<path class="st1" d="M607.8,45.3c0.4,0,0.8-0.1,1-0.3c0.3-0.2,0.4-0.5,0.4-0.9h2.1c0,0.6-0.2,1.1-0.5,1.6
			c-0.3,0.5-0.7,0.8-1.3,1.1c-0.5,0.3-1.1,0.4-1.8,0.4c-1.2,0-2.2-0.4-2.9-1.2c-0.7-0.8-1-1.8-1-3.2v-0.1c0-1.3,0.3-2.3,1-3.1
			c0.7-0.8,1.6-1.2,2.9-1.2c1.1,0,1.9,0.3,2.5,0.9c0.6,0.6,1,1.4,1,2.4h-2.1c0-0.4-0.1-0.8-0.4-1.1c-0.3-0.3-0.6-0.4-1-0.4
			c-0.5,0-0.9,0.2-1.2,0.6c-0.3,0.4-0.4,1-0.4,1.9v0.2c0,0.9,0.1,1.5,0.4,1.9S607.3,45.3,607.8,45.3z"/>
	</g>
	<g>
		<path class="st1" d="M618,47c-0.1-0.2-0.2-0.5-0.2-0.8c-0.5,0.6-1.3,0.9-2.1,0.9c-0.8,0-1.5-0.2-2.1-0.7s-0.8-1.1-0.8-1.8
			c0-0.9,0.3-1.6,1-2.1s1.6-0.7,2.9-0.7h1v-0.5c0-0.4-0.1-0.7-0.3-0.9s-0.5-0.4-0.9-0.4c-0.4,0-0.7,0.1-0.9,0.3s-0.3,0.4-0.3,0.8
			h-2.3c0-0.5,0.2-0.9,0.5-1.4s0.7-0.7,1.3-1s1.2-0.4,1.9-0.4c1,0,1.9,0.3,2.5,0.8s0.9,1.3,0.9,2.2V45c0,0.8,0.1,1.4,0.3,1.8V47H618
			z M616.1,45.4c0.3,0,0.6-0.1,0.9-0.2s0.5-0.3,0.6-0.6v-1.5h-0.8c-1.1,0-1.7,0.4-1.8,1.2l0,0.1c0,0.3,0.1,0.5,0.3,0.7
			S615.8,45.4,616.1,45.4z"/>
	</g>
	<g>
		<path class="st1" d="M624.5,47h-2.3V35h2.3V47z"/>
	</g>
	<g>
		<path class="st1" d="M627.5,48h-1.7l4.2-12.4h1.7L627.5,48z"/>
	</g>
	<g>
		<path class="st1" d="M632.8,42.7c0-1.3,0.3-2.3,0.9-3.1s1.4-1.2,2.5-1.2c0.9,0,1.6,0.3,2.2,1l0.1-0.8h2v8.2c0,0.7-0.2,1.4-0.5,1.9
			s-0.8,1-1.4,1.2s-1.3,0.4-2.1,0.4c-0.6,0-1.2-0.1-1.8-0.4s-1-0.6-1.3-1l1-1.4c0.6,0.6,1.2,0.9,2,0.9c0.6,0,1.1-0.2,1.4-0.5
			s0.5-0.8,0.5-1.4v-0.5c-0.5,0.6-1.2,0.9-2.1,0.9c-1,0-1.8-0.4-2.5-1.2S632.8,44.1,632.8,42.7L632.8,42.7z M635.1,42.9
			c0,0.8,0.2,1.4,0.5,1.8s0.7,0.7,1.3,0.7c0.7,0,1.2-0.3,1.5-0.8V41c-0.3-0.5-0.8-0.8-1.5-0.8c-0.5,0-1,0.2-1.3,0.7
			C635.3,41.3,635.1,42,635.1,42.9z"/>
	</g>
</g>
<g>
	<g>
		<path class="st1" d="M188,47.6c-0.4,0.5-1,0.9-1.8,1.2c-0.8,0.3-1.6,0.4-2.6,0.4c-1,0-1.8-0.2-2.6-0.6s-1.3-1.1-1.7-1.9
			c-0.4-0.8-0.6-1.8-0.6-2.9V43c0-1.1,0.2-2.1,0.6-2.9s0.9-1.5,1.7-1.9c0.7-0.4,1.6-0.7,2.5-0.7c1.3,0,2.4,0.3,3.2,1
			c0.8,0.6,1.2,1.6,1.4,2.8h-2.3c-0.1-0.7-0.3-1.1-0.7-1.4c-0.4-0.3-0.8-0.5-1.5-0.5c-0.8,0-1.4,0.3-1.8,0.9
			c-0.4,0.6-0.6,1.5-0.6,2.7v0.7c0,1.2,0.2,2.1,0.7,2.7s1.1,0.9,2,0.9c0.9,0,1.5-0.2,1.9-0.6v-2h-2.1V43h4.5V47.6z"/>
	</g>
	<g>
		<path class="st1" d="M194.1,49.2c-1.2,0-2.2-0.4-3-1.1c-0.8-0.8-1.2-1.8-1.2-3v-0.2c0-0.8,0.2-1.6,0.5-2.3s0.8-1.2,1.4-1.5
			s1.3-0.5,2.1-0.5c1.2,0,2.1,0.4,2.7,1.1s1,1.8,1,3.1v0.9h-5.4c0.1,0.6,0.3,1,0.7,1.3s0.8,0.5,1.4,0.5c0.9,0,1.5-0.3,2-0.9l1.1,1.2
			c-0.3,0.5-0.8,0.9-1.4,1.1S194.8,49.2,194.1,49.2z M193.8,42.2c-0.4,0-0.8,0.2-1.1,0.5c-0.3,0.3-0.5,0.7-0.5,1.3h3.1v-0.2
			c0-0.5-0.1-0.9-0.4-1.2C194.7,42.3,194.3,42.2,193.8,42.2z"/>
	</g>
	<g>
		<path class="st1" d="M201.4,40.5l0.1,1c0.6-0.8,1.4-1.1,2.4-1.1c0.9,0,1.6,0.3,2,0.8s0.7,1.3,0.7,2.4V49h-2.3v-5.4
			c0-0.5-0.1-0.8-0.3-1c-0.2-0.2-0.6-0.3-1-0.3c-0.6,0-1.1,0.3-1.4,0.8v6h-2.3v-8.5H201.4z"/>
	</g>
	<g>
		<path class="st1" d="M212.6,49.2c-1.2,0-2.2-0.4-3-1.1c-0.8-0.8-1.2-1.8-1.2-3v-0.2c0-0.8,0.2-1.6,0.5-2.3s0.8-1.2,1.4-1.5
			s1.3-0.5,2.1-0.5c1.2,0,2.1,0.4,2.7,1.1s1,1.8,1,3.1v0.9h-5.4c0.1,0.6,0.3,1,0.7,1.3s0.8,0.5,1.4,0.5c0.9,0,1.5-0.3,2-0.9l1.1,1.2
			c-0.3,0.5-0.8,0.9-1.4,1.1S213.3,49.2,212.6,49.2z M212.3,42.2c-0.4,0-0.8,0.2-1.1,0.5c-0.3,0.3-0.5,0.7-0.5,1.3h3.1v-0.2
			c0-0.5-0.1-0.9-0.4-1.2C213.2,42.3,212.8,42.2,212.3,42.2z"/>
	</g>
	<g>
		<path class="st1" d="M222.5,42.7c-0.3,0-0.6-0.1-0.8-0.1c-0.9,0-1.4,0.3-1.7,0.9V49h-2.3v-8.5h2.1l0.1,1c0.5-0.8,1.1-1.2,1.9-1.2
			c0.2,0,0.5,0,0.7,0.1L222.5,42.7z"/>
	</g>
	<g>
		<path class="st1" d="M228.7,49c-0.1-0.2-0.2-0.5-0.2-0.8c-0.5,0.6-1.3,0.9-2.1,0.9c-0.8,0-1.5-0.2-2.1-0.7
			c-0.5-0.5-0.8-1.1-0.8-1.8c0-0.9,0.3-1.6,1-2.1s1.6-0.7,2.9-0.7h1v-0.5c0-0.4-0.1-0.7-0.3-0.9c-0.2-0.2-0.5-0.4-0.9-0.4
			c-0.4,0-0.7,0.1-0.9,0.3c-0.2,0.2-0.3,0.4-0.3,0.8h-2.3c0-0.5,0.2-0.9,0.5-1.4c0.3-0.4,0.7-0.7,1.3-1c0.6-0.2,1.2-0.4,1.9-0.4
			c1,0,1.9,0.3,2.5,0.8c0.6,0.5,0.9,1.3,0.9,2.2V47c0,0.8,0.1,1.4,0.3,1.8V49H228.7z M226.8,47.4c0.3,0,0.6-0.1,0.9-0.2
			s0.5-0.3,0.6-0.6v-1.5h-0.8c-1.1,0-1.7,0.4-1.8,1.2l0,0.1c0,0.3,0.1,0.5,0.3,0.7C226.2,47.3,226.5,47.4,226.8,47.4z"/>
	</g>
	<g>
		<path class="st1" d="M235.2,49h-2.3V37h2.3V49z"/>
	</g>
	<g>
		<path class="st1" d="M242.5,49v-6.8h-1.3v-1.7h1.3v-0.7c0-0.9,0.3-1.7,0.8-2.2c0.5-0.5,1.3-0.8,2.3-0.8c0.3,0,0.7,0.1,1.1,0.2
			l0,1.7c-0.2,0-0.4-0.1-0.7-0.1c-0.8,0-1.3,0.4-1.3,1.2v0.7h1.7v1.7h-1.7V49H242.5z"/>
	</g>
	<g>
		<path class="st1" d="M253,49c-0.1-0.2-0.2-0.5-0.2-0.8c-0.5,0.6-1.3,0.9-2.1,0.9c-0.8,0-1.5-0.2-2.1-0.7c-0.5-0.5-0.8-1.1-0.8-1.8
			c0-0.9,0.3-1.6,1-2.1s1.6-0.7,2.9-0.7h1v-0.5c0-0.4-0.1-0.7-0.3-0.9c-0.2-0.2-0.5-0.4-0.9-0.4c-0.4,0-0.7,0.1-0.9,0.3
			c-0.2,0.2-0.3,0.4-0.3,0.8h-2.3c0-0.5,0.2-0.9,0.5-1.4c0.3-0.4,0.7-0.7,1.3-1c0.6-0.2,1.2-0.4,1.9-0.4c1,0,1.9,0.3,2.5,0.8
			c0.6,0.5,0.9,1.3,0.9,2.2V47c0,0.8,0.1,1.4,0.3,1.8V49H253z M251.1,47.4c0.3,0,0.6-0.1,0.9-0.2s0.5-0.3,0.6-0.6v-1.5h-0.8
			c-1.1,0-1.7,0.4-1.8,1.2l0,0.1c0,0.3,0.1,0.5,0.3,0.7C250.5,47.3,250.7,47.4,251.1,47.4z"/>
	</g>
	<g>
		<path class="st1" d="M260.6,47.3c0.4,0,0.8-0.1,1-0.3c0.3-0.2,0.4-0.5,0.4-0.9h2.1c0,0.6-0.2,1.1-0.5,1.6
			c-0.3,0.5-0.7,0.8-1.3,1.1c-0.5,0.3-1.1,0.4-1.8,0.4c-1.2,0-2.2-0.4-2.9-1.2c-0.7-0.8-1-1.8-1-3.2v-0.1c0-1.3,0.3-2.3,1-3.1
			c0.7-0.8,1.6-1.2,2.9-1.2c1.1,0,1.9,0.3,2.5,0.9c0.6,0.6,1,1.4,1,2.4H262c0-0.4-0.1-0.8-0.4-1.1c-0.3-0.3-0.6-0.4-1-0.4
			c-0.5,0-0.9,0.2-1.2,0.6c-0.3,0.4-0.4,1-0.4,1.9v0.2c0,0.9,0.1,1.5,0.4,1.9S260,47.3,260.6,47.3z"/>
	</g>
	<g>
		<path class="st1" d="M268.5,38.5v2.1h1.4v1.7h-1.4v4.2c0,0.3,0.1,0.5,0.2,0.7c0.1,0.1,0.3,0.2,0.7,0.2c0.2,0,0.5,0,0.7-0.1V49
			c-0.4,0.1-0.9,0.2-1.4,0.2c-1.6,0-2.4-0.8-2.4-2.4v-4.6H265v-1.7h1.2v-2.1H268.5z"/>
	</g>
	<g>
		<path class="st1" d="M271.1,44.7c0-0.8,0.2-1.6,0.5-2.2c0.3-0.7,0.8-1.2,1.4-1.5c0.6-0.4,1.3-0.5,2.1-0.5c1.1,0,2.1,0.3,2.8,1
			c0.7,0.7,1.1,1.6,1.2,2.8l0,0.6c0,1.3-0.4,2.3-1.1,3.1c-0.7,0.8-1.7,1.2-2.9,1.2s-2.2-0.4-2.9-1.2s-1.1-1.8-1.1-3.2V44.7z
			 M273.3,44.9c0,0.8,0.2,1.4,0.5,1.8c0.3,0.4,0.7,0.6,1.3,0.6c0.5,0,1-0.2,1.3-0.6c0.3-0.4,0.5-1.1,0.5-2c0-0.8-0.2-1.4-0.5-1.8
			c-0.3-0.4-0.7-0.6-1.3-0.6c-0.6,0-1,0.2-1.3,0.6C273.5,43.3,273.3,44,273.3,44.9z"/>
	</g>
	<g>
		<path class="st1" d="M285.7,42.7c-0.3,0-0.6-0.1-0.8-0.1c-0.9,0-1.4,0.3-1.7,0.9V49h-2.3v-8.5h2.1l0.1,1c0.5-0.8,1.1-1.2,1.9-1.2
			c0.2,0,0.5,0,0.7,0.1L285.7,42.7z"/>
	</g>
	<g>
		<path class="st1" d="M291.8,46.7c0-0.3-0.1-0.5-0.4-0.7s-0.7-0.3-1.3-0.4c-2-0.4-3-1.3-3-2.6c0-0.8,0.3-1.4,0.9-1.9
			c0.6-0.5,1.4-0.8,2.4-0.8c1.1,0,1.9,0.3,2.6,0.8c0.6,0.5,1,1.2,1,2h-2.3c0-0.3-0.1-0.6-0.3-0.8c-0.2-0.2-0.5-0.3-1-0.3
			c-0.4,0-0.7,0.1-0.9,0.3c-0.2,0.2-0.3,0.4-0.3,0.7c0,0.2,0.1,0.5,0.4,0.6c0.2,0.2,0.6,0.3,1.2,0.4s1,0.2,1.4,0.4
			c1.2,0.4,1.8,1.2,1.8,2.3c0,0.8-0.3,1.4-1,1.9c-0.7,0.5-1.5,0.7-2.6,0.7c-0.7,0-1.3-0.1-1.9-0.4c-0.5-0.3-1-0.6-1.3-1
			s-0.5-0.9-0.5-1.4h2.1c0,0.4,0.2,0.7,0.4,0.9c0.3,0.2,0.6,0.3,1.1,0.3c0.4,0,0.8-0.1,1-0.2C291.7,47.1,291.8,46.9,291.8,46.7z"/>
	</g>
</g>
<g>
	<g>
		<path class="st3" d="M181.3,60l2.9,7.6L187,60h2.2v10h-1.7v-3.3l0.2-4.4l-2.9,7.7h-1.2l-2.9-7.7l0.2,4.4V70H179V60H181.3z"/>
	</g>
	<g>
		<path class="st3" d="M194.7,70.1c-1.1,0-1.9-0.3-2.6-1c-0.7-0.7-1-1.5-1-2.6v-0.2c0-0.7,0.1-1.4,0.4-2c0.3-0.6,0.7-1,1.2-1.4
			s1.1-0.5,1.7-0.5c1,0,1.8,0.3,2.3,1s0.8,1.6,0.8,2.7v0.7h-4.8c0.1,0.6,0.3,1.1,0.6,1.4s0.8,0.5,1.4,0.5c0.8,0,1.4-0.3,1.9-0.9
			l0.9,0.9c-0.3,0.4-0.7,0.8-1.2,1C195.9,70,195.4,70.1,194.7,70.1z M194.5,63.8c-0.5,0-0.8,0.2-1.1,0.5s-0.5,0.8-0.5,1.3h3.2v-0.1
			c0-0.6-0.2-1-0.4-1.3C195.4,63.9,195,63.8,194.5,63.8z"/>
	</g>
	<g>
		<path class="st3" d="M201.5,60.8v1.8h1.3v1.2h-1.3V68c0,0.3,0.1,0.5,0.2,0.6c0.1,0.1,0.3,0.2,0.6,0.2c0.2,0,0.4,0,0.6-0.1V70
			c-0.4,0.1-0.7,0.2-1.1,0.2c-1.3,0-1.9-0.7-1.9-2.1v-4.2h-1.2v-1.2h1.2v-1.8H201.5z"/>
	</g>
	<g>
		<path class="st3" d="M208.8,70c-0.1-0.1-0.1-0.4-0.2-0.7c-0.5,0.6-1.2,0.8-1.9,0.8c-0.7,0-1.3-0.2-1.8-0.6s-0.7-0.9-0.7-1.6
			c0-0.8,0.3-1.4,0.9-1.8c0.6-0.4,1.4-0.6,2.5-0.6h1V65c0-0.4-0.1-0.7-0.3-0.9c-0.2-0.2-0.5-0.3-1-0.3c-0.4,0-0.7,0.1-0.9,0.3
			c-0.2,0.2-0.4,0.4-0.4,0.7h-1.7c0-0.4,0.1-0.8,0.4-1.1c0.3-0.4,0.6-0.6,1.1-0.8s1-0.3,1.5-0.3c0.9,0,1.6,0.2,2.1,0.7
			c0.5,0.4,0.8,1,0.8,1.8v3.3c0,0.7,0.1,1.2,0.3,1.6V70H208.8z M207,68.8c0.3,0,0.6-0.1,0.9-0.2s0.5-0.4,0.7-0.6v-1.4h-0.9
			c-0.6,0-1.1,0.1-1.4,0.3s-0.5,0.5-0.5,0.9c0,0.3,0.1,0.6,0.3,0.8C206.4,68.7,206.6,68.8,207,68.8z"/>
	</g>
	<g>
		<path class="st3" d="M218.9,66.4c0,1.1-0.3,2.1-0.8,2.7s-1.2,1-2.1,1c-0.9,0-1.5-0.3-2-0.9l-0.1,0.8h-1.5V59.5h1.7v3.8
			c0.5-0.6,1.1-0.8,1.9-0.8c0.9,0,1.6,0.3,2.1,1S218.9,65.1,218.9,66.4L218.9,66.4z M217.2,66.2c0-0.8-0.1-1.4-0.4-1.8
			s-0.7-0.6-1.2-0.6c-0.7,0-1.2,0.3-1.5,0.9v3c0.3,0.6,0.8,1,1.5,1c0.5,0,0.9-0.2,1.2-0.6s0.4-1,0.4-1.8V66.2z"/>
	</g>
	<g>
		<path class="st3" d="M220.3,66.2c0-0.7,0.1-1.4,0.4-2c0.3-0.6,0.7-1,1.2-1.3c0.5-0.3,1.1-0.5,1.8-0.5c1,0,1.8,0.3,2.4,1
			s1,1.5,1,2.6l0,0.4c0,0.7-0.1,1.4-0.4,2s-0.7,1-1.2,1.3s-1.1,0.5-1.8,0.5c-1,0-1.9-0.3-2.5-1C220.6,68.4,220.3,67.5,220.3,66.2
			L220.3,66.2z M222,66.4c0,0.8,0.2,1.4,0.5,1.8c0.3,0.4,0.8,0.6,1.3,0.6s1-0.2,1.3-0.7s0.5-1.1,0.5-1.9c0-0.7-0.2-1.3-0.5-1.8
			s-0.8-0.7-1.3-0.7c-0.5,0-1,0.2-1.3,0.6C222.1,64.9,222,65.5,222,66.4z"/>
	</g>
	<g>
		<path class="st3" d="M230.7,70h-1.7V59.5h1.7V70z"/>
	</g>
	<g>
		<path class="st3" d="M232.9,60.7c0-0.3,0.1-0.5,0.2-0.6s0.4-0.3,0.7-0.3s0.5,0.1,0.7,0.3s0.2,0.4,0.2,0.6c0,0.3-0.1,0.5-0.2,0.6
			c-0.2,0.2-0.4,0.3-0.7,0.3s-0.5-0.1-0.7-0.3C233,61.1,232.9,60.9,232.9,60.7z M234.7,70H233v-7.4h1.7V70z"/>
	</g>
	<g>
		<path class="st3" d="M238.7,68.7h3.9V70h-6v-1.1l3.8-5h-3.7v-1.3h5.8v1.1L238.7,68.7z"/>
	</g>
	<g>
		<path class="st3" d="M248.7,70c-0.1-0.1-0.1-0.4-0.2-0.7c-0.5,0.6-1.2,0.8-1.9,0.8c-0.7,0-1.3-0.2-1.8-0.6s-0.7-0.9-0.7-1.6
			c0-0.8,0.3-1.4,0.9-1.8c0.6-0.4,1.4-0.6,2.5-0.6h1V65c0-0.4-0.1-0.7-0.3-0.9c-0.2-0.2-0.5-0.3-1-0.3c-0.4,0-0.7,0.1-0.9,0.3
			c-0.2,0.2-0.4,0.4-0.4,0.7h-1.7c0-0.4,0.1-0.8,0.4-1.1c0.3-0.4,0.6-0.6,1.1-0.8s1-0.3,1.5-0.3c0.9,0,1.6,0.2,2.1,0.7
			c0.5,0.4,0.8,1,0.8,1.8v3.3c0,0.7,0.1,1.2,0.3,1.6V70H248.7z M246.9,68.8c0.3,0,0.6-0.1,0.9-0.2s0.5-0.4,0.7-0.6v-1.4h-0.9
			c-0.6,0-1.1,0.1-1.4,0.3s-0.5,0.5-0.5,0.9c0,0.3,0.1,0.6,0.3,0.8C246.3,68.7,246.5,68.8,246.9,68.8z"/>
	</g>
	<g>
		<path class="st3" d="M258.7,66.4c0,1.1-0.3,2.1-0.8,2.7s-1.2,1-2.1,1c-0.9,0-1.5-0.3-2-0.9l-0.1,0.8h-1.5V59.5h1.7v3.8
			c0.5-0.6,1.1-0.8,1.9-0.8c0.9,0,1.6,0.3,2.1,1S258.7,65.1,258.7,66.4L258.7,66.4z M257.1,66.2c0-0.8-0.1-1.4-0.4-1.8
			s-0.7-0.6-1.2-0.6c-0.7,0-1.2,0.3-1.5,0.9v3c0.3,0.6,0.8,1,1.5,1c0.5,0,0.9-0.2,1.2-0.6s0.4-1,0.4-1.8V66.2z"/>
	</g>
	<g>
		<path class="st3" d="M262.3,70h-1.7V59.5h1.7V70z"/>
	</g>
	<g>
		<path class="st3" d="M267.7,70.1c-1.1,0-1.9-0.3-2.6-1c-0.7-0.7-1-1.5-1-2.6v-0.2c0-0.7,0.1-1.4,0.4-2c0.3-0.6,0.7-1,1.2-1.4
			s1.1-0.5,1.7-0.5c1,0,1.8,0.3,2.3,1s0.8,1.6,0.8,2.7v0.7h-4.8c0.1,0.6,0.3,1.1,0.6,1.4s0.8,0.5,1.4,0.5c0.8,0,1.4-0.3,1.9-0.9
			l0.9,0.9c-0.3,0.4-0.7,0.8-1.2,1C268.9,70,268.3,70.1,267.7,70.1z M267.5,63.8c-0.5,0-0.8,0.2-1.1,0.5s-0.5,0.8-0.5,1.3h3.2v-0.1
			c0-0.6-0.2-1-0.4-1.3C268.3,63.9,268,63.8,267.5,63.8z"/>
	</g>
	<g>
		<path class="st3" d="M182.1,88.1c-1.1,0-1.9-0.3-2.6-1c-0.7-0.7-1-1.5-1-2.6v-0.2c0-0.7,0.1-1.4,0.4-2c0.3-0.6,0.7-1,1.2-1.4
			s1.1-0.5,1.7-0.5c1,0,1.8,0.3,2.3,1s0.8,1.6,0.8,2.7v0.7h-4.8c0.1,0.6,0.3,1.1,0.6,1.4s0.8,0.5,1.4,0.5c0.8,0,1.4-0.3,1.9-0.9
			l0.9,0.9c-0.3,0.4-0.7,0.8-1.2,1C183.3,88,182.7,88.1,182.1,88.1z M181.9,81.8c-0.5,0-0.8,0.2-1.1,0.5s-0.5,0.8-0.5,1.3h3.2v-0.1
			c0-0.6-0.2-1-0.4-1.3C182.7,81.9,182.4,81.8,181.9,81.8z"/>
	</g>
	<g>
		<path class="st3" d="M188.3,80.6l0,0.9c0.5-0.7,1.3-1,2.2-1c1.5,0,2.3,0.9,2.4,2.6V88h-1.7v-4.8c0-0.5-0.1-0.8-0.3-1
			c-0.2-0.2-0.5-0.3-1-0.3c-0.7,0-1.2,0.3-1.5,0.9V88h-1.7v-7.4H188.3z"/>
	</g>
	<g>
		<path class="st3" d="M198.2,88.1c-1.1,0-1.9-0.3-2.6-1c-0.7-0.7-1-1.5-1-2.6v-0.2c0-0.7,0.1-1.4,0.4-2c0.3-0.6,0.7-1,1.2-1.4
			s1.1-0.5,1.7-0.5c1,0,1.8,0.3,2.3,1s0.8,1.6,0.8,2.7v0.7h-4.8c0.1,0.6,0.3,1.1,0.6,1.4s0.8,0.5,1.4,0.5c0.8,0,1.4-0.3,1.9-0.9
			l0.9,0.9c-0.3,0.4-0.7,0.8-1.2,1C199.3,88,198.8,88.1,198.2,88.1z M198,81.8c-0.5,0-0.8,0.2-1.1,0.5s-0.5,0.8-0.5,1.3h3.2v-0.1
			c0-0.6-0.2-1-0.4-1.3C198.8,81.9,198.4,81.8,198,81.8z"/>
	</g>
	<g>
		<path class="st3" d="M206.7,82.1c-0.2,0-0.4-0.1-0.7-0.1c-0.8,0-1.3,0.3-1.5,0.9V88h-1.7v-7.4h1.6l0,0.8c0.4-0.6,1-1,1.7-1
			c0.2,0,0.4,0,0.6,0.1L206.7,82.1z"/>
	</g>
	<g>
		<path class="st3" d="M207.7,84.2c0-1.1,0.3-2.1,0.8-2.8c0.5-0.7,1.3-1,2.1-1c0.8,0,1.5,0.3,2,0.9l0.1-0.7h1.5v7.2
			c0,1-0.3,1.7-0.9,2.3s-1.4,0.8-2.4,0.8c-0.5,0-1.1-0.1-1.6-0.3c-0.5-0.2-0.9-0.5-1.2-0.9l0.8-1c0.5,0.6,1.1,0.9,1.9,0.9
			c0.6,0,1-0.1,1.3-0.4c0.3-0.3,0.5-0.7,0.5-1.3v-0.5c-0.5,0.5-1.1,0.8-1.9,0.8c-0.9,0-1.6-0.3-2.1-1S207.7,85.5,207.7,84.2z
			 M209.3,84.4c0,0.7,0.2,1.3,0.5,1.8c0.3,0.4,0.7,0.6,1.3,0.6c0.7,0,1.2-0.3,1.5-0.9v-3.3c-0.3-0.6-0.8-0.8-1.5-0.8
			c-0.5,0-1,0.2-1.3,0.6S209.3,83.5,209.3,84.4z"/>
	</g>
	<g>
		<path class="st3" d="M218.9,85.6l1.5-5h1.8l-2.9,8.5c-0.5,1.2-1.2,1.9-2.3,1.9c-0.2,0-0.5,0-0.8-0.1v-1.3l0.3,0
			c0.4,0,0.7-0.1,0.9-0.2c0.2-0.2,0.4-0.4,0.5-0.8l0.2-0.6l-2.6-7.4h1.8L218.9,85.6z"/>
	</g>
	<g>
		<path class="st3" d="M227.4,84c0-1.1,0.1-2.1,0.4-3c0.3-0.9,0.7-1.8,1.2-2.5c0.5-0.7,1.1-1.3,1.7-1.6l0.3,1
			c-0.6,0.5-1.2,1.2-1.6,2.2c-0.4,1-0.6,2.1-0.7,3.4l0,0.6c0,1.4,0.2,2.6,0.6,3.7c0.4,1.1,0.9,1.9,1.6,2.5l-0.3,0.9
			c-0.6-0.3-1.2-0.8-1.7-1.6c-0.5-0.8-1-1.6-1.2-2.5C227.5,86.1,227.4,85.1,227.4,84z"/>
	</g>
	<g>
		<path class="st3" d="M235,78l2.9,7.6l2.9-7.6h2.2v10h-1.7v-3.3l0.2-4.4l-2.9,7.7h-1.2l-2.9-7.7l0.2,4.4V88h-1.7V78H235z"/>
	</g>
	<g>
		<path class="st3" d="M251.2,83.6h-4.1v3h4.8V88h-6.5V78h6.5v1.4h-4.7v2.7h4.1V83.6z"/>
	</g>
	<g>
		<path class="st3" d="M256.7,84.1c0,1-0.1,2-0.4,2.9c-0.3,0.9-0.7,1.8-1.3,2.6c-0.6,0.8-1.2,1.3-1.8,1.6l-0.3-0.9
			c0.7-0.5,1.2-1.3,1.6-2.4c0.4-1.1,0.6-2.3,0.6-3.7v-0.2c0-1.3-0.2-2.4-0.5-3.5c-0.3-1-0.8-1.9-1.5-2.5l-0.2-0.2l0.3-0.9
			c0.6,0.3,1.1,0.8,1.7,1.5s1,1.5,1.3,2.4c0.3,0.9,0.5,1.8,0.5,2.8L256.7,84.1z"/>
	</g>
</g>
<g>
	<path class="st4" d="M202.3,415.6h1.1c0.7,0,1.2-0.2,1.6-0.5s0.6-0.8,0.6-1.4c0-1.3-0.7-2-2-2c-0.6,0-1.1,0.2-1.5,0.5
		c-0.4,0.4-0.6,0.8-0.6,1.4h-1.4c0-0.9,0.3-1.6,1-2.2c0.7-0.6,1.5-0.9,2.5-0.9c1.1,0,1.9,0.3,2.5,0.9s0.9,1.4,0.9,2.4
		c0,0.5-0.2,1-0.5,1.4s-0.8,0.8-1.3,1c0.6,0.2,1.1,0.5,1.4,1c0.3,0.5,0.5,1,0.5,1.7c0,1-0.3,1.8-1,2.4c-0.7,0.6-1.5,0.9-2.6,0.9
		c-1.1,0-1.9-0.3-2.6-0.9c-0.7-0.6-1-1.3-1-2.3h1.5c0,0.6,0.2,1.1,0.6,1.4s0.9,0.5,1.6,0.5c0.7,0,1.2-0.2,1.6-0.5
		c0.4-0.4,0.6-0.9,0.6-1.6c0-0.7-0.2-1.2-0.6-1.5s-1-0.5-1.8-0.5h-1.1V415.6z"/>
</g>
<g>
	<path class="st4" d="M209.8,421.2c0-0.2,0.1-0.5,0.2-0.6s0.4-0.2,0.7-0.2s0.5,0.1,0.7,0.2c0.2,0.2,0.2,0.4,0.2,0.6
		c0,0.2-0.1,0.4-0.2,0.6c-0.2,0.2-0.4,0.2-0.7,0.2s-0.5-0.1-0.7-0.2S209.8,421.5,209.8,421.2z"/>
</g>
<g>
	<path class="st4" d="M221.7,422h-7.5v-1l3.9-4.4c0.6-0.7,1-1.2,1.2-1.6c0.2-0.4,0.3-0.8,0.3-1.3c0-0.6-0.2-1.1-0.5-1.5
		s-0.8-0.6-1.4-0.6c-0.7,0-1.3,0.2-1.7,0.6s-0.6,1-0.6,1.7H214c0-1,0.3-1.9,1-2.5c0.7-0.6,1.6-1,2.7-1c1.1,0,1.9,0.3,2.5,0.8
		c0.6,0.6,0.9,1.3,0.9,2.2c0,1.1-0.7,2.5-2.1,4l-3,3.3h5.7V422z"/>
</g>
<g>
	<path class="st4" d="M403.3,415.6h1.1c0.7,0,1.2-0.2,1.6-0.5s0.6-0.8,0.6-1.4c0-1.3-0.7-2-2-2c-0.6,0-1.1,0.2-1.5,0.5
		c-0.4,0.4-0.6,0.8-0.6,1.4h-1.4c0-0.9,0.3-1.6,1-2.2c0.7-0.6,1.5-0.9,2.5-0.9c1.1,0,1.9,0.3,2.5,0.9s0.9,1.4,0.9,2.4
		c0,0.5-0.2,1-0.5,1.4s-0.8,0.8-1.3,1c0.6,0.2,1.1,0.5,1.4,1c0.3,0.5,0.5,1,0.5,1.7c0,1-0.3,1.8-1,2.4c-0.7,0.6-1.5,0.9-2.6,0.9
		c-1.1,0-1.9-0.3-2.6-0.9c-0.7-0.6-1-1.3-1-2.3h1.5c0,0.6,0.2,1.1,0.6,1.4s0.9,0.5,1.6,0.5c0.7,0,1.2-0.2,1.6-0.5
		c0.4-0.4,0.6-0.9,0.6-1.6c0-0.7-0.2-1.2-0.6-1.5s-1-0.5-1.8-0.5h-1.1V415.6z"/>
</g>
<g>
	<path class="st4" d="M410.8,421.2c0-0.2,0.1-0.5,0.2-0.6s0.4-0.2,0.7-0.2s0.5,0.1,0.7,0.2c0.2,0.2,0.2,0.4,0.2,0.6
		c0,0.2-0.1,0.4-0.2,0.6c-0.2,0.2-0.4,0.2-0.7,0.2s-0.5-0.1-0.7-0.2S410.8,421.5,410.8,421.2z"/>
</g>
<g>
	<path class="st4" d="M422.1,413.6c0,0.6-0.2,1.1-0.4,1.5c-0.3,0.4-0.7,0.8-1.2,1c0.6,0.3,1.1,0.6,1.4,1.1c0.3,0.5,0.5,1,0.5,1.7
		c0,1-0.3,1.8-1,2.4s-1.5,0.9-2.6,0.9c-1.1,0-2-0.3-2.6-0.9c-0.7-0.6-1-1.4-1-2.3c0-0.6,0.2-1.2,0.5-1.7s0.8-0.9,1.4-1.1
		c-0.5-0.2-0.9-0.6-1.2-1c-0.3-0.4-0.4-0.9-0.4-1.5c0-1,0.3-1.7,0.9-2.3c0.6-0.6,1.4-0.8,2.4-0.8c1,0,1.8,0.3,2.4,0.8
		S422.1,412.6,422.1,413.6z M421,418.9c0-0.6-0.2-1.2-0.6-1.6c-0.4-0.4-0.9-0.6-1.6-0.6c-0.7,0-1.2,0.2-1.6,0.6
		c-0.4,0.4-0.6,0.9-0.6,1.6s0.2,1.2,0.6,1.5s0.9,0.6,1.6,0.6c0.7,0,1.2-0.2,1.6-0.6C420.8,420,421,419.5,421,418.9z M418.8,411.7
		c-0.6,0-1,0.2-1.4,0.5s-0.5,0.8-0.5,1.4c0,0.6,0.2,1,0.5,1.4c0.3,0.4,0.8,0.5,1.4,0.5s1-0.2,1.4-0.5c0.3-0.4,0.5-0.8,0.5-1.4
		s-0.2-1-0.5-1.4S419.3,411.7,418.8,411.7z"/>
</g>
<g>
	<path class="st4" d="M607.1,259.6c0,0.6-0.1,1.1-0.4,1.5s-0.7,0.8-1.2,1c0.6,0.3,1.1,0.6,1.4,1.1s0.5,1,0.5,1.7c0,1-0.3,1.8-1,2.4
		s-1.5,0.9-2.6,0.9c-1.1,0-2-0.3-2.6-0.9s-1-1.4-1-2.3c0-0.6,0.2-1.2,0.5-1.7s0.8-0.9,1.4-1.1c-0.5-0.2-0.9-0.6-1.2-1
		s-0.4-0.9-0.4-1.5c0-1,0.3-1.7,0.9-2.3s1.4-0.8,2.4-0.8c1,0,1.8,0.3,2.4,0.8S607.1,258.6,607.1,259.6z M605.9,264.9
		c0-0.6-0.2-1.2-0.6-1.6s-0.9-0.6-1.6-0.6s-1.2,0.2-1.6,0.6s-0.6,0.9-0.6,1.6s0.2,1.2,0.6,1.5s0.9,0.6,1.6,0.6
		c0.7,0,1.2-0.2,1.6-0.6S605.9,265.5,605.9,264.9z M603.7,257.7c-0.6,0-1,0.2-1.4,0.5s-0.5,0.8-0.5,1.4c0,0.6,0.2,1,0.5,1.4
		s0.8,0.5,1.4,0.5s1-0.2,1.4-0.5s0.5-0.8,0.5-1.4s-0.2-1-0.5-1.4S604.3,257.7,603.7,257.7z"/>
</g>
<g>
	<path class="st4" d="M609.8,267.2c0-0.2,0.1-0.5,0.2-0.6s0.4-0.2,0.7-0.2s0.5,0.1,0.7,0.2c0.2,0.2,0.2,0.4,0.2,0.6
		c0,0.2-0.1,0.4-0.2,0.6c-0.2,0.2-0.4,0.2-0.7,0.2s-0.5-0.1-0.7-0.2S609.8,267.5,609.8,267.2z"/>
</g>
<g>
	<path class="st4" d="M621.6,257.4l-4.7,10.6h-1.5l4.7-10.2h-6.2v-1.2h7.7V257.4z"/>
</g>
<g>
	<g>
		<path class="st1" d="M187,529h-2.4v4h-3.1v-12h5.5c2.4,0,4,1.5,4,4C190.9,527.5,189.4,529,187,529z M186.6,523.8h-2v2.5h2
			c0.8,0,1.2-0.5,1.2-1.3C187.8,524.3,187.3,523.8,186.6,523.8z"/>
	</g>
	<g>
		<path class="st1" d="M195.6,529.1v3.9h-2.9v-8.3h2.8v0.7c0.5-0.5,1.2-0.8,2.2-0.8v2.8C196.5,527.4,195.6,528,195.6,529.1z"/>
	</g>
	<g>
		<path class="st1" d="M203.7,524.5c2.6,0,4.5,1.8,4.5,4.4c0,2.6-1.9,4.3-4.5,4.3c-2.6,0-4.5-1.7-4.5-4.3
			C199.2,526.2,201.1,524.5,203.7,524.5z M203.7,527c-1,0-1.6,0.8-1.6,1.9c0,1.1,0.5,1.8,1.6,1.8c1,0,1.6-0.8,1.6-1.8
			C205.3,527.8,204.7,527,203.7,527z"/>
	</g>
	<g>
		<path class="st1" d="M215,530.6c0.2,0,0.5,0,0.7-0.1v2.6c-0.5,0.1-1,0.1-1.4,0.1c-2,0-3.3-0.9-3.3-2.9l0-3.1h-1.5v-2.5h1.5l0-2.7
			h2.9l0,2.7h1.8v2.5h-1.8l0,2.3C213.8,530.2,214.3,530.6,215,530.6z"/>
	</g>
	<g>
		<path class="st1" d="M225.7,528.7v0.9h-5.3c0,0.9,0.4,1.3,1.2,1.3c0.6,0,0.9-0.2,1.1-0.6l2.9,0.1c-0.3,1.7-2,2.7-3.9,2.7
			c-2.6,0-4.4-1.7-4.4-4.3c0-2.6,1.7-4.4,4.3-4.4C224.1,524.5,225.7,526.1,225.7,528.7z M220.4,527.9h2.4c0-0.9-0.4-1.3-1.2-1.3
			C220.8,526.6,220.4,527.2,220.4,527.9z"/>
	</g>
	<g>
		<path class="st1" d="M229.2,520.4c0.9,0,1.7,0.8,1.7,1.7c0,0.9-0.8,1.7-1.7,1.7c-0.9,0-1.7-0.8-1.7-1.7
			C227.5,521.2,228.3,520.4,229.2,520.4z M227.7,533v-8.3h2.9v8.3H227.7z"/>
	</g>
	<g>
		<path class="st1" d="M236,528.5v4.5h-2.9v-8.3h2.8v0.6c0.4-0.5,1.1-0.8,2-0.8c2,0,3.2,1.3,3.2,3.3v5.2h-2.9v-4.5
			c0-0.9-0.4-1.3-1.1-1.3C236.4,527.2,236,527.7,236,528.5z"/>
	</g>
</g>
<g>
	<g>
		<path class="st1" d="M361.4,533.2c-1.8,0-3.3-0.6-4.5-1.7c-1.2-1.1-1.7-2.6-1.7-4.5s0.6-3.4,1.7-4.5c1.2-1.1,2.7-1.7,4.5-1.7
			c1.5,0,2.8,0.4,3.9,1.2c1.1,0.8,1.7,2,2,3.4l-3.2,0.3c-0.3-1.5-1.2-2.2-2.7-2.2c-1.9,0-3,1.5-3,3.4c0,2,1.1,3.4,3,3.4
			c1.5,0,2.4-0.9,2.7-2.2l3.2,0.3C366.8,531.3,364.5,533.2,361.4,533.2z"/>
	</g>
	<g>
		<path class="st1" d="M372.1,527.6l-2.9-0.1c0-0.8,0.3-1.5,1-2.1c0.7-0.6,1.6-0.9,2.6-0.9c2.3,0,3.6,1.1,3.6,3.4v5.1h-2.7v-0.6
			c-0.5,0.5-1.1,0.8-2,0.8c-1.7,0-2.8-0.8-2.8-2.5c0-1.6,1.2-2.5,3.6-2.6l0.9,0v-0.4c0-0.5-0.2-0.8-0.7-0.8
			C372.4,526.9,372.1,527.2,372.1,527.6z M373.5,530.2v-0.4l-0.7,0c-0.6,0-0.9,0.2-0.9,0.6c0,0.4,0.2,0.6,0.7,0.6
			C373,531,373.5,530.7,373.5,530.2z"/>
	</g>
	<g>
		<path class="st1" d="M381.7,529.1v3.9h-2.9v-8.3h2.8v0.7c0.5-0.5,1.2-0.8,2.2-0.8v2.8C382.6,527.4,381.7,528,381.7,529.1z"/>
	</g>
	<g>
		<path class="st1" d="M390.6,533.2c-0.9,0-1.6-0.2-2.2-0.7v0.5h-2.8v-12.4h2.9v4.5c0.5-0.4,1.2-0.6,2-0.6c2.5,0,4,1.9,4,4.4
			C394.6,531.3,393.1,533.2,390.6,533.2z M390.1,527c-0.9,0-1.5,0.7-1.5,1.7v0.3c0,1,0.6,1.7,1.5,1.7c1,0,1.6-0.8,1.6-1.8
			C391.7,527.8,391.1,527,390.1,527z"/>
	</g>
	<g>
		<path class="st1" d="M400.8,524.5c2.6,0,4.5,1.8,4.5,4.4c0,2.6-1.9,4.3-4.5,4.3c-2.6,0-4.5-1.7-4.5-4.3
			C396.3,526.2,398.2,524.5,400.8,524.5z M400.8,527c-1,0-1.6,0.8-1.6,1.9c0,1.1,0.5,1.8,1.6,1.8c1,0,1.6-0.8,1.6-1.8
			C402.4,527.8,401.9,527,400.8,527z"/>
	</g>
	<g>
		<path class="st1" d="M410.3,528.5v4.5h-2.9v-12.4h2.9v4.6c0.5-0.4,1.1-0.6,1.9-0.6c2,0,3.2,1.3,3.2,3.3v5.2h-2.9v-4.5
			c0-0.9-0.4-1.3-1.1-1.3C410.7,527.2,410.3,527.7,410.3,528.5z"/>
	</g>
	<g>
		<path class="st1" d="M417.7,537.1l2.2-5l-3.2-7.4h3.2l1.6,4.2l1.5-4.2h3.2l-5.4,12.4H417.7z"/>
	</g>
	<g>
		<path class="st1" d="M430.8,524.5c0.9,0,1.5,0.2,2,0.6v-4.5h2.9V533H433v-0.5c-0.5,0.5-1.3,0.7-2.2,0.7c-2.4,0-4-1.9-4-4.3
			C426.8,526.3,428.4,524.5,430.8,524.5z M431.3,527c-1,0-1.6,0.8-1.6,1.9c0,1.1,0.5,1.8,1.6,1.8c0.9,0,1.5-0.7,1.5-1.7v-0.3
			C432.9,527.7,432.3,527,431.3,527z"/>
	</g>
	<g>
		<path class="st1" d="M441.1,529.1v3.9h-2.9v-8.3h2.8v0.7c0.5-0.5,1.2-0.8,2.2-0.8v2.8C442,527.4,441.1,528,441.1,529.1z"/>
	</g>
	<g>
		<path class="st1" d="M447.8,527.6l-2.9-0.1c0-0.8,0.3-1.5,1-2.1c0.7-0.6,1.6-0.9,2.6-0.9c2.3,0,3.6,1.1,3.6,3.4v5.1h-2.7v-0.6
			c-0.5,0.5-1.1,0.8-2,0.8c-1.7,0-2.8-0.8-2.8-2.5c0-1.6,1.2-2.5,3.6-2.6l0.9,0v-0.4c0-0.5-0.2-0.8-0.7-0.8
			C448.2,526.9,447.8,527.2,447.8,527.6z M449.3,530.2v-0.4l-0.7,0c-0.6,0-0.9,0.2-0.9,0.6c0,0.4,0.2,0.6,0.7,0.6
			C448.8,531,449.3,530.7,449.3,530.2z"/>
	</g>
	<g>
		<path class="st1" d="M459.2,530.6c0.2,0,0.5,0,0.7-0.1v2.6c-0.5,0.1-1,0.1-1.4,0.1c-2,0-3.3-0.9-3.3-2.9l0-3.1h-1.5v-2.5h1.5
			l0-2.7h2.9l0,2.7h1.8v2.5h-1.8l0,2.3C458.1,530.2,458.6,530.6,459.2,530.6z"/>
	</g>
	<g>
		<path class="st1" d="M469.9,528.7v0.9h-5.3c0,0.9,0.4,1.3,1.2,1.3c0.6,0,0.9-0.2,1.1-0.6l2.9,0.1c-0.3,1.7-2,2.7-3.9,2.7
			c-2.6,0-4.4-1.7-4.4-4.3c0-2.6,1.7-4.4,4.3-4.4C468.4,524.5,469.9,526.1,469.9,528.7z M464.6,527.9h2.4c0-0.9-0.4-1.3-1.2-1.3
			C465.1,526.6,464.7,527.2,464.6,527.9z"/>
	</g>
</g>
<g>
	<g>
		<path class="st1" d="M602.1,523.8v1.7h3.8v2.7h-3.8v4.8H599v-12h7.8v2.7H602.1z"/>
	</g>
	<g>
		<path class="st1" d="M611.1,527.6l-2.9-0.1c0-0.8,0.3-1.5,1-2.1c0.7-0.6,1.6-0.9,2.6-0.9c2.3,0,3.6,1.1,3.6,3.4v5.1h-2.7v-0.6
			c-0.5,0.5-1.1,0.8-2,0.8c-1.7,0-2.8-0.8-2.8-2.5c0-1.6,1.2-2.5,3.7-2.6l0.9,0v-0.4c0-0.5-0.2-0.8-0.7-0.8
			C611.4,526.9,611.1,527.2,611.1,527.6z M612.5,530.2v-0.4l-0.7,0c-0.6,0-0.9,0.2-0.9,0.6c0,0.4,0.2,0.6,0.7,0.6
			C612,531,612.5,530.7,612.5,530.2z"/>
	</g>
	<g>
		<path class="st1" d="M622.5,530.6c0.2,0,0.5,0,0.7-0.1v2.6c-0.5,0.1-1,0.1-1.4,0.1c-2,0-3.3-0.9-3.3-2.9l0-3.1H617v-2.5h1.5l0-2.7
			h2.9l0,2.7h1.8v2.5h-1.8l0,2.3C621.4,530.2,621.9,530.6,622.5,530.6z"/>
	</g>
</g>
<g id="Line_1_">
	<rect x="160" y="344" class="st1" width="100" height="2"/>
</g>
<g id="Line-Copy-7">
	<rect x="361" y="317" class="st1" width="100" height="2"/>
</g>
<g id="Line-Copy-3">
	<rect x="560" y="73" class="st1" width="100" height="2"/>
</g>
<g>
	<g>
		<path class="st3" d="M688.9,267h-1.7l-4.4-7.1v7.1H681v-10h1.7l4.5,7.1V257h1.7V267z"/>
	</g>
	<g>
		<path class="st3" d="M694.4,267.1c-1.1,0-1.9-0.3-2.6-1c-0.7-0.7-1-1.5-1-2.6v-0.2c0-0.7,0.1-1.4,0.4-2c0.3-0.6,0.7-1,1.2-1.4
			s1.1-0.5,1.7-0.5c1,0,1.8,0.3,2.3,1c0.5,0.6,0.8,1.6,0.8,2.7v0.7h-4.8c0,0.6,0.3,1.1,0.6,1.4c0.4,0.4,0.8,0.5,1.3,0.5
			c0.8,0,1.4-0.3,1.9-0.9l0.9,0.9c-0.3,0.4-0.7,0.8-1.2,1C695.6,267,695,267.1,694.4,267.1z M694.2,260.8c-0.5,0-0.8,0.2-1.1,0.5
			c-0.3,0.3-0.5,0.8-0.5,1.3h3.2v-0.1c0-0.6-0.2-1-0.4-1.3C695,260.9,694.7,260.8,694.2,260.8z"/>
	</g>
	<g>
		<path class="st3" d="M701.1,257.8v1.8h1.3v1.2h-1.3v4.1c0,0.3,0.1,0.5,0.2,0.6c0.1,0.1,0.3,0.2,0.6,0.2c0.2,0,0.4,0,0.6-0.1v1.3
			c-0.4,0.1-0.7,0.2-1.1,0.2c-1.3,0-1.9-0.7-1.9-2.1v-4.2h-1.2v-1.2h1.2v-1.8H701.1z"/>
	</g>
	<g>
		<path class="st3" d="M709.5,259.6l0,0.8c0.5-0.6,1.2-0.9,2.1-0.9c1,0,1.7,0.4,2,1.1c0.5-0.8,1.3-1.1,2.3-1.1
			c0.8,0,1.4,0.2,1.8,0.7s0.6,1.1,0.6,2v4.9h-1.7v-4.8c0-0.5-0.1-0.8-0.3-1s-0.5-0.3-1-0.3c-0.4,0-0.7,0.1-0.9,0.3
			c-0.2,0.2-0.4,0.5-0.5,0.8l0,5.1h-1.7v-4.9c0-0.9-0.5-1.3-1.3-1.3c-0.7,0-1.1,0.3-1.4,0.8v5.4H708v-7.4H709.5z"/>
	</g>
	<g>
		<path class="st3" d="M723.8,267.1c-1.1,0-1.9-0.3-2.6-1c-0.7-0.7-1-1.5-1-2.6v-0.2c0-0.7,0.1-1.4,0.4-2c0.3-0.6,0.7-1,1.2-1.4
			c0.5-0.3,1.1-0.5,1.7-0.5c1,0,1.8,0.3,2.3,1s0.8,1.6,0.8,2.7v0.7h-4.8c0,0.6,0.3,1.1,0.6,1.4s0.8,0.5,1.3,0.5
			c0.8,0,1.4-0.3,1.9-0.9l0.9,0.9c-0.3,0.4-0.7,0.8-1.2,1C724.9,267,724.4,267.1,723.8,267.1z M723.6,260.8c-0.5,0-0.8,0.2-1.1,0.5
			s-0.5,0.8-0.5,1.3h3.2v-0.1c0-0.6-0.2-1-0.4-1.3C724.4,260.9,724,260.8,723.6,260.8z"/>
	</g>
	<g>
		<path class="st3" d="M730.5,257.8v1.8h1.3v1.2h-1.3v4.1c0,0.3,0.1,0.5,0.2,0.6c0.1,0.1,0.3,0.2,0.6,0.2c0.2,0,0.4,0,0.6-0.1v1.3
			c-0.4,0.1-0.7,0.2-1.1,0.2c-1.3,0-1.9-0.7-1.9-2.1v-4.2h-1.2v-1.2h1.2v-1.8H730.5z"/>
	</g>
	<g>
		<path class="st3" d="M737.9,267c-0.1-0.1-0.1-0.4-0.2-0.7c-0.5,0.6-1.2,0.8-1.9,0.8c-0.7,0-1.3-0.2-1.8-0.6
			c-0.5-0.4-0.7-0.9-0.7-1.6c0-0.8,0.3-1.4,0.9-1.8c0.6-0.4,1.4-0.6,2.5-0.6h1V262c0-0.4-0.1-0.7-0.3-0.9c-0.2-0.2-0.5-0.3-1-0.3
			c-0.4,0-0.7,0.1-0.9,0.3c-0.2,0.2-0.4,0.4-0.4,0.7h-1.7c0-0.4,0.1-0.8,0.4-1.1c0.3-0.4,0.6-0.6,1.1-0.8s1-0.3,1.5-0.3
			c0.9,0,1.6,0.2,2.1,0.7c0.5,0.4,0.8,1,0.8,1.8v3.3c0,0.7,0.1,1.2,0.3,1.6v0.1H737.9z M736,265.8c0.3,0,0.6-0.1,0.9-0.2
			s0.5-0.4,0.7-0.6v-1.4h-0.9c-0.6,0-1.1,0.1-1.4,0.3c-0.3,0.2-0.5,0.5-0.5,0.9c0,0.3,0.1,0.6,0.3,0.8
			C735.4,265.7,735.7,265.8,736,265.8z"/>
	</g>
	<g>
		<path class="st3" d="M747.9,263.4c0,1.1-0.3,2.1-0.8,2.7s-1.2,1-2.1,1c-0.9,0-1.5-0.3-2-0.9l-0.1,0.8h-1.5v-10.5h1.7v3.8
			c0.5-0.6,1.1-0.8,1.9-0.8c0.9,0,1.6,0.3,2.1,1C747.6,261.1,747.9,262.1,747.9,263.4L747.9,263.4z M746.2,263.2
			c0-0.8-0.1-1.4-0.4-1.8c-0.3-0.4-0.7-0.6-1.2-0.6c-0.7,0-1.2,0.3-1.5,0.9v3c0.3,0.6,0.8,1,1.5,1c0.5,0,0.9-0.2,1.2-0.6
			c0.3-0.4,0.4-1,0.4-1.8V263.2z"/>
	</g>
	<g>
		<path class="st3" d="M749.3,263.2c0-0.7,0.1-1.4,0.4-2c0.3-0.6,0.7-1,1.2-1.3c0.5-0.3,1.1-0.5,1.8-0.5c1,0,1.8,0.3,2.4,1
			s1,1.5,1,2.6l0,0.4c0,0.7-0.1,1.4-0.4,2s-0.7,1-1.2,1.3s-1.1,0.5-1.8,0.5c-1,0-1.9-0.3-2.5-1C749.7,265.4,749.3,264.5,749.3,263.2
			L749.3,263.2z M751,263.4c0,0.8,0.2,1.4,0.5,1.8c0.3,0.4,0.8,0.6,1.3,0.6s1-0.2,1.3-0.7s0.5-1.1,0.5-1.9c0-0.7-0.2-1.3-0.5-1.8
			s-0.8-0.7-1.3-0.7c-0.5,0-1,0.2-1.3,0.6C751.2,261.9,751,262.5,751,263.4z"/>
	</g>
	<g>
		<path class="st3" d="M759.8,267h-1.7v-10.5h1.7V267z"/>
	</g>
	<g>
		<path class="st3" d="M762,257.7c0-0.3,0.1-0.5,0.2-0.6c0.2-0.2,0.4-0.3,0.7-0.3s0.5,0.1,0.7,0.3s0.2,0.4,0.2,0.6
			c0,0.3-0.1,0.5-0.2,0.6c-0.2,0.2-0.4,0.3-0.7,0.3s-0.5-0.1-0.7-0.3C762,258.1,762,257.9,762,257.7z M763.7,267h-1.7v-7.4h1.7V267z
			"/>
	</g>
	<g>
		<path class="st3" d="M767.7,265.7h3.9v1.3h-6v-1.1l3.8-5h-3.7v-1.3h5.8v1.1L767.7,265.7z"/>
	</g>
	<g>
		<path class="st3" d="M777.7,267c-0.1-0.1-0.1-0.4-0.2-0.7c-0.5,0.6-1.2,0.8-1.9,0.8c-0.7,0-1.3-0.2-1.8-0.6s-0.7-0.9-0.7-1.6
			c0-0.8,0.3-1.4,0.9-1.8c0.6-0.4,1.4-0.6,2.5-0.6h1V262c0-0.4-0.1-0.7-0.3-0.9c-0.2-0.2-0.5-0.3-1-0.3c-0.4,0-0.7,0.1-0.9,0.3
			c-0.2,0.2-0.4,0.4-0.4,0.7h-1.7c0-0.4,0.1-0.8,0.4-1.1c0.3-0.4,0.6-0.6,1.1-0.8c0.5-0.2,1-0.3,1.5-0.3c0.9,0,1.6,0.2,2.1,0.7
			c0.5,0.4,0.8,1,0.8,1.8v3.3c0,0.7,0.1,1.2,0.3,1.6v0.1H777.7z M775.9,265.8c0.3,0,0.6-0.1,0.9-0.2c0.3-0.2,0.5-0.4,0.7-0.6v-1.4
			h-0.9c-0.6,0-1.1,0.1-1.4,0.3s-0.5,0.5-0.5,0.9c0,0.3,0.1,0.6,0.3,0.8C775.3,265.7,775.6,265.8,775.9,265.8z"/>
	</g>
	<g>
		<path class="st3" d="M787.8,263.4c0,1.1-0.3,2.1-0.8,2.7c-0.5,0.7-1.2,1-2.1,1c-0.9,0-1.5-0.3-2-0.9l-0.1,0.8h-1.5v-10.5h1.7v3.8
			c0.5-0.6,1.1-0.8,1.9-0.8c0.9,0,1.6,0.3,2.1,1S787.8,262.1,787.8,263.4L787.8,263.4z M786.1,263.2c0-0.8-0.1-1.4-0.4-1.8
			s-0.7-0.6-1.2-0.6c-0.7,0-1.2,0.3-1.5,0.9v3c0.3,0.6,0.8,1,1.5,1c0.5,0,0.9-0.2,1.2-0.6s0.4-1,0.4-1.8V263.2z"/>
	</g>
	<g>
		<path class="st3" d="M791.3,267h-1.7v-10.5h1.7V267z"/>
	</g>
	<g>
		<path class="st3" d="M796.7,267.1c-1.1,0-1.9-0.3-2.6-1c-0.7-0.7-1-1.5-1-2.6v-0.2c0-0.7,0.1-1.4,0.4-2c0.3-0.6,0.7-1,1.2-1.4
			s1.1-0.5,1.7-0.5c1,0,1.8,0.3,2.3,1c0.5,0.6,0.8,1.6,0.8,2.7v0.7h-4.8c0.1,0.6,0.3,1.1,0.6,1.4c0.4,0.4,0.8,0.5,1.4,0.5
			c0.8,0,1.4-0.3,1.9-0.9l0.9,0.9c-0.3,0.4-0.7,0.8-1.2,1C797.9,267,797.4,267.1,796.7,267.1z M796.6,260.8c-0.5,0-0.8,0.2-1.1,0.5
			c-0.3,0.3-0.5,0.8-0.5,1.3h3.2v-0.1c0-0.6-0.2-1-0.4-1.3C797.4,260.9,797,260.8,796.6,260.8z"/>
	</g>
	<g>
		<path class="st3" d="M684.1,285.1c-1.1,0-1.9-0.3-2.6-1c-0.7-0.7-1-1.5-1-2.6v-0.2c0-0.7,0.1-1.4,0.4-2c0.3-0.6,0.7-1,1.2-1.4
			s1.1-0.5,1.7-0.5c1,0,1.8,0.3,2.3,1c0.5,0.6,0.8,1.6,0.8,2.7v0.7h-4.8c0.1,0.6,0.3,1.1,0.6,1.4c0.4,0.4,0.8,0.5,1.4,0.5
			c0.8,0,1.4-0.3,1.9-0.9l0.9,0.9c-0.3,0.4-0.7,0.8-1.2,1C685.3,285,684.7,285.1,684.1,285.1z M683.9,278.8c-0.5,0-0.8,0.2-1.1,0.5
			c-0.3,0.3-0.5,0.8-0.5,1.3h3.2v-0.1c0-0.6-0.2-1-0.4-1.3C684.7,278.9,684.4,278.8,683.9,278.8z"/>
	</g>
	<g>
		<path class="st3" d="M690.3,277.6l0,0.9c0.5-0.7,1.3-1,2.2-1c1.5,0,2.3,0.9,2.4,2.6v4.9h-1.7v-4.8c0-0.5-0.1-0.8-0.3-1
			c-0.2-0.2-0.5-0.3-1-0.3c-0.7,0-1.2,0.3-1.5,0.9v5.3h-1.7v-7.4H690.3z"/>
	</g>
	<g>
		<path class="st3" d="M700.2,285.1c-1.1,0-1.9-0.3-2.6-1c-0.7-0.7-1-1.5-1-2.6v-0.2c0-0.7,0.1-1.4,0.4-2c0.3-0.6,0.7-1,1.2-1.4
			s1.1-0.5,1.7-0.5c1,0,1.8,0.3,2.3,1c0.5,0.6,0.8,1.6,0.8,2.7v0.7h-4.8c0.1,0.6,0.3,1.1,0.6,1.4c0.4,0.4,0.8,0.5,1.4,0.5
			c0.8,0,1.4-0.3,1.9-0.9l0.9,0.9c-0.3,0.4-0.7,0.8-1.2,1C701.3,285,700.8,285.1,700.2,285.1z M700,278.8c-0.5,0-0.8,0.2-1.1,0.5
			c-0.3,0.3-0.5,0.8-0.5,1.3h3.2v-0.1c0-0.6-0.2-1-0.4-1.3C700.8,278.9,700.4,278.8,700,278.8z"/>
	</g>
	<g>
		<path class="st3" d="M708.7,279.1c-0.2,0-0.4-0.1-0.7-0.1c-0.8,0-1.3,0.3-1.5,0.9v5.1h-1.7v-7.4h1.6l0,0.8c0.4-0.6,1-1,1.7-1
			c0.2,0,0.4,0,0.6,0.1L708.7,279.1z"/>
	</g>
	<g>
		<path class="st3" d="M709.7,281.2c0-1.1,0.3-2.1,0.8-2.8c0.5-0.7,1.3-1,2.2-1c0.8,0,1.5,0.3,2,0.9l0.1-0.7h1.5v7.2
			c0,1-0.3,1.7-0.9,2.3s-1.4,0.8-2.4,0.8c-0.5,0-1.1-0.1-1.6-0.3c-0.5-0.2-0.9-0.5-1.2-0.9l0.8-1c0.5,0.6,1.1,0.9,1.9,0.9
			c0.6,0,1-0.1,1.3-0.4c0.3-0.3,0.5-0.7,0.5-1.3v-0.5c-0.5,0.5-1.1,0.8-1.9,0.8c-0.9,0-1.6-0.3-2.1-1S709.7,282.5,709.7,281.2z
			 M711.3,281.4c0,0.7,0.2,1.3,0.5,1.8c0.3,0.4,0.7,0.6,1.3,0.6c0.7,0,1.2-0.3,1.5-0.9v-3.3c-0.3-0.6-0.8-0.8-1.5-0.8
			c-0.5,0-1,0.2-1.3,0.6S711.3,280.5,711.3,281.4z"/>
	</g>
	<g>
		<path class="st3" d="M720.9,282.6l1.5-5h1.8l-2.9,8.5c-0.5,1.2-1.2,1.9-2.3,1.9c-0.2,0-0.5,0-0.8-0.1v-1.3l0.3,0
			c0.4,0,0.7-0.1,0.9-0.2c0.2-0.2,0.4-0.4,0.5-0.8l0.2-0.6l-2.6-7.4h1.8L720.9,282.6z"/>
	</g>
	<g>
		<path class="st3" d="M729.4,281c0-1.1,0.1-2.1,0.4-3c0.3-0.9,0.7-1.8,1.2-2.5c0.5-0.7,1.1-1.3,1.7-1.6l0.3,1
			c-0.6,0.5-1.2,1.2-1.6,2.2c-0.4,1-0.6,2.1-0.7,3.4l0,0.6c0,1.4,0.2,2.6,0.6,3.7c0.4,1.1,0.9,1.9,1.6,2.5l-0.3,0.9
			c-0.6-0.3-1.2-0.8-1.7-1.6c-0.5-0.8-1-1.6-1.2-2.5C729.5,283.1,729.4,282.1,729.4,281z"/>
	</g>
	<g>
		<path class="st3" d="M742.7,285h-1.7l-4.4-7.1v7.1h-1.7v-10h1.7l4.4,7.1V275h1.7V285z"/>
	</g>
	<g>
		<path class="st3" d="M747.3,275l2.9,7.6l2.9-7.6h2.2v10h-1.7v-3.3l0.2-4.4l-2.9,7.7h-1.2l-2.9-7.7l0.2,4.4v3.3h-1.7v-10H747.3z"/>
	</g>
	<g>
		<path class="st3" d="M763.5,280.6h-4.1v3h4.8v1.4h-6.5v-10h6.5v1.4h-4.7v2.7h4.1V280.6z"/>
	</g>
	<g>
		<path class="st3" d="M769,281.1c0,1-0.1,2-0.4,2.9c-0.3,0.9-0.7,1.8-1.3,2.6c-0.6,0.8-1.2,1.3-1.8,1.6l-0.3-0.9
			c0.7-0.5,1.2-1.3,1.6-2.4c0.4-1.1,0.6-2.3,0.6-3.7v-0.2c0-1.3-0.2-2.4-0.5-3.5c-0.3-1-0.8-1.9-1.5-2.5l-0.2-0.2l0.3-0.9
			c0.6,0.3,1.1,0.8,1.7,1.5s1,1.5,1.3,2.4c0.3,0.9,0.5,1.8,0.5,2.8L769,281.1z"/>
	</g>
</g>
<g>
	<g>
		<path class="st1" d="M186.5,286.7h1.3v1.8h-1.3v2.5h-2.3v-2.5h-4.7l-0.1-1.4l4.7-7.5h2.3V286.7z M181.7,286.7h2.5v-4l-0.1,0.3
			L181.7,286.7z"/>
	</g>
	<g>
		<path class="st1" d="M197.6,286.4l-1.2,1.3v3.2h-2.3v-11.4h2.3v5.2l1-1.4l2.9-3.7h2.9l-4,5.1l4.2,6.3h-2.8L197.6,286.4z"/>
	</g>
	<g>
		<path class="st1" d="M207.8,289.3c0.4,0,0.8-0.1,1-0.3c0.3-0.2,0.4-0.5,0.4-0.9h2.1c0,0.6-0.2,1.1-0.5,1.6
			c-0.3,0.5-0.7,0.8-1.3,1.1c-0.5,0.3-1.1,0.4-1.8,0.4c-1.2,0-2.2-0.4-2.9-1.2c-0.7-0.8-1-1.8-1-3.2v-0.1c0-1.3,0.3-2.3,1-3.1
			c0.7-0.8,1.6-1.2,2.9-1.2c1.1,0,1.9,0.3,2.5,0.9c0.6,0.6,1,1.4,1,2.4h-2.1c0-0.4-0.1-0.8-0.4-1.1c-0.3-0.3-0.6-0.4-1-0.4
			c-0.5,0-0.9,0.2-1.2,0.6c-0.3,0.4-0.4,1-0.4,1.9v0.2c0,0.9,0.1,1.5,0.4,1.9S207.3,289.3,207.8,289.3z"/>
	</g>
	<g>
		<path class="st1" d="M218,291c-0.1-0.2-0.2-0.5-0.2-0.8c-0.5,0.6-1.3,0.9-2.1,0.9c-0.8,0-1.5-0.2-2.1-0.7
			c-0.5-0.5-0.8-1.1-0.8-1.8c0-0.9,0.3-1.6,1-2.1s1.6-0.7,2.9-0.7h1v-0.5c0-0.4-0.1-0.7-0.3-0.9c-0.2-0.2-0.5-0.4-0.9-0.4
			c-0.4,0-0.7,0.1-0.9,0.3c-0.2,0.2-0.3,0.4-0.3,0.8h-2.3c0-0.5,0.2-0.9,0.5-1.4c0.3-0.4,0.7-0.7,1.3-1c0.6-0.2,1.2-0.4,1.9-0.4
			c1,0,1.9,0.3,2.5,0.8c0.6,0.5,0.9,1.3,0.9,2.2v3.7c0,0.8,0.1,1.4,0.3,1.8v0.1H218z M216.1,289.4c0.3,0,0.6-0.1,0.9-0.2
			s0.5-0.3,0.6-0.6v-1.5h-0.8c-1.1,0-1.7,0.4-1.8,1.2l0,0.1c0,0.3,0.1,0.5,0.3,0.7C215.5,289.3,215.8,289.4,216.1,289.4z"/>
	</g>
	<g>
		<path class="st1" d="M224.5,291h-2.3v-12h2.3V291z"/>
	</g>
	<g>
		<path class="st1" d="M227.5,292h-1.7l4.2-12.4h1.7L227.5,292z"/>
	</g>
	<g>
		<path class="st1" d="M232.8,286.7c0-1.3,0.3-2.3,0.9-3.1s1.4-1.2,2.5-1.2c0.9,0,1.6,0.3,2.2,1l0.1-0.8h2v8.2
			c0,0.7-0.2,1.4-0.5,1.9s-0.8,1-1.4,1.2s-1.3,0.4-2.1,0.4c-0.6,0-1.2-0.1-1.8-0.4c-0.6-0.2-1-0.6-1.3-1l1-1.4
			c0.6,0.6,1.2,0.9,2,0.9c0.6,0,1.1-0.2,1.4-0.5c0.3-0.3,0.5-0.8,0.5-1.4v-0.5c-0.5,0.6-1.2,0.9-2.1,0.9c-1,0-1.8-0.4-2.5-1.2
			C233.2,289.2,232.8,288.1,232.8,286.7L232.8,286.7z M235.1,286.9c0,0.8,0.2,1.4,0.5,1.8c0.3,0.4,0.7,0.7,1.3,0.7
			c0.7,0,1.2-0.3,1.5-0.8V285c-0.3-0.5-0.8-0.8-1.5-0.8c-0.5,0-1,0.2-1.3,0.7C235.3,285.3,235.1,286,235.1,286.9z"/>
	</g>
</g>
</svg>
