<?xml version="1.0" encoding="utf-8"?>
<!-- Generator: Adobe Illustrator 21.0.2, SVG Export Plug-In . SVG Version: 6.00 Build 0)  -->
<svg version="1.1" id="Layer_1" xmlns="http://www.w3.org/2000/svg" xmlns:xlink="http://www.w3.org/1999/xlink" x="0px" y="0px"
	 viewBox="0 0 500 225" style="enable-background:new 0 0 500 225;" xml:space="preserve">
<style type="text/css">
	.st0{fill:#FF6141;}
	.st1{enable-background:new    ;}
	.st2{fill:#FFFFFF;}
</style>
<title>Steps Copy</title>
<desc>Created with Sketch.</desc>
<g id="V3">
	<g id="Ambassador" transform="translate(-800.000000, -1620.000000)">
		<g id="Form" transform="translate(0.000000, 1387.000000)">
			<g id="Steps" transform="translate(300.000000, 233.000000)">
				<g id="Group-8" transform="translate(548.000000, 11.000000)">
					<g id="Group-3">
						<g id="Group-10">
							<g id="Oval">
								<circle class="st0" cx="10" cy="10" r="10"/>
							</g>
							<g class="st1">
								<g>
									<path class="st2" d="M7.7,10.5l0.4-3.6h4v1.2H9.3L9.1,9.6c0.3-0.2,0.7-0.3,1.1-0.3c0.7,0,1.2,0.2,1.6,0.6s0.6,1,0.6,1.8
										c0,0.5-0.1,0.9-0.3,1.2c-0.2,0.4-0.5,0.6-0.8,0.8C10.9,13.9,10.5,14,10,14c-0.4,0-0.8-0.1-1.2-0.3S8.1,13.3,7.9,13
										s-0.4-0.6-0.4-1h1.4c0,0.3,0.1,0.5,0.3,0.7S9.6,13,9.9,13c0.3,0,0.6-0.1,0.7-0.3c0.2-0.2,0.3-0.6,0.3-1s-0.1-0.7-0.3-0.9
										s-0.5-0.3-0.8-0.3S9.2,10.6,9,10.8l-0.1,0.1L7.7,10.5z"/>
								</g>
							</g>
						</g>
						<g>
							<g class="st1">
								<g>
									<path class="st2" d="M43.1,3.3l0.3,1.5l0.4-1.5L45.9-4h0.8l2.1,7.3l0.4,1.5l0.3-1.6L51.3-4h0.9L49.7,6h-0.8l-2.3-7.8
										l-0.3-1l-0.2,1L43.8,6H43L40.4-4h0.9L43.1,3.3z"/>
								</g>
								<g>
									<path class="st2" d="M54.6-0.1c0.3-0.4,0.6-0.8,1-1s0.9-0.4,1.4-0.4c0.8,0,1.4,0.2,1.8,0.7c0.4,0.4,0.6,1.1,0.6,2V6h-0.8
										V1.1c0-0.7-0.1-1.2-0.4-1.5s-0.7-0.5-1.3-0.5c-0.5,0-1,0.2-1.3,0.5c-0.4,0.3-0.7,0.7-0.9,1.3V6h-0.8V-4.5h0.8L54.6-0.1
										L54.6-0.1z"/>
								</g>
								<g>
									<path class="st2" d="M64.5,6.1c-0.6,0-1.2-0.2-1.7-0.5s-0.9-0.7-1.2-1.3s-0.4-1.2-0.4-1.9V2.1c0-0.7,0.1-1.4,0.4-1.9
										s0.7-1,1.2-1.3s1-0.5,1.6-0.5c0.9,0,1.6,0.3,2.1,0.9s0.8,1.5,0.8,2.5v0.5H62v0.2c0,0.8,0.2,1.5,0.7,2.1s1.1,0.8,1.8,0.8
										c0.4,0,0.8-0.1,1.2-0.2s0.6-0.4,0.9-0.8l0.5,0.4C66.5,5.7,65.6,6.1,64.5,6.1z M64.4-0.8c-0.6,0-1.1,0.2-1.6,0.7
										S62.1,1,62,1.7h4.4V1.6c0-0.7-0.2-1.3-0.6-1.7S65-0.8,64.4-0.8z"/>
								</g>
								<g>
									<path class="st2" d="M69.8-1.4v1.3c0.3-0.5,0.6-0.8,1-1s0.9-0.4,1.4-0.4c0.8,0,1.4,0.2,1.8,0.7c0.4,0.4,0.6,1.1,0.6,2V6
										h-0.8V1.1c0-0.7-0.1-1.2-0.4-1.5s-0.7-0.5-1.3-0.5c-0.5,0-1,0.2-1.3,0.5C70.3,0,70,0.4,69.9,0.9V6H69v-7.4H69.8z"/>
								</g>
								<g>
									<path class="st2" d="M85.1,6C85,5.8,85,5.4,84.9,5c-0.3,0.4-0.7,0.7-1.1,0.9s-0.9,0.3-1.4,0.3c-0.7,0-1.3-0.2-1.7-0.6
										S80,4.7,80,4.1c0-0.7,0.3-1.3,0.9-1.7s1.4-0.6,2.5-0.6H85V0.9c0-0.5-0.2-0.9-0.5-1.2s-0.8-0.5-1.4-0.5s-1,0.1-1.4,0.4
										s-0.6,0.6-0.6,1.1h-0.8c0-0.6,0.3-1.1,0.8-1.5c0.5-0.4,1.2-0.6,2-0.6s1.5,0.2,2,0.6c0.5,0.4,0.7,1,0.7,1.7v3.5
										c0,0.7,0.1,1.3,0.2,1.6l0,0H85.1z M82.6,5.4c0.5,0,1-0.1,1.5-0.4s0.7-0.6,0.9-1.1V2.3h-1.5c-0.8,0-1.5,0.2-1.9,0.4
										c-0.5,0.3-0.7,0.7-0.7,1.2c0,0.4,0.2,0.8,0.5,1S82.1,5.4,82.6,5.4z"/>
								</g>
								<g>
									<path class="st2" d="M94.4,5.4c0.6,0,1-0.2,1.4-0.5s0.6-0.7,0.6-1.2h0.8c0,0.5-0.2,0.9-0.4,1.2c-0.3,0.4-0.6,0.7-1,0.9
										s-0.9,0.3-1.4,0.3c-1,0-1.7-0.3-2.3-1s-0.9-1.6-0.9-2.7V2.2c0-0.7,0.1-1.4,0.4-1.9s0.6-1,1.1-1.3s1-0.5,1.7-0.5
										c0.8,0,1.5,0.2,2,0.7s0.8,1.1,0.8,1.9h-0.8c0-0.6-0.2-1-0.6-1.4S95-0.8,94.4-0.8c-0.7,0-1.3,0.3-1.7,0.8s-0.6,1.3-0.6,2.2
										v0.2c0,0.9,0.2,1.7,0.6,2.2S93.7,5.4,94.4,5.4z"/>
								</g>
								<g>
									<path class="st2" d="M103.8,5.1c-0.5,0.7-1.3,1.1-2.4,1.1c-0.8,0-1.4-0.2-1.8-0.7S99,4.4,99,3.5v-4.9h0.8v4.7
										c0,1.4,0.6,2.1,1.7,2.1c1.2,0,1.9-0.5,2.2-1.5v-5.3h0.8V6h-0.8L103.8,5.1z"/>
								</g>
								<g>
									<path class="st2" d="M111.4,4.1c0-0.4-0.2-0.7-0.5-1s-0.8-0.4-1.5-0.6c-0.7-0.1-1.2-0.3-1.5-0.5c-0.4-0.2-0.6-0.4-0.8-0.7
										s-0.3-0.6-0.3-0.9c0-0.6,0.2-1.1,0.7-1.4c0.5-0.4,1.1-0.6,1.9-0.6s1.5,0.2,2,0.6c0.5,0.4,0.7,0.9,0.7,1.6h-0.8
										c0-0.4-0.2-0.8-0.5-1.1s-0.8-0.4-1.4-0.4c-0.5,0-1,0.1-1.3,0.4c-0.3,0.2-0.5,0.5-0.5,0.9s0.1,0.7,0.4,0.9s0.8,0.4,1.5,0.6
										s1.3,0.3,1.6,0.5s0.6,0.4,0.8,0.7s0.3,0.6,0.3,1c0,0.6-0.3,1.1-0.8,1.5s-1.2,0.6-2,0.6c-0.9,0-1.6-0.2-2.1-0.6
										c-0.5-0.4-0.8-0.9-0.8-1.6h0.8c0,0.5,0.2,0.9,0.6,1.1c0.4,0.3,0.9,0.4,1.5,0.4s1-0.1,1.4-0.4S111.4,4.5,111.4,4.1z"/>
								</g>
								<g>
									<path class="st2" d="M115.5-3.3v1.9h1.5v0.7h-1.5v4.9c0,0.4,0.1,0.7,0.2,0.9s0.4,0.3,0.7,0.3c0.1,0,0.4,0,0.7-0.1V6
										c-0.2,0.1-0.5,0.1-0.9,0.1c-0.6,0-1-0.2-1.2-0.5c-0.3-0.3-0.4-0.8-0.4-1.4v-4.9h-1.4v-0.7h1.4v-1.9H115.5z"/>
								</g>
								<g>
									<path class="st2" d="M118.3,2.2c0-0.7,0.1-1.4,0.4-1.9s0.7-1,1.2-1.3s1.1-0.5,1.7-0.5c1,0,1.8,0.3,2.4,1s0.9,1.6,0.9,2.7
										v0.2c0,0.7-0.1,1.4-0.4,1.9c-0.3,0.6-0.7,1-1.2,1.3s-1.1,0.5-1.7,0.5c-1,0-1.8-0.3-2.4-1s-0.9-1.6-0.9-2.7V2.2z M119.1,2.4
										c0,0.9,0.2,1.6,0.7,2.2c0.5,0.6,1.1,0.9,1.8,0.9c0.7,0,1.3-0.3,1.8-0.9c0.5-0.6,0.7-1.3,0.7-2.2V2.2c0-0.6-0.1-1.1-0.3-1.6
										s-0.5-0.8-0.9-1.1s-0.8-0.4-1.3-0.4c-0.7,0-1.3,0.3-1.8,0.9c-0.5,0.6-0.7,1.3-0.7,2.2C119.1,2.2,119.1,2.4,119.1,2.4z"/>
								</g>
								<g>
									<path class="st2" d="M127.5-1.4v1.2c0.3-0.4,0.6-0.8,1-1s0.9-0.3,1.4-0.3c1.2,0,1.9,0.5,2.2,1.4c0.3-0.5,0.6-0.8,1.1-1.1
										c0.4-0.2,0.9-0.4,1.5-0.4c1.6,0,2.4,0.9,2.4,2.6v5h-0.8V1.1c0-0.7-0.1-1.2-0.4-1.5s-0.7-0.5-1.4-0.5
										c-0.6,0-1.1,0.2-1.5,0.6c-0.4,0.4-0.6,0.8-0.7,1.4V6h-0.8V1.1c0-0.6-0.2-1.1-0.4-1.4c-0.3-0.3-0.7-0.5-1.4-0.5
										c-0.5,0-1,0.1-1.3,0.4c-0.4,0.3-0.6,0.7-0.8,1.3V6h-0.8v-7.4H127.5z"/>
								</g>
								<g>
									<path class="st2" d="M142.2,6.1c-0.6,0-1.2-0.2-1.7-0.5s-0.9-0.7-1.2-1.3s-0.4-1.2-0.4-1.9V2.1c0-0.7,0.1-1.4,0.4-1.9
										s0.7-1,1.2-1.3s1-0.5,1.6-0.5c0.9,0,1.6,0.3,2.1,0.9s0.8,1.5,0.8,2.5v0.5h-5.3v0.2c0,0.8,0.2,1.5,0.7,2.1s1.1,0.8,1.8,0.8
										c0.4,0,0.8-0.1,1.2-0.2s0.6-0.4,0.9-0.8l0.5,0.4C144.2,5.7,143.3,6.1,142.2,6.1z M142-0.8c-0.6,0-1.1,0.2-1.6,0.7
										s-0.7,1.1-0.8,1.8h4.4V1.6c0-0.7-0.2-1.3-0.6-1.7S142.6-0.8,142-0.8z"/>
								</g>
								<g>
									<path class="st2" d="M150.1-0.7c-0.2,0-0.4,0-0.6,0c-0.5,0-0.9,0.1-1.3,0.4c-0.4,0.3-0.6,0.7-0.8,1.2V6h-0.8v-7.4h0.8v1.2
										c0.4-0.9,1.1-1.3,2.1-1.3c0.2,0,0.4,0,0.5,0.1L150.1-0.7z"/>
								</g>
								<g>
									<path class="st2" d="M154.7,2.2c0-0.7,0.1-1.4,0.4-1.9s0.7-1,1.2-1.3s1.1-0.5,1.7-0.5c1,0,1.8,0.3,2.4,1
										c0.6,0.7,0.9,1.6,0.9,2.7v0.2c0,0.7-0.1,1.4-0.4,1.9c-0.3,0.6-0.7,1-1.2,1.3s-1.1,0.5-1.7,0.5c-1,0-1.8-0.3-2.4-1
										c-0.6-0.7-0.9-1.6-0.9-2.7V2.2z M155.5,2.4c0,0.9,0.2,1.6,0.7,2.2c0.5,0.6,1.1,0.9,1.8,0.9s1.3-0.3,1.8-0.9
										c0.5-0.6,0.7-1.3,0.7-2.2V2.2c0-0.6-0.1-1.1-0.3-1.6s-0.5-0.8-0.9-1.1s-0.8-0.4-1.3-0.4c-0.7,0-1.3,0.3-1.8,0.9
										c-0.5,0.6-0.7,1.3-0.7,2.2V2.4z"/>
								</g>
								<g>
									<path class="st2" d="M166.6-0.7c-0.2,0-0.4,0-0.6,0c-0.5,0-0.9,0.1-1.3,0.4c-0.4,0.3-0.6,0.7-0.8,1.2V6h-0.8v-7.4h0.8v1.2
										c0.4-0.9,1.1-1.3,2.1-1.3c0.2,0,0.4,0,0.5,0.1L166.6-0.7z"/>
								</g>
								<g>
									<path class="st2" d="M167.6,2.2c0-1.1,0.3-2.1,0.8-2.7c0.5-0.7,1.2-1,2.1-1c1,0,1.8,0.4,2.3,1.2v-4.2h0.8V6h-0.8V5
										c-0.5,0.7-1.3,1.1-2.3,1.1c-0.9,0-1.5-0.3-2.1-1C167.9,4.4,167.6,3.5,167.6,2.2L167.6,2.2z M168.4,2.4
										c0,0.9,0.2,1.7,0.6,2.2c0.4,0.5,0.9,0.8,1.6,0.8c1,0,1.7-0.4,2.1-1.3V0.6c-0.4-1-1.1-1.4-2.1-1.4c-0.7,0-1.2,0.3-1.6,0.8
										C168.6,0.5,168.4,1.3,168.4,2.4z"/>
								</g>
								<g>
									<path class="st2" d="M178.7,6.1c-0.6,0-1.2-0.2-1.7-0.5s-0.9-0.7-1.2-1.3s-0.4-1.2-0.4-1.9V2.1c0-0.7,0.1-1.4,0.4-1.9
										s0.7-1,1.2-1.3s1-0.5,1.6-0.5c0.9,0,1.6,0.3,2.1,0.9s0.8,1.5,0.8,2.5v0.5h-5.3v0.2c0,0.8,0.2,1.5,0.7,2.1s1.1,0.8,1.8,0.8
										c0.4,0,0.8-0.1,1.2-0.2s0.6-0.4,0.9-0.8l0.5,0.4C180.8,5.7,179.9,6.1,178.7,6.1z M178.6-0.8c-0.6,0-1.1,0.2-1.6,0.7
										s-0.7,1.1-0.8,1.8h4.4V1.6c0-0.7-0.2-1.3-0.6-1.7S179.2-0.8,178.6-0.8z"/>
								</g>
								<g>
									<path class="st2" d="M186.7-0.7c-0.2,0-0.4,0-0.6,0c-0.5,0-0.9,0.1-1.3,0.4c-0.4,0.3-0.6,0.7-0.8,1.2V6h-0.8v-7.4h0.8v1.2
										c0.4-0.9,1.1-1.3,2.1-1.3c0.2,0,0.4,0,0.5,0.1L186.7-0.7z"/>
								</g>
								<g>
									<path class="st2" d="M192.6,4.1c0-0.4-0.2-0.7-0.5-1s-0.8-0.4-1.5-0.6c-0.7-0.1-1.2-0.3-1.5-0.5c-0.4-0.2-0.6-0.4-0.8-0.7
										S188,0.9,188,0.5c0-0.6,0.2-1.1,0.7-1.4c0.5-0.4,1.1-0.6,1.9-0.6c0.8,0,1.5,0.2,2,0.6c0.5,0.4,0.7,0.9,0.7,1.6h-0.8
										c0-0.4-0.2-0.8-0.5-1.1s-0.8-0.4-1.4-0.4c-0.5,0-1,0.1-1.3,0.4c-0.3,0.2-0.5,0.5-0.5,0.9s0.1,0.7,0.4,0.9
										c0.3,0.2,0.8,0.4,1.5,0.6s1.3,0.3,1.6,0.5s0.6,0.4,0.8,0.7s0.3,0.6,0.3,1c0,0.6-0.3,1.1-0.8,1.5s-1.2,0.6-2,0.6
										c-0.9,0-1.6-0.2-2.1-0.6c-0.5-0.4-0.8-0.9-0.8-1.6h0.8c0,0.5,0.2,0.9,0.6,1.1c0.4,0.3,0.9,0.4,1.5,0.4s1-0.1,1.4-0.4
										S192.6,4.5,192.6,4.1z"/>
								</g>
								<g>
									<path class="st2" d="M201.3,4.9l2.2-6.3h0.8L201.5,6h-0.7L198-1.4h0.8L201.3,4.9z"/>
								</g>
								<g>
									<path class="st2" d="M205.8-3.5c0-0.2,0.1-0.3,0.2-0.4c0.1-0.1,0.2-0.2,0.4-0.2s0.3,0.1,0.4,0.2c0.1,0.1,0.2,0.2,0.2,0.4
										c0,0.2-0.1,0.3-0.2,0.4S206.6-3,206.4-3s-0.3,0-0.4-0.1S205.8-3.4,205.8-3.5z M206.8,6H206v-7.4h0.8V6z"/>
								</g>
								<g>
									<path class="st2" d="M213.9,6c-0.1-0.2-0.1-0.6-0.2-1c-0.3,0.4-0.7,0.7-1.1,0.9c-0.4,0.2-0.9,0.3-1.4,0.3
										c-0.7,0-1.3-0.2-1.7-0.6c-0.4-0.4-0.7-0.9-0.7-1.5c0-0.7,0.3-1.3,0.9-1.7c0.6-0.4,1.4-0.6,2.5-0.6h1.5V0.9
										c0-0.5-0.2-0.9-0.5-1.2s-0.8-0.5-1.4-0.5c-0.6,0-1,0.1-1.4,0.4s-0.6,0.6-0.6,1.1H209c0-0.6,0.3-1.1,0.8-1.5
										c0.5-0.4,1.2-0.6,2-0.6s1.5,0.2,2,0.6c0.5,0.4,0.7,1,0.7,1.7v3.5c0,0.7,0.1,1.3,0.2,1.6l0,0H213.9z M211.3,5.4
										c0.5,0,1-0.1,1.5-0.4c0.4-0.3,0.7-0.6,0.9-1.1V2.3h-1.5c-0.8,0-1.5,0.2-1.9,0.4c-0.5,0.3-0.7,0.7-0.7,1.2
										c0,0.4,0.2,0.8,0.5,1C210.4,5.3,210.8,5.4,211.3,5.4z"/>
								</g>
								<g>
									<path class="st2" d="M222.8,4.8l2.2-6.2h0.9l-3.2,8.7l-0.2,0.4c-0.4,0.9-1,1.3-1.9,1.3c-0.2,0-0.4,0-0.6-0.1V8.2h0.4
										c0.4,0,0.7-0.1,1-0.3c0.2-0.2,0.5-0.5,0.6-1l0.4-1l-2.8-7.3h0.9L222.8,4.8z"/>
								</g>
								<g>
									<path class="st2" d="M226.7,2.2c0-0.7,0.1-1.4,0.4-1.9c0.3-0.6,0.7-1,1.2-1.3s1.1-0.5,1.7-0.5c1,0,1.8,0.3,2.4,1
										c0.6,0.7,0.9,1.6,0.9,2.7v0.2c0,0.7-0.1,1.4-0.4,1.9c-0.3,0.6-0.7,1-1.2,1.3s-1.1,0.5-1.7,0.5c-1,0-1.8-0.3-2.4-1
										c-0.6-0.7-0.9-1.6-0.9-2.7V2.2z M227.5,2.4c0,0.9,0.2,1.6,0.7,2.2c0.5,0.6,1.1,0.9,1.8,0.9s1.3-0.3,1.8-0.9
										c0.5-0.6,0.7-1.3,0.7-2.2V2.2c0-0.6-0.1-1.1-0.3-1.6s-0.5-0.8-0.9-1.1s-0.8-0.4-1.3-0.4c-0.7,0-1.3,0.3-1.8,0.9
										c-0.5,0.6-0.7,1.3-0.7,2.2V2.4z"/>
								</g>
								<g>
									<path class="st2" d="M239.9,5.1c-0.5,0.7-1.3,1.1-2.4,1.1c-0.8,0-1.4-0.2-1.8-0.7c-0.4-0.5-0.6-1.1-0.6-2v-4.9h0.8v4.7
										c0,1.4,0.6,2.1,1.7,2.1c1.2,0,1.9-0.5,2.2-1.5v-5.3h0.8V6h-0.8L239.9,5.1z"/>
								</g>
								<g>
									<path class="st2" d="M246.4-0.7c-0.2,0-0.4,0-0.6,0c-0.5,0-0.9,0.1-1.3,0.4c-0.4,0.3-0.6,0.7-0.8,1.2V6H243v-7.4h0.8v1.2
										c0.4-0.9,1.1-1.3,2.1-1.3c0.2,0,0.4,0,0.5,0.1L246.4-0.7z"/>
								</g>
								<g>
									<path class="st2" d="M252.4,6h-0.8V-4.5h0.8V6z"/>
								</g>
								<g>
									<path class="st2" d="M254.7-3.5c0-0.2,0.1-0.3,0.2-0.4c0.1-0.1,0.2-0.2,0.4-0.2s0.3,0.1,0.4,0.2c0.1,0.1,0.2,0.2,0.2,0.4
										c0,0.2-0.1,0.3-0.2,0.4C255.6-3,255.5-3,255.3-3s-0.3,0-0.4-0.1S254.7-3.4,254.7-3.5z M255.7,6h-0.8v-7.4h0.8V6z"/>
								</g>
								<g>
									<path class="st2" d="M258.8-1.4v1.3c0.3-0.5,0.6-0.8,1-1s0.9-0.4,1.4-0.4c0.8,0,1.4,0.2,1.8,0.7c0.4,0.4,0.6,1.1,0.6,2V6
										h-0.8V1.1c0-0.7-0.1-1.2-0.4-1.5s-0.7-0.5-1.3-0.5c-0.5,0-1,0.2-1.3,0.5c-0.4,0.3-0.7,0.7-0.9,1.3V6h-0.8v-7.4H258.8z"/>
								</g>
								<g>
									<path class="st2" d="M267.7,2.3l-0.9,0.9V6H266V-4.5h0.8v6.7l0.8-0.8l2.8-2.8h1l-3.1,3.1l3.4,4.3h-1L267.7,2.3z"/>
								</g>
								<g>
									<path class="st2" d="M276.1,2.2c0-0.7,0.1-1.4,0.4-1.9c0.3-0.6,0.7-1,1.2-1.3s1.1-0.5,1.7-0.5c1,0,1.8,0.3,2.4,1
										s0.9,1.6,0.9,2.7v0.2c0,0.7-0.1,1.4-0.4,1.9c-0.3,0.6-0.7,1-1.2,1.3s-1.1,0.5-1.7,0.5c-1,0-1.8-0.3-2.4-1s-0.9-1.6-0.9-2.7
										V2.2z M276.9,2.4c0,0.9,0.2,1.6,0.7,2.2c0.5,0.6,1.1,0.9,1.8,0.9c0.7,0,1.3-0.3,1.8-0.9c0.5-0.6,0.7-1.3,0.7-2.2V2.2
										c0-0.6-0.1-1.1-0.3-1.6s-0.5-0.8-0.9-1.1s-0.8-0.4-1.3-0.4c-0.7,0-1.3,0.3-1.8,0.9c-0.5,0.6-0.7,1.3-0.7,2.2L276.9,2.4
										L276.9,2.4z"/>
								</g>
								<g>
									<path class="st2" d="M288-0.7c-0.2,0-0.4,0-0.6,0c-0.5,0-0.9,0.1-1.3,0.4c-0.4,0.3-0.6,0.7-0.8,1.2V6h-0.8v-7.4h0.8v1.2
										c0.4-0.9,1.1-1.3,2.1-1.3c0.2,0,0.4,0,0.5,0.1L288-0.7z"/>
								</g>
								<g>
									<path class="st2" d="M298.9,2.4c0,1.2-0.3,2.1-0.8,2.7c-0.5,0.7-1.2,1-2.1,1c-1,0-1.8-0.4-2.3-1.1v3.8H293V-1.4h0.8v1
										c0.5-0.8,1.3-1.2,2.3-1.2c0.9,0,1.6,0.3,2.1,1S299,1,299,2.2L298.9,2.4L298.9,2.4z M298.1,2.2c0-0.9-0.2-1.7-0.6-2.2
										s-0.9-0.8-1.6-0.8c-0.5,0-0.9,0.1-1.3,0.4c-0.4,0.2-0.6,0.6-0.8,1.1v3.5c0.2,0.4,0.5,0.7,0.8,1c0.4,0.2,0.8,0.3,1.3,0.3
										c0.7,0,1.2-0.3,1.6-0.8C297.9,4.1,298.1,3.3,298.1,2.2z"/>
								</g>
								<g>
									<path class="st2" d="M304.3-0.7c-0.2,0-0.4,0-0.6,0c-0.5,0-0.9,0.1-1.3,0.4c-0.4,0.3-0.6,0.7-0.8,1.2V6h-0.8v-7.4h0.8v1.2
										c0.4-0.9,1.1-1.3,2.1-1.3c0.2,0,0.4,0,0.5,0.1L304.3-0.7z"/>
								</g>
								<g>
									<path class="st2" d="M305.2,2.2c0-0.7,0.1-1.4,0.4-1.9s0.7-1,1.2-1.3s1.1-0.5,1.7-0.5c1,0,1.8,0.3,2.4,1s0.9,1.6,0.9,2.7
										v0.2c0,0.7-0.1,1.4-0.4,1.9c-0.3,0.6-0.7,1-1.2,1.3s-1.1,0.5-1.7,0.5c-1,0-1.8-0.3-2.4-1s-0.9-1.6-0.9-2.7V2.2z M306,2.4
										c0,0.9,0.2,1.6,0.7,2.2c0.5,0.6,1.1,0.9,1.8,0.9c0.7,0,1.3-0.3,1.8-0.9c0.5-0.6,0.7-1.3,0.7-2.2V2.2c0-0.6-0.1-1.1-0.3-1.6
										c-0.2-0.5-0.5-0.8-0.9-1.1s-0.8-0.4-1.3-0.4c-0.7,0-1.3,0.3-1.8,0.9c-0.5,0.6-0.7,1.3-0.7,2.2L306,2.4L306,2.4z"/>
								</g>
								<g>
									<path class="st2" d="M314.4-1.4v1.2c0.3-0.4,0.6-0.8,1-1s0.9-0.3,1.4-0.3c1.2,0,1.9,0.5,2.2,1.4c0.3-0.5,0.6-0.8,1.1-1.1
										c0.4-0.2,0.9-0.4,1.5-0.4c1.6,0,2.4,0.9,2.4,2.6v5h-0.8V1.1c0-0.7-0.1-1.2-0.4-1.5s-0.7-0.5-1.4-0.5
										c-0.6,0-1.1,0.2-1.5,0.6c-0.4,0.4-0.6,0.8-0.7,1.4V6h-0.8V1.1c0-0.6-0.2-1.1-0.4-1.4c-0.3-0.3-0.7-0.5-1.4-0.5
										c-0.5,0-1,0.1-1.3,0.4c-0.4,0.3-0.6,0.7-0.8,1.3V6h-0.8v-7.4H314.4z"/>
								</g>
								<g>
									<path class="st2" d="M325.8,2.2c0-0.7,0.1-1.4,0.4-1.9s0.7-1,1.2-1.3s1.1-0.5,1.7-0.5c1,0,1.8,0.3,2.4,1s0.9,1.6,0.9,2.7
										v0.2c0,0.7-0.1,1.4-0.4,1.9c-0.3,0.6-0.7,1-1.2,1.3s-1.1,0.5-1.7,0.5c-1,0-1.8-0.3-2.4-1s-0.9-1.6-0.9-2.7V2.2z M326.6,2.4
										c0,0.9,0.2,1.6,0.7,2.2c0.5,0.6,1.1,0.9,1.8,0.9c0.7,0,1.3-0.3,1.8-0.9c0.5-0.6,0.7-1.3,0.7-2.2V2.2c0-0.6-0.1-1.1-0.3-1.6
										c-0.2-0.5-0.5-0.8-0.9-1.1s-0.8-0.4-1.3-0.4c-0.7,0-1.3,0.3-1.8,0.9c-0.5,0.6-0.7,1.3-0.7,2.2L326.6,2.4L326.6,2.4z"/>
								</g>
								<g>
									<path class="st2" d="M340.6,5.4c0.6,0,1-0.2,1.4-0.5s0.6-0.7,0.6-1.2h0.8c0,0.5-0.2,0.9-0.4,1.2c-0.3,0.4-0.6,0.7-1,0.9
										s-0.9,0.3-1.4,0.3c-1,0-1.7-0.3-2.3-1s-0.9-1.6-0.9-2.7V2.2c0-0.7,0.1-1.4,0.4-1.9c0.3-0.6,0.6-1,1.1-1.3s1-0.5,1.7-0.5
										c0.8,0,1.5,0.2,2,0.7s0.8,1.1,0.8,1.9h-0.8c0-0.6-0.2-1-0.6-1.4s-0.9-0.5-1.4-0.5c-0.7,0-1.3,0.3-1.7,0.8s-0.6,1.3-0.6,2.2
										v0.2c0,0.9,0.2,1.7,0.6,2.2S339.8,5.4,340.6,5.4z"/>
								</g>
								<g>
									<path class="st2" d="M344.7,2.2c0-0.7,0.1-1.4,0.4-1.9s0.7-1,1.2-1.3s1.1-0.5,1.7-0.5c1,0,1.8,0.3,2.4,1s0.9,1.6,0.9,2.7
										v0.2c0,0.7-0.1,1.4-0.4,1.9c-0.3,0.6-0.7,1-1.2,1.3s-1.1,0.5-1.7,0.5c-1,0-1.8-0.3-2.4-1s-0.9-1.6-0.9-2.7V2.2z M345.6,2.4
										c0,0.9,0.2,1.6,0.7,2.2c0.5,0.6,1.1,0.9,1.8,0.9c0.7,0,1.3-0.3,1.8-0.9c0.5-0.6,0.7-1.3,0.7-2.2V2.2c0-0.6-0.1-1.1-0.3-1.6
										c-0.2-0.5-0.5-0.8-0.9-1.1s-0.8-0.4-1.3-0.4c-0.7,0-1.3,0.3-1.8,0.9c-0.5,0.6-0.7,1.3-0.7,2.2L345.6,2.4L345.6,2.4z"/>
								</g>
								<g>
									<path class="st2" d="M352.9,2.2c0-1.1,0.3-2.1,0.8-2.7c0.5-0.7,1.2-1,2.1-1c1,0,1.8,0.4,2.3,1.2v-4.2h0.8V6h-0.8V5
										c-0.5,0.7-1.3,1.1-2.3,1.1c-0.9,0-1.5-0.3-2.1-1C353.1,4.4,352.9,3.5,352.9,2.2L352.9,2.2z M353.7,2.4
										c0,0.9,0.2,1.7,0.6,2.2s0.9,0.8,1.6,0.8c1,0,1.7-0.4,2.1-1.3V0.6c-0.4-1-1.1-1.4-2.1-1.4c-0.7,0-1.2,0.3-1.6,0.8
										C353.9,0.5,353.7,1.3,353.7,2.4z"/>
								</g>
								<g>
									<path class="st2" d="M364,6.1c-0.6,0-1.2-0.2-1.7-0.5s-0.9-0.7-1.2-1.3c-0.3-0.6-0.4-1.2-0.4-1.9V2.1
										c0-0.7,0.1-1.4,0.4-1.9s0.7-1,1.2-1.3s1-0.5,1.6-0.5c0.9,0,1.6,0.3,2.1,0.9s0.8,1.5,0.8,2.5v0.5h-5.3v0.2
										c0,0.8,0.2,1.5,0.7,2.1s1.1,0.8,1.8,0.8c0.4,0,0.8-0.1,1.2-0.2s0.6-0.4,0.9-0.8l0.5,0.4C366,5.7,365.2,6.1,364,6.1z
										 M363.9-0.8c-0.6,0-1.1,0.2-1.6,0.7s-0.7,1.1-0.8,1.8h4.4V1.6c0-0.7-0.2-1.3-0.6-1.7S364.5-0.8,363.9-0.8z"/>
								</g>
								<g>
									<path class="st2" d="M368.4,7.9l-0.5-0.4c0.4-0.6,0.6-1.1,0.6-1.7V4.7h0.8v0.9C369.3,6.5,369,7.3,368.4,7.9z"/>
								</g>
								<g>
									<path class="st2" d="M377.3,4.8l2.2-6.2h0.9l-3.2,8.7L377,7.7c-0.4,0.9-1,1.3-1.9,1.3c-0.2,0-0.4,0-0.6-0.1V8.2h0.4
										c0.4,0,0.7-0.1,1-0.3c0.2-0.2,0.5-0.5,0.6-1l0.4-1l-2.8-7.3h0.9L377.3,4.8z"/>
								</g>
								<g>
									<path class="st2" d="M381.2,2.2c0-0.7,0.1-1.4,0.4-1.9s0.7-1,1.2-1.3s1.1-0.5,1.7-0.5c1,0,1.8,0.3,2.4,1s0.9,1.6,0.9,2.7
										v0.2c0,0.7-0.1,1.4-0.4,1.9c-0.3,0.6-0.7,1-1.2,1.3s-1.1,0.5-1.7,0.5c-1,0-1.8-0.3-2.4-1s-0.9-1.6-0.9-2.7V2.2z M382.1,2.4
										c0,0.9,0.2,1.6,0.7,2.2c0.5,0.6,1.1,0.9,1.8,0.9c0.7,0,1.3-0.3,1.8-0.9c0.5-0.6,0.7-1.3,0.7-2.2V2.2c0-0.6-0.1-1.1-0.3-1.6
										c-0.2-0.5-0.5-0.8-0.9-1.1s-0.8-0.4-1.3-0.4c-0.7,0-1.3,0.3-1.8,0.9c-0.5,0.6-0.7,1.3-0.7,2.2L382.1,2.4L382.1,2.4z"/>
								</g>
								<g>
									<path class="st2" d="M394.5,5.1c-0.5,0.7-1.3,1.1-2.4,1.1c-0.8,0-1.4-0.2-1.8-0.7s-0.6-1.1-0.6-2v-4.9h0.8v4.7
										c0,1.4,0.6,2.1,1.7,2.1c1.2,0,1.9-0.5,2.2-1.5v-5.3h0.8V6h-0.8L394.5,5.1z"/>
								</g>
								<g>
									<path class="st2" d="M404,6.1c-0.6,0-1.2-0.2-1.7-0.5s-0.9-0.7-1.2-1.3c-0.3-0.6-0.4-1.2-0.4-1.9V2.1
										c0-0.7,0.1-1.4,0.4-1.9c0.3-0.6,0.7-1,1.2-1.3s1-0.5,1.6-0.5c0.9,0,1.6,0.3,2.1,0.9s0.8,1.5,0.8,2.5v0.5h-5.3v0.2
										c0,0.8,0.2,1.5,0.7,2.1s1.1,0.8,1.8,0.8c0.4,0,0.8-0.1,1.2-0.2c0.3-0.2,0.6-0.4,0.9-0.8l0.5,0.4C406,5.7,405.1,6.1,404,6.1
										z M403.8-0.8c-0.6,0-1.1,0.2-1.6,0.7c-0.4,0.5-0.7,1.1-0.8,1.8h4.4V1.6c0-0.7-0.2-1.3-0.6-1.7S404.5-0.8,403.8-0.8z"/>
								</g>
								<g>
									<path class="st2" d="M413.2,6c-0.1-0.2-0.1-0.6-0.2-1c-0.3,0.4-0.7,0.7-1.1,0.9s-0.9,0.3-1.4,0.3c-0.7,0-1.3-0.2-1.7-0.6
										c-0.4-0.4-0.7-0.9-0.7-1.5c0-0.7,0.3-1.3,0.9-1.7s1.4-0.6,2.5-0.6h1.5V0.9c0-0.5-0.2-0.9-0.5-1.2s-0.8-0.5-1.4-0.5
										s-1,0.1-1.4,0.4s-0.6,0.6-0.6,1.1h-0.8c0-0.6,0.3-1.1,0.8-1.5c0.5-0.4,1.2-0.6,2-0.6s1.5,0.2,2,0.6c0.5,0.4,0.7,1,0.7,1.7
										v3.5c0,0.7,0.1,1.3,0.2,1.6l0,0H413.2z M410.6,5.4c0.5,0,1-0.1,1.5-0.4c0.4-0.3,0.7-0.6,0.9-1.1V2.3h-1.5
										c-0.8,0-1.5,0.2-1.9,0.4c-0.5,0.3-0.7,0.7-0.7,1.2c0,0.4,0.2,0.8,0.5,1C409.7,5.3,410.1,5.4,410.6,5.4z"/>
								</g>
								<g>
									<path class="st2" d="M419.6-0.7c-0.2,0-0.4,0-0.6,0c-0.5,0-0.9,0.1-1.3,0.4c-0.4,0.3-0.6,0.7-0.8,1.2V6h-0.8v-7.4h0.8v1.2
										c0.4-0.9,1.1-1.3,2.1-1.3c0.2,0,0.4,0,0.5,0.1L419.6-0.7z"/>
								</g>
								<g>
									<path class="st2" d="M421.9-1.4v1.3c0.3-0.5,0.6-0.8,1-1s0.9-0.4,1.4-0.4c0.8,0,1.4,0.2,1.8,0.7c0.4,0.4,0.6,1.1,0.6,2V6
										h-0.8V1.1c0-0.7-0.1-1.2-0.4-1.5s-0.7-0.5-1.3-0.5c-0.5,0-1,0.2-1.3,0.5c-0.4,0.3-0.7,0.7-0.9,1.3V6h-0.8v-7.4H421.9z"/>
								</g>
							</g>
							<g class="st1">
								<g>
									<path class="st2" d="M43.4,20.8l2.2-6.2h0.9l-3.2,8.7l-0.2,0.4c-0.4,0.9-1,1.3-1.9,1.3c-0.2,0-0.4,0-0.6-0.1v-0.7H41
										c0.4,0,0.7-0.1,1-0.3c0.2-0.2,0.5-0.5,0.6-1l0.4-1l-2.8-7.3h0.9L43.4,20.8z"/>
								</g>
								<g>
									<path class="st2" d="M47.3,18.2c0-0.7,0.1-1.4,0.4-1.9s0.7-1,1.2-1.3s1.1-0.5,1.7-0.5c1,0,1.8,0.3,2.4,1
										c0.6,0.7,0.9,1.6,0.9,2.7v0.2c0,0.7-0.1,1.4-0.4,1.9c-0.3,0.6-0.7,1-1.2,1.3s-1.1,0.5-1.7,0.5c-1,0-1.8-0.3-2.4-1
										c-0.6-0.7-0.9-1.6-0.9-2.7V18.2z M48.2,18.4c0,0.9,0.2,1.6,0.7,2.2s1.1,0.9,1.8,0.9s1.3-0.3,1.8-0.9s0.7-1.3,0.7-2.2v-0.2
										c0-0.6-0.1-1.1-0.3-1.6s-0.5-0.8-0.9-1.1c-0.4-0.3-0.8-0.4-1.3-0.4c-0.7,0-1.3,0.3-1.8,0.9s-0.7,1.3-0.7,2.2V18.4z"/>
								</g>
								<g>
									<path class="st2" d="M60.5,21.1c-0.5,0.7-1.3,1.1-2.4,1.1c-0.8,0-1.4-0.2-1.8-0.7c-0.4-0.5-0.6-1.1-0.6-2v-4.8h0.8v4.7
										c0,1.4,0.6,2.1,1.7,2.1c1.2,0,1.9-0.5,2.2-1.5v-5.4h0.8V22h-0.8L60.5,21.1z"/>
								</g>
								<g>
									<path class="st2" d="M67.1,15.3c-0.2,0-0.4,0-0.6,0c-0.5,0-0.9,0.1-1.3,0.4s-0.6,0.7-0.8,1.2V22h-0.8v-7.4h0.8v1.2
										c0.4-0.9,1.1-1.3,2.1-1.3c0.2,0,0.4,0,0.5,0.1L67.1,15.3z"/>
								</g>
								<g>
									<path class="st2" d="M74.8,21.4c0.6,0,1-0.2,1.4-0.5s0.6-0.7,0.6-1.2h0.8c0,0.5-0.2,0.9-0.4,1.2c-0.3,0.4-0.6,0.7-1,0.9
										s-0.9,0.3-1.4,0.3c-1,0-1.7-0.3-2.3-1s-0.9-1.6-0.9-2.7v-0.2c0-0.7,0.1-1.4,0.4-1.9s0.6-1,1.1-1.3s1-0.5,1.7-0.5
										c0.8,0,1.5,0.2,2,0.7s0.8,1.1,0.8,1.9h-0.8c0-0.6-0.2-1-0.6-1.4s-0.9-0.5-1.4-0.5c-0.7,0-1.3,0.3-1.7,0.8s-0.6,1.3-0.6,2.2
										v0.2c0,0.9,0.2,1.7,0.6,2.2S74.1,21.4,74.8,21.4z"/>
								</g>
								<g>
									<path class="st2" d="M79,18.2c0-0.7,0.1-1.4,0.4-1.9s0.7-1,1.2-1.3s1.1-0.5,1.7-0.5c1,0,1.8,0.3,2.4,1s0.9,1.6,0.9,2.7v0.2
										c0,0.7-0.1,1.4-0.4,1.9c-0.3,0.6-0.7,1-1.2,1.3s-1.1,0.5-1.7,0.5c-1,0-1.8-0.3-2.4-1S79,19.5,79,18.4V18.2z M79.8,18.4
										c0,0.9,0.2,1.6,0.7,2.2s1.1,0.9,1.8,0.9c0.7,0,1.3-0.3,1.8-0.9s0.7-1.3,0.7-2.2v-0.2c0-0.6-0.1-1.1-0.3-1.6
										s-0.5-0.8-0.9-1.1c-0.4-0.3-0.8-0.4-1.3-0.4c-0.7,0-1.3,0.3-1.8,0.9s-0.7,1.3-0.7,2.2C79.8,18.2,79.8,18.4,79.8,18.4z"/>
								</g>
								<g>
									<path class="st2" d="M88.2,14.6v1.2c0.3-0.4,0.6-0.8,1-1s0.9-0.3,1.4-0.3c1.2,0,1.9,0.5,2.2,1.4c0.3-0.5,0.6-0.8,1.1-1.1
										c0.4-0.2,0.9-0.4,1.5-0.4c1.6,0,2.4,0.9,2.4,2.6v5H97v-4.9c0-0.7-0.1-1.2-0.4-1.5s-0.7-0.5-1.4-0.5c-0.6,0-1.1,0.2-1.5,0.6
										s-0.6,0.8-0.7,1.4V22h-0.8v-4.9c0-0.6-0.2-1.1-0.4-1.4c-0.3-0.3-0.7-0.5-1.4-0.5c-0.5,0-1,0.1-1.3,0.4
										c-0.4,0.3-0.6,0.7-0.8,1.3V22h-0.8v-7.4H88.2z"/>
								</g>
								<g>
									<path class="st2" d="M100.8,14.6v1.2c0.3-0.4,0.6-0.8,1-1s0.9-0.3,1.4-0.3c1.2,0,1.9,0.5,2.2,1.4c0.3-0.5,0.6-0.8,1.1-1.1
										c0.4-0.2,0.9-0.4,1.5-0.4c1.6,0,2.4,0.9,2.4,2.6v5h-0.8v-4.9c0-0.7-0.1-1.2-0.4-1.5s-0.7-0.5-1.4-0.5
										c-0.6,0-1.1,0.2-1.5,0.6s-0.6,0.8-0.7,1.4V22h-0.8v-4.9c0-0.6-0.2-1.1-0.4-1.4c-0.3-0.3-0.7-0.5-1.4-0.5
										c-0.5,0-1,0.1-1.3,0.4c-0.4,0.3-0.6,0.7-0.8,1.3V22H100v-7.4H100.8z"/>
								</g>
								<g>
									<path class="st2" d="M112.6,12.5c0-0.2,0.1-0.3,0.2-0.4s0.2-0.2,0.4-0.2s0.3,0.1,0.4,0.2s0.2,0.2,0.2,0.4
										c0,0.2-0.1,0.3-0.2,0.4s-0.2,0.2-0.4,0.2s-0.3-0.1-0.4-0.2S112.6,12.6,112.6,12.5z M113.6,22h-0.8v-7.4h0.8V22z"/>
								</g>
								<g>
									<path class="st2" d="M120.4,20.1c0-0.4-0.2-0.7-0.5-1s-0.8-0.4-1.5-0.6c-0.7-0.1-1.2-0.3-1.5-0.5c-0.4-0.2-0.6-0.4-0.8-0.7
										s-0.3-0.6-0.3-0.9c0-0.6,0.2-1.1,0.7-1.4c0.5-0.4,1.1-0.6,1.9-0.6s1.5,0.2,2,0.6s0.7,0.9,0.7,1.6h-0.8
										c0-0.4-0.2-0.8-0.5-1.1s-0.8-0.4-1.4-0.4c-0.5,0-1,0.1-1.3,0.4c-0.3,0.2-0.5,0.5-0.5,0.9s0.1,0.7,0.4,0.9
										c0.3,0.2,0.8,0.4,1.5,0.6s1.3,0.3,1.6,0.5s0.6,0.4,0.8,0.7s0.3,0.6,0.3,1c0,0.6-0.3,1.1-0.8,1.5s-1.2,0.6-2,0.6
										c-0.9,0-1.6-0.2-2.1-0.6s-0.8-0.9-0.8-1.6h0.8c0,0.5,0.2,0.9,0.6,1.1c0.4,0.3,0.9,0.4,1.5,0.4s1-0.1,1.4-0.4
										S120.4,20.5,120.4,20.1z"/>
								</g>
								<g>
									<path class="st2" d="M127.6,20.1c0-0.4-0.2-0.7-0.5-1s-0.8-0.4-1.5-0.6c-0.7-0.1-1.2-0.3-1.5-0.5c-0.4-0.2-0.6-0.4-0.8-0.7
										s-0.3-0.6-0.3-0.9c0-0.6,0.2-1.1,0.7-1.4c0.5-0.4,1.1-0.6,1.9-0.6s1.5,0.2,2,0.6s0.7,0.9,0.7,1.6h-0.8
										c0-0.4-0.2-0.8-0.5-1.1s-0.8-0.4-1.4-0.4c-0.5,0-1,0.1-1.3,0.4c-0.3,0.2-0.5,0.5-0.5,0.9s0.1,0.7,0.4,0.9
										c0.3,0.2,0.8,0.4,1.5,0.6s1.3,0.3,1.6,0.5s0.6,0.4,0.8,0.7s0.3,0.6,0.3,1c0,0.6-0.3,1.1-0.8,1.5s-1.2,0.6-2,0.6
										c-0.9,0-1.6-0.2-2.1-0.6s-0.8-0.9-0.8-1.6h0.8c0,0.5,0.2,0.9,0.6,1.1c0.4,0.3,0.9,0.4,1.5,0.4s1-0.1,1.4-0.4
										S127.6,20.5,127.6,20.1z"/>
								</g>
								<g>
									<path class="st2" d="M130.4,12.5c0-0.2,0.1-0.3,0.2-0.4c0.1-0.1,0.2-0.2,0.4-0.2s0.3,0.1,0.4,0.2c0.1,0.1,0.2,0.2,0.2,0.4
										c0,0.2-0.1,0.3-0.2,0.4S131.1,13,131,13s-0.3-0.1-0.4-0.2S130.4,12.6,130.4,12.5z M131.4,22h-0.8v-7.4h0.8V22z"/>
								</g>
								<g>
									<path class="st2" d="M133.3,18.2c0-0.7,0.1-1.4,0.4-1.9s0.7-1,1.2-1.3s1.1-0.5,1.7-0.5c1,0,1.8,0.3,2.4,1
										c0.6,0.7,0.9,1.6,0.9,2.7v0.2c0,0.7-0.1,1.4-0.4,1.9c-0.3,0.6-0.7,1-1.2,1.3s-1.1,0.5-1.7,0.5c-1,0-1.8-0.3-2.4-1
										c-0.6-0.7-0.9-1.6-0.9-2.7V18.2z M134.1,18.4c0,0.9,0.2,1.6,0.7,2.2s1.1,0.9,1.8,0.9s1.3-0.3,1.8-0.9s0.7-1.3,0.7-2.2v-0.2
										c0-0.6-0.1-1.1-0.3-1.6s-0.5-0.8-0.9-1.1c-0.4-0.3-0.8-0.4-1.3-0.4c-0.7,0-1.3,0.3-1.8,0.9s-0.7,1.3-0.7,2.2V18.4z"/>
								</g>
								<g>
									<path class="st2" d="M142.6,14.6v1.3c0.3-0.5,0.6-0.8,1-1s0.9-0.4,1.4-0.4c0.8,0,1.4,0.2,1.8,0.7s0.6,1.1,0.6,2V22h-0.8
										v-4.9c0-0.7-0.1-1.2-0.4-1.5s-0.7-0.5-1.3-0.5c-0.5,0-1,0.2-1.3,0.5c-0.4,0.3-0.7,0.7-0.9,1.3V22h-0.8v-7.4H142.6z"/>
								</g>
							</g>
						</g>
					</g>
					<g id="Group-2" transform="translate(0.000000, 60.000000)">
						<g id="Group-10_1_">
							<g id="Oval_1_">
								<circle class="st0" cx="10" cy="10" r="10"/>
							</g>
							<g class="st1">
								<g>
									<path class="st2" d="M11.3,6.8V8h-0.1C10.5,8,10,8.2,9.6,8.5S9,9.2,8.9,9.8c0.4-0.4,0.9-0.6,1.4-0.6c0.6,0,1.1,0.2,1.5,0.7
										s0.5,1,0.5,1.7c0,0.5-0.1,0.9-0.3,1.3s-0.5,0.7-0.8,0.9s-0.8,0.3-1.2,0.3c-0.7,0-1.4-0.3-1.8-0.8s-0.7-1.2-0.7-2.1v-0.5
										c0-0.8,0.1-1.5,0.4-2c0.3-0.6,0.7-1,1.3-1.4c0.5-0.3,1.2-0.5,1.9-0.5C11.1,6.8,11.3,6.8,11.3,6.8z M9.9,10.4
										c-0.2,0-0.4,0.1-0.6,0.2C9.1,10.7,9,10.8,8.9,11v0.4c0,0.5,0.1,0.8,0.3,1.1S9.6,13,10,13c0.3,0,0.5-0.1,0.7-0.4
										c0.2-0.2,0.3-0.5,0.3-0.9s-0.1-0.7-0.3-0.9S10.3,10.4,9.9,10.4z"/>
								</g>
							</g>
						</g>
						<g class="st1">
							<g>
								<path class="st2" d="M42.4,5l3.7,8.8L49.7,5h1.1v10H50v-4.3l0.1-4.4L46.4,15h-0.6L42,6.3l0.1,4.4V15h-0.8V5H42.4z"/>
							</g>
							<g>
								<path class="st2" d="M52.9,11.2c0-0.7,0.1-1.4,0.4-1.9s0.7-1,1.2-1.3c0.5-0.3,1.1-0.5,1.7-0.5c1,0,1.8,0.3,2.4,1
									c0.6,0.7,0.9,1.6,0.9,2.7v0.2c0,0.7-0.1,1.4-0.4,1.9c-0.3,0.6-0.7,1-1.2,1.3s-1.1,0.5-1.7,0.5c-1,0-1.8-0.3-2.4-1
									c-0.6-0.7-0.9-1.6-0.9-2.7V11.2z M53.7,11.4c0,0.9,0.2,1.6,0.7,2.2c0.5,0.6,1.1,0.9,1.8,0.9s1.3-0.3,1.8-0.9
									c0.5-0.6,0.7-1.3,0.7-2.2v-0.2c0-0.6-0.1-1.1-0.3-1.6s-0.5-0.8-0.9-1.1s-0.8-0.4-1.3-0.4c-0.7,0-1.3,0.3-1.8,0.9
									c-0.5,0.6-0.7,1.3-0.7,2.2V11.4z"/>
							</g>
							<g>
								<path class="st2" d="M62.1,7.6v1.3c0.3-0.5,0.6-0.8,1-1c0.4-0.2,0.9-0.4,1.4-0.4c0.8,0,1.4,0.2,1.8,0.7
									c0.4,0.4,0.6,1.1,0.6,2V15h-0.8v-4.9c0-0.7-0.1-1.2-0.4-1.5S65,8.2,64.4,8.2c-0.5,0-1,0.2-1.3,0.5C62.7,9,62.4,9.4,62.2,10
									v5h-0.8V7.6H62.1z"/>
							</g>
							<g>
								<path class="st2" d="M69.2,5.5c0-0.2,0.1-0.3,0.2-0.4s0.2-0.2,0.4-0.2S70,5,70.1,5.1s0.2,0.2,0.2,0.4c0,0.2-0.1,0.3-0.2,0.4
									S69.9,6,69.7,6s-0.3,0-0.4-0.1S69.2,5.6,69.2,5.5z M70.1,15h-0.8V7.6h0.8V15z"/>
							</g>
							<g>
								<path class="st2" d="M73.8,5.7v1.9h1.5v0.7h-1.5v4.9c0,0.4,0.1,0.7,0.2,0.9s0.4,0.3,0.7,0.3c0.1,0,0.4,0,0.7-0.1V15
									c-0.2,0.1-0.5,0.1-0.9,0.1c-0.6,0-1-0.2-1.2-0.5c-0.3-0.3-0.4-0.8-0.4-1.4V8.3h-1.4V7.6H73V5.7H73.8z"/>
							</g>
							<g>
								<path class="st2" d="M76.6,11.2c0-0.7,0.1-1.4,0.4-1.9s0.7-1,1.2-1.3c0.5-0.3,1.1-0.5,1.7-0.5c1,0,1.8,0.3,2.4,1
									s0.9,1.6,0.9,2.7v0.2c0,0.7-0.1,1.4-0.4,1.9c-0.3,0.6-0.7,1-1.2,1.3s-1.1,0.5-1.7,0.5c-1,0-1.8-0.3-2.4-1s-0.9-1.6-0.9-2.7
									V11.2z M77.4,11.4c0,0.9,0.2,1.6,0.7,2.2c0.5,0.6,1.1,0.9,1.8,0.9c0.7,0,1.3-0.3,1.8-0.9c0.5-0.6,0.7-1.3,0.7-2.2v-0.2
									c0-0.6-0.1-1.1-0.3-1.6s-0.5-0.8-0.9-1.1s-0.8-0.4-1.3-0.4c-0.7,0-1.3,0.3-1.8,0.9c-0.5,0.6-0.7,1.3-0.7,2.2
									C77.4,11.2,77.4,11.4,77.4,11.4z"/>
							</g>
							<g>
								<path class="st2" d="M88.5,8.3c-0.2,0-0.4,0-0.6,0c-0.5,0-0.9,0.1-1.3,0.4C86.3,9,86,9.4,85.9,9.9V15h-0.8V7.6h0.8v1.2
									C86.3,7.9,87,7.5,88,7.5c0.2,0,0.4,0,0.5,0.1V8.3z"/>
							</g>
							<g>
								<path class="st2" d="M98.2,15c-0.1-0.2-0.1-0.6-0.2-1c-0.3,0.4-0.7,0.7-1.1,0.9s-0.9,0.3-1.4,0.3c-0.7,0-1.3-0.2-1.7-0.6
									s-0.7-0.9-0.7-1.5c0-0.7,0.3-1.3,0.9-1.7s1.4-0.6,2.5-0.6H98V9.9c0-0.5-0.2-0.9-0.5-1.2s-0.8-0.5-1.4-0.5s-1,0.1-1.4,0.4
									s-0.6,0.6-0.6,1.1h-0.8c0-0.6,0.3-1.1,0.8-1.5c0.5-0.4,1.2-0.6,2-0.6s1.5,0.2,2,0.6c0.5,0.4,0.7,1,0.7,1.7v3.5
									c0,0.7,0.1,1.3,0.2,1.6l0,0H98.2z M95.6,14.4c0.5,0,1-0.1,1.5-0.4s0.7-0.6,0.9-1.1v-1.6h-1.5c-0.8,0-1.5,0.2-1.9,0.4
									c-0.5,0.3-0.7,0.7-0.7,1.2c0,0.4,0.2,0.8,0.5,1S95.1,14.4,95.6,14.4z"/>
							</g>
							<g>
								<path class="st2" d="M102,7.6v1.3c0.3-0.5,0.6-0.8,1-1c0.4-0.2,0.9-0.4,1.4-0.4c0.8,0,1.4,0.2,1.8,0.7
									c0.4,0.4,0.6,1.1,0.6,2V15H106v-4.9c0-0.7-0.1-1.2-0.4-1.5s-0.7-0.5-1.3-0.5c-0.5,0-1,0.2-1.3,0.5c-0.4,0.3-0.7,0.7-0.9,1.3
									V15h-0.8V7.6H102z"/>
							</g>
							<g>
								<path class="st2" d="M108.7,11.2c0-1.1,0.3-2.1,0.8-2.7c0.5-0.7,1.2-1,2.1-1c1,0,1.8,0.4,2.3,1.2V4.5h0.8V15h-0.8v-1
									c-0.5,0.7-1.3,1.1-2.3,1.1c-0.9,0-1.5-0.3-2.1-1C109,13.4,108.7,12.5,108.7,11.2L108.7,11.2z M109.5,11.4
									c0,0.9,0.2,1.7,0.6,2.2s0.9,0.8,1.6,0.8c1,0,1.7-0.4,2.1-1.3V9.6c-0.4-1-1.1-1.4-2.1-1.4c-0.7,0-1.2,0.3-1.6,0.8
									C109.7,9.5,109.5,10.3,109.5,11.4z"/>
							</g>
							<g>
								<path class="st2" d="M121.3,7.6v1.2c0.3-0.4,0.6-0.8,1-1s0.9-0.3,1.4-0.3c1.2,0,1.9,0.5,2.2,1.4c0.3-0.5,0.6-0.8,1.1-1.1
									c0.4-0.2,0.9-0.4,1.5-0.4c1.6,0,2.4,0.9,2.4,2.6v5h-0.8v-4.9c0-0.7-0.1-1.2-0.4-1.5s-0.7-0.5-1.4-0.5
									c-0.6,0-1.1,0.2-1.5,0.6c-0.4,0.4-0.6,0.8-0.7,1.4V15h-0.8v-4.9c0-0.6-0.2-1.1-0.4-1.4c-0.3-0.3-0.7-0.5-1.4-0.5
									c-0.5,0-1,0.1-1.3,0.4c-0.4,0.3-0.6,0.7-0.8,1.3V15h-0.8V7.6H121.3z"/>
							</g>
							<g>
								<path class="st2" d="M137.8,15c-0.1-0.2-0.1-0.6-0.2-1c-0.3,0.4-0.7,0.7-1.1,0.9c-0.4,0.2-0.9,0.3-1.4,0.3
									c-0.7,0-1.3-0.2-1.7-0.6s-0.7-0.9-0.7-1.5c0-0.7,0.3-1.3,0.9-1.7s1.4-0.6,2.5-0.6h1.5V9.9c0-0.5-0.2-0.9-0.5-1.2
									s-0.8-0.5-1.4-0.5c-0.6,0-1,0.1-1.4,0.4s-0.6,0.6-0.6,1.1h-0.8c0-0.6,0.3-1.1,0.8-1.5c0.5-0.4,1.2-0.6,2-0.6s1.5,0.2,2,0.6
									c0.5,0.4,0.7,1,0.7,1.7v3.5c0,0.7,0.1,1.3,0.2,1.6l0,0H137.8z M135.2,14.4c0.5,0,1-0.1,1.5-0.4s0.7-0.6,0.9-1.1v-1.6h-1.5
									c-0.8,0-1.5,0.2-1.9,0.4c-0.5,0.3-0.7,0.7-0.7,1.2c0,0.4,0.2,0.8,0.5,1S134.7,14.4,135.2,14.4z"/>
							</g>
							<g>
								<path class="st2" d="M141.6,7.6v1.3c0.3-0.5,0.6-0.8,1-1c0.4-0.2,0.9-0.4,1.4-0.4c0.8,0,1.4,0.2,1.8,0.7
									c0.4,0.4,0.6,1.1,0.6,2V15h-0.8v-4.9c0-0.7-0.1-1.2-0.4-1.5s-0.7-0.5-1.3-0.5c-0.5,0-1,0.2-1.3,0.5
									c-0.4,0.3-0.7,0.7-0.9,1.3V15h-0.8V7.6H141.6z"/>
							</g>
							<g>
								<path class="st2" d="M153.3,15c-0.1-0.2-0.1-0.6-0.2-1c-0.3,0.4-0.7,0.7-1.1,0.9c-0.4,0.2-0.9,0.3-1.4,0.3
									c-0.7,0-1.3-0.2-1.7-0.6s-0.7-0.9-0.7-1.5c0-0.7,0.3-1.3,0.9-1.7s1.4-0.6,2.5-0.6h1.5V9.9c0-0.5-0.2-0.9-0.5-1.2
									s-0.8-0.5-1.4-0.5c-0.6,0-1,0.1-1.4,0.4s-0.6,0.6-0.6,1.1h-0.8c0-0.6,0.3-1.1,0.8-1.5c0.5-0.4,1.2-0.6,2-0.6s1.5,0.2,2,0.6
									c0.5,0.4,0.7,1,0.7,1.7v3.5c0,0.7,0.1,1.3,0.2,1.6l0,0H153.3z M150.8,14.4c0.5,0,1-0.1,1.5-0.4s0.7-0.6,0.9-1.1v-1.6h-1.5
									c-0.8,0-1.5,0.2-1.9,0.4c-0.5,0.3-0.7,0.7-0.7,1.2c0,0.4,0.2,0.8,0.5,1S150.3,14.4,150.8,14.4z"/>
							</g>
							<g>
								<path class="st2" d="M156,11.2c0-1.2,0.3-2.1,0.8-2.8s1.2-1,2.1-1c1,0,1.8,0.4,2.3,1.2V7.5h0.8v7.2c0,1-0.3,1.7-0.8,2.3
									s-1.3,0.8-2.2,0.8c-0.5,0-1-0.1-1.5-0.3c-0.5-0.2-0.8-0.5-1.1-0.9l0.5-0.5c0.6,0.7,1.3,1.1,2.1,1.1c0.7,0,1.2-0.2,1.6-0.6
									c0.4-0.4,0.6-1,0.6-1.7V14c-0.5,0.7-1.3,1.1-2.3,1.1c-0.9,0-1.5-0.3-2.1-1s-0.8-1.6-0.8-2.8L156,11.2L156,11.2z M156.8,11.4
									c0,0.9,0.2,1.7,0.6,2.2c0.4,0.5,0.9,0.8,1.6,0.8c1,0,1.7-0.5,2.1-1.4V9.6c-0.2-0.5-0.5-0.8-0.8-1.1
									c-0.4-0.2-0.8-0.4-1.3-0.4c-0.7,0-1.2,0.3-1.6,0.8C157,9.5,156.8,10.3,156.8,11.4z"/>
							</g>
							<g>
								<path class="st2" d="M167.1,15.1c-0.6,0-1.2-0.2-1.7-0.5s-0.9-0.7-1.2-1.3s-0.4-1.2-0.4-1.9v-0.3c0-0.7,0.1-1.4,0.4-1.9
									s0.7-1,1.2-1.3c0.5-0.3,1-0.5,1.6-0.5c0.9,0,1.6,0.3,2.1,0.9s0.8,1.5,0.8,2.5v0.5h-5.3v0.2c0,0.8,0.2,1.5,0.7,2.1
									s1.1,0.8,1.8,0.8c0.4,0,0.8-0.1,1.2-0.2s0.6-0.4,0.9-0.8l0.5,0.4C169.1,14.7,168.3,15.1,167.1,15.1z M167,8.2
									c-0.6,0-1.1,0.2-1.6,0.7s-0.7,1.1-0.8,1.8h4.4v-0.1c0-0.7-0.2-1.3-0.6-1.7S167.6,8.2,167,8.2z"/>
							</g>
							<g>
								<path class="st2" d="M177.6,13.8l2.2-6.2h0.9l-3.2,8.7l-0.2,0.4c-0.4,0.9-1,1.3-1.9,1.3c-0.2,0-0.4,0-0.6-0.1v-0.7h0.4
									c0.4,0,0.7-0.1,1-0.3c0.2-0.2,0.5-0.5,0.6-1l0.4-1l-2.8-7.3h0.9L177.6,13.8z"/>
							</g>
							<g>
								<path class="st2" d="M181.5,11.2c0-0.7,0.1-1.4,0.4-1.9s0.7-1,1.2-1.3c0.5-0.3,1.1-0.5,1.7-0.5c1,0,1.8,0.3,2.4,1
									c0.6,0.7,0.9,1.6,0.9,2.7v0.2c0,0.7-0.1,1.4-0.4,1.9c-0.3,0.6-0.7,1-1.2,1.3s-1.1,0.5-1.7,0.5c-1,0-1.8-0.3-2.4-1
									c-0.6-0.7-0.9-1.6-0.9-2.7V11.2z M182.3,11.4c0,0.9,0.2,1.6,0.7,2.2c0.5,0.6,1.1,0.9,1.8,0.9s1.3-0.3,1.8-0.9
									c0.5-0.6,0.7-1.3,0.7-2.2v-0.2c0-0.6-0.1-1.1-0.3-1.6s-0.5-0.8-0.9-1.1s-0.8-0.4-1.3-0.4c-0.7,0-1.3,0.3-1.8,0.9
									c-0.5,0.6-0.7,1.3-0.7,2.2V11.4z"/>
							</g>
							<g>
								<path class="st2" d="M194.7,14.1c-0.5,0.7-1.3,1.1-2.4,1.1c-0.8,0-1.4-0.2-1.8-0.7c-0.4-0.5-0.6-1.1-0.6-2V7.6h0.8v4.7
									c0,1.4,0.6,2.1,1.7,2.1c1.2,0,1.9-0.5,2.2-1.5V7.6h0.8V15h-0.8L194.7,14.1z"/>
							</g>
							<g>
								<path class="st2" d="M201.2,8.3c-0.2,0-0.4,0-0.6,0c-0.5,0-0.9,0.1-1.3,0.4c-0.4,0.3-0.6,0.7-0.8,1.2V15h-0.8V7.6h0.8v1.2
									c0.4-0.9,1.1-1.3,2.1-1.3c0.2,0,0.4,0,0.5,0.1L201.2,8.3z"/>
							</g>
							<g>
								<path class="st2" d="M210.9,15c-0.1-0.2-0.1-0.6-0.2-1c-0.3,0.4-0.7,0.7-1.1,0.9c-0.4,0.2-0.9,0.3-1.4,0.3
									c-0.7,0-1.3-0.2-1.7-0.6c-0.4-0.4-0.7-0.9-0.7-1.5c0-0.7,0.3-1.3,0.9-1.7c0.6-0.4,1.4-0.6,2.5-0.6h1.5V9.9
									c0-0.5-0.2-0.9-0.5-1.2s-0.8-0.5-1.4-0.5c-0.6,0-1,0.1-1.4,0.4s-0.6,0.6-0.6,1.1H206c0-0.6,0.3-1.1,0.8-1.5
									c0.5-0.4,1.2-0.6,2-0.6s1.5,0.2,2,0.6c0.5,0.4,0.7,1,0.7,1.7v3.5c0,0.7,0.1,1.3,0.2,1.6l0,0H210.9z M208.4,14.4
									c0.5,0,1-0.1,1.5-0.4c0.4-0.3,0.7-0.6,0.9-1.1v-1.6h-1.5c-0.8,0-1.5,0.2-1.9,0.4c-0.5,0.3-0.7,0.7-0.7,1.2
									c0,0.4,0.2,0.8,0.5,1C207.5,14.3,207.9,14.4,208.4,14.4z"/>
							</g>
							<g>
								<path class="st2" d="M216.7,14.4c0.6,0,1-0.2,1.4-0.5s0.6-0.7,0.6-1.2h0.8c0,0.5-0.2,0.9-0.4,1.2c-0.3,0.4-0.6,0.7-1,0.9
									s-0.9,0.3-1.4,0.3c-1,0-1.7-0.3-2.3-1s-0.9-1.6-0.9-2.7v-0.2c0-0.7,0.1-1.4,0.4-1.9s0.6-1,1.1-1.3c0.5-0.3,1-0.5,1.7-0.5
									c0.8,0,1.5,0.2,2,0.7s0.8,1.1,0.8,1.9h-0.8c0-0.6-0.2-1-0.6-1.4c-0.4-0.4-0.9-0.5-1.4-0.5c-0.7,0-1.3,0.3-1.7,0.8
									s-0.6,1.3-0.6,2.2v0.2c0,0.9,0.2,1.7,0.6,2.2C215.3,14.2,215.9,14.4,216.7,14.4z"/>
							</g>
							<g>
								<path class="st2" d="M224,14.4c0.6,0,1-0.2,1.4-0.5s0.6-0.7,0.6-1.2h0.8c0,0.5-0.2,0.9-0.4,1.2c-0.3,0.4-0.6,0.7-1,0.9
									s-0.9,0.3-1.4,0.3c-1,0-1.7-0.3-2.3-1s-0.9-1.6-0.9-2.7v-0.2c0-0.7,0.1-1.4,0.4-1.9s0.6-1,1.1-1.3c0.5-0.3,1-0.5,1.7-0.5
									c0.8,0,1.5,0.2,2,0.7s0.8,1.1,0.8,1.9H226c0-0.6-0.2-1-0.6-1.4c-0.4-0.4-0.9-0.5-1.4-0.5c-0.7,0-1.3,0.3-1.7,0.8
									s-0.6,1.3-0.6,2.2v0.2c0,0.9,0.2,1.7,0.6,2.2C222.7,14.2,223.3,14.4,224,14.4z"/>
							</g>
							<g>
								<path class="st2" d="M228.2,11.2c0-0.7,0.1-1.4,0.4-1.9c0.3-0.6,0.7-1,1.2-1.3c0.5-0.3,1.1-0.5,1.7-0.5c1,0,1.8,0.3,2.4,1
									c0.6,0.7,0.9,1.6,0.9,2.7v0.2c0,0.7-0.1,1.4-0.4,1.9c-0.3,0.6-0.7,1-1.2,1.3s-1.1,0.5-1.7,0.5c-1,0-1.8-0.3-2.4-1
									c-0.6-0.7-0.9-1.6-0.9-2.7V11.2z M229.1,11.4c0,0.9,0.2,1.6,0.7,2.2c0.5,0.6,1.1,0.9,1.8,0.9s1.3-0.3,1.8-0.9
									c0.5-0.6,0.7-1.3,0.7-2.2v-0.2c0-0.6-0.1-1.1-0.3-1.6s-0.5-0.8-0.9-1.1s-0.8-0.4-1.3-0.4c-0.7,0-1.3,0.3-1.8,0.9
									c-0.5,0.6-0.7,1.3-0.7,2.2V11.4z"/>
							</g>
							<g>
								<path class="st2" d="M241.5,14.1c-0.5,0.7-1.3,1.1-2.4,1.1c-0.8,0-1.4-0.2-1.8-0.7c-0.4-0.5-0.6-1.1-0.6-2V7.6h0.8v4.7
									c0,1.4,0.6,2.1,1.7,2.1c1.2,0,1.9-0.5,2.2-1.5V7.6h0.8V15h-0.8L241.5,14.1z"/>
							</g>
							<g>
								<path class="st2" d="M245.3,7.6v1.3c0.3-0.5,0.6-0.8,1-1c0.4-0.2,0.9-0.4,1.4-0.4c0.8,0,1.4,0.2,1.8,0.7
									c0.4,0.4,0.6,1.1,0.6,2V15h-0.8v-4.9c0-0.7-0.1-1.2-0.4-1.5c-0.3-0.3-0.7-0.5-1.3-0.5c-0.5,0-1,0.2-1.3,0.5
									c-0.4,0.3-0.7,0.7-0.9,1.3V15h-0.8V7.6H245.3z"/>
							</g>
							<g>
								<path class="st2" d="M253.7,5.7v1.9h1.5v0.7h-1.5v4.9c0,0.4,0.1,0.7,0.2,0.9c0.1,0.2,0.4,0.3,0.7,0.3c0.1,0,0.4,0,0.7-0.1
									V15c-0.2,0.1-0.5,0.1-0.9,0.1c-0.6,0-1-0.2-1.2-0.5c-0.3-0.3-0.4-0.8-0.4-1.4V8.3h-1.4V7.6h1.4V5.7H253.7z"/>
							</g>
						</g>
					</g>
					<g id="Group" transform="translate(0.000000, 120.000000)">
						<g id="Group-10_2_">
							<g id="Oval_2_">
								<circle class="st0" cx="10" cy="10" r="10"/>
							</g>
							<g class="st1">
								<g>
									<path class="st2" d="M12.3,7.7L9.6,14H8.1l2.8-6H7.3V6.9h5V7.7z"/>
								</g>
							</g>
						</g>
						<g class="st1">
							<g>
								<path class="st2" d="M48.3,11.9c-0.1,1-0.5,1.9-1.1,2.4s-1.5,0.8-2.5,0.8c-0.7,0-1.4-0.2-2-0.6s-1-0.9-1.3-1.6
									c-0.3-0.7-0.5-1.5-0.5-2.3V9.4c0-0.9,0.2-1.7,0.5-2.4s0.8-1.2,1.3-1.6c0.6-0.4,1.2-0.6,2-0.6c1.1,0,1.9,0.3,2.5,0.9
									s1,1.4,1.1,2.4h-0.8c-0.2-1.7-1.1-2.5-2.8-2.5c-0.9,0-1.6,0.3-2.2,1s-0.8,1.6-0.8,2.8v1.2c0,1.1,0.3,2.1,0.8,2.8
									s1.2,1,2.1,1c0.9,0,1.5-0.2,2-0.6c0.4-0.4,0.7-1.1,0.8-1.9C47.4,11.9,48.3,11.9,48.3,11.9z"/>
							</g>
							<g>
								<path class="st2" d="M49.9,11.2c0-0.7,0.1-1.4,0.4-1.9s0.7-1,1.2-1.3c0.5-0.3,1.1-0.5,1.7-0.5c1,0,1.8,0.3,2.4,1
									c0.6,0.7,0.9,1.6,0.9,2.7v0.2c0,0.7-0.1,1.4-0.4,1.9c-0.3,0.6-0.7,1-1.2,1.3s-1.1,0.5-1.7,0.5c-1,0-1.8-0.3-2.4-1
									c-0.6-0.7-0.9-1.6-0.9-2.7V11.2z M50.7,11.4c0,0.9,0.2,1.6,0.7,2.2c0.5,0.6,1.1,0.9,1.8,0.9s1.3-0.3,1.8-0.9
									c0.5-0.6,0.7-1.3,0.7-2.2v-0.2c0-0.6-0.1-1.1-0.3-1.6s-0.5-0.8-0.9-1.1s-0.8-0.4-1.3-0.4c-0.7,0-1.3,0.3-1.8,0.9
									c-0.5,0.6-0.7,1.3-0.7,2.2V11.4z"/>
							</g>
							<g>
								<path class="st2" d="M59.1,7.6v1.2c0.3-0.4,0.6-0.8,1-1s0.9-0.3,1.4-0.3c1.2,0,1.9,0.5,2.2,1.4c0.3-0.5,0.6-0.8,1.1-1.1
									c0.4-0.2,0.9-0.4,1.5-0.4c1.6,0,2.4,0.9,2.4,2.6v5h-0.8v-4.9c0-0.7-0.1-1.2-0.4-1.5s-0.7-0.5-1.4-0.5
									c-0.6,0-1.1,0.2-1.5,0.6c-0.4,0.4-0.6,0.8-0.7,1.4V15h-0.8v-4.9c0-0.6-0.2-1.1-0.4-1.4c-0.3-0.3-0.7-0.5-1.4-0.5
									c-0.5,0-1,0.1-1.3,0.4c-0.4,0.3-0.6,0.7-0.8,1.3V15h-0.8V7.6H59.1z"/>
							</g>
							<g>
								<path class="st2" d="M71.7,7.6v1.2c0.3-0.4,0.6-0.8,1-1s0.9-0.3,1.4-0.3c1.2,0,1.9,0.5,2.2,1.4c0.3-0.5,0.6-0.8,1.1-1.1
									c0.4-0.2,0.9-0.4,1.5-0.4c1.6,0,2.4,0.9,2.4,2.6v5h-0.8v-4.9c0-0.7-0.1-1.2-0.4-1.5s-0.7-0.5-1.4-0.5
									c-0.6,0-1.1,0.2-1.5,0.6c-0.4,0.4-0.6,0.8-0.7,1.4V15h-0.8v-4.9c0-0.6-0.2-1.1-0.4-1.4c-0.3-0.3-0.7-0.5-1.4-0.5
									c-0.5,0-1,0.1-1.3,0.4c-0.4,0.3-0.6,0.7-0.8,1.3V15H71V7.6H71.7z"/>
							</g>
							<g>
								<path class="st2" d="M83.4,5.5c0-0.2,0.1-0.3,0.2-0.4s0.2-0.2,0.4-0.2s0.3,0.1,0.4,0.2s0.2,0.2,0.2,0.4
									c0,0.2-0.1,0.3-0.2,0.4S84.2,6,84,6s-0.3,0-0.4-0.1S83.4,5.6,83.4,5.5z M84.4,15h-0.8V7.6h0.8V15z"/>
							</g>
							<g>
								<path class="st2" d="M91.2,13.1c0-0.4-0.2-0.7-0.5-1s-0.8-0.4-1.5-0.6c-0.7-0.1-1.2-0.3-1.5-0.5c-0.4-0.2-0.6-0.4-0.8-0.7
									s-0.3-0.6-0.3-0.9c0-0.6,0.2-1.1,0.7-1.4c0.5-0.4,1.1-0.6,1.9-0.6s1.5,0.2,2,0.6C91.8,8.5,92,9,92,9.7h-0.8
									c0-0.4-0.2-0.8-0.5-1.1s-0.8-0.4-1.4-0.4c-0.5,0-1,0.1-1.3,0.4c-0.3,0.2-0.5,0.5-0.5,0.9s0.1,0.7,0.4,0.9s0.8,0.4,1.5,0.6
									s1.3,0.3,1.6,0.5s0.6,0.4,0.8,0.7s0.3,0.6,0.3,1c0,0.6-0.3,1.1-0.8,1.5s-1.2,0.6-2,0.6c-0.9,0-1.6-0.2-2.1-0.6
									c-0.5-0.4-0.8-0.9-0.8-1.6h0.8c0,0.5,0.2,0.9,0.6,1.1c0.4,0.3,0.9,0.4,1.5,0.4s1-0.1,1.4-0.4S91.2,13.5,91.2,13.1z"/>
							</g>
							<g>
								<path class="st2" d="M98.5,13.1c0-0.4-0.2-0.7-0.5-1s-0.8-0.4-1.5-0.6c-0.7-0.1-1.2-0.3-1.5-0.5c-0.4-0.2-0.6-0.4-0.8-0.7
									s-0.3-0.6-0.3-0.9c0-0.6,0.2-1.1,0.7-1.4c0.5-0.4,1.1-0.6,1.9-0.6s1.5,0.2,2,0.6c0.5,0.5,0.8,1,0.8,1.7h-0.8
									c0-0.4-0.2-0.8-0.5-1.1s-0.8-0.4-1.4-0.4c-0.5,0-1,0.1-1.3,0.4c-0.3,0.2-0.5,0.5-0.5,0.9s0.1,0.7,0.4,0.9s0.8,0.4,1.5,0.6
									s1.3,0.3,1.6,0.5s0.6,0.4,0.8,0.7s0.3,0.6,0.3,1c0,0.6-0.3,1.1-0.8,1.5s-1.2,0.6-2,0.6c-0.9,0-1.6-0.2-2.1-0.6
									c-0.5-0.4-0.8-0.9-0.8-1.6h0.8c0,0.5,0.2,0.9,0.6,1.1c0.4,0.3,0.9,0.4,1.5,0.4s1-0.1,1.4-0.4S98.5,13.5,98.5,13.1z"/>
							</g>
							<g>
								<path class="st2" d="M101.3,5.5c0-0.2,0.1-0.3,0.2-0.4s0.2-0.2,0.4-0.2s0.3,0.1,0.4,0.2s0.2,0.2,0.2,0.4
									c0,0.2-0.1,0.3-0.2,0.4S102,6,101.8,6s-0.3-0.1-0.4-0.2S101.3,5.6,101.3,5.5z M102.2,15h-0.8V7.6h0.8V15z"/>
							</g>
							<g>
								<path class="st2" d="M104.2,11.2c0-0.7,0.1-1.4,0.4-1.9s0.7-1,1.2-1.3c0.5-0.3,1.1-0.5,1.7-0.5c1,0,1.8,0.3,2.4,1
									s0.9,1.6,0.9,2.7v0.2c0,0.7-0.1,1.4-0.4,1.9c-0.3,0.6-0.7,1-1.2,1.3s-1.1,0.5-1.7,0.5c-1,0-1.8-0.3-2.4-1s-0.9-1.6-0.9-2.7
									V11.2z M105,11.4c0,0.9,0.2,1.6,0.7,2.2c0.5,0.6,1.1,0.9,1.8,0.9c0.7,0,1.3-0.3,1.8-0.9c0.5-0.6,0.7-1.3,0.7-2.2v-0.2
									c0-0.6-0.1-1.1-0.3-1.6s-0.5-0.8-0.9-1.1s-0.8-0.4-1.3-0.4c-0.7,0-1.3,0.3-1.8,0.9c-0.5,0.6-0.7,1.3-0.7,2.2
									C105,11.2,105,11.4,105,11.4z"/>
							</g>
							<g>
								<path class="st2" d="M113.4,7.6v1.3c0.3-0.5,0.6-0.8,1-1c0.4-0.2,0.9-0.4,1.4-0.4c0.8,0,1.4,0.2,1.8,0.7
									c0.4,0.4,0.6,1.1,0.6,2V15h-0.8v-4.9c0-0.7-0.1-1.2-0.4-1.5s-0.7-0.5-1.3-0.5c-0.5,0-1,0.2-1.3,0.5
									c-0.4,0.3-0.7,0.7-0.9,1.3V15h-0.8V7.6H113.4z"/>
							</g>
							<g>
								<path class="st2" d="M124,5.5c0-0.2,0.1-0.3,0.2-0.4s0.2-0.2,0.4-0.2s0.3,0.1,0.4,0.2s0.2,0.2,0.2,0.4
									c0,0.2-0.1,0.3-0.2,0.4S124.7,6,124.6,6s-0.3-0.1-0.4-0.2S124,5.6,124,5.5z M125,15h-0.8V7.6h0.8V15z"/>
							</g>
							<g>
								<path class="st2" d="M131.8,13.1c0-0.4-0.2-0.7-0.5-1s-0.8-0.4-1.5-0.6c-0.7-0.1-1.2-0.3-1.5-0.5c-0.4-0.2-0.6-0.4-0.8-0.7
									s-0.3-0.6-0.3-0.9c0-0.6,0.2-1.1,0.7-1.4c0.5-0.4,1.1-0.6,1.9-0.6c0.8,0,1.5,0.2,2,0.6c0.5,0.4,0.7,0.9,0.7,1.6h-0.8
									c0-0.4-0.2-0.8-0.5-1.1s-0.8-0.4-1.4-0.4c-0.5,0-1,0.1-1.3,0.4C128.2,8.7,128,9,128,9.4s0.1,0.7,0.4,0.9
									c0.3,0.2,0.8,0.4,1.5,0.6s1.3,0.3,1.6,0.5s0.6,0.4,0.8,0.7s0.3,0.6,0.3,1c0,0.6-0.3,1.1-0.8,1.5s-1.2,0.6-2,0.6
									c-0.9,0-1.6-0.2-2.1-0.6c-0.5-0.4-0.8-0.9-0.8-1.6h0.8c0,0.5,0.2,0.9,0.6,1.1c0.4,0.3,0.9,0.4,1.5,0.4s1-0.1,1.4-0.4
									S131.8,13.5,131.8,13.1z"/>
							</g>
							<g>
								<path class="st2" d="M144.1,11.4c0,1.2-0.3,2.1-0.8,2.7c-0.5,0.7-1.2,1-2.1,1c-1,0-1.8-0.4-2.3-1.1v3.8h-0.8V7.6h0.8v1
									c0.5-0.8,1.3-1.2,2.3-1.2c0.9,0,1.6,0.3,2.1,1s0.8,1.6,0.8,2.8V11.4z M143.3,11.2c0-0.9-0.2-1.7-0.6-2.2s-0.9-0.8-1.6-0.8
									c-0.5,0-0.9,0.1-1.3,0.4s-0.6,0.6-0.8,1.1v3.5c0.2,0.4,0.5,0.7,0.8,1s0.8,0.3,1.3,0.3c0.7,0,1.2-0.3,1.6-0.8
									C143.1,13.1,143.3,12.3,143.3,11.2z"/>
							</g>
							<g>
								<path class="st2" d="M150.8,15c-0.1-0.2-0.1-0.6-0.2-1c-0.3,0.4-0.7,0.7-1.1,0.9c-0.4,0.2-0.9,0.3-1.4,0.3
									c-0.7,0-1.3-0.2-1.7-0.6s-0.7-0.9-0.7-1.5c0-0.7,0.3-1.3,0.9-1.7s1.4-0.6,2.5-0.6h1.5V9.9c0-0.5-0.2-0.9-0.5-1.2
									s-0.8-0.5-1.4-0.5c-0.6,0-1,0.1-1.4,0.4s-0.6,0.6-0.6,1.1h-0.8c0-0.6,0.3-1.1,0.8-1.5c0.5-0.4,1.2-0.6,2-0.6s1.5,0.2,2,0.6
									c0.5,0.4,0.7,1,0.7,1.7v3.5c0,0.7,0.1,1.3,0.2,1.6l0,0H150.8z M148.2,14.4c0.5,0,1-0.1,1.5-0.4s0.7-0.6,0.9-1.1v-1.6h-1.5
									c-0.8,0-1.5,0.2-1.9,0.4c-0.5,0.3-0.7,0.7-0.7,1.2c0,0.4,0.2,0.8,0.5,1S147.7,14.4,148.2,14.4z"/>
							</g>
							<g>
								<path class="st2" d="M153.7,5.5c0-0.2,0.1-0.3,0.2-0.4c0.1-0.1,0.2-0.2,0.4-0.2s0.3,0.1,0.4,0.2c0.1,0.1,0.2,0.2,0.2,0.4
									c0,0.2-0.1,0.3-0.2,0.4S154.5,6,154.3,6s-0.3,0-0.4-0.1S153.7,5.6,153.7,5.5z M154.7,15h-0.8V7.6h0.8V15z"/>
							</g>
							<g>
								<path class="st2" d="M156.8,11.2c0-1.1,0.3-2.1,0.8-2.7c0.5-0.7,1.2-1,2.1-1c1,0,1.8,0.4,2.3,1.2V4.5h0.8V15H162v-1
									c-0.5,0.7-1.3,1.1-2.3,1.1c-0.9,0-1.5-0.3-2.1-1C157,13.4,156.8,12.5,156.8,11.2L156.8,11.2z M157.6,11.4
									c0,0.9,0.2,1.7,0.6,2.2c0.4,0.5,0.9,0.8,1.6,0.8c1,0,1.7-0.4,2.1-1.3V9.6c-0.4-1-1.1-1.4-2.1-1.4c-0.7,0-1.2,0.3-1.6,0.8
									C157.8,9.5,157.6,10.3,157.6,11.4z"/>
							</g>
							<g>
								<path class="st2" d="M171.5,15.1c-0.6,0-1.2-0.2-1.7-0.5s-0.9-0.7-1.2-1.3s-0.4-1.2-0.4-1.9v-0.3c0-0.7,0.1-1.4,0.4-1.9
									s0.7-1,1.2-1.3c0.5-0.3,1-0.5,1.6-0.5c0.9,0,1.6,0.3,2.1,0.9s0.8,1.5,0.8,2.5v0.5H169v0.2c0,0.8,0.2,1.5,0.7,2.1
									s1.1,0.8,1.8,0.8c0.4,0,0.8-0.1,1.2-0.2s0.6-0.4,0.9-0.8l0.5,0.4C173.5,14.7,172.6,15.1,171.5,15.1z M171.3,8.2
									c-0.6,0-1.1,0.2-1.6,0.7s-0.7,1.1-0.8,1.8h4.4v-0.1c0-0.7-0.2-1.3-0.6-1.7S171.9,8.2,171.3,8.2z"/>
							</g>
							<g>
								<path class="st2" d="M178.2,13.9l2.2-6.3h0.8l-2.8,7.4h-0.7l-2.8-7.4h0.8L178.2,13.9z"/>
							</g>
							<g>
								<path class="st2" d="M185.6,15.1c-0.6,0-1.2-0.2-1.7-0.5s-0.9-0.7-1.2-1.3s-0.4-1.2-0.4-1.9v-0.3c0-0.7,0.1-1.4,0.4-1.9
									s0.7-1,1.2-1.3c0.5-0.3,1-0.5,1.6-0.5c0.9,0,1.6,0.3,2.1,0.9s0.8,1.5,0.8,2.5v0.5h-5.3v0.2c0,0.8,0.2,1.5,0.7,2.1
									s1.1,0.8,1.8,0.8c0.4,0,0.8-0.1,1.2-0.2s0.6-0.4,0.9-0.8l0.5,0.4C187.6,14.7,186.7,15.1,185.6,15.1z M185.4,8.2
									c-0.6,0-1.1,0.2-1.6,0.7s-0.7,1.1-0.8,1.8h4.4v-0.1c0-0.7-0.2-1.3-0.6-1.7S186.1,8.2,185.4,8.2z"/>
							</g>
							<g>
								<path class="st2" d="M193.5,8.3c-0.2,0-0.4,0-0.6,0c-0.5,0-0.9,0.1-1.3,0.4c-0.4,0.3-0.6,0.7-0.8,1.2V15H190V7.6h0.8v1.2
									c0.4-0.9,1.1-1.3,2.1-1.3c0.2,0,0.4,0,0.5,0.1L193.5,8.3z"/>
							</g>
							<g>
								<path class="st2" d="M197.5,13.8l2.2-6.2h0.9l-3.2,8.7l-0.2,0.4c-0.4,0.9-1,1.3-1.9,1.3c-0.2,0-0.4,0-0.6-0.1v-0.7h0.4
									c0.4,0,0.7-0.1,1-0.3c0.2-0.2,0.5-0.5,0.6-1l0.4-1l-2.8-7.3h0.9L197.5,13.8z"/>
							</g>
							<g>
								<path class="st2" d="M207.3,13.3l0.1,0.6l0.2-0.7l1.8-5.7h0.7l1.8,5.6L212,14l0.2-0.7l1.5-5.7h0.8l-2.2,7.4h-0.7l-1.9-5.9
									l-0.1-0.4l-0.1,0.4l-1.9,5.9H207l-2.1-7.4h0.8L207.3,13.3z"/>
							</g>
							<g>
								<path class="st2" d="M219.1,15.1c-0.6,0-1.2-0.2-1.7-0.5s-0.9-0.7-1.2-1.3s-0.4-1.2-0.4-1.9v-0.3c0-0.7,0.1-1.4,0.4-1.9
									c0.3-0.6,0.7-1,1.2-1.3c0.5-0.3,1-0.5,1.6-0.5c0.9,0,1.6,0.3,2.1,0.9s0.8,1.5,0.8,2.5v0.5h-5.3v0.2c0,0.8,0.2,1.5,0.7,2.1
									s1.1,0.8,1.8,0.8c0.4,0,0.8-0.1,1.2-0.2c0.3-0.2,0.6-0.4,0.9-0.8l0.5,0.4C221.1,14.7,220.3,15.1,219.1,15.1z M219,8.2
									c-0.6,0-1.1,0.2-1.6,0.7c-0.4,0.5-0.7,1.1-0.8,1.8h4.4v-0.1c0-0.7-0.2-1.3-0.6-1.7S219.6,8.2,219,8.2z"/>
							</g>
							<g>
								<path class="st2" d="M226.5,15.1c-0.6,0-1.2-0.2-1.7-0.5s-0.9-0.7-1.2-1.3s-0.4-1.2-0.4-1.9v-0.3c0-0.7,0.1-1.4,0.4-1.9
									c0.3-0.6,0.7-1,1.2-1.3c0.5-0.3,1-0.5,1.6-0.5c0.9,0,1.6,0.3,2.1,0.9s0.8,1.5,0.8,2.5v0.5H224v0.2c0,0.8,0.2,1.5,0.7,2.1
									s1.1,0.8,1.8,0.8c0.4,0,0.8-0.1,1.2-0.2c0.3-0.2,0.6-0.4,0.9-0.8l0.5,0.4C228.5,14.7,227.7,15.1,226.5,15.1z M226.4,8.2
									c-0.6,0-1.1,0.2-1.6,0.7c-0.4,0.5-0.7,1.1-0.8,1.8h4.4v-0.1c0-0.7-0.2-1.3-0.6-1.7S227,8.2,226.4,8.2z"/>
							</g>
							<g>
								<path class="st2" d="M232.8,11.3l-0.9,0.9V15H231V4.5h0.8v6.7l0.8-0.8l2.8-2.8h1l-3.1,3.1l3.4,4.3h-1L232.8,11.3z"/>
							</g>
						</g>
					</g>
					<g id="Group-Copy" transform="translate(0.000000, 180.000000)">
						<g id="noun_6831_cc">
							<g id="Group_1_">
								<g id="Shape">
									<path class="st0" d="M10,2c4.4,0,8,3.6,8,8s-3.6,8-8,8s-8-3.6-8-8S5.6,2,10,2L10,2z M10,0C4.5,0,0,4.5,0,10s4.5,10,10,10
										s10-4.5,10-10S15.5,0,10,0L10,0z"/>
								</g>
								<g id="Shape_1_">
									<path class="st0" d="M13.9,13.5c-0.3,1.6-2,2.8-3.9,2.8c-2,0-3.6-1.2-3.9-2.8"/>
								</g>
								<g id="Oval_3_">
									<ellipse class="st0" cx="7.1" cy="8.1" rx="1.6" ry="1.6"/>
								</g>
								<g id="Oval_4_">
									<ellipse class="st0" cx="12.9" cy="8.1" rx="1.6" ry="1.6"/>
								</g>
							</g>
						</g>
						<g class="st1">
							<g>
								<path class="st2" d="M43.1,12.3l0.3,1.5l0.4-1.5L45.9,5h0.8l2.1,7.3l0.4,1.5l0.3-1.6L51.3,5h0.9l-2.5,10h-0.8l-2.3-7.8
									l-0.3-1l-0.2,1L43.8,15H43L40.4,5h0.9L43.1,12.3z"/>
							</g>
							<g>
								<path class="st2" d="M56.4,15.1c-0.6,0-1.2-0.2-1.7-0.5s-0.9-0.7-1.2-1.3s-0.4-1.2-0.4-1.9v-0.3c0-0.7,0.1-1.4,0.4-1.9
									s0.7-1,1.2-1.3c0.5-0.3,1-0.5,1.6-0.5c0.9,0,1.6,0.3,2.1,0.9s0.8,1.5,0.8,2.5v0.5h-5.3v0.2c0,0.8,0.2,1.5,0.7,2.1
									s1.1,0.8,1.8,0.8c0.4,0,0.8-0.1,1.2-0.2s0.6-0.4,0.9-0.8l0.5,0.4C58.5,14.7,57.6,15.1,56.4,15.1z M56.3,8.2
									c-0.6,0-1.1,0.2-1.6,0.7S54,10,53.9,10.7h4.4v-0.1c0-0.7-0.2-1.3-0.6-1.7S56.9,8.2,56.3,8.2z"/>
							</g>
							<g>
								<path class="st2" d="M61.9,15h-0.8V4.5h0.8V15z"/>
							</g>
							<g>
								<path class="st2" d="M67,14.4c0.6,0,1-0.2,1.4-0.5s0.6-0.7,0.6-1.2h0.8c0,0.5-0.2,0.9-0.4,1.2c-0.3,0.4-0.6,0.7-1,0.9
									s-0.9,0.3-1.4,0.3c-1,0-1.7-0.3-2.3-1s-0.9-1.6-0.9-2.7v-0.2c0-0.7,0.1-1.4,0.4-1.9s0.6-1,1.1-1.3c0.5-0.3,1-0.5,1.7-0.5
									c0.8,0,1.5,0.2,2,0.7s0.8,1.1,0.8,1.9H69c0-0.6-0.2-1-0.6-1.4S67.6,8.2,67,8.2c-0.7,0-1.3,0.3-1.7,0.8s-0.6,1.3-0.6,2.2v0.2
									c0,0.9,0.2,1.7,0.6,2.2S66.3,14.4,67,14.4z"/>
							</g>
							<g>
								<path class="st2" d="M71.2,11.2c0-0.7,0.1-1.4,0.4-1.9s0.7-1,1.2-1.3c0.5-0.3,1.1-0.5,1.7-0.5c1,0,1.8,0.3,2.4,1
									s0.9,1.6,0.9,2.7v0.2c0,0.7-0.1,1.4-0.4,1.9c-0.3,0.6-0.7,1-1.2,1.3s-1.1,0.5-1.7,0.5c-1,0-1.8-0.3-2.4-1s-0.9-1.6-0.9-2.7
									V11.2z M72,11.4c0,0.9,0.2,1.6,0.7,2.2c0.5,0.6,1.1,0.9,1.8,0.9c0.7,0,1.3-0.3,1.8-0.9c0.5-0.6,0.7-1.3,0.7-2.2v-0.2
									c0-0.6-0.1-1.1-0.3-1.6s-0.5-0.8-0.9-1.1S75,8.1,74.5,8.1c-0.7,0-1.3,0.3-1.8,0.9c-0.5,0.6-0.7,1.3-0.7,2.2V11.4z"/>
							</g>
							<g>
								<path class="st2" d="M80.4,7.6v1.2c0.3-0.4,0.6-0.8,1-1s0.9-0.3,1.4-0.3C84,7.5,84.7,8,85,8.9c0.3-0.5,0.6-0.8,1.1-1.1
									c0.4-0.2,0.9-0.4,1.5-0.4c1.6,0,2.4,0.9,2.4,2.6v5h-0.8v-4.9c0-0.7-0.1-1.2-0.4-1.5S88,8.2,87.4,8.2s-1.1,0.2-1.5,0.6
									c-0.4,0.4-0.6,0.8-0.7,1.4V15h-0.8v-4.9c0-0.6-0.2-1.1-0.4-1.4c-0.3-0.3-0.7-0.5-1.4-0.5c-0.5,0-1,0.1-1.3,0.4
									c-0.4,0.3-0.6,0.7-0.8,1.3V15h-0.8V7.6H80.4z"/>
							</g>
							<g>
								<path class="st2" d="M95.1,15.1c-0.6,0-1.2-0.2-1.7-0.5s-0.9-0.7-1.2-1.3c-0.3-0.6-0.4-1.2-0.4-1.9v-0.3
									c0-0.7,0.1-1.4,0.4-1.9s0.7-1,1.2-1.3c0.5-0.3,1-0.5,1.6-0.5c0.9,0,1.6,0.3,2.1,0.9s0.8,1.5,0.8,2.5v0.5h-5.3v0.2
									c0,0.8,0.2,1.5,0.7,2.1s1.1,0.8,1.8,0.8c0.4,0,0.8-0.1,1.2-0.2s0.6-0.4,0.9-0.8l0.5,0.4C97.1,14.7,96.3,15.1,95.1,15.1z
									 M95,8.2c-0.6,0-1.1,0.2-1.6,0.7s-0.7,1.1-0.8,1.8H97v-0.1c0-0.7-0.2-1.3-0.6-1.7S95.6,8.2,95,8.2z"/>
							</g>
							<g>
								<path class="st2" d="M104.5,5.7v1.9h1.5v0.7h-1.5v4.9c0,0.4,0.1,0.7,0.2,0.9s0.4,0.3,0.7,0.3c0.1,0,0.4,0,0.7-0.1V15
									c-0.2,0.1-0.5,0.1-0.9,0.1c-0.6,0-1-0.2-1.2-0.5c-0.3-0.3-0.4-0.8-0.4-1.4V8.3h-1.4V7.6h1.4V5.7H104.5z"/>
							</g>
							<g>
								<path class="st2" d="M107.3,11.2c0-0.7,0.1-1.4,0.4-1.9s0.7-1,1.2-1.3c0.5-0.3,1.1-0.5,1.7-0.5c1,0,1.8,0.3,2.4,1
									s0.9,1.6,0.9,2.7v0.2c0,0.7-0.1,1.4-0.4,1.9c-0.3,0.6-0.7,1-1.2,1.3s-1.1,0.5-1.7,0.5c-1,0-1.8-0.3-2.4-1s-0.9-1.6-0.9-2.7
									V11.2z M108.1,11.4c0,0.9,0.2,1.6,0.7,2.2c0.5,0.6,1.1,0.9,1.8,0.9c0.7,0,1.3-0.3,1.8-0.9c0.5-0.6,0.7-1.3,0.7-2.2v-0.2
									c0-0.6-0.1-1.1-0.3-1.6s-0.5-0.8-0.9-1.1s-0.8-0.4-1.3-0.4c-0.7,0-1.3,0.3-1.8,0.9c-0.5,0.6-0.7,1.3-0.7,2.2
									C108.1,11.2,108.1,11.4,108.1,11.4z"/>
							</g>
							<g>
								<path class="st2" d="M120.6,5.7v1.9h1.5v0.7h-1.5v4.9c0,0.4,0.1,0.7,0.2,0.9s0.4,0.3,0.7,0.3c0.1,0,0.4,0,0.7-0.1V15
									c-0.2,0.1-0.5,0.1-0.9,0.1c-0.6,0-1-0.2-1.2-0.5c-0.3-0.3-0.4-0.8-0.4-1.4V8.3h-1.4V7.6h1.4V5.7H120.6z"/>
							</g>
							<g>
								<path class="st2" d="M124.8,8.9c0.3-0.4,0.6-0.8,1-1c0.4-0.2,0.9-0.4,1.4-0.4c0.8,0,1.4,0.2,1.8,0.7c0.4,0.4,0.6,1.1,0.6,2
									V15h-0.8v-4.9c0-0.7-0.1-1.2-0.4-1.5s-0.7-0.5-1.3-0.5c-0.5,0-1,0.2-1.3,0.5c-0.4,0.3-0.7,0.7-0.9,1.3V15H124V4.5h0.8V8.9z"
									/>
							</g>
							<g>
								<path class="st2" d="M134.7,15.1c-0.6,0-1.2-0.2-1.7-0.5s-0.9-0.7-1.2-1.3s-0.4-1.2-0.4-1.9v-0.3c0-0.7,0.1-1.4,0.4-1.9
									s0.7-1,1.2-1.3c0.5-0.3,1-0.5,1.6-0.5c0.9,0,1.6,0.3,2.1,0.9s0.8,1.5,0.8,2.5v0.5h-5.3v0.2c0,0.8,0.2,1.5,0.7,2.1
									s1.1,0.8,1.8,0.8c0.4,0,0.8-0.1,1.2-0.2s0.6-0.4,0.9-0.8l0.5,0.4C136.7,14.7,135.9,15.1,134.7,15.1z M134.6,8.2
									c-0.6,0-1.1,0.2-1.6,0.7s-0.7,1.1-0.8,1.8h4.4v-0.1c0-0.7-0.2-1.3-0.6-1.7S135.2,8.2,134.6,8.2z"/>
							</g>
							<g>
								<path class="st2" d="M149.5,5.8h-3.4V15h-0.8V5.8h-3.4V5h7.7v0.8H149.5z"/>
							</g>
							<g>
								<path class="st2" d="M153.3,15.1c-0.6,0-1.2-0.2-1.7-0.5s-0.9-0.7-1.2-1.3s-0.4-1.2-0.4-1.9v-0.3c0-0.7,0.1-1.4,0.4-1.9
									s0.7-1,1.2-1.3c0.5-0.3,1-0.5,1.6-0.5c0.9,0,1.6,0.3,2.1,0.9s0.8,1.5,0.8,2.5v0.5h-5.3v0.2c0,0.8,0.2,1.5,0.7,2.1
									s1.1,0.8,1.8,0.8c0.4,0,0.8-0.1,1.2-0.2s0.6-0.4,0.9-0.8l0.5,0.4C155.3,14.7,154.4,15.1,153.3,15.1z M153.1,8.2
									c-0.6,0-1.1,0.2-1.6,0.7s-0.7,1.1-0.8,1.8h4.4v-0.1c0-0.7-0.2-1.3-0.6-1.7S153.7,8.2,153.1,8.2z"/>
							</g>
							<g>
								<path class="st2" d="M162.5,15c-0.1-0.2-0.1-0.6-0.2-1c-0.3,0.4-0.7,0.7-1.1,0.9c-0.4,0.2-0.9,0.3-1.4,0.3
									c-0.7,0-1.3-0.2-1.7-0.6s-0.7-0.9-0.7-1.5c0-0.7,0.3-1.3,0.9-1.7s1.4-0.6,2.5-0.6h1.5V9.9c0-0.5-0.2-0.9-0.5-1.2
									s-0.8-0.5-1.4-0.5c-0.6,0-1,0.1-1.4,0.4s-0.6,0.6-0.6,1.1h-0.8c0-0.6,0.3-1.1,0.8-1.5c0.5-0.4,1.2-0.6,2-0.6s1.5,0.2,2,0.6
									c0.5,0.4,0.7,1,0.7,1.7v3.5c0,0.7,0.1,1.3,0.2,1.6l0,0H162.5z M159.9,14.4c0.5,0,1-0.1,1.5-0.4s0.7-0.6,0.9-1.1v-1.6h-1.5
									c-0.8,0-1.5,0.2-1.9,0.4c-0.5,0.3-0.7,0.7-0.7,1.2c0,0.4,0.2,0.8,0.5,1S159.4,14.4,159.9,14.4z"/>
							</g>
							<g>
								<path class="st2" d="M166.2,7.6v1.2c0.3-0.4,0.6-0.8,1-1s0.9-0.3,1.4-0.3c1.2,0,1.9,0.5,2.2,1.4c0.3-0.5,0.6-0.8,1.1-1.1
									c0.4-0.2,0.9-0.4,1.5-0.4c1.6,0,2.4,0.9,2.4,2.6v5H175v-4.9c0-0.7-0.1-1.2-0.4-1.5s-0.7-0.5-1.4-0.5c-0.6,0-1.1,0.2-1.5,0.6
									c-0.4,0.4-0.6,0.8-0.7,1.4V15h-0.8v-4.9c0-0.6-0.2-1.1-0.4-1.4c-0.3-0.3-0.7-0.5-1.4-0.5c-0.5,0-1,0.1-1.3,0.4
									c-0.4,0.3-0.6,0.7-0.8,1.3V15h-0.8V7.6H166.2z"/>
							</g>
						</g>
					</g>
					<g id="Line-Copy-5">
						<path class="st2" d="M10.5,55.5h-1v-3h1V55.5z M10.5,49.5h-1v-4h1V49.5z M10.5,42.5h-1v-4h1V42.5z M10.5,35.5h-1v-4h1V35.5z
							 M10.5,28.5h-1v-4h1V28.5z"/>
					</g>
					<g id="Line-Copy-6">
						<path class="st2" d="M10.5,115.5h-1v-3h1V115.5z M10.5,109.5h-1v-4h1V109.5z M10.5,102.5h-1v-4h1V102.5z M10.5,95.5h-1v-4h1
							V95.5z M10.5,88.5h-1v-4h1V88.5z"/>
					</g>
					<g id="Line-Copy-7">
						<path class="st2" d="M10.5,175.5h-1v-3h1V175.5z M10.5,169.5h-1v-4h1V169.5z M10.5,162.5h-1v-4h1V162.5z M10.5,155.5h-1v-4h1
							V155.5z M10.5,148.5h-1v-4h1V148.5z"/>
					</g>
				</g>
			</g>
		</g>
	</g>
</g>
</svg>
