<?xml version="1.0" encoding="utf-8"?>
<!-- Generator: Adobe Illustrator 21.1.0, SVG Export Plug-In . SVG Version: 6.00 Build 0)  -->
<svg version="1.1" id="Layer_1" xmlns="http://www.w3.org/2000/svg" xmlns:xlink="http://www.w3.org/1999/xlink" x="0px" y="0px"
	 viewBox="0 0 294 294" style="enable-background:new 0 0 294 294;" xml:space="preserve">
<style type="text/css">
	.st0{fill:#393240;}
</style>
<g>
	<path class="st0" d="M239.3,159.5h-12.6c-0.6-6.4-0.7-21.3,10.5-25.3c1.3-0.5,2-1.9,1.5-3.2c-0.5-1.3-1.9-2-3.2-1.5
		c-14.3,5-14.6,22.2-13.9,30h-11.2c-25.2,0-45.8,20.5-45.8,45.8v25.9c0,25.2,20.5,45.8,45.8,45.8h28.8c25.2,0,45.8-20.5,45.8-45.8
		v-25.9C285.1,180,264.5,159.5,239.3,159.5z M210.5,271.9c-22.5,0-40.8-18.3-40.8-40.8v-25.9c0-22.5,18.3-40.8,40.8-40.8h2.6
		c-14.9,7.6-25.2,23.1-25.2,41V231c0,17.9,10.2,33.4,25.2,41H210.5z M280.1,231.2c0,22.5-18.3,40.8-40.8,40.8h-5.4
		c-22.6,0-41-18.4-41-41v-25.5c0-22.6,18.4-41,41-41h5.4c22.5,0,40.8,18.3,40.8,40.8V231.2z"/>
	<path class="st0" d="M190.2,145c5.6,2.2,11.2,3.3,16,3.3c7.4,0,13.2-2.5,15.1-7.4c1.6-4.1,0.2-8.9-3.9-13.6c-3.8-4.3-9.4-8-16-10.6
		c-5.7-2.3-12.4-2.5-19.9-0.8c-3.3,0.8-6.1,3.1-7.3,6.3c-1.3,3.2-0.9,6.8,1,9.7C179.4,138.3,184.5,142.7,190.2,145z M178.8,124.1
		c0.7-1.7,2.1-2.9,3.8-3.3c2.3-0.5,5.2-1,8.2-1c2.9,0,5.9,0.4,8.7,1.5c5.8,2.3,10.8,5.6,14.1,9.3c2.8,3.2,3.9,6.3,3,8.5
		c-1.8,4.5-12.3,6.1-24.6,1.2c-5.9-2.3-10.2-7.4-12.7-11.2C178.3,127.6,178.1,125.8,178.8,124.1z"/>
	<path class="st0" d="M85.1,106.1v-7.8c2.4,2.7,5.7,4.9,10.3,5.8c0.2,0,0.3,0,0.5,0c1.2,0,2.2-0.8,2.5-2.1c0.2-1.4-0.7-2.7-2-2.9
		c-10-1.8-11.1-11.9-11.2-12.9V74.1c0-1.4-1.1-2.5-2.5-2.5s-2.5,1.1-2.5,2.5v32.1c-21.9,1.8-36.3,27.6-44.6,49.3
		c-10.4,27.3-15.2,58.2-15.2,75.3c0,33.3,23.3,53.2,62.3,53.2c39,0,62.3-19.9,62.3-53.2C145,194.8,127.7,109.4,85.1,106.1z
		 M82.6,279c-17.2,0-57.3-4.7-57.3-48.2C25.3,196,45.4,111,82.6,111c40.3,0,57.3,85.7,57.3,119.7C140,274.3,99.9,279,82.6,279z"/>
	<path class="st0" d="M82.6,172.6c-16.5,0-30,17-30,37.8c0,20.9,13.4,37.8,30,37.8c16.5,0,30-17,30-37.8
		C112.6,189.6,99.2,172.6,82.6,172.6z M82.6,243.3c-13.8,0-25-14.7-25-32.8s11.2-32.8,25-32.8s25,14.7,25,32.8
		S96.4,243.3,82.6,243.3z"/>
	<path class="st0" d="M61.5,210.5h5c0-11.8,7.2-21.5,16.1-21.5v-5C71,184,61.5,195.9,61.5,210.5z"/>
	<path class="st0" d="M44.5,108.7c16.2-2.3,32.6-10,31.2-19.5c-0.6-4.3-5-7.7-12.2-9.4c-6.5-1.5-14.7-1.7-23.3-0.5
		C22.4,81.9,10.1,96.2,9.6,96.8c-0.5,0.5-0.7,1.3-0.6,2c0.1,0.7,0.5,1.3,1.1,1.7c0.6,0.4,13.2,8.5,28.5,8.5
		C40.5,109.1,42.5,108.9,44.5,108.7z M40.9,84.2c7.9-1.1,15.5-1,21.4,0.4c4.9,1.2,8.1,3.2,8.4,5.2c0.6,4.1-9.4,11.3-27,13.8
		c-11.9,1.7-23.3-3.2-28.3-5.9C19.5,93.9,29,86,40.9,84.2z"/>
</g>
</svg>
