<?xml version="1.0" encoding="utf-8"?>
<!-- Generator: Adobe Illustrator 21.0.2, SVG Export Plug-In . SVG Version: 6.00 Build 0)  -->
<svg version="1.1" id="Layer_1" xmlns="http://www.w3.org/2000/svg" xmlns:xlink="http://www.w3.org/1999/xlink" x="0px" y="0px"
	 viewBox="0 0 84 84" style="enable-background:new 0 0 84 84;" xml:space="preserve">
<style type="text/css">
	.st0{fill:#222829;}
</style>
<g>
	<path class="st0" d="M71,16H15c-2.2,0-4,1.8-4,4v40c0,2.2,1.8,4,4,4h20.8l-1.6,8H30v2h26v-2h-4.2l-1.6-8H71c2.2,0,4-1.8,4-4V20
		C75,17.8,73.3,16,71,16z M49.8,72H36.3l1.6-8h10.4L49.8,72z M73,60c0,1.1-0.9,2-2,2H15c-1.1,0-2-0.9-2-2V20c0-1.1,0.9-2,2-2h56
		c1.1,0,2,0.9,2,2V60z"/>
	<rect x="42" y="58" class="st0" width="2" height="2"/>
	<path class="st0" d="M15,56h56V20H15V56z M17,22h52v32H17V22z"/>
	<rect x="33.3" y="34.7" class="st0" width="2" height="2"/>
	<rect x="37.3" y="34.7" class="st0" width="2" height="2"/>
	<rect x="41.3" y="34.7" class="st0" width="2" height="2"/>
	<rect x="29.3" y="34.7" class="st0" width="2" height="2"/>
	<rect x="25.3" y="34.7" class="st0" width="2" height="2"/>
	<rect x="33.3" y="38.7" class="st0" width="2" height="2"/>
	<rect x="37.3" y="38.7" class="st0" width="2" height="2"/>
	<rect x="41.3" y="38.7" class="st0" width="2" height="2"/>
	<rect x="29.3" y="38.7" class="st0" width="2" height="2"/>
	<rect x="25.3" y="38.7" class="st0" width="2" height="2"/>
	<rect x="33.3" y="42.7" class="st0" width="2" height="2"/>
	<rect x="37.3" y="42.7" class="st0" width="2" height="2"/>
	<rect x="41.3" y="42.7" class="st0" width="2" height="2"/>
	<rect x="29.3" y="42.7" class="st0" width="2" height="2"/>
	<rect x="25.3" y="42.7" class="st0" width="2" height="2"/>
	<rect x="33.3" y="49.7" class="st0" width="2" height="2"/>
	<rect x="37.3" y="49.7" class="st0" width="2" height="2"/>
	<rect x="41.3" y="49.7" class="st0" width="2" height="2"/>
	<rect x="29.3" y="49.7" class="st0" width="2" height="2"/>
	<rect x="25.3" y="49.7" class="st0" width="2" height="2"/>
	<path class="st0" d="M51.6,44.7h9.3v-10h-9.3V44.7z M53.6,36.7h5.3v6h-5.3V36.7z"/>
	<rect x="51.6" y="46.8" class="st0" width="9.2" height="2"/>
	<rect x="53.4" y="27.9" class="st0" width="7.4" height="2"/>
	<rect x="34.7" y="27.9" class="st0" width="7.4" height="2"/>
	<rect x="25.3" y="27.9" class="st0" width="7.4" height="2"/>
	<rect x="44.1" y="27.9" class="st0" width="7.4" height="2"/>
</g>
</svg>
