<?xml version="1.0" encoding="utf-8"?>
<!-- Generator: Adobe Illustrator 21.0.2, SVG Export Plug-In . SVG Version: 6.00 Build 0)  -->
<svg version="1.1" id="Layer_1" xmlns="http://www.w3.org/2000/svg" xmlns:xlink="http://www.w3.org/1999/xlink" x="0px" y="0px"
	 viewBox="0 0 84 84" style="enable-background:new 0 0 84 84;" xml:space="preserve">
<style type="text/css">
	.st0{fill:#222829;}
</style>
<g>
	<path class="st0" d="M41.3,6h-6c-0.5-3.5-3.3-6-6.9-6s-6.4,2.5-6.9,6h-6v9.2h25.9V6z M39.3,13.1H17.4V8h6V7c0-2.9,2.1-5,5-5
		s5,2.1,5,5v1h6V13.1z"/>
	<rect x="27.1" y="6" class="st0" width="2.4" height="2"/>
	<polygon class="st0" points="48.8,35.2 50.8,35.2 50.8,10.4 53.6,10.4 53.6,33.2 55.6,33.2 55.6,8.4 43.9,8.4 43.9,10.4 48.8,10.4 
			"/>
	<polygon class="st0" points="7.9,10.4 12.8,10.4 12.8,8.4 1.1,8.4 1.1,76 40.3,76 40.3,74 3.1,74 3.1,10.4 5.9,10.4 5.9,68.8 
		40.3,68.8 40.3,66.8 7.9,66.8 	"/>
	<rect x="22.9" y="43.7" class="st0" width="7.8" height="2"/>
	<rect x="22.9" y="47.1" class="st0" width="6.4" height="2"/>
	<path class="st0" d="M16.1,49.1c0.3,0,0.5-0.1,0.7-0.3l3.4-3.4L18.8,44l-2.7,2.7l-1.8-1.8l-1.4,1.4l2.5,2.5
		C15.6,49,15.9,49.1,16.1,49.1z"/>
	<path class="st0" d="M16.1,39c0.3,0,0.5-0.1,0.7-0.3l3.4-3.4l-1.4-1.4l-2.7,2.7l-1.8-1.8l-1.4,1.4l2.5,2.5
		C15.6,38.9,15.9,39,16.1,39z"/>
	<rect x="22.9" y="33.6" class="st0" width="20.2" height="2"/>
	<rect x="22.9" y="37" class="st0" width="5" height="2"/>
	<rect x="29.6" y="37" class="st0" width="1.7" height="2"/>
	<rect x="33" y="37" class="st0" width="4.7" height="2"/>
	<path class="st0" d="M16.6,56.8L14.7,55l-1.4,1.4l2.5,2.5c0.2,0.2,0.4,0.3,0.7,0.3s0.5-0.1,0.7-0.3l3.4-3.4l-1.4-1.4L16.6,56.8z"/>
	<rect x="23.3" y="53.8" class="st0" width="6.7" height="2"/>
	<rect x="23.3" y="57.2" class="st0" width="5" height="2"/>
	<path class="st0" d="M16.1,28.9c0.3,0,0.5-0.1,0.7-0.3l3.4-3.4l-1.4-1.4l-2.7,2.7l-1.8-1.8l-1.4,1.4l2.5,2.5
		C15.6,28.8,15.9,28.9,16.1,28.9z"/>
	<rect x="22.9" y="23.5" class="st0" width="6.7" height="2"/>
	<rect x="22.9" y="26.9" class="st0" width="13.5" height="2"/>
	<rect x="31.3" y="23.5" class="st0" width="11.8" height="2"/>
	<rect x="51.6" y="58.4" class="st0" width="2" height="14.3"/>
	<rect x="61.1" y="58.4" class="st0" width="2" height="14.3"/>
	<path class="st0" d="M73.2,60.2c5.4,0,9.7-4.4,9.7-9.7s-4.4-9.7-9.7-9.7c-1.5,0-2.9,0.3-4.2,1C67.7,38,61.8,36,57.3,36
		c-4.4,0-10.4,2-11.8,5.7c-1.2-0.6-2.6-0.9-4.1-0.9c-5.4,0-9.7,4.4-9.7,9.7s4.4,9.7,9.7,9.7h1.4v17.1c-0.9,0.1-1.6,0.9-1.6,1.8v3.2
		c0,1,0.8,1.8,1.8,1.8h28.6c1,0,1.8-0.8,1.8-1.8V79c0-0.9-0.7-1.7-1.6-1.8V60.2H73.2z M69.8,77.2h-6.9v2h8.5V82H43.3v-2.8h8.5v-2
		h-6.9v-17h1.4v-2h-4.8c-4.3,0-7.7-3.5-7.7-7.7s3.5-7.7,7.7-7.7s7.7,3.5,7.7,7.7h2c0-3.2-1.5-6-3.9-7.8C48,40,53,38,57.3,38
		c4.3,0,9.3,2.1,9.9,4.8c-2.3,1.8-3.8,4.6-3.8,7.7h2c0-4.3,3.5-7.7,7.7-7.7s7.7,3.5,7.7,7.7s-3.5,7.7-7.7,7.7h-4.8v2h1.4V77.2z"/>
	<rect x="56.5" y="77.2" class="st0" width="1.6" height="2"/>
	<rect x="53.4" y="77.2" class="st0" width="1.6" height="2"/>
	<rect x="59.7" y="77.2" class="st0" width="1.6" height="2"/>
</g>
</svg>
