<?xml version="1.0" encoding="utf-8"?>
<!-- Generator: Adobe Illustrator 21.0.2, SVG Export Plug-In . SVG Version: 6.00 Build 0)  -->
<svg version="1.1" id="Layer_1" xmlns="http://www.w3.org/2000/svg" xmlns:xlink="http://www.w3.org/1999/xlink" x="0px" y="0px"
	 viewBox="0 0 114 114" style="enable-background:new 0 0 114 114;" xml:space="preserve">
<style type="text/css">
	.st0{fill:#222829;}
</style>
<g>
	<path class="st0" d="M105.1,107.1v-6.9h6.9V86.5h-6.9v-6.9h-6.9v-6.9H81.1v15.5H50.1V72.8H32.9v6.9h-6.9v6.9h-6.9v13.8h6.9v6.9h6.9
		v3.4H21.5C11.4,103.5,5.4,91.9,5.4,79.6c0-8.8,3.1-17.2,8.5-23.8l0.1,0l0-0.2c2.2-2.7,4.9-5.2,7.8-7.2l-1.9-2.8
		c-1.8,1.2-3.4,2.6-5,4l2.5-16.2c1.7-11.8,8.9-19.1,18.9-19.1h13.8c10,0,17.2,7.3,18.9,19.2l2.5,16.2c-1.5-1.5-3.2-2.8-5-4l-1.9,2.8
		c3,2,5.6,4.5,7.8,7.2l0,0.2l0.1,0c3.3,4.1,5.8,8.8,7.2,13.9l3.3-0.9c-1.4-5.3-4-10.2-7.3-14.5L72.5,33
		c-1.9-13.4-10.7-22.1-22.3-22.1H36.4C24.7,10.9,16,19.5,14.1,33l-3.3,21.2C5.2,61.4,2,70.3,2,79.6c0,11.9,5.1,23.2,14,30.9H2v3.4
		h110v-3.4H98.2v-3.4H105.1z M108.6,89.9v6.9h-3.4v-6.9H108.6z M101.7,83.1v20.6h-3.4V83.1H101.7z M87.9,76.2v34.4h-3.4V76.2H87.9z
		 M70.8,95.1v-3.4h3.4v3.4H70.8z M67.3,95.1h-3.4v-3.4h3.4V95.1z M60.4,95.1H57v-3.4h3.4V95.1z M81.1,98.5v12H50.1v-12H81.1z
		 M81.1,95.1h-3.4v-3.4h3.4V95.1z M53.6,91.7v3.4h-3.4v-3.4H53.6z M46.7,110.6h-3.4V76.2h3.4V110.6z M22.6,96.8v-6.9h3.4v6.9H22.6z
		 M29.5,103.7V83.1h3.4v20.6H29.5z M36.4,76.2h3.4v34.4h-3.4V76.2z M91.4,110.6V76.2h3.4v34.4H91.4z"/>
	<path class="st0" d="M62.2,33.2c0-8.2-4.8-13.8-12-13.8H36.4c-7.2,0-12,5.5-12,13.8c0,4.7,3.9,8.6,8.6,8.6h20.6
		C58.3,41.8,62.2,38,62.2,33.2z M27.8,33.2c0-4.8,2.3-10.3,8.6-10.3h13.8c6.3,0,8.6,5.6,8.6,10.3c0,2.8-2.3,5.2-5.2,5.2H32.9
		C30.1,38.4,27.8,36.1,27.8,33.2z"/>
	<rect x="41.5" y="48.7" class="st0" width="3.4" height="3.4"/>
	<rect x="34.7" y="48.7" class="st0" width="3.4" height="3.4"/>
	<rect x="48.4" y="48.7" class="st0" width="3.4" height="3.4"/>
</g>
</svg>
