<?xml version="1.0" encoding="UTF-8"?>
<svg width="84px" height="84px" viewBox="0 0 84 84" version="1.1" xmlns="http://www.w3.org/2000/svg" xmlns:xlink="http://www.w3.org/1999/xlink">
    <!-- Generator: Sketch 41.2 (35397) - http://www.bohemiancoding.com/sketch -->
    <title>Icon - Discount</title>
    <desc>Created with Sketch.</desc>
    <defs>
        <polygon id="path-1" points="0 54 64 54 64 0 0 0"></polygon>
        <rect id="path-3" x="0" y="353" width="989" height="438"></rect>
        <mask id="mask-4" maskContentUnits="userSpaceOnUse" maskUnits="objectBoundingBox" x="0" y="0" width="989" height="438" fill="white">
            <use xlink:href="#path-3"></use>
        </mask>
    </defs>
    <g id="Symbols" stroke="none" stroke-width="1" fill="none" fill-rule="evenodd">
        <g id="Icon---Discount">
            <g id="Page-1" transform="translate(10.000000, 19.000000)">
                <path d="M16,31 L15,31 C12.794,31 11,29.206 11,27 L13,27 C13,28.103 13.897,29 15,29 L16,29 C17.103,29 18,28.103 18,27 L18,26 C17.928,25.795 17.208,25.225 16.552,24.894 L16.445,24.832 L13.495,22.865 C12.838,22.528 11,21.456 11,20 L11,19 C11,16.794 12.794,15 15,15 L16,15 C18.206,15 20,16.794 20,19 L18,19 C18,17.897 17.103,17 16,17 L15,17 C13.897,17 13,17.897 13,19 L13,20 C13.072,20.205 13.792,20.775 14.448,21.106 L14.555,21.168 L17.505,23.135 C18.162,23.472 20,24.544 20,26 L20,27 C20,29.206 18.206,31 16,31 Z" id="Fill-1" fill="#222829"></path>
                <path d="M31,31 L29,31 L29,19 C29,17.897 28.103,17 27,17 L26,17 C24.897,17 24,17.897 24,19 L24,31 L22,31 L22,19 C22,16.794 23.794,15 26,15 L27,15 C29.206,15 31,16.794 31,19 L31,31 Z" id="Fill-3" fill="#222829"></path>
                <mask id="mask-2" fill="white">
                    <use xlink:href="#path-1"></use>
                </mask>
                <g id="Clip-6"></g>
                <polygon id="Fill-5" fill="#222829" mask="url(#mask-2)" points="23 26 30 26 30 24 23 24"></polygon>
                <polygon id="Fill-7" fill="#222829" mask="url(#mask-2)" points="45 24 51 24 51 22 45 22"></polygon>
                <path d="M53,31 L46,31 C44.897,31 44,30.103 44,29 L44,17 C44,15.897 44.897,15 46,15 L53,15 L53,17 L46,17 L46,29 L53,29 L53,31 Z" id="Fill-8" fill="#222829" mask="url(#mask-2)"></path>
                <path d="M42,31 L35,31 C33.897,31 33,30.103 33,29 L33,15 L35,15 L35,29 L42,29 L42,31 Z" id="Fill-9" fill="#222829" mask="url(#mask-2)"></path>
                <polygon id="Fill-10" fill="#222829" mask="url(#mask-2)" points="6 2 10 2 10 0 6 0"></polygon>
                <polygon id="Fill-11" fill="#222829" mask="url(#mask-2)" points="12 2 16 2 16 0 12 0"></polygon>
                <polygon id="Fill-12" fill="#222829" mask="url(#mask-2)" points="18 2 22 2 22 0 18 0"></polygon>
                <polygon id="Fill-13" fill="#222829" mask="url(#mask-2)" points="24 2 28 2 28 0 24 0"></polygon>
                <polygon id="Fill-14" fill="#222829" mask="url(#mask-2)" points="30 2 34 2 34 0 30 0"></polygon>
                <polygon id="Fill-15" fill="#222829" mask="url(#mask-2)" points="36 2 40 2 40 0 36 0"></polygon>
                <polygon id="Fill-16" fill="#222829" mask="url(#mask-2)" points="42 2 46 2 46 0 42 0"></polygon>
                <polygon id="Fill-17" fill="#222829" mask="url(#mask-2)" points="48 2 52 2 52 0 48 0"></polygon>
                <polygon id="Fill-18" fill="#222829" mask="url(#mask-2)" points="42 2 46 2 46 0 42 0"></polygon>
                <polygon id="Fill-19" fill="#222829" mask="url(#mask-2)" points="48 2 52 2 52 0 48 0"></polygon>
                <polygon id="Fill-20" fill="#222829" mask="url(#mask-2)" points="54 2 58 2 58 0 54 0"></polygon>
                <polygon id="Fill-21" fill="#222829" mask="url(#mask-2)" points="54 2 58 2 58 0 54 0"></polygon>
                <polygon id="Fill-22" fill="#222829" mask="url(#mask-2)" points="12 46 16 46 16 44 12 44"></polygon>
                <polygon id="Fill-23" fill="#222829" mask="url(#mask-2)" points="24 46 28 46 28 44 24 44"></polygon>
                <polygon id="Fill-24" fill="#222829" mask="url(#mask-2)" points="30 46 34 46 34 44 30 44"></polygon>
                <polygon id="Fill-25" fill="#222829" mask="url(#mask-2)" points="36 46 40 46 40 44 36 44"></polygon>
                <polygon id="Fill-26" fill="#222829" mask="url(#mask-2)" points="42 46 46 46 46 44 42 44"></polygon>
                <polygon id="Fill-27" fill="#222829" mask="url(#mask-2)" points="48 46 52 46 52 44 48 44"></polygon>
                <polygon id="Fill-28" fill="#222829" mask="url(#mask-2)" points="54 46 58 46 58 44 54 44"></polygon>
                <polygon id="Fill-29" fill="#222829" mask="url(#mask-2)" points="2 4 0 4 0 0 4 0 4 2 2 2"></polygon>
                <polygon id="Fill-30" fill="#222829" mask="url(#mask-2)" points="64 4 62 4 62 2 60 2 60 0 64 0"></polygon>
                <polygon id="Fill-31" fill="#222829" mask="url(#mask-2)" points="64 46 60 46 60 44 62 44 62 42 64 42"></polygon>
                <polygon id="Fill-32" fill="#222829" mask="url(#mask-2)" points="0 10 2 10 2 6 0 6"></polygon>
                <polygon id="Fill-33" fill="#222829" mask="url(#mask-2)" points="0 22 2 22 2 18 0 18"></polygon>
                <polygon id="Fill-34" fill="#222829" mask="url(#mask-2)" points="0 28 2 28 2 24 0 24"></polygon>
                <polygon id="Fill-35" fill="#222829" mask="url(#mask-2)" points="0 34 2 34 2 30 0 30"></polygon>
                <polygon id="Fill-36" fill="#222829" mask="url(#mask-2)" points="62 10 64 10 64 6 62 6"></polygon>
                <polygon id="Fill-37" fill="#222829" mask="url(#mask-2)" points="62 22 64 22 64 18 62 18"></polygon>
                <polygon id="Fill-38" fill="#222829" mask="url(#mask-2)" points="62 16 64 16 64 12 62 12"></polygon>
                <polygon id="Fill-39" fill="#222829" mask="url(#mask-2)" points="0 16 2 16 2 12 0 12"></polygon>
                <polygon id="Fill-40" fill="#222829" mask="url(#mask-2)" points="62 28 64 28 64 24 62 24"></polygon>
                <polygon id="Fill-41" fill="#222829" mask="url(#mask-2)" points="62 34 64 34 64 30 62 30"></polygon>
                <polygon id="Fill-42" fill="#222829" mask="url(#mask-2)" points="62 40 64 40 64 36 62 36"></polygon>
                <path d="M4,38 C2.897,38 2,38.897 2,40 C2,41.103 2.897,42 4,42 C5.103,42 6,41.103 6,40 C6,38.897 5.103,38 4,38 M4,44 C1.794,44 0,42.206 0,40 C0,37.794 1.794,36 4,36 C6.206,36 8,37.794 8,40 C8,42.206 6.206,44 4,44" id="Fill-43" fill="#222829" mask="url(#mask-2)"></path>
                <path d="M4,48 C2.897,48 2,48.897 2,50 C2,51.103 2.897,52 4,52 C5.103,52 6,51.103 6,50 C6,48.897 5.103,48 4,48 M4,54 C1.794,54 0,52.206 0,50 C0,47.794 1.794,46 4,46 C6.206,46 8,47.794 8,50 C8,52.206 6.206,54 4,54" id="Fill-44" fill="#222829" mask="url(#mask-2)"></path>
                <polygon id="Fill-45" fill="#222829" mask="url(#mask-2)" points="25.499 52.8652 6.499 41.8652 7.501 40.1352 26.501 51.1352"></polygon>
                <polygon id="Fill-46" fill="#222829" mask="url(#mask-2)" points="7.501 49.8652 6.499 48.1352 25.499 37.1352 26.501 38.8652"></polygon>
                <polygon id="Fill-47" fill="#222829" mask="url(#mask-2)" points="56 24 58 24 58 22 56 22"></polygon>
                <polygon id="Fill-48" fill="#222829" mask="url(#mask-2)" points="6 24 8 24 8 22 6 22"></polygon>
            </g>
        </g>
        <g id="Organize" transform="translate(-180.000000, -488.000000)" stroke="#1B1D1F" stroke-width="8">
            <use id="Rectangle-Copy" mask="url(#mask-4)" xlink:href="#path-3"></use>
        </g>
    </g>
</svg>