<?xml version="1.0" encoding="utf-8"?>
<!-- Generator: Adobe Illustrator 21.0.2, SVG Export Plug-In . SVG Version: 6.00 Build 0)  -->
<svg version="1.1" id="Layer_1" xmlns="http://www.w3.org/2000/svg" xmlns:xlink="http://www.w3.org/1999/xlink" x="0px" y="0px"
	 viewBox="0 0 84 84" style="enable-background:new 0 0 84 84;" xml:space="preserve">
<style type="text/css">
	.st0{fill:#222829;}
</style>
<g>
	<path class="st0" d="M7.9,57.6H2.3v-3.2h5.2v-6.9H2.3v-0.9h30.8v4.2c0,0.4,0.3,0.8,0.6,0.9c0.1,0,0.2,0.1,0.4,0.1
		c0.3,0,0.6-0.1,0.7-0.3l11.8-13.2c0.3-0.4,0.3-1,0-1.3L34.9,23.8c-0.3-0.3-0.7-0.4-1.1-0.3c-0.4,0.1-0.6,0.5-0.6,0.9v4.2H2.3v-9.8
		h50.5v4.6v34.1H28.9v2h23.9h2h2.9v-2h-2.9V25.4h15.5l2.1,3.2H58.1v25.9h2V43.8h21.6v3.2h-5.2v7.2h5.2v3.2h-2.9v2h4.9v-5.2v-7.2
		v-4.5L71.4,23.4H54.8v-6.6H0.3v30.6v6.9v5.2h7.6V57.6z M78.4,52.3v-3.2h3.2v3.2H78.4z M60.1,30.7h13.4v-0.3l7.4,11.4H60.1V30.7z
		 M34.1,30.7c0.6,0,1-0.4,1-1v-2.6l9.5,10.6l-9.5,10.6v-2.6c0-0.6-0.4-1-1-1H2.3V30.7H34.1z M5.6,49.4v2.9H2.3v-2.9H5.6z"/>
	<path class="st0" d="M18.4,62.8c-1.3,0-2.3,1-2.3,2.3s1,2.3,2.3,2.3s2.3-1,2.3-2.3S19.6,62.8,18.4,62.8z M18.4,65.4
		c-0.2,0-0.3-0.1-0.3-0.3s0.1-0.3,0.3-0.3s0.3,0.1,0.3,0.3S18.5,65.4,18.4,65.4z"/>
	<path class="st0" d="M68.2,62.8c-1.3,0-2.3,1-2.3,2.3s1,2.3,2.3,2.3s2.3-1,2.3-2.3S69.5,62.8,68.2,62.8z M68.2,65.4
		c-0.2,0-0.3-0.1-0.3-0.3s0.1-0.3,0.3-0.3s0.3,0.1,0.3,0.3S68.4,65.4,68.2,65.4z"/>
	<rect x="63" y="47.1" class="st0" width="2.6" height="2"/>
	<path class="st0" d="M73.9,72c2-1.6,3.3-4.1,3.3-6.9c0-4.9-4-8.9-8.9-8.9s-8.9,4-8.9,8.9c0,2.8,1.3,5.2,3.3,6.9H24
		c2-1.6,3.3-4.1,3.3-6.9c0-4.9-4-8.9-8.9-8.9s-8.9,4-8.9,8.9c0,2.8,1.3,5.2,3.3,6.9H0v2h84v-2H73.9z M11.5,65.1
		c0-3.8,3.1-6.9,6.9-6.9s6.9,3.1,6.9,6.9S22.2,72,18.4,72S11.5,68.9,11.5,65.1z M61.4,65.1c0-3.8,3.1-6.9,6.9-6.9s6.9,3.1,6.9,6.9
		S72,72,68.2,72S61.4,68.9,61.4,65.1z"/>
	<polygon class="st0" points="8,41.8 8,38.3 10.9,38.3 10.9,36.8 8,36.8 8,35 11.6,35 11.6,33.5 6.2,33.5 6.2,41.8 	"/>
	<path class="st0" d="M14.5,38.8h1.4l1.6,3h1.9l-1.8-3.3c0.8-0.4,1.3-1.2,1.3-2.4c0-1.7-1-2.7-2.7-2.7h-3.6v8.3h1.7V38.8z M14.5,35
		h1.6c0.7,0,1.1,0.4,1.1,1.2c0,0.7-0.5,1.1-1.1,1.1h-1.6V35z"/>
	<polygon class="st0" points="26,40.3 22.4,40.3 22.4,38.3 25.5,38.3 25.5,36.8 22.4,36.8 22.4,35 26,35 26,33.5 20.7,33.5 
		20.7,41.8 26,41.8 	"/>
	<polygon class="st0" points="32.7,40.3 29.1,40.3 29.1,38.3 32.2,38.3 32.2,36.8 29.1,36.8 29.1,35 32.7,35 32.7,33.5 27.4,33.5 
		27.4,41.8 32.7,41.8 	"/>
</g>
</svg>
