<?xml version="1.0" encoding="utf-8"?>
<!-- Generator: Adobe Illustrator 21.0.2, SVG Export Plug-In . SVG Version: 6.00 Build 0)  -->
<svg version="1.1" id="Layer_1" xmlns="http://www.w3.org/2000/svg" xmlns:xlink="http://www.w3.org/1999/xlink" x="0px" y="0px"
	 viewBox="0 0 94 80" style="enable-background:new 0 0 94 80;" xml:space="preserve">
<style type="text/css">
	.st0{fill:#222829;}
</style>
<g>
	<path class="st0" d="M71,62c0-3.9-3.1-7-7-7c-1.9,0-3.6,0.8-4.9,2H37.9c-1.3-1.2-3-2-4.9-2s-3.6,0.8-4.9,2H27c-2.2,0-4-1.8-4-4
		s1.8-4,4-4h39c2.7,0,4.9-2.1,5-4.8l3-13L72,30.8L69.2,43H28V23h29v-2H28v-8c0-2.2-1.8-4-4-4h-9v2h5c1.1,0,2,0.9,2,2v31.4
		c-3,1.7-5,5-5,8.6c0,5.2,4,9.5,9.1,10c0.2,1.6,1,3,2,4H15v2h64v-2H68.9C70.2,65.7,71,64,71,62z M64,57c2.8,0,5,2.2,5,5s-2.2,5-5,5
		s-5-2.2-5-5S61.2,57,64,57z M57.1,61H39.9c-0.1-0.7-0.3-1.4-0.6-2h18.4C57.4,59.6,57.2,60.3,57.1,61z M23.4,11H24c1.1,0,2,0.9,2,2
		v9v21.1c-0.7,0.1-1.4,0.2-2,0.4V13C24,12.3,23.8,11.6,23.4,11z M19,53c0-4.4,3.6-8,8-8h41.8c-0.4,1.2-1.5,2-2.8,2H27
		c-3.3,0-6,2.7-6,6c0,3.2,2.5,5.8,5.7,6c-0.3,0.6-0.5,1.3-0.6,2C22.1,60.5,19,57.1,19,53z M28,62c0-2.8,2.2-5,5-5s5,2.2,5,5
		s-2.2,5-5,5S28,64.8,28,62z M37.9,67c1.1-1.1,1.8-2.4,2-4h17.2c0.2,1.6,1,2.9,2,4H37.9z"/>
	<path class="st0" d="M52.3,28.3C51.8,28.8,51.6,29,51,29s-0.8-0.2-1.3-0.7C49.2,27.8,48.5,27,47,27c-1.5,0-2.2,0.8-2.7,1.3
		C43.8,28.8,43.6,29,43,29s-0.8-0.2-1.3-0.7C41.2,27.8,40.5,27,39,27c-1.5,0-2.2,0.8-2.7,1.3C35.8,28.8,35.6,29,35,29
		s-0.8-0.2-1.3-0.7C33.2,27.8,32.5,27,31,27v2c0.6,0,0.8,0.2,1.3,0.7c0.5,0.6,1.2,1.3,2.7,1.3c1.5,0,2.2-0.8,2.7-1.3
		c0.4-0.5,0.6-0.7,1.3-0.7c0.6,0,0.8,0.2,1.3,0.7c0.5,0.6,1.2,1.3,2.7,1.3c1.5,0,2.2-0.8,2.7-1.3c0.4-0.5,0.6-0.7,1.3-0.7
		s0.8,0.2,1.3,0.7c0.5,0.6,1.2,1.3,2.7,1.3c1.5,0,2.2-0.8,2.7-1.3c0.4-0.5,0.6-0.7,1.3-0.7c0.6,0,0.8,0.2,1.3,0.7
		c0.5,0.6,1.2,1.3,2.7,1.3v-2c-0.6,0-0.8-0.2-1.3-0.7C57.2,27.8,56.5,27,55,27C53.5,27,52.8,27.8,52.3,28.3z"/>
	<path class="st0" d="M63,35c-1.5,0-2.2,0.8-2.7,1.3C59.8,36.8,59.6,37,59,37c-0.6,0-0.8-0.2-1.3-0.7C57.2,35.8,56.5,35,55,35
		c-1.5,0-2.2,0.8-2.7,1.3C51.8,36.8,51.6,37,51,37s-0.8-0.2-1.3-0.7C49.2,35.8,48.5,35,47,35c-1.5,0-2.2,0.8-2.7,1.3
		C43.8,36.8,43.6,37,43,37s-0.8-0.2-1.3-0.7C41.2,35.8,40.5,35,39,35c-1.5,0-2.2,0.8-2.7,1.3C35.8,36.8,35.6,37,35,37
		s-0.8-0.2-1.3-0.7C33.2,35.8,32.5,35,31,35v2c0.6,0,0.8,0.2,1.3,0.7c0.5,0.6,1.2,1.3,2.7,1.3c1.5,0,2.2-0.8,2.7-1.3
		c0.4-0.5,0.6-0.7,1.3-0.7c0.6,0,0.8,0.2,1.3,0.7c0.5,0.6,1.2,1.3,2.7,1.3c1.5,0,2.2-0.8,2.7-1.3c0.4-0.5,0.6-0.7,1.3-0.7
		s0.8,0.2,1.3,0.7c0.5,0.6,1.2,1.3,2.7,1.3c1.5,0,2.2-0.8,2.7-1.3c0.4-0.5,0.6-0.7,1.3-0.7c0.6,0,0.8,0.2,1.3,0.7
		c0.5,0.6,1.2,1.3,2.7,1.3c1.5,0,2.2-0.8,2.7-1.3c0.4-0.5,0.6-0.7,1.3-0.7s0.8,0.2,1.3,0.7c0.5,0.6,1.2,1.3,2.7,1.3v-2
		c-0.6,0-0.8-0.2-1.3-0.7C65.2,35.8,64.5,35,63,35z"/>
	<path class="st0" d="M69,29c5.5,0,10-4.5,10-10S74.5,9,69,9s-10,4.5-10,10S63.5,29,69,29z M69,11c4.4,0,8,3.6,8,8s-3.6,8-8,8
		s-8-3.6-8-8S64.6,11,69,11z"/>
	<polygon class="st0" points="68,23 70,23 70,15 67,15 67,17 68,17 	"/>
	<circle class="st0" cx="33" cy="62" r="2"/>
	<circle class="st0" cx="64" cy="62" r="2"/>
</g>
</svg>
