<?xml version="1.0" encoding="utf-8"?>
<!-- Generator: Adobe Illustrator 21.0.2, SVG Export Plug-In . SVG Version: 6.00 Build 0)  -->
<svg version="1.1" id="Layer_1" xmlns="http://www.w3.org/2000/svg" xmlns:xlink="http://www.w3.org/1999/xlink" x="0px" y="0px"
	 viewBox="0 0 94 80" style="enable-background:new 0 0 94 80;" xml:space="preserve">
<style type="text/css">
	.st0{fill:#222829;}
</style>
<g>
	<path class="st0" d="M47,34c-8.3,0-15,6.7-15,15s6.7,15,15,15s15-6.7,15-15S55.3,34,47,34z M47,62c-7.2,0-13-5.8-13-13
		c0-7.2,5.8-13,13-13s13,5.8,13,13C60,56.2,54.2,62,47,62z"/>
	<path class="st0" d="M51,49c0-2.2-1.8-4-4-4s-4,1.8-4,4s1.8,4,4,4c0.7,0,1.4-0.2,2-0.6l4.3,4.3l1.4-1.4L50.4,51
		C50.8,50.4,51,49.7,51,49z M45,49c0-1.1,0.9-2,2-2s2,0.9,2,2s-0.9,2-2,2S45,50.1,45,49z"/>
	<rect x="29" y="21" class="st0" width="36" height="2"/>
	<path class="st0" d="M76.1,67c0.7-1,0.9-2.2,0.9-3c0-0.1,0-0.1,0-0.2l-6-29.9c0-1.8-1.1-4.9-5-4.9H53v-2h13c2.8,0,5-2.2,5-5v-6
		c0-0.6-0.4-1-1-1h-4c-2.4,0-4.9-2.1-7.5-4.2C55.3,8.1,51.7,5,47,5s-8.3,3.1-11.5,5.8c-2.6,2.2-5,4.2-7.5,4.2h-4c-0.6,0-1,0.4-1,1v6
		c0,2.8,2.2,5,5,5h13v2H28c-2,0-3.6,0.9-4.4,2.6c-0.5,1-0.6,2-0.6,2.3l-6,29.9c0,0.1,0,0.1,0,0.2c0,0.8,0.2,2,0.9,3H15v2h7h50h7v-2
		H76.1z M36.7,12.3C39.9,9.7,43.1,7,47,7s7.1,2.7,10.2,5.3c1.2,1,2.3,1.9,3.4,2.7H33.3C34.5,14.2,35.6,13.3,36.7,12.3z M25,22v-5h44
		v5c0,1.7-1.3,3-3,3H52H42H28C26.3,25,25,23.7,25,22z M43,27h8v2h-8V27z M22,67c-2.7,0-3-2.3-3-2.9l6-29.9c0-0.1,0-0.1,0-0.2
		c0,0,0-0.8,0.4-1.6c0.5-1,1.3-1.4,2.6-1.4h14h10h14c2.8,0,3,2.5,3,3c0,0.1,0,0.1,0,0.2l6,29.9c0,0.7-0.3,2.9-3,2.9H22z"/>
</g>
</svg>
