<?xml version="1.0" encoding="UTF-8"?>
<svg width="160px" height="100px" viewBox="0 0 160 100" version="1.1" xmlns="http://www.w3.org/2000/svg" xmlns:xlink="http://www.w3.org/1999/xlink">
    <!-- Generator: Sketch 41.2 (35397) - http://www.bohemiancoding.com/sketch -->
    <title>logo_sainsburys</title>
    <desc>Created with Sketch.</desc>
    <defs>
        <polygon id="path-1" points="0.0128686327 0.100689316 0.0128686327 26.0033654 41.2935121 26.0033654 41.2935121 0.100689316 0.0128686327 0.100689316"></polygon>
        <polygon id="path-3" points="0.104450402 32.6361242 21.2961787 32.6361242 21.2961787 0.125804564 0.104450402 0.125804564"></polygon>
    </defs>
    <g id="Symbols" stroke="none" stroke-width="1" fill="none" fill-rule="evenodd">
        <g id="logo_sainsburys">
            <g id="sainsburys_logo_color" transform="translate(0.000000, 22.000000)">
                <path d="M28.7961394,21.7906748 C28.7961394,22.3299677 27.4771046,23.7763777 25.6947989,23.7763777 C23.6394638,23.7763777 22.8639142,22.2059897 22.8639142,20.6378849 C22.8639142,18.410619 24.4913673,16.3488854 28.7961394,16.3488854 L28.7961394,21.7906748 Z M26.3234316,6.8260963 C24.2384987,6.8260963 21.8432172,7.28091062 20.2972654,8.10058101 C19.8741019,8.34762373 19.7188204,8.71932942 19.7188204,9.08783861 L19.7188204,10.9358643 C19.7188204,11.5169398 20.1443432,11.7603294 20.376622,11.7603294 C20.8390349,11.7603294 21.1869169,11.3073416 21.4189812,11.1438642 C22.8469705,10.1191621 24.2756032,9.41456517 26.169866,9.41456517 C28.5231099,9.41456517 28.8716354,11.059614 28.8716354,13.0761401 L28.8647721,13.1517142 C28.8647721,14.0944493 28.5630027,14.2688861 25.2040751,14.7211889 C23.1566756,15.009101 18.4830027,15.9954453 18.4830027,20.476234 C18.4830027,24.1757102 21.2632708,26.1495404 24.5076676,26.1495404 C26.2848257,26.1495404 27.7514209,25.3243903 28.9880965,24.1757102 L29.0644504,25.2447065 C29.0644504,25.5321619 29.2587668,25.738107 29.4507239,25.738107 L32.9640751,25.738107 C33.2343164,25.738107 33.4284182,25.5321619 33.4284182,25.2447065 L33.4284182,12.4599032 C33.4284182,9.12779469 31.7668633,6.8260963 26.3234316,6.8260963 L26.3234316,6.8260963 Z" id="Fill-1" fill="#DD6B2B"></path>
                <path d="M38.9282574,0.249782565 C37.2231635,0.249782565 36.4079357,1.32288865 36.4079357,2.5619837 C36.4079357,4.04560994 37.4153351,5.03766227 38.9282574,5.03766227 C40.4403217,5.03766227 41.3709383,4.04560994 41.3709383,2.5619837 C41.3709383,1.32288865 40.5569973,0.249782565 38.9282574,0.249782565" id="Fill-2" fill="#DD6B2B"></path>
                <g id="Group-6" transform="translate(0.000000, 0.228320)">
                    <mask id="mask-2" fill="white">
                        <use xlink:href="#path-1"></use>
                    </mask>
                    <g id="Clip-4"></g>
                    <path d="M36.7184987,7.57453071 L36.7184987,25.0782609 C36.7184987,25.35978 36.913244,25.571433 37.106059,25.571433 L40.8276676,25.571433 C41.0979088,25.571433 41.2935121,25.35978 41.2935121,25.0782609 L41.2935121,7.57453071 C41.2935121,7.28684695 41.0979088,7.07702047 40.8276676,7.07702047 L37.106059,7.07702047 C36.913244,7.07702047 36.7184987,7.28684695 36.7184987,7.57453071" id="Fill-3" fill="#DD6B2B" mask="url(#mask-2)"></path>
                    <path d="M0.659731903,24.4949021 C7.17276139,27.7550898 16.4401072,25.8572902 16.4401072,17.5628652 C16.4401072,9.92874281 4.150563,10.4207734 4.150563,5.71417574 C4.150563,3.81728949 5.85587131,2.53892333 8.02595174,2.53892333 C9.96439678,2.53892333 11.4384987,3.24123702 12.9891689,4.44083263 C13.4164075,4.76733086 13.6881501,4.97464582 14.0356032,4.97464582 C14.4630563,4.97464582 14.578874,4.68490718 14.578874,4.31183158 L14.578874,1.92268645 C14.578874,1.54709933 14.5025201,1.33932772 14.1520643,1.17653525 C12.8347453,0.641580446 10.507882,0.100689316 7.94873995,0.100689316 C2.79378016,0.100689316 0,3.48827974 0,7.32680303 C0,15.6636957 12.0967292,13.9321135 12.0967292,19.5864692 C12.0967292,23.0124175 7.4447185,25.4059007 2.05640751,21.3984203 C1.5519571,21.0289978 1.31882038,20.8230528 0.970294906,20.8230528 C0.310991957,20.8230528 0.193243968,21.196585 0.193243968,21.5662358 L0.193243968,23.6697521 C0.193243968,24.0391745 0.273029491,24.249001 0.659731903,24.4949021" id="Fill-5" fill="#DD6B2B" mask="url(#mask-2)"></path>
                </g>
                <path d="M45.1311528,7.80285116 L45.1311528,25.3065813 C45.1311528,25.5881004 45.3248257,25.7997535 45.5191421,25.7997535 L49.2411796,25.7997535 C49.5114209,25.7997535 49.7065952,25.5881004 49.7065952,25.3065813 L49.7065952,11.1879301 C50.4441823,10.7328874 51.9942091,9.90933557 53.3115282,9.90933557 C55.8726005,9.90933557 56.0268097,11.5594074 56.0268097,12.9617516 L56.0268097,25.3065813 C56.0268097,25.5881004 56.2196247,25.7997535 56.4147989,25.7997535 L60.1374799,25.7997535 C60.4077212,25.7997535 60.6009651,25.5881004 60.6009651,25.3065813 L60.6009651,12.5507748 C60.6009651,9.2072502 58.9340483,6.89459243 55.2105094,6.89459243 C53.0792493,6.89459243 50.8302413,8.01016612 49.6673458,8.75426244 L49.5903485,8.75426244 L49.5903485,7.80285116 C49.5903485,7.5151674 49.3964611,7.30534091 49.124933,7.30534091 L45.5191421,7.30534091 C45.3248257,7.30534091 45.1311528,7.5151674 45.1311528,7.80285116" id="Fill-7" fill="#DD6B2B"></path>
                <path d="M74.8313137,7.92819908 C69.7919571,5.69522514 63.0434316,6.89459243 63.0434316,12.7135673 C63.0434316,19.2775517 72.813941,17.9151636 72.813941,21.4628066 C72.813941,24.3156706 68.2001072,24.6033543 64.8662735,21.8765233 C64.6331367,21.6705783 64.400429,21.5509383 64.1293298,21.5509383 C63.7424129,21.5509383 63.510134,21.7146441 63.510134,22.2900116 L63.510134,23.8980725 C63.510134,24.3556267 63.6244504,24.7232226 64.0917962,24.9707219 C68.3942091,27.036337 76.3034853,27.0804028 76.3034853,19.4832684 C76.3034853,12.9617516 66.4173727,14.447661 66.4173727,11.1879301 C66.4173727,8.50721972 71.2634853,8.75426244 74.056622,10.7728435 C74.2880429,10.9388324 74.597748,11.1041364 74.7924933,11.1041364 C75.1789812,11.1041364 75.4138338,10.9388324 75.4138338,10.3623233 L75.4138338,8.99902196 C75.4138338,8.54466428 75.2958713,8.13208924 74.8313137,7.92819908" id="Fill-8" fill="#DD6B2B"></path>
                <path d="M158.345308,7.92819908 C153.305952,5.69522514 146.557855,6.89459243 146.557855,12.7135673 C146.557855,19.2775517 156.330938,17.9151636 156.330938,21.4628066 C156.330938,24.3156706 151.714531,24.6033543 148.380912,21.8765233 C148.148204,21.6705783 147.914638,21.5509383 147.643539,21.5509383 C147.254906,21.5509383 147.024129,21.7146441 147.024129,22.2900116 L147.024129,23.8980725 C147.024129,24.3556267 147.139517,24.7232226 147.605791,24.9707219 C151.907989,27.036337 159.820268,27.0804028 159.820268,19.4832684 C159.820268,12.9617516 149.932869,14.447661 149.932869,11.1879301 C149.932869,8.50721972 154.778981,8.75426244 157.57126,10.7728435 C157.80311,10.9388324 158.112601,11.1041364 158.306059,11.1041364 C158.693405,11.1041364 158.928043,10.9388324 158.928043,10.3623233 L158.928043,8.99902196 C158.928043,8.54466428 158.809866,8.13208924 158.345308,7.92819908" id="Fill-9" fill="#DD6B2B"></path>
                <path d="M120.271099,12.8375453 C120.271099,10.8564088 120.930831,9.61777036 124.963432,10.7328874 C125.467239,10.8564088 125.778016,10.9801584 126.203753,10.9801584 C126.474209,10.9801584 126.707775,10.693388 126.707775,10.4038776 L126.707775,7.96769852 C126.707775,7.55512347 126.436461,7.2281686 125.930938,7.10213571 C123.140375,6.40005035 121.434638,7.76061187 119.999786,9.2072502 L119.923003,9.1647826 L119.923003,7.80285116 C119.923003,7.5151674 119.728901,7.30534091 119.457587,7.30534091 L116.083646,7.30534091 C115.890402,7.30534091 115.696086,7.5151674 115.696086,7.80285116 L115.696086,25.3065813 C115.696086,25.5881004 115.890402,25.7997535 116.083646,25.7997535 L119.804826,25.7997535 C120.077855,25.7997535 120.271099,25.5881004 120.271099,25.3065813 L120.271099,12.8375453" id="Fill-10" fill="#DD6B2B"></path>
                <g id="Group-14" transform="translate(127.184987, 0.000000)">
                    <mask id="mask-4" fill="white">
                        <use xlink:href="#path-3"></use>
                    </mask>
                    <g id="Clip-12"></g>
                    <path d="M18.9855228,7.39187436 C20.8085791,7.39187436 22.8643432,0.125804564 19.4901877,0.125804564 L17.6669169,0.125804564 C17.2420375,0.125804564 17.1650402,0.454814323 17.1650402,0.702542005 C17.1650402,1.19913897 18.3257909,2.43777738 18.3257909,4.12963186 C18.3257909,5.8612141 17.7074531,6.48178907 17.7074531,7.01834211 C17.7074531,7.2281686 17.9006971,7.39187436 18.1709383,7.39187436 L18.9855228,7.39187436" id="Fill-11" fill="#DD6B2B" mask="url(#mask-4)"></path>
                    <path d="M9.1755496,20.1004186 L8.94477212,19.3175078 L5.26134048,7.76061187 C5.14402145,7.43183044 4.9910992,7.30534091 4.64,7.30534091 L0.686112601,7.30534091 C0.452546917,7.30534091 0.337158177,7.43183044 0.337158177,7.67864483 C0.337158177,7.80285116 0.374691689,7.92819908 0.531474531,8.33917588 L6.96600536,24.9707219 C8.05254692,27.77952 4.87463807,29.8012976 1.80932976,28.8944088 C1.34391421,28.7683759 1.03442359,28.6466811 0.608257373,28.6466811 C0.337158177,28.6466811 0.104450402,28.9343648 0.104450402,29.2220486 L0.104450402,31.5751191 C0.104450402,32.0726293 0.414155496,32.6498234 2.12075067,32.6498234 C6.23034853,32.6498234 8.44010724,30.4207309 10.4171582,25.1787219 L16.7757641,8.2154262 C16.8534048,7.96769852 16.9314745,7.84440548 16.9314745,7.67864483 C16.9314745,7.47269979 16.7757641,7.30534091 16.5835925,7.30534091 L13.8286327,7.30534091 C13.5583914,7.30534091 13.3642895,7.47269979 13.2864343,7.76061187 L9.48739946,19.3175078 L9.1755496,20.1004186" id="Fill-13" fill="#DD6B2B" mask="url(#mask-4)"></path>
                </g>
                <path d="M112.361394,25.3065813 L112.361394,7.80285116 C112.361394,7.5151674 112.16815,7.30534091 111.974906,7.30534091 L108.251796,7.30534091 C107.980697,7.30534091 107.787453,7.5151674 107.787453,7.80285116 L107.787453,21.9183059 C107.050724,22.3719787 105.498767,23.1969004 104.181448,23.1969004 C101.623807,23.1969004 101.467239,21.5509383 101.467239,20.1424295 L101.467239,7.80285116 C101.467239,7.5151674 101.272922,7.30534091 101.079464,7.30534091 L97.3584987,7.30534091 C97.0852547,7.30534091 96.8911528,7.5151674 96.8911528,7.80285116 L96.8911528,20.5561462 C96.8911528,23.8980725 98.5593566,26.2093603 102.282466,26.2093603 C104.414155,26.2093603 106.663378,25.0946999 107.825845,24.3556267 L107.904558,24.3556267 L107.904558,25.3065813 C107.904558,25.5881004 108.096086,25.7997535 108.369115,25.7997535 L111.974906,25.7997535 C112.16815,25.7997535 112.361394,25.5881004 112.361394,25.3065813" id="Fill-15" fill="#DD6B2B"></path>
                <path d="M83.5161394,23.4884656 C83.9026273,23.7341384 84.4842895,23.9400835 85.6083646,23.9400835 C88.0900804,23.9400835 89.8344236,21.2171339 89.8344236,16.596613 C89.8344236,14.8611493 89.4863271,9.98627956 85.9575335,9.98627956 C84.5632172,9.98627956 83.5545308,10.8169093 82.9720107,11.2673856 L82.9720107,22.4137613 C82.9720107,22.7893484 83.0507239,23.1569443 83.5161394,23.4884656 Z M78.3987131,0.828574889 C78.3987131,0.536324722 78.5915282,0.329009759 78.7862735,0.329009759 L82.5074531,0.329009759 C82.7774799,0.329009759 82.9720107,0.536324722 82.9720107,0.828574889 L82.9720107,9.08144564 L82.9720107,9.04148956 C83.7102413,8.38118684 85.4149062,6.93432019 88.051689,6.93432019 C92.046756,6.93432019 94.5651475,10.6490938 94.5651475,15.6029625 C94.5651475,21.958262 90.4171582,26.1694043 85.2986595,26.1694043 C82.5074531,26.1694043 80.4525469,25.1367109 79.0949062,24.0220505 C78.5141019,23.5686061 78.3987131,22.7893484 78.3987131,22.1263059 L78.3987131,0.828574889 L78.3987131,0.828574889 Z" id="Fill-16" fill="#DD6B2B"></path>
            </g>
        </g>
    </g>
</svg>