<?xml version="1.0" encoding="UTF-8"?>
<svg width="160px" height="100px" viewBox="0 0 160 100" version="1.1" xmlns="http://www.w3.org/2000/svg" xmlns:xlink="http://www.w3.org/1999/xlink">
    <!-- Generator: Sketch 41.2 (35397) - http://www.bohemiancoding.com/sketch -->
    <title>logo_tesco</title>
    <desc>Created with Sketch.</desc>
    <defs>
        <polygon id="path-1" points="119.912139 0.0372898095 119.912139 6.39218715 0 6.39218715 0 0.0372898095"></polygon>
    </defs>
    <g id="Symbols" stroke="none" stroke-width="1" fill="none" fill-rule="evenodd">
        <g id="logo_tesco">
            <g id="Tesco_color" transform="translate(20.000000, 20.000000)">
                <g id="Group-7" transform="translate(0.000000, 30.397964)">
                    <mask id="mask-2" fill="white">
                        <use xlink:href="#path-1"></use>
                    </mask>
                    <g id="Clip-2"></g>
                    <path d="M9.19942197,0.0372898095 L23.7988439,0.0372898095 C23.9695954,0.0372898095 23.9695954,0.128237563 23.7988439,0.219062247 C22.176763,1.03709975 19.7861272,3.58191388 19.7861272,3.58191388 C18.1641618,5.30905972 16.8833526,6.39957127 14.065896,6.39957127 L0.0639306358,6.39957127 C-0.0213872832,6.39957127 -0.0213872832,6.21767577 0.0639306358,6.21767577 C1.60080925,5.30905972 3.90601156,2.76387638 3.90601156,2.76387638 C4.84508671,1.58254013 6.80867052,0.0372898095 9.19942197,0.0372898095" id="Fill-1" fill="#054A89" mask="url(#mask-2)"></path>
                    <path d="M105.163699,0.0372898095 L119.848555,0.0372898095 C119.934104,0.0372898095 119.934104,0.128237563 119.848555,0.219062247 C118.14104,1.03709975 115.835838,3.58191388 115.835838,3.58191388 C114.128439,5.30905972 112.84763,6.39957127 110.115607,6.39957127 L96.1137572,6.39957127 C96.0282081,6.39957127 96.0282081,6.21767577 96.1137572,6.21767577 C97.6504046,5.30905972 99.9556069,2.76387638 99.9556069,2.76387638 C100.894798,1.58254013 102.773179,0.0372898095 105.163699,0.0372898095" id="Fill-3" fill="#054A89" mask="url(#mask-2)"></path>
                    <path d="M33.1904046,0.0372898095 L47.7899422,0.0372898095 C47.9606936,0.0372898095 47.9606936,0.128237563 47.7899422,0.219062247 C46.1678613,1.03709975 43.777341,3.58191388 43.777341,3.58191388 C42.1550289,5.30905972 40.8744509,6.39957127 38.0568786,6.39957127 L24.1403468,6.39957127 C23.9695954,6.39957127 23.9695954,6.21767577 24.0551445,6.21767577 C25.5919075,5.30905972 27.8969942,2.76387638 27.8969942,2.76387638 C28.836185,1.58254013 30.7997688,0.0372898095 33.1904046,0.0372898095" id="Fill-4" fill="#054A89" mask="url(#mask-2)"></path>
                    <path d="M57.1815029,0.0372898095 L71.7810405,0.0372898095 C71.9519075,0.0372898095 71.9519075,0.128237563 71.7810405,0.219062247 C70.1589595,1.03709975 67.7682081,3.58191388 67.7682081,3.58191388 C66.1461272,5.30905972 64.8655491,6.39957127 62.133526,6.39957127 L48.1315607,6.39957127 C48.0462428,6.39957127 48.0462428,6.21767577 48.0462428,6.21767577 C49.6683237,5.30905972 51.8880925,2.76387638 51.8880925,2.76387638 C52.8272832,1.58254013 54.7909827,0.0372898095 57.1815029,0.0372898095" id="Fill-5" fill="#054A89" mask="url(#mask-2)"></path>
                    <path d="M81.1726012,0.0372898095 L95.8574566,0.0372898095 C95.9430058,0.0372898095 95.9430058,0.128237563 95.7722543,0.219062247 C94.1500578,1.03709975 91.759422,3.58191388 91.759422,3.58191388 C90.1372254,5.30905972 88.8565318,6.39957127 86.1245087,6.39957127 L72.122659,6.39957127 C72.0371098,6.39957127 72.0371098,6.21767577 72.122659,6.21767577 C73.659422,5.30905972 75.9645087,2.76387638 75.9645087,2.76387638 C76.8183815,1.58254013 78.7820809,0.0372898095 81.1726012,0.0372898095" id="Fill-6" fill="#054A89" mask="url(#mask-2)"></path>
                </g>
                <path d="M85.1854335,0.0786408855 C75.9645087,0.0786408855 69.8174566,5.16851528 69.8174566,12.8939054 C69.8174566,19.9831536 75.4523699,24.70936 83.819422,24.70936 C86.5514451,24.70936 88.9420809,24.3458152 91.759422,23.5279007 L91.759422,17.6201119 C89.7957225,19.9831536 87.4052023,20.8920158 84.843815,20.8920158 C79.8920231,20.8920158 76.476763,17.4383394 76.476763,12.348465 C76.476763,7.34966147 79.977341,3.71433578 84.9292486,3.71433578 C87.5759538,3.71433578 89.7104046,4.80484734 91.4180347,6.71351947 L91.4180347,0.714782884 C89.6249711,0.351238008 87.4052023,0.0786408855 85.1854335,0.0786408855" id="Fill-8" fill="#D82331"></path>
                <path d="M16.3709827,4.25940696 C19.7861272,4.25940696 23.8843931,4.98661978 25.5919075,6.53174703 L25.5919075,0.89667839 L1.34473988,0.89667839 L1.34473988,6.53174703 C3.05213873,4.98661978 6.7233526,4.35047778 10.6507514,4.35047778 L10.6507514,19.8012581 C10.6507514,22.0735981 10.48,22.7097401 9.62624277,23.8914456 L17.3957225,23.8914456 C16.5417341,22.7097401 16.3709827,22.0735981 16.3709827,19.8012581 L16.3709827,4.25940696" id="Fill-9" fill="#D82331"></path>
                <path d="M41.1305202,9.80377399 C39.7645087,10.3490913 37.203237,10.439916 35.9224277,10.439916 L33.873526,10.439916 L33.873526,4.35047778 L36.6055491,4.35047778 C39.0816185,4.35047778 43.2649711,4.89567202 44.887052,6.44079928 L44.887052,0.89667839 L27.2139884,0.89667839 C28.0677457,1.98718995 28.2384971,2.71440277 28.2384971,4.89567202 L28.2384971,19.8012581 C28.2384971,22.0735981 28.0677457,22.7097401 27.2993064,23.8914456 L46.0823121,23.8914456 L46.0823121,18.256377 C43.5210405,20.3468215 38.5691329,20.3468215 36.6055491,20.3468215 L33.873526,20.3468215 L33.873526,13.8937154 L35.8371098,13.8937154 C37.203237,13.8937154 39.6791908,14.0753647 41.1305202,14.6206821 L41.1305202,9.80377399" id="Fill-10" fill="#D82331"></path>
                <path d="M67.3413873,1.62364507 C64.5240462,0.624081268 60.8527168,0.0786408855 58.0353757,0.0786408855 C52.9126012,0.0786408855 47.9606936,1.80541751 47.9606936,7.62225859 C47.9606936,17.6201119 63.3287861,12.348465 63.3287861,18.5290971 C63.3287861,20.528594 60.5966474,21.3466315 58.376763,21.3466315 C54.4493642,21.3466315 51.717341,20.6194186 48.3023121,18.256377 L48.3023121,23.3460052 C50.8635838,24.2549905 54.3640462,24.8003078 58.1206936,24.8003078 C63.4139884,24.8003078 68.3661272,23.1642328 68.3661272,17.256567 C68.3661272,6.71351947 53.0833526,11.4397259 53.0833526,6.34985153 C53.0833526,4.25940696 55.5593064,3.53244027 57.6938728,3.53244027 C61.2795376,3.53244027 65.2069364,4.71389959 67.3413873,6.9861166 L67.3413873,1.62364507" id="Fill-11" fill="#D82331"></path>
                <path d="M106.188208,20.9829635 C101.748555,20.9829635 98.9312139,17.1654962 98.9312139,12.4395359 C98.9312139,7.71332942 101.748555,3.89586208 106.188208,3.89586208 C110.542428,3.89586208 113.445318,7.71332942 113.445318,12.4395359 C113.445318,17.1654962 110.542428,20.9829635 106.188208,20.9829635 Z M106.78578,0.442185761 C98.5042775,0.442185761 92.6131792,5.53181402 92.6131792,12.712133 C92.6131792,19.8012581 97.9067052,24.4366398 105.676069,24.4366398 C114.04289,24.4366398 119.848555,19.5289071 119.848555,12.2577634 C119.848555,5.16851528 114.55526,0.442185761 106.78578,0.442185761 L106.78578,0.442185761 Z" id="Fill-12" fill="#D82331"></path>
            </g>
        </g>
    </g>
</svg>