<?xml version="1.0" encoding="UTF-8"?>
<svg width="160px" height="100px" viewBox="0 0 160 100" version="1.1" xmlns="http://www.w3.org/2000/svg" xmlns:xlink="http://www.w3.org/1999/xlink">
    <!-- Generator: Sketch 41.2 (35397) - http://www.bohemiancoding.com/sketch -->
    <title>logo_ocado</title>
    <desc>Created with Sketch.</desc>
    <defs>
        <polygon id="path-1" points="89.9737515 38.0104944 89.9737515 76.0171227 0 76.0171227 0 38.0104944 0 0.00386604298 89.9737515 0.00386604298 89.9737515 38.0104944"></polygon>
    </defs>
    <g id="Symbols" stroke="none" stroke-width="1" fill="none" fill-rule="evenodd">
        <g id="logo_ocado">
            <g id="ocado_vertical_color" transform="translate(35.000000, 0.000000)">
                <path d="M64.8629245,0.0141627317 L25.0290971,0.0141627317 C22.0027167,0.0141627317 19.4670755,2.6263829 19.4670755,5.9351798 L19.4670755,48.3400827 C19.4670755,51.5619128 21.9209149,54.2612529 25.0290971,54.2612529 L70.3431083,54.2612529 L70.3431083,5.9351798 C70.4250899,2.6263829 67.8894127,0.0141627317 64.8629245,0.0141627317" id="Fill-1" fill="#B0BC37"></path>
                <g id="Group-5" transform="translate(0.000000, 7.846919)">
                    <mask id="mask-2" fill="white">
                        <use xlink:href="#path-1"></use>
                    </mask>
                    <g id="Clip-3"></g>
                    <path d="M45.1506592,37.7069334 C54.884179,37.7069334 62.8180583,29.3477447 62.8180583,18.985984 C62.8180583,16.5479271 62.0820216,13.3261736 62.0820216,14.1098703 C62.0820216,21.0757524 56.0290451,26.7355628 49.5675989,25.7777411 C44.6598482,25.0811644 39.1796644,20.292094 40.1609269,12.7166785 C41.1425489,5.22830638 47.2771474,2.26779784 51.6940871,2.8773312 C58.8103076,3.9221963 60.2823811,9.66908832 58.1558929,12.3683519 C56.0290451,15.5030237 51.612465,13.6745002 51.612465,10.1044584 C51.612465,8.10177153 52.8393128,7.23103148 53.0029165,7.05686815 C49.4039952,5.92488311 45.6414702,8.97251159 45.1506592,12.9778852 C44.5778666,17.3315855 47.6043548,20.8145457 51.0396724,21.2499158 C57.3378746,22.2076992 60.9367958,16.8091338 60.9367958,12.0200635 C60.9367958,6.36029142 55.2930084,0.00386604298 45.2322813,0.00386604298 C35.4987974,0.00386604298 27.5647383,8.36297824 27.5647383,18.6376956 C27.5647383,29.2607013 35.4169956,37.7069334 45.1506592,37.7069334" id="Fill-2" fill="#FFFFFF" mask="url(#mask-2)"></path>
                    <path d="M8.4248342,61.3039583 C11.4512145,61.3039583 13.8232521,63.9160254 13.8232521,67.1378555 C13.8232521,70.2724125 11.4512145,72.9717526 8.4248342,72.9717526 C5.3984179,72.9717526 3.02638034,70.2724125 3.02638034,67.1378555 C3.02638034,63.9160254 5.3984179,61.3039583 8.4248342,61.3039583 L8.4248342,61.3039583 Z M8.4248342,58.2562916 C3.68075909,58.2562916 0,62.0875019 0,67.1378555 C0,72.188209 3.68075909,76.0194194 8.4248342,76.0194194 C13.1689093,76.0194194 16.8496684,72.188209 16.8496684,67.1378555 C16.7678666,62.0875019 13.0871075,58.2562916 8.4248342,58.2562916 L8.4248342,58.2562916 Z M31.4090651,71.1432291 C30.4275509,72.2750993 29.0370276,72.9717526 27.4829365,72.9717526 C24.4565561,72.9717526 22.0845186,70.2724125 22.0845186,67.1378555 C22.0845186,63.9160254 24.4565561,61.3039583 27.4829365,61.3039583 C29.0370276,61.3039583 30.4275509,62.0006116 31.4090651,63.1324818 L32.8813903,60.1717054 C31.4090651,58.9529449 29.6096045,58.1690185 27.4829365,58.1690185 C22.7388614,58.1690185 19.0581023,62.0006116 19.0581023,67.0505824 C19.0581023,72.100936 22.7388614,75.9321463 27.4829365,75.9321463 C29.5278026,75.9321463 31.4090651,75.1486028 32.8813903,73.9294595 L31.4090651,71.1432291 Z M67.3986017,50.6807612 L67.3986017,60.6073051 L67.3169796,60.6073051 C66.0897723,59.1271082 64.1268877,58.1690185 62.00004,58.1690185 C57.2562525,58.1690185 53.5753496,62.0006116 53.5753496,67.0505824 C53.5753496,72.100936 57.2562525,75.9321463 62.00004,75.9321463 C64.0452657,75.9321463 66.0897723,74.9744394 67.3169796,73.4942426 L67.3986017,73.4942426 L67.3986017,75.3227661 L70.4250899,75.3227661 L70.4250899,50.6807612 L67.3986017,50.6807612 Z M62.0820216,72.9717526 C59.0555334,72.9717526 56.6834598,70.2724125 56.6834598,67.1378555 C56.6834598,63.9160254 59.0555334,61.3039583 62.0820216,61.3039583 C65.1085098,61.3039583 67.4805833,63.9160254 67.4805833,67.1378555 C67.4805833,70.2724125 65.1085098,72.9717526 62.0820216,72.9717526 L62.0820216,72.9717526 Z M48.0131842,58.6915085 L48.0131842,60.6073051 L47.9315621,60.6073051 C46.6227327,59.2139985 44.6598482,58.2562916 42.5330004,58.2562916 C37.7892129,58.2562916 34.1082741,62.0875019 34.1082741,67.1378555 C34.1082741,72.188209 37.7892129,76.0194194 42.5330004,76.0194194 C44.5778666,76.0194194 46.6227327,75.0613297 47.8495805,73.5811329 L47.9315621,73.5811329 L47.9315621,75.4096563 L50.9580503,75.4096563 L50.9580503,58.6915085 L48.0131842,58.6915085 Z M42.614982,72.9717526 C39.5884938,72.9717526 37.2164203,70.2724125 37.2164203,67.1378555 C37.2164203,63.9160254 39.5884938,61.3039583 42.614982,61.3039583 C45.6414702,61.3039583 48.0131842,63.9160254 48.0131842,67.1378555 C48.0131842,70.2724125 45.6414702,72.9717526 42.614982,72.9717526 L42.614982,72.9717526 Z M81.5490611,61.3039583 C84.5755493,61.3039583 86.9476229,63.9160254 86.9476229,67.1378555 C86.9476229,70.2724125 84.5755493,72.9717526 81.5490611,72.9717526 C78.5225729,72.9717526 76.1504994,70.2724125 76.1504994,67.1378555 C76.1504994,63.9160254 78.5225729,61.3039583 81.5490611,61.3039583 L81.5490611,61.3039583 Z M81.5490611,58.2562916 C76.8049141,58.2562916 73.1243708,62.0875019 73.1243708,67.1378555 C73.1243708,72.188209 76.8049141,76.0194194 81.5490611,76.0194194 C86.2932082,76.0194194 89.9737515,72.188209 89.9737515,67.1378555 C89.8921294,62.0875019 86.2112265,58.2562916 81.5490611,58.2562916 L81.5490611,58.2562916 Z" id="Fill-4" fill="#464A48" mask="url(#mask-2)"></path>
                </g>
            </g>
        </g>
    </g>
</svg>