<?xml version="1.0" encoding="UTF-8"?>
<svg width="160px" height="100px" viewBox="0 0 160 100" version="1.1" xmlns="http://www.w3.org/2000/svg" xmlns:xlink="http://www.w3.org/1999/xlink">
    <!-- Generator: Sketch 41.2 (35397) - http://www.bohemiancoding.com/sketch -->
    <title>logo_asda</title>
    <desc>Created with Sketch.</desc>
    <defs>
        <polygon id="path-1" points="109.768363 25.2192367 109.768363 0 6.10764334e-05 0 6.10764334e-05 50.4384733 109.768363 50.4384733"></polygon>
    </defs>
    <g id="Symbols" stroke="none" stroke-width="1" fill="none" fill-rule="evenodd">
        <g id="logo_asda">
            <g id="ASDA-logo_color" transform="translate(25.000000, 0.000000)">
                <mask id="mask-2" fill="white">
                    <use xlink:href="#path-1"></use>
                </mask>
                <g id="Clip-2"></g>
                <path d="M90.8699748,38.0719036 L94.0563728,26.8609942 L97.2441562,38.0719036 L90.8699748,38.0719036 Z M67.536398,41.7441784 L65.5713602,41.7441784 L65.5713602,26.2333154 L67.5131234,26.2333154 C70.446272,26.2333154 73.7149622,27.5290828 73.7149622,33.9536464 C73.7149622,39.6484745 70.8283627,41.7441784 67.536398,41.7441784 Z M15.7879093,38.0719036 L19.0438539,26.7241319 L22.2429975,38.0719036 L15.7879093,38.0719036 Z M99.8561713,18.184397 L88.9135264,18.184397 L82.655995,37.3993906 C82.9455416,35.8060068 82.9981864,34.5341313 82.9981864,33.9739988 C82.9981864,25.9239005 78.6591436,18.184397 68.4623929,18.184397 L56.7683123,18.184397 L56.7879849,37.3011683 C55.7857935,31.8700361 51.1239547,30.4114498 45.3227708,28.5357875 C43.1515869,27.8337783 41.9626448,26.7014199 42.3940554,25.6463414 C42.768665,24.7284202 44.0936524,24.4428971 45.7106801,24.6841759 C48.1664232,25.0511084 50.1331234,25.9318645 52.0297229,27.0241081 L54.6120907,20.216684 C54.0421411,19.9028446 49.975466,17.3228135 44.8439798,17.2399292 L44.3355416,17.2399292 C37.1553401,17.3275328 32.5907557,21.0912458 32.5907557,26.6347585 C32.5907557,31.6252177 35.4856675,34.5359011 40.8069521,36.1711695 C46.523073,37.9264874 47.9799496,38.6391152 47.8053904,40.3917784 C47.6554912,41.8966736 44.0989169,43.7322211 35.4274811,38.0662993 L32.8595214,43.7298614 L24.8860453,18.184397 L13.9447859,18.184397 L3.60312343,49.9417576 L12.2263476,49.9417576 L13.5765491,45.4494889 L24.4551889,45.4494889 L25.7383375,49.9417576 L34.8010076,49.9417576 L33.7686146,46.8346297 C36.8275567,48.7161912 40.6321159,50.4384733 45.1695466,50.4384733 C52.1208816,50.4384733 55.8824937,46.4010358 56.7863224,42.5267121 L56.7863224,49.9417576 L68.4535264,49.9417576 C75.4112343,49.9417576 79.0501008,46.4137191 80.949194,42.643517 L78.5724181,49.9417576 L87.1948111,49.9417576 L88.5860202,45.4494889 L99.4433249,45.4494889 L100.705416,49.9417576 L109.768363,49.9417576 L109.768363,49.9326138 L99.8561713,18.184397 L99.8561713,18.184397 Z" id="Fill-1" fill="#7CB041" mask="url(#mask-2)"></path>
                <path d="M14.459597,0.0138632061 C13.6707557,0.0923230535 12.8195718,0.487276947 12.4981612,1.18692641 C12.3324685,1.54707481 12.3729219,1.77272061 12.4092191,2.19068153 L13.1542821,11.1864275 C13.1869773,11.5931799 13.2498741,11.7642577 13.4571285,11.9798748 C14.3207809,12.8792134 16.042267,12.4816049 16.2988413,11.5663383 C16.3977582,11.2129741 16.4426448,10.0242779 16.482267,9.56531726 C16.5302015,9.01019909 17.1663728,1.9405539 17.1167758,1.56329771 C16.9801763,0.524147176 15.6366247,-0.102941679 14.459597,0.0138632061" id="Fill-3" fill="#F8C922" mask="url(#mask-2)"></path>
                <path d="M27.3392947,7.26461497 C26.8643829,7.3601826 26.2719899,7.95276092 25.867733,8.22442077 L24.46267,9.27065039 C23.5242065,9.96941497 22.5998741,10.6814528 21.6547607,11.3642895 L20.2798992,12.4057997 C19.7060705,12.8193362 19.203728,13.0423273 19.143602,13.7499408 C19.061864,14.7159408 19.8096977,15.8674718 20.6683627,15.9491762 C21.0011335,15.9810321 21.346927,15.757746 21.5957431,15.6323872 L24.8322922,14.0304495 C25.9187154,13.5234101 26.9874055,12.9385008 28.0879597,12.4137637 C28.5210327,12.2075854 29.3960453,11.8250199 29.6337783,11.5518852 C30.3807809,10.6929563 29.9416121,8.89752367 29.0092443,7.952171 C28.6714861,7.60972031 28.0765995,7.11654413 27.3392947,7.26461497" id="Fill-4" fill="#F8C922" mask="url(#mask-2)"></path>
                <path d="M2.20221662,8.32942718 C1.11717884,8.53059115 0.177052897,9.78919329 0.0296473552,11.0672629 C-0.177884131,12.8653502 1.01133501,12.998968 2.33937028,13.6841643 L5.57370277,15.2893466 C6.66289673,15.8134938 7.7518136,16.3830651 8.82770781,16.9072122 C9.98894207,17.4726541 11.2989673,15.5474382 10.7655919,14.3793893 C10.606272,14.0304495 10.4325441,13.9897447 10.1504786,13.7815017 L8.7531738,12.7276031 C8.52929471,12.5450217 8.28324937,12.3824977 8.03914358,12.1993264 C7.10649874,11.4987921 6.1802267,10.8174302 5.24758186,10.123975 L3.16062972,8.55094352 C2.92178841,8.36216795 2.58707809,8.25834138 2.20221662,8.32942718" id="Fill-5" fill="#F8C922" mask="url(#mask-2)"></path>
                <path d="M9.02748111,20.5349478 L5.77874055,22.1327561 C4.69813602,22.6692916 3.60783375,23.2019927 2.5186398,23.7450174 C1.9863728,24.0104831 1.45715365,24.2756538 0.913526448,24.5420043 C0.580755668,24.7051182 0.425869018,24.814844 0.260176322,25.0985973 C-0.741183879,26.8108507 1.36017632,29.884648 2.96944584,29.0926755 L9.95707809,23.8957429 C10.1393955,23.7550461 10.5624937,23.4848611 10.6547607,23.3506535 C11.3942821,22.2775823 10.1853904,20.1848281 9.02748111,20.5349478" id="Fill-6" fill="#F8C922" mask="url(#mask-2)"></path>
            </g>
        </g>
    </g>
</svg>