<?xml version="1.0" encoding="utf-8"?>
<!-- Generator: Adobe Illustrator 21.0.2, SVG Export Plug-In . SVG Version: 6.00 Build 0)  -->
<svg version="1.1" id="Layer_1" xmlns="http://www.w3.org/2000/svg" xmlns:xlink="http://www.w3.org/1999/xlink" x="0px" y="0px"
	 viewBox="0 0 420 541" style="enable-background:new 0 0 420 541;" xml:space="preserve">
<style type="text/css">
	.st0{fill:#57388B;}
	.st1{fill:#A4A5A5;}
	.st2{opacity:0.8;}
	.st3{fill:#FFC914;}
	.st4{fill:#FFFFFF;}
	.st5{fill:none;stroke:#57388B;stroke-width:2;}
	.st6{enable-background:new    ;}
</style>
<title>Macros_infographic_table mobile</title>
<desc>Created with Sketch.</desc>
<g>
	<path class="st0" d="M57.1,47.6c-0.4,0.5-1,0.9-1.8,1.2c-0.8,0.3-1.6,0.4-2.6,0.4c-1,0-1.8-0.2-2.6-0.6s-1.3-1.1-1.7-1.9
		c-0.4-0.8-0.6-1.8-0.6-2.9V43c0-1.1,0.2-2.1,0.6-2.9s0.9-1.5,1.7-1.9c0.7-0.4,1.6-0.7,2.5-0.7c1.3,0,2.4,0.3,3.2,1
		c0.8,0.6,1.2,1.6,1.4,2.8h-2.3c-0.1-0.7-0.3-1.1-0.7-1.4c-0.4-0.3-0.8-0.5-1.5-0.5c-0.8,0-1.4,0.3-1.8,0.9
		c-0.4,0.6-0.6,1.5-0.6,2.7v0.7c0,1.2,0.2,2.1,0.7,2.7s1.1,0.9,2,0.9c0.9,0,1.5-0.2,1.9-0.6v-2h-2.1V43h4.5V47.6z"/>
	<path class="st0" d="M63.2,49.2c-1.2,0-2.2-0.4-3-1.1c-0.8-0.8-1.2-1.8-1.2-3v-0.2c0-0.8,0.2-1.6,0.5-2.3s0.8-1.2,1.4-1.5
		s1.3-0.5,2.1-0.5c1.2,0,2.1,0.4,2.7,1.1s1,1.8,1,3.1v0.9h-5.4c0.1,0.6,0.3,1,0.7,1.3s0.8,0.5,1.4,0.5c0.9,0,1.5-0.3,2-0.9l1.1,1.2
		c-0.3,0.5-0.8,0.9-1.4,1.1S63.9,49.2,63.2,49.2z M63,42.2c-0.4,0-0.8,0.2-1.1,0.5c-0.3,0.3-0.5,0.7-0.5,1.3h3.1v-0.2
		c0-0.5-0.1-0.9-0.4-1.2C63.8,42.3,63.4,42.2,63,42.2z"/>
	<path class="st0" d="M70.5,40.5l0.1,1c0.6-0.8,1.4-1.1,2.4-1.1c0.9,0,1.6,0.3,2,0.8s0.7,1.3,0.7,2.4V49h-2.3v-5.4
		c0-0.5-0.1-0.8-0.3-1c-0.2-0.2-0.6-0.3-1-0.3c-0.6,0-1.1,0.3-1.4,0.8v6h-2.3v-8.5H70.5z"/>
	<path class="st0" d="M81.7,49.2c-1.2,0-2.2-0.4-3-1.1c-0.8-0.8-1.2-1.8-1.2-3v-0.2c0-0.8,0.2-1.6,0.5-2.3s0.8-1.2,1.4-1.5
		s1.3-0.5,2.1-0.5c1.2,0,2.1,0.4,2.7,1.1s1,1.8,1,3.1v0.9h-5.4c0.1,0.6,0.3,1,0.7,1.3s0.8,0.5,1.4,0.5c0.9,0,1.5-0.3,2-0.9l1.1,1.2
		c-0.3,0.5-0.8,0.9-1.4,1.1S82.4,49.2,81.7,49.2z M81.4,42.2c-0.4,0-0.8,0.2-1.1,0.5c-0.3,0.3-0.5,0.7-0.5,1.3h3.1v-0.2
		c0-0.5-0.1-0.9-0.4-1.2C82.3,42.3,81.9,42.2,81.4,42.2z"/>
	<path class="st0" d="M91.6,42.7c-0.3,0-0.6-0.1-0.8-0.1c-0.9,0-1.4,0.3-1.7,0.9V49h-2.3v-8.5H89l0.1,1c0.5-0.8,1.1-1.2,1.9-1.2
		c0.2,0,0.5,0,0.7,0.1L91.6,42.7z"/>
	<path class="st0" d="M97.8,49c-0.1-0.2-0.2-0.5-0.2-0.8c-0.5,0.6-1.3,0.9-2.1,0.9c-0.8,0-1.5-0.2-2.1-0.7c-0.5-0.5-0.8-1.1-0.8-1.8
		c0-0.9,0.3-1.6,1-2.1s1.6-0.7,2.9-0.7h1v-0.5c0-0.4-0.1-0.7-0.3-0.9c-0.2-0.2-0.5-0.4-0.9-0.4c-0.4,0-0.7,0.1-0.9,0.3
		c-0.2,0.2-0.3,0.4-0.3,0.8h-2.3c0-0.5,0.2-0.9,0.5-1.4c0.3-0.4,0.7-0.7,1.3-1c0.6-0.2,1.2-0.4,1.9-0.4c1,0,1.9,0.3,2.5,0.8
		c0.6,0.5,0.9,1.3,0.9,2.2V47c0,0.8,0.1,1.4,0.3,1.8V49H97.8z M95.9,47.4c0.3,0,0.6-0.1,0.9-0.2s0.5-0.3,0.6-0.6v-1.5h-0.8
		c-1.1,0-1.7,0.4-1.8,1.2l0,0.1c0,0.3,0.1,0.5,0.3,0.7C95.3,47.3,95.6,47.4,95.9,47.4z"/>
	<path class="st0" d="M104.3,49H102V37h2.3V49z"/>
	<path class="st0" d="M111.6,49v-6.8h-1.3v-1.7h1.3v-0.7c0-0.9,0.3-1.7,0.8-2.2c0.5-0.5,1.3-0.8,2.3-0.8c0.3,0,0.7,0.1,1.1,0.2
		l0,1.7c-0.2,0-0.4-0.1-0.7-0.1c-0.8,0-1.3,0.4-1.3,1.2v0.7h1.7v1.7h-1.7V49H111.6z"/>
	<path class="st0" d="M122.1,49c-0.1-0.2-0.2-0.5-0.2-0.8c-0.5,0.6-1.3,0.9-2.1,0.9c-0.8,0-1.5-0.2-2.1-0.7
		c-0.5-0.5-0.8-1.1-0.8-1.8c0-0.9,0.3-1.6,1-2.1s1.6-0.7,2.9-0.7h1v-0.5c0-0.4-0.1-0.7-0.3-0.9c-0.2-0.2-0.5-0.4-0.9-0.4
		c-0.4,0-0.7,0.1-0.9,0.3c-0.2,0.2-0.3,0.4-0.3,0.8H117c0-0.5,0.2-0.9,0.5-1.4c0.3-0.4,0.7-0.7,1.3-1c0.6-0.2,1.2-0.4,1.9-0.4
		c1,0,1.9,0.3,2.5,0.8c0.6,0.5,0.9,1.3,0.9,2.2V47c0,0.8,0.1,1.4,0.3,1.8V49H122.1z M120.2,47.4c0.3,0,0.6-0.1,0.9-0.2
		s0.5-0.3,0.6-0.6v-1.5h-0.8c-1.1,0-1.7,0.4-1.8,1.2l0,0.1c0,0.3,0.1,0.5,0.3,0.7C119.6,47.3,119.9,47.4,120.2,47.4z"/>
	<path class="st0" d="M129.7,47.3c0.4,0,0.8-0.1,1-0.3c0.3-0.2,0.4-0.5,0.4-0.9h2.1c0,0.6-0.2,1.1-0.5,1.6c-0.3,0.5-0.7,0.8-1.3,1.1
		c-0.5,0.3-1.1,0.4-1.8,0.4c-1.2,0-2.2-0.4-2.9-1.2c-0.7-0.8-1-1.8-1-3.2v-0.1c0-1.3,0.3-2.3,1-3.1c0.7-0.8,1.6-1.2,2.9-1.2
		c1.1,0,1.9,0.3,2.5,0.9c0.6,0.6,1,1.4,1,2.4h-2.1c0-0.4-0.1-0.8-0.4-1.1c-0.3-0.3-0.6-0.4-1-0.4c-0.5,0-0.9,0.2-1.2,0.6
		c-0.3,0.4-0.4,1-0.4,1.9v0.2c0,0.9,0.1,1.5,0.4,1.9S129.2,47.3,129.7,47.3z"/>
	<path class="st0" d="M137.7,38.5v2.1h1.4v1.7h-1.4v4.2c0,0.3,0.1,0.5,0.2,0.7c0.1,0.1,0.3,0.2,0.7,0.2c0.2,0,0.5,0,0.7-0.1V49
		c-0.4,0.1-0.9,0.2-1.4,0.2c-1.6,0-2.4-0.8-2.4-2.4v-4.6h-1.2v-1.7h1.2v-2.1H137.7z"/>
	<path class="st0" d="M140.2,44.7c0-0.8,0.2-1.6,0.5-2.2c0.3-0.7,0.8-1.2,1.4-1.5c0.6-0.4,1.3-0.5,2.1-0.5c1.1,0,2.1,0.3,2.8,1
		c0.7,0.7,1.1,1.6,1.2,2.8l0,0.6c0,1.3-0.4,2.3-1.1,3.1c-0.7,0.8-1.7,1.2-2.9,1.2s-2.2-0.4-2.9-1.2s-1.1-1.8-1.1-3.2V44.7z
		 M142.5,44.9c0,0.8,0.2,1.4,0.5,1.8c0.3,0.4,0.7,0.6,1.3,0.6c0.5,0,1-0.2,1.3-0.6c0.3-0.4,0.5-1.1,0.5-2c0-0.8-0.2-1.4-0.5-1.8
		c-0.3-0.4-0.7-0.6-1.3-0.6c-0.6,0-1,0.2-1.3,0.6C142.6,43.3,142.5,44,142.5,44.9z"/>
	<path class="st0" d="M154.8,42.7c-0.3,0-0.6-0.1-0.8-0.1c-0.9,0-1.4,0.3-1.7,0.9V49H150v-8.5h2.1l0.1,1c0.5-0.8,1.1-1.2,1.9-1.2
		c0.2,0,0.5,0,0.7,0.1L154.8,42.7z"/>
	<path class="st0" d="M160.9,46.7c0-0.3-0.1-0.5-0.4-0.7s-0.7-0.3-1.3-0.4c-2-0.4-3-1.3-3-2.6c0-0.8,0.3-1.4,0.9-1.9
		c0.6-0.5,1.4-0.8,2.4-0.8c1.1,0,1.9,0.3,2.6,0.8c0.6,0.5,1,1.2,1,2h-2.3c0-0.3-0.1-0.6-0.3-0.8c-0.2-0.2-0.5-0.3-1-0.3
		c-0.4,0-0.7,0.1-0.9,0.3c-0.2,0.2-0.3,0.4-0.3,0.7c0,0.2,0.1,0.5,0.4,0.6c0.2,0.2,0.6,0.3,1.2,0.4s1,0.2,1.4,0.4
		c1.2,0.4,1.8,1.2,1.8,2.3c0,0.8-0.3,1.4-1,1.9c-0.7,0.5-1.5,0.7-2.6,0.7c-0.7,0-1.3-0.1-1.9-0.4c-0.5-0.3-1-0.6-1.3-1
		s-0.5-0.9-0.5-1.4h2.1c0,0.4,0.2,0.7,0.4,0.9c0.3,0.2,0.6,0.3,1.1,0.3c0.4,0,0.8-0.1,1-0.2C160.8,47.1,160.9,46.9,160.9,46.7z"/>
</g>
<g>
	<path class="st1" d="M50.4,60l2.9,7.6l2.9-7.6h2.2v10h-1.7v-3.3l0.2-4.4L53.9,70h-1.2l-2.9-7.7l0.2,4.4V70h-1.7V60H50.4z"/>
	<path class="st1" d="M63.9,70.1c-1.1,0-1.9-0.3-2.6-1c-0.7-0.7-1-1.5-1-2.6v-0.2c0-0.7,0.1-1.4,0.4-2c0.3-0.6,0.7-1,1.2-1.4
		s1.1-0.5,1.7-0.5c1,0,1.8,0.3,2.3,1s0.8,1.6,0.8,2.7v0.7H62c0.1,0.6,0.3,1.1,0.6,1.4s0.8,0.5,1.4,0.5c0.8,0,1.4-0.3,1.9-0.9
		l0.9,0.9c-0.3,0.4-0.7,0.8-1.2,1C65,70,64.5,70.1,63.9,70.1z M63.7,63.8c-0.5,0-0.8,0.2-1.1,0.5S62.1,65,62,65.6h3.2v-0.1
		c0-0.6-0.2-1-0.4-1.3C64.5,63.9,64.1,63.8,63.7,63.8z"/>
	<path class="st1" d="M70.6,60.8v1.8h1.3v1.2h-1.3V68c0,0.3,0.1,0.5,0.2,0.6c0.1,0.1,0.3,0.2,0.6,0.2c0.2,0,0.4,0,0.6-0.1V70
		c-0.4,0.1-0.7,0.2-1.1,0.2c-1.3,0-1.9-0.7-1.9-2.1v-4.2h-1.2v-1.2h1.2v-1.8H70.6z"/>
	<path class="st1" d="M78,70c-0.1-0.1-0.1-0.4-0.2-0.7c-0.5,0.6-1.2,0.8-1.9,0.8c-0.7,0-1.3-0.2-1.8-0.6s-0.7-0.9-0.7-1.6
		c0-0.8,0.3-1.4,0.9-1.8c0.6-0.4,1.4-0.6,2.5-0.6h1V65c0-0.4-0.1-0.7-0.3-0.9c-0.2-0.2-0.5-0.3-1-0.3c-0.4,0-0.7,0.1-0.9,0.3
		c-0.2,0.2-0.4,0.4-0.4,0.7h-1.7c0-0.4,0.1-0.8,0.4-1.1c0.3-0.4,0.6-0.6,1.1-0.8s1-0.3,1.5-0.3c0.9,0,1.6,0.2,2.1,0.7
		c0.5,0.4,0.8,1,0.8,1.8v3.3c0,0.7,0.1,1.2,0.3,1.6V70H78z M76.1,68.8c0.3,0,0.6-0.1,0.9-0.2s0.5-0.4,0.7-0.6v-1.4h-0.9
		c-0.6,0-1.1,0.1-1.4,0.3S75,67.4,75,67.8c0,0.3,0.1,0.6,0.3,0.8C75.5,68.7,75.8,68.8,76.1,68.8z"/>
	<path class="st1" d="M88,66.4c0,1.1-0.3,2.1-0.8,2.7s-1.2,1-2.1,1c-0.9,0-1.5-0.3-2-0.9L83,70h-1.5V59.5h1.7v3.8
		c0.5-0.6,1.1-0.8,1.9-0.8c0.9,0,1.6,0.3,2.1,1S88,65.1,88,66.4L88,66.4z M86.3,66.2c0-0.8-0.1-1.4-0.4-1.8s-0.7-0.6-1.2-0.6
		c-0.7,0-1.2,0.3-1.5,0.9v3c0.3,0.6,0.8,1,1.5,1c0.5,0,0.9-0.2,1.2-0.6s0.4-1,0.4-1.8V66.2z"/>
	<path class="st1" d="M89.4,66.2c0-0.7,0.1-1.4,0.4-2c0.3-0.6,0.7-1,1.2-1.3c0.5-0.3,1.1-0.5,1.8-0.5c1,0,1.8,0.3,2.4,1s1,1.5,1,2.6
		l0,0.4c0,0.7-0.1,1.4-0.4,2s-0.7,1-1.2,1.3s-1.1,0.5-1.8,0.5c-1,0-1.9-0.3-2.5-1C89.8,68.4,89.4,67.5,89.4,66.2L89.4,66.2z
		 M91.1,66.4c0,0.8,0.2,1.4,0.5,1.8c0.3,0.4,0.8,0.6,1.3,0.6s1-0.2,1.3-0.7s0.5-1.1,0.5-1.9c0-0.7-0.2-1.3-0.5-1.8s-0.8-0.7-1.3-0.7
		c-0.5,0-1,0.2-1.3,0.6C91.3,64.9,91.1,65.5,91.1,66.4z"/>
	<path class="st1" d="M99.9,70h-1.7V59.5h1.7V70z"/>
	<path class="st1" d="M102.1,60.7c0-0.3,0.1-0.5,0.2-0.6s0.4-0.3,0.7-0.3s0.5,0.1,0.7,0.3s0.2,0.4,0.2,0.6c0,0.3-0.1,0.5-0.2,0.6
		c-0.2,0.2-0.4,0.3-0.7,0.3s-0.5-0.1-0.7-0.3C102.1,61.1,102.1,60.9,102.1,60.7z M103.8,70h-1.7v-7.4h1.7V70z"/>
	<path class="st1" d="M107.8,68.7h3.9V70h-6v-1.1l3.8-5h-3.7v-1.3h5.8v1.1L107.8,68.7z"/>
	<path class="st1" d="M117.8,70c-0.1-0.1-0.1-0.4-0.2-0.7c-0.5,0.6-1.2,0.8-1.9,0.8c-0.7,0-1.3-0.2-1.8-0.6s-0.7-0.9-0.7-1.6
		c0-0.8,0.3-1.4,0.9-1.8c0.6-0.4,1.4-0.6,2.5-0.6h1V65c0-0.4-0.1-0.7-0.3-0.9c-0.2-0.2-0.5-0.3-1-0.3c-0.4,0-0.7,0.1-0.9,0.3
		c-0.2,0.2-0.4,0.4-0.4,0.7h-1.7c0-0.4,0.1-0.8,0.4-1.1c0.3-0.4,0.6-0.6,1.1-0.8s1-0.3,1.5-0.3c0.9,0,1.6,0.2,2.1,0.7
		c0.5,0.4,0.8,1,0.8,1.8v3.3c0,0.7,0.1,1.2,0.3,1.6V70H117.8z M116,68.8c0.3,0,0.6-0.1,0.9-0.2s0.5-0.4,0.7-0.6v-1.4h-0.9
		c-0.6,0-1.1,0.1-1.4,0.3s-0.5,0.5-0.5,0.9c0,0.3,0.1,0.6,0.3,0.8C115.4,68.7,115.7,68.8,116,68.8z"/>
	<path class="st1" d="M127.9,66.4c0,1.1-0.3,2.1-0.8,2.7s-1.2,1-2.1,1c-0.9,0-1.5-0.3-2-0.9l-0.1,0.8h-1.5V59.5h1.7v3.8
		c0.5-0.6,1.1-0.8,1.9-0.8c0.9,0,1.6,0.3,2.1,1S127.9,65.1,127.9,66.4L127.9,66.4z M126.2,66.2c0-0.8-0.1-1.4-0.4-1.8
		s-0.7-0.6-1.2-0.6c-0.7,0-1.2,0.3-1.5,0.9v3c0.3,0.6,0.8,1,1.5,1c0.5,0,0.9-0.2,1.2-0.6s0.4-1,0.4-1.8V66.2z"/>
	<path class="st1" d="M131.4,70h-1.7V59.5h1.7V70z"/>
	<path class="st1" d="M136.8,70.1c-1.1,0-1.9-0.3-2.6-1c-0.7-0.7-1-1.5-1-2.6v-0.2c0-0.7,0.1-1.4,0.4-2c0.3-0.6,0.7-1,1.2-1.4
		s1.1-0.5,1.7-0.5c1,0,1.8,0.3,2.3,1s0.8,1.6,0.8,2.7v0.7H135c0.1,0.6,0.3,1.1,0.6,1.4s0.8,0.5,1.4,0.5c0.8,0,1.4-0.3,1.9-0.9
		l0.9,0.9c-0.3,0.4-0.7,0.8-1.2,1C138,70,137.5,70.1,136.8,70.1z M136.6,63.8c-0.5,0-0.8,0.2-1.1,0.5s-0.5,0.8-0.5,1.3h3.2v-0.1
		c0-0.6-0.2-1-0.4-1.3C137.5,63.9,137.1,63.8,136.6,63.8z"/>
	<path class="st1" d="M51.2,88.1c-1.1,0-1.9-0.3-2.6-1c-0.7-0.7-1-1.5-1-2.6v-0.2c0-0.7,0.1-1.4,0.4-2c0.3-0.6,0.7-1,1.2-1.4
		s1.1-0.5,1.7-0.5c1,0,1.8,0.3,2.3,1s0.8,1.6,0.8,2.7v0.7h-4.8c0.1,0.6,0.3,1.1,0.6,1.4s0.8,0.5,1.4,0.5c0.8,0,1.4-0.3,1.9-0.9
		l0.9,0.9c-0.3,0.4-0.7,0.8-1.2,1C52.4,88,51.9,88.1,51.2,88.1z M51,81.8c-0.5,0-0.8,0.2-1.1,0.5s-0.5,0.8-0.5,1.3h3.2v-0.1
		c0-0.6-0.2-1-0.4-1.3C51.9,81.9,51.5,81.8,51,81.8z"/>
	<path class="st1" d="M57.4,80.6l0,0.9c0.5-0.7,1.3-1,2.2-1c1.5,0,2.3,0.9,2.4,2.6V88h-1.7v-4.8c0-0.5-0.1-0.8-0.3-1
		c-0.2-0.2-0.5-0.3-1-0.3c-0.7,0-1.2,0.3-1.5,0.9V88h-1.7v-7.4H57.4z"/>
	<path class="st1" d="M67.3,88.1c-1.1,0-1.9-0.3-2.6-1c-0.7-0.7-1-1.5-1-2.6v-0.2c0-0.7,0.1-1.4,0.4-2c0.3-0.6,0.7-1,1.2-1.4
		s1.1-0.5,1.7-0.5c1,0,1.8,0.3,2.3,1s0.8,1.6,0.8,2.7v0.7h-4.8c0.1,0.6,0.3,1.1,0.6,1.4s0.8,0.5,1.4,0.5c0.8,0,1.4-0.3,1.9-0.9
		l0.9,0.9c-0.3,0.4-0.7,0.8-1.2,1C68.5,88,67.9,88.1,67.3,88.1z M67.1,81.8c-0.5,0-0.8,0.2-1.1,0.5s-0.5,0.8-0.5,1.3h3.2v-0.1
		c0-0.6-0.2-1-0.4-1.3C67.9,81.9,67.6,81.8,67.1,81.8z"/>
	<path class="st1" d="M75.8,82.1c-0.2,0-0.4-0.1-0.7-0.1c-0.8,0-1.3,0.3-1.5,0.9V88h-1.7v-7.4h1.6l0,0.8c0.4-0.6,1-1,1.7-1
		c0.2,0,0.4,0,0.6,0.1L75.8,82.1z"/>
	<path class="st1" d="M76.8,84.2c0-1.1,0.3-2.1,0.8-2.8c0.5-0.7,1.3-1,2.1-1c0.8,0,1.5,0.3,2,0.9l0.1-0.7h1.5v7.2
		c0,1-0.3,1.7-0.9,2.3S81,90.9,80,90.9c-0.5,0-1.1-0.1-1.6-0.3c-0.5-0.2-0.9-0.5-1.2-0.9l0.8-1c0.5,0.6,1.1,0.9,1.9,0.9
		c0.6,0,1-0.1,1.3-0.4c0.3-0.3,0.5-0.7,0.5-1.3v-0.5c-0.5,0.5-1.1,0.8-1.9,0.8c-0.9,0-1.6-0.3-2.1-1S76.8,85.5,76.8,84.2z
		 M78.5,84.4c0,0.7,0.2,1.3,0.5,1.8c0.3,0.4,0.7,0.6,1.3,0.6c0.7,0,1.2-0.3,1.5-0.9v-3.3c-0.3-0.6-0.8-0.8-1.5-0.8
		c-0.5,0-1,0.2-1.3,0.6S78.5,83.5,78.5,84.4z"/>
	<path class="st1" d="M88,85.6l1.5-5h1.8l-2.9,8.5C87.9,90.4,87.1,91,86,91c-0.2,0-0.5,0-0.8-0.1v-1.3l0.3,0c0.4,0,0.7-0.1,0.9-0.2
		c0.2-0.2,0.4-0.4,0.5-0.8l0.2-0.6l-2.6-7.4h1.8L88,85.6z"/>
	<path class="st1" d="M96.5,84c0-1.1,0.1-2.1,0.4-3c0.3-0.9,0.7-1.8,1.2-2.5c0.5-0.7,1.1-1.3,1.7-1.6l0.3,1
		c-0.6,0.5-1.2,1.2-1.6,2.2c-0.4,1-0.6,2.1-0.7,3.4l0,0.6c0,1.4,0.2,2.6,0.6,3.7c0.4,1.1,0.9,1.9,1.6,2.5l-0.3,0.9
		c-0.6-0.3-1.2-0.8-1.7-1.6c-0.5-0.8-1-1.6-1.2-2.5C96.6,86.1,96.5,85.1,96.5,84z"/>
	<path class="st1" d="M104.1,78l2.9,7.6l2.9-7.6h2.2v10h-1.7v-3.3l0.2-4.4l-2.9,7.7h-1.2l-2.9-7.7l0.2,4.4V88h-1.7V78H104.1z"/>
	<path class="st1" d="M120.3,83.6h-4.1v3h4.8V88h-6.5V78h6.5v1.4h-4.7v2.7h4.1V83.6z"/>
	<path class="st1" d="M125.9,84.1c0,1-0.1,2-0.4,2.9c-0.3,0.9-0.7,1.8-1.3,2.6c-0.6,0.8-1.2,1.3-1.8,1.6l-0.3-0.9
		c0.7-0.5,1.2-1.3,1.6-2.4c0.4-1.1,0.6-2.3,0.6-3.7v-0.2c0-1.3-0.2-2.4-0.5-3.5c-0.3-1-0.8-1.9-1.5-2.5l-0.2-0.2l0.3-0.9
		c0.6,0.3,1.1,0.8,1.7,1.5s1,1.5,1.3,2.4c0.3,0.9,0.5,1.8,0.5,2.8L125.9,84.1z"/>
</g>
<g>
	<g>
		<g id="Rectangle-Copy-3_1_" class="st2">
			<rect x="159.9" y="319" class="st0" width="100" height="180"/>
		</g>
		<g id="Rectangle-Copy-5_1_">
			<path class="st3" d="M159.9,309c0-2.8,2.2-5,5-5h90c2.8,0,5,2.2,5,5v8h-31h-69V309z"/>
		</g>
		<g id="path-3_2_">
			<path class="st0" d="M260.9,500h-102V309c0-3.3,2.7-6,6-6h90c3.3,0,6,2.7,6,6V500z M160.9,498h98V309c0-2.2-1.8-4-4-4h-90
				c-2.2,0-4,1.8-4,4V498z"/>
		</g>
		<g>
			<g>
				<path class="st0" d="M186.3,286.7h1.3v1.8h-1.3v2.5h-2.3v-2.5h-4.7l-0.1-1.4l4.7-7.5h2.3V286.7z M181.6,286.7h2.5v-4l-0.1,0.3
					L181.6,286.7z"/>
			</g>
			<g>
				<path class="st0" d="M197.5,286.4l-1.2,1.3v3.2h-2.3v-11.4h2.3v5.2l1-1.4l2.9-3.7h2.9l-4,5.1l4.2,6.3h-2.8L197.5,286.4z"/>
			</g>
			<g>
				<path class="st0" d="M207.7,289.3c0.4,0,0.8-0.1,1-0.3c0.3-0.2,0.4-0.5,0.4-0.9h2.1c0,0.6-0.2,1.1-0.5,1.6
					c-0.3,0.5-0.7,0.8-1.3,1.1c-0.5,0.3-1.1,0.4-1.8,0.4c-1.2,0-2.2-0.4-2.9-1.2c-0.7-0.8-1-1.8-1-3.2v-0.1c0-1.3,0.3-2.3,1-3.1
					c0.7-0.8,1.6-1.2,2.9-1.2c1.1,0,1.9,0.3,2.5,0.9c0.6,0.6,1,1.4,1,2.4h-2.1c0-0.4-0.1-0.8-0.4-1.1c-0.3-0.3-0.6-0.4-1-0.4
					c-0.5,0-0.9,0.2-1.2,0.6c-0.3,0.4-0.4,1-0.4,1.9v0.2c0,0.9,0.1,1.5,0.4,1.9S207.1,289.3,207.7,289.3z"/>
			</g>
			<g>
				<path class="st0" d="M217.8,291c-0.1-0.2-0.2-0.5-0.2-0.8c-0.5,0.6-1.3,0.9-2.1,0.9c-0.8,0-1.5-0.2-2.1-0.7s-0.8-1.1-0.8-1.8
					c0-0.9,0.3-1.6,1-2.1s1.6-0.7,2.9-0.7h1v-0.5c0-0.4-0.1-0.7-0.3-0.9s-0.5-0.4-0.9-0.4c-0.4,0-0.7,0.1-0.9,0.3s-0.3,0.4-0.3,0.8
					h-2.3c0-0.5,0.2-0.9,0.5-1.4s0.7-0.7,1.3-1s1.2-0.4,1.9-0.4c1,0,1.9,0.3,2.5,0.8s0.9,1.3,0.9,2.2v3.7c0,0.8,0.1,1.4,0.3,1.8v0.1
					H217.8z M216,289.4c0.3,0,0.6-0.1,0.9-0.2s0.5-0.3,0.6-0.6v-1.5h-0.8c-1.1,0-1.7,0.4-1.8,1.2l0,0.1c0,0.3,0.1,0.5,0.3,0.7
					S215.6,289.4,216,289.4z"/>
			</g>
			<g>
				<path class="st0" d="M224.3,291h-2.3v-12h2.3V291z"/>
			</g>
			<g>
				<path class="st0" d="M227.3,292h-1.7l4.2-12.4h1.7L227.3,292z"/>
			</g>
			<g>
				<path class="st0" d="M232.7,286.7c0-1.3,0.3-2.3,0.9-3.1s1.4-1.2,2.5-1.2c0.9,0,1.6,0.3,2.2,1l0.1-0.8h2v8.2
					c0,0.7-0.2,1.4-0.5,1.9s-0.8,1-1.4,1.2s-1.3,0.4-2.1,0.4c-0.6,0-1.2-0.1-1.8-0.4s-1-0.6-1.3-1l1-1.4c0.6,0.6,1.2,0.9,2,0.9
					c0.6,0,1.1-0.2,1.4-0.5s0.5-0.8,0.5-1.4v-0.5c-0.5,0.6-1.2,0.9-2.1,0.9c-1,0-1.8-0.4-2.5-1.2S232.7,288.1,232.7,286.7
					L232.7,286.7z M235,286.9c0,0.8,0.2,1.4,0.5,1.8s0.7,0.7,1.3,0.7c0.7,0,1.2-0.3,1.5-0.8V285c-0.3-0.5-0.8-0.8-1.5-0.8
					c-0.5,0-1,0.2-1.3,0.7C235.1,285.3,235,286,235,286.9z"/>
			</g>
		</g>
		<g>
			<path class="st4" d="M202.1,415.6h1.1c0.7,0,1.2-0.2,1.6-0.5s0.6-0.8,0.6-1.4c0-1.3-0.7-2-2-2c-0.6,0-1.1,0.2-1.5,0.5
				c-0.4,0.4-0.6,0.8-0.6,1.4h-1.4c0-0.9,0.3-1.6,1-2.2c0.7-0.6,1.5-0.9,2.5-0.9c1.1,0,1.9,0.3,2.5,0.9s0.9,1.4,0.9,2.4
				c0,0.5-0.2,1-0.5,1.4s-0.8,0.8-1.3,1c0.6,0.2,1.1,0.5,1.4,1c0.3,0.5,0.5,1,0.5,1.7c0,1-0.3,1.8-1,2.4c-0.7,0.6-1.5,0.9-2.6,0.9
				c-1.1,0-1.9-0.3-2.6-0.9c-0.7-0.6-1-1.3-1-2.3h1.5c0,0.6,0.2,1.1,0.6,1.4s0.9,0.5,1.6,0.5c0.7,0,1.2-0.2,1.6-0.5
				c0.4-0.4,0.6-0.9,0.6-1.6c0-0.7-0.2-1.2-0.6-1.5s-1-0.5-1.8-0.5h-1.1V415.6z"/>
		</g>
		<g>
			<path class="st4" d="M209.6,421.2c0-0.2,0.1-0.5,0.2-0.6s0.4-0.2,0.7-0.2s0.5,0.1,0.7,0.2c0.2,0.2,0.2,0.4,0.2,0.6
				c0,0.2-0.1,0.4-0.2,0.6c-0.2,0.2-0.4,0.2-0.7,0.2s-0.5-0.1-0.7-0.2S209.6,421.5,209.6,421.2z"/>
		</g>
		<g>
			<path class="st4" d="M221,413.6c0,0.6-0.2,1.1-0.4,1.5c-0.3,0.4-0.7,0.8-1.2,1c0.6,0.3,1.1,0.6,1.4,1.1c0.3,0.5,0.5,1,0.5,1.7
				c0,1-0.3,1.8-1,2.4s-1.5,0.9-2.6,0.9c-1.1,0-2-0.3-2.6-0.9c-0.7-0.6-1-1.4-1-2.3c0-0.6,0.2-1.2,0.5-1.7s0.8-0.9,1.4-1.1
				c-0.5-0.2-0.9-0.6-1.2-1c-0.3-0.4-0.4-0.9-0.4-1.5c0-1,0.3-1.7,0.9-2.3c0.6-0.6,1.4-0.8,2.4-0.8c1,0,1.8,0.3,2.4,0.8
				S221,412.6,221,413.6z M219.8,418.9c0-0.6-0.2-1.2-0.6-1.6c-0.4-0.4-0.9-0.6-1.6-0.6c-0.7,0-1.2,0.2-1.6,0.6
				c-0.4,0.4-0.6,0.9-0.6,1.6s0.2,1.2,0.6,1.5s0.9,0.6,1.6,0.6c0.7,0,1.2-0.2,1.6-0.6C219.6,420,219.8,419.5,219.8,418.9z
				 M217.6,411.7c-0.6,0-1,0.2-1.4,0.5s-0.5,0.8-0.5,1.4c0,0.6,0.2,1,0.5,1.4c0.3,0.4,0.8,0.5,1.4,0.5s1-0.2,1.4-0.5
				c0.3-0.4,0.5-0.8,0.5-1.4s-0.2-1-0.5-1.4S218.2,411.7,217.6,411.7z"/>
		</g>
		<g>
			<g>
				<path class="st0" d="M160.3,533.2c-1.8,0-3.3-0.6-4.5-1.7c-1.2-1.1-1.7-2.6-1.7-4.5s0.6-3.4,1.7-4.5c1.2-1.1,2.7-1.7,4.5-1.7
					c1.5,0,2.8,0.4,3.9,1.2c1.1,0.8,1.7,2,2,3.4l-3.2,0.3c-0.3-1.5-1.2-2.2-2.7-2.2c-1.9,0-3,1.5-3,3.4c0,2,1.1,3.4,3,3.4
					c1.5,0,2.4-0.9,2.7-2.2l3.2,0.3C165.6,531.3,163.4,533.2,160.3,533.2z"/>
			</g>
			<g>
				<path class="st0" d="M170.9,527.6l-2.9-0.1c0-0.8,0.3-1.5,1-2.1c0.7-0.6,1.6-0.9,2.6-0.9c2.3,0,3.6,1.1,3.6,3.4v5.1h-2.7v-0.6
					c-0.5,0.5-1.1,0.8-2,0.8c-1.7,0-2.8-0.8-2.8-2.5c0-1.6,1.2-2.5,3.6-2.6l0.9,0v-0.4c0-0.5-0.2-0.8-0.7-0.8
					C171.3,526.9,170.9,527.2,170.9,527.6z M172.4,530.2v-0.4l-0.7,0c-0.6,0-0.9,0.2-0.9,0.6c0,0.4,0.2,0.6,0.7,0.6
					C171.9,531,172.4,530.7,172.4,530.2z"/>
			</g>
			<g>
				<path class="st0" d="M180.6,529.1v3.9h-2.9v-8.3h2.8v0.7c0.5-0.5,1.2-0.8,2.2-0.8v2.8C181.5,527.4,180.6,528,180.6,529.1z"/>
			</g>
			<g>
				<path class="st0" d="M189.5,533.2c-0.9,0-1.6-0.2-2.2-0.7v0.5h-2.8v-12.4h2.9v4.5c0.5-0.4,1.2-0.6,2-0.6c2.5,0,4,1.9,4,4.4
					C193.5,531.3,191.9,533.2,189.5,533.2z M189,527c-0.9,0-1.5,0.7-1.5,1.7v0.3c0,1,0.6,1.7,1.5,1.7c1,0,1.6-0.8,1.6-1.8
					C190.5,527.8,190,527,189,527z"/>
			</g>
			<g>
				<path class="st0" d="M199.7,524.5c2.6,0,4.5,1.8,4.5,4.4c0,2.6-1.9,4.3-4.5,4.3c-2.6,0-4.5-1.7-4.5-4.3
					C195.2,526.2,197.1,524.5,199.7,524.5z M199.7,527c-1,0-1.6,0.8-1.6,1.9c0,1.1,0.5,1.8,1.6,1.8c1,0,1.6-0.8,1.6-1.8
					C201.3,527.8,200.7,527,199.7,527z"/>
			</g>
			<g>
				<path class="st0" d="M209.2,528.5v4.5h-2.9v-12.4h2.9v4.6c0.5-0.4,1.1-0.6,1.9-0.6c2,0,3.2,1.3,3.2,3.3v5.2h-2.9v-4.5
					c0-0.9-0.4-1.3-1.1-1.3C209.6,527.2,209.2,527.7,209.2,528.5z"/>
			</g>
			<g>
				<path class="st0" d="M216.5,537.1l2.2-5l-3.2-7.4h3.2l1.6,4.2l1.5-4.2h3.2l-5.4,12.4H216.5z"/>
			</g>
			<g>
				<path class="st0" d="M229.7,524.5c0.9,0,1.5,0.2,2,0.6v-4.5h2.9V533h-2.8v-0.5c-0.5,0.5-1.3,0.7-2.2,0.7c-2.4,0-4-1.9-4-4.3
					C225.7,526.3,227.2,524.5,229.7,524.5z M230.2,527c-1,0-1.6,0.8-1.6,1.9c0,1.1,0.5,1.8,1.6,1.8c0.9,0,1.5-0.7,1.5-1.7v-0.3
					C231.7,527.7,231.1,527,230.2,527z"/>
			</g>
			<g>
				<path class="st0" d="M240,529.1v3.9h-2.9v-8.3h2.8v0.7c0.5-0.5,1.2-0.8,2.2-0.8v2.8C240.9,527.4,240,528,240,529.1z"/>
			</g>
			<g>
				<path class="st0" d="M246.7,527.6l-2.9-0.1c0-0.8,0.3-1.5,1-2.1c0.7-0.6,1.6-0.9,2.6-0.9c2.3,0,3.6,1.1,3.6,3.4v5.1h-2.7v-0.6
					c-0.5,0.5-1.1,0.8-2,0.8c-1.7,0-2.8-0.8-2.8-2.5c0-1.6,1.2-2.5,3.6-2.6l0.9,0v-0.4c0-0.5-0.2-0.8-0.7-0.8
					C247,526.9,246.7,527.2,246.7,527.6z M248.1,530.2v-0.4l-0.7,0c-0.6,0-0.9,0.2-0.9,0.6c0,0.4,0.2,0.6,0.7,0.6
					C247.6,531,248.1,530.7,248.1,530.2z"/>
			</g>
			<g>
				<path class="st0" d="M258.1,530.6c0.2,0,0.5,0,0.7-0.1v2.6c-0.5,0.1-1,0.1-1.4,0.1c-2,0-3.3-0.9-3.3-2.9l0-3.1h-1.5v-2.5h1.5
					l0-2.7h2.9l0,2.7h1.8v2.5H257l0,2.3C257,530.2,257.4,530.6,258.1,530.6z"/>
			</g>
			<g>
				<path class="st0" d="M268.8,528.7v0.9h-5.3c0,0.9,0.4,1.3,1.2,1.3c0.6,0,0.9-0.2,1.1-0.6l2.9,0.1c-0.3,1.7-2,2.7-3.9,2.7
					c-2.6,0-4.4-1.7-4.4-4.3c0-2.6,1.7-4.4,4.3-4.4C267.2,524.5,268.8,526.1,268.8,528.7z M263.5,527.9h2.4c0-0.9-0.4-1.3-1.2-1.3
					C263.9,526.6,263.5,527.2,263.5,527.9z"/>
			</g>
		</g>
		<g id="Line-Copy-7_1_">
			<rect x="159.9" y="317" class="st0" width="100" height="2"/>
		</g>
	</g>
	<g>
		<g id="Rectangle-Copy-2_1_" class="st2">
			<rect x="289.1" y="73" class="st0" width="100" height="426"/>
		</g>
		<g id="Rectangle-Copy-6_1_">
			<path class="st3" d="M294.2,58h89.9c2.8,0,5.1,2.3,5.1,5.1V73h-100v-9.9C289.1,60.3,291.4,58,294.2,58z"/>
		</g>
		<g id="path-5_2_">
			<path class="st0" d="M390.1,500h-102V63c0-3.3,2.7-6,6-6h90c3.3,0,6,2.7,6,6V500z M290.1,498h98V63c0-2.2-1.8-4-4-4h-90
				c-2.2,0-4,1.8-4,4V498z"/>
		</g>
		<g>
			<g>
				<path class="st0" d="M314.2,42.5c-0.6,0.6-1.3,0.9-2.1,0.9c-1,0-1.8-0.3-2.4-1c-0.6-0.7-0.9-1.6-0.9-2.8c0-0.7,0.2-1.4,0.5-2.1
					c0.3-0.6,0.8-1.1,1.4-1.5c0.6-0.3,1.2-0.5,2-0.5c0.8,0,1.4,0.2,2,0.6c0.6,0.4,1,0.9,1.4,1.6c0.3,0.7,0.5,1.5,0.5,2.4v0.8
					c0,1.9-0.5,3.4-1.4,4.5c-0.9,1.1-2.3,1.7-4,1.7l-0.6,0v-1.9l0.5,0C313,45.1,314.1,44.2,314.2,42.5z M312.7,41.6
					c0.4,0,0.7-0.1,0.9-0.3c0.3-0.2,0.5-0.4,0.6-0.7v-0.9c0-0.8-0.1-1.4-0.4-1.8c-0.3-0.4-0.7-0.6-1.2-0.6c-0.5,0-0.8,0.2-1.1,0.6
					c-0.3,0.4-0.4,0.9-0.4,1.6c0,0.6,0.1,1.1,0.4,1.5C311.8,41.4,312.2,41.6,312.7,41.6z"/>
			</g>
			<g>
				<path class="st0" d="M326.8,42.4l-1.2,1.3V47h-2.3V35.6h2.3v5.2l1-1.4l2.9-3.7h2.9l-4,5.1l4.2,6.3h-2.8L326.8,42.4z"/>
			</g>
			<g>
				<path class="st0" d="M337,45.3c0.4,0,0.8-0.1,1-0.3c0.3-0.2,0.4-0.5,0.4-0.9h2.1c0,0.6-0.2,1.1-0.5,1.6
					c-0.3,0.5-0.7,0.8-1.3,1.1c-0.5,0.3-1.1,0.4-1.8,0.4c-1.2,0-2.2-0.4-2.9-1.2c-0.7-0.8-1-1.8-1-3.2v-0.1c0-1.3,0.3-2.3,1-3.1
					c0.7-0.8,1.6-1.2,2.9-1.2c1.1,0,1.9,0.3,2.5,0.9c0.6,0.6,1,1.4,1,2.4h-2.1c0-0.4-0.1-0.8-0.4-1.1c-0.3-0.3-0.6-0.4-1-0.4
					c-0.5,0-0.9,0.2-1.2,0.6c-0.3,0.4-0.4,1-0.4,1.9v0.2c0,0.9,0.1,1.5,0.4,1.9S336.4,45.3,337,45.3z"/>
			</g>
			<g>
				<path class="st0" d="M347.1,47c-0.1-0.2-0.2-0.5-0.2-0.8c-0.5,0.6-1.3,0.9-2.1,0.9c-0.8,0-1.5-0.2-2.1-0.7s-0.8-1.1-0.8-1.8
					c0-0.9,0.3-1.6,1-2.1s1.6-0.7,2.9-0.7h1v-0.5c0-0.4-0.1-0.7-0.3-0.9s-0.5-0.4-0.9-0.4c-0.4,0-0.7,0.1-0.9,0.3s-0.3,0.4-0.3,0.8
					h-2.3c0-0.5,0.2-0.9,0.5-1.4s0.7-0.7,1.3-1s1.2-0.4,1.9-0.4c1,0,1.9,0.3,2.5,0.8s0.9,1.3,0.9,2.2V45c0,0.8,0.1,1.4,0.3,1.8V47
					H347.1z M345.3,45.4c0.3,0,0.6-0.1,0.9-0.2s0.5-0.3,0.6-0.6v-1.5H346c-1.1,0-1.7,0.4-1.8,1.2l0,0.1c0,0.3,0.1,0.5,0.3,0.7
					S344.9,45.4,345.3,45.4z"/>
			</g>
			<g>
				<path class="st0" d="M353.6,47h-2.3V35h2.3V47z"/>
			</g>
			<g>
				<path class="st0" d="M356.6,48h-1.7l4.2-12.4h1.7L356.6,48z"/>
			</g>
			<g>
				<path class="st0" d="M362,42.7c0-1.3,0.3-2.3,0.9-3.1s1.4-1.2,2.5-1.2c0.9,0,1.6,0.3,2.2,1l0.1-0.8h2v8.2c0,0.7-0.2,1.4-0.5,1.9
					s-0.8,1-1.4,1.2s-1.3,0.4-2.1,0.4c-0.6,0-1.2-0.1-1.8-0.4s-1-0.6-1.3-1l1-1.4c0.6,0.6,1.2,0.9,2,0.9c0.6,0,1.1-0.2,1.4-0.5
					s0.5-0.8,0.5-1.4v-0.5c-0.5,0.6-1.2,0.9-2.1,0.9c-1,0-1.8-0.4-2.5-1.2S362,44.1,362,42.7L362,42.7z M364.2,42.9
					c0,0.8,0.2,1.4,0.5,1.8s0.7,0.7,1.3,0.7c0.7,0,1.2-0.3,1.5-0.8V41c-0.3-0.5-0.8-0.8-1.5-0.8c-0.5,0-1,0.2-1.3,0.7
					C364.4,41.3,364.2,42,364.2,42.9z"/>
			</g>
		</g>
		<g>
			<path class="st4" d="M336.2,259.6c0,0.6-0.1,1.1-0.4,1.5s-0.7,0.8-1.2,1c0.6,0.3,1.1,0.6,1.4,1.1s0.5,1,0.5,1.7
				c0,1-0.3,1.8-1,2.4s-1.5,0.9-2.6,0.9c-1.1,0-2-0.3-2.6-0.9s-1-1.4-1-2.3c0-0.6,0.2-1.2,0.5-1.7s0.8-0.9,1.4-1.1
				c-0.5-0.2-0.9-0.6-1.2-1s-0.4-0.9-0.4-1.5c0-1,0.3-1.7,0.9-2.3s1.4-0.8,2.4-0.8c1,0,1.8,0.3,2.4,0.8S336.2,258.6,336.2,259.6z
				 M335,264.9c0-0.6-0.2-1.2-0.6-1.6s-0.9-0.6-1.6-0.6s-1.2,0.2-1.6,0.6s-0.6,0.9-0.6,1.6s0.2,1.2,0.6,1.5s0.9,0.6,1.6,0.6
				c0.7,0,1.2-0.2,1.6-0.6S335,265.5,335,264.9z M332.9,257.7c-0.6,0-1,0.2-1.4,0.5s-0.5,0.8-0.5,1.4c0,0.6,0.2,1,0.5,1.4
				s0.8,0.5,1.4,0.5s1-0.2,1.4-0.5s0.5-0.8,0.5-1.4s-0.2-1-0.5-1.4S333.4,257.7,332.9,257.7z"/>
		</g>
		<g>
			<path class="st4" d="M338.9,267.2c0-0.2,0.1-0.5,0.2-0.6s0.4-0.2,0.7-0.2s0.5,0.1,0.7,0.2c0.2,0.2,0.2,0.4,0.2,0.6
				c0,0.2-0.1,0.4-0.2,0.6c-0.2,0.2-0.4,0.2-0.7,0.2s-0.5-0.1-0.7-0.2S338.9,267.5,338.9,267.2z"/>
		</g>
		<g>
			<path class="st4" d="M350.7,257.4L346,268h-1.5l4.7-10.2H343v-1.2h7.7V257.4z"/>
		</g>
		<g>
			<g>
				<path class="st0" d="M331.3,523.8v1.7h3.8v2.7h-3.8v4.8h-3.1v-12h7.8v2.7H331.3z"/>
			</g>
			<g>
				<path class="st0" d="M340.2,527.6l-2.9-0.1c0-0.8,0.3-1.5,1-2.1c0.7-0.6,1.6-0.9,2.6-0.9c2.3,0,3.6,1.1,3.6,3.4v5.1h-2.7v-0.6
					c-0.5,0.5-1.1,0.8-2,0.8c-1.7,0-2.8-0.8-2.8-2.5c0-1.6,1.2-2.5,3.7-2.6l0.9,0v-0.4c0-0.5-0.2-0.8-0.7-0.8
					C340.6,526.9,340.2,527.2,340.2,527.6z M341.7,530.2v-0.4l-0.7,0c-0.6,0-0.9,0.2-0.9,0.6c0,0.4,0.2,0.6,0.7,0.6
					C341.2,531,341.7,530.7,341.7,530.2z"/>
			</g>
			<g>
				<path class="st0" d="M351.6,530.6c0.2,0,0.5,0,0.7-0.1v2.6c-0.5,0.1-1,0.1-1.4,0.1c-2,0-3.3-0.9-3.3-2.9l0-3.1h-1.5v-2.5h1.5
					l0-2.7h2.9l0,2.7h1.8v2.5h-1.8l0,2.3C350.5,530.2,351,530.6,351.6,530.6z"/>
			</g>
		</g>
		<g id="Line-Copy-3_1_">
			<rect x="289.1" y="73" class="st0" width="100" height="2"/>
		</g>
	</g>
	<g>
		<g id="Rectangle_5_" class="st2">
			<rect x="28.9" y="344" class="st0" width="100" height="155"/>
		</g>
		<g id="Rectangle_3_">
			<rect x="28.9" y="304" class="st3" width="100" height="40"/>
		</g>
		<g id="path-1_2_">
			<path class="st0" d="M129.9,500h-102V309c0-3.3,2.7-6,6-6h90c3.3,0,6,2.7,6,6V500z M29.9,498h98V309c0-2.2-1.8-4-4-4h-90
				c-2.2,0-4,1.8-4,4V498z"/>
		</g>
		<g>
			<path class="st4" d="M71.1,415.6h1.1c0.7,0,1.2-0.2,1.6-0.5s0.6-0.8,0.6-1.4c0-1.3-0.7-2-2-2c-0.6,0-1.1,0.2-1.5,0.5
				c-0.4,0.4-0.6,0.8-0.6,1.4h-1.4c0-0.9,0.3-1.6,1-2.2c0.7-0.6,1.5-0.9,2.5-0.9c1.1,0,1.9,0.3,2.5,0.9s0.9,1.4,0.9,2.4
				c0,0.5-0.2,1-0.5,1.4s-0.8,0.8-1.3,1c0.6,0.2,1.1,0.5,1.4,1c0.3,0.5,0.5,1,0.5,1.7c0,1-0.3,1.8-1,2.4c-0.7,0.6-1.5,0.9-2.6,0.9
				c-1.1,0-1.9-0.3-2.6-0.9c-0.7-0.6-1-1.3-1-2.3h1.5c0,0.6,0.2,1.1,0.6,1.4s0.9,0.5,1.6,0.5c0.7,0,1.2-0.2,1.6-0.5
				c0.4-0.4,0.6-0.9,0.6-1.6c0-0.7-0.2-1.2-0.6-1.5s-1-0.5-1.8-0.5h-1.1V415.6z"/>
		</g>
		<g>
			<path class="st4" d="M78.6,421.2c0-0.2,0.1-0.5,0.2-0.6s0.4-0.2,0.7-0.2s0.5,0.1,0.7,0.2c0.2,0.2,0.2,0.4,0.2,0.6
				c0,0.2-0.1,0.4-0.2,0.6c-0.2,0.2-0.4,0.2-0.7,0.2s-0.5-0.1-0.7-0.2S78.6,421.5,78.6,421.2z"/>
		</g>
		<g>
			<path class="st4" d="M90.6,422h-7.5v-1l3.9-4.4c0.6-0.7,1-1.2,1.2-1.6c0.2-0.4,0.3-0.8,0.3-1.3c0-0.6-0.2-1.1-0.5-1.5
				s-0.8-0.6-1.4-0.6c-0.7,0-1.3,0.2-1.7,0.6s-0.6,1-0.6,1.7h-1.4c0-1,0.3-1.9,1-2.5c0.7-0.6,1.6-1,2.7-1c1.1,0,1.9,0.3,2.5,0.8
				c0.6,0.6,0.9,1.3,0.9,2.2c0,1.1-0.7,2.5-2.1,4l-3,3.3h5.7V422z"/>
		</g>
		<g>
			<g>
				<path class="st0" d="M55.8,529h-2.4v4h-3.1v-12h5.5c2.4,0,4,1.5,4,4C59.8,527.5,58.3,529,55.8,529z M55.4,523.8h-2v2.5h2
					c0.8,0,1.2-0.5,1.2-1.3C56.7,524.3,56.2,523.8,55.4,523.8z"/>
			</g>
			<g>
				<path class="st0" d="M64.5,529.1v3.9h-2.9v-8.3h2.8v0.7c0.5-0.5,1.2-0.8,2.2-0.8v2.8C65.4,527.4,64.5,528,64.5,529.1z"/>
			</g>
			<g>
				<path class="st0" d="M72.6,524.5c2.6,0,4.5,1.8,4.5,4.4c0,2.6-1.9,4.3-4.5,4.3c-2.6,0-4.5-1.7-4.5-4.3
					C68,526.2,70,524.5,72.6,524.5z M72.6,527c-1,0-1.6,0.8-1.6,1.9c0,1.1,0.5,1.8,1.6,1.8c1,0,1.6-0.8,1.6-1.8
					C74.1,527.8,73.6,527,72.6,527z"/>
			</g>
			<g>
				<path class="st0" d="M83.8,530.6c0.2,0,0.5,0,0.7-0.1v2.6c-0.5,0.1-1,0.1-1.4,0.1c-2,0-3.3-0.9-3.3-2.9l0-3.1h-1.5v-2.5h1.5
					l0-2.7h2.9l0,2.7h1.8v2.5h-1.8l0,2.3C82.7,530.2,83.2,530.6,83.8,530.6z"/>
			</g>
			<g>
				<path class="st0" d="M94.5,528.7v0.9h-5.3c0,0.9,0.4,1.3,1.2,1.3c0.6,0,0.9-0.2,1.1-0.6l2.9,0.1c-0.3,1.7-2,2.7-3.9,2.7
					c-2.6,0-4.4-1.7-4.4-4.3c0-2.6,1.7-4.4,4.3-4.4C93,524.5,94.5,526.1,94.5,528.7z M89.2,527.9h2.4c0-0.9-0.4-1.3-1.2-1.3
					C89.7,526.6,89.3,527.2,89.2,527.9z"/>
			</g>
			<g>
				<path class="st0" d="M98,520.4c0.9,0,1.7,0.8,1.7,1.7c0,0.9-0.8,1.7-1.7,1.7c-0.9,0-1.7-0.8-1.7-1.7
					C96.4,521.2,97.1,520.4,98,520.4z M96.6,533v-8.3h2.9v8.3H96.6z"/>
			</g>
			<g>
				<path class="st0" d="M104.9,528.5v4.5H102v-8.3h2.8v0.6c0.4-0.5,1.1-0.8,2-0.8c2,0,3.2,1.3,3.2,3.3v5.2h-2.9v-4.5
					c0-0.9-0.4-1.3-1.1-1.3C105.3,527.2,104.9,527.7,104.9,528.5z"/>
			</g>
		</g>
		<g id="Line_2_">
			<rect x="28.9" y="344" class="st0" width="100" height="2"/>
		</g>
		<g>
			<g>
				<path class="st0" d="M55.3,286.7h1.3v1.8h-1.3v2.5h-2.3v-2.5h-4.7l-0.1-1.4l4.7-7.5h2.3V286.7z M50.6,286.7h2.5v-4l-0.1,0.3
					L50.6,286.7z"/>
			</g>
			<g>
				<path class="st0" d="M66.5,286.4l-1.2,1.3v3.2h-2.3v-11.4h2.3v5.2l1-1.4l2.9-3.7h2.9l-4,5.1l4.2,6.3h-2.8L66.5,286.4z"/>
			</g>
			<g>
				<path class="st0" d="M76.7,289.3c0.4,0,0.8-0.1,1-0.3c0.3-0.2,0.4-0.5,0.4-0.9h2.1c0,0.6-0.2,1.1-0.5,1.6
					c-0.3,0.5-0.7,0.8-1.3,1.1c-0.5,0.3-1.1,0.4-1.8,0.4c-1.2,0-2.2-0.4-2.9-1.2c-0.7-0.8-1-1.8-1-3.2v-0.1c0-1.3,0.3-2.3,1-3.1
					c0.7-0.8,1.6-1.2,2.9-1.2c1.1,0,1.9,0.3,2.5,0.9c0.6,0.6,1,1.4,1,2.4h-2.1c0-0.4-0.1-0.8-0.4-1.1c-0.3-0.3-0.6-0.4-1-0.4
					c-0.5,0-0.9,0.2-1.2,0.6c-0.3,0.4-0.4,1-0.4,1.9v0.2c0,0.9,0.1,1.5,0.4,1.9S76.1,289.3,76.7,289.3z"/>
			</g>
			<g>
				<path class="st0" d="M86.8,291c-0.1-0.2-0.2-0.5-0.2-0.8c-0.5,0.6-1.3,0.9-2.1,0.9c-0.8,0-1.5-0.2-2.1-0.7
					c-0.5-0.5-0.8-1.1-0.8-1.8c0-0.9,0.3-1.6,1-2.1s1.6-0.7,2.9-0.7h1v-0.5c0-0.4-0.1-0.7-0.3-0.9c-0.2-0.2-0.5-0.4-0.9-0.4
					c-0.4,0-0.7,0.1-0.9,0.3c-0.2,0.2-0.3,0.4-0.3,0.8h-2.3c0-0.5,0.2-0.9,0.5-1.4c0.3-0.4,0.7-0.7,1.3-1c0.6-0.2,1.2-0.4,1.9-0.4
					c1,0,1.9,0.3,2.5,0.8c0.6,0.5,0.9,1.3,0.9,2.2v3.7c0,0.8,0.1,1.4,0.3,1.8v0.1H86.8z M85,289.4c0.3,0,0.6-0.1,0.9-0.2
					s0.5-0.3,0.6-0.6v-1.5h-0.8c-1.1,0-1.7,0.4-1.8,1.2l0,0.1c0,0.3,0.1,0.5,0.3,0.7C84.4,289.3,84.6,289.4,85,289.4z"/>
			</g>
			<g>
				<path class="st0" d="M93.3,291h-2.3v-12h2.3V291z"/>
			</g>
			<g>
				<path class="st0" d="M96.3,292h-1.7l4.2-12.4h1.7L96.3,292z"/>
			</g>
			<g>
				<path class="st0" d="M101.7,286.7c0-1.3,0.3-2.3,0.9-3.1s1.4-1.2,2.5-1.2c0.9,0,1.6,0.3,2.2,1l0.1-0.8h2v8.2
					c0,0.7-0.2,1.4-0.5,1.9s-0.8,1-1.4,1.2s-1.3,0.4-2.1,0.4c-0.6,0-1.2-0.1-1.8-0.4c-0.6-0.2-1-0.6-1.3-1l1-1.4
					c0.6,0.6,1.2,0.9,2,0.9c0.6,0,1.1-0.2,1.4-0.5c0.3-0.3,0.5-0.8,0.5-1.4v-0.5c-0.5,0.6-1.2,0.9-2.1,0.9c-1,0-1.8-0.4-2.5-1.2
					C102,289.2,101.7,288.1,101.7,286.7L101.7,286.7z M104,286.9c0,0.8,0.2,1.4,0.5,1.8c0.3,0.4,0.7,0.7,1.3,0.7
					c0.7,0,1.2-0.3,1.5-0.8V285c-0.3-0.5-0.8-0.8-1.5-0.8c-0.5,0-1,0.2-1.3,0.7C104.1,285.3,104,286,104,286.9z"/>
			</g>
		</g>
	</g>
</g>
<path id="Line" class="st5" d="M9,499h400"/>
<g id="Macros_infographic_table-mobile">
	<g class="st6">
		<g>
			<path class="st1" d="M413,466.1v1.7l-7.1,4.4h7.1v1.7h-10v-1.7l7.1-4.5H403v-1.7H413z"/>
		</g>
		<g>
			<path class="st1" d="M413.1,460.6c0,1.1-0.3,1.9-1,2.6c-0.7,0.7-1.5,1-2.6,1h-0.2c-0.7,0-1.4-0.1-2-0.4c-0.6-0.3-1-0.7-1.4-1.2
				s-0.5-1.1-0.5-1.7c0-1,0.3-1.8,1-2.3c0.6-0.5,1.6-0.8,2.7-0.8h0.7v4.8c0.6,0,1.1-0.3,1.4-0.6c0.4-0.4,0.5-0.8,0.5-1.3
				c0-0.8-0.3-1.4-0.9-1.9l0.9-0.9c0.4,0.3,0.8,0.7,1,1.2C413,459.4,413.1,460,413.1,460.6z M406.8,460.8c0,0.5,0.2,0.8,0.5,1.1
				c0.3,0.3,0.8,0.5,1.3,0.5v-3.2h-0.1c-0.6,0-1,0.2-1.3,0.4C406.9,460,406.8,460.3,406.8,460.8z"/>
		</g>
		<g>
			<path class="st1" d="M403.8,453.9h1.8v-1.3h1.2v1.3h4.1c0.3,0,0.5-0.1,0.6-0.2c0.1-0.1,0.2-0.3,0.2-0.6c0-0.2,0-0.4-0.1-0.6h1.3
				c0.1,0.4,0.2,0.7,0.2,1.1c0,1.3-0.7,1.9-2.1,1.9h-4.2v1.2h-1.2v-1.2h-1.8V453.9z"/>
		</g>
		<g>
			<path class="st1" d="M405.6,445.5l0.8,0c-0.6-0.5-0.9-1.2-0.9-2.1c0-1,0.4-1.7,1.1-2c-0.8-0.5-1.1-1.3-1.1-2.3
				c0-0.8,0.2-1.4,0.7-1.8s1.1-0.6,2-0.6h4.9v1.7h-4.8c-0.5,0-0.8,0.1-1,0.3s-0.3,0.5-0.3,1c0,0.4,0.1,0.7,0.3,0.9
				c0.2,0.2,0.5,0.4,0.8,0.5l5.1,0v1.7h-4.9c-0.9,0-1.3,0.5-1.3,1.3c0,0.7,0.3,1.1,0.8,1.4h5.4v1.7h-7.4V445.5z"/>
		</g>
		<g>
			<path class="st1" d="M413.1,431.2c0,1.1-0.3,1.9-1,2.6c-0.7,0.7-1.5,1-2.6,1h-0.2c-0.7,0-1.4-0.1-2-0.4c-0.6-0.3-1-0.7-1.4-1.2
				c-0.3-0.5-0.5-1.1-0.5-1.7c0-1,0.3-1.8,1-2.3s1.6-0.8,2.7-0.8h0.7v4.8c0.6,0,1.1-0.3,1.4-0.6s0.5-0.8,0.5-1.3
				c0-0.8-0.3-1.4-0.9-1.9l0.9-0.9c0.4,0.3,0.8,0.7,1,1.2C413,430.1,413.1,430.6,413.1,431.2z M406.8,431.4c0,0.5,0.2,0.8,0.5,1.1
				s0.8,0.5,1.3,0.5v-3.2h-0.1c-0.6,0-1,0.2-1.3,0.4C406.9,430.6,406.8,431,406.8,431.4z"/>
		</g>
		<g>
			<path class="st1" d="M403.8,424.5h1.8v-1.3h1.2v1.3h4.1c0.3,0,0.5-0.1,0.6-0.2c0.1-0.1,0.2-0.3,0.2-0.6c0-0.2,0-0.4-0.1-0.6h1.3
				c0.1,0.4,0.2,0.7,0.2,1.1c0,1.3-0.7,1.9-2.1,1.9h-4.2v1.2h-1.2v-1.2h-1.8V424.5z"/>
		</g>
		<g>
			<path class="st1" d="M413,417.1c-0.1,0.1-0.4,0.1-0.7,0.2c0.6,0.5,0.8,1.2,0.8,1.9c0,0.7-0.2,1.3-0.6,1.8
				c-0.4,0.5-0.9,0.7-1.6,0.7c-0.8,0-1.4-0.3-1.8-0.9c-0.4-0.6-0.6-1.4-0.6-2.5v-1H408c-0.4,0-0.7,0.1-0.9,0.3
				c-0.2,0.2-0.3,0.5-0.3,1c0,0.4,0.1,0.7,0.3,0.9c0.2,0.2,0.4,0.4,0.7,0.4v1.7c-0.4,0-0.8-0.1-1.1-0.4c-0.4-0.3-0.6-0.6-0.8-1.1
				s-0.3-1-0.3-1.5c0-0.9,0.2-1.6,0.7-2.1c0.4-0.5,1-0.8,1.8-0.8h3.3c0.7,0,1.2-0.1,1.6-0.3h0.1V417.1z M411.8,419
				c0-0.3-0.1-0.6-0.2-0.9s-0.4-0.5-0.6-0.7h-1.4v0.9c0,0.6,0.1,1.1,0.3,1.4c0.2,0.3,0.5,0.5,0.9,0.5c0.3,0,0.6-0.1,0.8-0.3
				C411.7,419.6,411.8,419.3,411.8,419z"/>
		</g>
		<g>
			<path class="st1" d="M409.4,407.1c1.1,0,2.1,0.3,2.7,0.8s1,1.2,1,2.1c0,0.9-0.3,1.5-0.9,2l0.8,0.1v1.5h-10.5v-1.7h3.8
				c-0.6-0.5-0.8-1.1-0.8-1.9c0-0.9,0.3-1.6,1-2.1C407.1,407.4,408.1,407.1,409.4,407.1L409.4,407.1z M409.2,408.8
				c-0.8,0-1.4,0.1-1.8,0.4c-0.4,0.3-0.6,0.7-0.6,1.2c0,0.7,0.3,1.2,0.9,1.5h3c0.6-0.3,1-0.8,1-1.5c0-0.5-0.2-0.9-0.6-1.2
				c-0.4-0.3-1-0.4-1.8-0.4H409.2z"/>
		</g>
		<g>
			<path class="st1" d="M409.2,405.7c-0.7,0-1.4-0.1-2-0.4c-0.6-0.3-1-0.7-1.3-1.2c-0.3-0.5-0.5-1.1-0.5-1.8c0-1,0.3-1.8,1-2.4
				s1.5-1,2.6-1l0.4,0c0.7,0,1.4,0.1,2,0.4s1,0.7,1.3,1.2s0.5,1.1,0.5,1.8c0,1-0.3,1.9-1,2.5C411.4,405.3,410.5,405.7,409.2,405.7
				L409.2,405.7z M409.4,404c0.8,0,1.4-0.2,1.8-0.5c0.4-0.3,0.6-0.8,0.6-1.3s-0.2-1-0.7-1.3s-1.1-0.5-1.9-0.5
				c-0.7,0-1.3,0.2-1.8,0.5s-0.7,0.8-0.7,1.3c0,0.5,0.2,1,0.6,1.3C407.9,403.8,408.5,404,409.4,404z"/>
		</g>
		<g>
			<path class="st1" d="M413,395.2v1.7h-10.5v-1.7H413z"/>
		</g>
		<g>
			<path class="st1" d="M403.7,393c-0.3,0-0.5-0.1-0.6-0.2c-0.2-0.2-0.3-0.4-0.3-0.7s0.1-0.5,0.3-0.7s0.4-0.2,0.6-0.2
				c0.3,0,0.5,0.1,0.6,0.2c0.2,0.2,0.3,0.4,0.3,0.7s-0.1,0.5-0.3,0.7C404.1,393,403.9,393,403.7,393z M413,391.3v1.7h-7.4v-1.7H413z
				"/>
		</g>
		<g>
			<path class="st1" d="M411.7,387.3v-3.9h1.3v6h-1.1l-5-3.8v3.7h-1.3v-5.8h1.1L411.7,387.3z"/>
		</g>
		<g>
			<path class="st1" d="M413,377.3c-0.1,0.1-0.4,0.1-0.7,0.2c0.6,0.5,0.8,1.2,0.8,1.9c0,0.7-0.2,1.3-0.6,1.8s-0.9,0.7-1.6,0.7
				c-0.8,0-1.4-0.3-1.8-0.9c-0.4-0.6-0.6-1.4-0.6-2.5v-1H408c-0.4,0-0.7,0.1-0.9,0.3c-0.2,0.2-0.3,0.5-0.3,1c0,0.4,0.1,0.7,0.3,0.9
				c0.2,0.2,0.4,0.4,0.7,0.4v1.7c-0.4,0-0.8-0.1-1.1-0.4c-0.4-0.3-0.6-0.6-0.8-1.1c-0.2-0.5-0.3-1-0.3-1.5c0-0.9,0.2-1.6,0.7-2.1
				c0.4-0.5,1-0.8,1.8-0.8h3.3c0.7,0,1.2-0.1,1.6-0.3h0.1V377.3z M411.8,379.1c0-0.3-0.1-0.6-0.2-0.9c-0.2-0.3-0.4-0.5-0.6-0.7h-1.4
				v0.9c0,0.6,0.1,1.1,0.3,1.4s0.5,0.5,0.9,0.5c0.3,0,0.6-0.1,0.8-0.3C411.7,379.7,411.8,379.4,411.8,379.1z"/>
		</g>
		<g>
			<path class="st1" d="M409.4,367.2c1.1,0,2.1,0.3,2.7,0.8c0.7,0.5,1,1.2,1,2.1c0,0.9-0.3,1.5-0.9,2l0.8,0.1v1.5h-10.5v-1.7h3.8
				c-0.6-0.5-0.8-1.1-0.8-1.9c0-0.9,0.3-1.6,1-2.1S408.1,367.2,409.4,367.2L409.4,367.2z M409.2,368.9c-0.8,0-1.4,0.1-1.8,0.4
				s-0.6,0.7-0.6,1.2c0,0.7,0.3,1.2,0.9,1.5h3c0.6-0.3,1-0.8,1-1.5c0-0.5-0.2-0.9-0.6-1.2s-1-0.4-1.8-0.4H409.2z"/>
		</g>
		<g>
			<path class="st1" d="M413,363.7v1.7h-10.5v-1.7H413z"/>
		</g>
		<g>
			<path class="st1" d="M413.1,358.3c0,1.1-0.3,1.9-1,2.6c-0.7,0.7-1.5,1-2.6,1h-0.2c-0.7,0-1.4-0.1-2-0.4c-0.6-0.3-1-0.7-1.4-1.2
				s-0.5-1.1-0.5-1.7c0-1,0.3-1.8,1-2.3c0.6-0.5,1.6-0.8,2.7-0.8h0.7v4.8c0.6-0.1,1.1-0.3,1.4-0.6c0.4-0.4,0.5-0.8,0.5-1.4
				c0-0.8-0.3-1.4-0.9-1.9l0.9-0.9c0.4,0.3,0.8,0.7,1,1.2C413,357.1,413.1,357.6,413.1,358.3z M406.8,358.4c0,0.5,0.2,0.8,0.5,1.1
				c0.3,0.3,0.8,0.5,1.3,0.5v-3.2h-0.1c-0.6,0-1,0.2-1.3,0.4C406.9,357.6,406.8,358,406.8,358.4z"/>
		</g>
		<g>
			<path class="st1" d="M413.1,346.5c0,1.1-0.3,1.9-1,2.6c-0.7,0.7-1.5,1-2.6,1h-0.2c-0.7,0-1.4-0.1-2-0.4c-0.6-0.3-1-0.7-1.4-1.2
				c-0.3-0.5-0.5-1.1-0.5-1.7c0-1,0.3-1.8,1-2.3s1.6-0.8,2.7-0.8h0.7v4.8c0.6,0,1.1-0.3,1.4-0.6s0.5-0.8,0.5-1.3
				c0-0.8-0.3-1.4-0.9-1.9l0.9-0.9c0.4,0.3,0.8,0.7,1,1.2C413,345.3,413.1,345.9,413.1,346.5z M406.8,346.7c0,0.5,0.2,0.8,0.5,1.1
				s0.8,0.5,1.3,0.5v-3.2h-0.1c-0.6,0-1,0.2-1.3,0.4C406.9,345.9,406.8,346.2,406.8,346.7z"/>
		</g>
		<g>
			<path class="st1" d="M405.6,340.3l0.9,0c-0.7-0.5-1-1.3-1-2.2c0-1.5,0.9-2.3,2.6-2.4h4.9v1.7h-4.8c-0.5,0-0.8,0.1-1,0.3
				c-0.2,0.2-0.3,0.5-0.3,1c0,0.7,0.3,1.2,0.9,1.5h5.3v1.7h-7.4V340.3z"/>
		</g>
		<g>
			<path class="st1" d="M413.1,330.4c0,1.1-0.3,1.9-1,2.6c-0.7,0.7-1.5,1-2.6,1h-0.2c-0.7,0-1.4-0.1-2-0.4c-0.6-0.3-1-0.7-1.4-1.2
				c-0.3-0.5-0.5-1.1-0.5-1.7c0-1,0.3-1.8,1-2.3s1.6-0.8,2.7-0.8h0.7v4.8c0.6,0,1.1-0.3,1.4-0.6s0.5-0.8,0.5-1.3
				c0-0.8-0.3-1.4-0.9-1.9l0.9-0.9c0.4,0.3,0.8,0.7,1,1.2C413,329.3,413.1,329.8,413.1,330.4z M406.8,330.6c0,0.5,0.2,0.8,0.5,1.1
				s0.8,0.5,1.3,0.5v-3.2h-0.1c-0.6,0-1,0.2-1.3,0.4C406.9,329.8,406.8,330.2,406.8,330.6z"/>
		</g>
		<g>
			<path class="st1" d="M407.1,321.9c0,0.2-0.1,0.4-0.1,0.7c0,0.8,0.3,1.3,0.9,1.5h5.1v1.7h-7.4v-1.6l0.8,0c-0.6-0.4-1-1-1-1.7
				c0-0.2,0-0.4,0.1-0.6L407.1,321.9z"/>
		</g>
		<g>
			<path class="st1" d="M409.2,320.9c-1.1,0-2.1-0.3-2.8-0.8c-0.7-0.5-1-1.3-1-2.1c0-0.8,0.3-1.5,0.9-2l-0.7-0.1v-1.5h7.2
				c1,0,1.7,0.3,2.3,0.9s0.8,1.4,0.8,2.4c0,0.5-0.1,1.1-0.3,1.6c-0.2,0.5-0.5,0.9-0.9,1.2l-1-0.8c0.6-0.5,0.9-1.1,0.9-1.9
				c0-0.6-0.1-1-0.4-1.3c-0.3-0.3-0.7-0.5-1.3-0.5h-0.5c0.5,0.5,0.8,1.1,0.8,1.9c0,0.9-0.3,1.6-1,2.1S410.5,320.9,409.2,320.9z
				 M409.4,319.3c0.7,0,1.3-0.2,1.8-0.5c0.4-0.3,0.6-0.7,0.6-1.3c0-0.7-0.3-1.2-0.9-1.5h-3.3c-0.6,0.3-0.8,0.8-0.8,1.5
				c0,0.5,0.2,1,0.6,1.3S408.5,319.3,409.4,319.3z"/>
		</g>
		<g>
			<path class="st1" d="M410.6,309.7l-5-1.5v-1.8l8.5,2.9c1.2,0.5,1.9,1.2,1.9,2.3c0,0.2,0,0.5-0.1,0.8h-1.3l0-0.3
				c0-0.4-0.1-0.7-0.2-0.9c-0.2-0.2-0.4-0.4-0.8-0.5l-0.6-0.2l-7.4,2.6v-1.8L410.6,309.7z"/>
		</g>
		<g>
			<path class="st1" d="M409,301.2c-1.1,0-2.1-0.1-3-0.4c-0.9-0.3-1.8-0.7-2.5-1.2c-0.7-0.5-1.3-1.1-1.6-1.7l1-0.3
				c0.5,0.6,1.2,1.2,2.2,1.6c1,0.4,2.1,0.6,3.4,0.7l0.6,0c1.4,0,2.6-0.2,3.7-0.6c1.1-0.4,1.9-0.9,2.5-1.6l0.9,0.3
				c-0.3,0.6-0.8,1.2-1.6,1.7c-0.8,0.5-1.6,1-2.5,1.2C411.1,301.1,410.1,301.2,409,301.2z"/>
		</g>
		<g>
			<path class="st1" d="M413,288v1.7l-7.1,4.4h7.1v1.7h-10v-1.7l7.1-4.5H403V288H413z"/>
		</g>
		<g>
			<path class="st1" d="M403,283.3l7.6-2.9l-7.6-2.9v-2.2h10v1.7h-3.3l-4.4-0.2l7.7,2.9v1.2l-7.7,2.9l4.4-0.2h3.3v1.7h-10V283.3z"/>
		</g>
		<g>
			<path class="st1" d="M408.6,267.1v4.1h3v-4.8h1.4v6.5h-10v-6.5h1.4v4.7h2.7v-4.1H408.6z"/>
		</g>
		<g>
			<path class="st1" d="M409.1,261.6c1,0,2,0.1,2.9,0.4c0.9,0.3,1.8,0.7,2.6,1.3c0.8,0.6,1.3,1.2,1.6,1.8l-0.9,0.3
				c-0.5-0.7-1.3-1.2-2.4-1.6c-1.1-0.4-2.3-0.6-3.7-0.6h-0.2c-1.3,0-2.4,0.2-3.5,0.5c-1,0.3-1.9,0.8-2.5,1.5l-0.2,0.2l-0.9-0.3
				c0.3-0.6,0.8-1.1,1.5-1.7s1.5-1,2.4-1.3c0.9-0.3,1.8-0.5,2.8-0.5L409.1,261.6z"/>
		</g>
	</g>
</g>
</svg>
