<?xml version="1.0" encoding="utf-8"?>
<!-- Generator: Adobe Illustrator 21.1.0, SVG Export Plug-In . SVG Version: 6.00 Build 0)  -->
<svg version="1.1" id="Layer_1" xmlns="http://www.w3.org/2000/svg" xmlns:xlink="http://www.w3.org/1999/xlink" x="0px" y="0px"
	 viewBox="0 0 294 294" style="enable-background:new 0 0 294 294;" xml:space="preserve">
<style type="text/css">
	.st0{fill:#393240;}
</style>
<g>
	<path class="st0" d="M252.7,94.9h-97.1h-17.2H41.3c-23,0-41.7,19.8-41.7,44.1c0,14.8,6.9,28.4,18.5,36.6v74
		c0,19,15.5,34.5,34.5,34.5h91.1c0.1,0,0.1,0,0.2,0h96.9c19,0,34.5-15.5,34.5-34.5v-73.6c11.9-8.2,19-21.9,19-36.9
		C294.4,114.6,275.7,94.9,252.7,94.9z M23.2,249.5v-75.3c0-0.8-0.4-1.6-1.1-2.1c-10.9-7.2-17.4-19.6-17.4-33.2
		c0-21.5,16.5-39.1,36.7-39.1h97.1h17.2c20.2,0,36.7,17.5,36.7,39.1c0,13.8-6.7,26.3-17.9,33.5c-0.7,0.5-1.2,1.3-1.2,2.1v75
		c0,16.3-13.2,29.5-29.5,29.5H52.7C36.4,279,23.2,265.8,23.2,249.5z M271.5,172.4c-0.7,0.5-1.2,1.3-1.2,2.1v75
		c0,16.3-13.2,29.5-29.5,29.5h-79.2c10-6.1,16.6-17,16.6-29.5v-73.6c11.9-8.2,19-21.9,19-36.9c0-17-9.1-31.7-22.4-39.1h77.8
		c20.2,0,36.7,17.5,36.7,39.1C289.4,152.7,282.7,165.2,271.5,172.4z"/>
	<path class="st0" d="M251.8,109.9h-24.7c-1.4,0-2.5,1.1-2.5,2.5s1.1,2.5,2.5,2.5h24.7c12.1,0,22,10.5,22,23.5
		c0,8.3-4,15.9-10.7,20.2c-1.2,0.7-1.5,2.3-0.8,3.5c0.5,0.7,1.3,1.2,2.1,1.2c0.5,0,0.9-0.1,1.3-0.4c8.2-5.2,13-14.3,13-24.4
		C278.8,122.7,266.7,109.9,251.8,109.9z"/>
	<path class="st0" d="M215.1,109.9h-12.8c-1.4,0-2.5,1.1-2.5,2.5s1.1,2.5,2.5,2.5h12.8c1.4,0,2.5-1.1,2.5-2.5
		S216.5,109.9,215.1,109.9z"/>
</g>
</svg>
