<?xml version="1.0" encoding="utf-8"?>
<!-- Generator: Adobe Illustrator 21.1.0, SVG Export Plug-In . SVG Version: 6.00 Build 0)  -->
<svg version="1.1" id="Layer_1" xmlns="http://www.w3.org/2000/svg" xmlns:xlink="http://www.w3.org/1999/xlink" x="0px" y="0px"
	 viewBox="0 0 294 294" style="enable-background:new 0 0 294 294;" xml:space="preserve">
<style type="text/css">
	.st0{fill:#393240;}
</style>
<path class="st0" d="M222.3,90.3c-0.2-1.2-1.2-2.2-2.5-2.2H208l-1.6-15.3c-0.1-1.3-1.2-2.2-2.5-2.2h-39.7l7.4-35l52.1-19.2
	c1.3-0.5,1.9-1.9,1.4-3.2l-4-10.2c-0.2-0.6-0.7-1.1-1.3-1.4c-0.6-0.3-1.3-0.3-1.9,0l-59,21.9c-0.8,0.3-1.4,1-1.5,1.8l-9.4,45.4H89.6
	c-1.3,0-2.4,1-2.5,2.2l-1.6,15.3H73.6c-1.3,0-2.3,0.9-2.5,2.2l-2.3,17.1c-0.1,0.7,0.1,1.4,0.6,2c0.5,0.5,1.2,0.9,1.9,0.9h7.5
	l5.2,90.5l3.2,56.2l1.4,24.7c0.1,1.3,1.2,2.4,2.5,2.4h111.2c1.3,0,2.4-1,2.5-2.4l4-70.6l3.5-60.4l2.3-40.4h7.5
	c0.7,0,1.4-0.3,1.9-0.9c0.5-0.5,0.7-1.3,0.6-2L222.3,90.3z M161.9,27.5l55.4-20.5l2.2,5.6l-51.1,18.8c-0.8,0.3-1.4,1-1.5,1.8
	l-7.8,37.4H153L161.9,27.5z M91.8,75.6h58.1h11.2h40.5l1.3,12.1h-45.2h-11.2h-56L91.8,75.6z M83.8,111h59h11.2h55.5l-2.2,38.3
	c-0.3,0.3-0.6,0.5-0.9,0.8c-0.4,0.3-0.8,0.7-1.2,1c-0.4,0.4-0.9,0.7-1.3,1c-0.4,0.3-0.8,0.6-1.2,0.9c-0.5,0.3-0.9,0.6-1.4,1
	c-0.4,0.3-0.8,0.5-1.2,0.8c-0.5,0.3-1,0.6-1.5,0.9c-0.4,0.2-0.8,0.5-1.2,0.7c-0.5,0.3-1,0.5-1.5,0.8c-0.4,0.2-0.8,0.4-1.3,0.7
	c-0.5,0.3-1,0.5-1.6,0.8c-0.4,0.2-0.8,0.4-1.3,0.6c-0.5,0.2-1.1,0.5-1.6,0.7c-0.4,0.2-0.9,0.4-1.3,0.5c-0.6,0.2-1.1,0.4-1.7,0.7
	c-0.4,0.2-0.9,0.3-1.3,0.5c-0.6,0.2-1.2,0.4-1.8,0.6c-0.4,0.1-0.9,0.3-1.3,0.4c-0.6,0.2-1.2,0.4-1.9,0.6c-0.4,0.1-0.9,0.3-1.3,0.4
	c-0.6,0.2-1.3,0.4-2,0.6c-0.4,0.1-0.8,0.2-1.3,0.4c-0.7,0.2-1.4,0.4-2.1,0.6c-0.4,0.1-0.8,0.2-1.2,0.3c-0.7,0.2-1.5,0.4-2.3,0.6
	c-0.4,0.1-0.8,0.2-1.1,0.3c-0.8,0.2-1.7,0.4-2.5,0.6c-0.3,0.1-0.6,0.2-1,0.2c-1,0.2-2,0.5-2.9,0.7c-0.2,0.1-0.4,0.1-0.7,0.2
	c-1.2,0.3-2.5,0.6-3.7,0.8c-6,1.4-12.2,2.8-18.8,4.5c-4.3,1.2-8.2,2.3-12,3.5c-5.4,1.7-10.3,3.5-15.1,5.4c-1,0.4-2.1,0.9-3.1,1.3
	c-0.3,0.2-0.7,0.3-1,0.5c-0.7,0.3-1.4,0.7-2.2,1c-0.4,0.2-0.8,0.4-1.2,0.6c-0.7,0.3-1.3,0.7-2,1c-0.4,0.2-0.9,0.5-1.3,0.7
	c-0.7,0.4-1.3,0.7-2,1.1c-0.4,0.3-0.9,0.5-1.3,0.8c-0.7,0.4-1.4,0.8-2.1,1.3c-0.4,0.3-0.8,0.5-1.3,0.8c-0.8,0.5-1.6,1-2.4,1.5
	c-0.3,0.2-0.7,0.4-1,0.7c-1.1,0.7-2.2,1.5-3.4,2.3L83.8,111z M207,156.1l-3.1,53.5c-0.3,0.2-0.7,0.5-1,0.7c-0.4,0.3-0.9,0.6-1.3,0.9
	c-0.5,0.3-1,0.7-1.4,1c-0.4,0.3-0.9,0.6-1.3,0.9c-0.5,0.3-1,0.6-1.5,0.9c-0.4,0.3-0.9,0.5-1.3,0.8c-0.5,0.3-1,0.5-1.5,0.8
	c-0.4,0.2-0.9,0.5-1.3,0.7c-0.5,0.3-1,0.5-1.5,0.8c-0.4,0.2-0.9,0.4-1.3,0.7c-0.5,0.2-1,0.5-1.5,0.7c-0.5,0.2-0.9,0.4-1.4,0.6
	c-0.5,0.2-1,0.4-1.5,0.6c-0.5,0.2-0.9,0.4-1.4,0.6c-0.5,0.2-1,0.4-1.6,0.6c-0.5,0.2-0.9,0.3-1.4,0.5c-0.5,0.2-1.1,0.4-1.6,0.5
	c-0.5,0.2-0.9,0.3-1.4,0.5c-0.5,0.2-1.1,0.3-1.6,0.5c-0.5,0.1-0.9,0.3-1.4,0.4c-0.5,0.2-1.1,0.3-1.7,0.5c-0.5,0.1-0.9,0.3-1.4,0.4
	c-0.6,0.2-1.1,0.3-1.7,0.5c-0.5,0.1-0.9,0.3-1.4,0.4c-0.6,0.1-1.1,0.3-1.7,0.4c-0.5,0.1-1,0.2-1.5,0.4c-0.6,0.1-1.2,0.3-1.8,0.4
	c-0.5,0.1-1,0.2-1.4,0.3c-0.6,0.1-1.2,0.3-1.8,0.4c-0.5,0.1-1,0.2-1.4,0.3c-1.1,0.3-2.2,0.5-3.3,0.8c-9.1,2.1-18.5,4.3-28.9,7.6
	c-4.1,1.3-8.2,2.8-12.2,4.3c-0.8,0.3-1.7,0.6-2.5,1c-0.9,0.4-1.8,0.8-2.8,1.2c-0.3,0.1-0.6,0.3-0.9,0.4c-0.6,0.3-1.2,0.6-1.9,0.9
	c-0.4,0.2-0.7,0.4-1.1,0.5c-0.6,0.3-1.2,0.6-1.7,0.9c-0.4,0.2-0.8,0.4-1.2,0.6c-0.6,0.3-1.2,0.6-1.8,1c-0.4,0.2-0.8,0.4-1.2,0.6
	c-0.6,0.4-1.3,0.7-1.9,1.1c-0.3,0.2-0.7,0.4-1,0.6c-0.9,0.6-1.9,1.1-2.8,1.7c-0.1,0.1-0.3,0.2-0.4,0.3c-0.8,0.5-1.6,1-2.4,1.6
	L89,201.8c0.4-0.3,0.8-0.6,1.3-0.9c0.5-0.4,1.1-0.8,1.6-1.2c0.6-0.4,1.2-0.8,1.8-1.2c0.5-0.4,1.1-0.7,1.6-1.1
	c0.6-0.4,1.2-0.8,1.8-1.2c0.5-0.3,1-0.7,1.6-1c0.6-0.4,1.2-0.7,1.8-1.1c0.5-0.3,1-0.6,1.5-0.9c0.6-0.4,1.2-0.7,1.8-1
	c0.5-0.3,1-0.5,1.4-0.8c0.6-0.3,1.3-0.7,1.9-1c0.4-0.2,0.9-0.5,1.3-0.7c0.7-0.3,1.4-0.7,2.1-1c0.4-0.2,0.7-0.3,1.1-0.5
	c1.1-0.5,2.1-0.9,3.1-1.3c4.7-1.9,9.5-3.6,14.7-5.3c3.7-1.2,7.5-2.3,11.8-3.4c6.5-1.7,12.6-3.1,18.6-4.5c1.2-0.3,2.3-0.5,3.5-0.8
	c0.4-0.1,0.7-0.2,1.1-0.2c0.8-0.2,1.6-0.4,2.4-0.6c0.4-0.1,0.9-0.2,1.3-0.3c0.7-0.2,1.4-0.3,2.1-0.5c0.5-0.1,0.9-0.2,1.4-0.3
	c0.7-0.2,1.3-0.3,2-0.5c0.5-0.1,0.9-0.2,1.4-0.4c0.7-0.2,1.3-0.3,1.9-0.5c0.5-0.1,0.9-0.3,1.4-0.4c0.6-0.2,1.3-0.4,1.9-0.6
	c0.4-0.1,0.9-0.3,1.3-0.4c0.7-0.2,1.3-0.4,2-0.6c0.4-0.1,0.8-0.3,1.2-0.4c0.8-0.3,1.5-0.5,2.3-0.8c0.3-0.1,0.6-0.2,0.8-0.3
	c1-0.4,2-0.8,3-1.2c0.2-0.1,0.4-0.2,0.6-0.3c0.8-0.3,1.6-0.7,2.4-1c0.3-0.2,0.7-0.3,1-0.5c0.6-0.3,1.3-0.6,1.9-0.9
	c0.4-0.2,0.7-0.4,1.1-0.6c0.6-0.3,1.2-0.6,1.7-0.9c0.4-0.2,0.8-0.4,1.2-0.7c0.6-0.3,1.1-0.7,1.6-1c0.4-0.2,0.8-0.5,1.1-0.7
	c0.5-0.4,1.1-0.7,1.6-1.1c0.4-0.3,0.7-0.5,1.1-0.8C206.7,156.3,206.8,156.2,207,156.1z M200,279H93.5l-1.2-20.9
	c0.4-0.2,0.7-0.5,1.1-0.7c0.5-0.3,0.9-0.6,1.4-0.9c0.6-0.4,1.1-0.7,1.7-1.1c0.4-0.3,0.9-0.6,1.3-0.9c0.6-0.4,1.1-0.7,1.7-1
	c0.4-0.3,0.9-0.5,1.3-0.8c0.6-0.3,1.1-0.7,1.7-1c0.4-0.2,0.8-0.5,1.2-0.7c0.6-0.3,1.1-0.6,1.7-0.9c0.4-0.2,0.8-0.4,1.2-0.6
	c0.6-0.3,1.2-0.6,1.8-0.9c0.4-0.2,0.7-0.4,1.1-0.5c0.6-0.3,1.3-0.6,1.9-0.9c0.3-0.1,0.6-0.3,0.9-0.4c0.9-0.4,1.9-0.8,2.8-1.2
	c0.8-0.3,1.6-0.6,2.4-0.9c3.9-1.5,7.9-2.9,11.9-4.2c10.2-3.3,19.5-5.4,28.5-7.5c1.1-0.3,2.2-0.5,3.3-0.8c0.3-0.1,0.6-0.1,0.9-0.2
	c0.8-0.2,1.6-0.4,2.4-0.6c0.4-0.1,0.8-0.2,1.1-0.3c0.7-0.2,1.4-0.3,2.1-0.5c0.4-0.1,0.8-0.2,1.2-0.3c0.6-0.2,1.3-0.3,1.9-0.5
	c0.4-0.1,0.9-0.2,1.3-0.3c0.6-0.2,1.2-0.3,1.8-0.5c0.4-0.1,0.9-0.2,1.3-0.4c0.6-0.2,1.2-0.3,1.8-0.5c0.4-0.1,0.9-0.3,1.3-0.4
	c0.6-0.2,1.2-0.4,1.8-0.6c0.4-0.1,0.8-0.3,1.3-0.4c0.6-0.2,1.2-0.4,1.8-0.6c0.4-0.1,0.8-0.3,1.2-0.4c0.7-0.2,1.3-0.5,2-0.7
	c0.3-0.1,0.7-0.2,1-0.4c1-0.4,2-0.8,2.9-1.2c0.1-0.1,0.2-0.1,0.4-0.2c0.8-0.4,1.7-0.8,2.5-1.1c0.3-0.2,0.7-0.3,1-0.5
	c0.6-0.3,1.2-0.6,1.9-0.9c0.4-0.2,0.8-0.4,1.2-0.6c0.6-0.3,1.1-0.6,1.7-0.9c0.4-0.2,0.8-0.5,1.2-0.7c0.5-0.3,1.1-0.6,1.6-1
	c0.4-0.3,0.8-0.5,1.2-0.8c0.3-0.2,0.6-0.4,0.9-0.6L200,279z M154.2,105.2h-11.2H74.2l1.6-12.1h70.6h11.2h60l1.6,12.1H154.2z"/>
</svg>
