<?xml version="1.0" encoding="utf-8"?>
<!-- Generator: Adobe Illustrator 21.1.0, SVG Export Plug-In . SVG Version: 6.00 Build 0)  -->
<svg version="1.1" id="Layer_1" xmlns="http://www.w3.org/2000/svg" xmlns:xlink="http://www.w3.org/1999/xlink" x="0px" y="0px"
	 viewBox="0 0 294 294" style="enable-background:new 0 0 294 294;" xml:space="preserve">
<style type="text/css">
	.st0{fill:#393240;}
</style>
<g>
	<path class="st0" d="M277.1,198.2c0-0.3,0-0.6,0-0.9c0,0,0-0.1,0-0.1c0,0,0-0.1,0-0.1c0-0.1,0-0.3,0-0.5
		c-1.1-10.8-21.1-16.9-34.9-19.9l19.6-50.2c0.2-0.6,0.2-1.3,0-1.9c-0.3-0.6-0.8-1.1-1.4-1.3l-14.3-5.6c-1.3-0.5-2.7,0.1-3.2,1.4
		l-21.2,54.3c-6.4-0.7-13-1.3-19.9-1.6V49.5c0-1.4-1.1-2.5-2.5-2.5H51.8H19.4c-1.4,0-2.5,1.1-2.5,2.5v67.2c0,0,0,0,0,0v150.8
		c0,1,0.6,1.9,1.5,2.3l32.5,13.9c0,0,0,0,0,0c0.3,0.1,0.6,0.2,1,0.2H186c4.5,0,9-0.4,13.5-1.1C241.3,276,276.1,238,277.1,198.2
		C277.1,198.2,277.1,198.2,277.1,198.2C277.1,198.2,277.1,198.2,277.1,198.2z M246.5,123.3l9.7,3.8l-19.7,50.6l-2,4.9l-4.5,10.9
		c-0.3,0.8-0.2,1.7,0.2,2.3c0.3,0.4,0.6,0.7,1.1,0.9c0.3,0.1,0.6,0.2,1,0.2c0,0,0,0,0,0c0.2,0,0.4,0,0.6-0.1c0.1,0,0.1,0,0.2-0.1
		c0.2-0.1,0.3-0.1,0.5-0.2c0,0,0.1,0,0.1-0.1c0.2-0.1,0.3-0.2,0.4-0.4c0,0,0.1-0.1,0.1-0.1c0.1-0.2,0.2-0.3,0.3-0.5c0,0,0,0,0,0
		l3.3-8l2.5-5.9c23.1,4.8,31.7,11.5,31.9,15.9c0,0.2,0,0.4,0,0.6c0,0,0,0,0,0c-0.9,8.7-28.5,18.7-73.1,20.5c-4.1,0.2-8.4,0.3-13,0.3
		c-23.5,0-45.5-2.4-62-6.8c-17.8-4.7-24.1-10.5-24.1-14.3c0-10,35.4-21.1,86.1-21.1c4.6,0,8.9,0.1,13,0.3c0,0,0,0,0,0c0,0,0,0,0,0
		c7.1,0.3,14.1,0.8,20.6,1.5l-5.5,13.7c0,0,0,0,0,0l0,0c-0.5,1.3,0.1,2.7,1.4,3.2c0.3,0.1,0.6,0.2,0.9,0.2c0,0,0,0,0,0
		c0.2,0,0.4,0,0.6-0.1c0.1,0,0.1,0,0.2-0.1c0.2-0.1,0.3-0.1,0.5-0.2c0,0,0.1,0,0.1-0.1c0.2-0.1,0.3-0.3,0.5-0.4c0,0,0.1-0.1,0.1-0.1
		c0.1-0.2,0.2-0.4,0.3-0.6c0,0,0,0,0,0l6.7-16.8c0,0,0,0,0,0L246.5,123.3z M21.9,119.9l27.5,5.9v45l-27.5-7.2V119.9z M54.3,125.6
		l142.3-46.4v45L54.3,170.6V125.6z M196.6,74L54.3,120.4V52h142.3V74z M49.3,52v68.7l-27.5-5.9V52H49.3z M21.9,168.8l27.5,7.2v101.7
		l-27.5-11.8V168.8z M54.3,279V175.9l142.3-46.4v42.1c-3.4-0.1-6.9-0.2-10.6-0.2c-44.2,0-91.1,9.2-91.1,26.1c0,0.3,0,0.5,0,0.8
		c0,0.1,0,0.3,0,0.4c0,21.3,10,42.9,27.5,59.3c10,9.4,21.9,16.5,34.5,20.9H54.3z M198.7,277.9c-4.2,0.7-8.5,1.1-12.7,1.1h0
		c-42.1,0-80.7-33.3-85.6-71.9c13.7,10.9,50.5,16.7,85.6,16.7c4.7,0,9-0.1,13.2-0.3c29.5-1.2,59.6-6.5,72-16
		C265.6,241.4,234.9,272,198.7,277.9z"/>
	<path class="st0" d="M163.4,197.1c0.6-1.2,0.1-2.7-1.2-3.3l-18.8-9.1c-0.6-0.3-1.3-0.3-1.9-0.1c-0.6,0.2-1.1,0.7-1.4,1.3l-5,10.2
		c-0.6,1.2-0.1,2.7,1.2,3.3c0.4,0.2,0.7,0.3,1.1,0.3c0.9,0,1.8-0.5,2.3-1.4l3.9-8l16.5,8C161.3,198.8,162.8,198.3,163.4,197.1z"/>
	<path class="st0" d="M187.6,208.7l-18.8-9.1c-0.6-0.3-1.3-0.3-1.9-0.1c-0.6,0.2-1.1,0.7-1.4,1.3l-5,10.2c-0.6,1.2-0.1,2.7,1.2,3.3
		c0.4,0.2,0.7,0.3,1.1,0.3c0.9,0,1.8-0.5,2.3-1.4l3.9-8l16.5,8c1.2,0.6,2.7,0.1,3.3-1.2C189.4,210.8,188.9,209.3,187.6,208.7z"/>
	<path class="st0" d="M201.9,192.7l-18.8-9.1c-1.2-0.6-2.7-0.1-3.3,1.2l-5,10.2c-0.6,1.2-0.1,2.7,1.2,3.3c0.4,0.2,0.7,0.3,1.1,0.3
		c0.9,0,1.8-0.5,2.3-1.4l3.9-8l16.5,8c1.2,0.6,2.7,0.1,3.3-1.2C203.6,194.8,203.1,193.3,201.9,192.7z"/>
</g>
</svg>
