<?xml version="1.0" encoding="utf-8"?>
<!-- Generator: Adobe Illustrator 21.1.0, SVG Export Plug-In . SVG Version: 6.00 Build 0)  -->
<svg version="1.1" id="Layer_1" xmlns="http://www.w3.org/2000/svg" xmlns:xlink="http://www.w3.org/1999/xlink" x="0px" y="0px"
	 viewBox="0 0 294 294" style="enable-background:new 0 0 294 294;" xml:space="preserve">
<style type="text/css">
	.st0{fill:#393240;}
</style>
<g>
	<path class="st0" d="M29.6,141.7c-2.5,0-4.5,2-4.5,4.5c0,2.5,2,4.5,4.5,4.5c2.5,0,4.5-2,4.5-4.5C34.1,143.7,32.1,141.7,29.6,141.7z
		 M29.6,146.7c-0.3,0-0.5-0.2-0.5-0.5c0-0.3,0.2-0.5,0.5-0.5c0.3,0,0.5,0.2,0.5,0.5C30.1,146.5,29.9,146.7,29.6,146.7z"/>
	<path class="st0" d="M55.9,108.2c-2.5,0-4.5,2-4.5,4.5c0,2.5,2,4.5,4.5,4.5c2.5,0,4.5-2,4.5-4.5C60.4,110.2,58.4,108.2,55.9,108.2z
		 M55.9,113.2c-0.3,0-0.5-0.2-0.5-0.5c0-0.3,0.2-0.5,0.5-0.5c0.3,0,0.5,0.2,0.5,0.5C56.4,113,56.2,113.2,55.9,113.2z"/>
	<path class="st0" d="M74.3,125.1c-2.5,0-4.5,2-4.5,4.5c0,2.5,2,4.5,4.5,4.5c2.5,0,4.5-2,4.5-4.5C78.8,127.1,76.8,125.1,74.3,125.1z
		 M74.3,130.1c-0.3,0-0.5-0.2-0.5-0.5c0-0.3,0.2-0.5,0.5-0.5c0.3,0,0.5,0.2,0.5,0.5C74.8,129.9,74.6,130.1,74.3,130.1z"/>
	<path class="st0" d="M70.1,147.7c-2.5,0-4.5,2-4.5,4.5c0,2.5,2,4.5,4.5,4.5c2.5,0,4.5-2,4.5-4.5C74.5,149.7,72.5,147.7,70.1,147.7z
		 M70.1,152.7c-0.3,0-0.5-0.2-0.5-0.5c0-0.3,0.2-0.5,0.5-0.5c0.3,0,0.5,0.2,0.5,0.5C70.6,152.4,70.3,152.7,70.1,152.7z"/>
	<path class="st0" d="M43.2,166.3c-2.5,0-4.5,2-4.5,4.5c0,2.5,2,4.5,4.5,4.5c2.5,0,4.5-2,4.5-4.5C47.7,168.3,45.7,166.3,43.2,166.3z
		 M43.2,171.3c-0.3,0-0.5-0.2-0.5-0.5c0-0.3,0.2-0.5,0.5-0.5c0.3,0,0.5,0.2,0.5,0.5C43.8,171.1,43.5,171.3,43.2,171.3z"/>
	<path class="st0" d="M51.9,135c-2.5,0-4.5,2-4.5,4.5c0,2.5,2,4.5,4.5,4.5c2.5,0,4.5-2,4.5-4.5C56.4,137,54.4,135,51.9,135z
		 M51.9,140c-0.3,0-0.5-0.2-0.5-0.5c0-0.3,0.2-0.5,0.5-0.5c0.3,0,0.5,0.2,0.5,0.5C52.5,139.8,52.2,140,51.9,140z"/>
	<path class="st0" d="M87.7,108.2c-2.5,0-4.5,2-4.5,4.5c0,2.5,2,4.5,4.5,4.5c2.5,0,4.5-2,4.5-4.5C92.2,110.2,90.2,108.2,87.7,108.2z
		 M87.7,113.2c-0.3,0-0.5-0.2-0.5-0.5c0-0.3,0.2-0.5,0.5-0.5c0.3,0,0.5,0.2,0.5,0.5C88.2,113,88,113.2,87.7,113.2z"/>
	<path class="st0" d="M50,193.6c-2.5,0-4.5,2-4.5,4.5c0,2.5,2,4.5,4.5,4.5c2.5,0,4.5-2,4.5-4.5C54.4,195.6,52.4,193.6,50,193.6z
		 M50,198.6c-0.3,0-0.5-0.2-0.5-0.5c0-0.3,0.2-0.5,0.5-0.5c0.3,0,0.5,0.2,0.5,0.5C50.5,198.4,50.2,198.6,50,198.6z"/>
	<path class="st0" d="M40.9,230.9c-2.5,0-4.5,2-4.5,4.5c0,2.5,2,4.5,4.5,4.5c2.5,0,4.5-2,4.5-4.5C45.4,232.9,43.4,230.9,40.9,230.9z
		 M40.9,235.9c-0.3,0-0.5-0.2-0.5-0.5c0-0.3,0.2-0.5,0.5-0.5c0.3,0,0.5,0.2,0.5,0.5C41.4,235.7,41.2,235.9,40.9,235.9z"/>
	<path class="st0" d="M68.1,179.7c-2.5,0-4.5,2-4.5,4.5c0,2.5,2,4.5,4.5,4.5c2.5,0,4.5-2,4.5-4.5C72.6,181.7,70.5,179.7,68.1,179.7z
		 M68.1,184.7c-0.3,0-0.5-0.2-0.5-0.5c0-0.3,0.2-0.5,0.5-0.5c0.3,0,0.5,0.2,0.5,0.5C68.6,184.4,68.4,184.7,68.1,184.7z"/>
	<path class="st0" d="M68.1,222.7c-2.5,0-4.5,2-4.5,4.5c0,2.5,2,4.5,4.5,4.5c2.5,0,4.5-2,4.5-4.5C72.6,224.7,70.5,222.7,68.1,222.7z
		 M68.1,227.7c-0.3,0-0.5-0.2-0.5-0.5c0-0.3,0.2-0.5,0.5-0.5c0.3,0,0.5,0.2,0.5,0.5C68.6,227.4,68.4,227.7,68.1,227.7z"/>
	<path class="st0" d="M89.6,162.7c-2.5,0-4.5,2-4.5,4.5c0,2.5,2,4.5,4.5,4.5c2.5,0,4.5-2,4.5-4.5C94.1,164.7,92,162.7,89.6,162.7z
		 M89.6,167.7c-0.3,0-0.5-0.2-0.5-0.5c0-0.3,0.2-0.5,0.5-0.5c0.3,0,0.5,0.2,0.5,0.5C90.1,167.5,89.9,167.7,89.6,167.7z"/>
	<path class="st0" d="M29.6,116.1c-2.5,0-4.5,2-4.5,4.5c0,2.5,2,4.5,4.5,4.5c2.5,0,4.5-2,4.5-4.5C34.1,118.2,32.1,116.1,29.6,116.1z
		 M29.6,121.1c-0.3,0-0.5-0.2-0.5-0.5c0-0.3,0.2-0.5,0.5-0.5c0.3,0,0.5,0.2,0.5,0.5C30.1,120.9,29.9,121.1,29.6,121.1z"/>
	<path class="st0" d="M94.1,206.2c-2.5,0-4.5,2-4.5,4.5c0,2.5,2,4.5,4.5,4.5c2.5,0,4.5-2,4.5-4.5C98.6,208.2,96.5,206.2,94.1,206.2z
		 M94.1,211.2c-0.3,0-0.5-0.2-0.5-0.5c0-0.3,0.2-0.5,0.5-0.5c0.3,0,0.5,0.2,0.5,0.5C94.6,211,94.4,211.2,94.1,211.2z"/>
	<path class="st0" d="M120.4,172.6c-2.5,0-4.5,1.9-4.5,4.3c0,2.4,2,4.3,4.5,4.3c2.5,0,4.5-1.9,4.5-4.3
		C124.9,174.5,122.9,172.6,120.4,172.6z M120.4,177.6c-0.2,0-0.5-0.3-0.5-0.7c0-0.4,0.3-0.7,0.5-0.7c0.2,0,0.5,0.3,0.5,0.7
		C120.9,177.2,120.6,177.6,120.4,177.6z"/>
	<path class="st0" d="M147.5,120.5c-2.5,0-4.5,1.9-4.5,4.3s2,4.3,4.5,4.3c2.5,0,4.5-1.9,4.5-4.3S150,120.5,147.5,120.5z
		 M147.5,125.5c-0.2,0-0.5-0.3-0.5-0.7s0.3-0.7,0.5-0.7c0.2,0,0.5,0.3,0.5,0.7S147.8,125.5,147.5,125.5z"/>
	<path class="st0" d="M149.8,145.5c-2.5,0-4.5,2-4.5,4.5c0,2.5,2,4.5,4.5,4.5c2.5,0,4.5-2,4.5-4.5
		C154.3,147.5,152.3,145.5,149.8,145.5z M149.8,150.5c-0.3,0-0.5-0.2-0.5-0.5c0-0.3,0.2-0.5,0.5-0.5c0.3,0,0.5,0.2,0.5,0.5
		C150.3,150.3,150.1,150.5,149.8,150.5z"/>
	<path class="st0" d="M138.8,189.6c-2.5,0-4.5,2-4.5,4.5c0,2.5,2,4.5,4.5,4.5c2.5,0,4.5-2,4.5-4.5
		C143.2,191.6,141.2,189.6,138.8,189.6z M138.8,194.6c-0.3,0-0.5-0.2-0.5-0.5c0-0.3,0.2-0.5,0.5-0.5c0.3,0,0.5,0.2,0.5,0.5
		C139.3,194.3,139,194.6,138.8,194.6z"/>
	<path class="st0" d="M134.5,212.2c-2.5,0-4.5,2-4.5,4.5c0,2.5,2,4.5,4.5,4.5c2.5,0,4.5-2,4.5-4.5C139,214.2,137,212.2,134.5,212.2z
		 M134.5,217.2c-0.3,0-0.5-0.2-0.5-0.5c0-0.3,0.2-0.5,0.5-0.5c0.3,0,0.5,0.2,0.5,0.5C135.1,216.9,134.8,217.2,134.5,217.2z"/>
	<path class="st0" d="M107.7,230.8c-2.5,0-4.5,2-4.5,4.5c0,2.5,2,4.5,4.5,4.5c2.5,0,4.5-2,4.5-4.5
		C112.2,232.8,110.2,230.8,107.7,230.8z M107.7,235.8c-0.3,0-0.5-0.2-0.5-0.5c0-0.3,0.2-0.5,0.5-0.5c0.3,0,0.5,0.2,0.5,0.5
		C108.2,235.5,108,235.8,107.7,235.8z"/>
	<path class="st0" d="M53.4,255.7c-2.5,0-4.5,2-4.5,4.5c0,2.5,2,4.5,4.5,4.5c2.5,0,4.5-2,4.5-4.5C57.9,257.7,55.9,255.7,53.4,255.7z
		 M53.4,260.7c-0.3,0-0.5-0.2-0.5-0.5c0-0.3,0.2-0.5,0.5-0.5c0.3,0,0.5,0.2,0.5,0.5C53.9,260.4,53.7,260.7,53.4,260.7z"/>
	<path class="st0" d="M116.4,199.5c-2.5,0-4.5,2-4.5,4.5c0,2.5,2,4.5,4.5,4.5c2.5,0,4.5-2,4.5-4.5
		C120.9,201.5,118.9,199.5,116.4,199.5z M116.4,204.5c-0.3,0-0.5-0.2-0.5-0.5c0-0.3,0.2-0.5,0.5-0.5c0.3,0,0.5,0.2,0.5,0.5
		C116.9,204.3,116.7,204.5,116.4,204.5z"/>
	<path class="st0" d="M97.2,144.1c-2.5,0-4.5,2-4.5,4.5c0,2.5,2,4.5,4.5,4.5c2.5,0,4.5-2,4.5-4.5C101.7,146.1,99.7,144.1,97.2,144.1
		z M97.2,149.1c-0.3,0-0.5-0.2-0.5-0.5c0-0.3,0.2-0.5,0.5-0.5c0.3,0,0.5,0.2,0.5,0.5C97.7,148.8,97.5,149.1,97.2,149.1z"/>
	<path class="st0" d="M152.2,172.7c-2.5,0-4.5,2-4.5,4.5c0,2.5,2,4.5,4.5,4.5c2.5,0,4.5-2,4.5-4.5
		C156.7,174.7,154.6,172.7,152.2,172.7z M152.2,177.7c-0.3,0-0.5-0.2-0.5-0.5c0-0.3,0.2-0.5,0.5-0.5c0.3,0,0.5,0.2,0.5,0.5
		C152.7,177.5,152.4,177.7,152.2,177.7z"/>
	<path class="st0" d="M123.9,147.8c-2.5,0-4.5,2-4.5,4.5c0,2.5,2,4.5,4.5,4.5c2.5,0,4.5-2,4.5-4.5
		C128.4,149.8,126.4,147.8,123.9,147.8z M123.9,152.8c-0.3,0-0.5-0.2-0.5-0.5c0-0.3,0.2-0.5,0.5-0.5c0.3,0,0.5,0.2,0.5,0.5
		C124.4,152.6,124.2,152.8,123.9,152.8z"/>
	<path class="st0" d="M114.4,258.1c-2.5,0-4.5,2-4.5,4.5c0,2.5,2,4.5,4.5,4.5c2.5,0,4.5-2,4.5-4.5
		C118.9,260.1,116.9,258.1,114.4,258.1z M114.4,263.1c-0.3,0-0.5-0.2-0.5-0.5c0-0.3,0.2-0.5,0.5-0.5c0.3,0,0.5,0.2,0.5,0.5
		C114.9,262.8,114.7,263.1,114.4,263.1z"/>
	<path class="st0" d="M86.2,245.6c-2.5,0-4.5,2-4.5,4.5c0,2.5,2,4.5,4.5,4.5c2.5,0,4.5-2,4.5-4.5C90.6,247.6,88.6,245.6,86.2,245.6z
		 M86.2,250.6c-0.3,0-0.5-0.2-0.5-0.5c0-0.3,0.2-0.5,0.5-0.5c0.3,0,0.5,0.2,0.5,0.5C86.7,250.4,86.4,250.6,86.2,250.6z"/>
	<path class="st0" d="M132.6,244.2c-2.5,0-4.5,2-4.5,4.5c0,2.5,2,4.5,4.5,4.5c2.5,0,4.5-2,4.5-4.5C137,246.2,135,244.2,132.6,244.2z
		 M132.6,249.2c-0.3,0-0.5-0.2-0.5-0.5c0-0.3,0.2-0.5,0.5-0.5c0.3,0,0.5,0.2,0.5,0.5C133.1,248.9,132.8,249.2,132.6,249.2z"/>
	<path class="st0" d="M154,227.2c-2.5,0-4.5,2-4.5,4.5c0,2.5,2,4.5,4.5,4.5c2.5,0,4.5-2,4.5-4.5C158.5,229.2,156.5,227.2,154,227.2z
		 M154,232.2c-0.3,0-0.5-0.2-0.5-0.5c0-0.3,0.2-0.5,0.5-0.5c0.3,0,0.5,0.2,0.5,0.5C154.6,232,154.3,232.2,154,232.2z"/>
	<path class="st0" d="M94.1,180.6c-2.5,0-4.5,2-4.5,4.5c0,2.5,2,4.5,4.5,4.5c2.5,0,4.5-2,4.5-4.5C98.6,182.6,96.5,180.6,94.1,180.6z
		 M94.1,185.6c-0.3,0-0.5-0.2-0.5-0.5c0-0.3,0.2-0.5,0.5-0.5c0.3,0,0.5,0.2,0.5,0.5C94.6,185.4,94.4,185.6,94.1,185.6z"/>
	<path class="st0" d="M174.7,101.3c-5.7-3.2-12.3-5-19.2-5H42.2c-22.8,0-41.4,19.6-41.4,43.7c0,14.7,6.8,28.1,18.4,36.3v73.4
		c0,18.9,15.4,34.3,34.3,34.3h90.4c1.6,0,3.2-0.1,4.7-0.3c4.7-0.7,9.2-2.3,13.1-4.7c9.9-6,16.4-16.9,16.4-29.3v-73
		c1.9-1.3,3.6-2.7,5.2-4.2c8.7-8.2,13.7-19.8,13.7-32.4C196.9,123.2,187.9,108.6,174.7,101.3z M175.4,172.5L175.4,172.5
		c-0.4,0.3-0.8,0.5-1.2,0.8c-0.7,0.5-1.2,1.3-1.2,2.1v74.4c0,16.1-13.1,29.3-29.3,29.3H53.4c-16.1,0-29.3-13.1-29.3-29.3V175
		c0-0.8-0.4-1.6-1.1-2.1C12.2,165.8,5.8,153.5,5.8,140c0-21.4,16.3-38.7,36.4-38.7h113.4c20.1,0,36.4,17.4,36.4,38.7
		C191.9,153.2,185.8,165.3,175.4,172.5z"/>
	<path class="st0" d="M224.4,177.5C224.4,177.5,224.4,177.4,224.4,177.5c2.3-1.5,4.5-3.2,6.4-5c8.7-8.2,13.6-19.8,13.6-32.4
		c0-1.4-1.1-2.5-2.5-2.5s-2.5,1.1-2.5,2.5c0,13.2-6.2,25.3-16.6,32.4c-0.4,0.3-0.8,0.5-1.1,0.8c-1.2,0.7-1.5,2.3-0.8,3.4
		c0.2,0.3,0.5,0.6,0.8,0.8H224.4z"/>
	<path class="st0" d="M241.9,142.5c-1.4,0-2.5-1.1-2.5-2.5c0-21.4-16.3-38.7-36.4-38.7c-1.4,0-2.5-1.1-2.5-2.5s1.1-2.5,2.5-2.5
		c22.8,0,41.4,19.6,41.4,43.7C244.4,141.4,243.3,142.5,241.9,142.5z"/>
	<path class="st0" d="M240.1,284h-97.6c-1.4,0,4.8-1.1,4.8-2.5s1.1-2.5,2.5-2.5h90.4c16.1,0,29.3-13.1,29.3-29.3v-74.4
		c0-0.9,0.4-1.6,1.2-2.1c11.1-7.1,17.7-19.5,17.7-33.2c0-21.4-16.3-38.7-36.4-38.7H138.5c-1.4,0-2.5-1.1-2.5-2.5s1.1-2.5,2.5-2.5
		h113.4c22.8,0,41.4,19.6,41.4,43.7c0,14.9-7,28.5-18.9,36.6v73C274.4,268.6,259,284,240.1,284z"/>
	<path class="st0" d="M118.7,127.1c-2.5,0-4.5,2-4.5,4.5c0,2.5,2,4.5,4.5,4.5c2.5,0,4.5-2,4.5-4.5
		C123.2,129.1,121.2,127.1,118.7,127.1z M118.7,132.1c-0.3,0-0.5-0.2-0.5-0.5c0-0.3,0.2-0.5,0.5-0.5c0.3,0,0.5,0.2,0.5,0.5
		C119.2,131.9,119,132.1,118.7,132.1z"/>
	<path class="st0" d="M274,175c0,1.4-1.1,2.5-2.5,2.5h-96.2c-1,0-1.9-0.6-2.3-1.5v-0.6c0-0.9,0.4-1.6,1.2-2.1
		c0.4-0.3,0.8-0.5,1.1-0.8h96.2c0,0,0.1,0,0.2,0C273,172.5,274,173.6,274,175z"/>
</g>
</svg>
