<?xml version="1.0" standalone="no"?>
<!DOCTYPE svg PUBLIC "-//W3C//DTD SVG 1.1//EN" "http://www.w3.org/Graphics/SVG/1.1/DTD/svg11.dtd" >
<svg xmlns="http://www.w3.org/2000/svg" xmlns:xlink="http://www.w3.org/1999/xlink" version="1.1">
<metadata>
Created by FontForge 20161003 at Fri May 19 09:25:22 2017
 By www-data
Copyright (c) 2014 by Type Dynamic. All rights reserved.
</metadata>
<defs>
<font id="sailec_light" horiz-adv-x="246" >
  <font-face 
    font-family="sailec_light"
    font-weight="400"
    font-stretch="normal"
    units-per-em="1000"
    panose-1="0 0 4 0 0 0 0 0 0 0"
    ascent="800"
    descent="-200"
    x-height="506"
    cap-height="748"
    bbox="-205 -268 1194 1055"
    underline-thickness="50"
    underline-position="-100"
    unicode-range="U+000D-FB02"
  />
<missing-glyph horiz-adv-x="687" 
d="M598 0h-510v748h510v-748zM164 707l180 -295l180 295h-360zM132 72l186 302l-186 301v-603zM371 374l184 -298v596zM165 41h359l-180 295z" />
    <glyph glyph-name="fi" unicode="fi" horiz-adv-x="570" 
d="M118 608q0 80 42.5 126.5t119.5 46.5q20 0 32 -3v-49q-14 2 -26 2q-53 0 -83 -33t-30 -89v-103h137v-49h-137v-457h-55v457h-103v49h103v102zM406 698q0 17 12 29.5t29 12.5t29.5 -12.5t12.5 -29.5t-12.5 -29t-29.5 -12t-29 12t-12 29zM475 0h-56v506h56v-506z" />
    <glyph glyph-name="f_j" unicode="fj" horiz-adv-x="570" 
d="M118 608q0 80 42.5 126.5t119.5 46.5q20 0 32 -3v-49q-14 2 -26 2q-53 0 -83 -33t-30 -89v-103h137v-49h-137v-457h-55v457h-103v49h103v102zM406 698q0 17 12 29.5t29 12.5t29.5 -12.5t12.5 -29.5t-12.5 -29t-29.5 -12t-29 12t-12 29zM316 -210q52 0 78 31.5t26 88.5
v596h56v-594q0 -79 -40 -125t-114 -46q-11 0 -33 2v50q12 -3 27 -3z" />
    <glyph glyph-name=".notdef" horiz-adv-x="687" 
d="M598 0h-510v748h510v-748zM164 707l180 -295l180 295h-360zM132 72l186 302l-186 301v-603zM371 374l184 -298v596zM165 41h359l-180 295z" />
    <glyph glyph-name=".null" horiz-adv-x="0" 
 />
    <glyph glyph-name="nonmarkingreturn" horiz-adv-x="333" 
 />
    <glyph glyph-name="CR" unicode="&#xd;" horiz-adv-x="600" 
 />
    <glyph glyph-name="space" unicode=" " horiz-adv-x="245" 
 />
    <glyph glyph-name="exclam" unicode="!" horiz-adv-x="257" 
d="M157 189h-59l-3 559h65zM84 35q0 18 13 31t31 13q19 0 32 -12.5t13 -31.5t-13 -31.5t-32 -12.5q-18 0 -31 13t-13 31z" />
    <glyph glyph-name="quotedbl" unicode="&#x22;" horiz-adv-x="288" 
d="M104 532h-48l-9 204h66zM232 532h-49l-8 204h65z" />
    <glyph glyph-name="numbersign" unicode="#" horiz-adv-x="619" 
d="M481 531h128l-11 -46h-129l-53 -222h137l-11 -46h-136l-52 -217h-50l52 217h-170l-51 -217h-50l52 217h-128l11 46h128l53 222h-136l11 46h136l52 217h49l-52 -217h170l52 217h49zM250 485l-53 -222h170l53 222h-170z" />
    <glyph glyph-name="dollar" unicode="$" horiz-adv-x="652" 
d="M327 705q-83 0 -135.5 -39t-52.5 -110q0 -23 6 -42t14 -32t24 -24.5t28.5 -18t36 -13.5t36.5 -10.5t40 -9.5l15 -3q139 -31 199 -72t60 -132q0 -50 -18.5 -89.5t-52 -64.5t-77 -38.5t-95.5 -15.5v-109h-47v110q-102 7 -171 60.5t-76 144.5l60 4q7 -73 68.5 -115.5
t148.5 -42.5q89 0 144.5 37.5t55.5 114.5q0 18 -3.5 33.5t-9.5 27t-16 22t-19.5 18t-24.5 14.5t-26 11.5t-29.5 9.5t-30 7.5t-31.5 7t-30 6.5q-6 1 -25 6t-22.5 6t-17.5 4.5t-19 5.5t-16 5.5t-20 7.5t-20 9q-49 23 -74 60t-25 98q0 92 63.5 145t165.5 58v108h47v-109
q92 -7 152.5 -58t65.5 -137l-59 -4q-6 70 -57 109t-130 39z" />
    <glyph glyph-name="percent" unicode="%" horiz-adv-x="813" 
d="M42 584q0 75 43 124t114 49q72 0 114 -48t42 -125q0 -76 -42.5 -124.5t-113.5 -48.5t-114 49t-43 124zM161 0h-56l546 748h56zM313 584q0 58 -31 95t-84 37q-52 0 -83 -37.5t-31 -94.5t31 -95t83 -38q53 0 84 37.5t31 95.5zM457 165q0 75 42.5 123.5t113.5 48.5t114 -48
t43 -124t-43 -125t-114 -49q-70 0 -113 49.5t-43 124.5zM727 165q0 58 -30.5 95t-83.5 37t-83.5 -37t-30.5 -95q0 -57 31 -95t83 -38q53 0 83.5 37.5t30.5 95.5z" />
    <glyph glyph-name="ampersand" unicode="&#x26;" horiz-adv-x="685" 
d="M303 706q-60 0 -94.5 -33.5t-34.5 -93.5q0 -33 18 -69t39 -58q18 -18 65 -62l209 -193q43 73 75 188l52 -14q-35 -125 -88 -211l134 -124l-37 -45l-130 121q-95 -120 -234 -120q-69 0 -121 24t-82 71t-30 111q0 135 137 226q-66 74 -66 155q0 84 51 131t137 47
q51 0 91 -20t64.5 -55t30.5 -82l-58 -3q-7 50 -40.5 79.5t-87.5 29.5zM104 203q0 -37 12.5 -67.5t35.5 -50.5t55 -31t71 -11q112 0 194 105q-16 15 -111 104t-145 136q-112 -74 -112 -185z" />
    <glyph glyph-name="quotesingle" unicode="'" horiz-adv-x="160" 
d="M104 532h-48l-9 204h66z" />
    <glyph glyph-name="parenleft" unicode="(" horiz-adv-x="234" 
d="M98 320q0 -214 114 -385l-49 -19q-121 181 -121 404q0 225 121 404l49 -18q-114 -171 -114 -386z" />
    <glyph glyph-name="parenright" unicode=")" horiz-adv-x="234" 
d="M136 320q0 215 -114 386l48 18q122 -177 122 -404q0 -225 -122 -404l-48 19q114 171 114 385z" />
    <glyph glyph-name="asterisk" unicode="*" horiz-adv-x="315" 
d="M141 753h33l-1 -125l119 40l11 -32l-119 -38l74 -100l-28 -21l-73 102l-73 -103l-27 22l74 100l-119 38l10 32l119 -40v125z" />
    <glyph glyph-name="plus" unicode="+" horiz-adv-x="546" 
d="M300 395h211v-51h-211v-216h-55v216h-212v51h212v209h55v-209z" />
    <glyph glyph-name="comma" unicode="," horiz-adv-x="181" 
d="M49 35q0 18 12 30.5t30 12.5q41 0 41 -51q0 -112 -92 -169v27q50 40 53 107h-1q-17 0 -30 13t-13 30z" />
    <glyph glyph-name="hyphen" unicode="-" horiz-adv-x="401" 
d="M356 235h-311v53h311v-53z" />
    <glyph glyph-name="period" unicode="." horiz-adv-x="184" 
d="M48 35q0 19 12.5 31.5t30.5 12.5q19 0 32 -12.5t13 -31.5t-13 -31.5t-32 -12.5q-18 0 -30.5 12.5t-12.5 31.5z" />
    <glyph glyph-name="slash" unicode="/" horiz-adv-x="337" 
d="M71 -67h-59l256 815h57z" />
    <glyph glyph-name="zero" unicode="0" horiz-adv-x="641" 
d="M59 374q0 109 25 192t86 137t151 54q68 0 119.5 -30.5t82 -84t45 -121t14.5 -147.5t-15 -147t-45 -121t-81.5 -84.5t-119.5 -30.5t-120 30.5t-82 84t-45 121t-15 147.5zM523 374q0 69 -10.5 126t-33 104t-63 73.5t-96.5 26.5t-96.5 -26.5t-62.5 -74t-32 -104t-10 -125.5
t10 -125.5t32 -104t62.5 -74t96.5 -26.5t96.5 26.5t63 74t33 104t10.5 125.5z" />
    <glyph glyph-name="one" unicode="1" horiz-adv-x="361" 
d="M262 0h-58v665l-154 -122l-31 45l199 160h44v-748z" />
    <glyph glyph-name="two" unicode="2" horiz-adv-x="533" 
d="M57 534q2 105 58.5 164t159.5 59q97 0 151.5 -55.5t54.5 -152.5q0 -88 -38 -156t-115 -147l-188 -193h352v-53h-432v47l224 232q74 77 106 134.5t32 133.5q0 72 -38.5 114.5t-108.5 42.5q-77 0 -117 -46t-42 -127z" />
    <glyph glyph-name="three" unicode="3" horiz-adv-x="551" 
d="M58 551q5 96 61 151t154 55q94 0 150.5 -53.5t56.5 -144.5q0 -64 -33 -110.5t-84 -60.5q63 -13 100.5 -61t37.5 -121q0 -99 -62 -157t-163 -58q-104 0 -162.5 57t-67.5 158l59 3q9 -78 51.5 -121.5t119.5 -43.5q76 0 121 43.5t45 118.5t-46.5 114.5t-126.5 39.5h-72v53
h71q67 0 109.5 40t42.5 106q0 68 -39.5 106.5t-107.5 38.5q-71 0 -111 -42t-45 -114z" />
    <glyph glyph-name="four" unicode="4" horiz-adv-x="592" 
d="M424 254h142v-53h-142v-201h-57v201h-341v48l350 499h48v-494zM367 254v388l-274 -388h274z" />
    <glyph glyph-name="five" unicode="5" horiz-adv-x="554" 
d="M445 223q0 78 -45.5 126.5t-121.5 48.5q-80 0 -148 -54h-55v404h400v-52h-342v-293q66 48 150 48q99 0 159.5 -62.5t60.5 -164.5q0 -105 -61.5 -169t-165.5 -64q-102 0 -160.5 56t-67.5 155l59 3q9 -75 51 -118t118 -43q78 0 123.5 49.5t45.5 129.5z" />
    <glyph glyph-name="six" unicode="6" horiz-adv-x="584" 
d="M294 -9q-107 0 -175.5 66t-68.5 172q0 88 49 153l282 366h69l-218 -285q35 7 62 7q106 0 174.5 -67.5t68.5 -173.5t-68.5 -172t-174.5 -66zM110 231q0 -83 51 -135t133 -52q81 0 132 52t51 135t-51 134.5t-132 51.5q-83 0 -133.5 -50t-50.5 -136z" />
    <glyph glyph-name="seven" unicode="7" horiz-adv-x="539" 
d="M25 696v52h492v-48l-381 -700h-65l380 696h-426z" />
    <glyph glyph-name="eight" unicode="8" horiz-adv-x="591" 
d="M78 562q0 90 61 142.5t156 52.5q94 0 155.5 -53t61.5 -142q0 -61 -31.5 -106t-80.5 -64q56 -19 92.5 -69.5t36.5 -119.5q0 -97 -66 -154.5t-168 -57.5t-168 57.5t-66 154.5q0 46 17.5 85.5t46 65t65.5 38.5q-49 18 -80.5 63t-31.5 107zM453 559q0 66 -44 105.5t-113 39.5
t-114 -39.5t-45 -105.5q0 -65 45 -104t114 -39q68 0 112.5 39t44.5 104zM470 204q0 73 -49.5 116t-125.5 43t-125.5 -43t-49.5 -116q0 -72 50 -116t125 -44q76 0 125.5 44t49.5 116z" />
    <glyph glyph-name="nine" unicode="9" horiz-adv-x="584" 
d="M47 519q0 106 68.5 172t174.5 66q107 0 175.5 -66t68.5 -172q0 -88 -49 -153l-282 -366h-69l218 285q-35 -7 -62 -7q-106 0 -174.5 67.5t-68.5 173.5zM107 517q0 -83 51 -134.5t132 -51.5q83 0 133.5 50t50.5 136q0 83 -51 135t-133 52q-81 0 -132 -52t-51 -135z" />
    <glyph glyph-name="colon" unicode=":" horiz-adv-x="184" 
d="M45 470q0 19 12.5 32t30.5 13q19 0 32 -13t13 -32q0 -18 -13 -31t-32 -13q-18 0 -30.5 13t-12.5 31zM45 35q0 19 12.5 31.5t30.5 12.5q19 0 32 -12.5t13 -31.5t-13 -31.5t-32 -12.5q-18 0 -30.5 12.5t-12.5 31.5z" />
    <glyph glyph-name="semicolon" unicode=";" horiz-adv-x="184" 
d="M133 470q0 -18 -13 -31t-32 -13q-18 0 -30.5 13t-12.5 31q0 19 12.5 32t30.5 13q19 0 32 -13t13 -32zM49 35q0 18 12 30.5t30 12.5q41 0 41 -51q0 -112 -92 -169v27q50 40 53 107h-1q-17 0 -30 13t-13 30z" />
    <glyph glyph-name="less" unicode="&#x3c;" horiz-adv-x="508" 
d="M475 521l-336 -152l336 -152l-2 -62l-446 214l446 214z" />
    <glyph glyph-name="equal" unicode="=" horiz-adv-x="546" 
d="M511 459h-478v53h478v-53zM511 222h-478v53h478v-53z" />
    <glyph glyph-name="greater" unicode="&#x3e;" horiz-adv-x="508" 
d="M481 369l-446 -214l-2 62l336 152l-336 152l2 62z" />
    <glyph glyph-name="question" unicode="?" horiz-adv-x="485" 
d="M18 566q8 89 68 140.5t157 51.5q99 0 159.5 -57.5t60.5 -152.5q0 -63 -26.5 -102t-83.5 -79q-49 -37 -68 -69.5t-19 -82.5v-26h-59v29q0 54 21 91.5t75 79.5q51 37 75 71t24 87q0 71 -43.5 114.5t-115.5 43.5q-73 0 -115 -37.5t-50 -105.5zM191 35q0 12 6 22t16 16t22 6
q19 0 32 -12.5t13 -31.5t-13 -31.5t-32 -12.5q-18 0 -31 13t-13 31z" />
    <glyph glyph-name="at" unicode="@" horiz-adv-x="799" 
d="M82 245q0 -136 90 -226t225 -90q107 0 188 53l10 -36q-86 -55 -198 -55q-151 0 -252.5 100.5t-101.5 253.5q0 152 101.5 253.5t254.5 101.5q151 0 253.5 -102t102.5 -253q0 -86 -32.5 -142.5t-99.5 -56.5q-76 0 -87 71q-45 -74 -149 -74q-86 0 -136.5 57t-50.5 149
q0 93 50 150t137 57q110 0 149 -79v69h42v-298q0 -64 54 -64q45 0 64.5 47t19.5 114q0 136 -91 227.5t-226 91.5q-137 0 -227 -91t-90 -228zM245 249q0 -75 39.5 -121t108.5 -46q68 0 104.5 41t36.5 113v27q0 72 -36.5 112.5t-104.5 40.5q-70 0 -109 -45.5t-39 -121.5z" />
    <glyph glyph-name="A" unicode="A" horiz-adv-x="707" 
d="M688 0h-65l-88 217h-362l-89 -217h-65l309 748h51zM194 267h319l-159 390z" />
    <glyph glyph-name="B" unicode="B" horiz-adv-x="676" 
d="M611 202q0 -96 -61 -149t-162 -53h-290v748h262q99 0 158.5 -50.5t59.5 -143.5q0 -121 -85 -166q53 -19 85.5 -68t32.5 -118zM518 550q0 70 -45 108t-119 38h-197v-286h230q64 0 97.5 36t33.5 104zM551 205q0 72 -43.5 112.5t-115.5 40.5h-235v-305h225q77 0 123 39
t46 113z" />
    <glyph glyph-name="C" unicode="C" horiz-adv-x="799" 
d="M755 249q-21 -117 -110 -187.5t-222 -70.5q-159 0 -261 102.5t-102 280.5q0 179 100.5 281t259.5 102q134 0 226 -75.5t108 -196.5l-61 -6q-13 101 -88.5 163t-186.5 62q-92 0 -160 -42.5t-103 -116.5t-35 -171q0 -155 85 -242.5t216 -87.5q110 0 182.5 57t90.5 153z" />
    <glyph glyph-name="D" unicode="D" horiz-adv-x="797" 
d="M98 748h284q156 0 255 -100t99 -274q0 -173 -100.5 -273.5t-255.5 -100.5h-282v748zM677 374q0 146 -78.5 234.5t-216.5 88.5h-225v-646h223q138 0 217.5 88.5t79.5 234.5z" />
    <glyph glyph-name="E" unicode="E" horiz-adv-x="588" 
d="M551 696h-394v-282h350v-52h-350v-309h394v-53h-453v748h453v-52z" />
    <glyph glyph-name="F" unicode="F" horiz-adv-x="580" 
d="M552 696h-395v-289h332v-52h-332v-355h-59v748h454v-52z" />
    <glyph glyph-name="G" unicode="G" horiz-adv-x="814" 
d="M120 374q0 -148 79.5 -239t217.5 -91q127 0 199 71t79 198h-274v53h336v-22q0 -163 -90.5 -258t-248.5 -95q-156 0 -257 102.5t-101 280.5q0 179 100 281t257 102q134 0 226 -73.5t109 -194.5l-61 -10q-13 101 -88 163t-186 62q-139 0 -218 -90.5t-79 -239.5z" />
    <glyph glyph-name="H" unicode="H" horiz-adv-x="748" 
d="M651 0h-60v363h-434v-363h-59v748h59v-332h434v332h60v-748z" />
    <glyph glyph-name="I" unicode="I" horiz-adv-x="255" 
d="M157 0h-59v748h59v-748z" />
    <glyph glyph-name="J" unicode="J" horiz-adv-x="561" 
d="M252 44q78 0 118.5 47t40.5 130v527h59v-526q0 -108 -57 -169.5t-161 -61.5q-102 0 -161.5 60.5t-64.5 162.5l59 9q4 -81 47 -130t120 -49z" />
    <glyph glyph-name="K" unicode="K" horiz-adv-x="653" 
d="M157 0h-59v748h59v-379l353 379h76l-300 -323l346 -425h-74l-311 379l-90 -97v-282z" />
    <glyph glyph-name="L" unicode="L" horiz-adv-x="591" 
d="M157 53h400v-53h-459v748h59v-695z" />
    <glyph glyph-name="M" unicode="M" horiz-adv-x="985" 
d="M887 0h-59v612l-315 -609h-39l-317 609v-612h-59v748h50l345 -658l344 658h50v-748z" />
    <glyph glyph-name="N" unicode="N" horiz-adv-x="743" 
d="M645 0h-50l-438 637v-637h-59v748h49l438 -638v638h60v-748z" />
    <glyph glyph-name="O" unicode="O" horiz-adv-x="861" 
d="M431 757q159 0 264 -104t105 -279t-105 -279t-264 -104q-160 0 -265.5 104t-105.5 279t105.5 279t265.5 104zM431 704q-134 0 -222 -89t-88 -241t88 -241t222 -89q133 0 221 89t88 241t-88 241t-221 89z" />
    <glyph glyph-name="P" unicode="P" horiz-adv-x="640" 
d="M599 529q0 -101 -61.5 -160t-162.5 -59h-218v-310h-59v748h277q101 0 162.5 -59t61.5 -160zM538 529q0 78 -46.5 122.5t-123.5 44.5h-211v-334h211q76 0 123 45t47 122z" />
    <glyph glyph-name="Q" unicode="Q" horiz-adv-x="863" 
d="M431 757q159 0 264 -104t105 -279q0 -164 -95 -269l139 -138l-41 -43l-142 141q-96 -74 -230 -74q-160 0 -265.5 104t-105.5 279t105.5 279t265.5 104zM740 374q0 152 -88 241t-221 89q-134 0 -222 -89t-88 -241t88 -241t222 -89q111 0 190 61l-166 166l41 42l168 -167
q76 91 76 228z" />
    <glyph glyph-name="R" unicode="R" horiz-adv-x="675" 
d="M594 532q0 -81 -38.5 -133.5t-105.5 -72.5l184 -326h-66l-179 316l-18 -1h-214v-315h-59v748h273q101 0 162 -57.5t61 -158.5zM534 532q0 77 -46.5 120.5t-123.5 43.5h-207v-328h207q77 0 123.5 43.5t46.5 120.5z" />
    <glyph glyph-name="S" unicode="S" horiz-adv-x="652" 
d="M79 554q0 96 68.5 149.5t178.5 53.5q105 0 173 -52t74 -144l-59 -4q-6 70 -57 109t-130 39q-54 0 -96 -16.5t-67 -50.5t-25 -82q0 -23 6 -42t14 -32t24 -24.5t28.5 -18t36 -13.5t36.5 -10.5t40 -9.5l15 -3q139 -31 199 -72t60 -132q0 -102 -72.5 -155t-187.5 -53
t-192.5 54.5t-84.5 151.5l60 4q7 -73 68.5 -115.5t148.5 -42.5q89 0 144.5 37.5t55.5 114.5q0 23 -6 41.5t-14.5 32t-25 25t-29.5 18t-36.5 14t-37 10.5l-40.5 9q-21 5 -31 7q-6 1 -25 6t-22.5 6t-17.5 4.5t-19 5.5t-16 5.5t-20 7.5t-20 9q-49 23 -74 60t-25 98z" />
    <glyph glyph-name="T" unicode="T" horiz-adv-x="677" 
d="M660 696h-292v-696h-59v696h-292v52h643v-52z" />
    <glyph glyph-name="U" unicode="U" horiz-adv-x="758" 
d="M378 44q109 0 169 58.5t60 167.5v478h59v-479q0 -133 -76.5 -205.5t-211.5 -72.5t-211 72.5t-76 205.5v479h59v-478q0 -109 59.5 -167.5t168.5 -58.5z" />
    <glyph glyph-name="V" unicode="V" horiz-adv-x="725" 
d="M388 0h-51l-313 748h65l274 -657l273 657h65z" />
    <glyph glyph-name="W" unicode="W" horiz-adv-x="1115" 
d="M829 0h-50l-222 639l-221 -639h-50l-262 748h65l223 -646l221 646h49l222 -646l223 646h63z" />
    <glyph glyph-name="X" unicode="X" horiz-adv-x="673" 
d="M380 381l265 -381h-70l-239 340l-239 -340h-68l265 381l-254 367h68l228 -327l229 327h69z" />
    <glyph glyph-name="Y" unicode="Y" horiz-adv-x="666" 
d="M362 0h-59v322l-283 426h69l244 -368l244 368h68l-283 -426v-322z" />
    <glyph glyph-name="Z" unicode="Z" horiz-adv-x="614" 
d="M579 53v-53h-542v45l459 651h-441v52h517v-45l-459 -650h466z" />
    <glyph glyph-name="bracketleft" unicode="[" horiz-adv-x="243" 
d="M220 671h-103v-701h103v-47h-159v795h159v-47z" />
    <glyph glyph-name="backslash" unicode="\" horiz-adv-x="337" 
d="M325 -67h-59l-254 815h58z" />
    <glyph glyph-name="bracketright" unicode="]" horiz-adv-x="243" 
d="M183 -77h-160v47h104v701h-104v47h160v-795z" />
    <glyph glyph-name="asciicircum" unicode="^" horiz-adv-x="534" 
d="M501 374h-63l-171 296l-172 -296h-63l235 386z" />
    <glyph glyph-name="underscore" unicode="_" horiz-adv-x="683" 
d="M638 -53h-593v53h593v-53z" />
    <glyph glyph-name="grave" unicode="`" horiz-adv-x="220" 
d="M199 593h-45l-131 191h64z" />
    <glyph glyph-name="a" unicode="a" horiz-adv-x="535" 
d="M261 464q-57 0 -94.5 -35.5t-37.5 -90.5l-57 2q0 70 51 122.5t137 52.5q89 0 136.5 -50.5t47.5 -141.5v-323h-57v76q-56 -85 -168 -85q-73 0 -117 36t-44 103q0 137 185 147l144 9v36q0 68 -31.5 105t-94.5 37zM227 40q77 0 119 46t42 129v23l-139 -8q-135 -8 -135 -99
t113 -91z" />
    <glyph glyph-name="b" unicode="b" horiz-adv-x="645" 
d="M342 -9q-68 0 -119.5 29t-74.5 77v-97h-53v777h56v-365q23 47 73.5 75t117.5 28q110 0 177.5 -73.5t67.5 -189.5q0 -115 -67.5 -188t-177.5 -73zM531 253q0 94 -52.5 153t-141.5 59q-87 0 -136.5 -52.5t-49.5 -142.5v-34q0 -91 49.5 -143.5t136.5 -52.5q88 0 141 59.5
t53 153.5z" />
    <glyph glyph-name="c" unicode="c" horiz-adv-x="570" 
d="M58 253q0 117 66 189.5t177 72.5q90 0 151 -51.5t71 -134.5l-55 -5q-7 64 -52.5 103t-114.5 39q-87 0 -136.5 -59t-49.5 -154q0 -94 50 -153.5t137 -59.5q69 0 113 35t54 96l55 -4q-14 -81 -72.5 -128.5t-149.5 -47.5q-111 0 -177.5 72.5t-66.5 189.5z" />
    <glyph glyph-name="d" unicode="d" horiz-adv-x="645" 
d="M303 515q67 0 117.5 -28t73.5 -75v365h56v-777h-54v97q-23 -49 -73.5 -77.5t-119.5 -28.5q-111 0 -178 72.5t-67 188.5t67 189.5t178 73.5zM493 270q0 91 -49 143t-136 52q-89 0 -141.5 -58.5t-52.5 -153.5t52.5 -154t141.5 -59q86 0 135.5 53t49.5 143v34z" />
    <glyph glyph-name="e" unicode="e" horiz-adv-x="587" 
d="M302 515q107 0 167.5 -68t60.5 -179v-36h-413q2 -85 52.5 -138.5t132.5 -53.5q66 0 109.5 29t57.5 82l56 -4q-18 -71 -77 -113.5t-144 -42.5q-112 0 -179 72.5t-67 189.5t66 189.5t178 72.5zM475 279q0 85 -45.5 135.5t-128.5 50.5q-82 0 -131.5 -51t-52.5 -135h358z" />
    <glyph glyph-name="f" unicode="f" horiz-adv-x="324" 
d="M118 608q0 80 42.5 126.5t119.5 46.5q20 0 32 -3v-49q-14 2 -26 2q-53 0 -83 -33t-30 -89v-103h137v-49h-137v-457h-55v457h-103v49h103v102z" />
    <glyph glyph-name="g" unicode="g" horiz-adv-x="642" 
d="M58 253q0 116 67.5 189t177.5 73q68 0 119 -29.5t74 -77.5v98h54v-540q0 -105 -64.5 -167t-171.5 -62q-63 0 -113 21t-82 59.5t-43 90.5l57 2q11 -57 60.5 -91.5t118.5 -34.5q55 0 96 21.5t63.5 61.5t22.5 95v132q-23 -47 -73.5 -75t-117.5 -28q-110 0 -177.5 73
t-67.5 189zM493 270q0 91 -49 143t-136 52q-89 0 -141.5 -58.5t-52.5 -154.5q0 -95 52.5 -153.5t141.5 -58.5q86 0 135.5 52.5t49.5 142.5v35z" />
    <glyph glyph-name="h" unicode="h" horiz-adv-x="596" 
d="M308 463q-66 0 -111.5 -46.5t-45.5 -112.5v-304h-56v777h56v-354q19 40 64 66t102 26q87 0 141 -57.5t54 -146.5v-311h-56v304q0 70 -40.5 114.5t-107.5 44.5z" />
    <glyph glyph-name="i" unicode="i" 
d="M82 698q0 17 12 29.5t29 12.5t29.5 -12.5t12.5 -29.5t-12.5 -29t-29.5 -12t-29 12t-12 29zM151 0h-56v506h56v-506z" />
    <glyph glyph-name="j" unicode="j" 
d="M82 698q0 17 12 29.5t29 12.5t29.5 -12.5t12.5 -29.5t-12.5 -29t-29.5 -12t-29 12t-12 29zM-8 -210q52 0 78 31.5t26 88.5v596h56v-594q0 -79 -40 -125t-114 -46q-11 0 -33 2v50q12 -3 27 -3z" />
    <glyph glyph-name="k" unicode="k" horiz-adv-x="515" 
d="M151 0h-56v777h56v-515l253 244h71l-226 -222l254 -284h-74l-220 244l-58 -57v-187z" />
    <glyph glyph-name="l" unicode="l" 
d="M151 0h-56v777h56v-777z" />
    <glyph glyph-name="m" unicode="m" horiz-adv-x="937" 
d="M482 405q21 49 67.5 79.5t108.5 30.5q85 0 137 -57.5t52 -145.5v-312h-56v304q0 70 -38 114.5t-104 44.5t-108 -46t-42 -113v-304h-57v304q0 69 -38 114t-102 45q-66 0 -108.5 -46t-42.5 -113v-304h-56v506h53v-87q19 42 62.5 69t100.5 27q62 0 106 -30t65 -80z" />
    <glyph glyph-name="n" unicode="n" horiz-adv-x="604" 
d="M149 420q19 41 64.5 68t103.5 27q87 0 141 -57.5t54 -146.5v-311h-56v304q0 70 -40.5 114.5t-107.5 44.5q-66 0 -111.5 -46.5t-45.5 -112.5v-304h-56v506h54v-86z" />
    <glyph glyph-name="o" unicode="o" horiz-adv-x="627" 
d="M58 253q0 115 71 188.5t184 73.5t184.5 -73.5t71.5 -188.5t-71.5 -188.5t-184.5 -73.5t-184 73.5t-71 188.5zM512 253q0 94 -55 153t-144 59q-90 0 -144.5 -59t-54.5 -153q0 -62 24.5 -110t70 -75.5t104.5 -27.5q89 0 144 59.5t55 153.5z" />
    <glyph glyph-name="p" unicode="p" horiz-adv-x="645" 
d="M148 408q24 48 75 77.5t119 29.5q110 0 177.5 -73t67.5 -189t-67.5 -189t-177.5 -73q-67 0 -117.5 28t-73.5 75v-349h-56v761h53v-98zM531 252q0 95 -52.5 154t-141.5 59q-87 0 -136.5 -52.5t-49.5 -142.5v-35q0 -90 49.5 -142.5t136.5 -52.5q88 0 141 59t53 153z" />
    <glyph glyph-name="q" unicode="q" horiz-adv-x="645" 
d="M58 253q0 116 67.5 189t177.5 73q68 0 119 -29.5t74 -77.5v98h54v-761h-56v349q-23 -47 -73.5 -75t-117.5 -28q-110 0 -177.5 73t-67.5 189zM493 270q0 91 -49 143t-136 52q-89 0 -141.5 -58.5t-52.5 -154.5q0 -95 52.5 -153.5t141.5 -58.5q86 0 135.5 52.5t49.5 142.5
v35z" />
    <glyph glyph-name="r" unicode="r" horiz-adv-x="321" 
d="M303 459q-67 0 -109.5 -42.5t-42.5 -108.5v-308h-56v506h54v-83q15 40 57 65t97 25v-54z" />
    <glyph glyph-name="s" unicode="s" horiz-adv-x="495" 
d="M239 465q-54 1 -86 -22.5t-32 -70.5q0 -37 22 -52q10 -7 25.5 -12.5t24.5 -8.5t32.5 -8.5t28.5 -6.5q93 -22 135 -51t42 -92q0 -73 -51 -111.5t-133 -38.5q-81 0 -132 37.5t-61 106.5l56 4q8 -49 44 -74t94 -25q57 0 92 24t35 73q0 45 -30 63.5t-114 37.5q-39 9 -73 19
q-6 2 -11 3.5t-8.5 2.5t-6.5 2.5l-5 2.5t-5.5 3.5t-5.5 3.5t-7 4.5t-7 5.5q-37 24 -37 86q0 70 48.5 107t127.5 36q50 1 88 -16.5t60 -49.5t28 -76l-56 -4q-6 47 -37.5 72.5t-84.5 24.5z" />
    <glyph glyph-name="t" unicode="t" horiz-adv-x="333" 
d="M249 -5q-70 0 -105.5 39.5t-35.5 113.5l1 309h-96v49h96l1 179h57l-1 -179h145v-49h-145l-2 -299q0 -112 96 -112q20 0 53 5v-51q-25 -5 -64 -5z" />
    <glyph glyph-name="u" unicode="u" horiz-adv-x="585" 
d="M286 44q65 0 106.5 45.5t41.5 112.5v304h56v-506h-53v86q-19 -42 -61.5 -68.5t-99.5 -26.5q-85 0 -135 56t-50 145v314h55v-307q0 -70 37 -112.5t103 -42.5z" />
    <glyph glyph-name="v" unicode="v" horiz-adv-x="509" 
d="M277 0h-45l-219 506h62l180 -421l178 421h63z" />
    <glyph glyph-name="w" unicode="w" horiz-adv-x="806" 
d="M602 0h-45l-153 411l-155 -411h-44l-192 506h61l155 -416l154 416h40l155 -416l154 416h61z" />
    <glyph glyph-name="x" unicode="x" horiz-adv-x="496" 
d="M288 261l188 -261h-68l-160 223l-162 -223h-66l186 262l-175 244h67l150 -207l148 207h67z" />
    <glyph glyph-name="y" unicode="y" horiz-adv-x="509" 
d="M171 -255h-62l115 273l-203 488h62l172 -424l172 424h62z" />
    <glyph glyph-name="z" unicode="z" horiz-adv-x="444" 
d="M414 46v-46h-382v38l302 422h-295v46h361v-37l-301 -423h315z" />
    <glyph glyph-name="braceleft" unicode="{" horiz-adv-x="225" 
d="M201 670h-6q-105 0 -69 -178q0 -2 1 -6q3 -16 4.5 -24.5t4 -25t2.5 -26.5v-24t-3.5 -23.5t-9 -19t-14.5 -15t-21 -8.5q16 -4 26.5 -13t15 -24.5t6 -29t-1 -36t-4.5 -34.5t-6 -35q-36 -178 69 -178h6v-47h-6q-84 0 -115.5 60.5t-8.5 161.5q1 5 4.5 20t4 17.5t3 16t2 16
t1 17.5t-0.5 20q-3 45 -55 45h-8v47h8q26 0 39.5 10t14.5 34q3 3 1 20t-0.5 18t-1.5 16t-3 16t-4 17.5t-5 20.5q-23 101 8.5 161t115.5 60h6v-47z" />
    <glyph glyph-name="bar" unicode="|" horiz-adv-x="236" 
d="M145 -67h-55v815h55v-815z" />
    <glyph glyph-name="braceright" unicode="}" horiz-adv-x="225" 
d="M23 717h6q85 0 116 -60t8 -161q-14 -61 -15 -91q-1 -61 56 -61h8v-47h-8q-52 0 -54 -44q-1 -7 -1 -13v-11t0.5 -10.5t0.5 -9.5t1 -10t2 -9.5t2.5 -10.5t2 -10.5t2.5 -11.5l3 -12q23 -102 -8 -162t-116 -60h-6v47h6q104 0 70 178q-8 27 -11 53t-1.5 51.5t13.5 44t34 23.5
q-22 5 -34 23.5t-13.5 44t1.5 51.5t11 53q34 178 -70 178h-6v47z" />
    <glyph glyph-name="asciitilde" unicode="~" horiz-adv-x="532" 
d="M505 391q-32 -41 -63 -60.5t-82 -19.5q-50 0 -103.5 32.5t-86.5 32.5q-22 0 -39 -4t-31 -13t-23 -18t-24 -26l-27 37q33 40 63.5 58.5t75.5 18.5q38 0 91 -32.5t99 -32.5q44 0 69.5 15t54.5 48z" />
    <glyph glyph-name="exclamdown" unicode="&#xa1;" horiz-adv-x="257" 
d="M172 465q0 -19 -12.5 -31.5t-30.5 -12.5q-19 0 -32 12.5t-13 31.5t13 31.5t32 12.5q18 0 30.5 -12.5t12.5 -31.5zM100 311h58l3 -559h-64z" />
    <glyph glyph-name="cent" unicode="&#xa2;" horiz-adv-x="570" 
d="M524 167q-7 -38 -23.5 -69t-42 -53.5t-60 -36t-75.5 -16.5v-110h-47v110q-99 8 -158.5 79.5t-59.5 181.5q0 111 59 182t159 79v113h47v-113q82 -6 136 -56t64 -129l-55 -5q-7 64 -52.5 103t-114.5 39q-87 0 -136.5 -59t-49.5 -154q0 -94 50 -153.5t137 -59.5q69 0 113 35
t54 96z" />
    <glyph glyph-name="sterling" unicode="&#xa3;" horiz-adv-x="537" 
d="M435 582q0 58 -33 90.5t-92 32.5q-141 0 -128 -179l10 -140h184v-47h-180l6 -83q10 -123 -89 -203h394v-53h-468v49q118 62 107 207l-6 83h-111v47h107l-9 129q-10 114 35.5 178t148.5 64q85 0 133 -45.5t49 -126.5z" />
    <glyph glyph-name="currency" unicode="&#xa4;" horiz-adv-x="581" 
d="M465 253q0 -73 -35 -125l122 -122l-36 -35l-121 121q-45 -34 -105 -34q-59 0 -104 34l-121 -121l-36 35l123 123q-36 50 -36 124t36 124l-123 123l36 35l122 -122q45 34 103 34q59 0 104 -34l122 122l36 -35l-123 -123q36 -50 36 -124zM163 253q0 -67 34 -110.5t94 -43.5
q59 0 93 44t34 110t-34 109.5t-93 43.5q-60 0 -94 -43t-34 -110z" />
    <glyph glyph-name="yen" unicode="&#xa5;" horiz-adv-x="666" 
d="M507 346v-37h-145v-103h145v-37h-145v-169h-59v169h-143v37h143v103h-143v37h127l-267 402h69l244 -368l244 368h68l-267 -402h129z" />
    <glyph glyph-name="brokenbar" unicode="&#xa6;" horiz-adv-x="236" 
d="M145 429h-55v319h55v-319zM145 -67h-55v319h55v-319z" />
    <glyph glyph-name="section" unicode="&#xa7;" horiz-adv-x="510" 
d="M440 363q0 -30 -8.5 -52t-21 -35.5t-34.5 -28.5q77 -35 77 -119q0 -75 -55 -115.5t-141 -40.5q-87 0 -145.5 40t-59.5 114l56 2q1 -54 43 -82.5t106 -28.5q62 0 101 27t39 81q0 51 -36.5 72.5t-117.5 38.5q-87 19 -132 50.5t-45 95.5q0 44 16 69t50 49q-62 33 -62 110
q0 70 50 108.5t127 38.5q81 0 133.5 -37.5t53.5 -107.5l-55 -2q-1 49 -37.5 75t-93.5 26q-55 0 -88.5 -26t-33.5 -75q0 -18 4.5 -32.5t17.5 -25t21 -16.5t30 -12t29.5 -8t33.5 -7q89 -20 133.5 -51.5t44.5 -94.5zM178 481q-31 -20 -46 -40.5t-15 -56.5q0 -47 34.5 -67.5
t111.5 -37.5q53 -12 64 -15q32 20 46.5 40t14.5 57q0 47 -34 67t-112 37q-39 8 -64 16z" />
    <glyph glyph-name="dieresis" unicode="&#xa8;" horiz-adv-x="254" 
d="M25 681q0 16 11 27t27 11t27.5 -11t11.5 -27q0 -15 -11.5 -25.5t-27.5 -10.5t-27 10t-11 26zM153 681q0 16 11 27t27 11t27 -11t11 -27t-11 -26t-27 -10t-27 10t-11 26z" />
    <glyph glyph-name="copyright" unicode="&#xa9;" horiz-adv-x="576" 
d="M32 507q0 107 74 179t182 72t182 -72t74 -179q0 -106 -74.5 -178.5t-181.5 -72.5t-181.5 72.5t-74.5 178.5zM519 507q0 96 -67 162t-164 66t-164 -66t-67 -162t67 -162t164 -66t164 66t67 162zM143 507q0 69 40 112.5t106 43.5q55 0 92.5 -30.5t43.5 -80.5l-34 -2
q-5 38 -32.5 60t-69.5 22q-52 0 -82 -34.5t-30 -90.5q0 -55 31 -90t82 -35q40 0 67.5 21t34.5 55l34 -2q-8 -47 -45 -76t-91 -29q-65 0 -106 44.5t-41 111.5z" />
    <glyph glyph-name="ordfeminine" unicode="&#xaa;" horiz-adv-x="433" 
d="M59 614q0 61 44.5 101t110.5 40q148 0 148 -156v-256h-48v67q-17 -33 -53.5 -53.5t-83.5 -20.5q-59 0 -95 27.5t-36 81.5q0 111 155 121l111 7v29q0 110 -98 110q-46 0 -76 -28t-30 -72zM184 378q59 -1 93.5 36t34.5 101v20l-106 -8q-33 -3 -55 -9.5t-37.5 -24
t-15.5 -45.5q0 -70 86 -70z" />
    <glyph glyph-name="guillemotleft" unicode="&#xab;" horiz-adv-x="505" 
d="M246 434l-166 -182l166 -183l-44 -29l-187 212l187 211zM483 434l-166 -182l166 -183l-44 -29l-187 212l187 211z" />
    <glyph glyph-name="logicalnot" unicode="&#xac;" horiz-adv-x="532" 
d="M484 175h-45v176h-398v45h443v-221z" />
    <glyph glyph-name="registered" unicode="&#xae;" horiz-adv-x="576" 
d="M32 507q0 107 74 179t182 72t182 -72t74 -179q0 -106 -74.5 -178.5t-181.5 -72.5t-181.5 72.5t-74.5 178.5zM57 507q0 -96 67 -162t164 -66t164 66t67 162t-67 162t-164 66t-164 -66t-67 -162zM303 659q42 0 67 -23.5t25 -65.5q0 -68 -55 -86l71 -131h-36l-68 125h-87
v-125h-33v306h116zM220 508h75q66 0 66 62q0 60 -66 60h-75v-122z" />
    <glyph glyph-name="macron" unicode="&#xaf;" horiz-adv-x="283" 
d="M264 643h-245v44h245v-44z" />
    <glyph glyph-name="degree" unicode="&#xb0;" horiz-adv-x="332" 
d="M32 622q0 63 35.5 98.5t97.5 35.5t99 -36t37 -98v-22q0 -62 -37 -98t-99 -36q-61 0 -97 36t-36 98v22zM261 621q0 45 -26 72t-70 27t-68.5 -26.5t-24.5 -72.5v-19q0 -46 24.5 -73t68.5 -27q45 0 70.5 27t25.5 73v19z" />
    <glyph glyph-name="plusminus" unicode="&#xb1;" horiz-adv-x="546" 
d="M300 490h211v-52h-211v-215h-55v215h-212v52h212v209h55v-209zM511 101h-478v53h478v-53z" />
    <glyph glyph-name="acute" unicode="&#xb4;" horiz-adv-x="220" 
d="M67 593h-46l113 191h63z" />
    <glyph glyph-name="paragraph" unicode="&#xb6;" horiz-adv-x="644" 
d="M49 567q0 86 55 133.5t146 47.5h372v-43h-69v-772h-44v772h-148v-772h-45v451h-66q-91 0 -146 48t-55 135z" />
    <glyph glyph-name="periodcentered" unicode="&#xb7;" horiz-adv-x="190" 
d="M48 281q0 19 12.5 31.5t30.5 12.5q19 0 32 -12.5t13 -31.5t-13 -31.5t-32 -12.5q-18 0 -30.5 12.5t-12.5 31.5z" />
    <glyph glyph-name="cedilla" unicode="&#xb8;" horiz-adv-x="274" 
d="M129 -59q51 -2 82.5 -24.5t31.5 -66.5q0 -43 -34 -67t-82 -24q-56 0 -98 24l11 34q37 -22 82 -22q33 0 55.5 14t22.5 41q0 60 -88 60q-14 0 -24 -3l24 99h31z" />
    <glyph glyph-name="ordmasculine" unicode="&#xba;" horiz-adv-x="502" 
d="M45 545q0 92 57.5 151t147.5 59q91 0 148.5 -59t57.5 -151t-57.5 -150.5t-148.5 -58.5t-148 58.5t-57 150.5zM406 545q0 73 -42.5 120t-112.5 47q-69 0 -111.5 -47t-42.5 -120t42.5 -119t111.5 -46q70 0 112.5 46t42.5 119z" />
    <glyph glyph-name="guillemotright" unicode="&#xbb;" horiz-adv-x="505" 
d="M253 252l-187 -212l-44 29l166 183l-166 182l44 29zM490 252l-188 -212l-44 29l166 183l-166 182l44 29z" />
    <glyph glyph-name="onequarter" unicode="&#xbc;" horiz-adv-x="666" 
d="M75 0h-58l537 748h58zM161 322h-45v349l-81 -63l-21 34l118 91h29v-411zM573 144h72v-40h-72v-104h-44v104h-186v35l189 272h41v-267zM529 144v204l-145 -204h145z" />
    <glyph glyph-name="onehalf" unicode="&#xbd;" horiz-adv-x="699" 
d="M75 0h-58l537 748h58zM161 322h-45v349l-81 -63l-21 34l118 91h29v-411zM422 293q1 57 33.5 90t89.5 33q56 0 87.5 -32t31.5 -88q0 -46 -19.5 -82t-59.5 -78l-93 -96h178v-40h-246v31l128 132q23 23 35 38t22.5 40.5t10.5 55.5q0 35 -20 57t-54 22q-39 0 -59.5 -23
t-21.5 -63z" />
    <glyph glyph-name="threequarters" unicode="&#xbe;" horiz-adv-x="764" 
d="M173 0h-58l537 748h58zM37 623q2 54 34 84.5t87 30.5q36 0 62 -13t40.5 -38t14.5 -59q0 -32 -17 -58t-41 -34q30 -7 49.5 -34.5t19.5 -65.5q0 -55 -35 -87t-92 -32q-58 0 -91.5 31.5t-36.5 87.5l44 4q8 -82 84 -82q38 0 60.5 21.5t22.5 58.5t-24 56.5t-64 19.5h-39v39h39
q33 0 55.5 20.5t22.5 52.5q0 34 -20 53t-54 19q-35 0 -55.5 -20.5t-21.5 -56.5zM671 144h72v-40h-72v-104h-44v104h-186v35l189 272h41v-267zM627 144v204l-145 -204h145z" />
    <glyph glyph-name="questiondown" unicode="&#xbf;" horiz-adv-x="485" 
d="M293 471q0 -19 -12.5 -32t-30.5 -13q-19 0 -32 13t-13 32q0 18 13 31t32 13q18 0 30.5 -13t12.5 -31zM466 -60q-8 -89 -67.5 -140.5t-156.5 -51.5q-99 0 -159.5 57t-60.5 152q0 64 26 103t83 79q50 37 68.5 69.5t18.5 81.5v27h59v-29q0 -54 -21 -91.5t-75 -79.5
q-51 -37 -75 -71.5t-24 -87.5q0 -71 43.5 -114t116.5 -43t115 37.5t50 105.5z" />
    <glyph glyph-name="Agrave" unicode="&#xc0;" horiz-adv-x="707" 
d="M380 795h-56l-183 135h80zM688 0h-65l-88 217h-362l-89 -217h-65l309 748h51zM194 267h319l-159 390z" />
    <glyph glyph-name="Aacute" unicode="&#xc1;" horiz-adv-x="707" 
d="M380 795h-55l159 135h80zM688 0h-65l-88 217h-362l-89 -217h-65l309 748h51zM194 267h319l-159 390z" />
    <glyph glyph-name="Acircumflex" unicode="&#xc2;" horiz-adv-x="707" 
d="M501 795h-50l-97 98l-96 -98h-50l121 135h52zM688 0h-65l-88 217h-362l-89 -217h-65l309 748h51zM194 267h319l-159 390z" />
    <glyph glyph-name="Atilde" unicode="&#xc3;" horiz-adv-x="707" 
d="M201 823q-2 42 20.5 71t60.5 29q32 0 73 -32t65 -32t38 16t15 41h34q2 -41 -21 -70.5t-60 -29.5q-32 0 -73 32t-65 32q-25 0 -39 -16t-14 -41h-34zM688 0h-65l-88 217h-362l-89 -217h-65l309 748h51zM194 267h319l-159 390z" />
    <glyph glyph-name="Adieresis" unicode="&#xc4;" horiz-adv-x="707" 
d="M253 864q0 15 11 26t27 11t27.5 -11t11.5 -26q0 -16 -11.5 -27t-27.5 -11t-27 11t-11 27zM381 864q0 15 11 26t27 11t27 -11t11 -26q0 -16 -11 -27t-27 -11t-27 11t-11 27zM688 0h-65l-88 217h-362l-89 -217h-65l309 748h51zM194 267h319l-159 390z" />
    <glyph glyph-name="Aring" unicode="&#xc5;" horiz-adv-x="707" 
d="M256 886q0 40 28.5 66.5t69.5 26.5q40 0 68 -27t28 -66t-28 -66t-68 -27q-41 0 -69.5 26.5t-28.5 66.5zM414 886q0 26 -17 42t-43 16q-27 0 -44 -16t-17 -42t17.5 -42.5t43.5 -16.5t43 16.5t17 42.5zM688 0h-65l-88 217h-362l-89 -217h-65l309 748h51zM194 267h319
l-159 390z" />
    <glyph glyph-name="AE" unicode="&#xc6;" horiz-adv-x="1002" 
d="M573 696v-282h350v-52h-350v-309h394v-53h-453v217h-287l-144 -217h-72l496 748h460v-52h-394zM514 267v387l-255 -387h255z" />
    <glyph glyph-name="Ccedilla" unicode="&#xc7;" horiz-adv-x="799" 
d="M427 -64q51 -2 82.5 -24.5t31.5 -66.5q0 -43 -34 -67t-82 -24q-56 0 -98 24l11 34q37 -22 82 -22q33 0 55.5 14t22.5 41q0 60 -88 60q-14 0 -24 -3l22 89q-158 5 -253 110.5t-95 272.5q0 179 100.5 281t259.5 102q134 0 226 -75.5t108 -196.5l-61 -6q-13 101 -88.5 163
t-186.5 62q-138 0 -218 -91.5t-80 -238.5q0 -155 85 -242.5t216 -87.5q110 0 182.5 57t90.5 153l61 -5q-20 -114 -105 -183.5t-211 -74.5z" />
    <glyph glyph-name="Egrave" unicode="&#xc8;" horiz-adv-x="588" 
d="M355 795h-56l-183 135h80zM551 696h-394v-282h350v-52h-350v-309h394v-53h-453v748h453v-52z" />
    <glyph glyph-name="Eacute" unicode="&#xc9;" horiz-adv-x="588" 
d="M355 795h-55l159 135h80zM551 696h-394v-282h350v-52h-350v-309h394v-53h-453v748h453v-52z" />
    <glyph glyph-name="Ecircumflex" unicode="&#xca;" horiz-adv-x="588" 
d="M475 795h-50l-97 98l-96 -98h-50l121 135h52zM551 696h-394v-282h350v-52h-350v-309h394v-53h-453v748h453v-52z" />
    <glyph glyph-name="Edieresis" unicode="&#xcb;" horiz-adv-x="588" 
d="M227 864q0 15 11 26t27 11t27.5 -11t11.5 -26q0 -16 -11.5 -27t-27.5 -11t-27 11t-11 27zM355 864q0 15 11 26t27 11t27 -11t11 -26q0 -16 -11 -27t-27 -11t-27 11t-11 27zM551 696h-394v-282h350v-52h-350v-309h394v-53h-453v748h453v-52z" />
    <glyph glyph-name="Igrave" unicode="&#xcc;" horiz-adv-x="255" 
d="M155 795h-56l-183 135h80zM157 0h-59v748h59v-748z" />
    <glyph glyph-name="Iacute" unicode="&#xcd;" horiz-adv-x="255" 
d="M155 795h-55l159 135h80zM157 0h-59v748h59v-748z" />
    <glyph glyph-name="Icircumflex" unicode="&#xce;" horiz-adv-x="255" 
d="M276 795h-50l-97 98l-96 -98h-50l121 135h52zM157 0h-59v748h59v-748z" />
    <glyph glyph-name="Idieresis" unicode="&#xcf;" horiz-adv-x="255" 
d="M28 864q0 15 11 26t27 11t27.5 -11t11.5 -26q0 -16 -11.5 -27t-27.5 -11t-27 11t-11 27zM156 864q0 15 11 26t27 11t27 -11t11 -26q0 -16 -11 -27t-27 -11t-27 11t-11 27zM157 0h-59v748h59v-748z" />
    <glyph glyph-name="Eth" unicode="&#xd0;" horiz-adv-x="787" 
d="M119 748h284q156 0 255 -100t99 -274q0 -173 -100.5 -273.5t-255.5 -100.5h-282v351h-118v46h118v351zM698 374q0 146 -78.5 234.5t-216.5 88.5h-225v-300h171v-46h-171v-300h223q138 0 217.5 88.5t79.5 234.5z" />
    <glyph glyph-name="Ntilde" unicode="&#xd1;" horiz-adv-x="743" 
d="M217 823q-2 42 20.5 71t60.5 29q32 0 73 -32t65 -32t38 16t15 41h34q1 -27 -8.5 -49.5t-28.5 -36.5t-44 -14q-32 0 -73 32t-65 32q-25 0 -39 -16t-14 -41h-34zM645 0h-50l-438 637v-637h-59v748h49l438 -638v638h60v-748z" />
    <glyph glyph-name="Ograve" unicode="&#xd2;" horiz-adv-x="861" 
d="M444 795h-56l-183 135h80zM431 757q159 0 264 -104t105 -279t-105 -279t-264 -104q-160 0 -265.5 104t-105.5 279t105.5 279t265.5 104zM431 704q-134 0 -222 -89t-88 -241t88 -241t222 -89q133 0 221 89t88 241t-88 241t-221 89z" />
    <glyph glyph-name="Oacute" unicode="&#xd3;" horiz-adv-x="861" 
d="M444 795h-55l159 135h80zM431 757q159 0 264 -104t105 -279t-105 -279t-264 -104q-160 0 -265.5 104t-105.5 279t105.5 279t265.5 104zM431 704q-134 0 -222 -89t-88 -241t88 -241t222 -89q133 0 221 89t88 241t-88 241t-221 89z" />
    <glyph glyph-name="Ocircumflex" unicode="&#xd4;" horiz-adv-x="861" 
d="M564 795h-50l-97 98l-96 -98h-50l121 135h52zM431 757q159 0 264 -104t105 -279t-105 -279t-264 -104q-160 0 -265.5 104t-105.5 279t105.5 279t265.5 104zM431 704q-134 0 -222 -89t-88 -241t88 -241t222 -89q133 0 221 89t88 241t-88 241t-221 89z" />
    <glyph glyph-name="Otilde" unicode="&#xd5;" horiz-adv-x="861" 
d="M265 823q-2 42 20.5 71t60.5 29q32 0 73 -32t65 -32t38 16t15 41h34q2 -41 -21 -70.5t-60 -29.5q-32 0 -73 32t-65 32q-25 0 -39 -16t-14 -41h-34zM431 757q159 0 264 -104t105 -279t-105 -279t-264 -104q-160 0 -265.5 104t-105.5 279t105.5 279t265.5 104zM431 704
q-134 0 -222 -89t-88 -241t88 -241t222 -89q133 0 221 89t88 241t-88 241t-221 89z" />
    <glyph glyph-name="Odieresis" unicode="&#xd6;" horiz-adv-x="861" 
d="M316 864q0 15 11 26t27 11t27.5 -11t11.5 -26q0 -16 -11.5 -27t-27.5 -11t-27 11t-11 27zM444 864q0 15 11 26t27 11t27 -11t11 -26q0 -16 -11 -27t-27 -11t-27 11t-11 27zM431 757q159 0 264 -104t105 -279t-105 -279t-264 -104q-160 0 -265.5 104t-105.5 279t105.5 279
t265.5 104zM431 704q-134 0 -222 -89t-88 -241t88 -241t222 -89q133 0 221 89t88 241t-88 241t-221 89z" />
    <glyph glyph-name="multiply" unicode="&#xd7;" horiz-adv-x="511" 
d="M454 528l-160 -159l163 -164l-37 -37l-164 163l-165 -164l-37 37l165 165l-163 164l37 37l163 -165l161 161z" />
    <glyph glyph-name="Oslash" unicode="&#xd8;" horiz-adv-x="836" 
d="M800 374q0 -175 -105 -279t-264 -104q-130 0 -225 69l-68 -88l-37 28l69 90q-110 107 -110 284q0 175 105.5 279t265.5 104q115 0 206 -57l59 78l37 -28l-59 -77q126 -108 126 -299zM431 704q-134 0 -222 -89t-88 -241q0 -147 85 -237l397 519q-76 48 -172 48zM431 44
q133 0 221 89t88 241q0 161 -101 254l-399 -523q79 -61 191 -61z" />
    <glyph glyph-name="Ugrave" unicode="&#xd9;" horiz-adv-x="758" 
d="M404 795h-56l-183 135h80zM378 44q109 0 169 58.5t60 167.5v478h59v-479q0 -133 -76.5 -205.5t-211.5 -72.5t-211 72.5t-76 205.5v479h59v-478q0 -109 59.5 -167.5t168.5 -58.5z" />
    <glyph glyph-name="Uacute" unicode="&#xda;" horiz-adv-x="758" 
d="M403 795h-55l159 135h80zM378 44q109 0 169 58.5t60 167.5v478h59v-479q0 -133 -76.5 -205.5t-211.5 -72.5t-211 72.5t-76 205.5v479h59v-478q0 -109 59.5 -167.5t168.5 -58.5z" />
    <glyph glyph-name="Ucircumflex" unicode="&#xdb;" horiz-adv-x="758" 
d="M524 795h-50l-97 98l-96 -98h-50l121 135h52zM378 44q109 0 169 58.5t60 167.5v478h59v-479q0 -133 -76.5 -205.5t-211.5 -72.5t-211 72.5t-76 205.5v479h59v-478q0 -109 59.5 -167.5t168.5 -58.5z" />
    <glyph glyph-name="Udieresis" unicode="&#xdc;" horiz-adv-x="758" 
d="M276 864q0 15 11 26t27 11t27.5 -11t11.5 -26q0 -16 -11.5 -27t-27.5 -11t-27 11t-11 27zM404 864q0 15 11 26t27 11t27 -11t11 -26q0 -16 -11 -27t-27 -11t-27 11t-11 27zM378 44q109 0 169 58.5t60 167.5v478h59v-479q0 -133 -76.5 -205.5t-211.5 -72.5t-211 72.5
t-76 205.5v479h59v-478q0 -109 59.5 -167.5t168.5 -58.5z" />
    <glyph glyph-name="Yacute" unicode="&#xdd;" horiz-adv-x="666" 
d="M359 795h-55l159 135h80zM362 0h-59v322l-283 426h69l244 -368l244 368h68l-283 -426v-322z" />
    <glyph glyph-name="Thorn" unicode="&#xde;" horiz-adv-x="624" 
d="M580 423q0 -99 -61.5 -158t-160.5 -59h-201v-206h-59v748h59v-109h201q99 0 160.5 -59t61.5 -157zM520 423q0 75 -47 119t-122 44h-194v-327h194q75 0 122 44.5t47 119.5z" />
    <glyph glyph-name="germandbls" unicode="&#xdf;" horiz-adv-x="621" 
d="M92 609q0 80 55.5 128t140.5 48q83 0 136 -40t53 -112q0 -20 -7 -40.5t-17 -35.5t-22 -26q-46 -41 -46 -85q0 -19 12 -37t23 -28t30 -23q27 -21 43 -34.5t36 -37.5t29.5 -53t9.5 -64q0 -83 -57 -130t-147 -47q-61 0 -98 16l12 47q44 -16 82 -16q67 0 109 35.5t42 98.5
q0 28 -9 52.5t-22.5 41t-32 32.5t-35.5 28t-35.5 28.5t-29.5 31.5q-19 26 -19 57q0 29 13.5 55t32.5 41q46 38 46 84q0 54 -36 83t-95 29q-61 0 -101 -35.5t-40 -93.5v-607h-56v609z" />
    <glyph glyph-name="agrave" unicode="&#xe0;" horiz-adv-x="535" 
d="M297 593h-45l-131 191h64zM261 464q-57 0 -94.5 -35.5t-37.5 -90.5l-57 2q0 70 51 122.5t137 52.5q89 0 136.5 -50.5t47.5 -141.5v-323h-57v76q-56 -85 -168 -85q-73 0 -117 36t-44 103q0 137 185 147l144 9v36q0 68 -31.5 105t-94.5 37zM227 40q77 0 119 46t42 129v23
l-139 -8q-135 -8 -135 -99t113 -91z" />
    <glyph glyph-name="aacute" unicode="&#xe1;" horiz-adv-x="535" 
d="M297 593h-46l113 191h63zM261 464q-57 0 -94.5 -35.5t-37.5 -90.5l-57 2q0 70 51 122.5t137 52.5q89 0 136.5 -50.5t47.5 -141.5v-323h-57v76q-56 -85 -168 -85q-73 0 -117 36t-44 103q0 137 185 147l144 9v36q0 68 -31.5 105t-94.5 37zM227 40q77 0 119 46t42 129v23
l-139 -8q-135 -8 -135 -99t113 -91z" />
    <glyph glyph-name="acircumflex" unicode="&#xe2;" horiz-adv-x="535" 
d="M423 594h-49l-99 125l-98 -125h-49l121 166h52zM261 464q-57 0 -94.5 -35.5t-37.5 -90.5l-57 2q0 70 51 122.5t137 52.5q89 0 136.5 -50.5t47.5 -141.5v-323h-57v76q-56 -85 -168 -85q-73 0 -117 36t-44 103q0 137 185 147l144 9v36q0 68 -31.5 105t-94.5 37zM227 40
q77 0 119 46t42 129v23l-139 -8q-135 -8 -135 -99t113 -91z" />
    <glyph glyph-name="atilde" unicode="&#xe3;" horiz-adv-x="535" 
d="M120 623q-2 42 20.5 71t60.5 29q32 0 73 -32t65 -32t38 16t15 41h34q2 -41 -21 -70.5t-60 -29.5q-32 0 -73 32t-65 32q-25 0 -39 -16t-14 -41h-34zM261 464q-57 0 -94.5 -35.5t-37.5 -90.5l-57 2q0 70 51 122.5t137 52.5q89 0 136.5 -50.5t47.5 -141.5v-323h-57v76
q-56 -85 -168 -85q-73 0 -117 36t-44 103q0 137 185 147l144 9v36q0 68 -31.5 105t-94.5 37zM227 40q77 0 119 46t42 129v23l-139 -8q-135 -8 -135 -99t113 -91z" />
    <glyph glyph-name="adieresis" unicode="&#xe4;" horiz-adv-x="535" 
d="M169 681q0 16 11 27t27 11t27.5 -11t11.5 -27q0 -15 -11.5 -25.5t-27.5 -10.5t-27 10t-11 26zM297 681q0 16 11 27t27 11t27 -11t11 -27t-11 -26t-27 -10t-27 10t-11 26zM261 464q-57 0 -94.5 -35.5t-37.5 -90.5l-57 2q0 70 51 122.5t137 52.5q89 0 136.5 -50.5
t47.5 -141.5v-323h-57v76q-56 -85 -168 -85q-73 0 -117 36t-44 103q0 137 185 147l144 9v36q0 68 -31.5 105t-94.5 37zM227 40q77 0 119 46t42 129v23l-139 -8q-135 -8 -135 -99t113 -91z" />
    <glyph glyph-name="aring" unicode="&#xe5;" horiz-adv-x="535" 
d="M169 687q0 43 30.5 71t75.5 28q43 0 73.5 -28.5t30.5 -70.5t-30.5 -70.5t-73.5 -28.5q-45 0 -75.5 28t-30.5 71zM340 687q0 27 -19 44.5t-47 17.5t-47 -17.5t-19 -44.5q0 -28 18.5 -45t47.5 -17t47.5 17t18.5 45zM261 464q-57 0 -94.5 -35.5t-37.5 -90.5l-57 2
q0 70 51 122.5t137 52.5q89 0 136.5 -50.5t47.5 -141.5v-323h-57v76q-56 -85 -168 -85q-73 0 -117 36t-44 103q0 137 185 147l144 9v36q0 68 -31.5 105t-94.5 37zM227 40q77 0 119 46t42 129v23l-139 -8q-135 -8 -135 -99t113 -91z" />
    <glyph glyph-name="ae" unicode="&#xe6;" horiz-adv-x="917" 
d="M632 515q107 0 168 -68t61 -179v-36h-414q2 -85 52.5 -138.5t132.5 -53.5q66 0 109.5 29t58.5 82l56 -4q-18 -71 -77 -113.5t-145 -42.5q-75 0 -130 33.5t-84 89.5q-26 -56 -77 -89.5t-122 -33.5q-73 0 -118 36t-45 103q0 137 185 147l144 9v22q0 73 -31 115.5t-95 42.5
q-38 0 -68 -16.5t-47 -45.5t-17 -66l-57 2q0 70 51 122.5t137 52.5q124 0 166 -110q29 50 82.5 80t123.5 30zM805 279q0 56 -20 97.5t-59.5 65t-94.5 23.5q-82 0 -131.5 -51t-52.5 -135h358zM227 40q77 0 119 46t42 129v24l-139 -8q-135 -10 -135 -99q0 -92 113 -92z" />
    <glyph glyph-name="ccedilla" unicode="&#xe7;" horiz-adv-x="570" 
d="M305 -63q51 -2 82.5 -24.5t31.5 -66.5q0 -43 -34 -67t-82 -24q-56 0 -98 24l11 34q37 -22 82 -22q21 0 38 5.5t28.5 18.5t11.5 31q0 60 -88 60q-14 0 -24 -3l21 88q-69 4 -120.5 38t-79 91.5t-27.5 132.5q0 117 66 189.5t177 72.5q90 0 151 -51.5t71 -134.5l-55 -5
q-7 64 -52.5 103t-114.5 39q-87 0 -136.5 -59t-49.5 -154q0 -94 50 -153.5t137 -59.5q69 0 113 35t54 96l55 -4q-14 -77 -68.5 -124.5t-138.5 -51.5z" />
    <glyph glyph-name="egrave" unicode="&#xe8;" horiz-adv-x="587" 
d="M277 593l-131 191h64l112 -191h-45zM302 515q107 0 167.5 -68t60.5 -179v-36h-413q2 -85 52.5 -138.5t132.5 -53.5q66 0 109.5 29t57.5 82l56 -4q-18 -71 -77 -113.5t-144 -42.5q-112 0 -179 72.5t-67 189.5t66 189.5t178 72.5zM475 279q0 85 -45.5 135.5t-128.5 50.5
q-82 0 -131.5 -51t-52.5 -135h358z" />
    <glyph glyph-name="eacute" unicode="&#xe9;" horiz-adv-x="587" 
d="M322 593h-46l113 191h63zM302 515q107 0 167.5 -68t60.5 -179v-36h-413q2 -85 52.5 -138.5t132.5 -53.5q66 0 109.5 29t57.5 82l56 -4q-18 -71 -77 -113.5t-144 -42.5q-112 0 -179 72.5t-67 189.5t66 189.5t178 72.5zM475 279q0 85 -45.5 135.5t-128.5 50.5
q-82 0 -131.5 -51t-52.5 -135h358z" />
    <glyph glyph-name="ecircumflex" unicode="&#xea;" horiz-adv-x="587" 
d="M202 594h-49l121 166h52l122 -166h-49l-99 125zM302 515q107 0 167.5 -68t60.5 -179v-36h-413q2 -85 52.5 -138.5t132.5 -53.5q66 0 109.5 29t57.5 82l56 -4q-18 -71 -77 -113.5t-144 -42.5q-112 0 -179 72.5t-67 189.5t66 189.5t178 72.5zM475 279q0 85 -45.5 135.5
t-128.5 50.5q-82 0 -131.5 -51t-52.5 -135h358z" />
    <glyph glyph-name="edieresis" unicode="&#xeb;" horiz-adv-x="587" 
d="M272 681q0 -15 -11.5 -25.5t-27.5 -10.5t-27 10t-11 26t11 27t27 11t27.5 -11t11.5 -27zM399 681q0 -16 -11 -26t-27 -10t-27 10t-11 26t11 27t27 11t27 -11t11 -27zM302 515q107 0 167.5 -68t60.5 -179v-36h-413q2 -85 52.5 -138.5t132.5 -53.5q66 0 109.5 29t57.5 82
l56 -4q-18 -71 -77 -113.5t-144 -42.5q-112 0 -179 72.5t-67 189.5t66 189.5t178 72.5zM475 279q0 85 -45.5 135.5t-128.5 50.5q-82 0 -131.5 -51t-52.5 -135h358z" />
    <glyph glyph-name="igrave" unicode="&#xec;" 
d="M146 593h-45l-131 191h64zM151 0h-56v506h56v-506z" />
    <glyph glyph-name="iacute" unicode="&#xed;" 
d="M146 593h-46l113 191h63zM151 0h-56v506h56v-506z" />
    <glyph glyph-name="icircumflex" unicode="&#xee;" 
d="M272 594h-49l-99 125l-98 -125h-49l121 166h52zM151 0h-56v506h56v-506z" />
    <glyph glyph-name="idieresis" unicode="&#xef;" 
d="M19 681q0 16 11 27t27 11t27.5 -11t11.5 -27q0 -15 -11.5 -25.5t-27.5 -10.5t-27 10t-11 26zM147 681q0 16 11 27t27 11t27 -11t11 -27t-11 -26t-27 -10t-27 10t-11 26zM151 0h-56v506h56v-506z" />
    <glyph glyph-name="eth" unicode="&#xf0;" horiz-adv-x="603" 
d="M56 236q0 108 66 177.5t170 69.5q100 0 169 -67q-30 158 -122 240l-108 -79l-26 28l104 74q-75 50 -181 51v47q130 0 223 -68l111 79l25 -25l-107 -78q152 -138 152 -435q0 -117 -64 -188t-175 -71q-105 0 -171 68.5t-66 176.5zM112 236q0 -87 50 -141.5t133 -54.5
t132.5 55t49.5 144q0 86 -50 140.5t-132 54.5q-83 0 -133 -55.5t-50 -142.5z" />
    <glyph glyph-name="ntilde" unicode="&#xf1;" horiz-adv-x="604" 
d="M156 623q-2 42 20.5 71t60.5 29q32 0 73 -32t65 -32t38 16t15 41h34q2 -41 -21 -70.5t-60 -29.5q-32 0 -73 32t-65 32q-25 0 -39 -16t-14 -41h-34zM149 420q12 27 36 48.5t58.5 34t73.5 12.5q87 0 141 -57.5t54 -146.5v-311h-56v304q0 46 -18 82t-52 56.5t-78 20.5
q-66 0 -111.5 -46.5t-45.5 -112.5v-304h-56v506h54v-86z" />
    <glyph glyph-name="ograve" unicode="&#xf2;" horiz-adv-x="627" 
d="M335 593h-45l-131 191h64zM58 253q0 115 71 188.5t184 73.5t184.5 -73.5t71.5 -188.5t-71.5 -188.5t-184.5 -73.5t-184 73.5t-71 188.5zM512 253q0 94 -55 153t-144 59q-90 0 -144.5 -59t-54.5 -153q0 -62 24.5 -110t70 -75.5t104.5 -27.5q89 0 144 59.5t55 153.5z" />
    <glyph glyph-name="oacute" unicode="&#xf3;" horiz-adv-x="627" 
d="M335 593h-46l113 191h63zM58 253q0 115 71 188.5t184 73.5t184.5 -73.5t71.5 -188.5t-71.5 -188.5t-184.5 -73.5t-184 73.5t-71 188.5zM512 253q0 94 -55 153t-144 59q-90 0 -144.5 -59t-54.5 -153q0 -62 24.5 -110t70 -75.5t104.5 -27.5q89 0 144 59.5t55 153.5z" />
    <glyph glyph-name="ocircumflex" unicode="&#xf4;" horiz-adv-x="627" 
d="M461 594h-49l-99 125l-98 -125h-49l121 166h52zM58 253q0 115 71 188.5t184 73.5t184.5 -73.5t71.5 -188.5t-71.5 -188.5t-184.5 -73.5t-184 73.5t-71 188.5zM512 253q0 94 -55 153t-144 59q-90 0 -144.5 -59t-54.5 -153q0 -62 24.5 -110t70 -75.5t104.5 -27.5
q89 0 144 59.5t55 153.5z" />
    <glyph glyph-name="otilde" unicode="&#xf5;" horiz-adv-x="627" 
d="M158 623q-1 20 4.5 38t15.5 32t26 22t35 8q32 0 73 -32t65 -32q16 0 28 7.5t18 20t7 29.5h34q2 -41 -21 -70.5t-60 -29.5q-32 0 -73 32t-65 32q-25 0 -39 -16t-14 -41h-34zM58 253q0 115 71 188.5t184 73.5q56 0 103.5 -19.5t81 -54t52.5 -83t19 -105.5
q0 -115 -71.5 -188.5t-184.5 -73.5t-184 73.5t-71 188.5zM512 253q0 94 -55 153t-144 59q-90 0 -144.5 -59t-54.5 -153q0 -62 24.5 -110t70 -75.5t104.5 -27.5q89 0 144 59.5t55 153.5z" />
    <glyph glyph-name="odieresis" unicode="&#xf6;" horiz-adv-x="627" 
d="M207 681q0 16 11 27t27 11t27.5 -11t11.5 -27q0 -15 -11.5 -25.5t-27.5 -10.5t-27 10t-11 26zM335 681q0 16 11 27t27 11t27 -11t11 -27t-11 -26t-27 -10t-27 10t-11 26zM58 253q0 115 71 188.5t184 73.5t184.5 -73.5t71.5 -188.5t-71.5 -188.5t-184.5 -73.5t-184 73.5
t-71 188.5zM512 253q0 94 -55 153t-144 59q-90 0 -144.5 -59t-54.5 -153q0 -62 24.5 -110t70 -75.5t104.5 -27.5q89 0 144 59.5t55 153.5z" />
    <glyph glyph-name="divide" unicode="&#xf7;" horiz-adv-x="546" 
d="M229 568q0 17 13 30.5t30 13.5q19 0 32.5 -13t13.5 -31q0 -19 -13 -31.5t-33 -12.5q-18 0 -30.5 13t-12.5 31zM511 344h-478v52h478v-52zM229 171q0 19 12.5 32t30.5 13q20 0 33 -13t13 -32q0 -17 -14 -30t-32 -13q-17 0 -30 13t-13 30z" />
    <glyph glyph-name="oslash" unicode="&#xf8;" horiz-adv-x="627" 
d="M58 253q0 115 71 188.5t184 73.5q83 0 145 -41l41 54l32 -24l-41 -54q79 -74 79 -197q0 -115 -71.5 -188.5t-184.5 -73.5q-80 0 -142 39l-44 -57l-32 24l44 58q-81 73 -81 198zM313 465q-90 0 -144.5 -59t-54.5 -153q0 -97 57 -156l255 335q-48 33 -113 33zM313 40
q89 0 144 59.5t55 153.5q0 95 -55 153l-255 -335q50 -31 111 -31z" />
    <glyph glyph-name="ugrave" unicode="&#xf9;" horiz-adv-x="585" 
d="M317 593h-45l-131 191h64zM286 44q65 0 106.5 45.5t41.5 112.5v304h56v-506h-53v86q-19 -42 -61.5 -68.5t-99.5 -26.5q-85 0 -135 56t-50 145v314h55v-307q0 -70 37 -112.5t103 -42.5z" />
    <glyph glyph-name="uacute" unicode="&#xfa;" horiz-adv-x="585" 
d="M317 593h-46l113 191h63zM286 44q65 0 106.5 45.5t41.5 112.5v304h56v-506h-53v86q-19 -42 -61.5 -68.5t-99.5 -26.5q-85 0 -135 56t-50 145v314h55v-307q0 -70 37 -112.5t103 -42.5z" />
    <glyph glyph-name="ucircumflex" unicode="&#xfb;" horiz-adv-x="585" 
d="M443 594h-49l-99 125l-98 -125h-49l121 166h52zM286 44q65 0 106.5 45.5t41.5 112.5v304h56v-506h-53v86q-19 -42 -61.5 -68.5t-99.5 -26.5q-85 0 -135 56t-50 145v314h55v-307q0 -70 37 -112.5t103 -42.5z" />
    <glyph glyph-name="udieresis" unicode="&#xfc;" horiz-adv-x="585" 
d="M190 681q0 16 11 27t27 11t27.5 -11t11.5 -27q0 -15 -11.5 -25.5t-27.5 -10.5t-27 10t-11 26zM318 681q0 16 11 27t27 11t27 -11t11 -27t-11 -26t-27 -10t-27 10t-11 26zM286 44q65 0 106.5 45.5t41.5 112.5v304h56v-506h-53v86q-19 -42 -61.5 -68.5t-99.5 -26.5
q-85 0 -135 56t-50 145v314h55v-307q0 -70 37 -112.5t103 -42.5z" />
    <glyph glyph-name="yacute" unicode="&#xfd;" horiz-adv-x="509" 
d="M277 593h-46l113 191h63zM171 -255h-62l115 273l-203 488h62l172 -424l172 424h62z" />
    <glyph glyph-name="thorn" unicode="&#xfe;" horiz-adv-x="643" 
d="M342 -9q-68 0 -118 29t-73 77v-352h-56v1032h56v-369q23 49 73 78t118 29q110 0 177.5 -73t67.5 -189t-67.5 -189t-177.5 -73zM531 252q0 62 -23.5 110.5t-67.5 75.5t-103 27q-87 0 -136.5 -52.5t-49.5 -142.5v-35q0 -26 4 -49t12.5 -42.5t20 -36t27.5 -29t34.5 -21
t40.5 -13t47 -4.5q88 0 141 59t53 153z" />
    <glyph glyph-name="ydieresis" unicode="&#xff;" horiz-adv-x="509" 
d="M149 681q0 16 11 27t27 11t27.5 -11t11.5 -27q0 -15 -11.5 -25.5t-27.5 -10.5t-27 10t-11 26zM277 681q0 16 11 27t27 11t27 -11t11 -27t-11 -26t-27 -10t-27 10t-11 26zM171 -255h-62l115 273l-203 488h62l172 -424l172 424h62z" />
    <glyph glyph-name="Amacron" unicode="&#x100;" horiz-adv-x="707" 
d="M477 844h-245v44h245v-44zM688 0h-65l-88 217h-362l-89 -217h-65l309 748h51zM194 267h319l-159 390z" />
    <glyph glyph-name="amacron" unicode="&#x101;" horiz-adv-x="535" 
d="M397 643h-245v44h245v-44zM261 464q-57 0 -94.5 -35.5t-37.5 -90.5l-57 2q0 70 51 122.5t137 52.5q89 0 136.5 -50.5t47.5 -141.5v-323h-57v76q-56 -85 -168 -85q-73 0 -117 36t-44 103q0 137 185 147l144 9v36q0 68 -31.5 105t-94.5 37zM227 40q77 0 119 46t42 129v23
l-139 -8q-135 -8 -135 -99t113 -91z" />
    <glyph glyph-name="Abreve" unicode="&#x102;" horiz-adv-x="707" 
d="M354 849q41 0 68 20.5t27 56.5h47q0 -56 -39.5 -86.5t-102.5 -30.5t-102.5 30.5t-39.5 86.5h47q0 -36 27 -56.5t68 -20.5zM688 0h-65l-88 217h-362l-89 -217h-65l309 748h51zM194 267h319l-159 390z" />
    <glyph glyph-name="abreve" unicode="&#x103;" horiz-adv-x="535" 
d="M274 642q42 0 68.5 19.5t26.5 56.5h47q0 -56 -39.5 -86.5t-102.5 -30.5t-102.5 30.5t-39.5 86.5h47q0 -37 26.5 -56.5t68.5 -19.5zM261 464q-57 0 -94.5 -35.5t-37.5 -90.5l-57 2q0 70 51 122.5t137 52.5q89 0 136.5 -50.5t47.5 -141.5v-323h-57v76q-56 -85 -168 -85
q-73 0 -117 36t-44 103q0 137 185 147l144 9v36q0 68 -31.5 105t-94.5 37zM227 40q77 0 119 46t42 129v23l-139 -8q-135 -8 -135 -99t113 -91z" />
    <glyph glyph-name="Aogonek" unicode="&#x104;" horiz-adv-x="707" 
d="M554 -102q0 -25 17.5 -38t45.5 -13q33 0 60 12l6 -31q-37 -14 -72 -14q-43 0 -71.5 20.5t-28.5 58.5q0 69 108 117l-84 207h-362l-89 -217h-65l309 748h51l309 -748h-30q-53 -25 -78.5 -48t-25.5 -54zM513 267l-159 390l-160 -390h319z" />
    <glyph glyph-name="aogonek" unicode="&#x105;" horiz-adv-x="535" 
d="M327 -101q0 -25 17.5 -38t45.5 -13q33 0 60 12l6 -31q-37 -14 -72 -14q-43 0 -71.5 20.5t-28.5 58.5q0 67 103 115v67q-56 -85 -168 -85q-47 0 -83 15.5t-57 47t-21 76.5q0 137 185 147l144 9v36q0 68 -31.5 105t-94.5 37q-28 0 -52.5 -9.5t-42 -26t-27.5 -40t-10 -50.5
l-57 2q0 70 51 122.5t137 52.5q89 0 136.5 -50.5t47.5 -141.5v-323h-15q-52 -25 -77 -47.5t-25 -53.5zM227 40q77 0 119 46t42 129v23l-139 -8q-135 -8 -135 -99t113 -91z" />
    <glyph glyph-name="Cacute" unicode="&#x106;" horiz-adv-x="799" 
d="M436 795h-55l159 135h80zM755 249q-21 -117 -110 -187.5t-222 -70.5q-159 0 -261 102.5t-102 280.5q0 179 100.5 281t259.5 102q134 0 226 -75.5t108 -196.5l-61 -6q-13 101 -88.5 163t-186.5 62q-92 0 -160 -42.5t-103 -116.5t-35 -171q0 -155 85 -242.5t216 -87.5
q110 0 182.5 57t90.5 153z" />
    <glyph glyph-name="cacute" unicode="&#x107;" horiz-adv-x="570" 
d="M315 593h-46l113 191h63zM58 253q0 117 66 189.5t177 72.5q90 0 151 -51.5t71 -134.5l-55 -5q-7 64 -52.5 103t-114.5 39q-87 0 -136.5 -59t-49.5 -154q0 -94 50 -153.5t137 -59.5q69 0 113 35t54 96l55 -4q-14 -81 -72.5 -128.5t-149.5 -47.5q-111 0 -177.5 72.5
t-66.5 189.5z" />
    <glyph glyph-name="Ccircumflex" unicode="&#x108;" horiz-adv-x="799" 
d="M557 795h-50l-97 98l-96 -98h-50l121 135h52zM755 249q-21 -117 -110 -187.5t-222 -70.5q-159 0 -261 102.5t-102 280.5q0 179 100.5 281t259.5 102q134 0 226 -75.5t108 -196.5l-61 -6q-13 101 -88.5 163t-186.5 62q-92 0 -160 -42.5t-103 -116.5t-35 -171
q0 -155 85 -242.5t216 -87.5q110 0 182.5 57t90.5 153z" />
    <glyph glyph-name="ccircumflex" unicode="&#x109;" horiz-adv-x="570" 
d="M441 594h-49l-99 125l-98 -125h-49l121 166h52zM58 253q0 117 66 189.5t177 72.5q90 0 151 -51.5t71 -134.5l-55 -5q-7 64 -52.5 103t-114.5 39q-87 0 -136.5 -59t-49.5 -154q0 -94 50 -153.5t137 -59.5q69 0 113 35t54 96l55 -4q-14 -81 -72.5 -128.5t-149.5 -47.5
q-111 0 -177.5 72.5t-66.5 189.5z" />
    <glyph glyph-name="Cdotaccent" unicode="&#x10a;" horiz-adv-x="799" 
d="M367 857q0 17 13.5 30t30.5 13t29.5 -13t12.5 -30t-12.5 -30t-29.5 -13t-30.5 13t-13.5 30zM755 249q-21 -117 -110 -187.5t-222 -70.5q-159 0 -261 102.5t-102 280.5q0 179 100.5 281t259.5 102q134 0 226 -75.5t108 -196.5l-61 -6q-13 101 -88.5 163t-186.5 62
q-92 0 -160 -42.5t-103 -116.5t-35 -171q0 -155 85 -242.5t216 -87.5q110 0 182.5 57t90.5 153z" />
    <glyph glyph-name="cdotaccent" unicode="&#x10b;" horiz-adv-x="570" 
d="M250 680q0 17 13.5 30t30.5 13t29.5 -13t12.5 -30t-12.5 -30t-29.5 -13t-30.5 13t-13.5 30zM58 253q0 117 66 189.5t177 72.5q90 0 151 -51.5t71 -134.5l-55 -5q-7 64 -52.5 103t-114.5 39q-87 0 -136.5 -59t-49.5 -154q0 -94 50 -153.5t137 -59.5q69 0 113 35t54 96
l55 -4q-14 -81 -72.5 -128.5t-149.5 -47.5q-111 0 -177.5 72.5t-66.5 189.5z" />
    <glyph glyph-name="Ccaron" unicode="&#x10c;" horiz-adv-x="799" 
d="M437 795h-52l-121 135h50l96 -98l97 98h50zM755 249q-21 -117 -110 -187.5t-222 -70.5q-159 0 -261 102.5t-102 280.5q0 179 100.5 281t259.5 102q134 0 226 -75.5t108 -196.5l-61 -6q-13 101 -88.5 163t-186.5 62q-92 0 -160 -42.5t-103 -116.5t-35 -171
q0 -155 85 -242.5t216 -87.5q110 0 182.5 57t90.5 153z" />
    <glyph glyph-name="ccaron" unicode="&#x10d;" horiz-adv-x="570" 
d="M319 592h-52l-121 165h49l98 -125l99 125h49zM58 253q0 117 66 189.5t177 72.5q90 0 151 -51.5t71 -134.5l-55 -5q-7 64 -52.5 103t-114.5 39q-87 0 -136.5 -59t-49.5 -154q0 -94 50 -153.5t137 -59.5q69 0 113 35t54 96l55 -4q-14 -81 -72.5 -128.5t-149.5 -47.5
q-111 0 -177.5 72.5t-66.5 189.5z" />
    <glyph glyph-name="Dcaron" unicode="&#x10e;" horiz-adv-x="797" 
d="M379 795h-52l-121 135h50l96 -98l97 98h50zM98 748h284q156 0 255 -100t99 -274q0 -173 -100.5 -273.5t-255.5 -100.5h-282v748zM677 374q0 146 -78.5 234.5t-216.5 88.5h-225v-646h223q138 0 217.5 88.5t79.5 234.5z" />
    <glyph glyph-name="dcaron" unicode="&#x10f;" horiz-adv-x="724" 
d="M303 515q67 0 117.5 -28t73.5 -75v365h56v-777h-54v97q-23 -49 -73.5 -77.5t-119.5 -28.5q-111 0 -178 72.5t-67 188.5t67 189.5t178 73.5zM624 693q0 18 12 30.5t30 12.5q41 0 41 -51q0 -112 -92 -169v27q50 40 53 107h-1q-17 0 -30 13t-13 30zM308 40q86 0 135.5 53
t49.5 143v34q0 91 -49 143t-136 52q-59 0 -103.5 -27t-67.5 -75t-23 -110q0 -95 52.5 -154t141.5 -59z" />
    <glyph glyph-name="Dcroat" unicode="&#x110;" horiz-adv-x="787" 
d="M119 748h284q156 0 255 -100t99 -274q0 -173 -100.5 -273.5t-255.5 -100.5h-282v351h-118v46h118v351zM698 374q0 146 -78.5 234.5t-216.5 88.5h-225v-300h171v-46h-171v-300h223q138 0 217.5 88.5t79.5 234.5z" />
    <glyph glyph-name="dcroat" unicode="&#x111;" horiz-adv-x="636" 
d="M303 515q67 0 117.5 -28t73.5 -75v208h-102v44h102v113h56v-113h87v-44h-87v-620h-54v97q-23 -49 -73.5 -77.5t-119.5 -28.5q-111 0 -178 72.5t-67 188.5t67 189.5t178 73.5zM308 40q86 0 135.5 53t49.5 143v34q0 91 -49 143t-136 52q-89 0 -141.5 -58.5t-52.5 -153.5
t52.5 -154t141.5 -59z" />
    <glyph glyph-name="Emacron" unicode="&#x112;" horiz-adv-x="588" 
d="M451 844h-245v44h245v-44zM551 696h-394v-282h350v-52h-350v-309h394v-53h-453v748h453v-52z" />
    <glyph glyph-name="emacron" unicode="&#x113;" horiz-adv-x="587" 
d="M423 643h-245v44h245v-44zM302 515q107 0 167.5 -68t60.5 -179v-36h-413q2 -85 52.5 -138.5t132.5 -53.5q66 0 109.5 29t57.5 82l56 -4q-18 -71 -77 -113.5t-144 -42.5q-112 0 -179 72.5t-67 189.5t66 189.5t178 72.5zM475 279q0 85 -45.5 135.5t-128.5 50.5
q-82 0 -131.5 -51t-52.5 -135h358z" />
    <glyph glyph-name="Ebreve" unicode="&#x114;" horiz-adv-x="588" 
d="M328 849q41 0 68 20.5t27 56.5h47q0 -56 -39.5 -86.5t-102.5 -30.5t-102.5 30.5t-39.5 86.5h47q0 -36 27 -56.5t68 -20.5zM551 696h-394v-282h350v-52h-350v-309h394v-53h-453v748h453v-52z" />
    <glyph glyph-name="ebreve" unicode="&#x115;" horiz-adv-x="587" 
d="M442 718q0 -56 -39.5 -86.5t-102.5 -30.5t-102.5 30.5t-39.5 86.5h47q0 -37 26.5 -56.5t68.5 -19.5t68.5 19.5t26.5 56.5h47zM302 515q107 0 167.5 -68t60.5 -179v-36h-413q2 -85 52.5 -138.5t132.5 -53.5q66 0 109.5 29t57.5 82l56 -4q-18 -71 -77 -113.5t-144 -42.5
q-112 0 -179 72.5t-67 189.5t66 189.5t178 72.5zM475 279q0 85 -45.5 135.5t-128.5 50.5q-82 0 -131.5 -51t-52.5 -135h358z" />
    <glyph glyph-name="Edotaccent" unicode="&#x116;" horiz-adv-x="588" 
d="M286 857q0 17 13.5 30t30.5 13t29.5 -13t12.5 -30t-12.5 -30t-29.5 -13t-30.5 13t-13.5 30zM551 696h-394v-282h350v-52h-350v-309h394v-53h-453v748h453v-52z" />
    <glyph glyph-name="edotaccent" unicode="&#x117;" horiz-adv-x="587" 
d="M344 680q0 -17 -12.5 -30t-29.5 -13t-30.5 13t-13.5 30t13.5 30t30.5 13t29.5 -13t12.5 -30zM302 515q107 0 167.5 -68t60.5 -179v-36h-413q2 -85 52.5 -138.5t132.5 -53.5q66 0 109.5 29t57.5 82l56 -4q-18 -71 -77 -113.5t-144 -42.5q-112 0 -179 72.5t-67 189.5
t66 189.5t178 72.5zM475 279q0 85 -45.5 135.5t-128.5 50.5q-82 0 -131.5 -51t-52.5 -135h358z" />
    <glyph glyph-name="Eogonek" unicode="&#x118;" horiz-adv-x="588" 
d="M435 -102q0 -25 17.5 -38t45.5 -13q33 0 60 12l6 -31q-37 -14 -72 -14q-43 0 -71.5 20.5t-28.5 58.5q0 63 87 107h-381v748h453v-52h-394v-282h350v-52h-350v-309h394v-53h-12q-53 -25 -78.5 -48t-25.5 -54z" />
    <glyph glyph-name="eogonek" unicode="&#x119;" horiz-adv-x="587" 
d="M302 515q107 0 167.5 -68t60.5 -179v-36h-413q2 -85 52.5 -138.5t132.5 -53.5q66 0 109.5 29t57.5 82l56 -4q-14 -59 -59 -99t-109 -52q-50 -24 -74.5 -47t-24.5 -53q0 -25 17.5 -38t45.5 -13q33 0 60 12l6 -31q-37 -14 -72 -14q-43 0 -71.5 20.5t-28.5 58.5q0 59 75 100
q-106 5 -169 77t-63 185q0 117 66 189.5t178 72.5zM475 279q0 85 -45.5 135.5t-128.5 50.5q-82 0 -131.5 -51t-52.5 -135h358z" />
    <glyph glyph-name="Ecaron" unicode="&#x11a;" horiz-adv-x="588" 
d="M355 795h-52l-121 135h50l96 -98l97 98h50zM551 696h-394v-282h350v-52h-350v-309h394v-53h-453v748h453v-52z" />
    <glyph glyph-name="ecaron" unicode="&#x11b;" horiz-adv-x="587" 
d="M274 592l-121 165h49l98 -125l99 125h49l-122 -165h-52zM302 515q107 0 167.5 -68t60.5 -179v-36h-413q2 -85 52.5 -138.5t132.5 -53.5q66 0 109.5 29t57.5 82l56 -4q-18 -71 -77 -113.5t-144 -42.5q-112 0 -179 72.5t-67 189.5t66 189.5t178 72.5zM475 279
q0 85 -45.5 135.5t-128.5 50.5q-82 0 -131.5 -51t-52.5 -135h358z" />
    <glyph glyph-name="Gcircumflex" unicode="&#x11c;" horiz-adv-x="814" 
d="M317 795h-50l121 135h52l120 -135h-50l-97 98zM120 374q0 -148 79.5 -239t217.5 -91q127 0 199 71t79 198h-274v53h336v-22q0 -163 -90.5 -258t-248.5 -95q-156 0 -257 102.5t-101 280.5q0 179 100 281t257 102q134 0 226 -73.5t109 -194.5l-61 -10q-13 101 -88 163
t-186 62q-139 0 -218 -90.5t-79 -239.5z" />
    <glyph glyph-name="gcircumflex" unicode="&#x11d;" horiz-adv-x="642" 
d="M463 594h-49l-99 125l-98 -125h-49l121 166h52zM58 253q0 116 67.5 189t177.5 73q68 0 119 -29.5t74 -77.5v98h54v-540q0 -105 -64.5 -167t-171.5 -62q-63 0 -113 21t-82 59.5t-43 90.5l57 2q11 -57 60.5 -91.5t118.5 -34.5q55 0 96 21.5t63.5 61.5t22.5 95v132
q-23 -47 -73.5 -75t-117.5 -28q-110 0 -177.5 73t-67.5 189zM493 270q0 91 -49 143t-136 52q-89 0 -141.5 -58.5t-52.5 -154.5q0 -95 52.5 -153.5t141.5 -58.5q86 0 135.5 52.5t49.5 142.5v35z" />
    <glyph glyph-name="Gbreve" unicode="&#x11e;" horiz-adv-x="814" 
d="M555 926q0 -56 -39.5 -86.5t-102.5 -30.5t-102.5 30.5t-39.5 86.5h47q0 -36 27 -56.5t68 -20.5t68 20.5t27 56.5h47zM120 374q0 -148 79.5 -239t217.5 -91q127 0 199 71t79 198h-274v53h336v-22q0 -163 -90.5 -258t-248.5 -95q-156 0 -257 102.5t-101 280.5
q0 179 100 281t257 102q134 0 226 -73.5t109 -194.5l-61 -10q-13 101 -88 163t-186 62q-139 0 -218 -90.5t-79 -239.5z" />
    <glyph glyph-name="gbreve" unicode="&#x11f;" horiz-adv-x="642" 
d="M315 642q42 0 68.5 19.5t26.5 56.5h47q0 -56 -39.5 -86.5t-102.5 -30.5t-102.5 30.5t-39.5 86.5h47q0 -37 26.5 -56.5t68.5 -19.5zM58 253q0 116 67.5 189t177.5 73q68 0 119 -29.5t74 -77.5v98h54v-540q0 -105 -64.5 -167t-171.5 -62q-63 0 -113 21t-82 59.5t-43 90.5
l57 2q11 -57 60.5 -91.5t118.5 -34.5q55 0 96 21.5t63.5 61.5t22.5 95v132q-23 -47 -73.5 -75t-117.5 -28q-110 0 -177.5 73t-67.5 189zM493 270q0 91 -49 143t-136 52q-89 0 -141.5 -58.5t-52.5 -154.5q0 -95 52.5 -153.5t141.5 -58.5q86 0 135.5 52.5t49.5 142.5v35z" />
    <glyph glyph-name="Gdotaccent" unicode="&#x120;" horiz-adv-x="814" 
d="M457 857q0 -17 -12.5 -30t-29.5 -13t-30.5 13t-13.5 30t13.5 30t30.5 13t29.5 -13t12.5 -30zM120 374q0 -148 79.5 -239t217.5 -91q127 0 199 71t79 198h-274v53h336v-22q0 -163 -90.5 -258t-248.5 -95q-156 0 -257 102.5t-101 280.5q0 179 100 281t257 102
q134 0 226 -73.5t109 -194.5l-61 -10q-13 101 -88 163t-186 62q-139 0 -218 -90.5t-79 -239.5z" />
    <glyph glyph-name="gdotaccent" unicode="&#x121;" horiz-adv-x="642" 
d="M273 680q0 17 13.5 30t30.5 13t29.5 -13t12.5 -30t-12.5 -30t-29.5 -13t-30.5 13t-13.5 30zM58 253q0 116 67.5 189t177.5 73q68 0 119 -29.5t74 -77.5v98h54v-540q0 -105 -64.5 -167t-171.5 -62q-63 0 -113 21t-82 59.5t-43 90.5l57 2q11 -57 60.5 -91.5t118.5 -34.5
q55 0 96 21.5t63.5 61.5t22.5 95v132q-23 -47 -73.5 -75t-117.5 -28q-110 0 -177.5 73t-67.5 189zM493 270q0 91 -49 143t-136 52q-89 0 -141.5 -58.5t-52.5 -154.5q0 -95 52.5 -153.5t141.5 -58.5q86 0 135.5 52.5t49.5 142.5v35z" />
    <glyph glyph-name="Gcommaaccent" unicode="&#x122;" horiz-adv-x="814" 
d="M120 374q0 -148 79.5 -239t217.5 -91q127 0 199 71t79 198h-274v53h336v-22q0 -163 -90.5 -258t-248.5 -95q-156 0 -257 102.5t-101 280.5q0 179 100 281t257 102q134 0 226 -73.5t109 -194.5l-61 -10q-13 101 -88 163t-186 62q-139 0 -218 -90.5t-79 -239.5zM373 -88
q0 9 3 17t9 13.5t13.5 9t16.5 3.5q41 0 41 -51q0 -112 -92 -169v27q50 40 53 107h-1q-17 0 -30 13t-13 30z" />
    <glyph glyph-name="gcommaaccent" unicode="&#x123;" horiz-adv-x="642" 
d="M287 764q0 18 12 30.5t30 12.5q41 0 41 -51q0 -112 -92 -169v27q50 40 53 107h-1q-17 0 -30 13t-13 30zM303 515q68 0 119 -29.5t74 -77.5v98h54v-540q0 -105 -64.5 -167t-171.5 -62q-63 0 -113 21t-82 59.5t-43 90.5l57 2q11 -57 60.5 -91.5t118.5 -34.5q55 0 96 21.5
t63.5 61.5t22.5 95v132q-23 -47 -73.5 -75t-117.5 -28q-110 0 -177.5 73t-67.5 189t67.5 189t177.5 73zM308 40q86 0 135.5 52.5t49.5 142.5v35q0 91 -49 143t-136 52q-89 0 -141.5 -58.5t-52.5 -154.5q0 -95 52.5 -153.5t141.5 -58.5z" />
    <glyph glyph-name="Hcircumflex" unicode="&#x124;" horiz-adv-x="748" 
d="M520 795h-50l-97 98l-96 -98h-50l121 135h52zM651 0h-60v363h-434v-363h-59v748h59v-332h434v332h60v-748z" />
    <glyph glyph-name="hcircumflex" unicode="&#x125;" horiz-adv-x="596" 
d="M270 796h-50l-96 98l-97 -98h-50l121 135h52zM308 463q-66 0 -111.5 -46.5t-45.5 -112.5v-304h-56v777h56v-354q19 40 64 66t102 26q87 0 141 -57.5t54 -146.5v-311h-56v304q0 70 -40.5 114.5t-107.5 44.5z" />
    <glyph glyph-name="Hbar" unicode="&#x126;" horiz-adv-x="755" 
d="M748 556h-94v-556h-59v363h-435v-363h-59v556h-94v46h94v146h59v-146h435v146h59v-146h94v-46zM595 556h-435v-140h435v140z" />
    <glyph glyph-name="hbar" unicode="&#x127;" horiz-adv-x="596" 
d="M151 423q19 40 64 66t102 26q87 0 141 -57.5t54 -146.5v-311h-56v304q0 70 -40.5 114.5t-107.5 44.5q-66 0 -111.5 -46.5t-45.5 -112.5v-304h-56v620h-89v44h89v113h56v-113h100v-44h-100v-197z" />
    <glyph glyph-name="Itilde" unicode="&#x128;" horiz-adv-x="255" 
d="M-24 823q-2 42 20.5 71t60.5 29q32 0 73 -32t65 -32t38 16t15 41h34q2 -41 -21 -70.5t-60 -29.5q-32 0 -73 32t-65 32q-25 0 -39 -16t-14 -41h-34zM157 0h-59v748h59v-748z" />
    <glyph glyph-name="itilde" unicode="&#x129;" 
d="M-30 623q-2 42 20.5 71t60.5 29q32 0 73 -32t65 -32t38 16t15 41h34q2 -41 -21 -70.5t-60 -29.5q-32 0 -73 32t-65 32q-25 0 -39 -16t-14 -41h-34zM151 0h-56v506h56v-506z" />
    <glyph glyph-name="Imacron" unicode="&#x12a;" horiz-adv-x="255" 
d="M252 844h-245v44h245v-44zM157 0h-59v748h59v-748z" />
    <glyph glyph-name="imacron" unicode="&#x12b;" 
d="M247 643h-245v44h245v-44zM151 0h-56v506h56v-506z" />
    <glyph glyph-name="Ibreve" unicode="&#x12c;" horiz-adv-x="255" 
d="M129 849q41 0 68 20.5t27 56.5h47q0 -56 -39.5 -86.5t-102.5 -30.5t-102.5 30.5t-39.5 86.5h47q0 -36 27 -56.5t68 -20.5zM157 0h-59v748h59v-748z" />
    <glyph glyph-name="ibreve" unicode="&#x12d;" 
d="M124 642q42 0 68.5 19.5t26.5 56.5h47q0 -56 -39.5 -86.5t-102.5 -30.5t-102.5 30.5t-39.5 86.5h47q0 -37 26.5 -56.5t68.5 -19.5zM151 0h-56v506h56v-506z" />
    <glyph glyph-name="Iogonek" unicode="&#x12e;" horiz-adv-x="255" 
d="M30 -101q0 -25 17.5 -38t45.5 -13q33 0 60 12l6 -31q-37 -14 -72 -14q-43 0 -71.5 20.5t-28.5 58.5q0 70 111 118v736h59v-748h-25q-52 -25 -77 -47.5t-25 -53.5z" />
    <glyph glyph-name="iogonek" unicode="&#x12f;" 
d="M168 680q0 -17 -12.5 -30t-29.5 -13t-30.5 13t-13.5 30t13.5 30t30.5 13t29.5 -13t12.5 -30zM34 -101q0 -25 17.5 -38t45.5 -13q33 0 60 12l6 -31q-37 -14 -72 -14q-43 0 -71.5 20.5t-28.5 58.5q0 69 104 115v497h56v-506h-15q-52 -25 -77 -47.5t-25 -53.5z" />
    <glyph glyph-name="Idotaccent" unicode="&#x130;" horiz-adv-x="255" 
d="M86 857q0 17 13.5 30t30.5 13t29.5 -13t12.5 -30t-12.5 -30t-29.5 -13t-30.5 13t-13.5 30zM157 0h-59v748h59v-748z" />
    <glyph glyph-name="dotlessi" unicode="&#x131;" 
d="M151 0h-56v506h56v-506z" />
    <glyph glyph-name="Jcircumflex" unicode="&#x134;" horiz-adv-x="561" 
d="M590 795h-50l-97 98l-96 -98h-50l121 135h52zM252 44q78 0 118.5 47t40.5 130v527h59v-526q0 -108 -57 -169.5t-161 -61.5q-102 0 -161.5 60.5t-64.5 162.5l59 9q4 -81 47 -130t120 -49z" />
    <glyph glyph-name="jcircumflex" unicode="&#x135;" 
d="M270 594h-49l-99 125l-98 -125h-49l121 166h52zM152 -89q0 -81 -37 -126t-110 -45q-33 0 -61 14l20 46q25 -10 35 -10q98 0 98 119v597h55v-595z" />
    <glyph glyph-name="Kcommaaccent" unicode="&#x136;" horiz-adv-x="653" 
d="M157 0h-59v748h59v-379l353 379h76l-300 -323l346 -425h-74l-311 379l-90 -97v-282zM295 -83q0 18 12 30.5t30 12.5q41 0 41 -51q0 -112 -92 -169v27q50 40 53 107h-1q-17 0 -30 13t-13 30z" />
    <glyph glyph-name="kcommaaccent" unicode="&#x137;" horiz-adv-x="515" 
d="M151 0h-56v777h56v-515l253 244h71l-226 -222l254 -284h-74l-220 244l-58 -57v-187zM237 -83q0 18 12 30.5t30 12.5q41 0 41 -51q0 -112 -92 -169v27q50 40 53 107h-1q-17 0 -30 13t-13 30z" />
    <glyph glyph-name="Lacute" unicode="&#x139;" horiz-adv-x="591" 
d="M156 795h-55l159 135h80zM157 53h400v-53h-459v748h59v-695z" />
    <glyph glyph-name="lacute" unicode="&#x13a;" 
d="M151 807h-55l159 135h80zM151 0h-56v777h56v-777z" />
    <glyph glyph-name="Lcommaaccent" unicode="&#x13b;" horiz-adv-x="591" 
d="M557 53v-53h-459v748h59v-695h400zM294 -83q0 18 12 30.5t30 12.5q41 0 41 -51q0 -112 -92 -169v27q50 40 53 107h-1q-17 0 -30 13t-13 30z" />
    <glyph glyph-name="lcommaaccent" unicode="&#x13c;" 
d="M151 0h-56v777h56v-777zM81 -83q0 18 12 30.5t30 12.5q41 0 41 -51q0 -112 -92 -169v27q50 40 53 107h-1q-17 0 -30 13t-13 30z" />
    <glyph glyph-name="Lcaron" unicode="&#x13d;" horiz-adv-x="591" 
d="M157 53h400v-53h-459v748h59v-695zM479 693q0 18 12 30.5t30 12.5q41 0 41 -51q0 -112 -92 -169v27q50 40 53 107h-1q-17 0 -30 13t-13 30z" />
    <glyph glyph-name="lcaron" unicode="&#x13e;" horiz-adv-x="333" 
d="M95 777h56v-777h-56v777zM235 693q0 12 5.5 21.5t15 15.5t21.5 6q41 0 41 -51q0 -112 -92 -169v27q50 40 53 107h-1q-17 0 -30 13t-13 30z" />
    <glyph glyph-name="Ldot" unicode="&#x13f;" horiz-adv-x="591" 
d="M157 53h400v-53h-459v748h59v-695zM387 371q0 19 12.5 31.5t30.5 12.5q19 0 32 -12.5t13 -31.5t-13 -31.5t-32 -12.5q-18 0 -30.5 12.5t-12.5 31.5z" />
    <glyph glyph-name="ldot" unicode="&#x140;" horiz-adv-x="351" 
d="M151 0h-56v777h56v-777zM238 281q0 19 12.5 31.5t30.5 12.5q19 0 32 -12.5t13 -31.5t-13 -31.5t-32 -12.5q-18 0 -30.5 12.5t-12.5 31.5z" />
    <glyph glyph-name="Lslash" unicode="&#x141;" horiz-adv-x="601" 
d="M570 53v-53h-459v266l-106 -40l-8 46l114 43v433h59v-411l123 47l9 -45l-132 -50v-236h400z" />
    <glyph glyph-name="lslash" unicode="&#x142;" horiz-adv-x="267" 
d="M162 0h-56v259l-107 -44l-11 45l118 49v468h56v-445l107 44l11 -45l-118 -49v-282z" />
    <glyph glyph-name="Nacute" unicode="&#x143;" horiz-adv-x="743" 
d="M396 795h-55l159 135h80zM645 0h-50l-438 637v-637h-59v748h49l438 -638v638h60v-748z" />
    <glyph glyph-name="nacute" unicode="&#x144;" horiz-adv-x="604" 
d="M332 593h-46l113 191h63zM149 420q19 41 64.5 68t103.5 27q87 0 141 -57.5t54 -146.5v-311h-56v304q0 70 -40.5 114.5t-107.5 44.5q-66 0 -111.5 -46.5t-45.5 -112.5v-304h-56v506h54v-86z" />
    <glyph glyph-name="Ncommaaccent" unicode="&#x145;" horiz-adv-x="743" 
d="M645 748v-748h-50l-438 637v-637h-59v748h49l438 -638v638h60zM334 -83q0 18 12 30.5t30 12.5q41 0 41 -51q0 -112 -92 -169v27q50 40 53 107h-1q-17 0 -30 13t-13 30z" />
    <glyph glyph-name="ncommaaccent" unicode="&#x146;" horiz-adv-x="604" 
d="M149 420q19 41 64.5 68t103.5 27q87 0 141 -57.5t54 -146.5v-311h-56v304q0 70 -40.5 114.5t-107.5 44.5q-66 0 -111.5 -46.5t-45.5 -112.5v-304h-56v506h54v-86zM267 -83q0 18 12 30.5t30 12.5q41 0 41 -51q0 -112 -92 -169v27q50 40 53 107h-1q-17 0 -30 13t-13 30z
" />
    <glyph glyph-name="Ncaron" unicode="&#x147;" horiz-adv-x="743" 
d="M397 795h-52l-121 135h50l96 -98l97 98h50zM645 0h-50l-438 637v-637h-59v748h49l438 -638v638h60v-748z" />
    <glyph glyph-name="ncaron" unicode="&#x148;" horiz-adv-x="604" 
d="M336 592h-52l-121 165h49l98 -125l99 125h49zM149 420q19 41 64.5 68t103.5 27q87 0 141 -57.5t54 -146.5v-311h-56v304q0 70 -40.5 114.5t-107.5 44.5q-66 0 -111.5 -46.5t-45.5 -112.5v-304h-56v506h54v-86z" />
    <glyph glyph-name="Eng" unicode="&#x14a;" horiz-adv-x="743" 
d="M426 -203q77 0 118 47.5t41 130.5v40l-428 622v-637h-59v748h49l438 -638v638h60v-787q0 -100 -59 -158t-160 -58v52z" />
    <glyph glyph-name="eng" unicode="&#x14b;" horiz-adv-x="604" 
d="M317 515q87 0 141 -57.5t54 -146.5v-152h1v-247q0 -80 -40.5 -125.5t-116.5 -45.5v49q50 0 75 32t25 88v394q0 70 -40.5 114.5t-107.5 44.5q-66 0 -111.5 -46.5t-45.5 -112.5v-304h-56v506h54v-86q19 41 64.5 68t103.5 27z" />
    <glyph glyph-name="Omacron" unicode="&#x14c;" horiz-adv-x="861" 
d="M540 844h-245v44h245v-44zM431 757q159 0 264 -104t105 -279t-105 -279t-264 -104q-160 0 -265.5 104t-105.5 279t105.5 279t265.5 104zM431 704q-134 0 -222 -89t-88 -241t88 -241t222 -89q133 0 221 89t88 241t-88 241t-221 89z" />
    <glyph glyph-name="omacron" unicode="&#x14d;" horiz-adv-x="627" 
d="M435 643h-245v44h245v-44zM58 253q0 115 71 188.5t184 73.5t184.5 -73.5t71.5 -188.5t-71.5 -188.5t-184.5 -73.5t-184 73.5t-71 188.5zM512 253q0 94 -55 153t-144 59q-90 0 -144.5 -59t-54.5 -153q0 -62 24.5 -110t70 -75.5t104.5 -27.5q89 0 144 59.5t55 153.5z" />
    <glyph glyph-name="Obreve" unicode="&#x14e;" horiz-adv-x="861" 
d="M417 849q41 0 68 20.5t27 56.5h47q0 -56 -39.5 -86.5t-102.5 -30.5t-102.5 30.5t-39.5 86.5h47q0 -36 27 -56.5t68 -20.5zM431 757q159 0 264 -104t105 -279t-105 -279t-264 -104q-160 0 -265.5 104t-105.5 279t105.5 279t265.5 104zM431 704q-134 0 -222 -89t-88 -241
t88 -241t222 -89q133 0 221 89t88 241t-88 241t-221 89z" />
    <glyph glyph-name="obreve" unicode="&#x14f;" horiz-adv-x="627" 
d="M312 642q42 0 68.5 19.5t26.5 56.5h47q0 -56 -39.5 -86.5t-102.5 -30.5t-102.5 30.5t-39.5 86.5h47q0 -37 26.5 -56.5t68.5 -19.5zM58 253q0 115 71 188.5t184 73.5t184.5 -73.5t71.5 -188.5t-71.5 -188.5t-184.5 -73.5t-184 73.5t-71 188.5zM512 253q0 94 -55 153
t-144 59q-90 0 -144.5 -59t-54.5 -153q0 -62 24.5 -110t70 -75.5t104.5 -27.5q89 0 144 59.5t55 153.5z" />
    <glyph glyph-name="Ohungarumlaut" unicode="&#x150;" horiz-adv-x="861" 
d="M358 798h-46l60 137h54zM512 798h-46l60 137h54zM431 757q159 0 264 -104t105 -279t-105 -279t-264 -104q-160 0 -265.5 104t-105.5 279t105.5 279t265.5 104zM431 704q-134 0 -222 -89t-88 -241t88 -241t222 -89q133 0 221 89t88 241t-88 241t-221 89z" />
    <glyph glyph-name="ohungarumlaut" unicode="&#x151;" horiz-adv-x="627" 
d="M254 607h-46l63 146h53zM408 607h-46l63 146h54zM58 253q0 115 71 188.5t184 73.5t184.5 -73.5t71.5 -188.5t-71.5 -188.5t-184.5 -73.5t-184 73.5t-71 188.5zM512 253q0 94 -55 153t-144 59q-90 0 -144.5 -59t-54.5 -153q0 -62 24.5 -110t70 -75.5t104.5 -27.5
q89 0 144 59.5t55 153.5z" />
    <glyph glyph-name="OE" unicode="&#x152;" horiz-adv-x="1230" 
d="M431 757q104 0 184.5 -44t125.5 -118v153h453v-52h-394v-282h350v-52h-350v-309h394v-53h-453v153q-45 -74 -125.5 -118t-184.5 -44q-160 0 -265.5 104t-105.5 279t105.5 279t265.5 104zM740 374q0 152 -88 241t-221 89q-134 0 -222 -89t-88 -241t88 -241t222 -89
q133 0 221 89t88 241z" />
    <glyph glyph-name="oe" unicode="&#x153;" horiz-adv-x="1042" 
d="M756 515q107 0 167.5 -68t60.5 -179v-36h-413q2 -85 52.5 -138.5t132.5 -53.5q66 0 109.5 29t57.5 82l56 -4q-18 -71 -77 -113.5t-145 -42.5q-77 0 -133.5 35.5t-84.5 95.5q-30 -59 -89 -95t-137 -36q-113 0 -184 73.5t-71 188.5t71 188.5t184 73.5q78 0 137 -36t89 -95
q28 60 84 95.5t133 35.5zM313 465q-90 0 -144.5 -59t-54.5 -153q0 -62 24.5 -110t70 -75.5t104.5 -27.5q89 0 144 59.5t55 153.5t-55 153t-144 59zM929 279q0 56 -20 97.5t-59.5 65t-94.5 23.5q-82 0 -131.5 -51t-52.5 -135h358z" />
    <glyph glyph-name="Racute" unicode="&#x154;" horiz-adv-x="675" 
d="M338 795h-55l159 135h80zM594 532q0 -81 -38.5 -133.5t-105.5 -72.5l184 -326h-66l-179 316l-18 -1h-214v-315h-59v748h273q101 0 162 -57.5t61 -158.5zM534 532q0 77 -46.5 120.5t-123.5 43.5h-207v-328h207q77 0 123.5 43.5t46.5 120.5z" />
    <glyph glyph-name="racute" unicode="&#x155;" horiz-adv-x="321" 
d="M203 593h-46l113 191h63zM303 459q-67 0 -109.5 -42.5t-42.5 -108.5v-308h-56v506h54v-83q15 40 57 65t97 25v-54z" />
    <glyph glyph-name="Rcommaaccent" unicode="&#x156;" horiz-adv-x="675" 
d="M594 532q0 -81 -38.5 -133.5t-105.5 -72.5l184 -326h-66l-179 316l-18 -1h-214v-315h-59v748h273q101 0 162 -57.5t61 -158.5zM534 532q0 77 -46.5 120.5t-123.5 43.5h-207v-328h207q77 0 123.5 43.5t46.5 120.5zM308 -83q0 18 12 30.5t30 12.5q41 0 41 -51
q0 -112 -92 -169v27q50 40 53 107h-1q-17 0 -30 13t-13 30z" />
    <glyph glyph-name="rcommaaccent" unicode="&#x157;" horiz-adv-x="321" 
d="M303 459q-67 0 -109.5 -42.5t-42.5 -108.5v-308h-56v506h54v-83q15 40 57 65t97 25v-54zM83 -83q0 18 12 30.5t30 12.5q41 0 41 -51q0 -112 -92 -169v27q50 40 53 107h-1q-17 0 -30 13t-13 30z" />
    <glyph glyph-name="Rcaron" unicode="&#x158;" horiz-adv-x="675" 
d="M287 795l-121 135h50l96 -98l97 98h50l-120 -135h-52zM594 532q0 -81 -38.5 -133.5t-105.5 -72.5l184 -326h-66l-179 316l-18 -1h-214v-315h-59v748h273q101 0 162 -57.5t61 -158.5zM534 532q0 77 -46.5 120.5t-123.5 43.5h-207v-328h207q77 0 123.5 43.5t46.5 120.5z
" />
    <glyph glyph-name="rcaron" unicode="&#x159;" horiz-adv-x="321" 
d="M207 592h-52l-121 165h49l98 -125l99 125h49zM303 459q-67 0 -109.5 -42.5t-42.5 -108.5v-308h-56v506h54v-83q15 40 57 65t97 25v-54z" />
    <glyph glyph-name="Sacute" unicode="&#x15a;" horiz-adv-x="652" 
d="M352 795h-55l159 135h80zM79 554q0 96 68.5 149.5t178.5 53.5q105 0 173 -52t74 -144l-59 -4q-6 70 -57 109t-130 39q-54 0 -96 -16.5t-67 -50.5t-25 -82q0 -23 6 -42t14 -32t24 -24.5t28.5 -18t36 -13.5t36.5 -10.5t40 -9.5l15 -3q139 -31 199 -72t60 -132
q0 -102 -72.5 -155t-187.5 -53t-192.5 54.5t-84.5 151.5l60 4q7 -73 68.5 -115.5t148.5 -42.5q89 0 144.5 37.5t55.5 114.5q0 23 -6 41.5t-14.5 32t-25 25t-29.5 18t-36.5 14t-37 10.5l-40.5 9q-21 5 -31 7q-6 1 -25 6t-22.5 6t-17.5 4.5t-19 5.5t-16 5.5t-20 7.5t-20 9
q-49 23 -74 60t-25 98z" />
    <glyph glyph-name="sacute" unicode="&#x15b;" horiz-adv-x="495" 
d="M262 593h-46l113 191h63zM239 465q-54 1 -86 -22.5t-32 -70.5q0 -37 22 -52q10 -7 25.5 -12.5t24.5 -8.5t32.5 -8.5t28.5 -6.5q93 -22 135 -51t42 -92q0 -73 -51 -111.5t-133 -38.5q-81 0 -132 37.5t-61 106.5l56 4q8 -49 44 -74t94 -25q57 0 92 24t35 73q0 45 -30 63.5
t-114 37.5q-39 9 -73 19q-6 2 -11 3.5t-8.5 2.5t-6.5 2.5l-5 2.5t-5.5 3.5t-5.5 3.5t-7 4.5t-7 5.5q-37 24 -37 86q0 70 48.5 107t127.5 36q50 1 88 -16.5t60 -49.5t28 -76l-56 -4q-6 47 -37.5 72.5t-84.5 24.5z" />
    <glyph glyph-name="Scircumflex" unicode="&#x15c;" horiz-adv-x="652" 
d="M473 795h-50l-97 98l-96 -98h-50l121 135h52zM79 554q0 96 68.5 149.5t178.5 53.5q105 0 173 -52t74 -144l-59 -4q-6 70 -57 109t-130 39q-54 0 -96 -16.5t-67 -50.5t-25 -82q0 -23 6 -42t14 -32t24 -24.5t28.5 -18t36 -13.5t36.5 -10.5t40 -9.5l15 -3q139 -31 199 -72
t60 -132q0 -102 -72.5 -155t-187.5 -53t-192.5 54.5t-84.5 151.5l60 4q7 -73 68.5 -115.5t148.5 -42.5q89 0 144.5 37.5t55.5 114.5q0 23 -6 41.5t-14.5 32t-25 25t-29.5 18t-36.5 14t-37 10.5l-40.5 9q-21 5 -31 7q-6 1 -25 6t-22.5 6t-17.5 4.5t-19 5.5t-16 5.5t-20 7.5
t-20 9q-49 23 -74 60t-25 98z" />
    <glyph glyph-name="scircumflex" unicode="&#x15d;" horiz-adv-x="495" 
d="M388 594h-49l-99 125l-98 -125h-49l121 166h52zM239 465q-54 1 -86 -22.5t-32 -70.5q0 -37 22 -52q10 -7 25.5 -12.5t24.5 -8.5t32.5 -8.5t28.5 -6.5q93 -22 135 -51t42 -92q0 -73 -51 -111.5t-133 -38.5q-81 0 -132 37.5t-61 106.5l56 4q8 -49 44 -74t94 -25q57 0 92 24
t35 73q0 45 -30 63.5t-114 37.5q-39 9 -73 19q-6 2 -11 3.5t-8.5 2.5t-6.5 2.5l-5 2.5t-5.5 3.5t-5.5 3.5t-7 4.5t-7 5.5q-37 24 -37 86q0 70 48.5 107t127.5 36q50 1 88 -16.5t60 -49.5t28 -76l-56 -4q-6 47 -37.5 72.5t-84.5 24.5z" />
    <glyph glyph-name="Scedilla" unicode="&#x15e;" horiz-adv-x="652" 
d="M327 705q-83 0 -135.5 -39t-52.5 -110q0 -23 6 -42t14 -32t24 -24.5t28.5 -18t36 -13.5t36.5 -10.5t40 -9.5l15 -3q139 -31 199 -72t60 -132q0 -99 -67.5 -151.5t-176.5 -56.5l-12 -55q51 -2 82.5 -24.5t31.5 -66.5q0 -29 -16.5 -50t-42.5 -31t-57 -10q-56 0 -98 24
l11 34q37 -22 82 -22q21 0 38 5.5t28.5 18.5t11.5 31q0 60 -88 60q-13 0 -24 -3l22 89q-108 4 -181.5 58t-80.5 148l60 4q7 -73 68.5 -115.5t148.5 -42.5q89 0 144.5 37.5t55.5 114.5q0 23 -6 41.5t-14.5 32t-25 25t-29.5 18t-36.5 14t-37 10.5l-40.5 9q-21 5 -31 7
q-6 1 -25 6t-22.5 6t-17.5 4.5t-19 5.5t-16 5.5t-20 7.5t-20 9q-49 23 -74 60t-25 98q0 49 18.5 87.5t51.5 63.5t78 38.5t99 13.5q105 0 173 -52t74 -144l-59 -4q-6 70 -57 109t-130 39z" />
    <glyph glyph-name="scedilla" unicode="&#x15f;" horiz-adv-x="495" 
d="M239 465q-54 1 -86 -22.5t-32 -70.5q0 -37 22 -52q10 -7 25.5 -12.5t24.5 -8.5t32.5 -8.5t28.5 -6.5q93 -22 135 -51t42 -92q0 -70 -46 -108t-122 -42l-12 -55q51 -2 82.5 -24.5t31.5 -66.5q0 -43 -34 -67t-82 -24q-56 0 -98 24l11 34q37 -22 82 -22q33 0 55.5 14
t22.5 41q0 60 -88 60q-14 0 -24 -3l22 89q-75 4 -121.5 41t-56.5 103l56 4q8 -49 44 -74t94 -25q57 0 92 24t35 73q0 45 -30 63.5t-114 37.5q-39 9 -73 19q-6 2 -11 3.5t-8.5 2.5t-6.5 2.5l-5 2.5t-5.5 3.5t-5.5 3.5t-7 4.5t-7 5.5q-37 24 -37 86q0 70 48.5 107t127.5 36
q50 1 88 -16.5t60 -49.5t28 -76l-56 -4q-6 47 -37.5 72.5t-84.5 24.5z" />
    <glyph glyph-name="Scaron" unicode="&#x160;" horiz-adv-x="652" 
d="M353 795h-52l-121 135h50l96 -98l97 98h50zM79 554q0 96 68.5 149.5t178.5 53.5q105 0 173 -52t74 -144l-59 -4q-6 70 -57 109t-130 39q-54 0 -96 -16.5t-67 -50.5t-25 -82q0 -23 6 -42t14 -32t24 -24.5t28.5 -18t36 -13.5t36.5 -10.5t40 -9.5l15 -3q139 -31 199 -72
t60 -132q0 -102 -72.5 -155t-187.5 -53t-192.5 54.5t-84.5 151.5l60 4q7 -73 68.5 -115.5t148.5 -42.5q89 0 144.5 37.5t55.5 114.5q0 23 -6 41.5t-14.5 32t-25 25t-29.5 18t-36.5 14t-37 10.5l-40.5 9q-21 5 -31 7q-6 1 -25 6t-22.5 6t-17.5 4.5t-19 5.5t-16 5.5t-20 7.5
t-20 9q-49 23 -74 60t-25 98z" />
    <glyph glyph-name="scaron" unicode="&#x161;" horiz-adv-x="495" 
d="M266 592h-52l-121 165h49l98 -125l99 125h49zM239 465q-54 1 -86 -22.5t-32 -70.5q0 -37 22 -52q10 -7 25.5 -12.5t24.5 -8.5t32.5 -8.5t28.5 -6.5q93 -22 135 -51t42 -92q0 -73 -51 -111.5t-133 -38.5q-81 0 -132 37.5t-61 106.5l56 4q8 -49 44 -74t94 -25q57 0 92 24
t35 73q0 45 -30 63.5t-114 37.5q-39 9 -73 19q-6 2 -11 3.5t-8.5 2.5t-6.5 2.5l-5 2.5t-5.5 3.5t-5.5 3.5t-7 4.5t-7 5.5q-37 24 -37 86q0 70 48.5 107t127.5 36q50 1 88 -16.5t60 -49.5t28 -76l-56 -4q-6 47 -37.5 72.5t-84.5 24.5z" />
    <glyph glyph-name="Tcaron" unicode="&#x164;" horiz-adv-x="677" 
d="M366 795h-52l-121 135h50l96 -98l97 98h50zM660 696h-292v-696h-59v696h-292v52h643v-52z" />
    <glyph glyph-name="tcaron" unicode="&#x165;" horiz-adv-x="475" 
d="M377 693q0 18 12 30.5t30 12.5q41 0 41 -51q0 -112 -92 -169v27q50 40 53 107h-1q-17 0 -30 13t-13 30zM249 -5q-70 0 -105.5 39.5t-35.5 113.5l1 309h-96v49h96l1 179h57l-1 -179h145v-49h-145l-2 -299q0 -112 96 -112q20 0 53 5v-51q-25 -5 -64 -5z" />
    <glyph glyph-name="Tbar" unicode="&#x166;" horiz-adv-x="677" 
d="M368 696v-297h150v-47h-150v-352h-59v352h-150v47h150v297h-292v52h643v-52h-292z" />
    <glyph glyph-name="tbar" unicode="&#x167;" horiz-adv-x="333" 
d="M249 -5q-70 0 -105.5 39.5t-35.5 113.5v104h-95v41h96v164h-96v49h96l1 179h57l-1 -179h145v-49h-145l-1 -164h146v-41h-146l-1 -94q0 -112 96 -112q20 0 53 5v-51q-25 -5 -64 -5z" />
    <glyph glyph-name="Utilde" unicode="&#x168;" horiz-adv-x="758" 
d="M225 823q-2 42 20.5 71t60.5 29q32 0 73 -32t65 -32q16 0 28 7.5t18 20t7 29.5h34q2 -41 -21 -70.5t-60 -29.5q-32 0 -73 32t-65 32q-25 0 -39 -16t-14 -41h-34zM378 44q109 0 169 58.5t60 167.5v478h59v-479q0 -133 -76.5 -205.5t-211.5 -72.5q-89 0 -153.5 32t-99 95
t-34.5 151v479h59v-478q0 -109 59.5 -167.5t168.5 -58.5z" />
    <glyph glyph-name="utilde" unicode="&#x169;" horiz-adv-x="585" 
d="M141 623q-2 42 20.5 71t60.5 29q32 0 73 -32t65 -32q16 0 28 7.5t18 20t7 29.5h34q2 -41 -21 -70.5t-60 -29.5q-32 0 -73 32t-65 32q-25 0 -39 -16t-14 -41h-34zM286 44q65 0 106.5 45.5t41.5 112.5v304h56v-506h-53v86q-19 -42 -61.5 -68.5t-99.5 -26.5q-85 0 -135 56
t-50 145v314h55v-307q0 -70 37 -112.5t103 -42.5z" />
    <glyph glyph-name="Umacron" unicode="&#x16a;" horiz-adv-x="758" 
d="M500 844h-245v44h245v-44zM378 44q109 0 169 58.5t60 167.5v478h59v-479q0 -133 -76.5 -205.5t-211.5 -72.5t-211 72.5t-76 205.5v479h59v-478q0 -109 59.5 -167.5t168.5 -58.5z" />
    <glyph glyph-name="umacron" unicode="&#x16b;" horiz-adv-x="585" 
d="M418 643h-245v44h245v-44zM286 44q65 0 106.5 45.5t41.5 112.5v304h56v-506h-53v86q-19 -42 -61.5 -68.5t-99.5 -26.5q-85 0 -135 56t-50 145v314h55v-307q0 -70 37 -112.5t103 -42.5z" />
    <glyph glyph-name="Ubreve" unicode="&#x16c;" horiz-adv-x="758" 
d="M377 849q41 0 68 20.5t27 56.5h47q0 -56 -39.5 -86.5t-102.5 -30.5t-102.5 30.5t-39.5 86.5h47q0 -36 27 -56.5t68 -20.5zM378 44q109 0 169 58.5t60 167.5v478h59v-479q0 -133 -76.5 -205.5t-211.5 -72.5t-211 72.5t-76 205.5v479h59v-478q0 -109 59.5 -167.5
t168.5 -58.5z" />
    <glyph glyph-name="ubreve" unicode="&#x16d;" horiz-adv-x="585" 
d="M295 642q42 0 68.5 19.5t26.5 56.5h47q0 -56 -39.5 -86.5t-102.5 -30.5t-102.5 30.5t-39.5 86.5h47q0 -37 26.5 -56.5t68.5 -19.5zM286 44q65 0 106.5 45.5t41.5 112.5v304h56v-506h-53v86q-19 -42 -61.5 -68.5t-99.5 -26.5q-85 0 -135 56t-50 145v314h55v-307
q0 -70 37 -112.5t103 -42.5z" />
    <glyph glyph-name="Uring" unicode="&#x16e;" horiz-adv-x="758" 
d="M279 886q0 40 28.5 66.5t69.5 26.5q40 0 68 -27t28 -66t-28 -66t-68 -27q-41 0 -69.5 26.5t-28.5 66.5zM437 886q0 26 -17 42t-43 16q-27 0 -44 -16t-17 -42t17.5 -42.5t43.5 -16.5t43 16.5t17 42.5zM378 44q109 0 169 58.5t60 167.5v478h59v-479q0 -133 -76.5 -205.5
t-211.5 -72.5t-211 72.5t-76 205.5v479h59v-478q0 -109 59.5 -167.5t168.5 -58.5z" />
    <glyph glyph-name="uring" unicode="&#x16f;" horiz-adv-x="585" 
d="M190 687q0 43 30.5 71t75.5 28q43 0 73.5 -28.5t30.5 -70.5t-30.5 -70.5t-73.5 -28.5q-45 0 -75.5 28t-30.5 71zM361 687q0 27 -19 44.5t-47 17.5t-47 -17.5t-19 -44.5q0 -28 18.5 -45t47.5 -17t47.5 17t18.5 45zM286 44q65 0 106.5 45.5t41.5 112.5v304h56v-506h-53v86
q-19 -42 -61.5 -68.5t-99.5 -26.5q-85 0 -135 56t-50 145v314h55v-307q0 -70 37 -112.5t103 -42.5z" />
    <glyph glyph-name="Uhungarumlaut" unicode="&#x170;" horiz-adv-x="758" 
d="M318 798h-46l60 137h54zM472 798h-46l60 137h54zM378 44q109 0 169 58.5t60 167.5v478h59v-479q0 -133 -76.5 -205.5t-211.5 -72.5t-211 72.5t-76 205.5v479h59v-478q0 -109 59.5 -167.5t168.5 -58.5z" />
    <glyph glyph-name="uhungarumlaut" unicode="&#x171;" horiz-adv-x="585" 
d="M237 607h-46l63 146h53zM391 607h-46l63 146h54zM286 44q65 0 106.5 45.5t41.5 112.5v304h56v-506h-53v86q-19 -42 -61.5 -68.5t-99.5 -26.5q-85 0 -135 56t-50 145v314h55v-307q0 -70 37 -112.5t103 -42.5z" />
    <glyph glyph-name="Uogonek" unicode="&#x172;" horiz-adv-x="758" 
d="M378 44q109 0 169 58.5t60 167.5v478h59v-479q0 -110 -53 -179t-148 -90q-52 -25 -77 -48t-25 -53q0 -17 8.5 -28.5t22.5 -17t32 -5.5q33 0 60 12l6 -31q-37 -14 -72 -14q-28 0 -50 8.5t-36 27t-14 43.5q0 56 69 97h-11q-135 0 -211 72.5t-76 205.5v479h59v-478
q0 -109 59.5 -167.5t168.5 -58.5z" />
    <glyph glyph-name="uogonek" unicode="&#x173;" horiz-adv-x="585" 
d="M375 -102q0 -25 17.5 -38t45.5 -13q33 0 60 12l6 -31q-37 -14 -72 -14q-43 0 -71.5 20.5t-28.5 58.5q0 68 105 116v77q-19 -42 -61.5 -68.5t-99.5 -26.5q-85 0 -135 56t-50 145v314h55v-307q0 -70 37 -112.5t103 -42.5q65 0 106.5 46t41.5 112v304h56v-506h-11
q-53 -25 -78.5 -48t-25.5 -54z" />
    <glyph glyph-name="Wcircumflex" unicode="&#x174;" horiz-adv-x="1115" 
d="M704 795h-50l-97 98l-96 -98h-50l121 135h52zM829 0h-50l-222 639l-221 -639h-50l-262 748h65l223 -646l221 646h49l222 -646l223 646h63z" />
    <glyph glyph-name="wcircumflex" unicode="&#x175;" horiz-adv-x="806" 
d="M551 594h-49l-99 125l-98 -125h-49l121 166h52zM602 0h-45l-153 411l-155 -411h-44l-192 506h61l155 -416l154 416h40l155 -416l154 416h61z" />
    <glyph glyph-name="Ycircumflex" unicode="&#x176;" horiz-adv-x="666" 
d="M480 795h-50l-97 98l-96 -98h-50l121 135h52zM362 0h-59v322l-283 426h69l244 -368l244 368h68l-283 -426v-322z" />
    <glyph glyph-name="ycircumflex" unicode="&#x177;" horiz-adv-x="509" 
d="M403 594h-49l-99 125l-98 -125h-49l121 166h52zM171 -255h-62l115 273l-203 488h62l172 -424l172 424h62z" />
    <glyph glyph-name="Ydieresis" unicode="&#x178;" horiz-adv-x="666" 
d="M232 864q0 15 11 26t27 11t27.5 -11t11.5 -26q0 -16 -11.5 -27t-27.5 -11t-27 11t-11 27zM360 864q0 15 11 26t27 11t27 -11t11 -26q0 -16 -11 -27t-27 -11t-27 11t-11 27zM362 0h-59v322l-283 426h69l244 -368l244 368h68l-283 -426v-322z" />
    <glyph glyph-name="Zacute" unicode="&#x179;" horiz-adv-x="614" 
d="M334 795h-55l159 135h80zM579 53v-53h-542v45l459 651h-441v52h517v-45l-459 -650h466z" />
    <glyph glyph-name="zacute" unicode="&#x17a;" horiz-adv-x="444" 
d="M246 593h-46l113 191h63zM414 46v-46h-382v38l302 422h-295v46h361v-37l-301 -423h315z" />
    <glyph glyph-name="Zdotaccent" unicode="&#x17b;" horiz-adv-x="614" 
d="M265 857q0 17 13.5 30t30.5 13t29.5 -13t12.5 -30t-12.5 -30t-29.5 -13t-30.5 13t-13.5 30zM579 53v-53h-542v45l459 651h-441v52h517v-45l-459 -650h466z" />
    <glyph glyph-name="zdotaccent" unicode="&#x17c;" horiz-adv-x="444" 
d="M182 680q0 17 13.5 30t30.5 13t29.5 -13t12.5 -30t-12.5 -30t-29.5 -13t-30.5 13t-13.5 30zM414 46v-46h-382v38l302 422h-295v46h361v-37l-301 -423h315z" />
    <glyph glyph-name="Zcaron" unicode="&#x17d;" horiz-adv-x="614" 
d="M334 795h-52l-121 135h50l96 -98l97 98h50zM579 53v-53h-542v45l459 651h-441v52h517v-45l-459 -650h466z" />
    <glyph glyph-name="zcaron" unicode="&#x17e;" horiz-adv-x="444" 
d="M250 592h-52l-121 165h49l98 -125l99 125h49zM414 46v-46h-382v38l302 422h-295v46h361v-37l-301 -423h315z" />
    <glyph glyph-name="florin" unicode="&#x192;" horiz-adv-x="425" 
d="M325 785q75 0 127 -45l-25 -46q-39 41 -96 41q-84 0 -100 -103l-22 -126h164v-48h-173l-106 -600h-57l106 600h-116v48h124l24 136q25 143 150 143z" />
    <glyph glyph-name="Aringacute" unicode="&#x1fa;" horiz-adv-x="707" 
d="M454 865q0 -40 -28 -66.5t-69 -26.5t-69 26.5t-28 66.5q0 55 47 80l139 110h74l-143 -99q33 -6 55 -30.5t22 -60.5zM357 806q26 0 43 16.5t17 42.5t-17 42t-43 16t-43.5 -16t-17.5 -42t17.5 -42.5t43.5 -16.5zM688 0h-65l-88 217h-362l-89 -217h-65l309 748h51zM513 267
l-159 390l-160 -390h319z" />
    <glyph glyph-name="aringacute" unicode="&#x1fb;" horiz-adv-x="535" 
d="M365 679q0 -40 -28 -66.5t-69 -26.5t-69 26.5t-28 66.5q0 56 48 81l139 108h74l-145 -98q34 -5 56 -30t22 -61zM268 621q27 0 44 16t17 42q0 27 -17 43t-44 16q-26 0 -43.5 -16.5t-17.5 -42.5t17.5 -42t43.5 -16zM261 464q-57 0 -94.5 -35.5t-37.5 -90.5l-57 2
q0 70 51 122.5t137 52.5q89 0 136.5 -50.5t47.5 -141.5v-323h-57v76q-56 -85 -168 -85q-73 0 -117 36t-44 103q0 137 185 147l144 9v36q0 68 -31.5 105t-94.5 37zM227 40q77 0 119 46t42 129v23l-139 -8q-135 -8 -135 -99t113 -91z" />
    <glyph glyph-name="AEacute" unicode="&#x1fc;" horiz-adv-x="1002" 
d="M671 795h-55l159 135h80zM573 696v-282h350v-52h-350v-309h394v-53h-453v217h-287l-144 -217h-72l496 748h460v-52h-394zM514 267v387l-255 -387h255z" />
    <glyph glyph-name="aeacute" unicode="&#x1fd;" horiz-adv-x="917" 
d="M464 593h-46l113 191h63zM632 515q107 0 168 -68t61 -179v-36h-414q2 -85 52.5 -138.5t132.5 -53.5q66 0 109.5 29t58.5 82l56 -4q-18 -71 -77 -113.5t-145 -42.5q-75 0 -130 33.5t-84 89.5q-26 -56 -77 -89.5t-122 -33.5q-73 0 -118 36t-45 103q0 137 185 147l144 9v22
q0 73 -31 115.5t-95 42.5q-38 0 -68 -16.5t-47 -45.5t-17 -66l-57 2q0 70 51 122.5t137 52.5q124 0 166 -110q29 50 82.5 80t123.5 30zM805 279q0 56 -20 97.5t-59.5 65t-94.5 23.5q-82 0 -131.5 -51t-52.5 -135h358zM227 40q77 0 119 46t42 129v24l-139 -8
q-135 -10 -135 -99q0 -92 113 -92z" />
    <glyph glyph-name="Oslashacute" unicode="&#x1fe;" horiz-adv-x="836" 
d="M444 795h-55l159 135h80zM800 374q0 -175 -105 -279t-264 -104q-130 0 -225 69l-68 -88l-37 28l69 90q-110 107 -110 284q0 175 105.5 279t265.5 104q115 0 206 -57l59 78l37 -28l-59 -77q126 -108 126 -299zM431 704q-134 0 -222 -89t-88 -241q0 -147 85 -237l397 519
q-76 48 -172 48zM431 44q133 0 221 89t88 241q0 161 -101 254l-399 -523q79 -61 191 -61z" />
    <glyph glyph-name="oslashacute" unicode="&#x1ff;" horiz-adv-x="627" 
d="M335 593h-46l113 191h63zM58 253q0 115 71 188.5t184 73.5q83 0 145 -41l41 54l32 -24l-41 -54q79 -74 79 -197q0 -115 -71.5 -188.5t-184.5 -73.5q-80 0 -142 39l-44 -57l-32 24l44 58q-81 73 -81 198zM313 465q-90 0 -144.5 -59t-54.5 -153q0 -97 57 -156l255 335
q-48 33 -113 33zM313 40q89 0 144 59.5t55 153.5q0 95 -55 153l-255 -335q50 -31 111 -31z" />
    <glyph glyph-name="Scommaaccent" unicode="&#x218;" horiz-adv-x="652" 
d="M327 705q-83 0 -135.5 -39t-52.5 -110q0 -23 6 -42t14 -32t24 -24.5t28.5 -18t36 -13.5t36.5 -10.5t40 -9.5l15 -3q139 -31 199 -72t60 -132q0 -102 -72.5 -155t-187.5 -53t-192.5 54.5t-84.5 151.5l60 4q7 -73 68.5 -115.5t148.5 -42.5q89 0 144.5 37.5t55.5 114.5
q0 23 -6 41.5t-14.5 32t-25 25t-29.5 18t-36.5 14t-37 10.5l-40.5 9q-21 5 -31 7q-6 1 -25 6t-22.5 6t-17.5 4.5t-19 5.5t-16 5.5t-20 7.5t-20 9q-49 23 -74 60t-25 98q0 49 18.5 87.5t51.5 63.5t78 38.5t99 13.5q105 0 173 -52t74 -144l-59 -4q-6 70 -57 109t-130 39z
M295 -88q0 18 12 30.5t30 12.5q41 0 41 -51q0 -112 -92 -169v27q50 40 53 107h-1q-17 0 -30 13t-13 30z" />
    <glyph glyph-name="scommaaccent" unicode="&#x219;" horiz-adv-x="495" 
d="M239 465q-54 1 -86 -22.5t-32 -70.5q0 -37 22 -52q10 -7 25.5 -12.5t24.5 -8.5t32.5 -8.5t28.5 -6.5q93 -22 135 -51t42 -92q0 -73 -51 -111.5t-133 -38.5q-81 0 -132 37.5t-61 106.5l56 4q8 -49 44 -74t94 -25q57 0 92 24t35 73q0 45 -30 63.5t-114 37.5q-39 9 -73 19
q-6 2 -11 3.5t-8.5 2.5t-6.5 2.5l-5 2.5t-5.5 3.5t-5.5 3.5t-7 4.5t-7 5.5q-37 24 -37 86q0 70 48.5 107t127.5 36q50 1 88 -16.5t60 -49.5t28 -76l-56 -4q-6 47 -37.5 72.5t-84.5 24.5zM204 -88q0 18 12 30.5t30 12.5q41 0 41 -51q0 -112 -92 -169v27q50 40 53 107h-1
q-11 0 -21 6t-16 16t-6 21z" />
    <glyph glyph-name="uni021A" unicode="&#x21a;" horiz-adv-x="677" 
d="M660 748v-52h-292v-696h-59v696h-292v52h643zM297 -83q0 18 12 30.5t30 12.5q41 0 41 -51q0 -112 -92 -169v27q50 40 53 107h-1q-17 0 -30 13t-13 30z" />
    <glyph glyph-name="uni021B" unicode="&#x21b;" horiz-adv-x="333" 
d="M249 -5q-70 0 -105.5 39.5t-35.5 113.5l1 309h-96v49h96l1 179h57l-1 -179h145v-49h-145l-2 -299q0 -112 96 -112q20 0 53 5v-51q-25 -5 -64 -5zM159 -91q0 18 12 30.5t30 12.5q41 0 41 -51q0 -112 -92 -169v27q50 40 53 107h-1q-17 0 -30 13t-13 30z" />
    <glyph glyph-name="dotlessj" unicode="&#x237;" 
d="M152 -89q0 -81 -37 -126t-110 -45q-33 0 -61 14l20 46q25 -10 35 -10q98 0 98 119v597h55v-595z" />
    <glyph glyph-name="circumflex" unicode="&#x2c6;" horiz-adv-x="334" 
d="M315 594h-49l-99 125l-98 -125h-49l121 166h52z" />
    <glyph glyph-name="caron" unicode="&#x2c7;" horiz-adv-x="334" 
d="M193 592h-52l-121 165h49l98 -125l99 125h49z" />
    <glyph glyph-name="breve" unicode="&#x2d8;" horiz-adv-x="334" 
d="M166 642q42 0 68.5 19.5t26.5 56.5h47q0 -56 -39.5 -86.5t-102.5 -30.5t-102.5 30.5t-39.5 86.5h47q0 -37 26.5 -56.5t68.5 -19.5z" />
    <glyph glyph-name="dotaccent" unicode="&#x2d9;" horiz-adv-x="134" 
d="M24 680q0 17 13.5 30t30.5 13t29.5 -13t12.5 -30t-12.5 -30t-29.5 -13t-30.5 13t-13.5 30z" />
    <glyph glyph-name="ring" unicode="&#x2da;" horiz-adv-x="257" 
d="M24 687q0 43 30.5 71t75.5 28q43 0 73.5 -28.5t30.5 -70.5t-30.5 -70.5t-73.5 -28.5q-45 0 -75.5 28t-30.5 71zM195 687q0 27 -19 44.5t-47 17.5t-47 -17.5t-19 -44.5q0 -28 18.5 -45t47.5 -17t47.5 17t18.5 45z" />
    <glyph glyph-name="ogonek" unicode="&#x2db;" horiz-adv-x="230" 
d="M135 -183q-28 0 -50 8.5t-36 27t-14 43.5q0 42 35 72.5t103 56.5l9 -22q-53 -25 -78.5 -48t-25.5 -54q0 -25 17.5 -38t45.5 -13q33 0 60 12l6 -31q-37 -14 -72 -14z" />
    <glyph glyph-name="tilde" unicode="&#x2dc;" horiz-adv-x="349" 
d="M22 623q-2 42 20.5 71t60.5 29q32 0 73 -32t65 -32t38 16t15 41h34q2 -41 -21 -70.5t-60 -29.5q-32 0 -73 32t-65 32q-25 0 -39 -16t-14 -41h-34z" />
    <glyph glyph-name="hungarumlaut" unicode="&#x2dd;" horiz-adv-x="312" 
d="M68 607h-46l63 146h53zM222 607h-46l63 146h54z" />
    <glyph glyph-name="uni0326" unicode="&#x326;" horiz-adv-x="0" 
d="M49 -83q0 18 12 30.5t30 12.5q41 0 41 -51q0 -112 -92 -169v26q50 40 53 108h-1q-17 0 -30 13t-13 30z" />
    <glyph glyph-name="Omega" unicode="&#x3a9;" horiz-adv-x="776" 
d="M388 671q-127 0 -200 -84t-73 -217q0 -101 54.5 -192t118.5 -138v-40h-265v45h201q-64 56 -110 143.5t-46 183.5q0 150 85 246.5t235 96.5q148 0 234 -95.5t86 -247.5q0 -96 -46 -183t-110 -144h200v-45h-264v40q64 47 118 138t54 192q0 133 -72.5 217t-199.5 84z" />
    <glyph glyph-name="mu" unicode="&#x3bc;" horiz-adv-x="589" 
d="M291 44q65 0 106.5 46t41.5 112v304h56v-506h-53v86q-19 -42 -62 -68.5t-100 -26.5q-79 0 -129 50v-296h-56v761h56v-307q0 -70 37 -112.5t103 -42.5z" />
    <glyph glyph-name="pi" unicode="&#x3c0;" horiz-adv-x="629" 
d="M442 456q43 0 67.5 16t43.5 49l44 -26q-44 -89 -129 -89h-28l-36 -302q-9 -63 45 -63q30 0 60 25l26 -35q-44 -38 -94 -38q-96 0 -84 109l38 304h-140l-29 -232q-14 -99 -50 -174h-54q42 83 57 185l27 221h-47q-52 0 -99 -41l-26 38q59 53 135 53h273z" />
    <glyph glyph-name="Wgrave" unicode="&#x1e80;" horiz-adv-x="1115" 
d="M583 795h-56l-183 135h80zM829 0h-50l-222 639l-221 -639h-50l-262 748h65l223 -646l221 646h49l222 -646l223 646h63z" />
    <glyph glyph-name="wgrave" unicode="&#x1e81;" horiz-adv-x="806" 
d="M425 593h-45l-131 191h64zM602 0h-45l-153 411l-155 -411h-44l-192 506h61l155 -416l154 416h40l155 -416l154 416h61z" />
    <glyph glyph-name="Wacute" unicode="&#x1e82;" horiz-adv-x="1115" 
d="M583 795h-55l159 135h80zM829 0h-50l-222 639l-221 -639h-50l-262 748h65l223 -646l221 646h49l222 -646l223 646h63z" />
    <glyph glyph-name="wacute" unicode="&#x1e83;" horiz-adv-x="806" 
d="M425 593h-46l113 191h63zM602 0h-45l-153 411l-155 -411h-44l-192 506h61l155 -416l154 416h40l155 -416l154 416h61z" />
    <glyph glyph-name="Wdieresis" unicode="&#x1e84;" horiz-adv-x="1115" 
d="M456 864q0 15 11 26t27 11t27.5 -11t11.5 -26q0 -16 -11.5 -27t-27.5 -11t-27 11t-11 27zM584 864q0 15 11 26t27 11t27 -11t11 -26q0 -16 -11 -27t-27 -11t-27 11t-11 27zM829 0h-50l-222 639l-221 -639h-50l-262 748h65l223 -646l221 646h49l222 -646l223 646h63z" />
    <glyph glyph-name="wdieresis" unicode="&#x1e85;" horiz-adv-x="806" 
d="M298 681q0 16 11 27t27 11t27.5 -11t11.5 -27q0 -15 -11.5 -25.5t-27.5 -10.5t-27 10t-11 26zM426 681q0 16 11 27t27 11t27 -11t11 -27t-11 -26t-27 -10t-27 10t-11 26zM602 0h-45l-153 411l-155 -411h-44l-192 506h61l155 -416l154 416h40l155 -416l154 416h61z" />
    <glyph glyph-name="Ygrave" unicode="&#x1ef2;" horiz-adv-x="666" 
d="M359 795h-56l-183 135h80zM362 0h-59v322l-283 426h69l244 -368l244 368h68l-283 -426v-322z" />
    <glyph glyph-name="ygrave" unicode="&#x1ef3;" horiz-adv-x="509" 
d="M277 593h-45l-131 191h64zM171 -255h-62l115 273l-203 488h62l172 -424l172 424h62z" />
    <glyph glyph-name="endash" unicode="&#x2013;" horiz-adv-x="561" 
d="M516 235h-471v53h471v-53z" />
    <glyph glyph-name="emdash" unicode="&#x2014;" horiz-adv-x="793" 
d="M748 235h-703v53h703v-53z" />
    <glyph glyph-name="quoteleft" unicode="&#x2018;" horiz-adv-x="161" 
d="M125 559q0 -18 -12 -30.5t-30 -12.5q-41 0 -41 51q0 112 92 169v-27q-51 -41 -53 -108h1q18 0 30.5 -12t12.5 -30z" />
    <glyph glyph-name="quoteright" unicode="&#x2019;" horiz-adv-x="161" 
d="M36 693q0 18 12 30.5t29 12.5q42 0 42 -51q0 -112 -92 -169v26q50 40 53 108h-1q-17 0 -30 13t-13 30z" />
    <glyph glyph-name="quotesinglbase" unicode="&#x201a;" horiz-adv-x="161" 
d="M36 35q0 18 12 30.5t29 12.5q42 0 42 -51q0 -112 -92 -169v27q50 40 53 107h-1q-17 0 -30 13t-13 30z" />
    <glyph glyph-name="quotedblleft" unicode="&#x201c;" horiz-adv-x="306" 
d="M118 559q0 -18 -12 -30.5t-30 -12.5q-41 0 -41 51q0 112 92 169v-27q-50 -40 -53 -107h1q17 0 30 -13t13 -30zM263 559q0 -18 -12 -30.5t-30 -12.5q-41 0 -41 51q0 112 92 169v-27q-50 -40 -53 -107h1q17 0 30 -13t13 -30z" />
    <glyph glyph-name="quotedblright" unicode="&#x201d;" horiz-adv-x="306" 
d="M29 693q0 18 12 30.5t30 12.5q41 0 41 -51q0 -112 -92 -169v27q50 40 53 107h-1q-17 0 -30 13t-13 30zM174 693q0 9 3 17t9 13.5t13.5 9t16.5 3.5q41 0 41 -51q0 -112 -92 -169v27q50 40 53 107h-1q-17 0 -30 13t-13 30z" />
    <glyph glyph-name="quotedblbase" unicode="&#x201e;" horiz-adv-x="306" 
d="M36 35q0 18 12 30.5t29 12.5q42 0 42 -51q0 -112 -92 -169v27q50 40 53 107h-1q-17 0 -30 13t-13 30zM182 35q0 18 11.5 30.5t29.5 12.5q42 0 42 -51q0 -112 -93 -169v27q51 41 54 107h-2q-17 0 -29.5 12.5t-12.5 30.5z" />
    <glyph glyph-name="dagger" unicode="&#x2020;" horiz-adv-x="472" 
d="M264 534h185v-51h-185v-550h-56v550h-186v51h186v214h56v-214z" />
    <glyph glyph-name="daggerdbl" unicode="&#x2021;" horiz-adv-x="472" 
d="M264 534h185v-51h-185v-284h185v-52h-185v-214h-56v214h-186v52h186v284h-186v51h186v214h56v-214z" />
    <glyph glyph-name="bullet" unicode="&#x2022;" horiz-adv-x="349" 
d="M57 255q0 49 34.5 83t83.5 34q48 0 82 -34.5t34 -82.5t-34 -83t-82 -35q-49 0 -83.5 34.5t-34.5 83.5z" />
    <glyph glyph-name="ellipsis" unicode="&#x2026;" horiz-adv-x="545" 
d="M48 35q0 19 12.5 31.5t30.5 12.5q19 0 32 -12.5t13 -31.5t-13 -31.5t-32 -12.5q-18 0 -30.5 12.5t-12.5 31.5zM226 35q0 19 12.5 31.5t30.5 12.5q19 0 32 -12.5t13 -31.5t-13 -31.5t-32 -12.5q-18 0 -30.5 12.5t-12.5 31.5zM405 35q0 19 12.5 31.5t30.5 12.5
q19 0 32 -12.5t13 -31.5t-13 -31.5t-32 -12.5q-18 0 -30.5 12.5t-12.5 31.5z" />
    <glyph glyph-name="perthousand" unicode="&#x2030;" horiz-adv-x="1194" 
d="M42 584q0 75 43 124t114 49q72 0 114 -48t42 -125q0 -76 -42.5 -124.5t-113.5 -48.5t-114 49t-43 124zM161 0h-56l546 748h56zM313 584q0 58 -31 95t-84 37q-52 0 -83 -37.5t-31 -94.5t31 -95t83 -38q53 0 84 37.5t31 95.5zM457 165q0 75 42.5 123.5t113.5 48.5t114 -48
t43 -124t-43 -125t-114 -49q-70 0 -113 49.5t-43 124.5zM839 165q0 75 42.5 123.5t113.5 48.5t114 -48t43 -124t-43 -125t-114 -49t-113.5 49t-42.5 125zM727 165q0 58 -30.5 95t-83.5 37t-83.5 -37t-30.5 -95q0 -57 31 -95t83 -38q53 0 83.5 37.5t30.5 95.5zM1109 165
q0 58 -30.5 95t-83.5 37t-83.5 -37t-30.5 -95q0 -57 31 -95t83 -38q53 0 83.5 37.5t30.5 95.5z" />
    <glyph glyph-name="guilsinglleft" unicode="&#x2039;" horiz-adv-x="291" 
d="M269 427l-184 -175l184 -175l-41 -36l-213 211l213 210z" />
    <glyph glyph-name="guilsinglright" unicode="&#x203a;" horiz-adv-x="291" 
d="M276 252l-214 -211l-40 36l184 175l-184 175l40 35z" />
    <glyph glyph-name="fraction" unicode="&#x2044;" horiz-adv-x="184" 
d="M-147 0h-58l537 748h58z" />
    <glyph glyph-name="Euro" unicode="&#x20ac;" horiz-adv-x="706" 
d="M174 268q23 -99 91 -161.5t173 -62.5q110 0 189 66l25 -48q-86 -71 -218 -71q-126 0 -211 78t-110 199h-106l13 36h87q-4 29 -4 69q0 41 4 70h-100l13 37h93q25 122 109.5 199.5t212.5 77.5q124 0 206 -65l-19 -49q-74 61 -184 61q-105 0 -172.5 -62t-91.5 -162h379
l-14 -37h-371q-5 -37 -5 -70q0 -32 5 -69h312l-14 -36h-292z" />
    <glyph glyph-name="trademark" unicode="&#x2122;" horiz-adv-x="875" 
d="M356 707h-139v-318h-42v318h-138v41h319v-41zM804 389h-43v262l-144 -260h-20l-143 260v-262h-43v359h35l161 -293l162 293h35v-359z" />
    <glyph glyph-name="estimated" unicode="&#x212e;" horiz-adv-x="619" 
d="M49 261q0 119 78.5 197t196.5 78q109 0 178.5 -70.5t69.5 -181.5h-425v-173q0 -36 22 -48q63 -56 155 -56q75 0 133.5 36t96.5 92l13 -9q-89 -136 -243 -136q-116 0 -195.5 77.5t-79.5 193.5zM323 520q-88 0 -154 -54q-23 -12 -23 -46v-121h333v125q0 24 -5 34.5
t-20 20.5q-56 41 -131 41z" />
    <glyph glyph-name="partialdiff" unicode="&#x2202;" horiz-adv-x="613" 
d="M82 674q47 42 94.5 62.5t116.5 20.5q64 0 113 -29t77 -76q73 -120 73 -388q0 -123 -69 -198.5t-187 -75.5q-109 0 -179 69.5t-70 178.5q0 108 70 176t178 68q128 0 196 -100q-3 56 -9.5 98.5t-20 85t-37 73t-57.5 48t-78 17.5q-98 0 -178 -78zM111 238q0 -86 54 -141
t139 -55t139 54.5t54 140.5v5q-1 83 -55.5 138t-137.5 55q-84 0 -138.5 -56t-54.5 -141z" />
    <glyph glyph-name="product" unicode="&#x220f;" horiz-adv-x="634" 
d="M605 696h-106v-860h-51v860h-261v-860h-51v860h-107v52h576v-52z" />
    <glyph glyph-name="summation" unicode="&#x2211;" horiz-adv-x="600" 
d="M550 696h-431l242 -322l-242 -321h431v-53h-501v43l250 331l-250 331v43h501v-52z" />
    <glyph glyph-name="minus" unicode="&#x2212;" horiz-adv-x="546" 
d="M511 344h-478v52h478v-52z" />
    <glyph glyph-name="radical" unicode="&#x221a;" horiz-adv-x="612" 
d="M576 675l-257 -752l-139 352l-117 -77l-29 45l167 107l117 -306l212 651z" />
    <glyph glyph-name="infinity" unicode="&#x221e;" horiz-adv-x="792" 
d="M32 305q0 71 43 119.5t111 48.5q87 0 164 -97l25 -33l21 27q45 58 89.5 88.5t102.5 30.5q75 0 123.5 -53t48.5 -130t-48.5 -130t-123.5 -53q-101 0 -187 111l-25 33l-26 -33q-82 -95 -164 -95q-68 0 -111 47.5t-43 118.5zM712 306q0 37 -15.5 67.5t-44 49t-64.5 18.5
q-48 0 -84 -27t-77 -80l-23 -30l26 -33q78 -100 158 -100q27 0 50 11t39.5 29t25.5 43t9 52zM78 305q0 -50 30.5 -84.5t78.5 -34.5q71 0 136 84l27 34l-26 35q-66 87 -137 87q-32 0 -57 -16.5t-38.5 -44t-13.5 -60.5z" />
    <glyph glyph-name="integral" unicode="&#x222b;" horiz-adv-x="341" 
d="M149 604q0 79 24.5 116t90.5 37q32 0 74 -11l-10 -44q-24 9 -54 9q-46 0 -60.5 -25t-14.5 -84v-615q0 -82 -26 -120t-94 -38q-37 0 -75 11l9 43q34 -8 54 -8q49 0 65.5 27t16.5 87v615z" />
    <glyph glyph-name="approxequal" unicode="&#x2248;" horiz-adv-x="532" 
d="M505 505q-32 -40 -63 -59.5t-82 -19.5q-50 0 -103.5 32.5t-86.5 32.5q-29 0 -51 -8.5t-34 -19.5t-32 -33l-27 37q33 39 62 57.5t77 18.5q38 0 91 -32t99 -32q45 0 70 14.5t54 48.5zM505 276q-32 -40 -63 -59.5t-82 -19.5q-50 0 -103.5 32.5t-86.5 32.5q-29 0 -51 -8.5
t-34 -19.5t-32 -33l-27 37q33 39 62 57.5t77 18.5q38 0 91 -32.5t99 -32.5q44 0 69.5 15t54.5 49z" />
    <glyph glyph-name="notequal" unicode="&#x2260;" horiz-adv-x="546" 
d="M511 275v-53h-275l-53 -137l-49 13l48 124h-149v53h170l71 184h-241v53h262l53 137l49 -13l-48 -124h162v-53h-183l-71 -184h254z" />
    <glyph glyph-name="lessequal" unicode="&#x2264;" horiz-adv-x="508" 
d="M475 587l-333 -147l333 -145l-2 -57l-446 202l446 203zM475 120h-448v53h448v-53z" />
    <glyph glyph-name="greaterequal" unicode="&#x2265;" horiz-adv-x="508" 
d="M481 440l-446 -202l-2 57l334 145l-334 147l2 56zM481 120h-448v53h448v-53z" />
    <glyph glyph-name="lozenge" unicode="&#x25ca;" horiz-adv-x="525" 
d="M486 346l-205 -401h-36l-206 401l206 402h36zM98 346l165 -319l164 319l-164 320z" />
    <glyph glyph-name="fl" unicode="&#xfb02;" horiz-adv-x="570" 
d="M118 608q0 80 42.5 126.5t119.5 46.5q20 0 32 -3v-49q-14 2 -26 2q-53 0 -83 -33t-30 -89v-103h137v-49h-137v-457h-55v457h-103v49h103v102zM475 0h-56v777h56v-777z" />
    <glyph glyph-name="n.001" horiz-adv-x="604" 
d="M148 400q15 49 62.5 82t109.5 33q86 0 139 -55.5t53 -143.5v-316h-56v304q0 70 -40.5 114.5t-107.5 44.5q-66 0 -111.5 -46.5t-45.5 -112.5v-304h-56v506h53v-106z" />
    <glyph glyph-name="germandbls.cap" horiz-adv-x="682" 
d="M91 548q0 61 31.5 109t84.5 73.5t117 25.5q150 0 248 -118l-131 -190q195 -43 195 -225q0 -108 -73.5 -169.5t-190.5 -61.5q-53 0 -81 8l12 52q25 -7 67 -7q90 0 148 47t58 130q0 48 -16.5 83.5t-47.5 58t-68.5 35.5t-87.5 21l139 206q-68 78 -174 78q-72 0 -121.5 -43.5
t-49.5 -111.5v-549h-59v548z" />
    <glyph glyph-name="a.sups" horiz-adv-x="433" 
d="M59 614q0 61 44.5 101t110.5 40q148 0 148 -156v-256h-48v67q-17 -33 -53.5 -53.5t-83.5 -20.5q-59 0 -95 27.5t-36 81.5q0 111 155 121l111 7v29q0 110 -98 110q-46 0 -76 -28t-30 -72zM184 378q59 -1 93.5 36t34.5 101v20l-106 -8q-33 -3 -55 -9.5t-37.5 -24
t-15.5 -45.5q0 -70 86 -70z" />
    <glyph glyph-name="b.sups" horiz-adv-x="517" 
d="M274 336q-53 0 -93 21.5t-58 57.5v-72h-49v622h51v-287q18 35 57.5 56t91.5 21q88 0 142.5 -58.5t54.5 -150.5t-54.5 -151t-142.5 -59zM420 545q0 74 -41 120.5t-111 46.5q-44 0 -76.5 -19t-49.5 -53.5t-17 -80.5v-27q0 -70 38 -111t105 -41q70 0 111 45.5t41 119.5z" />
    <glyph glyph-name="c.sups" horiz-adv-x="458" 
d="M45 545q0 94 53 152t143 58q73 0 122 -41t57 -108l-49 -4q-7 50 -41.5 80t-88.5 30q-67 0 -106 -46.5t-39 -120.5q0 -73 39.5 -119t106.5 -46q53 0 87 27.5t42 74.5l50 -5q-11 -65 -58 -103t-121 -38q-89 0 -143 58t-54 151z" />
    <glyph glyph-name="d.sups" horiz-adv-x="517" 
d="M243 755q52 0 91.5 -21t57.5 -56v287h50v-622h-48v72q-18 -36 -58 -57.5t-93 -21.5q-88 0 -143 59t-55 151t55 150.5t143 58.5zM392 559q0 70 -38.5 111.5t-104.5 41.5q-70 0 -111 -46.5t-41 -120.5t41 -119.5t111 -45.5q67 0 105 41t38 111v27z" />
    <glyph glyph-name="e.sups" horiz-adv-x="470" 
d="M242 755q86 0 135 -54.5t49 -143.5v-29h-327q1 -67 39.5 -107.5t103.5 -40.5q51 0 84.5 23t44.5 64l51 -3q-14 -59 -61.5 -93.5t-117.5 -34.5q-90 0 -144 58t-54 151q0 94 53.5 152t143.5 58zM375 569q-1 65 -36 104t-97 39q-63 0 -101.5 -39.5t-41.5 -103.5h276z" />
    <glyph glyph-name="f.sups" horiz-adv-x="261" 
d="M93 827q0 65 35.5 102.5t98.5 37.5q13 0 27 -2v-44q-5 1 -21 1q-42 0 -65 -25t-23 -69v-80h106v-45h-106v-360h-52v360h-81v45h81v79z" />
    <glyph glyph-name="g.sups" horiz-adv-x="516" 
d="M45 546q0 92 55 150.5t143 58.5q53 0 93 -21.5t58 -57.5v72h48v-431q0 -85 -52 -134.5t-138 -49.5q-77 0 -128 37t-65 101l52 2q8 -45 46.5 -71.5t92.5 -26.5q65 0 103.5 37t38.5 101v101q-19 -36 -58 -57t-91 -21q-88 0 -143 59t-55 151zM392 560q0 70 -38 111t-105 41
q-70 0 -111 -46t-41 -120t41 -120t111 -46q66 0 104.5 41.5t38.5 111.5v27z" />
    <glyph glyph-name="h.sups" horiz-adv-x="477" 
d="M246 708q-34 0 -62 -16.5t-43.5 -45t-15.5 -62.5v-241h-51v622h51v-278q17 31 51.5 49.5t79.5 18.5q69 0 112.5 -44.5t43.5 -114.5v-253h-51v242q0 54 -31.5 88.5t-83.5 34.5z" />
    <glyph glyph-name="i.sups" horiz-adv-x="201" 
d="M64 901q0 15 10.5 25.5t25.5 10.5q14 0 25 -11t11 -25q0 -15 -10.5 -25t-25.5 -10q-16 0 -26 10t-10 25zM126 343h-51v405h51v-405z" />
    <glyph glyph-name="j.sups" horiz-adv-x="201" 
d="M64 901q0 15 10 25.5t25 10.5t26 -10.5t11 -25.5t-11 -25t-26 -10t-25 10t-10 25zM-6 180q40 0 61 24.5t21 68.5v475h51v-473q0 -65 -33 -102.5t-94 -37.5q-12 0 -28 2v45q12 -2 22 -2z" />
    <glyph glyph-name="k.sups" horiz-adv-x="415" 
d="M125 343h-51v622h51v-408l195 191h68l-181 -178l199 -227h-64l-171 191l-46 -44v-147z" />
    <glyph glyph-name="l.sups" horiz-adv-x="199" 
d="M125 343h-51v622h51v-622z" />
    <glyph glyph-name="m.sups" horiz-adv-x="750" 
d="M386 671q18 38 54 61t85 23q69 0 111 -44t42 -115v-253h-50v242q0 55 -29.5 89t-80.5 34t-84 -36t-33 -88v-241h-51v242q0 55 -29 89t-80 34t-83.5 -36t-32.5 -88v-241h-51v405h49v-61q16 29 50 48.5t76 19.5q101 0 137 -84z" />
    <glyph glyph-name="n.sups" horiz-adv-x="483" 
d="M123 687q18 30 53 49t80 19q69 0 112.5 -44.5t43.5 -114.5v-253h-51v242q0 54 -31.5 88.5t-83.5 34.5t-86.5 -36t-34.5 -88v-241h-51v405h49v-61z" />
    <glyph glyph-name="o.sups" horiz-adv-x="502" 
d="M45 545q0 92 57.5 151t147.5 59q91 0 148.5 -59t57.5 -151t-57.5 -150.5t-148.5 -58.5t-148 58.5t-57 150.5zM406 545q0 73 -42.5 120t-112.5 47q-69 0 -111.5 -47t-42.5 -120t42.5 -119t111.5 -46q70 0 112.5 46t42.5 119z" />
    <glyph glyph-name="p.sups" horiz-adv-x="517" 
d="M123 676q18 36 58 57.5t93 21.5q88 0 142.5 -58.5t54.5 -150.5t-54.5 -151t-142.5 -59q-52 0 -91.5 21.5t-57.5 56.5v-275h-51v609h49v-72zM420 546q0 74 -41 120t-111 46q-67 0 -105 -41t-38 -111v-27q0 -70 38.5 -111.5t104.5 -41.5q70 0 111 46t41 120z" />
    <glyph glyph-name="q.sups" horiz-adv-x="517" 
d="M45 546q0 92 55 150.5t143 58.5q53 0 93 -21.5t58 -57.5v72h48v-609h-50v275q-18 -35 -57.5 -56.5t-91.5 -21.5q-88 0 -143 59t-55 151zM392 560q0 70 -38 111t-105 41q-70 0 -111 -46t-41 -120t41 -120t111 -46q66 0 104.5 41.5t38.5 111.5v27z" />
    <glyph glyph-name="r.sups" horiz-adv-x="258" 
d="M246 705q-53 0 -87 -33t-34 -85v-244h-51v405h49v-59q35 65 123 65v-49z" />
    <glyph glyph-name="s.sups" horiz-adv-x="397" 
d="M50 639q0 57 39 86.5t104 29.5q62 0 98.5 -30.5t44.5 -85.5l-51 -4q-10 77 -92 77q-42 0 -67 -18.5t-25 -54.5q0 -34 23 -45q31 -14 81 -22q76 -18 109 -41t33 -74q0 -59 -41.5 -90t-108.5 -31q-65 0 -106 30.5t-49 86.5l50 4q12 -78 105 -78q99 0 99 76q0 34 -23.5 48
t-88.5 29q-3 1 -9 2q-54 11 -85 28q-40 22 -40 77z" />
    <glyph glyph-name="t.sups" horiz-adv-x="263" 
d="M205 384q24 0 44 4v-45q-17 -4 -53 -4q-116 0 -115 124l1 240h-76v45h76l1 143h50l-1 -143h116v-45h-116l-1 -234q0 -85 74 -85z" />
    <glyph glyph-name="u.sups" horiz-adv-x="470" 
d="M230 384q50 0 82.5 34t32.5 85v245h50v-405h-48v60q-39 -67 -126 -67q-69 0 -109.5 43t-40.5 114v255h51v-244q0 -54 28.5 -87t79.5 -33z" />
    <glyph glyph-name="v.sups" horiz-adv-x="411" 
d="M226 343h-40l-176 405h56l140 -326l140 326h55z" />
    <glyph glyph-name="w.sups" horiz-adv-x="649" 
d="M484 343h-38l-121 328l-122 -328h-38l-155 405h56l121 -323l120 323h36l120 -323l120 323h55z" />
    <glyph glyph-name="x.sups" horiz-adv-x="400" 
d="M236 552l149 -209h-60l-125 171l-123 -171h-62l150 209l-142 196h62l115 -160l115 160h61z" />
    <glyph glyph-name="y.sups" horiz-adv-x="413" 
d="M140 139h-55l93 223l-162 386h56l134 -326l134 326h56z" />
    <glyph glyph-name="z.sups" horiz-adv-x="358" 
d="M332 384v-41h-307v35l236 328h-230v42h290v-36l-236 -328h247z" />
    <glyph glyph-name="zero.onum" horiz-adv-x="642" 
d="M60 296q0 137 68 221t193 84t193 -84t68 -221q0 -136 -68.5 -220.5t-192.5 -84.5t-192.5 84.5t-68.5 220.5zM522 296q0 113 -51.5 183t-149.5 70t-149.5 -70t-51.5 -183t51.5 -182.5t149.5 -69.5t149.5 69.5t51.5 182.5z" />
    <glyph glyph-name="one.onum" horiz-adv-x="361" 
d="M262 0h-58v510l-156 -125l-29 45l199 160h44v-590z" />
    <glyph glyph-name="two.onum" horiz-adv-x="533" 
d="M57 378q2 103 59 162t159 59q98 0 152 -49.5t54 -143.5q0 -69 -39.5 -120t-113.5 -108l-165 -125h329v-53h-430v46l223 168q7 5 25.5 18.5t23 17t17 14t17.5 17.5t14 18.5t18 26.5q22 37 22 79q0 70 -38 105.5t-109 35.5q-76 0 -116.5 -45t-42.5 -125z" />
    <glyph glyph-name="three.onum" horiz-adv-x="551" 
d="M58 393q5 96 61 151t154 55q94 0 150.5 -53.5t56.5 -144.5q0 -64 -33 -110.5t-84 -60.5q63 -13 100.5 -61t37.5 -121q0 -99 -62 -157t-163 -58q-104 0 -162.5 57t-67.5 158l59 3q9 -78 51.5 -121.5t119.5 -43.5q76 0 121 43.5t45 118.5t-46.5 114.5t-126.5 39.5h-72v53
h71q67 0 109.5 40t42.5 106q0 68 -39.5 106.5t-107.5 38.5q-71 0 -111 -42t-45 -114z" />
    <glyph glyph-name="four.onum" horiz-adv-x="592" 
d="M424 96h142v-53h-142v-201h-57v201h-341v48l350 499h48v-494zM367 96v388l-274 -388h274z" />
    <glyph glyph-name="five.onum" horiz-adv-x="554" 
d="M445 65q0 78 -45.5 126.5t-121.5 48.5q-80 0 -148 -54h-55v404h400v-52h-342v-293q66 48 150 48q99 0 159.5 -62.5t60.5 -164.5q0 -105 -61.5 -169t-165.5 -64q-102 0 -160.5 56t-67.5 155l59 3q9 -75 51 -118t118 -43q78 0 123.5 49.5t45.5 129.5z" />
    <glyph glyph-name="six.onum" horiz-adv-x="584" 
d="M294 -9q-107 0 -175.5 66t-68.5 172q0 88 49 153l282 366h69l-218 -285q35 7 62 7q106 0 174.5 -67.5t68.5 -173.5t-68.5 -172t-174.5 -66zM110 231q0 -83 51 -135t133 -52q81 0 132 52t51 135t-51 134.5t-132 51.5q-83 0 -133.5 -50t-50.5 -136z" />
    <glyph glyph-name="seven.onum" horiz-adv-x="539" 
d="M25 538v52h492v-48l-381 -700h-65l380 696h-426z" />
    <glyph glyph-name="eight.onum" horiz-adv-x="591" 
d="M78 562q0 90 61 142.5t156 52.5q94 0 155.5 -53t61.5 -142q0 -61 -31.5 -106t-80.5 -64q56 -19 92.5 -69.5t36.5 -119.5q0 -97 -66 -154.5t-168 -57.5t-168 57.5t-66 154.5q0 46 17.5 85.5t46 65t65.5 38.5q-49 18 -80.5 63t-31.5 107zM453 559q0 66 -44 105.5t-113 39.5
t-114 -39.5t-45 -105.5q0 -65 45 -104t114 -39q68 0 112.5 39t44.5 104zM470 204q0 73 -49.5 116t-125.5 43t-125.5 -43t-49.5 -116q0 -72 50 -116t125 -44q76 0 125.5 44t49.5 116z" />
    <glyph glyph-name="nine.onum" horiz-adv-x="584" 
d="M47 361q0 106 68.5 172t174.5 66q107 0 175.5 -66t68.5 -172q0 -88 -49 -153l-282 -366h-69l218 285q-35 -7 -62 -7q-106 0 -174.5 67.5t-68.5 173.5zM107 359q0 -83 51 -134.5t132 -51.5q83 0 133.5 50t50.5 136q0 83 -51 135t-133 52q-81 0 -132 -52t-51 -135z" />
    <glyph glyph-name="zero.slash" horiz-adv-x="641" 
d="M59 374q0 109 25 192t86 137t151 54q68 0 119.5 -30.5t82 -84t45 -121t14.5 -147.5t-15 -147t-45 -121t-81.5 -84.5t-119.5 -30.5t-120 30.5t-82 84t-45 121t-15 147.5zM320 704q-56 0 -96.5 -26.5t-62.5 -74t-32 -104t-10 -125.5q0 -161 52 -245l275 522q-48 53 -126 53
zM320 44q56 0 96.5 26.5t63 74t33 104t10.5 125.5q0 157 -51 242l-275 -522q48 -50 123 -50z" />
    <glyph glyph-name="zero.subs" horiz-adv-x="369" 
d="M38 126q0 92 36.5 151t110.5 59t110 -59t36 -151q0 -93 -36 -152t-110 -59t-110.5 59t-36.5 152zM287 126q0 170 -103 170q-101 0 -101 -170t101 -170q103 0 103 170z" />
    <glyph glyph-name="one.subs" horiz-adv-x="216" 
d="M161 -80h-45v349l-81 -63l-21 34l118 91h29v-411z" />
    <glyph glyph-name="two.subs" horiz-adv-x="311" 
d="M34 213q1 57 33.5 90t89.5 33q56 0 87.5 -32t31.5 -88q0 -46 -19.5 -82t-59.5 -78l-93 -96h178v-40h-246v31l128 132q23 23 35 38t22.5 40.5t10.5 55.5q0 35 -20 57t-54 22q-39 0 -59.5 -23t-21.5 -63z" />
    <glyph glyph-name="three.subs" horiz-adv-x="320" 
d="M37 221q2 54 34 84.5t87 30.5q36 0 62 -13t40.5 -38t14.5 -59q0 -32 -17 -58t-41 -34q30 -7 49.5 -34.5t19.5 -65.5q0 -55 -35 -87t-92 -32q-58 0 -91.5 31.5t-36.5 87.5l44 4q8 -82 84 -82q38 0 60.5 21.5t22.5 58.5t-24 56.5t-64 19.5h-39v39h39q33 0 55.5 20.5
t22.5 52.5q0 34 -20 53t-54 19q-35 0 -55.5 -20.5t-21.5 -56.5z" />
    <glyph glyph-name="four.subs" horiz-adv-x="343" 
d="M250 64h72v-40h-72v-104h-44v104h-186v35l189 272h41v-267zM206 64v204l-145 -204h145z" />
    <glyph glyph-name="five.subs" horiz-adv-x="319" 
d="M244 44q0 39 -23 63t-61 24t-73 -27h-40v227h225v-40h-181v-141q32 21 74 21q56 0 89.5 -34.5t33.5 -91.5q0 -59 -35 -94.5t-94 -35.5q-56 0 -89.5 31.5t-37.5 85.5l44 2q10 -78 84 -78q39 0 61.5 24t22.5 64z" />
    <glyph glyph-name="six.subs" horiz-adv-x="339" 
d="M171 -85q-60 0 -99 37t-39 96q0 46 28 84l150 199h54l-115 -151q7 1 21 1q59 0 97.5 -37t38.5 -96t-38.5 -96t-97.5 -37zM170 -44q42 0 67 25.5t25 67.5t-25 67t-67 25t-67 -25.5t-25 -66.5q0 -42 25 -67.5t67 -25.5z" />
    <glyph glyph-name="seven.subs" horiz-adv-x="314" 
d="M21 291v40h273v-33l-200 -378h-50l198 371h-221z" />
    <glyph glyph-name="eight.subs" horiz-adv-x="342" 
d="M48 227q0 50 35 79.5t88 29.5t87.5 -29.5t34.5 -79.5q0 -60 -50 -91q60 -32 60 -103q0 -54 -37.5 -86t-94.5 -32t-94.5 32t-37.5 86q0 69 59 103q-50 33 -50 91zM251 223q0 34 -22.5 53.5t-57.5 19.5t-58 -19.5t-23 -53.5t22.5 -53t58.5 -19q35 0 57.5 19t22.5 53z
M258 34q0 37 -24 58t-63 21t-63.5 -21t-24.5 -58q0 -36 25 -57t63 -21t62.5 21t24.5 57z" />
    <glyph glyph-name="nine.subs" horiz-adv-x="339" 
d="M33 203q0 59 38.5 96t97.5 37q60 0 99 -37t39 -96q0 -46 -28 -84l-150 -199h-54l115 151q-7 -1 -21 -1q-59 0 -97.5 37t-38.5 96zM78 202q0 -41 25.5 -67t66.5 -26t66.5 26t25.5 67q0 42 -25.5 68t-66.5 26t-66.5 -26t-25.5 -68z" />
    <glyph glyph-name="zero.sups" horiz-adv-x="369" 
d="M38 608q0 92 36.5 151t110.5 59t110 -59t36 -151q0 -93 -36 -152t-110 -59t-110.5 59t-36.5 152zM287 608q0 170 -103 170q-101 0 -101 -170t101 -170q103 0 103 170z" />
    <glyph glyph-name="one.sups" horiz-adv-x="216" 
d="M161 402h-45v349l-81 -63l-21 34l118 91h29v-411z" />
    <glyph glyph-name="two.sups" horiz-adv-x="311" 
d="M34 695q1 57 33.5 90t89.5 33q56 0 87.5 -32t31.5 -88q0 -46 -19.5 -82t-59.5 -78l-93 -96h178v-40h-246v31l128 132q23 23 35 38t22.5 40.5t10.5 55.5q0 35 -20 57t-54 22q-39 0 -59.5 -23t-21.5 -63z" />
    <glyph glyph-name="three.sups" horiz-adv-x="320" 
d="M37 703q2 54 34 84.5t87 30.5q36 0 62 -13t40.5 -38t14.5 -59q0 -32 -17 -58t-41 -34q30 -7 49.5 -34.5t19.5 -65.5q0 -55 -35 -87t-92 -32q-58 0 -91.5 31.5t-36.5 87.5l44 4q8 -82 84 -82q38 0 60.5 21.5t22.5 58.5t-24 56.5t-64 19.5h-39v39h39q33 0 55.5 20.5
t22.5 52.5q0 34 -20 53t-54 19q-35 0 -55.5 -20.5t-21.5 -56.5z" />
    <glyph glyph-name="four.sups" horiz-adv-x="343" 
d="M250 546h72v-40h-72v-104h-44v104h-186v35l189 272h41v-267zM206 546v204l-145 -204h145z" />
    <glyph glyph-name="five.sups" horiz-adv-x="319" 
d="M244 526q0 39 -23 63t-61 24t-73 -27h-40v227h225v-40h-181v-141q32 21 74 21q37 0 65 -15.5t43 -44.5t15 -66q0 -59 -35 -94.5t-94 -35.5q-56 0 -89.5 31.5t-37.5 85.5l44 2q10 -78 84 -78q39 0 61.5 24t22.5 64z" />
    <glyph glyph-name="six.sups" horiz-adv-x="339" 
d="M171 397q-60 0 -99 37t-39 96q0 46 28 84l150 199h54l-115 -151q7 1 21 1q59 0 97.5 -37t38.5 -96t-38.5 -96t-97.5 -37zM78 531q0 -42 25 -67.5t67 -25.5t67 25.5t25 67.5t-25 67t-67 25t-67 -25.5t-25 -66.5z" />
    <glyph glyph-name="seven.sups" horiz-adv-x="314" 
d="M21 773v40h273v-33l-200 -378h-50l198 371h-221z" />
    <glyph glyph-name="eight.sups" horiz-adv-x="342" 
d="M48 709q0 50 35 79.5t88 29.5t87.5 -29.5t34.5 -79.5q0 -60 -50 -91q60 -32 60 -103q0 -54 -37.5 -86t-94.5 -32t-94.5 32t-37.5 86q0 69 59 103q-50 33 -50 91zM251 705q0 34 -22.5 53.5t-57.5 19.5t-58 -19.5t-23 -53.5t22.5 -53t58.5 -19q35 0 57.5 19t22.5 53z
M258 516q0 37 -24 58t-63 21t-63.5 -21t-24.5 -58q0 -36 25 -57t63 -21t62.5 21t24.5 57z" />
    <glyph glyph-name="nine.sups" horiz-adv-x="339" 
d="M33 685q0 59 38.5 96t97.5 37q60 0 99 -37t39 -96q0 -46 -28 -84l-150 -199h-54l115 151q-7 -1 -21 -1q-59 0 -97.5 37t-38.5 96zM78 684q0 -41 25.5 -67t66.5 -26t66.5 26t25.5 67q0 42 -25.5 68t-66.5 26t-66.5 -26t-25.5 -68z" />
    <glyph glyph-name="zero.tnum" horiz-adv-x="650" 
d="M63 374q0 109 25 192t86 137t151 54q68 0 119.5 -30.5t82 -84t45 -121t14.5 -147.5t-15 -147t-45 -121t-81.5 -84.5t-119.5 -30.5t-120 30.5t-82 84t-45 121t-15 147.5zM526 374q0 69 -10 125.5t-32.5 104t-63 74t-96.5 26.5t-96.5 -26.5t-62.5 -74t-32 -104t-10 -125.5
t10 -125.5t32 -104t62.5 -74t96.5 -26.5t96.5 26.5t63 74t32.5 104t10 125.5z" />
    <glyph glyph-name="one.tnum" horiz-adv-x="650" 
d="M390 53h169v-53h-410v53h182v615l-170 -137l-29 44l214 173h44v-695z" />
    <glyph glyph-name="two.tnum" horiz-adv-x="650" 
d="M109 534q2 104 59 163.5t159 59.5q97 0 151.5 -55.5t54.5 -152.5q0 -88 -37.5 -156.5t-115.5 -146.5l-188 -193h353v-53h-433v47l225 232q74 77 105.5 134.5t31.5 133.5q0 72 -38.5 114.5t-107.5 42.5q-77 0 -117.5 -46t-41.5 -127z" />
    <glyph glyph-name="three.tnum" horiz-adv-x="650" 
d="M108 551q5 96 61 151t154 55q94 0 150 -53t56 -145q0 -63 -32.5 -110t-83.5 -61q63 -13 100.5 -61t37.5 -121q0 -98 -62 -156.5t-163 -58.5q-103 0 -162.5 57.5t-67.5 157.5l59 3q8 -77 51 -121t120 -44q75 0 120 44t45 118q0 75 -46.5 114.5t-126.5 39.5h-71v53h70
q68 0 110.5 40t42.5 106q0 68 -39.5 106.5t-107.5 38.5q-71 0 -111 -42t-45 -114z" />
    <glyph glyph-name="four.tnum" horiz-adv-x="650" 
d="M450 254h142v-53h-142v-201h-57v201h-341v48l350 499h48v-494zM393 254v388l-274 -388h274z" />
    <glyph glyph-name="five.tnum" horiz-adv-x="650" 
d="M490 223q0 78 -45.5 126.5t-121.5 48.5q-79 0 -149 -54h-54v404h400v-52h-342v-293q66 48 150 48q99 0 159.5 -62.5t60.5 -164.5q0 -105 -61.5 -169t-165.5 -64q-102 0 -160.5 56t-67.5 155l59 3q8 -75 50.5 -118t118.5 -43q78 0 123.5 49.5t45.5 129.5z" />
    <glyph glyph-name="six.tnum" horiz-adv-x="650" 
d="M321 -9q-107 0 -175.5 66t-68.5 172q0 88 49 153l282 366h69l-217 -285q27 7 61 7q106 0 174.5 -67.5t68.5 -173.5t-68.5 -172t-174.5 -66zM137 231q0 -83 51 -135t133 -52q81 0 132 52t51 135t-51 134.5t-132 51.5q-83 0 -133.5 -50.5t-50.5 -135.5z" />
    <glyph glyph-name="seven.tnum" horiz-adv-x="650" 
d="M78 695v52h492v-48l-380 -700h-66l381 696h-427z" />
    <glyph glyph-name="eight.tnum" horiz-adv-x="650" 
d="M107 562q0 90 61 142.5t156 52.5t156 -52.5t61 -142.5q0 -61 -31.5 -106t-80.5 -64q37 -12 65.5 -38t46 -65.5t17.5 -85.5q0 -97 -66 -154.5t-168 -57.5t-167.5 57.5t-65.5 154.5q0 69 36 119t92 70q-49 18 -80.5 63t-31.5 107zM483 559q0 65 -45 105t-113 40
q-69 0 -114 -39.5t-45 -105.5q0 -65 45 -104t114 -39q68 0 113 39t45 104zM499 204q0 73 -49.5 116t-125.5 43t-125 -43t-49 -116q0 -72 49.5 -116t124.5 -44q76 0 125.5 44t49.5 116z" />
    <glyph glyph-name="nine.tnum" horiz-adv-x="650" 
d="M86 519q0 106 68.5 172t174.5 66q107 0 175.5 -66t68.5 -172q0 -88 -49 -153l-282 -366h-69l217 285q-27 -7 -61 -7q-106 0 -174.5 67.5t-68.5 173.5zM146 517q0 -83 51 -134.5t132 -51.5q83 0 133.5 50.5t50.5 135.5q0 83 -51 135t-133 52q-81 0 -132 -52t-51 -135z" />
    <glyph glyph-name="zero.dnom" horiz-adv-x="369" 
d="M38 206q0 92 36.5 151t110.5 59t110 -59t36 -151q0 -93 -36 -152t-110 -59t-110.5 59t-36.5 152zM287 206q0 170 -103 170q-101 0 -101 -170t101 -170q103 0 103 170z" />
    <glyph glyph-name="one.dnom" horiz-adv-x="216" 
d="M161 0h-45v349l-81 -63l-21 34l118 91h29v-411z" />
    <glyph glyph-name="two.dnom" horiz-adv-x="311" 
d="M34 293q1 57 33.5 90t89.5 33q56 0 87.5 -32t31.5 -88q0 -46 -19.5 -82t-59.5 -78l-93 -96h178v-40h-246v31l128 132q23 23 35 38t22.5 40.5t10.5 55.5q0 35 -20 57t-54 22q-39 0 -59.5 -23t-21.5 -63z" />
    <glyph glyph-name="three.dnom" horiz-adv-x="320" 
d="M37 301q2 54 34 84.5t87 30.5q36 0 62 -13t40.5 -38t14.5 -59q0 -32 -17 -58t-41 -34q30 -7 49.5 -34.5t19.5 -65.5q0 -55 -35 -87t-92 -32q-58 0 -91.5 31.5t-36.5 87.5l44 4q8 -82 84 -82q38 0 60.5 21.5t22.5 58.5t-24 56.5t-64 19.5h-39v39h39q33 0 55.5 20.5
t22.5 52.5q0 34 -20 53t-54 19q-35 0 -55.5 -20.5t-21.5 -56.5z" />
    <glyph glyph-name="four.dnom" horiz-adv-x="343" 
d="M250 144h72v-40h-72v-104h-44v104h-186v35l189 272h41v-267zM206 144v204l-145 -204h145z" />
    <glyph glyph-name="five.dnom" horiz-adv-x="319" 
d="M244 124q0 39 -23 63t-61 24t-73 -27h-40v227h225v-40h-181v-141q32 21 74 21q37 0 65 -15.5t43 -44.5t15 -66q0 -59 -35 -94.5t-94 -35.5q-56 0 -89.5 31.5t-37.5 85.5l44 2q10 -78 84 -78q39 0 61.5 24t22.5 64z" />
    <glyph glyph-name="six.dnom" horiz-adv-x="339" 
d="M171 -5q-60 0 -99 37t-39 96q0 46 28 84l150 199h54l-115 -151q7 1 21 1q59 0 97.5 -37t38.5 -96t-38.5 -96t-97.5 -37zM170 36q42 0 67 25.5t25 67.5t-25 67t-67 25t-67 -25.5t-25 -66.5q0 -42 25 -67.5t67 -25.5z" />
    <glyph glyph-name="seven.dnom" horiz-adv-x="314" 
d="M21 371v40h273v-33l-200 -378h-50l198 371h-221z" />
    <glyph glyph-name="eight.dnom" horiz-adv-x="342" 
d="M48 307q0 50 35 79.5t88 29.5t87.5 -29.5t34.5 -79.5q0 -60 -50 -91q60 -32 60 -103q0 -54 -37.5 -86t-94.5 -32t-94.5 32t-37.5 86q0 69 59 103q-50 33 -50 91zM251 303q0 22 -10.5 39t-28.5 25.5t-41 8.5q-17 0 -32 -5t-26 -14.5t-17 -23t-6 -30.5q0 -34 22.5 -53
t58.5 -19q35 0 57.5 19t22.5 53zM258 114q0 37 -24 58t-63 21t-63.5 -21t-24.5 -58q0 -36 25 -57t63 -21t62.5 21t24.5 57z" />
    <glyph glyph-name="nine.dnom" horiz-adv-x="339" 
d="M33 283q0 59 38.5 96t97.5 37q60 0 99 -37t39 -96q0 -46 -28 -84l-150 -199h-54l115 151q-7 -1 -21 -1q-59 0 -97.5 37t-38.5 96zM78 282q0 -41 25.5 -67t66.5 -26t66.5 26t25.5 67q0 42 -25.5 68t-66.5 26t-66.5 -26t-25.5 -68z" />
    <glyph glyph-name="zero.numr" horiz-adv-x="369" 
d="M38 527q0 92 36.5 151t110.5 59t110 -59t36 -151q0 -93 -36 -152t-110 -59t-110.5 59t-36.5 152zM287 527q0 170 -103 170q-101 0 -101 -170t101 -170q103 0 103 170z" />
    <glyph glyph-name="one.numr" horiz-adv-x="216" 
d="M161 322h-45v349l-81 -63l-21 34l118 91h29v-411z" />
    <glyph glyph-name="two.numr" horiz-adv-x="311" 
d="M34 615q1 57 33.5 90t89.5 33q56 0 87.5 -32t31.5 -88q0 -46 -19.5 -82t-59.5 -78l-93 -96h178v-40h-246v31l128 132q23 23 35 38t22.5 40.5t10.5 55.5q0 35 -20 57t-54 22q-39 0 -59.5 -23t-21.5 -63z" />
    <glyph glyph-name="three.numr" horiz-adv-x="320" 
d="M37 623q2 54 34 84.5t87 30.5q36 0 62 -13t40.5 -38t14.5 -59q0 -32 -17 -58t-41 -34q30 -7 49.5 -34.5t19.5 -65.5q0 -55 -35 -87t-92 -32q-58 0 -91.5 31.5t-36.5 87.5l44 4q8 -82 84 -82q38 0 60.5 21.5t22.5 58.5t-24 56.5t-64 19.5h-39v39h39q33 0 55.5 20.5
t22.5 52.5q0 34 -20 53t-54 19q-35 0 -55.5 -20.5t-21.5 -56.5z" />
    <glyph glyph-name="four.numr" horiz-adv-x="343" 
d="M250 466h72v-40h-72v-104h-44v104h-186v35l189 272h41v-267zM206 466v204l-145 -204h145z" />
    <glyph glyph-name="five.numr" horiz-adv-x="319" 
d="M244 446q0 39 -23 63t-61 24t-73 -27h-40v227h225v-40h-181v-141q32 21 74 21q56 0 89.5 -34.5t33.5 -91.5q0 -59 -35 -94.5t-94 -35.5q-56 0 -89.5 31.5t-37.5 85.5l44 2q10 -78 84 -78q39 0 61.5 24t22.5 64z" />
    <glyph glyph-name="six.numr" horiz-adv-x="339" 
d="M171 317q-60 0 -99 37t-39 96q0 46 28 84l150 199h54l-115 -151q7 1 21 1q59 0 97.5 -37t38.5 -96t-38.5 -96t-97.5 -37zM78 451q0 -42 25 -67.5t67 -25.5t67 25.5t25 67.5t-25 67t-67 25t-67 -25.5t-25 -66.5z" />
    <glyph glyph-name="seven.numr" horiz-adv-x="314" 
d="M21 693v40h273v-33l-200 -378h-50l198 371h-221z" />
    <glyph glyph-name="eight.numr" horiz-adv-x="342" 
d="M48 629q0 50 35 79.5t88 29.5t87.5 -29.5t34.5 -79.5q0 -60 -50 -91q60 -32 60 -103q0 -54 -37.5 -86t-94.5 -32q-38 0 -67.5 14t-47 41t-17.5 63q0 69 59 103q-50 33 -50 91zM251 625q0 34 -22.5 53.5t-57.5 19.5t-58 -19.5t-23 -53.5t22.5 -53t58.5 -19q35 0 57.5 19
t22.5 53zM258 436q0 37 -24 58t-63 21t-63.5 -21t-24.5 -58q0 -36 25 -57t63 -21t62.5 21t24.5 57z" />
    <glyph glyph-name="nine.numr" horiz-adv-x="339" 
d="M33 605q0 59 38.5 96t97.5 37q60 0 99 -37t39 -96q0 -46 -28 -84l-150 -199h-54l115 151q-7 -1 -21 -1q-59 0 -97.5 37t-38.5 96zM78 604q0 -41 25.5 -67t66.5 -26t66.5 26t25.5 67q0 42 -25.5 68t-66.5 26t-66.5 -26t-25.5 -68z" />
    <glyph glyph-name="periodcentered.cap" horiz-adv-x="190" 
d="M48 398q0 19 12.5 31.5t30.5 12.5q19 0 32 -12.5t13 -31.5t-13 -31.5t-32 -12.5q-18 0 -30.5 12.5t-12.5 31.5z" />
    <glyph glyph-name="exclamdown.cap" horiz-adv-x="257" 
d="M172 713q0 -19 -12.5 -31.5t-30.5 -12.5q-19 0 -32 12.5t-13 31.5t13 31.5t32 12.5q18 0 30.5 -12.5t12.5 -31.5zM100 559h58l3 -559h-64z" />
    <glyph glyph-name="questiondown.cap" horiz-adv-x="485" 
d="M293 713q0 -19 -12.5 -31.5t-30.5 -12.5q-19 0 -32 12.5t-13 31.5t13 31.5t32 12.5q18 0 30.5 -12.5t12.5 -31.5zM242 -10q-99 0 -159.5 57t-60.5 153q0 63 26 102t83 79q50 37 68.5 69.5t18.5 82.5v26h59v-29q0 -54 -21 -91.5t-75 -79.5q-51 -37 -75 -71.5t-24 -86.5
q0 -72 43.5 -115t116.5 -43t115 37.5t50 105.5l59 -4q-8 -89 -67.5 -140.5t-156.5 -51.5z" />
    <glyph glyph-name="braceleft.cap" horiz-adv-x="225" 
d="M201 722h-6q-105 0 -69 -178q0 -2 1 -6q4 -21 6 -33t4.5 -33.5t0.5 -35t-6 -28t-15 -23.5t-27 -13q16 -4 26.5 -13t15 -24.5t6 -29t-1 -36t-4.5 -34.5t-6 -35q-36 -178 69 -178h6v-47h-6q-84 0 -115.5 60.5t-8.5 161.5q1 5 4.5 20t4 17.5t3 16t2 16t1 17.5t-0.5 20
q-3 45 -55 45h-8v47h8q26 0 39.5 10t14.5 34q3 3 1 20t-0.5 18t-1.5 16t-3 16t-4 17.5t-5 20.5q-23 101 8.5 161t115.5 60h6v-47z" />
    <glyph glyph-name="braceright.cap" horiz-adv-x="225" 
d="M23 769h6q85 0 116 -60t8 -161q-14 -61 -15 -91q-1 -61 56 -61h8v-47h-8q-52 0 -54 -44q-1 -8 -1 -15.5v-13.5t1 -13.5t1.5 -11.5t2.5 -13t2.5 -12t3 -14t3.5 -15q23 -102 -8 -162t-116 -60h-6v47h6q104 0 70 178q-8 27 -11 53t-1.5 51.5t13.5 44t34 23.5q-15 4 -25 13.5
t-15 23t-7 30t-0.5 35t4.5 36t8 34.5q34 178 -70 178h-6v47z" />
    <glyph glyph-name="bracketleft.cap" horiz-adv-x="243" 
d="M220 723h-103v-701h103v-47h-159v795h159v-47z" />
    <glyph glyph-name="bracketright.cap" horiz-adv-x="247" 
d="M183 -25h-160v47h104v701h-104v47h160v-795z" />
    <glyph glyph-name="parenleft.cap" horiz-adv-x="234" 
d="M98 362q0 -214 114 -385l-49 -19q-121 181 -121 404q0 225 121 404l49 -18q-114 -171 -114 -386z" />
    <glyph glyph-name="parenright.cap" horiz-adv-x="232" 
d="M136 362q0 215 -114 386l48 18q122 -177 122 -404q0 -225 -122 -404l-48 19q114 171 114 385z" />
    <glyph glyph-name="emdash.cap" horiz-adv-x="793" 
d="M748 350h-703v53h703v-53z" />
    <glyph glyph-name="endash.cap" horiz-adv-x="561" 
d="M516 350h-471v53h471v-53z" />
    <glyph glyph-name="hyphen.cap" horiz-adv-x="401" 
d="M356 350h-311v53h311v-53z" />
    <glyph glyph-name="guillemotleft.cap" horiz-adv-x="505" 
d="M246 563l-166 -182l166 -183l-44 -29l-187 212l187 211zM483 563l-166 -182l166 -183l-44 -29l-187 212l187 211z" />
    <glyph glyph-name="guillemotright.cap" horiz-adv-x="505" 
d="M253 381l-187 -212l-44 29l166 183l-166 182l44 29zM490 381l-188 -212l-44 29l166 183l-166 182l44 29z" />
    <glyph glyph-name="guilsinglleft.cap" horiz-adv-x="291" 
d="M269 556l-184 -175l184 -175l-41 -36l-213 211l213 210z" />
    <glyph glyph-name="guilsinglright.cap" horiz-adv-x="291" 
d="M276 381l-214 -211l-40 36l184 175l-184 175l40 35z" />
    <glyph glyph-name="emdash_guilsinglright" horiz-adv-x="836" 
d="M45 234v47h659l-170 161l40 36l227 -220l-227 -222l-40 36l171 162h-660z" />
    <glyph glyph-name="endash_guilsinglright" horiz-adv-x="579" 
d="M45 234v47h402l-169 161l40 36l226 -220l-226 -222l-40 36l171 162h-404z" />
    <glyph glyph-name="guilsinglleft_emdash" horiz-adv-x="836" 
d="M791 281v-47h-661l171 -162l-39 -36l-227 222l227 220l39 -36l-170 -161h660z" />
    <glyph glyph-name="guilsinglleft_endash" horiz-adv-x="579" 
d="M534 281v-47h-404l171 -162l-39 -36l-227 222l227 220l39 -36l-170 -161h403z" />
    <glyph glyph-name="at.cap" horiz-adv-x="799" 
d="M82 372q0 -136 90 -226t225 -90q107 0 188 53l10 -36q-86 -55 -198 -55q-151 0 -252.5 100.5t-101.5 253.5q0 152 101.5 253.5t254.5 101.5q151 0 253.5 -102t102.5 -253q0 -86 -32.5 -142.5t-99.5 -56.5q-76 0 -87 71q-45 -74 -149 -74q-86 0 -136.5 57t-50.5 149
q0 93 50 150t137 57q110 0 149 -79v69h42v-298q0 -64 54 -64q45 0 64.5 47t19.5 114q0 136 -91 227.5t-226 91.5q-137 0 -227 -91t-90 -228zM245 376q0 -75 39.5 -121t108.5 -46q34 0 60.5 10.5t44.5 30.5t27 48.5t9 64.5v27q0 72 -36.5 112.5t-104.5 40.5q-70 0 -109 -45.5
t-39 -121.5z" />
    <glyph glyph-name="acute.case" horiz-adv-x="285" 
d="M76 797h-55l159 135h80z" />
    <glyph glyph-name="breve.case" horiz-adv-x="334" 
d="M166 851q41 0 68 20.5t27 56.5h47q0 -56 -39.5 -86.5t-102.5 -30.5t-102.5 30.5t-39.5 86.5h47q0 -36 27 -56.5t68 -20.5z" />
    <glyph glyph-name="caron.case" horiz-adv-x="338" 
d="M195 797h-52l-121 135h50l96 -98l97 98h50z" />
    <glyph glyph-name="circumflex.case" horiz-adv-x="338" 
d="M315 797h-50l-97 98l-96 -98h-50l121 135h52z" />
    <glyph glyph-name="dieresis.case" horiz-adv-x="254" 
d="M25 866q0 15 11 26t27 11t27.5 -11t11.5 -26q0 -16 -11.5 -27t-27.5 -11t-27 11t-11 27zM153 866q0 15 11 26t27 11t27 -11t11 -26q0 -16 -11 -27t-27 -11t-27 11t-11 27z" />
    <glyph glyph-name="dotaccent.case" horiz-adv-x="134" 
d="M24 859q0 17 13.5 30t30.5 13t29.5 -13t12.5 -30t-12.5 -30t-29.5 -13t-30.5 13t-13.5 30z" />
    <glyph glyph-name="grave.case" horiz-adv-x="285" 
d="M263 797h-56l-183 135h80z" />
    <glyph glyph-name="hungarumlaut.case" horiz-adv-x="309" 
d="M66 800h-46l60 137h54zM220 800h-46l60 137h54z" />
    <glyph glyph-name="macron.case" horiz-adv-x="283" 
d="M264 846h-245v44h245v-44z" />
    <glyph glyph-name="ring.case" 
d="M26 888q0 40 28.5 66.5t69.5 26.5q40 0 68 -27t28 -66t-28 -66t-68 -27q-41 0 -69.5 26.5t-28.5 66.5zM184 888q0 26 -17 42t-43 16q-27 0 -44 -16t-17 -42t17.5 -42.5t43.5 -16.5t43 16.5t17 42.5z" />
    <glyph glyph-name="tilde.case" horiz-adv-x="349" 
d="M22 825q-2 42 20.5 71t60.5 29q32 0 73 -32t65 -32t38 16t15 41h34q2 -41 -21 -70.5t-60 -29.5q-32 0 -73 32t-65 32q-25 0 -39 -16t-14 -41h-34z" />
    <glyph glyph-name="anneau" horiz-adv-x="576" 
d="M32 507q0 107 74 179t182 72t182 -72t74 -179q0 -106 -74.5 -178.5t-181.5 -72.5t-181.5 72.5t-74.5 178.5zM519 507q0 96 -67 162t-164 66t-164 -66t-67 -162t67 -162t164 -66t164 66t67 162z" />
    <glyph glyph-name="null" horiz-adv-x="600" 
 />
    </font>
</defs>
</svg>
