<?xml version="1.0" encoding="UTF-8"?>
<svg width="20px" height="20px" viewBox="0 0 20 20" version="1.1" xmlns="http://www.w3.org/2000/svg" xmlns:xlink="http://www.w3.org/1999/xlink">
    <!-- Generator: Sketch 41.2 (35397) - http://www.bohemiancoding.com/sketch -->
    <title>Symbol - Gluten Free</title>
    <desc>Created with Sketch.</desc>
    <defs>
        <polygon id="path-1" points="19.44068 0.533 0.000139025482 0.533 0.000139025482 18.9996 19.44068 18.9996 19.44068 0.533"></polygon>
    </defs>
    <g id="Symbols" stroke="none" stroke-width="1" fill="none" fill-rule="evenodd">
        <g id="Symbol---Gluten-Free">
            <g id="Group-4">
                <g id="Group-13" transform="translate(0.000000, 0.467500)">
                    <mask id="mask-2" fill="white">
                        <use xlink:href="#path-1"></use>
                    </mask>
                    <g id="Clip-12"></g>
                    <path d="M16.9787368,3.6226 C15.2503158,1.7806 12.8713684,0.6886 10.2787368,0.5476 C7.68715789,0.4076 5.19031579,1.2336 3.25242105,2.8756 C1.31452632,4.5176 0.164,6.7776 0.0166315789,9.2406 C-0.132842105,11.7036 0.737684211,14.0746 2.46610526,15.9156 C4.384,17.9586 7.04926316,18.9996 9.72715789,18.9996 C12.0313684,18.9996 14.3429474,18.2296 16.1934737,16.6626 C20.1945263,13.2726 20.5471579,7.4236 16.9787368,3.6226" id="Fill-11" fill="#E2C06D" mask="url(#mask-2)"></path>
                </g>
                <path d="M9.84621053,13.28 C11.1841053,13.28 11.9693684,12.617 12.2325263,11.529 L9.85884211,11.529 L9.85884211,9.899 L14.3662105,9.899 L14.3662105,10.498 C14.3662105,13.132 12.6314737,14.924 9.87147368,14.924 C8.46515789,14.924 7.31568421,14.508 6.41884211,13.676 C5.52305263,12.844 5.07463158,11.721 5.07463158,10.306 C5.07463158,8.883 5.52094737,7.758 6.41252632,6.93 C7.30410526,6.103 8.45357895,5.689 9.85884211,5.689 C12.1904211,5.689 13.8009474,6.945 14.2777895,8.771 L12.2577895,9.095 C12.0009474,8.044 11.1788421,7.332 9.84621053,7.332 C7.99884211,7.332 7.05673684,8.48 7.05673684,10.306 C7.05673684,12.133 7.99884211,13.28 9.84621053,13.28" id="Fill-14" fill="#FFFFFF"></path>
            </g>
        </g>
    </g>
</svg>